<svg width="22" height="22" viewBox="0 0 22 22" fill="none" xmlns="http://www.w3.org/2000/svg">
<path d="M1.73468 11.6852L1.73468 8.73438L19.5576 8.73438V11.6852H1.73468Z" fill="white"/>
<path d="M5.08258 15.1121V9.06738H19.5684V15.1121H5.08258Z" fill="white"/>
<path d="M7.72223 16.3892V13.6279H19.5577V16.3892H7.72223Z" fill="white"/>
<path d="M8.96686 18.9397V15.5024H14.4572V18.9397H8.96686Z" fill="white"/>
<path d="M13.5273 17.6626V15.3198H17.0075V17.6626H13.5273Z" fill="white"/>
<path d="M10.4333 7.95805V4.48145H14.4572V7.95805H10.4333Z" fill="white"/>
<path d="M12.5509 10.2084V5.70166H15.7342V10.2084H12.5509Z" fill="white"/>
<path d="M14.4644 10.0073V7.45703H17.0146V10.0073H14.4644Z" fill="white"/>
<path d="M8.0799 5.11168V2.354H10.6373V5.11168H8.0799Z" fill="white"/>
<path d="M8.8739 6.18412V2.99365H11.9034V6.18412H8.8739Z" fill="white"/>
<path d="M18.2843 8.73393V7.45703H19.5612V8.73393H18.2843Z" fill="#020203"/>
<path d="M17.0075 8.73393V7.45703H18.2844V8.73393H17.0075Z" fill="#020203"/>
<path d="M15.7342 7.45805V6.18115H17.0111V7.45805H15.7342Z" fill="#020203"/>
<path d="M14.4573 6.18462V4.90771H15.7342V6.18462H14.4573Z" fill="#020203"/>
<path d="M13.1803 4.90776V3.63086H14.4572V4.90776H13.1803Z" fill="#020203"/>
<path d="M11.907 4.90776V3.63086H13.1839V4.90776H11.907Z" fill="#020203"/>
<path d="M10.6301 3.6309V2.354H11.907V3.6309H10.6301Z" fill="#020203"/>
<path d="M9.35315 2.35747V1.08057H10.6301V2.35747H9.35315Z" fill="#020203"/>
<path d="M8.0799 2.35747V1.08057H9.3568V2.35747H8.0799Z" fill="#020203"/>
<path d="M6.80304 4.90776V3.63086H8.07994V4.90776H6.80304Z" fill="#020203"/>
<path d="M6.80304 3.6309V2.354H8.07994V3.6309H6.80304Z" fill="#020203"/>
<path d="M9.35315 7.45805V6.18115H10.6301V7.45805H9.35315Z" fill="#020203"/>
<path d="M8.0799 6.18462V4.90771H9.3568V6.18462H8.0799Z" fill="#020203"/>
<path d="M10.6301 8.73393V7.45703H11.907V8.73393H10.6301Z" fill="#020203"/>
<path d="M9.35315 8.73393V7.45703H10.6301V8.73393H9.35315Z" fill="#020203"/>
<path d="M11.907 8.73393V7.45703H13.1839V8.73393H11.907Z" fill="#020203"/>
<path d="M6.81012 8.73393V7.45703H8.08702V8.73393H6.81012Z" fill="#020203"/>
<path d="M5.5332 8.73393V7.45703H6.8101V8.73393H5.5332Z" fill="#020203"/>
<path d="M8.0871 8.73393V7.45703H9.364V8.73393H8.0871Z" fill="#020203"/>
<path d="M2.98303 8.73393V7.45703H4.25993V8.73393H2.98303Z" fill="#020203"/>
<path d="M1.70612 8.73393V7.45703H2.98302V8.73393H1.70612Z" fill="#020203"/>
<path d="M4.25995 8.73393V7.45703H5.53685V8.73393H4.25995Z" fill="#020203"/>
<path d="M0.432739 11.2842L0.432739 10.0073H1.70964V11.2842H0.432739Z" fill="#020203"/>
<path d="M0.432739 10.0113L0.432739 8.73438H1.70964V10.0113H0.432739Z" fill="#020203"/>
<path d="M6.83875 12.5616V11.2847H8.11565V12.5616H6.83875Z" fill="#020203"/>
<path d="M5.56189 12.5616V11.2847H6.83879V12.5616H5.56189Z" fill="#020203"/>
<path d="M8.11212 12.5616V11.2847H9.38902V12.5616H8.11212Z" fill="#020203"/>
<path d="M2.94 12.5616V11.2847H4.28844V12.5616H2.94Z" fill="#020203"/>
<path d="M1.70612 12.5616V11.2847H2.98302V12.5616H1.70612Z" fill="#020203"/>
<path d="M4.28851 12.5616V11.2847H5.56541V12.5616H4.28851Z" fill="#020203"/>
<path d="M4.25995 15.1119V13.835H5.53685V15.1119H4.25995Z" fill="#020203"/>
<path d="M4.25995 13.8384V12.5615H5.53685V13.8384H4.25995Z" fill="#020203"/>
<path d="M6.81012 15.1119V13.835H8.08702V15.1119H6.81012Z" fill="#020203"/>
<path d="M5.5332 15.1119V13.835H6.8101V15.1119H5.5332Z" fill="#020203"/>
<path d="M8.0871 15.1119V13.835H9.364V15.1119H8.0871Z" fill="#020203"/>
<path d="M6.81012 17.6661V16.3892H8.08702V17.6661H6.81012Z" fill="#020203"/>
<path d="M6.81012 16.3887V15.1118H8.08702V16.3887H6.81012Z" fill="#020203"/>
<path d="M9.36041 17.6661V16.3892H10.6373V17.6661H9.36041Z" fill="#020203"/>
<path d="M8.0871 17.6661V16.3892H9.364V17.6661H8.0871Z" fill="#020203"/>
<path d="M10.6373 17.6661V16.3892H11.9142V17.6661H10.6373Z" fill="#020203"/>
<path d="M8.0871 20.2164V18.9395H9.364V20.2164H8.0871Z" fill="#020203"/>
<path d="M8.0871 18.939V17.6621H9.364V18.939H8.0871Z" fill="#020203"/>
<path d="M10.6373 20.2164V18.9395H11.9142V20.2164H10.6373Z" fill="#020203"/>
<path d="M9.36041 20.2164V18.9395H10.6373V20.2164H9.36041Z" fill="#020203"/>
<path d="M11.9141 20.2164V18.9395H13.191V20.2164H11.9141Z" fill="#020203"/>
<path d="M13.1875 20.2164V18.9395H14.4644V20.2164H13.1875Z" fill="#020203"/>
<path d="M14.4644 18.939V17.6621H15.7413V18.939H14.4644Z" fill="#020203"/>
<path d="M15.7413 18.939V17.6621H17.0182V18.939H15.7413Z" fill="#020203"/>
<path d="M17.0146 17.6661V16.3892H18.2915V17.6661H17.0146Z" fill="#020203"/>
<path d="M18.2915 17.6661V16.3892H19.5684V17.6661H18.2915Z" fill="#020203"/>
<path d="M19.5577 11.2842V10.0073H20.8346V11.2842H19.5577Z" fill="#020203"/>
<path d="M19.5577 10.0113V8.73438H20.8346V10.0113H19.5577Z" fill="#020203"/>
<path d="M19.5577 13.8384V12.5615H20.8346V13.8384H19.5577Z" fill="#020203"/>
<path d="M19.5577 12.5616V11.2847H20.8346V12.5616H19.5577Z" fill="#020203"/>
<path d="M19.5577 16.3887V15.1118H20.8346V16.3887H19.5577Z" fill="#020203"/>
<path d="M19.5577 15.1119V13.835H20.8346V15.1119H19.5577Z" fill="#020203"/>
</svg>
