<svg width="21" height="20" viewBox="0 0 21 20" fill="none" xmlns="http://www.w3.org/2000/svg">
<path d="M19.6819 11.0382V8.05029L1.63474 8.05029V11.0382H19.6819Z" fill="white"/>
<path d="M16.2919 14.5075V8.38672L1.62381 8.38672V14.5075H16.2919Z" fill="white"/>
<path d="M13.6189 15.7999V13.0039H1.63455V15.7999H13.6189Z" fill="white"/>
<path d="M12.3585 18.3824V14.9019H6.79914V18.3824H12.3585Z" fill="white"/>
<path d="M7.74084 17.089V14.7168H4.21689V17.089H7.74084Z" fill="white"/>
<path d="M10.8735 7.26399V3.74365L6.79907 3.74365V7.26399H10.8735Z" fill="white"/>
<path d="M8.72949 9.54191V4.97852H5.50614V9.54191H8.72949Z" fill="white"/>
<path d="M6.79199 9.33865V6.75635H4.20969V9.33865H6.79199Z" fill="white"/>
<path d="M13.2567 4.37977V1.5874L10.6672 1.5874V4.37977H13.2567Z" fill="white"/>
<path d="M12.4528 5.46741V2.23682H9.38514V5.46741H12.4528Z" fill="white"/>
<path d="M2.92407 8.04931V6.75635H1.63111V8.04931H2.92407Z" fill="#020203"/>
<path d="M4.21692 8.04931V6.75635H2.92396V8.04931H4.21692Z" fill="#020203"/>
<path d="M5.5061 6.75683V5.46387H4.21314V6.75683H5.5061Z" fill="#020203"/>
<path d="M6.79907 5.46777V4.1748H5.50611V5.46777H6.79907Z" fill="#020203"/>
<path d="M8.09216 4.17431V2.88135H6.7992V4.17431H8.09216Z" fill="#020203"/>
<path d="M9.38159 4.17431V2.88135H8.08863V4.17431H9.38159Z" fill="#020203"/>
<path d="M10.6746 2.88036V1.5874H9.3816V2.88036H10.6746Z" fill="#020203"/>
<path d="M11.9675 1.59228V0.299316L10.6746 0.299316V1.59228H11.9675Z" fill="#020203"/>
<path d="M13.2567 1.59228V0.299316L11.9638 0.299316V1.59228H13.2567Z" fill="#020203"/>
<path d="M14.5498 4.17431V2.88135H13.2568V4.17431H14.5498Z" fill="#020203"/>
<path d="M14.5498 2.88036V1.5874H13.2568V2.88036H14.5498Z" fill="#020203"/>
<path d="M11.9675 6.75683V5.46387H10.6746V6.75683H11.9675Z" fill="#020203"/>
<path d="M13.2567 5.46777V4.1748H11.9638V5.46777H13.2567Z" fill="#020203"/>
<path d="M10.6746 8.04931V6.75635H9.3816V8.04931H10.6746Z" fill="#020203"/>
<path d="M11.9675 8.04931V6.75635H10.6746V8.04931H11.9675Z" fill="#020203"/>
<path d="M9.38159 8.04931V6.75635H8.08863V8.04931H9.38159Z" fill="#020203"/>
<path d="M14.5425 8.04931V6.75635H13.2495V8.04931H14.5425Z" fill="#020203"/>
<path d="M15.8353 8.04931V6.75635H14.5424V8.04931H15.8353Z" fill="#020203"/>
<path d="M13.2494 8.04931V6.75635H11.9564V8.04931H13.2494Z" fill="#020203"/>
<path d="M18.4178 8.04931V6.75635H17.1249V8.04931H18.4178Z" fill="#020203"/>
<path d="M19.7108 8.04931V6.75635H18.4179V8.04931H19.7108Z" fill="#020203"/>
<path d="M17.1248 8.04931V6.75635H15.8318V8.04931H17.1248Z" fill="#020203"/>
<path d="M21 10.6318V9.33887H19.707V10.6318H21Z" fill="#020203"/>
<path d="M21 9.34326V8.05029H19.707V9.34326H21Z" fill="#020203"/>
<path d="M14.5135 11.9248V10.6318H13.2206V11.9248H14.5135Z" fill="#020203"/>
<path d="M15.8065 11.9248V10.6318H14.5136V11.9248H15.8065Z" fill="#020203"/>
<path d="M13.2241 11.9248V10.6318H11.9312V11.9248H13.2241Z" fill="#020203"/>
<path d="M18.4613 11.9248V10.6318H17.0959V11.9248H18.4613Z" fill="#020203"/>
<path d="M19.7108 11.9248V10.6318H18.4179V11.9248H19.7108Z" fill="#020203"/>
<path d="M17.0958 11.9248V10.6318H15.8029V11.9248H17.0958Z" fill="#020203"/>
<path d="M17.1248 14.5068V13.2139H15.8318V14.5068H17.1248Z" fill="#020203"/>
<path d="M17.1248 13.2183V11.9253H15.8318V13.2183H17.1248Z" fill="#020203"/>
<path d="M14.5425 14.5068V13.2139H13.2495V14.5068H14.5425Z" fill="#020203"/>
<path d="M15.8353 14.5068V13.2139H14.5424V14.5068H15.8353Z" fill="#020203"/>
<path d="M13.2494 14.5068V13.2139H11.9564V14.5068H13.2494Z" fill="#020203"/>
<path d="M14.5425 17.0928V15.7998H13.2495V17.0928H14.5425Z" fill="#020203"/>
<path d="M14.5425 15.7998V14.5068H13.2495V15.7998H14.5425Z" fill="#020203"/>
<path d="M11.9602 17.0928V15.7998H10.6672V17.0928H11.9602Z" fill="#020203"/>
<path d="M13.2494 17.0928V15.7998H11.9564V17.0928H13.2494Z" fill="#020203"/>
<path d="M10.6672 17.0928V15.7998H9.37427V17.0928H10.6672Z" fill="#020203"/>
<path d="M13.2494 19.6753V18.3823H11.9564V19.6753H13.2494Z" fill="#020203"/>
<path d="M13.2494 18.3823V17.0894H11.9564V18.3823H13.2494Z" fill="#020203"/>
<path d="M10.6672 19.6753V18.3823H9.37427V19.6753H10.6672Z" fill="#020203"/>
<path d="M11.9602 19.6753V18.3823H10.6672V19.6753H11.9602Z" fill="#020203"/>
<path d="M9.37427 19.6753V18.3823H8.08131V19.6753H9.37427Z" fill="#020203"/>
<path d="M8.08496 19.6753V18.3823H6.792V19.6753H8.08496Z" fill="#020203"/>
<path d="M6.79199 18.3823V17.0894H5.49903V18.3823H6.79199Z" fill="#020203"/>
<path d="M5.49902 18.3823V17.0894H4.20606V18.3823H5.49902Z" fill="#020203"/>
<path d="M4.20959 17.0928V15.7998H2.91663V17.0928H4.20959Z" fill="#020203"/>
<path d="M2.91663 17.0928V15.7998H1.62366V17.0928H2.91663Z" fill="#020203"/>
<path d="M1.6344 10.6318V9.33887H0.341436V10.6318H1.6344Z" fill="#020203"/>
<path d="M1.6344 9.34326V8.05029H0.341436V9.34326H1.6344Z" fill="#020203"/>
<path d="M1.6344 13.2183V11.9253H0.341436V13.2183H1.6344Z" fill="#020203"/>
<path d="M1.6344 11.9248V10.6318H0.341436V11.9248H1.6344Z" fill="#020203"/>
<path d="M1.6344 15.7998V14.5068H0.341436V15.7998H1.6344Z" fill="#020203"/>
<path d="M1.6344 14.5068V13.2139H0.341436V14.5068H1.6344Z" fill="#020203"/>
</svg>
