<svg width="34" height="34" viewBox="0 0 34 34" fill="none" xmlns="http://www.w3.org/2000/svg">
<path fill-rule="evenodd" clip-rule="evenodd" d="M5 5H10.7692V8.27273H5V5ZM24.2308 5H30V8.27273H24.2308V5ZM7.88464 25.7272H5V29H10.7692V25.7273H14.6154V22.4546H20.3846V25.7273H24.2308V29H30V25.7272H27.1154V22.4546H24.2307V19.1819H14.6154H14.6154H10.7692V22.4546H7.88464V25.7272ZM14.6154 8.27275H7.88464V11.5455H10.7692V14.8182H14.6154V19.1818H20.3846V11.5454H14.6154V8.27275ZM20.3846 8.27275H27.1154V11.5455H24.2308V14.8182H20.3846V11.5455V11.5454V8.27275Z" fill="black"/>
</svg>
