<svg width="43" height="45" viewBox="0 0 43 45" fill="none" xmlns="http://www.w3.org/2000/svg">
<path d="M21.1433 40.1172H23.4905V42.4464H21.1433V40.1172Z" fill="#E6ADB5"/>
<path d="M18.7962 40.1172H21.1433V42.4464H18.7962V40.1172Z" fill="#E49AA8"/>
<path d="M16.449 40.1172H18.7961V42.4464H16.449V40.1172Z" fill="#E7A5B3"/>
<path d="M14.0924 40.1172H16.4396V42.4464H14.0924V40.1172Z" fill="#E7A4B2"/>
<path d="M11.7452 40.1172H14.0924V42.4464H11.7452V40.1172Z" fill="#E7A1AE"/>
<path d="M9.39808 40.1172H11.7452V42.4464H9.39808V40.1172Z" fill="#F1B3C1"/>
<path d="M7.04151 40.1172H9.38867V42.4464H7.04151V40.1172Z" fill="#F7D3DA"/>
<path d="M23.4905 37.7891H25.8376V40.1183H23.4905V37.7891Z" fill="#F3D1D5"/>
<path d="M21.1433 37.7891H23.4905V40.1183H21.1433V37.7891Z" fill="#E19AA8"/>
<path d="M18.7962 37.7891H21.1433V40.1183H18.7962V37.7891Z" fill="#ECB2BC"/>
<path d="M16.4396 37.7891H18.7867V40.1183H16.4396V37.7891Z" fill="#EEB4BF"/>
<path d="M14.0924 37.7891H16.4396V40.1183H14.0924V37.7891Z" fill="#EEB4BF"/>
<path d="M11.7452 37.7891H14.0924V40.1183H11.7452V37.7891Z" fill="#EEB4BF"/>
<path d="M9.39808 37.7891H11.7452V40.1183H9.39808V37.7891Z" fill="#F9CFDD"/>
<path d="M7.04151 37.7891H9.38867V40.1183H7.04151V37.7891Z" fill="#FAD9E7"/>
<path d="M4.69434 37.7891H7.0415V40.1183H4.69434V37.7891Z" fill="#F0B7C1"/>
<path d="M23.4905 35.459H25.8376V37.7882H23.4905V35.459Z" fill="#E6AAB4"/>
<path d="M21.1433 35.459H23.4905V37.7882H21.1433V35.459Z" fill="#E8A7B4"/>
<path d="M18.7962 35.459H21.1433V37.7882H18.7962V35.459Z" fill="#F3B9C4"/>
<path d="M16.4396 35.459H18.7867V37.7882H16.4396V35.459Z" fill="#F1B8C3"/>
<path d="M14.0924 35.459H16.4396V37.7882H14.0924V35.459Z" fill="#F0B6C2"/>
<path d="M11.7452 35.459H14.0924V37.7882H11.7452V35.459Z" fill="#F3B9C5"/>
<path d="M9.38868 35.459H11.7358V37.7882H9.38868V35.459Z" fill="#FBDFEC"/>
<path d="M7.04151 35.459H9.38867V37.7882H7.04151V35.459Z" fill="#FBE3EE"/>
<path d="M4.69434 35.459H7.0415V37.7882H4.69434V35.459Z" fill="#F4BDC9"/>
<path d="M2.34717 35.459H4.69434V37.7882H2.34717V35.459Z" fill="#F0BAC5"/>
<path d="M23.4905 33.1309H25.8376V35.4601H23.4905V33.1309Z" fill="#E5A1AE"/>
<path d="M21.1433 33.1309H23.4905V35.4601H21.1433V33.1309Z" fill="#F6C7D5"/>
<path d="M18.7962 33.1309H21.1433V35.4601H18.7962V33.1309Z" fill="#F8C6D5"/>
<path d="M16.4396 33.1309H18.7867V35.4601H16.4396V33.1309Z" fill="#F7C1CE"/>
<path d="M14.0924 33.1309H16.4396V35.4601H14.0924V33.1309Z" fill="#F6BFCB"/>
<path d="M11.7452 33.1309H14.0924V35.4601H11.7452V33.1309Z" fill="#F7C0CD"/>
<path d="M9.39808 33.1309H11.7452V35.4601H9.39808V33.1309Z" fill="#F6BFCA"/>
<path d="M7.04151 33.1309H9.38867V35.4601H7.04151V33.1309Z" fill="#F6C6D3"/>
<path d="M4.69434 33.1309H7.0415V35.4601H4.69434V33.1309Z" fill="#F5C1CE"/>
<path d="M2.34717 33.1309H4.69434V35.4601H2.34717V33.1309Z" fill="#F7C9D7"/>
<path d="M23.4905 30.8008H25.8376V33.13H23.4905V30.8008Z" fill="#F5C2CF"/>
<path d="M21.1433 30.8008H23.4905V33.13H21.1433V30.8008Z" fill="#F6BEC9"/>
<path d="M18.7867 30.8008H21.1339V33.13H18.7867V30.8008Z" fill="#EDB2BE"/>
<path d="M16.4396 30.8008H18.7867V33.13H16.4396V30.8008Z" fill="#EDB2BD"/>
<path d="M14.0924 30.8008H16.4396V33.13H14.0924V30.8008Z" fill="#F4BBC7"/>
<path d="M11.7358 30.8008H14.083V33.13H11.7358V30.8008Z" fill="#F6C7D4"/>
<path d="M9.38868 30.8008H11.7358V33.13H9.38868V30.8008Z" fill="#F7D3DF"/>
<path d="M7.04151 30.8008H9.38867V33.13H7.04151V30.8008Z" fill="#FBE0ED"/>
<path d="M4.69434 30.8008H7.0415V33.13H4.69434V30.8008Z" fill="#FBE7F2"/>
<path d="M2.34717 30.8008H4.69434V33.13H2.34717V30.8008Z" fill="#F8D6E1"/>
<path d="M25.8377 30.8008H28.1848V33.13H25.8377V30.8008Z" fill="#F7D9DD"/>
<path d="M23.4811 28.4902H25.8282V30.8194H23.4811V28.4902Z" fill="#F7BFCC"/>
<path d="M21.1339 28.4902H23.4811V30.8194H21.1339V28.4902Z" fill="#ECB2BC"/>
<path d="M18.7867 28.4902H21.1339V30.8194H18.7867V28.4902Z" fill="#F3BAC6"/>
<path d="M16.4302 28.4902H18.7773V30.8194H16.4302V28.4902Z" fill="#ECB1BD"/>
<path d="M14.083 28.4902H16.4302V30.8194H14.083V28.4902Z" fill="#EAAFBB"/>
<path d="M11.7358 28.4902H14.083V30.8194H11.7358V28.4902Z" fill="#F6C6D4"/>
<path d="M9.38868 28.4902H11.7358V30.8194H9.38868V28.4902Z" fill="#FBE2EF"/>
<path d="M7.04151 28.4902H9.38867V30.8194H7.04151V28.4902Z" fill="#FBE9F3"/>
<path d="M4.68494 28.4902H7.0321V30.8194H4.68494V28.4902Z" fill="#FBE9F3"/>
<path d="M2.33777 28.4902H4.68494V30.8194H2.33777V28.4902Z" fill="#FBE0ED"/>
<path d="M25.8377 28.4902H28.1848V30.8194H25.8377V28.4902Z" fill="#F2BBC6"/>
<path d="M23.4905 26.1797H25.8376V28.5089H23.4905V26.1797Z" fill="#F7BFCC"/>
<path d="M21.1433 26.1797H23.4905V28.5089H21.1433V26.1797Z" fill="#F4BBC7"/>
<path d="M18.7962 26.1797H21.1433V28.5089H18.7962V26.1797Z" fill="#F7C1CE"/>
<path d="M16.4396 26.1797H18.7867V28.5089H16.4396V26.1797Z" fill="#E6A2AE"/>
<path d="M14.0924 26.1797H16.4396V28.5089H14.0924V26.1797Z" fill="#DB909F"/>
<path d="M11.7452 26.1797H14.0924V28.5089H11.7452V26.1797Z" fill="#D78D9C"/>
<path d="M9.38868 26.1797H11.7358V28.5089H9.38868V26.1797Z" fill="#F5C4CF"/>
<path d="M7.04151 26.1797H9.38867V28.5089H7.04151V26.1797Z" fill="#F9DDE6"/>
<path d="M4.69434 26.1797H7.0415V28.5089H4.69434V26.1797Z" fill="#FBE1E9"/>
<path d="M2.34717 26.1797H4.69434V28.5089H2.34717V26.1797Z" fill="#FAE7EA"/>
<path d="M25.8377 26.1797H28.1848V28.5089H25.8377V26.1797Z" fill="#F7C0CD"/>
<path d="M28.1848 26.1797H30.532V28.5089H28.1848V26.1797Z" fill="#F8DBE0"/>
<path d="M23.4905 23.8594H25.8376V26.1886H23.4905V23.8594Z" fill="#EEB4BF"/>
<path d="M21.1339 23.8594H23.4811V26.1886H21.1339V23.8594Z" fill="#F9D5E3"/>
<path d="M18.7867 23.8594H21.1339V26.1886H18.7867V23.8594Z" fill="#F4BBC7"/>
<path d="M16.4396 23.8594H18.7867V26.1886H16.4396V23.8594Z" fill="#E09EAB"/>
<path d="M25.8377 23.8594H28.1848V26.1886H25.8377V23.8594Z" fill="#F0B5C1"/>
<path d="M28.1848 23.8594H30.532V26.1886H28.1848V23.8594Z" fill="#F7C0CB"/>
<path d="M25.8471 21.541H28.1942V23.8702H25.8471V21.541Z" fill="#E7A6B3"/>
<path d="M23.4999 21.541H25.847V23.8702H23.4999V21.541Z" fill="#F8CCDC"/>
<path d="M21.1339 21.541H23.4905V23.8702H21.1339V21.541Z" fill="#F8C8D6"/>
<path d="M18.7962 21.541H21.1433V23.8702H18.7962V21.541Z" fill="#E09EAB"/>
<path d="M28.1942 21.541H30.5414V23.8702H28.1942V21.541Z" fill="#F6BFCA"/>
<path d="M30.5413 21.541H32.8884V23.8702H30.5413V21.541Z" fill="#F7C0CB"/>
<path d="M28.2035 19.2207H30.5507V21.5499H28.2035V19.2207Z" fill="#E7A6B3"/>
<path d="M25.8471 19.2207H28.1942V21.5499H25.8471V19.2207Z" fill="#F1B8C3"/>
<path d="M23.4999 19.2207H25.847V21.5499H23.4999V19.2207Z" fill="#F8CAD9"/>
<path d="M21.1527 19.2207H23.4999V21.5499H21.1527V19.2207Z" fill="#E9A8B7"/>
<path d="M30.5507 19.2207H32.8978V21.5499H30.5507V19.2207Z" fill="#F6C3D0"/>
<path d="M32.8978 19.2207H35.245V21.5499H32.8978V19.2207Z" fill="#E2909F"/>
<path d="M35.2544 16.8828H37.6016V19.212H35.2544V16.8828Z" fill="#E8ACB9"/>
<path d="M32.9072 16.8828H35.2544V19.212H32.9072V16.8828Z" fill="#F7C6D5"/>
<path d="M30.5601 16.8828H32.9072V19.212H30.5601V16.8828Z" fill="#EAAFBA"/>
<path d="M28.2035 16.8828H30.5507V19.212H28.2035V16.8828Z" fill="#EAA9B7"/>
<path d="M25.8563 16.8828H28.2035V19.212H25.8563V16.8828Z" fill="#F7C1CE"/>
<path d="M23.5093 16.8828H25.8564V19.212H23.5093V16.8828Z" fill="#F8CAD9"/>
<path d="M37.6016 16.8828H39.9487V19.212H37.6016V16.8828Z" fill="#F8CAD8"/>
<path d="M35.2544 14.5527H37.6016V16.8819H35.2544V14.5527Z" fill="#F9CBD9"/>
<path d="M32.9072 14.5527H35.2544V16.8819H32.9072V14.5527Z" fill="#F5BCC7"/>
<path d="M30.5601 14.5527H32.9072V16.8819H30.5601V14.5527Z" fill="#E9A7B5"/>
<path d="M28.2035 14.5527H30.5507V16.8819H28.2035V14.5527Z" fill="#F4BBC6"/>
<path d="M25.8563 14.5527H28.2035V16.8819H25.8563V14.5527Z" fill="#F2B7C3"/>
<path d="M37.6016 14.5527H39.9487V16.8819H37.6016V14.5527Z" fill="#F5C2CF"/>
<path d="M35.2544 12.2246H37.6016V14.5538H35.2544V12.2246Z" fill="#F5C2CF"/>
<path d="M32.9072 12.2246H35.2544V14.5538H32.9072V12.2246Z" fill="#EAAFBA"/>
<path d="M30.5601 12.2246H32.9072V14.5538H30.5601V12.2246Z" fill="#EEB4BF"/>
<path d="M28.2035 12.2246H30.5507V14.5538H28.2035V12.2246Z" fill="#EBABB8"/>
<path d="M25.8563 12.2246H28.2035V14.5538H25.8563V12.2246Z" fill="#EAB5BF"/>
<path d="M37.6016 12.2246H39.9487V14.5538H37.6016V12.2246Z" fill="#F9CEDE"/>
<path d="M37.6016 9.89453H39.9487V12.2237H37.6016V9.89453Z" fill="#F9CFDF"/>
<path d="M35.2544 9.89453H37.6016V12.2237H35.2544V9.89453Z" fill="#F6BECA"/>
<path d="M32.8978 9.89453H35.2544V12.2237H32.8978V9.89453Z" fill="#E9AEB9"/>
<path d="M30.5507 9.89453H32.8978V12.2237H30.5507V9.89453Z" fill="#EEB4C0"/>
<path d="M28.2035 9.89453H30.5507V12.2237H28.2035V9.89453Z" fill="#E8B2BD"/>
<path d="M39.9581 9.89453H42.3053V12.2237H39.9581V9.89453Z" fill="#F7CFD8"/>
<path d="M37.6016 7.56445H39.9487V9.89365H37.6016V7.56445Z" fill="#F8CBDB"/>
<path d="M35.2544 7.56445H37.6016V9.89365H35.2544V7.56445Z" fill="#F6C3D1"/>
<path d="M32.8978 7.56445H35.2544V9.89365H32.8978V7.56445Z" fill="#EEB4C0"/>
<path d="M30.5507 7.56445H32.8978V9.89365H30.5507V7.56445Z" fill="#E7A9B7"/>
<path d="M39.9581 7.56445H42.3053V9.89365H39.9581V7.56445Z" fill="#F8DFE4"/>
<path d="M37.6016 5.23633H39.9487V7.56552H37.6016V5.23633Z" fill="#F7C8D1"/>
<path d="M35.2544 5.23633H37.6016V7.56552H35.2544V5.23633Z" fill="#F7C6D4"/>
<path d="M32.8978 5.23633H35.2544V7.56552H32.8978V5.23633Z" fill="#E9AEBA"/>
<path d="M30.5507 5.23633H32.8978V7.56552H30.5507V5.23633Z" fill="#F2D3DA"/>
<path d="M35.2262 2.90625H37.5734V5.23544H35.2262V2.90625Z" fill="#F4C0CA"/>
<path d="M32.8698 2.90625H35.2169V5.23544H32.8698V2.90625Z" fill="#ECBEC7"/>
<path d="M39.9581 12.2246H42.3053V14.5538H39.9581V12.2246Z" fill="#F3C5CE"/>
<path d="M35.2544 19.2207H37.6016V21.5499H35.2544V19.2207Z" fill="#E099A7"/>
<path d="M32.8978 21.5488H35.245V23.878H32.8978V21.5488Z" fill="#E28692"/>
<path d="M35.2544 21.5488H37.6016V23.878H35.2544V21.5488Z" fill="#E39BA9"/>
<path d="M32.8978 23.8789H35.245V26.2081H32.8978V23.8789Z" fill="#E48F9D"/>
<path d="M35.2544 23.8789H37.6016V26.2081H35.2544V23.8789Z" fill="#E9ABB7"/>
<path d="M32.8978 26.209H35.245V28.5382H32.8978V26.209Z" fill="#E79CA7"/>
<path d="M35.245 26.209H37.5922V28.5382H35.245V26.209Z" fill="#F1C2CB"/>
<path d="M32.8978 28.5371H35.245V30.8663H32.8978V28.5371Z" fill="#E79CA7"/>
<path d="M35.245 28.5371H37.5922V30.8663H35.245V28.5371Z" fill="#F7D1D8"/>
<path d="M32.8978 30.8672H35.245V33.1964H32.8978V30.8672Z" fill="#E8ACB5"/>
<path d="M35.245 30.8672H37.5922V33.1964H35.245V30.8672Z" fill="#F9D9E0"/>
<path d="M32.8978 33.1953H35.245V35.5245H32.8978V33.1953Z" fill="#ECBAC2"/>
<path d="M35.245 33.1953H37.5922V35.5245H35.245V33.1953Z" fill="#FBDFE6"/>
<path d="M32.8978 35.5352H35.245V37.8643H32.8978V35.5352Z" fill="#E7B8BE"/>
<path d="M35.245 35.5352H37.5922V37.8643H35.245V35.5352Z" fill="#F5DDE2"/>
<path d="M32.8978 37.8633H35.245V40.1925H32.8978V37.8633Z" fill="#E4CACF"/>
<path d="M35.245 37.8633H37.5922V40.1925H35.245V37.8633Z" fill="#F5E4E9"/>
<path d="M32.8978 40.1934H35.245V42.5226H32.8978V40.1934Z" fill="#CBC9C9"/>
<path d="M35.245 40.1934H37.5922V42.5226H35.245V40.1934Z" fill="#DAD9D8"/>
<path d="M30.5226 2.90625H32.8698V5.23544H30.5226V2.90625Z" fill="#010202"/>
<path d="M32.8698 0.568359H35.2169V2.89755H32.8698V0.568359Z" fill="#010202"/>
<path d="M28.1942 7.56445H30.5414V9.89365H28.1942V7.56445Z" fill="#010202"/>
<path d="M28.2035 5.23633H30.5507V7.56552H28.2035V5.23633Z" fill="#010202"/>
<path d="M23.4999 14.5527H25.847V16.8819H23.4999V14.5527Z" fill="#010202"/>
<path d="M23.4999 12.2246H25.847V14.5538H23.4999V12.2246Z" fill="#010202"/>
<path d="M25.8471 9.89453H28.1942V12.2237H25.8471V9.89453Z" fill="#010202"/>
<path d="M14.0924 23.8691H16.4396V26.1983H14.0924V23.8691Z" fill="#010202"/>
<path d="M16.449 21.5488H18.7961V23.878H16.449V21.5488Z" fill="#010202"/>
<path d="M18.8055 19.2207H21.1527V21.5499H18.8055V19.2207Z" fill="#010202"/>
<path d="M21.1621 16.8906H23.5093V19.2198H21.1621V16.8906Z" fill="#010202"/>
<path d="M11.8015 23.8691H14.1675V26.1983H11.8015V23.8691Z" fill="#010202"/>
<path d="M9.4357 23.8691H11.8016V26.1983H9.4357V23.8691Z" fill="#010202"/>
<path d="M7.06973 23.8691H9.43567V26.1983H7.06973V23.8691Z" fill="#010202"/>
<path d="M4.70376 23.8691H7.0697V26.1983H4.70376V23.8691Z" fill="#010202"/>
<path d="M2.3378 23.8691H4.70374V26.1983H2.3378V23.8691Z" fill="#010202"/>
<path d="M0.00940585 35.4414H2.35657V37.7986H0.00940585V35.4414Z" fill="#010202"/>
<path d="M0.00940585 33.1016H2.35657V35.4308H0.00940585V33.1016Z" fill="#010202"/>
<path d="M0.00940585 30.7734H2.35657V33.1026H0.00940585V30.7734Z" fill="#010202"/>
<path d="M0.00940585 28.4727H2.35657V30.8018H0.00940585V28.4727Z" fill="#010202"/>
<path d="M0.00940585 26.1621H2.35657V28.4913H0.00940585V26.1621Z" fill="#010202"/>
<path d="M7.05091 42.4473H9.39807V44.7765H7.05091V42.4473Z" fill="#010202"/>
<path d="M4.69434 40.1172H7.0415V42.4464H4.69434V40.1172Z" fill="#010202"/>
<path d="M2.34717 37.7891H4.69434V40.1183H2.34717V37.7891Z" fill="#010202"/>
<path d="M18.7867 42.4473H21.1339V44.7765H18.7867V42.4473Z" fill="#010202"/>
<path d="M16.4396 42.4473H18.7867V44.7765H16.4396V42.4473Z" fill="#010202"/>
<path d="M14.0924 42.4473H16.4396V44.7765H14.0924V42.4473Z" fill="#010202"/>
<path d="M11.7358 42.4473H14.083V44.7765H11.7358V42.4473Z" fill="#010202"/>
<path d="M9.38868 42.4473H11.7358V44.7765H9.38868V42.4473Z" fill="#010202"/>
<path d="M32.9072 42.4473H35.2544V44.7765H32.9072V42.4473Z" fill="#010202"/>
<path d="M35.2544 42.4473H37.6016V44.7765H35.2544V42.4473Z" fill="#010202"/>
<path d="M30.5413 35.459H32.8884V37.7882H30.5413V35.459Z" fill="#010202"/>
<path d="M30.5413 37.7891H32.8884V40.1183H30.5413V37.7891Z" fill="#010202"/>
<path d="M30.5413 40.1172H32.8884V42.4464H30.5413V40.1172Z" fill="#010202"/>
</svg>
