<svg width="37" height="44" viewBox="0 0 37 44" fill="none" xmlns="http://www.w3.org/2000/svg">
<path d="M33.3578 2.53931H30.0575V5.83605H33.3578V2.53931Z" fill="#AAAD99"/>
<path d="M33.3578 5.84222H30.0575V9.13896H33.3578V5.84222Z" fill="#B1B6A9"/>
<path d="M33.3578 9.13898H30.0575V12.4357H33.3578V9.13898Z" fill="#B3B8AB"/>
<path d="M33.3578 12.442H30.0575V15.7387H33.3578V12.442Z" fill="#B1B8AA"/>
<path d="M33.3578 15.7386H30.0575V19.0354H33.3578V15.7386Z" fill="#ACB6A7"/>
<path d="M33.3578 19.0416H30.0575V22.3384H33.3578V19.0416Z" fill="#ACB2A4"/>
<path d="M33.3578 22.3384H30.0575V25.6351H33.3578V22.3384Z" fill="#ABB1A1"/>
<path d="M33.3578 25.6351H30.0575V28.9319H33.3578V25.6351Z" fill="#ABB1A1"/>
<path d="M33.3578 28.938H30.0575V32.2348H33.3578V28.938Z" fill="#AAAC97"/>
<path d="M33.3578 32.2348H30.0575V35.5315H33.3578V32.2348Z" fill="#A9AB97"/>
<path d="M33.3578 35.5377H30.0575V38.8345H33.3578V35.5377Z" fill="#979B7E"/>
<path d="M30.0574 35.5377H26.7571V38.8345H30.0574V35.5377Z" fill="#91947B"/>
<path d="M26.7571 35.5377H23.4568V38.8345H26.7571V35.5377Z" fill="#95977F"/>
<path d="M23.4505 35.5377H20.1501V38.8345H23.4505V35.5377Z" fill="#979B82"/>
<path d="M20.1564 35.5377H16.8561V38.8345H20.1564V35.5377Z" fill="#989C82"/>
<path d="M16.8498 35.5377H13.5494V38.8345H16.8498V35.5377Z" fill="#999D83"/>
<path d="M13.5495 35.5377H10.2491V38.8345H13.5495V35.5377Z" fill="#999D83"/>
<path d="M10.2491 35.5377H6.94873V38.8345H10.2491V35.5377Z" fill="#9B9F83"/>
<path d="M6.94256 35.5377H3.64221V38.8345H6.94256V35.5377Z" fill="#9CA082"/>
<path d="M3.62982 35.5377H0.329468V38.8345H3.62982V35.5377Z" fill="#979B7E"/>
<path d="M3.62982 32.2348H0.329468V35.5315H3.62982V32.2348Z" fill="#A9AB97"/>
<path d="M30.0574 32.2348H26.7571V35.5315H30.0574V32.2348Z" fill="#A8AC9A"/>
<path d="M26.7571 32.2348H23.4568V35.5315H26.7571V32.2348Z" fill="#A5A99A"/>
<path d="M23.4505 32.2348H20.1501V35.5315H23.4505V32.2348Z" fill="#B7BDAD"/>
<path d="M20.1564 32.2348H16.8561V35.5315H20.1564V32.2348Z" fill="#B5BAA8"/>
<path d="M16.8498 32.2348H13.5494V35.5315H16.8498V32.2348Z" fill="#B1B8A3"/>
<path d="M13.5495 32.2348H10.2491V35.5315H13.5495V32.2348Z" fill="#ADB39F"/>
<path d="M10.2491 32.2348H6.94873V35.5315H10.2491V32.2348Z" fill="#AAB29C"/>
<path d="M6.94256 32.2348H3.64221V35.5315H6.94256V32.2348Z" fill="#AEB09D"/>
<path d="M3.62982 28.938H0.329468V32.2348H3.62982V28.938Z" fill="#AAAC97"/>
<path d="M6.94256 28.938H3.64221V32.2348H6.94256V28.938Z" fill="#A9B098"/>
<path d="M10.2491 28.938H6.94873V32.2348H10.2491V28.938Z" fill="#A6B09D"/>
<path d="M13.5495 28.938H10.2491V32.2348H13.5495V28.938Z" fill="#AAB1A0"/>
<path d="M16.8498 28.938H13.5494V32.2348H16.8498V28.938Z" fill="#A3A996"/>
<path d="M20.1502 28.938H16.8499V32.2348H20.1502V28.938Z" fill="#888D7D"/>
<path d="M23.4505 28.938H20.1501V32.2348H23.4505V28.938Z" fill="#878C7A"/>
<path d="M26.7571 28.938H23.4568V32.2348H26.7571V28.938Z" fill="#767A69"/>
<path d="M30.0574 28.938H26.7571V32.2348H30.0574V28.938Z" fill="#949885"/>
<path d="M3.62982 25.6351H0.329468V28.9319H3.62982V25.6351Z" fill="#ABB2A0"/>
<path d="M6.94256 25.6351H3.64221V28.9319H6.94256V25.6351Z" fill="#BEC5B7"/>
<path d="M10.2491 25.6351H6.94873V28.9319H10.2491V25.6351Z" fill="#BFC5B7"/>
<path d="M13.5495 25.6351H10.2491V28.9319H13.5495V25.6351Z" fill="#BDC3B7"/>
<path d="M16.8498 25.6351H13.5494V28.9319H16.8498V25.6351Z" fill="#BDC3B5"/>
<path d="M20.1502 25.6351H16.8499V28.9319H20.1502V25.6351Z" fill="#BCC3B5"/>
<path d="M23.4505 25.6351H20.1501V28.9319H23.4505V25.6351Z" fill="#BEC3B5"/>
<path d="M26.7571 25.6351H23.4568V28.9319H26.7571V25.6351Z" fill="#C0C5B6"/>
<path d="M30.0574 25.6351H26.7571V28.9319H30.0574V25.6351Z" fill="#BABFAE"/>
<path d="M3.62982 22.3384H0.329468V25.6351H3.62982V22.3384Z" fill="#ABB1A1"/>
<path d="M6.94256 22.3384H3.64221V25.6351H6.94256V22.3384Z" fill="#647F8D"/>
<path d="M10.2491 22.3384H6.94873V25.6351H10.2491V22.3384Z" fill="#557E98"/>
<path d="M13.5495 22.3384H10.2491V25.6351H13.5495V22.3384Z" fill="#517A93"/>
<path d="M16.8498 22.3384H13.5494V25.6351H16.8498V22.3384Z" fill="#4E778F"/>
<path d="M20.1502 22.3384H16.8499V25.6351H20.1502V22.3384Z" fill="#4F7890"/>
<path d="M23.4505 22.3384H20.1501V25.6351H23.4505V22.3384Z" fill="#527C95"/>
<path d="M26.7571 22.3384H23.4568V25.6351H26.7571V22.3384Z" fill="#5C829C"/>
<path d="M30.0574 22.3384H26.7571V25.6351H30.0574V22.3384Z" fill="#87908A"/>
<path d="M3.62982 19.0416H0.329468V22.3384H3.62982V19.0416Z" fill="#ACB2A4"/>
<path d="M6.94256 19.0416H3.64221V22.3384H6.94256V19.0416Z" fill="#6293B2"/>
<path d="M10.2491 19.0416H6.94873V22.3384H10.2491V19.0416Z" fill="#8ED3F6"/>
<path d="M13.5495 19.0416H10.2491V22.3384H13.5495V19.0416Z" fill="#94D5F6"/>
<path d="M16.8498 19.0416H13.5494V22.3384H16.8498V19.0416Z" fill="#95D5F6"/>
<path d="M20.1502 19.0416H16.8499V22.3384H20.1502V19.0416Z" fill="#95D5F6"/>
<path d="M23.4505 19.0416H20.1501V22.3384H23.4505V19.0416Z" fill="#94D5F7"/>
<path d="M26.7571 19.0416H23.4568V22.3384H26.7571V19.0416Z" fill="white"/>
<path d="M30.0574 19.0416H26.7571V22.3384H30.0574V19.0416Z" fill="#6B7A7C"/>
<path d="M3.62982 15.7386H0.329468V19.0354H3.62982V15.7386Z" fill="#ACB6A7"/>
<path d="M6.94256 15.7386H3.64221V19.0354H6.94256V15.7386Z" fill="#6496B2"/>
<path d="M10.2491 15.7386H6.94873V19.0354H10.2491V15.7386Z" fill="#93D5F5"/>
<path d="M13.5495 15.7386H10.2491V19.0354H13.5495V15.7386Z" fill="#98D6F5"/>
<path d="M16.8498 15.7386H13.5494V19.0354H16.8498V15.7386Z" fill="#A2DAF6"/>
<path d="M20.1502 15.7386H16.8499V19.0354H20.1502V15.7386Z" fill="#98D6F7"/>
<path d="M23.4505 15.7386H20.1501V19.0354H23.4505V15.7386Z" fill="#9AD7F6"/>
<path d="M26.7571 15.7386H23.4568V19.0354H26.7571V15.7386Z" fill="white"/>
<path d="M30.0574 15.7386H26.7571V19.0354H30.0574V15.7386Z" fill="#6A787A"/>
<path d="M3.62982 12.442H0.329468V15.7387H3.62982V12.442Z" fill="#B1B8AA"/>
<path d="M6.94256 12.442H3.64221V15.7387H6.94256V12.442Z" fill="#6B9BB5"/>
<path d="M10.2491 12.442H6.94873V15.7387H10.2491V12.442Z" fill="#98D6F7"/>
<path d="M13.5495 12.442H10.2491V15.7387H13.5495V12.442Z" fill="#99D7F5"/>
<path d="M16.8498 12.442H13.5494V15.7387H16.8498V12.442Z" fill="#9AD7F6"/>
<path d="M20.1502 12.442H16.8499V15.7387H20.1502V12.442Z" fill="#98D6F7"/>
<path d="M23.4505 12.442H20.1501V15.7387H23.4505V12.442Z" fill="#96D6F7"/>
<path d="M26.7571 12.442H23.4568V15.7387H26.7571V12.442Z" fill="white"/>
<path d="M30.0574 12.442H26.7571V15.7387H30.0574V12.442Z" fill="#6A787A"/>
<path d="M3.62982 9.13898H0.329468V12.4357H3.62982V9.13898Z" fill="#B3B8AB"/>
<path d="M6.94256 9.13898H3.64221V12.4357H6.94256V9.13898Z" fill="#547FA0"/>
<path d="M10.2491 9.13898H6.94873V12.4357H10.2491V9.13898Z" fill="#6FB0E0"/>
<path d="M13.5495 9.13898H10.2491V12.4357H13.5495V9.13898Z" fill="#78B9E5"/>
<path d="M16.8498 9.13898H13.5494V12.4357H16.8498V9.13898Z" fill="#7ABBE6"/>
<path d="M20.1502 9.13898H16.8499V12.4357H20.1502V9.13898Z" fill="#7BB8E4"/>
<path d="M23.4505 9.13898H20.1501V12.4357H23.4505V9.13898Z" fill="#6FB0E1"/>
<path d="M26.7571 9.13898H23.4568V12.4357H26.7571V9.13898Z" fill="#5F9FD7"/>
<path d="M30.0574 9.13898H26.7571V12.4357H30.0574V9.13898Z" fill="#646E6D"/>
<path d="M3.62982 5.84222H0.329468V9.13896H3.62982V5.84222Z" fill="#B1B6A9"/>
<path d="M6.94256 5.84222H3.64221V9.13896H6.94256V5.84222Z" fill="#4A5450"/>
<path d="M10.2491 5.84222H6.94873V9.13896H10.2491V5.84222Z" fill="#434E4F"/>
<path d="M13.5495 5.84222H10.2491V9.13896H13.5495V5.84222Z" fill="#455052"/>
<path d="M16.8498 5.84222H13.5494V9.13896H16.8498V5.84222Z" fill="#434E4F"/>
<path d="M20.1502 5.84222H16.8499V9.13896H20.1502V5.84222Z" fill="#424D4E"/>
<path d="M23.4505 5.84222H20.1501V9.13896H23.4505V5.84222Z" fill="#424C4B"/>
<path d="M26.7571 5.84222H23.4568V9.13896H26.7571V5.84222Z" fill="#414A48"/>
<path d="M30.0574 5.84222H26.7571V9.13896H30.0574V5.84222Z" fill="#767D70"/>
<path d="M3.62982 2.53931H0.329468V5.83605H3.62982V2.53931Z" fill="#AAAD99"/>
<path d="M6.94256 2.53931H3.64221V5.83605H6.94256V2.53931Z" fill="#A8AC9A"/>
<path d="M10.2491 2.53931H6.94873V5.83605H10.2491V2.53931Z" fill="#A5A99A"/>
<path d="M13.5495 2.53931H10.2491V5.83605H13.5495V2.53931Z" fill="#B7BDAD"/>
<path d="M16.8498 2.53931H13.5494V5.83605H16.8498V2.53931Z" fill="#B5BAA8"/>
<path d="M20.1502 2.53931H16.8499V5.83605H20.1502V2.53931Z" fill="#B1B8A3"/>
<path d="M23.4505 2.53931H20.1501V5.83605H23.4505V2.53931Z" fill="#ADB39F"/>
<path d="M26.7571 2.53931H23.4568V5.83605H26.7571V2.53931Z" fill="#AAB29C"/>
<path d="M30.0574 2.53931H26.7571V5.83605H30.0574V2.53931Z" fill="#AEB09D"/>
<path d="M36.6644 5.84222H33.364V9.13896H36.6644V5.84222Z" fill="#020203"/>
<path d="M36.6644 9.13898H33.364V12.4357H36.6644V9.13898Z" fill="#020203"/>
<path d="M36.6644 12.442H33.364V15.7387H36.6644V12.442Z" fill="#020203"/>
<path d="M36.6644 15.7386H33.364V19.0354H36.6644V15.7386Z" fill="#020203"/>
<path d="M36.6644 19.0416H33.364V22.3384H36.6644V19.0416Z" fill="#020203"/>
<path d="M36.6644 22.3384H33.364V25.6351H36.6644V22.3384Z" fill="#020203"/>
<path d="M36.6644 25.6351H33.364V28.9319H36.6644V25.6351Z" fill="#020203"/>
<path d="M36.6644 28.938H33.364V32.2348H36.6644V28.938Z" fill="#020203"/>
<path d="M36.6644 32.2348H33.364V35.5315H36.6644V32.2348Z" fill="#020203"/>
<path d="M36.6644 35.5377H33.364V38.8345H36.6644V35.5377Z" fill="#020203"/>
<path d="M33.3702 38.8469H30.0698V42.1437H33.3702V38.8469Z" fill="#020203"/>
<path d="M30.0574 38.8469H26.7571V42.1437H30.0574V38.8469Z" fill="#020203"/>
<path d="M26.7571 38.8469H23.4568V42.1437H26.7571V38.8469Z" fill="#020203"/>
<path d="M23.4505 38.8469H20.1501V42.1437H23.4505V38.8469Z" fill="#020203"/>
<path d="M20.1564 38.8469H16.8561V42.1437H20.1564V38.8469Z" fill="#020203"/>
<path d="M16.8498 38.8469H13.5494V42.1437H16.8498V38.8469Z" fill="#020203"/>
<path d="M13.5495 38.8469H10.2491V42.1437H13.5495V38.8469Z" fill="#020203"/>
<path d="M10.2491 38.8469H6.94873V42.1437H10.2491V38.8469Z" fill="#020203"/>
<path d="M6.94256 38.8469H3.64221V42.1437H6.94256V38.8469Z" fill="#020203"/>
</svg>
