<?xml version="1.0" standalone="no"?>
  <!DOCTYPE svg PUBLIC "-//W3C//DTD SVG 1.1//EN" "http://www.w3.org/Graphics/SVG/1.1/DTD/svg11.dtd" >
  <svg>
  <metadata>
  Created by font-carrier
  </metadata>
  <defs>
  <font id="basis33" horiz-adv-x="448" vert-adv-y="448" >
    <font-face
      
      font-family="basis33"
      
      font-weight="400"
      
      font-stretch="normal"
      
      units-per-em="1024"
      
      ascent="704"
      
      descent="-320"
      
    />
      <missing-glyph />

      

      
      <glyph glyph-name="uni21" unicode="&#x21;" d="M192 0L192 64L256 64L256 0L192 0M192 128L192 512L256 512L256 128L192 128Z"  horiz-adv-x="448" vert-adv-y="1024"  />

      
      <glyph glyph-name="uni22" unicode="&#x22;" d="M128 384L128 576L192 576L192 384L128 384M256 384L256 576L320 576L320 384L256 384Z"  horiz-adv-x="448" vert-adv-y="1024"  />

      
      <glyph glyph-name="uni23" unicode="&#x23;" d="M256 192L256 320L192 320L192 192L256 192M64 0L64 128L0 128L0 192L128 192L128 320L64 320L64 384L192 384L192 512L256 512L256 384L320 384L320 512L384 512L384 384L448 384L448 320L320 320L320 192L384 192L384 128L256 128L256 0L192 0L192 128L128 128L128 0L64 0Z"  horiz-adv-x="448" vert-adv-y="1024"  />

      
      <glyph glyph-name="uni24" unicode="&#x24;" d="M320 64L320 192L384 192L384 64L320 64M64 256L64 384L128 384L128 256L64 256M192-64L192 0L64 0L64 64L192 64L192 192L128 192L128 256L192 256L192 384L128 384L128 448L192 448L192 512L256 512L256 448L384 448L384 384L256 384L256 256L320 256L320 192L256 192L256 64L320 64L320 0L256 0L256-64L192-64Z"  horiz-adv-x="448" vert-adv-y="1024"  />

      
      <glyph glyph-name="uni25" unicode="&#x25;" d="M64 0L64 64L128 64L128 0L64 0M320 0L320 64L384 64L384 0L320 0M128 64L128 192L192 192L192 64L128 64M256 64L256 192L320 192L320 64L256 64M384 64L384 192L448 192L448 64L384 64M320 192L320 256L384 256L384 192L320 192M64 256L64 320L128 320L128 256L64 256M192 192L192 320L256 320L256 192L192 192M0 320L0 448L64 448L64 320L0 320M128 320L128 448L192 448L192 320L128 320M256 320L256 448L320 448L320 320L256 320M64 448L64 512L128 512L128 448L64 448M320 448L320 512L384 512L384 448L320 448Z"  horiz-adv-x="448" vert-adv-y="1024"  />

      
      <glyph glyph-name="uni26" unicode="&#x26;" d="M128 0L128 64L320 64L320 0L128 0M384 0L384 64L448 64L448 0L384 0M320 64L320 192L384 192L384 64L320 64M64 64L64 256L128 256L128 64L64 64M256 192L256 256L320 256L320 192L256 192M128 256L128 320L256 320L256 256L128 256M384 192L384 320L448 320L448 192L384 192M64 320L64 448L128 448L128 320L64 320M256 320L256 448L320 448L320 320L256 320M128 448L128 512L256 512L256 448L128 448Z"  horiz-adv-x="448" vert-adv-y="1024"  />

      
      <glyph glyph-name="uni27" unicode="&#x27;" d="M192 384L192 576L256 576L256 384L192 384Z"  horiz-adv-x="448" vert-adv-y="1024"  />

      
      <glyph glyph-name="uni28" unicode="&#x28;" d="M256-128L256-64L320-64L320-128L256-128M192-64L192 64L256 64L256-64L192-64M128 64L128 384L192 384L192 64L128 64M192 384L192 512L256 512L256 384L192 384M256 512L256 576L320 576L320 512L256 512Z"  horiz-adv-x="448" vert-adv-y="1024"  />

      
      <glyph glyph-name="uni29" unicode="&#x29;" d="M128-128L128-64L192-64L192-128L128-128M192-64L192 64L256 64L256-64L192-64M256 64L256 384L320 384L320 64L256 64M192 384L192 512L256 512L256 384L192 384M128 512L128 576L192 576L192 512L128 512Z"  horiz-adv-x="448" vert-adv-y="1024"  />

      
      <glyph glyph-name="uni2a" unicode="&#x2a;" d="M64 128L64 192L128 192L128 128L64 128M320 128L320 192L384 192L384 128L320 128M64 256L64 320L128 320L128 256L64 256M320 256L320 320L384 320L384 256L320 256M192 64L192 192L128 192L128 256L192 256L192 384L256 384L256 256L320 256L320 192L256 192L256 64L192 64Z"  horiz-adv-x="448" vert-adv-y="1024"  />

      
      <glyph glyph-name="uni2b" unicode="&#x2b;" d="M192 64L192 192L64 192L64 256L192 256L192 384L256 384L256 256L384 256L384 192L256 192L256 64L192 64Z"  horiz-adv-x="448" vert-adv-y="1024"  />

      
      <glyph glyph-name="uni2c" unicode="&#x2c;" d="M64-128L64-64L128-64L128-128L64-128M128-64L128 128L192 128L192-64L128-64Z"  horiz-adv-x="448" vert-adv-y="1024"  />

      
      <glyph glyph-name="uni2d" unicode="&#x2d;" d="M64 192L64 256L384 256L384 192L64 192Z"  horiz-adv-x="448" vert-adv-y="1024"  />

      
      <glyph glyph-name="uni2e" unicode="&#x2e;" d="M128 0L128 128L192 128L192 0L128 0Z"  horiz-adv-x="448" vert-adv-y="1024"  />

      
      <glyph glyph-name="uni2f" unicode="&#x2f;" d="M64-64L64 64L128 64L128-64L64-64M128 64L128 192L192 192L192 64L128 64M192 192L192 320L256 320L256 192L192 192M256 320L256 448L320 448L320 320L256 320M320 448L320 576L384 576L384 448L320 448Z"  horiz-adv-x="448" vert-adv-y="1024"  />

      
      <glyph glyph-name="uni30" unicode="&#x30;" d="M128 0L128 64L320 64L320 0L128 0M192 192L192 320L256 320L256 192L192 192M64 64L64 448L128 448L128 192L192 192L192 128L128 128L128 64L64 64M320 64L320 320L256 320L256 384L320 384L320 448L384 448L384 64L320 64M128 448L128 512L320 512L320 448L128 448Z"  horiz-adv-x="448" vert-adv-y="1024"  />

      
      <glyph glyph-name="uni31" unicode="&#x31;" d="M64 320L64 384L128 384L128 320L64 320M64 0L64 64L192 64L192 384L128 384L128 448L192 448L192 512L256 512L256 64L384 64L384 0L64 0Z"  horiz-adv-x="448" vert-adv-y="1024"  />

      
      <glyph glyph-name="uni32" unicode="&#x32;" d="M64 0L64 128L128 128L128 64L384 64L384 0L64 0M128 128L128 192L192 192L192 128L128 128M192 192L192 256L256 256L256 192L192 192M256 256L256 320L320 320L320 256L256 256M64 384L64 448L128 448L128 384L64 384M320 320L320 448L384 448L384 320L320 320M128 448L128 512L320 512L320 448L128 448Z"  horiz-adv-x="448" vert-adv-y="1024"  />

      
      <glyph glyph-name="uni33" unicode="&#x33;" d="M128 0L128 64L320 64L320 0L128 0M64 64L64 128L128 128L128 64L64 64M320 64L320 256L384 256L384 64L320 64M192 256L192 320L320 320L320 256L192 256M64 384L64 448L128 448L128 384L64 384M320 320L320 448L384 448L384 320L320 320M128 448L128 512L320 512L320 448L128 448Z"  horiz-adv-x="448" vert-adv-y="1024"  />

      
      <glyph glyph-name="uni34" unicode="&#x34;" d="M128 256L128 320L192 320L192 256L128 256M192 320L192 384L256 384L256 320L192 320M320 0L320 128L64 128L64 256L128 256L128 192L320 192L320 384L256 384L256 448L320 448L320 512L384 512L384 192L448 192L448 128L384 128L384 0L320 0Z"  horiz-adv-x="448" vert-adv-y="1024"  />

      
      <glyph glyph-name="uni35" unicode="&#x35;" d="M128 0L128 64L320 64L320 0L128 0M64 64L64 128L128 128L128 64L64 64M320 64L320 256L384 256L384 64L320 64M64 256L64 512L384 512L384 448L128 448L128 320L320 320L320 256L64 256Z"  horiz-adv-x="448" vert-adv-y="1024"  />

      
      <glyph glyph-name="uni36" unicode="&#x36;" d="M128 0L128 64L320 64L320 0L128 0M320 64L320 256L384 256L384 64L320 64M64 64L64 384L128 384L128 320L320 320L320 256L128 256L128 64L64 64M128 384L128 448L192 448L192 384L128 384M192 448L192 512L320 512L320 448L192 448Z"  horiz-adv-x="448" vert-adv-y="1024"  />

      
      <glyph glyph-name="uni37" unicode="&#x37;" d="M128 0L128 128L192 128L192 0L128 0M192 128L192 256L256 256L256 128L192 128M256 256L256 384L320 384L320 256L256 256M320 384L320 448L64 448L64 512L384 512L384 384L320 384Z"  horiz-adv-x="448" vert-adv-y="1024"  />

      
      <glyph glyph-name="uni38" unicode="&#x38;" d="M128 0L128 64L320 64L320 0L128 0M64 64L64 256L128 256L128 64L64 64M320 64L320 256L384 256L384 64L320 64M128 256L128 320L320 320L320 256L128 256M64 320L64 448L128 448L128 320L64 320M320 320L320 448L384 448L384 320L320 320M128 448L128 512L320 512L320 448L128 448Z"  horiz-adv-x="448" vert-adv-y="1024"  />

      
      <glyph glyph-name="uni39" unicode="&#x39;" d="M128 0L128 64L256 64L256 0L128 0M256 64L256 128L320 128L320 64L256 64M64 256L64 448L128 448L128 256L64 256M320 128L320 192L128 192L128 256L320 256L320 448L384 448L384 128L320 128M128 448L128 512L320 512L320 448L128 448Z"  horiz-adv-x="448" vert-adv-y="1024"  />

      
      <glyph glyph-name="uni3a" unicode="&#x3a;" d="M192 0L192 128L256 128L256 0L192 0M192 256L192 384L256 384L256 256L192 256Z"  horiz-adv-x="448" vert-adv-y="1024"  />

      
      <glyph glyph-name="uni3b" unicode="&#x3b;" d="M128-128L128-64L192-64L192-128L128-128M192-64L192 128L256 128L256-64L192-64M192 256L192 384L256 384L256 256L192 256Z"  horiz-adv-x="448" vert-adv-y="1024"  />

      
      <glyph glyph-name="uni3c" unicode="&#x3c;" d="M256 64L256 128L384 128L384 64L256 64M128 128L128 192L256 192L256 128L128 128M0 192L0 256L128 256L128 192L0 192M128 256L128 320L256 320L256 256L128 256M256 320L256 384L384 384L384 320L256 320Z"  horiz-adv-x="448" vert-adv-y="1024"  />

      
      <glyph glyph-name="uni3d" unicode="&#x3d;" d="M64 128L64 192L448 192L448 128L64 128M64 256L64 320L448 320L448 256L64 256Z"  horiz-adv-x="448" vert-adv-y="1024"  />

      
      <glyph glyph-name="uni3e" unicode="&#x3e;" d="M64 64L64 128L192 128L192 64L64 64M192 128L192 192L320 192L320 128L192 128M320 192L320 256L448 256L448 192L320 192M192 256L192 320L320 320L320 256L192 256M64 320L64 384L192 384L192 320L64 320Z"  horiz-adv-x="448" vert-adv-y="1024"  />

      
      <glyph glyph-name="uni3f" unicode="&#x3f;" d="M192 0L192 64L256 64L256 0L192 0M192 128L192 256L256 256L256 128L192 128M256 256L256 320L320 320L320 256L256 256M64 384L64 448L128 448L128 384L64 384M320 320L320 448L384 448L384 320L320 320M128 448L128 512L320 512L320 448L128 448Z"  horiz-adv-x="448" vert-adv-y="1024"  />

      
      <glyph glyph-name="uni40" unicode="&#x40;" d="M128 0L128 64L384 64L384 0L128 0M64 64L64 128L128 128L128 64L64 64M128 192L128 320L192 320L192 192L128 192M0 128L0 384L64 384L64 128L0 128M192 128L192 192L256 192L256 320L192 320L192 384L320 384L320 192L384 192L384 128L192 128M384 192L384 384L448 384L448 192L384 192M64 384L64 448L128 448L128 384L64 384M320 384L320 448L384 448L384 384L320 384M128 448L128 512L320 512L320 448L128 448Z"  horiz-adv-x="448" vert-adv-y="1024"  />

      
      <glyph glyph-name="uni41" unicode="&#x41;" d="M64 0L64 192L128 192L128 0L64 0M384 0L384 192L448 192L448 0L384 0M128 192L128 384L192 384L192 256L320 256L320 384L384 384L384 192L128 192M192 384L192 512L320 512L320 384L192 384Z"  horiz-adv-x="448" vert-adv-y="1024"  />

      
      <glyph glyph-name="uni42" unicode="&#x42;" d="M384 64L384 256L448 256L448 64L384 64M64 0L64 512L320 512L320 448L128 448L128 320L320 320L320 448L384 448L384 256L128 256L128 64L384 64L384 0L64 0Z"  horiz-adv-x="448" vert-adv-y="1024"  />

      
      <glyph glyph-name="uni43" unicode="&#x43;" d="M192 0L192 64L384 64L384 0L192 0M128 64L128 128L192 128L192 64L128 64M384 64L384 128L448 128L448 64L384 64M64 128L64 384L128 384L128 128L64 128M128 384L128 448L192 448L192 384L128 384M384 384L384 448L448 448L448 384L384 384M192 448L192 512L384 512L384 448L192 448Z"  horiz-adv-x="448" vert-adv-y="1024"  />

      
      <glyph glyph-name="uni44" unicode="&#x44;" d="M320 64L320 128L384 128L384 64L320 64M384 128L384 384L448 384L448 128L384 128M320 384L320 448L384 448L384 384L320 384M64 0L64 512L320 512L320 448L128 448L128 64L320 64L320 0L64 0Z"  horiz-adv-x="448" vert-adv-y="1024"  />

      
      <glyph glyph-name="uni45" unicode="&#x45;" d="M64 0L64 512L384 512L384 448L128 448L128 320L320 320L320 256L128 256L128 64L384 64L384 0L64 0Z"  horiz-adv-x="448" vert-adv-y="1024"  />

      
      <glyph glyph-name="uni46" unicode="&#x46;" d="M64 0L64 512L384 512L384 448L128 448L128 320L320 320L320 256L128 256L128 0L64 0Z"  horiz-adv-x="448" vert-adv-y="1024"  />

      
      <glyph glyph-name="uni47" unicode="&#x47;" d="M192 0L192 64L384 64L384 0L192 0M128 64L128 128L192 128L192 64L128 64M384 64L384 192L256 192L256 256L448 256L448 64L384 64M64 128L64 384L128 384L128 128L64 128M128 384L128 448L192 448L192 384L128 384M384 384L384 448L448 448L448 384L384 384M192 448L192 512L384 512L384 448L192 448Z"  horiz-adv-x="448" vert-adv-y="1024"  />

      
      <glyph glyph-name="uni48" unicode="&#x48;" d="M64 0L64 512L128 512L128 320L384 320L384 512L448 512L448 0L384 0L384 256L128 256L128 0L64 0Z"  horiz-adv-x="448" vert-adv-y="1024"  />

      
      <glyph glyph-name="uni49" unicode="&#x49;" d="M128 0L128 64L192 64L192 448L128 448L128 512L320 512L320 448L256 448L256 64L320 64L320 0L128 0Z"  horiz-adv-x="448" vert-adv-y="1024"  />

      
      <glyph glyph-name="uni4a" unicode="&#x4a;" d="M64 0L64 64L256 64L256 0L64 0M256 64L256 448L128 448L128 512L320 512L320 64L256 64Z"  horiz-adv-x="448" vert-adv-y="1024"  />

      
      <glyph glyph-name="uni4b" unicode="&#x4b;" d="M384 0L384 64L448 64L448 0L384 0M320 64L320 128L384 128L384 64L320 64M256 128L256 192L320 192L320 128L256 128M256 320L256 384L320 384L320 320L256 320M320 384L320 448L384 448L384 384L320 384M64 0L64 512L128 512L128 256L192 256L192 320L256 320L256 192L128 192L128 0L64 0M384 448L384 512L448 512L448 448L384 448Z"  horiz-adv-x="448" vert-adv-y="1024"  />

      
      <glyph glyph-name="uni4c" unicode="&#x4c;" d="M64 0L64 512L128 512L128 64L384 64L384 0L64 0Z"  horiz-adv-x="448" vert-adv-y="1024"  />

      
      <glyph glyph-name="uni4d" unicode="&#x4d;" d="M192 128L192 256L256 256L256 128L192 128M128 256L128 384L192 384L192 256L128 256M256 256L256 384L320 384L320 256L256 256M0 0L0 512L128 512L128 384L64 384L64 0L0 0M384 0L384 384L320 384L320 512L448 512L448 0L384 0Z"  horiz-adv-x="448" vert-adv-y="1024"  />

      
      <glyph glyph-name="uni4e" unicode="&#x4e;" d="M256 128L256 256L320 256L320 128L256 128M192 256L192 384L256 384L256 256L192 256M64 0L64 512L192 512L192 384L128 384L128 0L64 0M320 0L320 128L384 128L384 512L448 512L448 0L320 0Z"  horiz-adv-x="448" vert-adv-y="1024"  />

      
      <glyph glyph-name="uni4f" unicode="&#x4f;" d="M192 0L192 64L320 64L320 0L192 0M128 64L128 128L192 128L192 64L128 64M320 64L320 128L384 128L384 64L320 64M64 128L64 384L128 384L128 128L64 128M384 128L384 384L448 384L448 128L384 128M128 384L128 448L192 448L192 384L128 384M320 384L320 448L384 448L384 384L320 384M192 448L192 512L320 512L320 448L192 448Z"  horiz-adv-x="448" vert-adv-y="1024"  />

      
      <glyph glyph-name="uni50" unicode="&#x50;" d="M320 256L320 448L384 448L384 256L320 256M64 0L64 512L320 512L320 448L128 448L128 256L320 256L320 192L128 192L128 0L64 0Z"  horiz-adv-x="448" vert-adv-y="1024"  />

      
      <glyph glyph-name="uni51" unicode="&#x51;" d="M192 0L192 64L320 64L320 0L192 0M384-64L384 64L448 64L448-64L384-64M128 64L128 128L192 128L192 64L128 64M320 64L320 128L384 128L384 64L320 64M64 128L64 384L128 384L128 128L64 128M384 128L384 384L448 384L448 128L384 128M128 384L128 448L192 448L192 384L128 384M320 384L320 448L384 448L384 384L320 384M192 448L192 512L320 512L320 448L192 448Z"  horiz-adv-x="448" vert-adv-y="1024"  />

      
      <glyph glyph-name="uni52" unicode="&#x52;" d="M384 0L384 64L448 64L448 0L384 0M320 64L320 128L384 128L384 64L320 64M320 256L320 448L384 448L384 256L320 256M64 0L64 512L320 512L320 448L128 448L128 256L320 256L320 128L256 128L256 192L128 192L128 0L64 0Z"  horiz-adv-x="448" vert-adv-y="1024"  />

      
      <glyph glyph-name="uni53" unicode="&#x53;" d="M128 0L128 64L384 64L384 0L128 0M64 64L64 128L128 128L128 64L64 64M384 64L384 192L448 192L448 64L384 64M256 192L256 256L384 256L384 192L256 192M128 256L128 320L256 320L256 256L128 256M64 320L64 448L128 448L128 320L64 320M384 384L384 448L448 448L448 384L384 384M128 448L128 512L384 512L384 448L128 448Z"  horiz-adv-x="448" vert-adv-y="1024"  />

      
      <glyph glyph-name="uni54" unicode="&#x54;" d="M192 0L192 448L0 448L0 512L448 512L448 448L256 448L256 0L192 0Z"  horiz-adv-x="448" vert-adv-y="1024"  />

      
      <glyph glyph-name="uni55" unicode="&#x55;" d="M128 0L128 64L384 64L384 0L128 0M64 64L64 512L128 512L128 64L64 64M384 64L384 512L448 512L448 64L384 64Z"  horiz-adv-x="448" vert-adv-y="1024"  />

      
      <glyph glyph-name="uni56" unicode="&#x56;" d="M192 0L192 128L256 128L256 0L192 0M128 128L128 256L192 256L192 128L128 128M256 128L256 256L320 256L320 128L256 128M64 256L64 384L128 384L128 256L64 256M320 256L320 384L384 384L384 256L320 256M0 384L0 512L64 512L64 384L0 384M384 384L384 512L448 512L448 384L384 384Z"  horiz-adv-x="448" vert-adv-y="1024"  />

      
      <glyph glyph-name="uni57" unicode="&#x57;" d="M64 0L64 192L128 192L128 320L192 320L192 128L128 128L128 0L64 0M320 0L320 128L256 128L256 320L320 320L320 192L384 192L384 0L320 0M192 320L192 448L256 448L256 320L192 320M0 192L0 512L64 512L64 192L0 192M384 192L384 512L448 512L448 192L384 192Z"  horiz-adv-x="448" vert-adv-y="1024"  />

      
      <glyph glyph-name="uni58" unicode="&#x58;" d="M64 0L64 128L128 128L128 0L64 0M384 0L384 128L448 128L448 0L384 0M128 128L128 192L192 192L192 128L128 128M320 128L320 192L384 192L384 128L320 128M192 192L192 320L320 320L320 192L192 192M128 320L128 384L192 384L192 320L128 320M320 320L320 384L384 384L384 320L320 320M64 384L64 512L128 512L128 384L64 384M384 384L384 512L448 512L448 384L384 384Z"  horiz-adv-x="448" vert-adv-y="1024"  />

      
      <glyph glyph-name="uni59" unicode="&#x59;" d="M192 0L192 256L256 256L256 0L192 0M128 256L128 320L192 320L192 256L128 256M256 256L256 320L320 320L320 256L256 256M64 320L64 384L128 384L128 320L64 320M320 320L320 384L384 384L384 320L320 320M0 384L0 512L64 512L64 384L0 384M384 384L384 512L448 512L448 384L384 384Z"  horiz-adv-x="448" vert-adv-y="1024"  />

      
      <glyph glyph-name="uni5a" unicode="&#x5a;" d="M64 0L64 128L128 128L128 64L448 64L448 0L64 0M128 128L128 192L192 192L192 128L128 128M192 192L192 256L256 256L256 192L192 192M256 256L256 320L320 320L320 256L256 256M320 320L320 384L384 384L384 320L320 320M384 384L384 448L64 448L64 512L448 512L448 384L384 384Z"  horiz-adv-x="448" vert-adv-y="1024"  />

      
      <glyph glyph-name="uni5b" unicode="&#x5b;" d="M128-128L128 576L320 576L320 512L192 512L192-64L320-64L320-128L128-128Z"  horiz-adv-x="448" vert-adv-y="1024"  />

      
      <glyph glyph-name="uni5c" unicode="&#x5c;" d="M320-64L320 64L384 64L384-64L320-64M256 64L256 192L320 192L320 64L256 64M192 192L192 320L256 320L256 192L192 192M128 320L128 448L192 448L192 320L128 320M64 448L64 576L128 576L128 448L64 448Z"  horiz-adv-x="448" vert-adv-y="1024"  />

      
      <glyph glyph-name="uni5d" unicode="&#x5d;" d="M128-128L128-64L256-64L256 512L128 512L128 576L320 576L320-128L128-128Z"  horiz-adv-x="448" vert-adv-y="1024"  />

      
      <glyph glyph-name="uni5e" unicode="&#x5e;" d="M64 192L64 320L128 320L128 192L64 192M320 192L320 320L384 320L384 192L320 192M128 320L128 448L192 448L192 320L128 320M256 320L256 448L320 448L320 320L256 320M192 448L192 576L256 576L256 448L192 448Z"  horiz-adv-x="448" vert-adv-y="1024"  />

      
      <glyph glyph-name="uni5f" unicode="&#x5f;" d="M0-64L0 0L448 0L448-64L0-64Z"  horiz-adv-x="448" vert-adv-y="1024"  />

      
      <glyph glyph-name="uni60" unicode="&#x60;" d="M192 448L192 512L256 512L256 448L192 448M128 512L128 576L192 576L192 512L128 512Z"  horiz-adv-x="448" vert-adv-y="1024"  />

      
      <glyph glyph-name="uni61" unicode="&#x61;" d="M64 64L64 192L128 192L128 64L64 64M128 0L128 64L320 64L320 192L128 192L128 256L320 256L320 320L384 320L384 0L128 0M128 320L128 384L320 384L320 320L128 320Z"  horiz-adv-x="448" vert-adv-y="1024"  />

      
      <glyph glyph-name="uni62" unicode="&#x62;" d="M320 64L320 320L384 320L384 64L320 64M64 0L64 576L128 576L128 384L320 384L320 320L128 320L128 64L320 64L320 0L64 0Z"  horiz-adv-x="448" vert-adv-y="1024"  />

      
      <glyph glyph-name="uni63" unicode="&#x63;" d="M128 0L128 64L320 64L320 0L128 0M320 64L320 128L384 128L384 64L320 64M64 64L64 320L128 320L128 64L64 64M320 256L320 320L384 320L384 256L320 256M128 320L128 384L320 384L320 320L128 320Z"  horiz-adv-x="448" vert-adv-y="1024"  />

      
      <glyph glyph-name="uni64" unicode="&#x64;" d="M64 64L64 320L128 320L128 64L64 64M128 0L128 64L320 64L320 320L128 320L128 384L320 384L320 576L384 576L384 0L128 0Z"  horiz-adv-x="448" vert-adv-y="1024"  />

      
      <glyph glyph-name="uni65" unicode="&#x65;" d="M128 0L128 64L320 64L320 0L128 0M320 64L320 128L384 128L384 64L320 64M64 64L64 320L128 320L128 256L320 256L320 320L384 320L384 192L128 192L128 64L64 64M128 320L128 384L320 384L320 320L128 320Z"  horiz-adv-x="448" vert-adv-y="1024"  />

      
      <glyph glyph-name="uni66" unicode="&#x66;" d="M128 0L128 320L64 320L64 384L128 384L128 512L192 512L192 384L320 384L320 320L192 320L192 0L128 0M192 512L192 576L384 576L384 512L192 512Z"  horiz-adv-x="448" vert-adv-y="1024"  />

      
      <glyph glyph-name="uni67" unicode="&#x67;" d="M128-192L128-128L320-128L320-192L128-192M64-128L64 0L128 0L128-128L64-128M320-128L320 0L384 0L384-128L320-128M128 0L128 64L320 64L320 0L128 0M64 64L64 128L128 128L128 64L64 64M128 128L128 192L256 192L256 128L128 128M64 192L64 320L128 320L128 192L64 192M256 192L256 320L320 320L320 192L256 192M128 320L128 384L256 384L256 320L128 320M320 320L320 384L384 384L384 320L320 320Z"  horiz-adv-x="448" vert-adv-y="1024"  />

      
      <glyph glyph-name="uni68" unicode="&#x68;" d="M320 0L320 320L384 320L384 0L320 0M64 0L64 576L128 576L128 384L320 384L320 320L128 320L128 0L64 0Z"  horiz-adv-x="448" vert-adv-y="1024"  />

      
      <glyph glyph-name="uni69" unicode="&#x69;" d="M192 0L192 320L128 320L128 384L256 384L256 0L192 0M192 512L192 576L256 576L256 512L192 512Z"  horiz-adv-x="448" vert-adv-y="1024"  />

      
      <glyph glyph-name="uni6a" unicode="&#x6a;" d="M64-128L64-64L256-64L256-128L64-128M256-64L256 320L192 320L192 384L320 384L320-64L256-64M256 512L256 576L320 576L320 512L256 512Z"  horiz-adv-x="448" vert-adv-y="1024"  />

      
      <glyph glyph-name="uni6b" unicode="&#x6b;" d="M320 0L320 64L384 64L384 0L320 0M256 64L256 128L320 128L320 64L256 64M256 256L256 320L320 320L320 256L256 256M320 320L320 384L384 384L384 320L320 320M64 0L64 576L128 576L128 192L192 192L192 256L256 256L256 128L128 128L128 0L64 0Z"  horiz-adv-x="448" vert-adv-y="1024"  />

      
      <glyph glyph-name="uni6c" unicode="&#x6c;" d="M256 0L256 64L320 64L320 0L256 0M192 64L192 512L128 512L128 576L256 576L256 64L192 64Z"  horiz-adv-x="448" vert-adv-y="1024"  />

      
      <glyph glyph-name="uni6d" unicode="&#x6d;" d="M192 0L192 320L256 320L256 0L192 0M320 0L320 320L384 320L384 0L320 0M64 0L64 384L192 384L192 320L128 320L128 0L64 0M256 320L256 384L320 384L320 320L256 320Z"  horiz-adv-x="448" vert-adv-y="1024"  />

      
      <glyph glyph-name="uni6e" unicode="&#x6e;" d="M320 0L320 320L384 320L384 0L320 0M64 0L64 384L320 384L320 320L128 320L128 0L64 0Z"  horiz-adv-x="448" vert-adv-y="1024"  />

      
      <glyph glyph-name="uni6f" unicode="&#x6f;" d="M128 0L128 64L320 64L320 0L128 0M64 64L64 320L128 320L128 64L64 64M320 64L320 320L384 320L384 64L320 64M128 320L128 384L320 384L320 320L128 320Z"  horiz-adv-x="448" vert-adv-y="1024"  />

      
      <glyph glyph-name="uni70" unicode="&#x70;" d="M320 64L320 320L384 320L384 64L320 64M64-192L64 384L320 384L320 320L128 320L128 64L320 64L320 0L128 0L128-192L64-192Z"  horiz-adv-x="448" vert-adv-y="1024"  />

      
      <glyph glyph-name="uni71" unicode="&#x71;" d="M64 64L64 320L128 320L128 64L64 64M320-192L320 0L128 0L128 64L320 64L320 320L128 320L128 384L384 384L384-192L320-192Z"  horiz-adv-x="448" vert-adv-y="1024"  />

      
      <glyph glyph-name="uni72" unicode="&#x72;" d="M320 256L320 320L384 320L384 256L320 256M64 0L64 384L128 384L128 320L192 320L192 256L128 256L128 0L64 0M192 320L192 384L320 384L320 320L192 320Z"  horiz-adv-x="448" vert-adv-y="1024"  />

      
      <glyph glyph-name="uni73" unicode="&#x73;" d="M64 0L64 64L320 64L320 0L64 0M320 64L320 128L384 128L384 64L320 64M256 128L256 192L320 192L320 128L256 128M128 192L128 256L256 256L256 192L128 192M64 256L64 320L128 320L128 256L64 256M128 320L128 384L384 384L384 320L128 320Z"  horiz-adv-x="448" vert-adv-y="1024"  />

      
      <glyph glyph-name="uni74" unicode="&#x74;" d="M192 0L192 64L384 64L384 0L192 0M128 64L128 512L192 512L192 384L384 384L384 320L192 320L192 64L128 64Z"  horiz-adv-x="448" vert-adv-y="1024"  />

      
      <glyph glyph-name="uni75" unicode="&#x75;" d="M64 64L64 384L128 384L128 64L64 64M128 0L128 64L320 64L320 384L384 384L384 0L128 0Z"  horiz-adv-x="448" vert-adv-y="1024"  />

      
      <glyph glyph-name="uni76" unicode="&#x76;" d="M192 0L192 128L256 128L256 0L192 0M128 128L128 256L192 256L192 128L128 128M256 128L256 256L320 256L320 128L256 128M64 256L64 384L128 384L128 256L64 256M320 256L320 384L384 384L384 256L320 256Z"  horiz-adv-x="448" vert-adv-y="1024"  />

      
      <glyph glyph-name="uni77" unicode="&#x77;" d="M64 0L64 128L128 128L128 192L192 192L192 64L128 64L128 0L64 0M320 0L320 64L256 64L256 192L320 192L320 128L384 128L384 0L320 0M192 192L192 320L256 320L256 192L192 192M0 128L0 384L64 384L64 128L0 128M384 128L384 384L448 384L448 128L384 128Z"  horiz-adv-x="448" vert-adv-y="1024"  />

      
      <glyph glyph-name="uni78" unicode="&#x78;" d="M64 0L64 64L128 64L128 0L64 0M320 0L320 64L384 64L384 0L320 0M128 64L128 128L192 128L192 64L128 64M256 64L256 128L320 128L320 64L256 64M192 128L192 256L256 256L256 128L192 128M128 256L128 320L192 320L192 256L128 256M256 256L256 320L320 320L320 256L256 256M64 320L64 384L128 384L128 320L64 320M320 320L320 384L384 384L384 320L320 320Z"  horiz-adv-x="448" vert-adv-y="1024"  />

      
      <glyph glyph-name="uni79" unicode="&#x79;" d="M128-192L128-128L192-128L192-192L128-192M192-128L192 64L256 64L256-128L192-128M128 64L128 256L192 256L192 64L128 64M256 64L256 256L320 256L320 64L256 64M64 256L64 384L128 384L128 256L64 256M320 256L320 384L384 384L384 256L320 256Z"  horiz-adv-x="448" vert-adv-y="1024"  />

      
      <glyph glyph-name="uni7a" unicode="&#x7a;" d="M64 0L64 64L128 64L128 128L192 128L192 64L384 64L384 0L64 0M192 128L192 192L256 192L256 128L192 128M256 192L256 256L320 256L320 192L256 192M320 256L320 320L64 320L64 384L384 384L384 256L320 256Z"  horiz-adv-x="448" vert-adv-y="1024"  />

      
      <glyph glyph-name="uni7b" unicode="&#x7b;" d="M256-128L256-64L384-64L384-128L256-128M192-64L192 192L256 192L256-64L192-64M64 192L64 256L192 256L192 192L64 192M192 256L192 512L256 512L256 256L192 256M256 512L256 576L384 576L384 512L256 512Z"  horiz-adv-x="448" vert-adv-y="1024"  />

      
      <glyph glyph-name="uni7c" unicode="&#x7c;" d="M192-128L192 576L256 576L256-128L192-128Z"  horiz-adv-x="448" vert-adv-y="1024"  />

      
      <glyph glyph-name="uni7d" unicode="&#x7d;" d="M64-128L64-64L192-64L192-128L64-128M192-64L192 192L256 192L256-64L192-64M256 192L256 256L384 256L384 192L256 192M192 256L192 512L256 512L256 256L192 256M64 512L64 576L192 576L192 512L64 512Z"  horiz-adv-x="448" vert-adv-y="1024"  />

      
      <glyph glyph-name="uni7e" unicode="&#x7e;" d="M0 192L0 256L64 256L64 192L0 192M192 192L192 256L64 256L64 320L256 320L256 256L384 256L384 192L192 192M384 256L384 320L448 320L448 256L384 256Z"  horiz-adv-x="448" vert-adv-y="1024"  />

      
      <glyph glyph-name="uni7f" unicode="&#x7f;" d="M384-128L384 576L64 576L64-128L384-128M0-192L0 640L448 640L448-192L0-192Z"  horiz-adv-x="448" vert-adv-y="1024"  />

      
      <glyph glyph-name="unia1" unicode="&#xa1;" d="M192 0L192 384L256 384L256 0L192 0M192 448L192 512L256 512L256 448L192 448Z"  horiz-adv-x="448" vert-adv-y="1024"  />

      
      <glyph glyph-name="unia2" unicode="&#xa2;" d="M320 64L320 128L384 128L384 64L320 64M64 64L64 320L128 320L128 64L64 64M320 256L320 320L384 320L384 256L320 256M192-64L192 0L128 0L128 64L192 64L192 320L128 320L128 384L192 384L192 448L256 448L256 384L320 384L320 320L256 320L256 64L320 64L320 0L256 0L256-64L192-64Z"  horiz-adv-x="448" vert-adv-y="1024"  />

      
      <glyph glyph-name="unia3" unicode="&#xa3;" d="M64 0L64 128L128 128L128 64L384 64L384 0L64 0M128 128L128 256L64 256L64 320L128 320L128 448L192 448L192 320L320 320L320 256L192 256L192 128L128 128M192 448L192 512L320 512L320 448L192 448Z"  horiz-adv-x="448" vert-adv-y="1024"  />

      
      <glyph glyph-name="unia4" unicode="&#xa4;" d="M0 0L0 64L64 64L64 0L0 0M384 0L384 64L448 64L448 0L384 0M320 128L320 320L128 320L128 128L320 128M64 64L64 384L384 384L384 64L64 64M0 384L0 448L64 448L64 384L0 384M384 384L384 448L448 448L448 384L384 384Z"  horiz-adv-x="448" vert-adv-y="1024"  />

      
      <glyph glyph-name="unia5" unicode="&#xa5;" d="M192 0L192 128L64 128L64 192L192 192L192 256L256 256L256 192L384 192L384 128L256 128L256 0L192 0M128 256L128 320L192 320L192 256L128 256M256 256L256 320L320 320L320 256L256 256M64 320L64 384L128 384L128 320L64 320M320 320L320 384L384 384L384 320L320 320M0 384L0 512L64 512L64 384L0 384M384 384L384 512L448 512L448 384L384 384Z"  horiz-adv-x="448" vert-adv-y="1024"  />

      
      <glyph glyph-name="unia6" unicode="&#xa6;" d="M192-128L192 192L256 192L256-128L192-128M192 256L192 576L256 576L256 256L192 256Z"  horiz-adv-x="448" vert-adv-y="1024"  />

      
      <glyph glyph-name="unia7" unicode="&#xa7;" d="M128 0L128 64L320 64L320 0L128 0M64 64L64 128L128 128L128 64L64 64M320 64L320 192L384 192L384 64L320 64M192 192L192 256L256 256L256 320L320 320L320 192L192 192M128 256L128 384L256 384L256 320L192 320L192 256L128 256M64 384L64 512L128 512L128 384L64 384M320 448L320 512L384 512L384 448L320 448M128 512L128 576L320 576L320 512L128 512Z"  horiz-adv-x="448" vert-adv-y="1024"  />

      
      <glyph glyph-name="unia8" unicode="&#xa8;" d="M128 512L128 576L192 576L192 512L128 512M256 512L256 576L320 576L320 512L256 512Z"  horiz-adv-x="448" vert-adv-y="1024"  />

      
      <glyph glyph-name="unia9" unicode="&#xa9;" d="M64 0L64 64L384 64L384 0L64 0M192 128L192 192L320 192L320 128L192 128M128 192L128 320L192 320L192 192L128 192M192 320L192 384L320 384L320 320L192 320M0 64L0 448L64 448L64 64L0 64M384 64L384 448L448 448L448 64L384 64M64 448L64 512L384 512L384 448L64 448Z"  horiz-adv-x="448" vert-adv-y="1024"  />

      
      <glyph glyph-name="uniaa" unicode="&#xaa;" d="M64 256L64 320L128 320L128 256L64 256M128 192L128 256L256 256L256 320L128 320L128 384L256 384L256 448L320 448L320 192L128 192M128 448L128 512L256 512L256 448L128 448Z"  horiz-adv-x="448" vert-adv-y="1024"  />

      
      <glyph glyph-name="uniab" unicode="&#xab;" d="M192 64L192 128L256 128L256 64L192 64M320 64L320 128L384 128L384 64L320 64M128 128L128 192L192 192L192 128L128 128M256 128L256 192L320 192L320 128L256 128M64 192L64 256L128 256L128 192L64 192M192 192L192 256L256 256L256 192L192 192M128 256L128 320L192 320L192 256L128 256M256 256L256 320L320 320L320 256L256 256M192 320L192 384L256 384L256 320L192 320M320 320L320 384L384 384L384 320L320 320Z"  horiz-adv-x="448" vert-adv-y="1024"  />

      
      <glyph glyph-name="uniac" unicode="&#xac;" d="M256 64L256 192L64 192L64 256L320 256L320 64L256 64Z"  horiz-adv-x="448" vert-adv-y="1024"  />

      
      <glyph glyph-name="uniad" unicode="&#xad;" d="M128 128L128 192L320 192L320 128L128 128Z"  horiz-adv-x="448" vert-adv-y="1024"  />

      
      <glyph glyph-name="uniae" unicode="&#xae;" d="M64 0L64 64L384 64L384 0L64 0M256 128L256 192L320 192L320 128L256 128M256 256L256 320L320 320L320 256L256 256M128 128L128 384L256 384L256 320L192 320L192 256L256 256L256 192L192 192L192 128L128 128M0 64L0 448L64 448L64 64L0 64M384 64L384 448L448 448L448 64L384 64M64 448L64 512L384 512L384 448L64 448Z"  horiz-adv-x="448" vert-adv-y="1024"  />

      
      <glyph glyph-name="uniaf" unicode="&#xaf;" d="M0 576L0 640L448 640L448 576L0 576Z"  horiz-adv-x="448" vert-adv-y="1024"  />

      
      <glyph glyph-name="unib0" unicode="&#xb0;" d="M128 320L128 384L256 384L256 320L128 320M64 384L64 512L128 512L128 384L64 384M256 384L256 512L320 512L320 384L256 384M128 512L128 576L256 576L256 512L128 512Z"  horiz-adv-x="448" vert-adv-y="1024"  />

      
      <glyph glyph-name="unib1" unicode="&#xb1;" d="M64 0L64 64L384 64L384 0L64 0M192 128L192 256L64 256L64 320L192 320L192 448L256 448L256 320L384 320L384 256L256 256L256 128L192 128Z"  horiz-adv-x="448" vert-adv-y="1024"  />

      
      <glyph glyph-name="unib2" unicode="&#xb2;" d="M64 256L64 320L128 320L128 384L192 384L192 320L320 320L320 256L64 256M192 384L192 448L256 448L256 384L192 384M256 448L256 512L320 512L320 448L256 448M64 512L64 576L256 576L256 512L64 512Z"  horiz-adv-x="448" vert-adv-y="1024"  />

      
      <glyph glyph-name="unib3" unicode="&#xb3;" d="M64 256L64 320L256 320L256 256L64 256M256 320L256 384L320 384L320 320L256 320M128 384L128 448L256 448L256 384L128 384M256 448L256 512L320 512L320 448L256 448M64 512L64 576L256 576L256 512L64 512Z"  horiz-adv-x="448" vert-adv-y="1024"  />

      
      <glyph glyph-name="unib4" unicode="&#xb4;" d="M192 448L192 512L256 512L256 448L192 448M256 512L256 576L320 576L320 512L256 512Z"  horiz-adv-x="448" vert-adv-y="1024"  />

      
      <glyph glyph-name="unib5" unicode="&#xb5;" d="M0-128L0-64L64-64L64-128L0-128M192 0L192 64L320 64L320 0L192 0M384 0L384 64L448 64L448 0L384 0M64-64L64 384L128 384L128 128L192 128L192 64L128 64L128-64L64-64M320 64L320 384L384 384L384 64L320 64Z"  horiz-adv-x="448" vert-adv-y="1024"  />

      
      <glyph glyph-name="unib6" unicode="&#xb6;" d="M192-64L192 256L128 256L128 320L64 320L64 448L128 448L128 512L448 512L448 448L384 448L384-64L320-64L320 448L256 448L256-64L192-64Z"  horiz-adv-x="448" vert-adv-y="1024"  />

      
      <glyph glyph-name="unib7" unicode="&#xb7;" d="M128 128L128 320L320 320L320 128L128 128Z"  horiz-adv-x="448" vert-adv-y="1024"  />

      
      <glyph glyph-name="unib8" unicode="&#xb8;" d="M192-320L192-256L320-256L320-320L192-320M320-256L320-128L192-128L192 0L256 0L256-64L384-64L384-256L320-256Z"  horiz-adv-x="448" vert-adv-y="1024"  />

      
      <glyph glyph-name="unib9" unicode="&#xb9;" d="M64 256L64 320L128 320L128 448L64 448L64 512L128 512L128 576L192 576L192 320L256 320L256 256L64 256Z"  horiz-adv-x="448" vert-adv-y="1024"  />

      
      <glyph glyph-name="uniba" unicode="&#xba;" d="M128 256L128 320L256 320L256 256L128 256M64 320L64 512L128 512L128 320L64 320M256 320L256 512L320 512L320 320L256 320M128 512L128 576L256 576L256 512L128 512Z"  horiz-adv-x="448" vert-adv-y="1024"  />

      
      <glyph glyph-name="unibb" unicode="&#xbb;" d="M64 64L64 128L128 128L128 64L64 64M192 64L192 128L256 128L256 64L192 64M128 128L128 192L192 192L192 128L128 128M256 128L256 192L320 192L320 128L256 128M192 192L192 256L256 256L256 192L192 192M320 192L320 256L384 256L384 192L320 192M128 256L128 320L192 320L192 256L128 256M256 256L256 320L320 320L320 256L256 256M64 320L64 384L128 384L128 320L64 320M192 320L192 384L256 384L256 320L192 320Z"  horiz-adv-x="448" vert-adv-y="1024"  />

      
      <glyph glyph-name="unibc" unicode="&#xbc;" d="M64 0L64 128L128 128L128 0L64 0M128 128L128 256L192 256L192 128L128 128M320 0L320 64L192 64L192 128L256 128L256 192L320 192L320 256L384 256L384 128L448 128L448 64L384 64L384 0L320 0M192 256L192 384L256 384L256 256L192 256M256 384L256 512L320 512L320 384L256 384M64 320L64 576L128 576L128 320L64 320M320 512L320 640L384 640L384 512L320 512Z"  horiz-adv-x="448" vert-adv-y="1024"  />

      
      <glyph glyph-name="unibd" unicode="&#xbd;" d="M64 0L64 128L128 128L128 0L64 0M256 0L256 128L320 128L320 64L448 64L448 0L256 0M320 128L320 192L384 192L384 128L320 128M128 128L128 256L192 256L192 128L128 128M384 192L384 256L448 256L448 192L384 192M192 256L192 384L256 384L256 320L384 320L384 256L192 256M256 384L256 512L320 512L320 384L256 384M64 320L64 576L128 576L128 320L64 320M320 512L320 640L384 640L384 512L320 512Z"  horiz-adv-x="448" vert-adv-y="1024"  />

      
      <glyph glyph-name="unibe" unicode="&#xbe;" d="M64 0L64 128L128 128L128 0L64 0M128 128L128 256L192 256L192 128L128 128M320 0L320 64L192 64L192 128L256 128L256 192L320 192L320 256L384 256L384 128L448 128L448 64L384 64L384 0L320 0M0 256L0 320L128 320L128 256L0 256M192 256L192 320L128 320L128 384L64 384L64 448L128 448L128 512L192 512L192 384L256 384L256 256L192 256M256 384L256 512L320 512L320 384L256 384M0 512L0 576L128 576L128 512L0 512M320 512L320 640L384 640L384 512L320 512Z"  horiz-adv-x="448" vert-adv-y="1024"  />

      
      <glyph glyph-name="unibf" unicode="&#xbf;" d="M128 0L128 64L320 64L320 0L128 0M320 64L320 128L384 128L384 64L320 64M64 64L64 192L128 192L128 64L64 64M128 192L128 256L192 256L192 192L128 192M192 256L192 384L256 384L256 256L192 256M192 448L192 512L256 512L256 448L192 448Z"  horiz-adv-x="448" vert-adv-y="1024"  />

      
      <glyph glyph-name="unic0" unicode="&#xc0;" d="M64 0L64 192L128 192L128 0L64 0M384 0L384 192L448 192L448 0L384 0M128 192L128 384L192 384L192 256L320 256L320 384L384 384L384 192L128 192M192 384L192 512L320 512L320 384L192 384M256 576L256 640L320 640L320 576L256 576M192 640L192 704L256 704L256 640L192 640Z"  horiz-adv-x="448" vert-adv-y="1024"  />

      
      <glyph glyph-name="unic1" unicode="&#xc1;" d="M64 0L64 192L128 192L128 0L64 0M384 0L384 192L448 192L448 0L384 0M128 192L128 384L192 384L192 256L320 256L320 384L384 384L384 192L128 192M192 384L192 512L320 512L320 384L192 384M192 576L192 640L256 640L256 576L192 576M256 640L256 704L320 704L320 640L256 640Z"  horiz-adv-x="448" vert-adv-y="1024"  />

      
      <glyph glyph-name="unic2" unicode="&#xc2;" d="M64 0L64 192L128 192L128 0L64 0M384 0L384 192L448 192L448 0L384 0M128 192L128 384L192 384L192 256L320 256L320 384L384 384L384 192L128 192M192 384L192 512L320 512L320 384L192 384M128 576L128 640L192 640L192 576L128 576M320 576L320 640L384 640L384 576L320 576M192 640L192 704L320 704L320 640L192 640Z"  horiz-adv-x="448" vert-adv-y="1024"  />

      
      <glyph glyph-name="unic3" unicode="&#xc3;" d="M64 0L64 192L128 192L128 0L64 0M384 0L384 192L448 192L448 0L384 0M128 192L128 384L192 384L192 256L320 256L320 384L384 384L384 192L128 192M192 384L192 512L320 512L320 384L192 384M128 576L128 640L192 640L192 576L128 576M256 576L256 640L320 640L320 576L256 576M192 640L192 704L256 704L256 640L192 640M320 640L320 704L384 704L384 640L320 640Z"  horiz-adv-x="448" vert-adv-y="1024"  />

      
      <glyph glyph-name="unic4" unicode="&#xc4;" d="M64 0L64 192L128 192L128 0L64 0M384 0L384 192L448 192L448 0L384 0M128 192L128 384L192 384L192 256L320 256L320 384L384 384L384 192L128 192M192 384L192 512L320 512L320 384L192 384M128 576L128 640L192 640L192 576L128 576M320 576L320 640L384 640L384 576L320 576Z"  horiz-adv-x="448" vert-adv-y="1024"  />

      
      <glyph glyph-name="unic5" unicode="&#xc5;" d="M64 0L64 192L128 192L128 0L64 0M384 0L384 192L448 192L448 0L384 0M128 192L128 384L192 384L192 256L320 256L320 384L384 384L384 192L128 192M192 384L192 512L320 512L320 384L192 384M128 512L128 640L192 640L192 512L128 512M320 512L320 640L384 640L384 512L320 512M192 640L192 704L320 704L320 640L192 640Z"  horiz-adv-x="448" vert-adv-y="1024"  />

      
      <glyph glyph-name="unic6" unicode="&#xc6;" d="M0 0L0 192L64 192L64 0L0 0M128 320L128 448L192 448L192 320L128 320M256 0L256 192L64 192L64 320L128 320L128 256L256 256L256 448L192 448L192 512L448 512L448 448L320 448L320 320L384 320L384 256L320 256L320 64L448 64L448 0L256 0Z"  horiz-adv-x="448" vert-adv-y="1024"  />

      
      <glyph glyph-name="unic7" unicode="&#xc7;" d="M192-192L192-128L256-128L256-192L192-192M256-128L256 0L192 0L192 64L384 64L384 0L320 0L320-128L256-128M128 64L128 128L192 128L192 64L128 64M384 64L384 128L448 128L448 64L384 64M64 128L64 384L128 384L128 128L64 128M128 384L128 448L192 448L192 384L128 384M384 384L384 448L448 448L448 384L384 384M192 448L192 512L384 512L384 448L192 448Z"  horiz-adv-x="448" vert-adv-y="1024"  />

      
      <glyph glyph-name="unic8" unicode="&#xc8;" d="M64 0L64 512L384 512L384 448L128 448L128 320L320 320L320 256L128 256L128 64L384 64L384 0L64 0M192 576L192 640L256 640L256 576L192 576M128 640L128 704L192 704L192 640L128 640Z"  horiz-adv-x="448" vert-adv-y="1024"  />

      
      <glyph glyph-name="unic9" unicode="&#xc9;" d="M64 0L64 512L384 512L384 448L128 448L128 320L320 320L320 256L128 256L128 64L384 64L384 0L64 0M192 576L192 640L256 640L256 576L192 576M256 640L256 704L320 704L320 640L256 640Z"  horiz-adv-x="448" vert-adv-y="1024"  />

      
      <glyph glyph-name="unica" unicode="&#xca;" d="M64 0L64 512L384 512L384 448L128 448L128 320L320 320L320 256L128 256L128 64L384 64L384 0L64 0M128 576L128 640L192 640L192 576L128 576M256 576L256 640L320 640L320 576L256 576M192 640L192 704L256 704L256 640L192 640Z"  horiz-adv-x="448" vert-adv-y="1024"  />

      
      <glyph glyph-name="unicb" unicode="&#xcb;" d="M64 0L64 512L384 512L384 448L128 448L128 320L320 320L320 256L128 256L128 64L384 64L384 0L64 0M128 576L128 640L192 640L192 576L128 576M256 576L256 640L320 640L320 576L256 576Z"  horiz-adv-x="448" vert-adv-y="1024"  />

      
      <glyph glyph-name="unicc" unicode="&#xcc;" d="M128 0L128 64L192 64L192 448L128 448L128 512L320 512L320 448L256 448L256 64L320 64L320 0L128 0M192 576L192 640L256 640L256 576L192 576M128 640L128 704L192 704L192 640L128 640Z"  horiz-adv-x="448" vert-adv-y="1024"  />

      
      <glyph glyph-name="unicd" unicode="&#xcd;" d="M128 0L128 64L192 64L192 448L128 448L128 512L320 512L320 448L256 448L256 64L320 64L320 0L128 0M192 576L192 640L256 640L256 576L192 576M256 640L256 704L320 704L320 640L256 640Z"  horiz-adv-x="448" vert-adv-y="1024"  />

      
      <glyph glyph-name="unice" unicode="&#xce;" d="M128 0L128 64L192 64L192 448L128 448L128 512L320 512L320 448L256 448L256 64L320 64L320 0L128 0M128 576L128 640L192 640L192 576L128 576M256 576L256 640L320 640L320 576L256 576M192 640L192 704L256 704L256 640L192 640Z"  horiz-adv-x="448" vert-adv-y="1024"  />

      
      <glyph glyph-name="unicf" unicode="&#xcf;" d="M128 0L128 64L192 64L192 448L128 448L128 512L320 512L320 448L256 448L256 64L320 64L320 0L128 0M128 576L128 640L192 640L192 576L128 576M256 576L256 640L320 640L320 576L256 576Z"  horiz-adv-x="448" vert-adv-y="1024"  />

      
      <glyph glyph-name="unid0" unicode="&#xd0;" d="M320 64L320 128L384 128L384 64L320 64M384 128L384 384L448 384L448 128L384 128M320 384L320 448L384 448L384 384L320 384M64 0L64 256L0 256L0 320L64 320L64 512L320 512L320 448L128 448L128 320L256 320L256 256L128 256L128 64L320 64L320 0L64 0Z"  horiz-adv-x="448" vert-adv-y="1024"  />

      
      <glyph glyph-name="unid1" unicode="&#xd1;" d="M256 128L256 256L320 256L320 128L256 128M192 256L192 384L256 384L256 256L192 256M64 0L64 512L192 512L192 384L128 384L128 0L64 0M320 0L320 128L384 128L384 512L448 512L448 0L320 0M128 576L128 640L192 640L192 576L128 576M256 576L256 640L320 640L320 576L256 576M192 640L192 704L256 704L256 640L192 640M320 640L320 704L384 704L384 640L320 640Z"  horiz-adv-x="448" vert-adv-y="1024"  />

      
      <glyph glyph-name="unid2" unicode="&#xd2;" d="M192 0L192 64L320 64L320 0L192 0M128 64L128 128L192 128L192 64L128 64M320 64L320 128L384 128L384 64L320 64M64 128L64 384L128 384L128 128L64 128M384 128L384 384L448 384L448 128L384 128M128 384L128 448L192 448L192 384L128 384M320 384L320 448L384 448L384 384L320 384M192 448L192 512L320 512L320 448L192 448M256 576L256 640L320 640L320 576L256 576M192 640L192 704L256 704L256 640L192 640Z"  horiz-adv-x="448" vert-adv-y="1024"  />

      
      <glyph glyph-name="unid3" unicode="&#xd3;" d="M192 0L192 64L320 64L320 0L192 0M128 64L128 128L192 128L192 64L128 64M320 64L320 128L384 128L384 64L320 64M64 128L64 384L128 384L128 128L64 128M384 128L384 384L448 384L448 128L384 128M128 384L128 448L192 448L192 384L128 384M320 384L320 448L384 448L384 384L320 384M192 448L192 512L320 512L320 448L192 448M192 576L192 640L256 640L256 576L192 576M256 640L256 704L320 704L320 640L256 640Z"  horiz-adv-x="448" vert-adv-y="1024"  />

      
      <glyph glyph-name="unid4" unicode="&#xd4;" d="M192 0L192 64L320 64L320 0L192 0M128 64L128 128L192 128L192 64L128 64M320 64L320 128L384 128L384 64L320 64M64 128L64 384L128 384L128 128L64 128M384 128L384 384L448 384L448 128L384 128M128 384L128 448L192 448L192 384L128 384M320 384L320 448L384 448L384 384L320 384M192 448L192 512L320 512L320 448L192 448M128 576L128 640L192 640L192 576L128 576M320 576L320 640L384 640L384 576L320 576M192 640L192 704L320 704L320 640L192 640Z"  horiz-adv-x="448" vert-adv-y="1024"  />

      
      <glyph glyph-name="unid5" unicode="&#xd5;" d="M192 0L192 64L320 64L320 0L192 0M128 64L128 128L192 128L192 64L128 64M320 64L320 128L384 128L384 64L320 64M64 128L64 384L128 384L128 128L64 128M384 128L384 384L448 384L448 128L384 128M128 384L128 448L192 448L192 384L128 384M320 384L320 448L384 448L384 384L320 384M192 448L192 512L320 512L320 448L192 448M128 576L128 640L192 640L192 576L128 576M256 576L256 640L320 640L320 576L256 576M192 640L192 704L256 704L256 640L192 640M320 640L320 704L384 704L384 640L320 640Z"  horiz-adv-x="448" vert-adv-y="1024"  />

      
      <glyph glyph-name="unid6" unicode="&#xd6;" d="M192 0L192 64L320 64L320 0L192 0M128 64L128 128L192 128L192 64L128 64M320 64L320 128L384 128L384 64L320 64M64 128L64 384L128 384L128 128L64 128M384 128L384 384L448 384L448 128L384 128M128 384L128 448L192 448L192 384L128 384M320 384L320 448L384 448L384 384L320 384M192 448L192 512L320 512L320 448L192 448M128 576L128 640L192 640L192 576L128 576M320 576L320 640L384 640L384 576L320 576Z"  horiz-adv-x="448" vert-adv-y="1024"  />

      
      <glyph glyph-name="unid7" unicode="&#xd7;" d="M64 64L64 128L128 128L128 64L64 64M320 64L320 128L384 128L384 64L320 64M128 128L128 192L192 192L192 128L128 128M256 128L256 192L320 192L320 128L256 128M192 192L192 256L256 256L256 192L192 192M128 256L128 320L192 320L192 256L128 256M256 256L256 320L320 320L320 256L256 256M64 320L64 384L128 384L128 320L64 320M320 320L320 384L384 384L384 320L320 320Z"  horiz-adv-x="448" vert-adv-y="1024"  />

      
      <glyph glyph-name="unid8" unicode="&#xd8;" d="M64 0L64 64L128 64L128 0L64 0M192 0L192 64L320 64L320 0L192 0M128 64L128 128L192 128L192 64L128 64M320 64L320 128L384 128L384 64L320 64M192 128L192 256L256 256L256 128L192 128M64 128L64 384L128 384L128 128L64 128M256 256L256 384L320 384L320 256L256 256M384 128L384 384L448 384L448 128L384 128M128 384L128 448L192 448L192 384L128 384M320 384L320 448L384 448L384 384L320 384M192 448L192 512L320 512L320 448L192 448M384 448L384 512L448 512L448 448L384 448Z"  horiz-adv-x="448" vert-adv-y="1024"  />

      
      <glyph glyph-name="unid9" unicode="&#xd9;" d="M128 0L128 64L384 64L384 0L128 0M64 64L64 512L128 512L128 64L64 64M384 64L384 512L448 512L448 64L384 64M256 576L256 640L320 640L320 576L256 576M192 640L192 704L256 704L256 640L192 640Z"  horiz-adv-x="448" vert-adv-y="1024"  />

      
      <glyph glyph-name="unida" unicode="&#xda;" d="M128 0L128 64L384 64L384 0L128 0M64 64L64 512L128 512L128 64L64 64M384 64L384 512L448 512L448 64L384 64M192 576L192 640L256 640L256 576L192 576M256 640L256 704L320 704L320 640L256 640Z"  horiz-adv-x="448" vert-adv-y="1024"  />

      
      <glyph glyph-name="unidb" unicode="&#xdb;" d="M128 0L128 64L384 64L384 0L128 0M64 64L64 512L128 512L128 64L64 64M384 64L384 512L448 512L448 64L384 64M128 576L128 640L192 640L192 576L128 576M320 576L320 640L384 640L384 576L320 576M192 640L192 704L320 704L320 640L192 640Z"  horiz-adv-x="448" vert-adv-y="1024"  />

      
      <glyph glyph-name="unidc" unicode="&#xdc;" d="M128 0L128 64L384 64L384 0L128 0M64 64L64 512L128 512L128 64L64 64M384 64L384 512L448 512L448 64L384 64M128 576L128 640L192 640L192 576L128 576M320 576L320 640L384 640L384 576L320 576Z"  horiz-adv-x="448" vert-adv-y="1024"  />

      
      <glyph glyph-name="unidd" unicode="&#xdd;" d="M192 0L192 256L256 256L256 0L192 0M128 256L128 320L192 320L192 256L128 256M256 256L256 320L320 320L320 256L256 256M64 320L64 384L128 384L128 320L64 320M320 320L320 384L384 384L384 320L320 320M0 384L0 512L64 512L64 384L0 384M384 384L384 512L448 512L448 384L384 384M192 576L192 640L256 640L256 576L192 576M256 640L256 704L320 704L320 640L256 640Z"  horiz-adv-x="448" vert-adv-y="1024"  />

      
      <glyph glyph-name="unide" unicode="&#xde;" d="M320 192L320 320L384 320L384 192L320 192M64 0L64 512L128 512L128 384L320 384L320 320L128 320L128 192L320 192L320 128L128 128L128 0L64 0Z"  horiz-adv-x="448" vert-adv-y="1024"  />

      
      <glyph glyph-name="unidf" unicode="&#xdf;" d="M0-64L0 0L64 0L64-64L0-64M384 64L384 256L448 256L448 64L384 64M320 256L320 320L384 320L384 256L320 256M64 0L64 512L128 512L128 384L320 384L320 320L128 320L128 64L384 64L384 0L64 0M320 384L320 512L384 512L384 384L320 384M128 512L128 576L320 576L320 512L128 512Z"  horiz-adv-x="448" vert-adv-y="1024"  />

      
      <glyph glyph-name="unie0" unicode="&#xe0;" d="M64 64L64 192L128 192L128 64L64 64M128 0L128 64L320 64L320 192L128 192L128 256L320 256L320 320L384 320L384 0L128 0M128 320L128 384L320 384L320 320L128 320M256 448L256 512L320 512L320 448L256 448M192 512L192 576L256 576L256 512L192 512Z"  horiz-adv-x="448" vert-adv-y="1024"  />

      
      <glyph glyph-name="unie1" unicode="&#xe1;" d="M64 64L64 192L128 192L128 64L64 64M128 0L128 64L320 64L320 192L128 192L128 256L320 256L320 320L384 320L384 0L128 0M128 320L128 384L320 384L320 320L128 320M192 448L192 512L256 512L256 448L192 448M256 512L256 576L320 576L320 512L256 512Z"  horiz-adv-x="448" vert-adv-y="1024"  />

      
      <glyph glyph-name="unie2" unicode="&#xe2;" d="M64 64L64 192L128 192L128 64L64 64M128 0L128 64L320 64L320 192L128 192L128 256L320 256L320 320L384 320L384 0L128 0M128 320L128 384L320 384L320 320L128 320M128 448L128 512L192 512L192 448L128 448M256 448L256 512L320 512L320 448L256 448M192 512L192 576L256 576L256 512L192 512Z"  horiz-adv-x="448" vert-adv-y="1024"  />

      
      <glyph glyph-name="unie3" unicode="&#xe3;" d="M64 64L64 192L128 192L128 64L64 64M128 0L128 64L320 64L320 192L128 192L128 256L320 256L320 320L384 320L384 0L128 0M128 320L128 384L320 384L320 320L128 320M128 448L128 512L192 512L192 448L128 448M256 448L256 512L320 512L320 448L256 448M192 512L192 576L256 576L256 512L192 512M320 512L320 576L384 576L384 512L320 512Z"  horiz-adv-x="448" vert-adv-y="1024"  />

      
      <glyph glyph-name="unie4" unicode="&#xe4;" d="M64 64L64 192L128 192L128 64L64 64M128 0L128 64L320 64L320 192L128 192L128 256L320 256L320 320L384 320L384 0L128 0M128 320L128 384L320 384L320 320L128 320M128 448L128 512L192 512L192 448L128 448M256 448L256 512L320 512L320 448L256 448Z"  horiz-adv-x="448" vert-adv-y="1024"  />

      
      <glyph glyph-name="unie5" unicode="&#xe5;" d="M64 64L64 192L128 192L128 64L64 64M128 0L128 64L320 64L320 192L128 192L128 256L320 256L320 320L384 320L384 0L128 0M128 320L128 384L320 384L320 320L128 320M192 448L192 512L256 512L256 448L192 448M128 512L128 576L192 576L192 512L128 512M256 512L256 576L320 576L320 512L256 512M192 576L192 640L256 640L256 576L192 576Z"  horiz-adv-x="448" vert-adv-y="1024"  />

      
      <glyph glyph-name="unie6" unicode="&#xe6;" d="M384 64L384 128L448 128L448 64L384 64M0 64L0 192L64 192L64 64L0 64M64 0L64 64L192 64L192 192L64 192L64 256L192 256L192 320L256 320L256 256L384 256L384 320L448 320L448 192L256 192L256 64L384 64L384 0L64 0M64 320L64 384L192 384L192 320L64 320M256 320L256 384L384 384L384 320L256 320Z"  horiz-adv-x="448" vert-adv-y="1024"  />

      
      <glyph glyph-name="unie7" unicode="&#xe7;" d="M128-192L128-128L192-128L192-192L128-192M192-128L192 0L128 0L128 64L320 64L320 0L256 0L256-128L192-128M320 64L320 128L384 128L384 64L320 64M64 64L64 320L128 320L128 64L64 64M320 256L320 320L384 320L384 256L320 256M128 320L128 384L320 384L320 320L128 320Z"  horiz-adv-x="448" vert-adv-y="1024"  />

      
      <glyph glyph-name="unie8" unicode="&#xe8;" d="M128 0L128 64L320 64L320 0L128 0M320 64L320 128L384 128L384 64L320 64M64 64L64 320L128 320L128 256L320 256L320 320L384 320L384 192L128 192L128 64L64 64M128 320L128 384L320 384L320 320L128 320M192 448L192 512L256 512L256 448L192 448M128 512L128 576L192 576L192 512L128 512Z"  horiz-adv-x="448" vert-adv-y="1024"  />

      
      <glyph glyph-name="unie9" unicode="&#xe9;" d="M128 0L128 64L320 64L320 0L128 0M320 64L320 128L384 128L384 64L320 64M64 64L64 320L128 320L128 256L320 256L320 320L384 320L384 192L128 192L128 64L64 64M128 320L128 384L320 384L320 320L128 320M192 448L192 512L256 512L256 448L192 448M256 512L256 576L320 576L320 512L256 512Z"  horiz-adv-x="448" vert-adv-y="1024"  />

      
      <glyph glyph-name="uniea" unicode="&#xea;" d="M128 0L128 64L320 64L320 0L128 0M320 64L320 128L384 128L384 64L320 64M64 64L64 320L128 320L128 256L320 256L320 320L384 320L384 192L128 192L128 64L64 64M128 320L128 384L320 384L320 320L128 320M128 448L128 512L192 512L192 448L128 448M256 448L256 512L320 512L320 448L256 448M192 512L192 576L256 576L256 512L192 512Z"  horiz-adv-x="448" vert-adv-y="1024"  />

      
      <glyph glyph-name="unieb" unicode="&#xeb;" d="M128 0L128 64L320 64L320 0L128 0M320 64L320 128L384 128L384 64L320 64M64 64L64 320L128 320L128 256L320 256L320 320L384 320L384 192L128 192L128 64L64 64M128 320L128 384L320 384L320 320L128 320M128 448L128 512L192 512L192 448L128 448M256 448L256 512L320 512L320 448L256 448Z"  horiz-adv-x="448" vert-adv-y="1024"  />

      
      <glyph glyph-name="uniec" unicode="&#xec;" d="M192 0L192 320L128 320L128 384L256 384L256 0L192 0M192 448L192 512L256 512L256 448L192 448M128 512L128 576L192 576L192 512L128 512Z"  horiz-adv-x="448" vert-adv-y="1024"  />

      
      <glyph glyph-name="unied" unicode="&#xed;" d="M192 0L192 320L128 320L128 384L256 384L256 0L192 0M192 448L192 512L256 512L256 448L192 448M256 512L256 576L320 576L320 512L256 512Z"  horiz-adv-x="448" vert-adv-y="1024"  />

      
      <glyph glyph-name="uniee" unicode="&#xee;" d="M192 0L192 320L128 320L128 384L256 384L256 0L192 0M128 448L128 512L192 512L192 448L128 448M256 448L256 512L320 512L320 448L256 448M192 512L192 576L256 576L256 512L192 512Z"  horiz-adv-x="448" vert-adv-y="1024"  />

      
      <glyph glyph-name="unief" unicode="&#xef;" d="M192 0L192 320L128 320L128 384L256 384L256 0L192 0M128 448L128 512L192 512L192 448L128 448M256 448L256 512L320 512L320 448L256 448Z"  horiz-adv-x="448" vert-adv-y="1024"  />

      
      <glyph glyph-name="unif0" unicode="&#xf0;" d="M128 0L128 64L320 64L320 0L128 0M64 64L64 256L128 256L128 64L64 64M192 384L192 448L256 448L256 384L192 384M320 64L320 256L128 256L128 320L320 320L320 448L384 448L384 64L320 64M256 448L256 512L320 512L320 448L256 448M128 512L128 576L256 576L256 512L128 512M320 512L320 576L384 576L384 512L320 512Z"  horiz-adv-x="448" vert-adv-y="1024"  />

      
      <glyph glyph-name="unif1" unicode="&#xf1;" d="M320 0L320 320L384 320L384 0L320 0M64 0L64 384L320 384L320 320L128 320L128 0L64 0M64 448L64 512L128 512L128 448L64 448M192 448L192 512L256 512L256 448L192 448M128 512L128 576L192 576L192 512L128 512M256 512L256 576L320 576L320 512L256 512Z"  horiz-adv-x="448" vert-adv-y="1024"  />

      
      <glyph glyph-name="unif2" unicode="&#xf2;" d="M128 0L128 64L320 64L320 0L128 0M64 64L64 320L128 320L128 64L64 64M320 64L320 320L384 320L384 64L320 64M128 320L128 384L320 384L320 320L128 320M192 448L192 512L256 512L256 448L192 448M128 512L128 576L192 576L192 512L128 512Z"  horiz-adv-x="448" vert-adv-y="1024"  />

      
      <glyph glyph-name="unif3" unicode="&#xf3;" d="M128 0L128 64L320 64L320 0L128 0M64 64L64 320L128 320L128 64L64 64M320 64L320 320L384 320L384 64L320 64M128 320L128 384L320 384L320 320L128 320M192 448L192 512L256 512L256 448L192 448M256 512L256 576L320 576L320 512L256 512Z"  horiz-adv-x="448" vert-adv-y="1024"  />

      
      <glyph glyph-name="unif4" unicode="&#xf4;" d="M128 0L128 64L320 64L320 0L128 0M64 64L64 320L128 320L128 64L64 64M320 64L320 320L384 320L384 64L320 64M128 320L128 384L320 384L320 320L128 320M128 448L128 512L192 512L192 448L128 448M256 448L256 512L320 512L320 448L256 448M192 512L192 576L256 576L256 512L192 512Z"  horiz-adv-x="448" vert-adv-y="1024"  />

      
      <glyph glyph-name="unif5" unicode="&#xf5;" d="M128 0L128 64L320 64L320 0L128 0M64 64L64 320L128 320L128 64L64 64M320 64L320 320L384 320L384 64L320 64M128 320L128 384L320 384L320 320L128 320M128 448L128 512L192 512L192 448L128 448M256 448L256 512L320 512L320 448L256 448M192 512L192 576L256 576L256 512L192 512M320 512L320 576L384 576L384 512L320 512Z"  horiz-adv-x="448" vert-adv-y="1024"  />

      
      <glyph glyph-name="unif6" unicode="&#xf6;" d="M128 0L128 64L320 64L320 0L128 0M64 64L64 320L128 320L128 64L64 64M320 64L320 320L384 320L384 64L320 64M128 320L128 384L320 384L320 320L128 320M128 448L128 512L192 512L192 448L128 448M256 448L256 512L320 512L320 448L256 448Z"  horiz-adv-x="448" vert-adv-y="1024"  />

      
      <glyph glyph-name="unif7" unicode="&#xf7;" d="M192 64L192 128L256 128L256 64L192 64M64 192L64 256L384 256L384 192L64 192M192 320L192 384L256 384L256 320L192 320Z"  horiz-adv-x="448" vert-adv-y="1024"  />

      
      <glyph glyph-name="unif8" unicode="&#xf8;" d="M64-64L64 0L128 0L128-64L64-64M192 128L192 256L256 256L256 128L192 128M128 0L128 64L64 64L64 320L128 320L128 128L192 128L192 64L320 64L320 0L128 0M320 64L320 256L256 256L256 320L128 320L128 384L320 384L320 320L384 320L384 64L320 64M320 384L320 448L384 448L384 384L320 384Z"  horiz-adv-x="448" vert-adv-y="1024"  />

      
      <glyph glyph-name="unif9" unicode="&#xf9;" d="M64 64L64 384L128 384L128 64L64 64M128 0L128 64L320 64L320 384L384 384L384 0L128 0M192 448L192 512L256 512L256 448L192 448M128 512L128 576L192 576L192 512L128 512Z"  horiz-adv-x="448" vert-adv-y="1024"  />

      
      <glyph glyph-name="unifa" unicode="&#xfa;" d="M64 64L64 384L128 384L128 64L64 64M128 0L128 64L320 64L320 384L384 384L384 0L128 0M192 448L192 512L256 512L256 448L192 448M256 512L256 576L320 576L320 512L256 512Z"  horiz-adv-x="448" vert-adv-y="1024"  />

      
      <glyph glyph-name="unifb" unicode="&#xfb;" d="M64 64L64 384L128 384L128 64L64 64M128 0L128 64L320 64L320 384L384 384L384 0L128 0M128 448L128 512L192 512L192 448L128 448M256 448L256 512L320 512L320 448L256 448M192 512L192 576L256 576L256 512L192 512Z"  horiz-adv-x="448" vert-adv-y="1024"  />

      
      <glyph glyph-name="unifc" unicode="&#xfc;" d="M64 64L64 384L128 384L128 64L64 64M128 0L128 64L320 64L320 384L384 384L384 0L128 0M128 448L128 512L192 512L192 448L128 448M256 448L256 512L320 512L320 448L256 448Z"  horiz-adv-x="448" vert-adv-y="1024"  />

      
      <glyph glyph-name="unifd" unicode="&#xfd;" d="M128-192L128-128L192-128L192-192L128-192M192-128L192 64L256 64L256-128L192-128M128 64L128 256L192 256L192 64L128 64M256 64L256 256L320 256L320 64L256 64M64 256L64 384L128 384L128 256L64 256M320 256L320 384L384 384L384 256L320 256M192 448L192 512L256 512L256 448L192 448M256 512L256 576L320 576L320 512L256 512Z"  horiz-adv-x="448" vert-adv-y="1024"  />

      
      <glyph glyph-name="unife" unicode="&#xfe;" d="M320 64L320 320L384 320L384 64L320 64M64-128L64 512L128 512L128 384L320 384L320 320L128 320L128 64L320 64L320 0L128 0L128-128L64-128Z"  horiz-adv-x="448" vert-adv-y="1024"  />

      
      <glyph glyph-name="uniff" unicode="&#xff;" d="M128-192L128-128L192-128L192-192L128-192M192-128L192 64L256 64L256-128L192-128M128 64L128 256L192 256L192 64L128 64M256 64L256 256L320 256L320 64L256 64M64 256L64 384L128 384L128 256L64 256M320 256L320 384L384 384L384 256L320 256M128 448L128 512L192 512L192 448L128 448M256 448L256 512L320 512L320 448L256 448Z"  horiz-adv-x="448" vert-adv-y="1024"  />

      
      <glyph glyph-name="uni0178" unicode="&#x0178;" d="M192 0L192 256L256 256L256 0L192 0M128 256L128 320L192 320L192 256L128 256M256 256L256 320L320 320L320 256L256 256M64 320L64 384L128 384L128 320L64 320M320 320L320 384L384 384L384 320L320 320M0 384L0 512L64 512L64 384L0 384M384 384L384 512L448 512L448 384L384 384M128 576L128 640L192 640L192 576L128 576M256 576L256 640L320 640L320 576L256 576Z"  horiz-adv-x="448" vert-adv-y="1024"  />

      
      <glyph glyph-name="uni0276" unicode="&#x0276;" d="M64 0L64 64L192 64L192 0L64 0M256 0L256 64L448 64L448 0L256 0M0 64L0 448L64 448L64 64L0 64M192 64L192 448L256 448L256 320L384 320L384 256L256 256L256 64L192 64M64 448L64 512L192 512L192 448L64 448M256 448L256 512L448 512L448 448L256 448Z"  horiz-adv-x="448" vert-adv-y="1024"  />

      
      <glyph glyph-name="uni0374" unicode="&#x0374;" d="M192 448L192 512L256 512L256 448L192 448M256 512L256 576L320 576L320 512L256 512Z"  horiz-adv-x="448" vert-adv-y="1024"  />

      
      <glyph glyph-name="uni0375" unicode="&#x0375;" d="M64-128L64-64L128-64L128-128L64-128M128-64L128 128L192 128L192-64L128-64Z"  horiz-adv-x="448" vert-adv-y="1024"  />

      
      <glyph glyph-name="uni037A" unicode="&#x037A;" d="M192-192L192-128L256-128L256-192L192-192M128-128L128 0L192 0L192-128L128-128Z"  horiz-adv-x="448" vert-adv-y="1024"  />

      
      <glyph glyph-name="uni037E" unicode="&#x037E;" d="M64-128L64-64L128-64L128-128L64-128M128-64L128 128L192 128L192-64L128-64M128 256L128 384L192 384L192 256L128 256Z"  horiz-adv-x="448" vert-adv-y="1024"  />

      
      <glyph glyph-name="uni0384" unicode="&#x0384;" d="M192 448L192 512L256 512L256 448L192 448M256 512L256 576L320 576L320 512L256 512Z"  horiz-adv-x="448" vert-adv-y="1024"  />

      
      <glyph glyph-name="uni0385" unicode="&#x0385;" d="M64 448L64 512L128 512L128 448L64 448M192 448L192 512L256 512L256 448L192 448M320 448L320 512L384 512L384 448L320 448M256 512L256 576L320 576L320 512L256 512Z"  horiz-adv-x="448" vert-adv-y="1024"  />

      
      <glyph glyph-name="uni0386" unicode="&#x0386;" d="M64 0L64 192L128 192L128 0L64 0M384 0L384 192L448 192L448 0L384 0M128 192L128 384L192 384L192 256L320 256L320 384L384 384L384 192L128 192M192 384L192 512L320 512L320 384L192 384M0 576L0 704L64 704L64 576L0 576Z"  horiz-adv-x="448" vert-adv-y="1024"  />

      
      <glyph glyph-name="uni0387" unicode="&#x0387;" d="M128 256L128 384L256 384L256 256L128 256Z"  horiz-adv-x="448" vert-adv-y="1024"  />

      
      <glyph glyph-name="uni0388" unicode="&#x0388;" d="M64 0L64 512L384 512L384 448L128 448L128 320L320 320L320 256L128 256L128 64L384 64L384 0L64 0M0 576L0 704L64 704L64 576L0 576Z"  horiz-adv-x="448" vert-adv-y="1024"  />

      
      <glyph glyph-name="uni0389" unicode="&#x0389;" d="M64 0L64 512L128 512L128 320L384 320L384 512L448 512L448 0L384 0L384 256L128 256L128 0L64 0M0 576L0 704L64 704L64 576L0 576Z"  horiz-adv-x="448" vert-adv-y="1024"  />

      
      <glyph glyph-name="uni038A" unicode="&#x038A;" d="M128 0L128 64L192 64L192 448L128 448L128 512L320 512L320 448L256 448L256 64L320 64L320 0L128 0M0 576L0 704L64 704L64 576L0 576Z"  horiz-adv-x="448" vert-adv-y="1024"  />

      
      <glyph glyph-name="uni038C" unicode="&#x038C;" d="M192 0L192 64L320 64L320 0L192 0M128 64L128 128L192 128L192 64L128 64M320 64L320 128L384 128L384 64L320 64M64 128L64 384L128 384L128 128L64 128M384 128L384 384L448 384L448 128L384 128M128 384L128 448L192 448L192 384L128 384M320 384L320 448L384 448L384 384L320 384M192 448L192 512L320 512L320 448L192 448M0 576L0 704L64 704L64 576L0 576Z"  horiz-adv-x="448" vert-adv-y="1024"  />

      
      <glyph glyph-name="uni038E" unicode="&#x038E;" d="M192 0L192 256L256 256L256 0L192 0M128 256L128 320L192 320L192 256L128 256M256 256L256 320L320 320L320 256L256 256M64 320L64 384L128 384L128 320L64 320M320 320L320 384L384 384L384 320L320 320M0 384L0 512L64 512L64 384L0 384M384 384L384 512L448 512L448 384L384 384M0 576L0 704L64 704L64 576L0 576Z"  horiz-adv-x="448" vert-adv-y="1024"  />

      
      <glyph glyph-name="uni038F" unicode="&#x038F;" d="M64 0L64 64L128 64L128 128L192 128L192 0L64 0M320 0L320 128L384 128L384 64L448 64L448 0L320 0M64 128L64 384L128 384L128 128L64 128M384 128L384 384L448 384L448 128L384 128M128 384L128 448L192 448L192 384L128 384M320 384L320 448L384 448L384 384L320 384M192 448L192 512L320 512L320 448L192 448M0 576L0 704L64 704L64 576L0 576Z"  horiz-adv-x="448" vert-adv-y="1024"  />

      
      <glyph glyph-name="uni0390" unicode="&#x0390;" d="M256 0L256 64L320 64L320 0L256 0M192 64L192 320L128 320L128 384L256 384L256 64L192 64M64 448L64 512L128 512L128 448L64 448M192 448L192 512L256 512L256 448L192 448M320 448L320 512L384 512L384 448L320 448M256 512L256 576L320 576L320 512L256 512Z"  horiz-adv-x="448" vert-adv-y="1024"  />

      
      <glyph glyph-name="uni0391" unicode="&#x0391;" d="M64 0L64 192L128 192L128 0L64 0M384 0L384 192L448 192L448 0L384 0M128 192L128 384L192 384L192 256L320 256L320 384L384 384L384 192L128 192M192 384L192 512L320 512L320 384L192 384Z"  horiz-adv-x="448" vert-adv-y="1024"  />

      
      <glyph glyph-name="uni0392" unicode="&#x0392;" d="M384 64L384 256L448 256L448 64L384 64M64 0L64 512L320 512L320 448L128 448L128 320L320 320L320 448L384 448L384 256L128 256L128 64L384 64L384 0L64 0Z"  horiz-adv-x="448" vert-adv-y="1024"  />

      
      <glyph glyph-name="uni0393" unicode="&#x0393;" d="M64 0L64 512L448 512L448 448L128 448L128 0L64 0Z"  horiz-adv-x="448" vert-adv-y="1024"  />

      
      <glyph glyph-name="uni0394" unicode="&#x0394;" d="M64 0L64 192L128 192L128 64L384 64L384 192L448 192L448 0L64 0M128 192L128 384L192 384L192 192L128 192M320 192L320 384L384 384L384 192L320 192M192 384L192 512L320 512L320 384L192 384Z"  horiz-adv-x="448" vert-adv-y="1024"  />

      
      <glyph glyph-name="uni0395" unicode="&#x0395;" d="M64 0L64 512L384 512L384 448L128 448L128 320L320 320L320 256L128 256L128 64L384 64L384 0L64 0Z"  horiz-adv-x="448" vert-adv-y="1024"  />

      
      <glyph glyph-name="uni0396" unicode="&#x0396;" d="M64 0L64 128L128 128L128 64L448 64L448 0L64 0M128 128L128 192L192 192L192 128L128 128M192 192L192 256L256 256L256 192L192 192M256 256L256 320L320 320L320 256L256 256M320 320L320 384L384 384L384 320L320 320M384 384L384 448L64 448L64 512L448 512L448 384L384 384Z"  horiz-adv-x="448" vert-adv-y="1024"  />

      
      <glyph glyph-name="uni0397" unicode="&#x0397;" d="M64 0L64 512L128 512L128 320L384 320L384 512L448 512L448 0L384 0L384 256L128 256L128 0L64 0Z"  horiz-adv-x="448" vert-adv-y="1024"  />

      
      <glyph glyph-name="uni0398" unicode="&#x0398;" d="M192 0L192 64L320 64L320 0L192 0M128 64L128 128L192 128L192 64L128 64M320 64L320 128L384 128L384 64L320 64M192 256L192 320L320 320L320 256L192 256M64 128L64 384L128 384L128 128L64 128M384 128L384 384L448 384L448 128L384 128M128 384L128 448L192 448L192 384L128 384M320 384L320 448L384 448L384 384L320 384M192 448L192 512L320 512L320 448L192 448Z"  horiz-adv-x="448" vert-adv-y="1024"  />

      
      <glyph glyph-name="uni0399" unicode="&#x0399;" d="M128 0L128 64L192 64L192 448L128 448L128 512L320 512L320 448L256 448L256 64L320 64L320 0L128 0Z"  horiz-adv-x="448" vert-adv-y="1024"  />

      
      <glyph glyph-name="uni039A" unicode="&#x039A;" d="M384 0L384 64L448 64L448 0L384 0M320 64L320 128L384 128L384 64L320 64M256 128L256 192L320 192L320 128L256 128M256 320L256 384L320 384L320 320L256 320M320 384L320 448L384 448L384 384L320 384M64 0L64 512L128 512L128 256L192 256L192 320L256 320L256 192L128 192L128 0L64 0M384 448L384 512L448 512L448 448L384 448Z"  horiz-adv-x="448" vert-adv-y="1024"  />

      
      <glyph glyph-name="uni039B" unicode="&#x039B;" d="M64 0L64 192L128 192L128 0L64 0M384 0L384 192L448 192L448 0L384 0M128 192L128 384L192 384L192 192L128 192M320 192L320 384L384 384L384 192L320 192M192 384L192 512L320 512L320 384L192 384Z"  horiz-adv-x="448" vert-adv-y="1024"  />

      
      <glyph glyph-name="uni039C" unicode="&#x039C;" d="M192 128L192 256L256 256L256 128L192 128M128 256L128 384L192 384L192 256L128 256M256 256L256 384L320 384L320 256L256 256M0 0L0 512L128 512L128 384L64 384L64 0L0 0M384 0L384 384L320 384L320 512L448 512L448 0L384 0Z"  horiz-adv-x="448" vert-adv-y="1024"  />

      
      <glyph glyph-name="uni039D" unicode="&#x039D;" d="M256 128L256 256L320 256L320 128L256 128M192 256L192 384L256 384L256 256L192 256M64 0L64 512L192 512L192 384L128 384L128 0L64 0M320 0L320 128L384 128L384 512L448 512L448 0L320 0Z"  horiz-adv-x="448" vert-adv-y="1024"  />

      
      <glyph glyph-name="uni039E" unicode="&#x039E;" d="M64 0L64 64L448 64L448 0L64 0M128 256L128 320L384 320L384 256L128 256M64 448L64 512L448 512L448 448L64 448Z"  horiz-adv-x="448" vert-adv-y="1024"  />

      
      <glyph glyph-name="uni039F" unicode="&#x039F;" d="M192 0L192 64L320 64L320 0L192 0M128 64L128 128L192 128L192 64L128 64M320 64L320 128L384 128L384 64L320 64M64 128L64 384L128 384L128 128L64 128M384 128L384 384L448 384L448 128L384 128M128 384L128 448L192 448L192 384L128 384M320 384L320 448L384 448L384 384L320 384M192 448L192 512L320 512L320 448L192 448Z"  horiz-adv-x="448" vert-adv-y="1024"  />

      
      <glyph glyph-name="uni03A0" unicode="&#x03A0;" d="M64 0L64 512L448 512L448 0L384 0L384 448L128 448L128 0L64 0Z"  horiz-adv-x="448" vert-adv-y="1024"  />

      
      <glyph glyph-name="uni03A1" unicode="&#x03A1;" d="M320 256L320 448L384 448L384 256L320 256M64 0L64 512L320 512L320 448L128 448L128 256L320 256L320 192L128 192L128 0L64 0Z"  horiz-adv-x="448" vert-adv-y="1024"  />

      
      <glyph glyph-name="uni03A3" unicode="&#x03A3;" d="M64 0L64 192L128 192L128 64L384 64L384 0L64 0M128 192L128 256L192 256L192 192L128 192M192 256L192 320L256 320L256 256L192 256M128 320L128 384L192 384L192 320L128 320M64 384L64 512L384 512L384 448L128 448L128 384L64 384Z"  horiz-adv-x="448" vert-adv-y="1024"  />

      
      <glyph glyph-name="uni03A4" unicode="&#x03A4;" d="M192 0L192 448L0 448L0 512L448 512L448 448L256 448L256 0L192 0Z"  horiz-adv-x="448" vert-adv-y="1024"  />

      
      <glyph glyph-name="uni03A5" unicode="&#x03A5;" d="M192 0L192 256L256 256L256 0L192 0M128 256L128 320L192 320L192 256L128 256M256 256L256 320L320 320L320 256L256 256M64 320L64 384L128 384L128 320L64 320M320 320L320 384L384 384L384 320L320 320M0 384L0 512L64 512L64 384L0 384M384 384L384 512L448 512L448 384L384 384Z"  horiz-adv-x="448" vert-adv-y="1024"  />

      
      <glyph glyph-name="uni03A6" unicode="&#x03A6;" d="M0 192L0 384L64 384L64 192L0 192M384 192L384 384L448 384L448 192L384 192M192 0L192 128L64 128L64 192L192 192L192 384L64 384L64 448L192 448L192 512L256 512L256 448L384 448L384 384L256 384L256 192L384 192L384 128L256 128L256 0L192 0Z"  horiz-adv-x="448" vert-adv-y="1024"  />

      
      <glyph glyph-name="uni03A7" unicode="&#x03A7;" d="M64 0L64 128L128 128L128 0L64 0M384 0L384 128L448 128L448 0L384 0M128 128L128 192L192 192L192 128L128 128M320 128L320 192L384 192L384 128L320 128M192 192L192 320L320 320L320 192L192 192M128 320L128 384L192 384L192 320L128 320M320 320L320 384L384 384L384 320L320 320M64 384L64 512L128 512L128 384L64 384M384 384L384 512L448 512L448 384L384 384Z"  horiz-adv-x="448" vert-adv-y="1024"  />

      
      <glyph glyph-name="uni03A8" unicode="&#x03A8;" d="M0 192L0 512L64 512L64 192L0 192M192 0L192 128L64 128L64 192L192 192L192 512L256 512L256 192L384 192L384 128L256 128L256 0L192 0M384 192L384 512L448 512L448 192L384 192Z"  horiz-adv-x="448" vert-adv-y="1024"  />

      
      <glyph glyph-name="uni03A9" unicode="&#x03A9;" d="M64 0L64 64L128 64L128 128L192 128L192 0L64 0M320 0L320 128L384 128L384 64L448 64L448 0L320 0M64 128L64 384L128 384L128 128L64 128M384 128L384 384L448 384L448 128L384 128M128 384L128 448L192 448L192 384L128 384M320 384L320 448L384 448L384 384L320 384M192 448L192 512L320 512L320 448L192 448Z"  horiz-adv-x="448" vert-adv-y="1024"  />

      
      <glyph glyph-name="uni03AA" unicode="&#x03AA;" d="M128 0L128 64L192 64L192 384L128 384L128 448L320 448L320 384L256 384L256 64L320 64L320 0L128 0M128 512L128 576L192 576L192 512L128 512M256 512L256 576L320 576L320 512L256 512Z"  horiz-adv-x="448" vert-adv-y="1024"  />

      
      <glyph glyph-name="uni03AB" unicode="&#x03AB;" d="M192 0L192 256L256 256L256 0L192 0M128 256L128 320L192 320L192 256L128 256M256 256L256 320L320 320L320 256L256 256M64 320L64 384L128 384L128 320L64 320M320 320L320 384L384 384L384 320L320 320M0 384L0 512L64 512L64 384L0 384M384 384L384 512L448 512L448 384L384 384M128 512L128 576L192 576L192 512L128 512M256 512L256 576L320 576L320 512L256 512Z"  horiz-adv-x="448" vert-adv-y="1024"  />

      
      <glyph glyph-name="uni03AC" unicode="&#x03AC;" d="M128 0L128 64L320 64L320 0L128 0M384 0L384 64L448 64L448 0L384 0M64 64L64 320L128 320L128 64L64 64M320 64L320 320L384 320L384 64L320 64M128 320L128 384L320 384L320 320L128 320M384 320L384 384L448 384L448 320L384 320M192 448L192 512L256 512L256 448L192 448M256 512L256 576L320 576L320 512L256 512Z"  horiz-adv-x="448" vert-adv-y="1024"  />

      
      <glyph glyph-name="uni03AD" unicode="&#x03AD;" d="M128 0L128 64L320 64L320 0L128 0M320 64L320 128L384 128L384 64L320 64M64 64L64 192L128 192L128 64L64 64M128 192L128 256L256 256L256 192L128 192M64 256L64 320L128 320L128 256L64 256M320 256L320 320L384 320L384 256L320 256M128 320L128 384L320 384L320 320L128 320M192 448L192 512L256 512L256 448L192 448M256 512L256 576L320 576L320 512L256 512Z"  horiz-adv-x="448" vert-adv-y="1024"  />

      
      <glyph glyph-name="uni03AE" unicode="&#x03AE;" d="M320-192L320 320L384 320L384-192L320-192M64 0L64 384L128 384L128 320L192 320L192 256L128 256L128 0L64 0M192 320L192 384L320 384L320 320L192 320M192 448L192 512L256 512L256 448L192 448M256 512L256 576L320 576L320 512L256 512Z"  horiz-adv-x="448" vert-adv-y="1024"  />

      
      <glyph glyph-name="uni03AF" unicode="&#x03AF;" d="M256 0L256 64L320 64L320 0L256 0M192 64L192 320L128 320L128 384L256 384L256 64L192 64M192 448L192 512L256 512L256 448L192 448M256 512L256 576L320 576L320 512L256 512Z"  horiz-adv-x="448" vert-adv-y="1024"  />

      
      <glyph glyph-name="uni03B0" unicode="&#x03B0;" d="M128 0L128 64L320 64L320 0L128 0M64 64L64 384L128 384L128 64L64 64M320 64L320 384L384 384L384 64L320 64M64 448L64 512L128 512L128 448L64 448M192 448L192 512L256 512L256 448L192 448M320 448L320 512L384 512L384 448L320 448M256 512L256 576L320 576L320 512L256 512Z"  horiz-adv-x="448" vert-adv-y="1024"  />

      
      <glyph glyph-name="uni03B1" unicode="&#x03B1;" d="M128 0L128 64L320 64L320 0L128 0M384 0L384 64L448 64L448 0L384 0M64 64L64 320L128 320L128 64L64 64M320 64L320 320L384 320L384 64L320 64M128 320L128 384L320 384L320 320L128 320M384 320L384 384L448 384L448 320L384 320Z"  horiz-adv-x="448" vert-adv-y="1024"  />

      
      <glyph glyph-name="uni03B2" unicode="&#x03B2;" d="M320 64L320 256L384 256L384 64L320 64M256 256L256 320L320 320L320 256L256 256M64-128L64 512L128 512L128 384L256 384L256 320L128 320L128 64L320 64L320 0L128 0L128-128L64-128M256 384L256 512L320 512L320 384L256 384M128 512L128 576L256 576L256 512L128 512Z"  horiz-adv-x="448" vert-adv-y="1024"  />

      
      <glyph glyph-name="uni03B3" unicode="&#x03B3;" d="M192-192L192 0L128 0L128 192L192 192L192 64L320 64L320 0L256 0L256-192L192-192M64 192L64 384L128 384L128 192L64 192M320 64L320 384L384 384L384 64L320 64Z"  horiz-adv-x="448" vert-adv-y="1024"  />

      
      <glyph glyph-name="uni03B4" unicode="&#x03B4;" d="M128 0L128 64L320 64L320 0L128 0M64 64L64 320L128 320L128 64L64 64M320 64L320 320L384 320L384 64L320 64M128 320L128 384L192 384L192 448L256 448L256 384L320 384L320 320L128 320M128 448L128 512L192 512L192 448L128 448M192 512L192 576L384 576L384 512L192 512Z"  horiz-adv-x="448" vert-adv-y="1024"  />

      
      <glyph glyph-name="uni03B5" unicode="&#x03B5;" d="M128 0L128 64L320 64L320 0L128 0M320 64L320 128L384 128L384 64L320 64M64 64L64 192L128 192L128 64L64 64M128 192L128 256L256 256L256 192L128 192M64 256L64 320L128 320L128 256L64 256M320 256L320 320L384 320L384 256L320 256M128 320L128 384L320 384L320 320L128 320Z"  horiz-adv-x="448" vert-adv-y="1024"  />

      
      <glyph glyph-name="uni03B6" unicode="&#x03B6;" d="M256-192L256-128L320-128L320-192L256-192M320-128L320 0L192 0L192 64L384 64L384-128L320-128M128 64L128 128L192 128L192 64L128 64M64 128L64 320L128 320L128 128L64 128M128 320L128 384L192 384L192 320L128 320M192 384L192 448L256 448L256 384L192 384M256 448L256 512L64 512L64 576L384 576L384 512L320 512L320 448L256 448Z"  horiz-adv-x="448" vert-adv-y="1024"  />

      
      <glyph glyph-name="uni03B7" unicode="&#x03B7;" d="M320-192L320 320L384 320L384-192L320-192M64 0L64 384L128 384L128 320L192 320L192 256L128 256L128 0L64 0M192 320L192 384L320 384L320 320L192 320Z"  horiz-adv-x="448" vert-adv-y="1024"  />

      
      <glyph glyph-name="uni03B8" unicode="&#x03B8;" d="M128 0L128 64L320 64L320 0L128 0M64 64L64 512L128 512L128 320L320 320L320 512L384 512L384 64L320 64L320 256L128 256L128 64L64 64M128 512L128 576L320 576L320 512L128 512Z"  horiz-adv-x="448" vert-adv-y="1024"  />

      
      <glyph glyph-name="uni03B9" unicode="&#x03B9;" d="M256 0L256 64L320 64L320 0L256 0M192 64L192 320L128 320L128 384L256 384L256 64L192 64Z"  horiz-adv-x="448" vert-adv-y="1024"  />

      
      <glyph glyph-name="uni03BA" unicode="&#x03BA;" d="M320 0L320 64L384 64L384 0L320 0M256 64L256 128L320 128L320 64L256 64M256 256L256 320L320 320L320 256L256 256M64 0L64 384L128 384L128 192L192 192L192 256L256 256L256 128L128 128L128 0L64 0M320 320L320 384L384 384L384 320L320 320Z"  horiz-adv-x="448" vert-adv-y="1024"  />

      
      <glyph glyph-name="uni03BB" unicode="&#x03BB;" d="M64 0L64 128L128 128L128 0L64 0M320 0L320 128L384 128L384 0L320 0M128 128L128 320L192 320L192 512L256 512L256 320L320 320L320 128L256 128L256 256L192 256L192 128L128 128M64 512L64 576L192 576L192 512L64 512Z"  horiz-adv-x="448" vert-adv-y="1024"  />

      
      <glyph glyph-name="uni03BC" unicode="&#x03BC;" d="M192 0L192 64L320 64L320 0L192 0M384 0L384 64L448 64L448 0L384 0M64-128L64 384L128 384L128 128L192 128L192 64L128 64L128-128L64-128M320 64L320 384L384 384L384 64L320 64Z"  horiz-adv-x="448" vert-adv-y="1024"  />

      
      <glyph glyph-name="uni03BD" unicode="&#x03BD;" d="M192 0L192 128L256 128L256 0L192 0M128 128L128 256L192 256L192 128L128 128M256 128L256 256L320 256L320 128L256 128M64 256L64 384L128 384L128 256L64 256M320 256L320 384L384 384L384 256L320 256Z"  horiz-adv-x="448" vert-adv-y="1024"  />

      
      <glyph glyph-name="uni03BE" unicode="&#x03BE;" d="M256-192L256-128L320-128L320-192L256-192M320-128L320 0L192 0L192 64L384 64L384-128L320-128M128 64L128 256L192 256L192 64L128 64M192 256L192 384L384 384L384 320L256 320L256 256L192 256M128 384L128 512L192 512L192 384L128 384M192 512L192 576L384 576L384 512L192 512Z"  horiz-adv-x="448" vert-adv-y="1024"  />

      
      <glyph glyph-name="uni03BF" unicode="&#x03BF;" d="M128 0L128 64L320 64L320 0L128 0M64 64L64 320L128 320L128 64L64 64M320 64L320 320L384 320L384 64L320 64M128 320L128 384L320 384L320 320L128 320Z"  horiz-adv-x="448" vert-adv-y="1024"  />

      
      <glyph glyph-name="uni03C0" unicode="&#x03C0;" d="M64 0L64 384L384 384L384 0L320 0L320 320L128 320L128 0L64 0Z"  horiz-adv-x="448" vert-adv-y="1024"  />

      
      <glyph glyph-name="uni03C1" unicode="&#x03C1;" d="M64-192L64 320L128 320L128 64L320 64L320 0L128 0L128-192L64-192M320 64L320 320L384 320L384 64L320 64M128 320L128 384L320 384L320 320L128 320Z"  horiz-adv-x="448" vert-adv-y="1024"  />

      
      <glyph glyph-name="uni03C2" unicode="&#x03C2;" d="M256-192L256-128L320-128L320-192L256-192M320-128L320 0L128 0L128 64L384 64L384-128L320-128M64 64L64 320L128 320L128 64L64 64M320 256L320 320L384 320L384 256L320 256M128 320L128 384L320 384L320 320L128 320Z"  horiz-adv-x="448" vert-adv-y="1024"  />

      
      <glyph glyph-name="uni03C3" unicode="&#x03C3;" d="M128 0L128 64L320 64L320 0L128 0M64 64L64 320L128 320L128 64L64 64M320 64L320 320L128 320L128 384L448 384L448 320L384 320L384 64L320 64Z"  horiz-adv-x="448" vert-adv-y="1024"  />

      
      <glyph glyph-name="uni03C4" unicode="&#x03C4;" d="M256 0L256 64L384 64L384 0L256 0M192 64L192 320L64 320L64 384L384 384L384 320L256 320L256 64L192 64Z"  horiz-adv-x="448" vert-adv-y="1024"  />

      
      <glyph glyph-name="uni03C5" unicode="&#x03C5;" d="M128 0L128 64L320 64L320 0L128 0M64 64L64 384L128 384L128 64L64 64M320 64L320 384L384 384L384 64L320 64Z"  horiz-adv-x="448" vert-adv-y="1024"  />

      
      <glyph glyph-name="uni03C6" unicode="&#x03C6;" d="M0 64L0 320L64 320L64 64L0 64M384 64L384 320L448 320L448 64L384 64M64 320L64 384L128 384L128 320L64 320M192-192L192 0L64 0L64 64L192 64L192 384L384 384L384 320L256 320L256 64L384 64L384 0L256 0L256-192L192-192Z"  horiz-adv-x="448" vert-adv-y="1024"  />

      
      <glyph glyph-name="uni03C7" unicode="&#x03C7;" d="M64-192L64-64L128-64L128-192L64-192M320-192L320-64L384-64L384-192L320-192M128-64L128 64L192 64L192 128L128 128L128 256L192 256L192 192L256 192L256 256L320 256L320 128L256 128L256 64L320 64L320-64L256-64L256 0L192 0L192-64L128-64M64 256L64 384L128 384L128 256L64 256M320 256L320 384L384 384L384 256L320 256Z"  horiz-adv-x="448" vert-adv-y="1024"  />

      
      <glyph glyph-name="uni03C8" unicode="&#x03C8;" d="M0 64L0 384L64 384L64 64L0 64M384 64L384 384L448 384L448 64L384 64M192-192L192 0L64 0L64 64L192 64L192 512L256 512L256 64L384 64L384 0L256 0L256-192L192-192Z"  horiz-adv-x="448" vert-adv-y="1024"  />

      
      <glyph glyph-name="uni03C9" unicode="&#x03C9;" d="M64 0L64 64L192 64L192 0L64 0M256 0L256 64L384 64L384 0L256 0M192 64L192 256L256 256L256 64L192 64M0 64L0 320L64 320L64 64L0 64M384 64L384 320L448 320L448 64L384 64M64 320L64 384L128 384L128 320L64 320M320 320L320 384L384 384L384 320L320 320Z"  horiz-adv-x="448" vert-adv-y="1024"  />

      
      <glyph glyph-name="uni03CA" unicode="&#x03CA;" d="M256 0L256 64L320 64L320 0L256 0M192 64L192 320L128 320L128 384L256 384L256 64L192 64M128 512L128 576L192 576L192 512L128 512M256 512L256 576L320 576L320 512L256 512Z"  horiz-adv-x="448" vert-adv-y="1024"  />

      
      <glyph glyph-name="uni03CB" unicode="&#x03CB;" d="M128 0L128 64L320 64L320 0L128 0M64 64L64 384L128 384L128 64L64 64M320 64L320 384L384 384L384 64L320 64M128 512L128 576L192 576L192 512L128 512M256 512L256 576L320 576L320 512L256 512Z"  horiz-adv-x="448" vert-adv-y="1024"  />

      
      <glyph glyph-name="uni03CC" unicode="&#x03CC;" d="M128 0L128 64L320 64L320 0L128 0M64 64L64 320L128 320L128 64L64 64M320 64L320 320L384 320L384 64L320 64M128 320L128 384L320 384L320 320L128 320M192 448L192 512L256 512L256 448L192 448M256 512L256 576L320 576L320 512L256 512Z"  horiz-adv-x="448" vert-adv-y="1024"  />

      
      <glyph glyph-name="uni03CD" unicode="&#x03CD;" d="M128 0L128 64L320 64L320 0L128 0M64 64L64 384L128 384L128 64L64 64M320 64L320 384L384 384L384 64L320 64M192 448L192 512L256 512L256 448L192 448M256 512L256 576L320 576L320 512L256 512Z"  horiz-adv-x="448" vert-adv-y="1024"  />

      
      <glyph glyph-name="uni03CE" unicode="&#x03CE;" d="M64 0L64 64L192 64L192 0L64 0M256 0L256 64L384 64L384 0L256 0M192 64L192 256L256 256L256 64L192 64M0 64L0 320L64 320L64 64L0 64M384 64L384 320L448 320L448 64L384 64M64 320L64 384L128 384L128 320L64 320M320 320L320 384L384 384L384 320L320 320M192 448L192 512L256 512L256 448L192 448M256 512L256 576L320 576L320 512L256 512Z"  horiz-adv-x="448" vert-adv-y="1024"  />

      
      <glyph glyph-name="uni03D0" unicode="&#x03D0;" d="M128 0L128 64L320 64L320 0L128 0M320 64L320 256L384 256L384 64L320 64M64 64L64 512L128 512L128 384L256 384L256 320L320 320L320 256L128 256L128 64L64 64M256 384L256 512L320 512L320 384L256 384M128 512L128 576L256 576L256 512L128 512Z"  horiz-adv-x="448" vert-adv-y="1024"  />

      
      <glyph glyph-name="uni03D1" unicode="&#x03D1;" d="M128 0L128 64L320 64L320 0L128 0M0 64L0 128L128 128L128 64L0 64M320 64L320 256L64 256L64 512L128 512L128 320L320 320L320 512L384 512L384 320L448 320L448 256L384 256L384 64L320 64M128 512L128 576L320 576L320 512L128 512Z"  horiz-adv-x="448" vert-adv-y="1024"  />

      
      <glyph glyph-name="uni03D5" unicode="&#x03D5;" d="M0 64L0 320L64 320L64 64L0 64M384 64L384 320L448 320L448 64L384 64M192-192L192 0L64 0L64 64L192 64L192 320L64 320L64 384L192 384L192 512L256 512L256 384L384 384L384 320L256 320L256 64L384 64L384 0L256 0L256-192L192-192Z"  horiz-adv-x="448" vert-adv-y="1024"  />

      
      <glyph glyph-name="uni03F1" unicode="&#x03F1;" d="M384-256L384-192L448-192L448-256L384-256M192-192L192-128L384-128L384-192L192-192M128-128L128 320L192 320L192 64L384 64L384 0L192 0L192-128L128-128M384 64L384 320L448 320L448 64L384 64M192 320L192 384L384 384L384 320L192 320Z"  horiz-adv-x="448" vert-adv-y="1024"  />

      
      <glyph glyph-name="uni03F4" unicode="&#x03F4;" d="M192 0L192 64L320 64L320 0L192 0M128 64L128 128L192 128L192 64L128 64M320 64L320 128L384 128L384 64L320 64M64 128L64 384L128 384L128 320L384 320L384 384L448 384L448 128L384 128L384 256L128 256L128 128L64 128M128 384L128 448L192 448L192 384L128 384M320 384L320 448L384 448L384 384L320 384M192 448L192 512L320 512L320 448L192 448Z"  horiz-adv-x="448" vert-adv-y="1024"  />

      
      <glyph glyph-name="uni0400" unicode="&#x0400;" d="M64 0L64 512L384 512L384 448L128 448L128 320L320 320L320 256L128 256L128 64L384 64L384 0L64 0M192 576L192 640L256 640L256 576L192 576M128 640L128 704L192 704L192 640L128 640Z"  horiz-adv-x="448" vert-adv-y="1024"  />

      
      <glyph glyph-name="uni0401" unicode="&#x0401;" d="M64 0L64 512L384 512L384 448L128 448L128 320L320 320L320 256L128 256L128 64L384 64L384 0L64 0M128 576L128 640L192 640L192 576L128 576M256 576L256 640L320 640L320 576L256 576Z"  horiz-adv-x="448" vert-adv-y="1024"  />

      
      <glyph glyph-name="uni0402" unicode="&#x0402;" d="M256 0L256 64L384 64L384 0L256 0M128 0L128 448L0 448L0 512L384 512L384 448L192 448L192 320L448 320L448 64L384 64L384 256L192 256L192 0L128 0Z"  horiz-adv-x="448" vert-adv-y="1024"  />

      
      <glyph glyph-name="uni0403" unicode="&#x0403;" d="M64 0L64 512L448 512L448 448L128 448L128 0L64 0M192 576L192 640L256 640L256 576L192 576M256 640L256 704L320 704L320 640L256 640Z"  horiz-adv-x="448" vert-adv-y="1024"  />

      
      <glyph glyph-name="uni0404" unicode="&#x0404;" d="M192 0L192 64L384 64L384 0L192 0M128 64L128 128L192 128L192 64L128 64M384 64L384 128L448 128L448 64L384 64M64 128L64 384L128 384L128 320L320 320L320 256L128 256L128 128L64 128M128 384L128 448L192 448L192 384L128 384M384 384L384 448L448 448L448 384L384 384M192 448L192 512L384 512L384 448L192 448Z"  horiz-adv-x="448" vert-adv-y="1024"  />

      
      <glyph glyph-name="uni0405" unicode="&#x0405;" d="M128 0L128 64L384 64L384 0L128 0M64 64L64 128L128 128L128 64L64 64M384 64L384 192L448 192L448 64L384 64M256 192L256 256L384 256L384 192L256 192M128 256L128 320L256 320L256 256L128 256M64 320L64 448L128 448L128 320L64 320M384 384L384 448L448 448L448 384L384 384M128 448L128 512L384 512L384 448L128 448Z"  horiz-adv-x="448" vert-adv-y="1024"  />

      
      <glyph glyph-name="uni0406" unicode="&#x0406;" d="M128 0L128 64L192 64L192 448L128 448L128 512L320 512L320 448L256 448L256 64L320 64L320 0L128 0Z"  horiz-adv-x="448" vert-adv-y="1024"  />

      
      <glyph glyph-name="uni0407" unicode="&#x0407;" d="M128 0L128 64L192 64L192 448L128 448L128 512L320 512L320 448L256 448L256 64L320 64L320 0L128 0M128 576L128 640L192 640L192 576L128 576M256 576L256 640L320 640L320 576L256 576Z"  horiz-adv-x="448" vert-adv-y="1024"  />

      
      <glyph glyph-name="uni0408" unicode="&#x0408;" d="M64 0L64 64L256 64L256 0L64 0M256 64L256 448L192 448L192 512L320 512L320 64L256 64Z"  horiz-adv-x="448" vert-adv-y="1024"  />

      
      <glyph glyph-name="uni0409" unicode="&#x0409;" d="M0 0L0 64L64 64L64 0L0 0M384 64L384 192L448 192L448 64L384 64M64 64L64 448L128 448L128 64L64 64M256 0L256 448L128 448L128 512L320 512L320 256L384 256L384 192L320 192L320 64L384 64L384 0L256 0Z"  horiz-adv-x="448" vert-adv-y="1024"  />

      
      <glyph glyph-name="uni040A" unicode="&#x040A;" d="M384 64L384 256L448 256L448 64L384 64M0 0L0 512L64 512L64 320L256 320L256 512L320 512L320 320L384 320L384 256L320 256L320 64L384 64L384 0L256 0L256 256L64 256L64 0L0 0Z"  horiz-adv-x="448" vert-adv-y="1024"  />

      
      <glyph glyph-name="uni040B" unicode="&#x040B;" d="M384 0L384 256L448 256L448 0L384 0M256 256L256 320L384 320L384 256L256 256M128 0L128 448L0 448L0 512L320 512L320 448L192 448L192 256L256 256L256 192L192 192L192 0L128 0Z"  horiz-adv-x="448" vert-adv-y="1024"  />

      
      <glyph glyph-name="uni040C" unicode="&#x040C;" d="M384 0L384 64L448 64L448 0L384 0M320 64L320 128L384 128L384 64L320 64M256 128L256 192L320 192L320 128L256 128M256 320L256 384L320 384L320 320L256 320M320 384L320 448L384 448L384 384L320 384M64 0L64 512L128 512L128 256L192 256L192 320L256 320L256 192L128 192L128 0L64 0M384 448L384 512L448 512L448 448L384 448M192 576L192 640L256 640L256 576L192 576M256 640L256 704L320 704L320 640L256 640Z"  horiz-adv-x="448" vert-adv-y="1024"  />

      
      <glyph glyph-name="uni040D" unicode="&#x040D;" d="M192 128L192 256L256 256L256 128L192 128M256 256L256 384L320 384L320 256L256 256M64 0L64 512L128 512L128 128L192 128L192 0L64 0M384 0L384 384L320 384L320 512L448 512L448 0L384 0M256 576L256 640L384 640L384 576L256 576M128 640L128 704L256 704L256 640L128 640Z"  horiz-adv-x="448" vert-adv-y="1024"  />

      
      <glyph glyph-name="uni040E" unicode="&#x040E;" d="M128 0L128 64L192 64L192 0L128 0M192 64L192 256L320 256L320 192L256 192L256 64L192 64M128 256L128 384L192 384L192 256L128 256M320 256L320 384L384 384L384 256L320 256M64 384L64 512L128 512L128 384L64 384M384 384L384 512L448 512L448 384L384 384M192 576L192 640L320 640L320 576L192 576M128 640L128 704L192 704L192 640L128 640M320 640L320 704L384 704L384 640L320 640Z"  horiz-adv-x="448" vert-adv-y="1024"  />

      
      <glyph glyph-name="uni040F" unicode="&#x040F;" d="M256-128L256 0L64 0L64 512L128 512L128 64L384 64L384 512L448 512L448 0L320 0L320-128L256-128Z"  horiz-adv-x="448" vert-adv-y="1024"  />

      
      <glyph glyph-name="uni0410" unicode="&#x0410;" d="M64 0L64 192L128 192L128 0L64 0M384 0L384 192L448 192L448 0L384 0M128 192L128 384L192 384L192 256L320 256L320 384L384 384L384 192L128 192M192 384L192 512L320 512L320 384L192 384Z"  horiz-adv-x="448" vert-adv-y="1024"  />

      
      <glyph glyph-name="uni0411" unicode="&#x0411;" d="M384 64L384 256L448 256L448 64L384 64M64 0L64 512L384 512L384 448L128 448L128 320L384 320L384 256L128 256L128 64L384 64L384 0L64 0Z"  horiz-adv-x="448" vert-adv-y="1024"  />

      
      <glyph glyph-name="uni0412" unicode="&#x0412;" d="M384 64L384 256L448 256L448 64L384 64M64 0L64 512L320 512L320 448L128 448L128 320L320 320L320 448L384 448L384 256L128 256L128 64L384 64L384 0L64 0Z"  horiz-adv-x="448" vert-adv-y="1024"  />

      
      <glyph glyph-name="uni0413" unicode="&#x0413;" d="M64 0L64 512L448 512L448 448L128 448L128 0L64 0Z"  horiz-adv-x="448" vert-adv-y="1024"  />

      
      <glyph glyph-name="uni0414" unicode="&#x0414;" d="M64 128L64 448L128 448L128 128L64 128M0-128L0 128L64 128L64 64L320 64L320 448L128 448L128 512L384 512L384 64L448 64L448-128L384-128L384 0L64 0L64-128L0-128Z"  horiz-adv-x="448" vert-adv-y="1024"  />

      
      <glyph glyph-name="uni0415" unicode="&#x0415;" d="M64 0L64 512L384 512L384 448L128 448L128 320L320 320L320 256L128 256L128 64L384 64L384 0L64 0Z"  horiz-adv-x="448" vert-adv-y="1024"  />

      
      <glyph glyph-name="uni0416" unicode="&#x0416;" d="M0 0L0 128L64 128L64 0L0 0M384 0L384 128L448 128L448 0L384 0M64 128L64 192L128 192L128 128L64 128M320 128L320 192L384 192L384 128L320 128M64 320L64 384L128 384L128 320L64 320M320 320L320 384L384 384L384 320L320 320M0 384L0 512L64 512L64 384L0 384M192 0L192 192L128 192L128 320L192 320L192 512L256 512L256 320L320 320L320 192L256 192L256 0L192 0M384 384L384 512L448 512L448 384L384 384Z"  horiz-adv-x="448" vert-adv-y="1024"  />

      
      <glyph glyph-name="uni0417" unicode="&#x0417;" d="M128 0L128 64L320 64L320 0L128 0M64 64L64 128L128 128L128 64L64 64M320 64L320 256L384 256L384 64L320 64M192 256L192 320L320 320L320 256L192 256M64 384L64 448L128 448L128 384L64 384M320 320L320 448L384 448L384 320L320 320M128 448L128 512L320 512L320 448L128 448Z"  horiz-adv-x="448" vert-adv-y="1024"  />

      
      <glyph glyph-name="uni0418" unicode="&#x0418;" d="M192 128L192 256L256 256L256 128L192 128M256 256L256 384L320 384L320 256L256 256M64 0L64 512L128 512L128 128L192 128L192 0L64 0M384 0L384 384L320 384L320 512L448 512L448 0L384 0Z"  horiz-adv-x="448" vert-adv-y="1024"  />

      
      <glyph glyph-name="uni0419" unicode="&#x0419;" d="M192 128L192 256L256 256L256 128L192 128M256 256L256 384L320 384L320 256L256 256M64 0L64 512L128 512L128 128L192 128L192 0L64 0M384 0L384 384L320 384L320 512L448 512L448 0L384 0M192 576L192 640L320 640L320 576L192 576M128 640L128 704L192 704L192 640L128 640M320 640L320 704L384 704L384 640L320 640Z"  horiz-adv-x="448" vert-adv-y="1024"  />

      
      <glyph glyph-name="uni041A" unicode="&#x041A;" d="M384 0L384 64L448 64L448 0L384 0M320 64L320 128L384 128L384 64L320 64M256 128L256 192L320 192L320 128L256 128M256 320L256 384L320 384L320 320L256 320M320 384L320 448L384 448L384 384L320 384M64 0L64 512L128 512L128 256L192 256L192 320L256 320L256 192L128 192L128 0L64 0M384 448L384 512L448 512L448 448L384 448Z"  horiz-adv-x="448" vert-adv-y="1024"  />

      
      <glyph glyph-name="uni041B" unicode="&#x041B;" d="M64 0L64 64L128 64L128 0L64 0M128 64L128 448L192 448L192 64L128 64M384 0L384 448L192 448L192 512L448 512L448 0L384 0Z"  horiz-adv-x="448" vert-adv-y="1024"  />

      
      <glyph glyph-name="uni041C" unicode="&#x041C;" d="M192 128L192 256L256 256L256 128L192 128M128 256L128 384L192 384L192 256L128 256M256 256L256 384L320 384L320 256L256 256M0 0L0 512L128 512L128 384L64 384L64 0L0 0M384 0L384 384L320 384L320 512L448 512L448 0L384 0Z"  horiz-adv-x="448" vert-adv-y="1024"  />

      
      <glyph glyph-name="uni041D" unicode="&#x041D;" d="M64 0L64 512L128 512L128 320L384 320L384 512L448 512L448 0L384 0L384 256L128 256L128 0L64 0Z"  horiz-adv-x="448" vert-adv-y="1024"  />

      
      <glyph glyph-name="uni041E" unicode="&#x041E;" d="M192 0L192 64L320 64L320 0L192 0M128 64L128 128L192 128L192 64L128 64M320 64L320 128L384 128L384 64L320 64M64 128L64 384L128 384L128 128L64 128M384 128L384 384L448 384L448 128L384 128M128 384L128 448L192 448L192 384L128 384M320 384L320 448L384 448L384 384L320 384M192 448L192 512L320 512L320 448L192 448Z"  horiz-adv-x="448" vert-adv-y="1024"  />

      
      <glyph glyph-name="uni041F" unicode="&#x041F;" d="M64 0L64 512L448 512L448 0L384 0L384 448L128 448L128 0L64 0Z"  horiz-adv-x="448" vert-adv-y="1024"  />

      
      <glyph glyph-name="uni0420" unicode="&#x0420;" d="M320 256L320 448L384 448L384 256L320 256M64 0L64 512L320 512L320 448L128 448L128 256L320 256L320 192L128 192L128 0L64 0Z"  horiz-adv-x="448" vert-adv-y="1024"  />

      
      <glyph glyph-name="uni0421" unicode="&#x0421;" d="M192 0L192 64L384 64L384 0L192 0M128 64L128 128L192 128L192 64L128 64M384 64L384 128L448 128L448 64L384 64M64 128L64 384L128 384L128 128L64 128M128 384L128 448L192 448L192 384L128 384M384 384L384 448L448 448L448 384L384 384M192 448L192 512L384 512L384 448L192 448Z"  horiz-adv-x="448" vert-adv-y="1024"  />

      
      <glyph glyph-name="uni0422" unicode="&#x0422;" d="M192 0L192 448L0 448L0 512L448 512L448 448L256 448L256 0L192 0Z"  horiz-adv-x="448" vert-adv-y="1024"  />

      
      <glyph glyph-name="uni0423" unicode="&#x0423;" d="M128 0L128 64L192 64L192 0L128 0M192 64L192 256L320 256L320 192L256 192L256 64L192 64M128 256L128 384L192 384L192 256L128 256M320 256L320 384L384 384L384 256L320 256M64 384L64 512L128 512L128 384L64 384M384 384L384 512L448 512L448 384L384 384Z"  horiz-adv-x="448" vert-adv-y="1024"  />

      
      <glyph glyph-name="uni0424" unicode="&#x0424;" d="M0 192L0 384L64 384L64 192L0 192M384 192L384 384L448 384L448 192L384 192M192 0L192 128L64 128L64 192L192 192L192 384L64 384L64 448L192 448L192 512L256 512L256 448L384 448L384 384L256 384L256 192L384 192L384 128L256 128L256 0L192 0Z"  horiz-adv-x="448" vert-adv-y="1024"  />

      
      <glyph glyph-name="uni0425" unicode="&#x0425;" d="M64 0L64 128L128 128L128 0L64 0M384 0L384 128L448 128L448 0L384 0M128 128L128 192L192 192L192 128L128 128M320 128L320 192L384 192L384 128L320 128M192 192L192 320L320 320L320 192L192 192M128 320L128 384L192 384L192 320L128 320M320 320L320 384L384 384L384 320L320 320M64 384L64 512L128 512L128 384L64 384M384 384L384 512L448 512L448 384L384 384Z"  horiz-adv-x="448" vert-adv-y="1024"  />

      
      <glyph glyph-name="uni0426" unicode="&#x0426;" d="M384-128L384 0L448 0L448-128L384-128M64 0L64 512L128 512L128 64L320 64L320 512L384 512L384 0L64 0Z"  horiz-adv-x="448" vert-adv-y="1024"  />

      
      <glyph glyph-name="uni0427" unicode="&#x0427;" d="M64 192L64 512L128 512L128 192L64 192M384 0L384 128L128 128L128 192L384 192L384 512L448 512L448 0L384 0Z"  horiz-adv-x="448" vert-adv-y="1024"  />

      
      <glyph glyph-name="uni0428" unicode="&#x0428;" d="M64 0L64 512L128 512L128 64L192 64L192 512L256 512L256 64L320 64L320 512L384 512L384 0L64 0Z"  horiz-adv-x="448" vert-adv-y="1024"  />

      
      <glyph glyph-name="uni0429" unicode="&#x0429;" d="M384-128L384 0L64 0L64 512L128 512L128 64L192 64L192 512L256 512L256 64L320 64L320 512L384 512L384 64L448 64L448-128L384-128Z"  horiz-adv-x="448" vert-adv-y="1024"  />

      
      <glyph glyph-name="uni042A" unicode="&#x042A;" d="M320 64L320 256L384 256L384 64L320 64M128 0L128 448L0 448L0 512L192 512L192 320L320 320L320 256L192 256L192 64L320 64L320 0L128 0Z"  horiz-adv-x="448" vert-adv-y="1024"  />

      
      <glyph glyph-name="uni042B" unicode="&#x042B;" d="M256 64L256 256L320 256L320 64L256 64M64 0L64 512L128 512L128 320L256 320L256 256L128 256L128 64L256 64L256 0L64 0M384 0L384 512L448 512L448 0L384 0Z"  horiz-adv-x="448" vert-adv-y="1024"  />

      
      <glyph glyph-name="uni042C" unicode="&#x042C;" d="M256 64L256 256L320 256L320 64L256 64M64 0L64 512L128 512L128 320L256 320L256 256L128 256L128 64L256 64L256 0L64 0Z"  horiz-adv-x="448" vert-adv-y="1024"  />

      
      <glyph glyph-name="uni042D" unicode="&#x042D;" d="M128 0L128 64L320 64L320 0L128 0M64 64L64 128L128 128L128 64L64 64M320 64L320 128L384 128L384 64L320 64M384 128L384 256L192 256L192 320L384 320L384 384L448 384L448 128L384 128M64 384L64 448L128 448L128 384L64 384M320 384L320 448L384 448L384 384L320 384M128 448L128 512L320 512L320 448L128 448Z"  horiz-adv-x="448" vert-adv-y="1024"  />

      
      <glyph glyph-name="uni042E" unicode="&#x042E;" d="M256 0L256 64L384 64L384 0L256 0M384 64L384 448L448 448L448 64L384 64M64 0L64 512L128 512L128 320L192 320L192 448L256 448L256 64L192 64L192 256L128 256L128 0L64 0M256 448L256 512L384 512L384 448L256 448Z"  horiz-adv-x="448" vert-adv-y="1024"  />

      
      <glyph glyph-name="uni042F" unicode="&#x042F;" d="M64 0L64 64L128 64L128 0L64 0M128 64L128 128L192 128L192 64L128 64M128 256L128 448L192 448L192 256L128 256M384 0L384 192L256 192L256 128L192 128L192 256L384 256L384 448L192 448L192 512L448 512L448 0L384 0Z"  horiz-adv-x="448" vert-adv-y="1024"  />

      
      <glyph glyph-name="uni0430" unicode="&#x0430;" d="M64 64L64 192L128 192L128 64L64 64M128 0L128 64L320 64L320 192L128 192L128 256L320 256L320 320L384 320L384 0L128 0M128 320L128 384L320 384L320 320L128 320Z"  horiz-adv-x="448" vert-adv-y="1024"  />

      
      <glyph glyph-name="uni0431" unicode="&#x0431;" d="M128 0L128 64L320 64L320 0L128 0M320 64L320 320L384 320L384 64L320 64M64 64L64 448L128 448L128 384L320 384L320 320L128 320L128 64L64 64M128 448L128 512L320 512L320 448L128 448M320 512L320 576L384 576L384 512L320 512Z"  horiz-adv-x="448" vert-adv-y="1024"  />

      
      <glyph glyph-name="uni0432" unicode="&#x0432;" d="M320 64L320 192L384 192L384 64L320 64M320 256L320 320L384 320L384 256L320 256M64 0L64 384L320 384L320 320L128 320L128 256L320 256L320 192L128 192L128 64L320 64L320 0L64 0Z"  horiz-adv-x="448" vert-adv-y="1024"  />

      
      <glyph glyph-name="uni0433" unicode="&#x0433;" d="M64 0L64 384L384 384L384 320L128 320L128 0L64 0Z"  horiz-adv-x="448" vert-adv-y="1024"  />

      
      <glyph glyph-name="uni0434" unicode="&#x0434;" d="M0-128L0 64L64 64L64 320L128 320L128 64L320 64L320 320L128 320L128 384L384 384L384 64L448 64L448-128L384-128L384 0L64 0L64-128L0-128Z"  horiz-adv-x="448" vert-adv-y="1024"  />

      
      <glyph glyph-name="uni0435" unicode="&#x0435;" d="M128 0L128 64L320 64L320 0L128 0M320 64L320 128L384 128L384 64L320 64M64 64L64 320L128 320L128 256L320 256L320 320L384 320L384 192L128 192L128 64L64 64M128 320L128 384L320 384L320 320L128 320Z"  horiz-adv-x="448" vert-adv-y="1024"  />

      
      </font>
</defs>
</svg>
