<?xml version="1.0" standalone="no"?>
<!DOCTYPE svg PUBLIC "-//W3C//DTD SVG 1.1//EN" "http://www.w3.org/Graphics/SVG/1.1/DTD/svg11.dtd" >
<svg xmlns="http://www.w3.org/2000/svg" xmlns:xlink="http://www.w3.org/1999/xlink" version="1.1">
<metadata>
Created by FontForge 20190801 at Tue Jun 20 08:05:43 2023
 By Unknown
Copyright (c) 2023 by Zelow Type.
</metadata>
<defs>
<font id="ZTFormom-Regular" horiz-adv-x="597" >
  <font-face 
    font-family="ZT Formom"
    font-weight="400"
    font-stretch="normal"
    units-per-em="1000"
    panose-1="2 0 0 0 0 0 0 0 0 0"
    ascent="800"
    descent="-200"
    x-height="523"
    cap-height="770"
    bbox="-68 -319.571 1165 1076"
    underline-thickness="50"
    underline-position="-100"
    unicode-range="U+0020-FB04"
  />
<missing-glyph horiz-adv-x="430" 
d="M156 894l118 -48v46h23v-73h-23l-117 48v-48h-24v75h23zM297 804v-70h-23v45h-44v-36h-23v36h-50v-45h-24v70h164zM297 719v-25h-140v-43h-24v68h164zM258 642q41 0 41 -39q0 -40 -41 -40h-86q-41 0 -41 40q0 39 41 39h86zM260 589q16 0 16 14q0 13 -16 13h-90
q-16 0 -16 -13q0 -14 16 -14h90zM297 552v-25l-126 -11v-1l126 -12v-28l-126 -12l126 -12v-22l-164 16v33l111 11v1l-111 11v35zM274 395v27h23v-80h-23v27h-141v26h141zM203 305l94 31v-27l-60 -18l60 -18v-25l-94 31h-70v26h70zM297 236v-37q0 -39 -41 -39h-16
q-40 0 -40 39v12h-67v25h164zM223 199q0 -13 16 -13h19q16 0 16 13v12h-51v-12zM297 146v-70h-23v44h-44v-35h-23v35h-50v-44h-24v70h164z" />
    <glyph glyph-name="f_f" unicode="ff" horiz-adv-x="547" 
d="M486 794q38 0 62.5 -20t24.5 -52q0 -20 -10 -33.5t-25 -13.5q-11 0 -19 9t-19 32q-11 26 -20.5 36t-23.5 10q-47 0 -47 -104v-123q0 -5 3.5 -8.5t8.5 -3.5h72q8 0 13.5 -5.5t4.5 -13.5q0 -8 -5.5 -13t-13.5 -5h-71q-5 0 -8.5 -3.5t-3.5 -8.5v-343q0 -30 2 -49.5t9 -30.5
t20 -15.5t34 -6.5q6 -1 10 -5.5t3 -10.5q-2 -13 -15 -13h-187q-7 0 -11 4.5t-4 10.5q0 12 13 14q18 2 29 7.5t17 16.5t8 30t2 48v343q0 12 -12 12h-12q-8 0 -14 5.5t-6 13.5q0 16 16 20q18 3 23 13.5t6 19.5q0 9 -9 9q-1 -1 -5 -1q-20 0 -31.5 14t-11.5 34q0 10 3.5 19t8 18
t8 18t3.5 18q0 10 -3.5 21t-11 20t-20 15.5t-31.5 7.5h-1q-24 0 -40 -9t-26.5 -23.5t-15 -34t-4.5 -40.5v-109q0 -5 3.5 -8.5t8.5 -3.5h72q8 0 13.5 -5.5t4.5 -13.5q0 -8 -5.5 -13t-13.5 -5h-71q-5 0 -8.5 -3.5t-3.5 -8.5v-343q0 -30 2 -49.5t9 -30.5t20 -15.5t34 -6.5
q6 -1 10 -5.5t3 -10.5q-2 -13 -15 -13h-187q-13 0 -15 13q-1 6 3 10.5t10 5.5q18 2 29 7.5t17 16.5t8 30t2 48v343q0 12 -12 12h-12q-8 0 -13.5 5.5t-6.5 13.5q0 16 16 20q12 2 18 7.5t8.5 11.5t2.5 12v10q0 42 8 80.5t26.5 67t48.5 45.5t73 17q35 0 64.5 -17.5t47.5 -49.5
q2 -5 8 -5t8 6q17 40 48 62t70 22z" />
    <glyph glyph-name="fi" unicode="fi" horiz-adv-x="494" 
d="M237 523q8 0 13.5 -6t4.5 -14q-2 -17 -19 -17h-71q-5 0 -8.5 -3.5t-3.5 -8.5v-343q0 -30 2 -49.5t9 -30.5t20 -15.5t34 -6.5q6 -1 10 -5.5t3 -10.5q-2 -13 -15 -13h-187q-7 0 -11.5 5t-3.5 12q1 5 4.5 8t8.5 4q18 2 29 7.5t17 16.5t8 30t2 48v343q0 12 -12 12h-12
q-8 0 -14 6.5t-6 14.5q2 16 19 18q12 2 17.5 7.5t7.5 14t1.5 18.5t-0.5 20q0 42 8 80t26.5 66.5t48.5 45.5t73 17q27 0 51 -11t42 -30.5t28.5 -47.5t10.5 -61q0 -26 -11.5 -42.5t-34.5 -16.5q-20 0 -31.5 13.5t-11.5 33.5q0 10 3.5 19t8 18t8 18t3.5 18q0 10 -3.5 21
t-11 20.5t-20 16t-31.5 7.5h-1q-24 0 -40 -9t-26.5 -24t-15 -34.5t-4.5 -40.5v-127q0 -5 3.5 -8.5t8.5 -3.5h72zM458 29q13 -2 13 -14q0 -6 -4.5 -10.5t-10.5 -4.5h-168q-6 0 -10.5 4.5t-4.5 10.5q0 12 13 14q17 2 27.5 7t16 16t7.5 30t2 49v268q0 19 -4 31t-10 19t-13.5 10
t-14.5 4q-13 2 -13 15t13 16q14 2 39.5 10.5t57.5 29.5q4 2 7 1q8 -2 8 -10v-392q0 -30 1.5 -49t7 -30t15 -16.5t25.5 -8.5z" />
    <glyph glyph-name="fl" unicode="fl" horiz-adv-x="480" 
d="M455 30q12 -2 12 -15q0 -6 -4.5 -10.5t-11.5 -4.5h-167q-6 0 -10 4.5t-4 10.5q0 12 12 14q37 6 49.5 24t12.5 63v524q0 57 -21.5 92t-59.5 35q-54 0 -82 -42t-28 -139v-51q0 -5 3.5 -8.5t8.5 -3.5h72q8 0 13 -5t5 -13t-5 -13.5t-13 -5.5h-72q-5 0 -8.5 -3.5t-3.5 -8.5
v-343q0 -30 2 -49.5t9 -30.5t20 -15.5t34 -6.5q13 -2 13 -15q0 -14 -14 -14h-188q-6 0 -10.5 4.5t-4.5 10.5q0 12 13 14q18 2 29 7.5t17 16.5t8 30t2 48v343q0 12 -12 12h-12q-8 0 -14 6t-6 14q0 15 16 19q12 2 18 7.5t8.5 11.5t2.5 12v10q0 63 14.5 106.5t38.5 70.5t55 39
t64 12q46 0 87 -35q8 -5 15 -5q9 0 18 7l26 25q2 1 5 1q7 0 7 -7v-684q0 -33 7.5 -46.5t33.5 -19.5z" />
    <glyph glyph-name="f_f_i" unicode="ffi" horiz-adv-x="750" 
d="M493 523q8 0 13.5 -6t4.5 -14q-2 -17 -19 -17h-71q-5 0 -8.5 -3.5t-3.5 -8.5v-343q0 -30 2 -49.5t9 -30.5t20 -15.5t34 -6.5q6 -1 10 -5.5t3 -10.5q-2 -13 -15 -13h-187q-7 0 -11.5 5t-3.5 12q2 10 13 12q18 2 29 7.5t17 16.5t8 30t2 48v343q0 12 -12 12h-12q-9 0 -15 7
t-4 16q2 14 17 16q16 2 21 10.5t6 20.5q1 5 -2 8t-8 2q-23 0 -35 12.5t-12 35.5q0 10 3.5 19t8 18t8 18t3.5 18q0 10 -3.5 21t-11 20t-20 15.5t-31.5 7.5h-1q-24 0 -40 -9t-26.5 -23.5t-15 -34t-4.5 -40.5v-109q0 -5 3.5 -8.5t8.5 -3.5h72q8 0 13.5 -5.5t4.5 -13.5
q0 -8 -5.5 -13t-13.5 -5h-71q-5 0 -8.5 -3.5t-3.5 -8.5v-343q0 -30 2 -49.5t9 -30.5t20 -15.5t34 -6.5q6 -1 10 -5.5t3 -10.5q-2 -13 -15 -13h-187q-13 0 -15 13q-1 6 3 10.5t10 5.5q18 2 29 7.5t17 16.5t8 30t2 48v343q0 12 -12 12h-12q-8 0 -13.5 5.5t-6.5 13.5
q0 16 16 20q12 2 18 7.5t8.5 11.5t2.5 12v10q0 42 8 80.5t26.5 67t48.5 45.5t73 17q34 0 62.5 -17t46.5 -46q3 -5 8.5 -4.5t7.5 5.5q17 36 49 58t82 22q27 0 51 -11t42 -30.5t28.5 -47.5t10.5 -61q0 -26 -11.5 -42.5t-35.5 -16.5q-20 0 -31 13.5t-11 33.5q0 10 3.5 19t8 18
t8 18t3.5 18q0 10 -3.5 21t-11 20.5t-20 16t-31.5 7.5h-1q-24 0 -40 -9t-26.5 -24t-15 -34.5t-4.5 -40.5v-127q0 -5 3.5 -8.5t8.5 -3.5h72zM714 30q11 -3 13 -14q0 -16 -15 -16h-168q-7 0 -11 4.5t-4 10.5q0 12 13 14q17 2 27.5 7t16 16t7.5 30t2 49v268q0 19 -4 31
t-10.5 19t-14 10t-14.5 4q-12 3 -12 16q0 11 13 15q14 2 39 10.5t57 29.5q7 4 12 -1q4 -3 4 -8v-392q0 -30 1.5 -49t7 -30t15 -16.5t25.5 -7.5z" />
    <glyph glyph-name="f_f_l" unicode="ffl" horiz-adv-x="736" 
d="M711 30q12 -3 12 -16q-2 -14 -16 -14h-166q-13 0 -15 13q-2 14 12 16q37 6 49.5 24t12.5 63v524q0 57 -21.5 92t-59.5 35q-54 0 -82 -42t-28 -139v-51q0 -5 3.5 -8.5t8.5 -3.5h72q8 0 13.5 -5.5t4.5 -13.5q0 -8 -5.5 -13t-13.5 -5h-71q-5 0 -8.5 -3.5t-3.5 -8.5v-343
q0 -30 2 -49.5t9 -30.5t20 -15.5t34 -6.5q6 -1 10 -5.5t3 -10.5q-2 -13 -15 -13h-187q-13 0 -15 13q-1 6 3 10.5t10 5.5q18 2 29 7.5t17 16.5t8 30t2 48v343q0 12 -12 12h-12q-8 0 -14 5.5t-6 13.5q0 16 16 20q18 3 23 13.5t6 19.5q0 10 -9 8q-23 0 -35.5 12.5t-12.5 35.5
q0 10 3.5 19t8 18t8 18t3.5 18q0 10 -3.5 21t-11 20t-20 15.5t-31.5 7.5h-1q-24 0 -40 -9t-26.5 -23.5t-15 -34t-4.5 -40.5v-109q0 -5 3.5 -8.5t8.5 -3.5h72q8 0 13.5 -5.5t4.5 -13.5q0 -8 -5.5 -13t-13.5 -5h-71q-5 0 -8.5 -3.5t-3.5 -8.5v-343q0 -30 2 -49.5t9 -30.5
t20 -15.5t34 -6.5q6 -1 10 -5.5t3 -10.5q-2 -13 -15 -13h-187q-13 0 -15 13q-1 6 3 10.5t10 5.5q18 2 29 7.5t17 16.5t8 30t2 48v343q0 12 -12 12h-12q-8 0 -13.5 5.5t-6.5 13.5q0 16 16 20q12 2 18 7.5t8.5 11.5t2.5 12v10q0 42 8 80.5t26.5 67t48.5 45.5t73 17
q36 0 66 -18.5t47 -51.5q2 -5 7.5 -5t7.5 5q24 48 62.5 68t81.5 20q46 0 87 -35q8 -5 15 -5q9 0 18 7l26 25q4 2 8 1q4 -2 4 -7v-684q0 -33 7.5 -46.5t33.5 -19.5z" />
    <glyph glyph-name=".notdef" horiz-adv-x="430" 
d="M156 894l118 -48v46h23v-73h-23l-117 48v-48h-24v75h23zM297 804v-70h-23v45h-44v-36h-23v36h-50v-45h-24v70h164zM297 719v-25h-140v-43h-24v68h164zM258 642q41 0 41 -39q0 -40 -41 -40h-86q-41 0 -41 40q0 39 41 39h86zM260 589q16 0 16 14q0 13 -16 13h-90
q-16 0 -16 -13q0 -14 16 -14h90zM297 552v-25l-126 -11v-1l126 -12v-28l-126 -12l126 -12v-22l-164 16v33l111 11v1l-111 11v35zM274 395v27h23v-80h-23v27h-141v26h141zM203 305l94 31v-27l-60 -18l60 -18v-25l-94 31h-70v26h70zM297 236v-37q0 -39 -41 -39h-16
q-40 0 -40 39v12h-67v25h164zM223 199q0 -13 16 -13h19q16 0 16 13v12h-51v-12zM297 146v-70h-23v44h-44v-35h-23v35h-50v-44h-24v70h164z" />
    <glyph glyph-name=".null" horiz-adv-x="0" 
 />
    <glyph glyph-name="uni000D" horiz-adv-x="333" 
 />
    <glyph glyph-name="space" unicode=" " horiz-adv-x="287" 
 />
    <glyph glyph-name="n" unicode="n" horiz-adv-x="439" 
d="M414 31q12 -3 12 -15q0 -16 -16 -16h-146q-6 0 -10.5 4.5t-4.5 10.5q0 12 12 15q14 3 23 8.5t14 16.5t6.5 29t1.5 45v220q0 123 -62 123q-16 0 -32.5 -9t-30 -24.5t-22.5 -37t-9 -46.5v-226q0 -27 1.5 -45t6.5 -29t14 -16.5t23 -8.5q12 -3 12 -15q0 -6 -4.5 -10.5
t-10.5 -4.5h-150q-6 0 -10.5 4.5t-4.5 10.5q0 13 12 15q14 4 22 9.5t12.5 16t5.5 28t1 45.5v270q0 19 -4 31t-10 19t-13.5 10t-14.5 4q-16 4 -13 19q3 9 13 11q14 3 39.5 11.5t57.5 28.5q5 5 12 0q3 -4 3 -9v-60q0 -5 5.5 -7t8.5 3q25 40 50.5 57.5t58.5 17.5
q103 0 103 -185v-221q0 -27 1 -44.5t5 -28t11.5 -16t20.5 -9.5z" />
    <glyph glyph-name="u" unicode="u" horiz-adv-x="431" 
d="M405 60q6 -1 10 -6.5t2 -12.5q-2 -9 -13 -11q-14 -3 -39 -11.5t-57 -28.5q-7 -5 -12 0q-4 3 -4 9v60q0 5 -5 7t-8 -3q-26 -40 -51.5 -57.5t-58.5 -17.5q-102 0 -102 185v248q0 39 -8.5 53.5t-31.5 19.5q-6 1 -9.5 6t-2.5 11q2 12 16 12h94q12 0 12 -12v-337
q0 -123 62 -123q16 0 32.5 9t30 25t22 37t8.5 46v252q0 21 -2 34.5t-7.5 21.5t-15 12t-24.5 6q-14 2 -12 16q0 5 4.5 9t10.5 4h104q12 0 12 -12v-387q0 -19 4 -31t10.5 -19t14 -10t14.5 -4z" />
    <glyph glyph-name="h" unicode="h" horiz-adv-x="440" 
d="M376 129q0 -27 1 -44.5t5 -28t11.5 -16t20.5 -9.5q12 -3 12 -15q0 -16 -16 -16h-146q-6 0 -10.5 4.5t-4.5 10.5q0 12 12 15q14 3 23 8.5t14 16.5t6.5 29t1.5 45v220q0 123 -62 123q-16 0 -32.5 -9t-30 -24.5t-22.5 -37t-9 -46.5v-226q0 -27 1.5 -45t6.5 -29t14 -16.5
t23 -8.5q12 -3 12 -15q0 -6 -4.5 -10.5t-10.5 -4.5h-150q-6 0 -10.5 4.5t-4.5 10.5q0 13 12 15q14 4 22 9.5t12.5 16t5.5 28t1 45.5v529q0 19 -4 31t-10 19t-13.5 10.5t-14.5 4.5t-11 6t-2 12q3 10 13 12q14 2 39.5 10.5t57.5 29.5q6 4 12 -1q3 -3 3 -8v-320q0 -5 5.5 -7
t8.5 3q25 40 50.5 57.5t58.5 17.5q103 0 103 -185v-221z" />
    <glyph glyph-name="l" unicode="l" horiz-adv-x="236" 
d="M210 29q12 -2 12 -14q0 -6 -4.5 -10.5t-10.5 -4.5h-167q-6 0 -10.5 4.5t-4.5 10.5q0 12 12 15q32 5 42 24t10 63v541q0 19 -4 31t-10 19t-13.5 10.5t-14.5 4.5q-13 2 -13 15q0 11 13 15q14 2 39.5 10.5t57.5 29.5q5 2 7 1q8 -2 8 -10v-672q0 -22 2 -37t7.5 -24.5
t15.5 -14.5t26 -7z" />
    <glyph glyph-name="r" unicode="r" horiz-adv-x="321" 
d="M255 535q21 0 35.5 -15t14.5 -47q0 -24 -11 -38t-26 -14q-11 0 -16.5 7t-10 15.5t-10.5 15.5t-18 7q-9 0 -19.5 -9.5t-19 -26t-14.5 -38t-6 -45.5v-232q0 -46 12 -64t47 -22q5 -1 9 -5.5t3 -10.5q-2 -13 -15 -13h-169q-7 0 -12 5t-4 12q2 11 12 14q16 5 25 10t14 13
t6.5 21t1.5 33v291q0 19 -4 31t-10 19t-13.5 10t-14.5 4q-15 3 -12 19q2 9 13 11q14 3 39 11.5t57 28.5q5 5 12 0q3 -4 3 -9v-68q0 -6 5.5 -7.5t8.5 3.5q26 47 45 65t42 18z" />
    <glyph glyph-name="o" unicode="o" horiz-adv-x="420" 
d="M206 -12q-38 0 -71 20.5t-57 57.5t-38 87.5t-14 111.5q0 60 13.5 110t38 85t59.5 54.5t77 19.5q38 0 71 -19t57 -53.5t38 -84t14 -109.5q0 -61 -13.5 -112t-38 -88.5t-59.5 -58.5t-77 -21zM198 502q-44 0 -70.5 -48.5t-26.5 -136.5q0 -17 1.5 -46t6 -62t13 -66.5t22 -61
t32.5 -44.5t45 -17q46 0 72 57.5t26 159.5q0 18 -2 44t-7 55.5t-13.5 59t-22 53t-32.5 38.5t-44 15z" />
    <glyph glyph-name="p" unicode="p" horiz-adv-x="432" 
d="M254 535q35 0 63.5 -18t48.5 -51t31 -79t11 -102q0 -62 -13.5 -116t-37 -94.5t-55 -63.5t-67.5 -23q-21 0 -37.5 7.5t-35.5 26.5q-4 4 -9.5 1.5t-5.5 -8.5v-153q0 -25 2 -41t8.5 -26t18.5 -14t31 -5q14 -2 14 -16q-2 -13 -15 -13h-175q-7 0 -11.5 5t-3.5 12q2 11 13 13
q14 3 23 7.5t14 13t6.5 22t1.5 34.5v545q0 18 -4 30t-10 19t-13.5 10.5t-14.5 4.5q-6 1 -10 6.5t-2 12.5q2 9 13 11q14 2 39 11t57 29q7 4 12 -1q4 -4 4 -8v-46q0 -6 5 -7.5t8 3.5q38 61 96 61zM232 21q24 0 43.5 15.5t33 44t21 68.5t7.5 89q0 54 -8 97.5t-23 74t-36.5 47.5
t-48.5 17q-15 0 -28.5 -7t-23.5 -18t-16 -25t-6 -29v-258q0 -23 7 -44t18.5 -37t27 -25.5t32.5 -9.5z" />
    <glyph glyph-name="d" unicode="d" horiz-adv-x="444" 
d="M431 141q0 -28 -1.5 -55.5t-9 -49t-23.5 -35t-44 -13.5q-20 0 -35 13t-22 44q-2 6 -8 7t-10 -4q-20 -30 -43 -45t-53 -15q-34 0 -62.5 18t-49 51t-31.5 79t-11 102q0 62 13.5 116t37.5 94t55.5 63t67.5 23q21 0 37.5 -7t34.5 -26q5 -5 10 -2.5t5 8.5v151q0 18 -4 30
t-10 19t-13.5 10.5t-14.5 4.5t-10.5 6.5t-1.5 12.5q2 9 13 11q14 2 39 11t57 29q6 6 12 -1q3 -3 3 -8v-651q0 -78 26 -78q8 0 13.5 8t9 20.5t5.5 28t2 30.5q0 7 6 8q10 2 10 -8zM289 386q0 23 -7 44t-18.5 37t-27 25.5t-32.5 9.5q-24 0 -43 -15.5t-32.5 -44t-21 -68.5
t-7.5 -90q0 -54 8 -97.5t23 -74t36.5 -47.5t47.5 -17q15 0 28.5 7t23.5 18.5t16 25.5t6 28v259z" />
    <glyph glyph-name="b" unicode="b" horiz-adv-x="423" 
d="M134 479q0 -7 6.5 -8.5t10.5 4.5q17 28 42 44t54 16q33 0 61 -19.5t47.5 -54t30.5 -81.5t11 -101q0 -64 -15 -118t-41 -92t-62 -59.5t-77 -21.5q-25 0 -50 6.5t-44.5 17t-31.5 24.5t-12 29v593q0 18 -4 30t-10 19t-13.5 10.5t-14.5 4.5q-13 2 -13 15t13 15q14 2 39.5 11
t57.5 29q2 2 7 2q8 -2 8 -10v-305zM134 86q0 -29 24.5 -45t56.5 -16q36 0 57.5 22t33 54t15 67t3.5 61q0 16 -1.5 39.5t-5.5 49t-11.5 51.5t-19 46.5t-28.5 33t-41 12.5q-16 0 -31.5 -7.5t-26.5 -20t-18 -29.5t-7 -35v-283z" />
    <glyph glyph-name="q" unicode="q" horiz-adv-x="425" 
d="M215 -238q0 13 13 15q37 5 49.5 23t12.5 64v183q0 6 -6 8.5t-10 -2.5q-26 -32 -55 -48.5t-60 -16.5q-30 0 -54.5 18.5t-42 51.5t-27.5 79t-10 101q0 63 14 117.5t39 94t58.5 62.5t72.5 23q21 0 39 -6t41 -22q8 -5 15 -5q10 0 17 7l27 24q2 2 5 2q7 0 7 -7v-684
q0 -33 7.5 -47t32.5 -20q12 -2 12 -14q0 -16 -15 -16h-167q-6 0 -10.5 4.5t-4.5 10.5zM290 387q0 114 -78 114q-54 0 -84.5 -59t-30.5 -162q0 -60 12.5 -112t34.5 -77q24 -32 62 -32q15 0 30 8t27 21.5t19.5 31.5t7.5 38v229z" />
    <glyph glyph-name="j" unicode="j" horiz-adv-x="203" 
d="M115 676q-18 0 -30 16.5t-12 42.5q0 25 12.5 42t29.5 17q18 0 30.5 -17t12.5 -42q0 -26 -12 -42.5t-31 -16.5zM143 535q9 -2 9 -10v-525q0 -125 -36.5 -189.5t-105.5 -64.5q-34 0 -56 22t-22 51q0 19 9 33t25 14q15 0 23 -12t16 -30q10 -23 18.5 -30.5t17.5 -7.5t17 6
t12 15q3 9 5.5 19.5t3.5 26.5t1.5 39t0.5 56v451q0 19 -4 31t-10 19t-13.5 10t-14.5 4q-13 2 -13 15q0 12 13 16q14 2 39.5 10.5t57.5 29.5q5 2 7 1z" />
    <glyph glyph-name="c" unicode="c" horiz-adv-x="377" 
d="M343 191q5 0 8 -3t2 -8q-23 -101 -62.5 -146.5t-106.5 -45.5q-35 0 -64 19t-50 53.5t-33 82t-12 103.5q0 73 18 131.5t52 97.5q52 60 113 60q12 0 33 -2.5t41.5 -9.5t35.5 -18.5t15 -28.5l2 -114q0 -5 -3.5 -8t-8.5 -3q-9 0 -11 8q-11 44 -23 72t-25.5 43.5t-28.5 21
t-32 5.5q-25 0 -46 -14.5t-36 -41t-23.5 -64t-8.5 -82.5q0 -50 9.5 -92t26.5 -72t41 -46.5t53 -16.5q39 0 68.5 27.5t46.5 84.5q2 7 9 7z" />
    <glyph glyph-name="e" unicode="e" horiz-adv-x="379" 
d="M345 191q5 0 8.5 -4t1.5 -9q-10 -42 -23.5 -76.5t-33.5 -60t-47.5 -39.5t-65.5 -14q-37 0 -66.5 19t-50 53.5t-31.5 83t-11 108.5q0 62 12.5 113.5t35 89.5t54.5 59t71 21q36 0 62.5 -19.5t43.5 -48t26 -60t10 -55.5q1 -13 -5 -21.5t-15 -8.5h-220q-6 0 -10.5 -4.5
t-3.5 -10.5q2 -30 4 -53.5t6 -44t10.5 -39t17.5 -38.5q34 -64 92 -64q42 0 72 31.5t46 84.5q2 7 10 7zM226 359q18 0 23.5 12.5t3.5 28.5q-8 49 -25 71t-52 22q-32 0 -55 -30t-31 -87q-1 -7 3 -12t11 -5h122z" />
    <glyph glyph-name="f" unicode="f" horiz-adv-x="292" 
d="M84 566q2 34 8 74t22 74t44 57t72 23q38 0 62.5 -20t24.5 -52q0 -20 -10 -33.5t-25 -13.5q-11 0 -19 9t-19 32q-11 26 -20.5 36t-23.5 10q-47 0 -47 -104v-123q0 -5 3.5 -8.5t8.5 -3.5h72q8 0 13 -5t5 -13t-5 -13.5t-13 -5.5h-72q-5 0 -8.5 -3.5t-3.5 -8.5v-343
q0 -30 2 -49.5t9 -30.5t20 -15.5t34 -6.5q13 -2 13 -15q0 -14 -14 -14h-188q-6 0 -10.5 4.5t-4.5 10.5q0 12 13 14q18 2 29 7.5t17 16.5t8 30t2 48v343q0 12 -12 12h-12q-8 0 -14 6t-6 14q0 15 16 19q12 2 18 7.5t8.5 11.5t2.5 12v10z" />
    <glyph glyph-name="g" unicode="g" horiz-adv-x="395" 
d="M309 535q38 0 62.5 -20t24.5 -52q0 -20 -10 -34t-25 -14q-21 0 -29 14.5t-12 32.5t-7.5 32.5t-15.5 14.5h-1q-15 -1 -22.5 -14.5t0.5 -26.5q16 -26 23.5 -56t7.5 -59q0 -28 -7.5 -59.5t-23.5 -58.5t-41 -44.5t-59 -17.5q-16 0 -28 3q-19 3 -33 -12q-14 -16 -25 -33
t-11 -25q0 -17 15 -23.5t50 -8.5q19 -1 37.5 -2t34.5 -2q18 -2 35 -3q47 -2 74 -36t27 -88q0 -42 -19 -78t-49.5 -62.5t-69.5 -41.5t-79 -15q-30 0 -56 9t-45.5 24.5t-31 36t-11.5 43.5q0 29 17 60t62 60q6 5 5.5 12t-7.5 10q-23 11 -31 26.5t-8 35.5q0 15 7 30.5t18 30.5
t24.5 28.5t26.5 24.5q4 3 3.5 7.5t-4.5 7.5q-46 29 -62.5 65t-16.5 88q0 40 11 74.5t30 60t44.5 40.5t54.5 15q21 0 39 -6t33 -17q8 -6 17 1q13 11 26.5 16.5t30.5 5.5zM178 202q29 0 45.5 28.5t16.5 76.5q0 18 -3.5 51t-12.5 65t-26 55.5t-44 23.5q-29 0 -45.5 -30.5
t-16.5 -82.5q0 -42 6.5 -76t17.5 -59t27 -38.5t35 -13.5zM142 -14q-32 3 -58 -15t-34 -49q-3 -12 -3 -25q0 -38 33 -61.5t88 -23.5q72 0 115.5 31t43.5 82q0 32 -23 44.5t-80 12.5q-17 0 -39 1t-43 3z" />
    <glyph glyph-name="k" unicode="k" horiz-adv-x="454" 
d="M342 102q23 -40 42.5 -54.5t42.5 -18.5q13 -2 13 -14q0 -6 -4.5 -10.5t-10.5 -4.5h-152q-6 0 -10.5 4.5t-4.5 11.5q0 13 14 15q13 2 13 15q0 7 -3 15t-8 16l-103 189q-3 5 -8.5 3.5t-5.5 -7.5v-174q0 -16 5.5 -26.5t13 -17.5t16 -10t15.5 -5q12 -2 12 -14q0 -6 -4 -10.5
t-10 -4.5h-165q-16 0 -16 16q0 12 12 15q18 5 28 9t15.5 11.5t6.5 20.5t1 34v552q0 19 -4 31t-10.5 19t-14 10.5t-14.5 4.5q-6 1 -10 6t-2 12q2 10 13 12q14 2 39 10.5t57 29.5q7 4 12 -1q4 -3 4 -8v-453q0 -7 6 -9t11 3l97 120q19 25 19 39q0 6 -6.5 10t-24.5 6
q-10 2 -10 12q0 11 11 11h147q12 0 12 -12q0 -11 -11 -11q-17 -1 -32.5 -5.5t-34 -19.5t-42.5 -42.5t-60 -73.5l-11 -13q-13 -18 -3 -38z" />
    <glyph glyph-name="s" unicode="s" horiz-adv-x="296" 
d="M200 277q20 -17 34 -32t22.5 -31.5t12.5 -35.5t4 -44q0 -29 -9.5 -55.5t-25 -46.5t-37 -32t-45.5 -12q-15 0 -37.5 1.5t-42.5 7.5t-34.5 18.5t-14.5 34.5l-2 117q0 11 11 11t11 -9q7 -40 14.5 -69.5t19 -48.5t27 -28t37.5 -9q32 0 51 25t19 61q0 27 -12 49t-33 38l-45 35
q-52 41 -76 82.5t-24 86.5q0 69 32 106.5t83 37.5q11 0 29 -3.5t34.5 -11t28.5 -19t12 -26.5l2 -112q0 -13 -12 -13q-10 0 -12 10q-13 74 -29.5 111.5t-53.5 37.5q-26 0 -44 -18.5t-18 -60.5q0 -20 9 -42.5t27 -36.5z" />
    <glyph glyph-name="t" unicode="t" horiz-adv-x="272" 
d="M248 149q5 1 8.5 -2.5t2.5 -8.5q-8 -72 -38.5 -111t-74.5 -39t-59 37.5t-15 104.5v345q0 11 -11 11h-14q-9 0 -15.5 6.5t-6.5 15.5q0 14 12 20q13 7 27.5 20t27 28.5t22 32.5t13.5 33q2 6 7 6q8 0 8 -8v-106q0 -11 11 -11h55q8 0 13 -5.5t5 -13.5t-5 -13t-13 -5h-55
q-11 0 -11 -11v-331q0 -52 5.5 -73.5t30.5 -21.5q20 0 36 27t24 64q2 9 10 9z" />
    <glyph glyph-name="v" unicode="v" horiz-adv-x="397" 
d="M273 509q0 6 4.5 10t10.5 4h89q7 0 11.5 -4.5t4.5 -10.5q0 -11 -11 -15q-14 -5 -24.5 -20.5t-22.5 -57.5l-120 -420q-2 -7 -9 -7q-8 0 -10 7l-113 377q-10 36 -18.5 58.5t-15.5 36t-14 19.5t-16 8q-12 2 -12 14q0 6 4.5 10.5t10.5 4.5h134q6 0 10.5 -4.5t4.5 -10.5
q0 -12 -12 -14q-16 -4 -21.5 -12t-5.5 -14q0 -8 2 -16.5t6 -21.5l79 -275q1 -5 5.5 -5t6.5 5l77 278q5 20 5 35q0 23 -28 26q-12 2 -12 15z" />
    <glyph glyph-name="w" unicode="w" horiz-adv-x="577" 
d="M555 523q8 0 13 -6.5t3 -14.5q-2 -6 -9 -10q-9 -5 -16 -15.5t-14 -33.5l-128 -448q-2 -9 -12 -7q-6 2 -8 8l-80 288q-2 5 -7 5t-7 -5l-97 -289q-3 -9 -12 -7q-6 2 -8 8l-124 436q-9 34 -16.5 46t-17.5 15t-10 15q0 8 4.5 11.5t10.5 3.5h120q7 0 11.5 -5t3.5 -12
q-2 -11 -12 -13q-29 -9 -29 -26q0 -8 2.5 -17t5.5 -18l75 -276q2 -6 8 -6.5t8 5.5l61 185q6 19 1 41l-11 44q-5 19 -9.5 31.5t-10 20t-12 11t-14.5 5.5q-14 3 -12 18q2 12 16 12h139q6 0 11 -5t3 -12q-2 -11 -13 -13q-23 -4 -29 -9.5t-6 -18.5t3 -28t11 -42l65 -241
q2 -4 5.5 -4t5.5 4l69 239q15 47 15 78q0 9 -5.5 15t-19.5 8q-5 1 -9 5.5t-3 10.5q2 13 15 13h76z" />
    <glyph glyph-name="x" unicode="x" horiz-adv-x="412" 
d="M330 87q15 -32 28.5 -44t28.5 -14q12 -2 12 -15q0 -5 -4.5 -9.5t-10.5 -4.5h-139q-6 0 -10 4.5t-4 10.5q0 12 13 14q23 3 22 16q-1 11 -7 21l-70 150q-2 4 -6 4t-6 -4l-60 -130l-12 -28.5t-4 -14.5q0 -13 20 -14q13 -2 13 -15q0 -14 -14 -14h-92q-6 0 -10.5 4.5
t-4.5 10.5q0 12 12 15q14 2 24.5 11t24.5 36l87 175q8 16 0 34l-70 150q-17 35 -31 46t-29 13q-12 2 -12 14q0 14 14 14h144q6 0 10.5 -4t4.5 -10q0 -12 -12 -15q-24 -3 -24 -21q0 -11 10 -34.5t28 -61.5l6 -12q2 -4 6 -4t6 4q5 10 9.5 20t9.5 20q14 30 22.5 47t8.5 28
q0 8 -5 10.5t-16 4.5q-13 2 -13 14q0 6 4.5 10t10.5 4h103q14 0 14 -14q0 -13 -12 -15q-17 -2 -31 -10.5t-24 -28.5l-61 -123q-8 -18 -1 -34z" />
    <glyph glyph-name="y" unicode="y" horiz-adv-x="401" 
d="M395 508q0 -12 -12 -14q-11 -2 -18.5 -11.5t-15.5 -36.5l-125 -475q-16 -62 -32 -105t-34 -69.5t-37.5 -38t-43.5 -11.5q-27 0 -42.5 19t-15.5 48q0 22 10.5 37.5t25.5 15.5q12 0 18.5 -6t12 -13t12 -13t17.5 -6q14 0 24.5 17t22.5 49q5 13 11 31.5t11 37.5t8.5 34.5
t3.5 22.5q0 6 -3.5 19t-8.5 29t-11 34t-12 35l-109 323q-5 16 -14 23t-20 10q-12 2 -12 14q0 6 4.5 10.5t10.5 4.5h142q14 0 14 -15q0 -12 -12 -14q-20 -2 -26.5 -10t-6.5 -19q0 -10 2 -18t6 -20l88 -274q2 -4 5.5 -4t4.5 5l77 303q3 12 3 21q0 14 -26 17q-5 0 -8.5 4.5
t-3.5 9.5q0 14 14 14h86q6 0 10.5 -4t4.5 -10v-1z" />
    <glyph glyph-name="z" unicode="z" horiz-adv-x="366" 
d="M311 0h-283q-14 0 -14 14q0 2 0.5 3t0.5 3l214 454q2 5 -1 10t-8 5h-85q-19 0 -33.5 -9t-25 -24.5t-18.5 -36t-14 -44.5q-2 -7 -9 -7q-4 0 -7 3t-2 8l18 128q4 16 19 16h251q14 0 14 -14q0 -2 -0.5 -3t-0.5 -3l-217 -453q-2 -5 1 -10t9 -5h74q33 0 56 14t39 35.5t26 46.5
t15 47q2 8 11 8q5 0 8 -3.5t2 -8.5l-21 -158q-2 -16 -19 -16z" />
    <glyph glyph-name="a" unicode="a" horiz-adv-x="388" 
d="M374 142q0 -28 -1.5 -56t-9 -49.5t-23.5 -35t-44 -13.5q-20 0 -35.5 14t-22.5 46q-2 7 -8 8t-10 -4q-29 -39 -55.5 -51.5t-50.5 -12.5q-39 0 -63.5 32t-24.5 89q0 46 17 79.5t41 56.5q9 9 20 17.5t26.5 18.5t38 23t53.5 29q13 7 13 20v49q0 54 -18.5 79.5t-46.5 25.5
q-26 0 -42.5 -17t-16.5 -40q0 -16 2.5 -24t2.5 -25t-7.5 -32t-30.5 -15q-17 0 -29.5 15t-12.5 38q0 34 15.5 58.5t38 40t47.5 22.5t43 7q35 0 59.5 -13.5t39.5 -38.5q8 -13 12.5 -25t6.5 -26t3 -33t1 -45v-223q0 -40 6 -58t20 -18q8 0 13.5 7.5t9 20t5 28t1.5 30.5q2 8 7 9
q8 0 10 -8zM235 293q0 7 -5.5 10t-11.5 0q-26 -13 -47.5 -28t-37.5 -33.5t-24.5 -42t-8.5 -54.5q0 -46 16.5 -67.5t40.5 -21.5q16 0 30.5 10.5t25 26.5t16.5 35t6 37v128z" />
    <glyph glyph-name="I" unicode="I" horiz-adv-x="338" 
d="M45 14q0 13 13 15q22 2 35.5 7t20.5 16.5t9.5 31.5t2.5 52v499q0 32 -2.5 52t-9.5 31t-20.5 16t-35.5 7q-13 2 -13 14v1q0 14 14 14h220q14 0 14 -14v-1q0 -12 -13 -14q-22 -2 -35.5 -7.5t-21 -17t-10 -31t-2.5 -50.5v-499q0 -30 3 -50t10.5 -32t21 -17.5t34.5 -7.5
q13 -2 13 -15q0 -14 -14 -14h-220q-14 0 -14 14z" />
    <glyph glyph-name="H" unicode="H" horiz-adv-x="642" 
d="M601 741q-22 -2 -35.5 -7.5t-21 -17t-10 -31t-2.5 -50.5v-499q0 -30 3 -50t10.5 -32t21 -17.5t34.5 -7.5q13 -2 13 -15q0 -14 -14 -14h-219q-7 0 -11.5 5t-3.5 12q4 11 14 12q22 2 35 7t20 17t9.5 32t2.5 51v218q0 12 -12 12h-229q-13 0 -13 -12v-218q0 -30 3 -50
t10.5 -32t21 -17.5t34.5 -7.5q13 -2 13 -15q0 -14 -14 -14h-220q-6 0 -10.5 5t-3.5 12q2 10 14 12q22 2 35 7t20 17t9.5 32t2.5 51v499q0 32 -2.5 52t-9.5 31t-20.5 16t-35.5 7q-13 2 -13 14v1q0 14 14 14h220q14 0 14 -14v-1q0 -12 -13 -14q-22 -2 -35.5 -7.5t-21 -17
t-10 -31t-2.5 -50.5v-205q0 -12 13 -12h229q12 0 12 12v205q0 32 -2.5 52t-9.5 31t-20.5 16t-35.5 7q-13 2 -13 14v1q0 6 4.5 10t10.5 4h219q14 0 14 -14v-1q0 -12 -13 -14z" />
    <glyph glyph-name="L" unicode="L" horiz-adv-x="514" 
d="M477 233q6 1 10 -3t4 -10l-15 -200q0 -8 -6.5 -14t-14.5 -6h-415q-6 0 -10.5 4.5t-4.5 10.5q0 12 13 14q20 3 31.5 8.5t18 17.5t8.5 32t2 51v491q0 32 -2 52t-8 32.5t-18 18.5t-32 9q-13 2 -13 14q0 6 4.5 10.5t10.5 4.5h207q6 0 10 -4.5t4 -10.5q0 -12 -13 -14
q-21 -3 -34 -8.5t-19.5 -17.5t-9 -32t-2.5 -51v-534q0 -18 4.5 -29t14.5 -17t26 -7.5t39 -1.5h30q46 0 76 14t49 38.5t29 57t16 69.5q2 11 10 11z" />
    <glyph glyph-name="E" unicode="E" horiz-adv-x="516" 
d="M481 233q12 0 12 -13l-15 -200q0 -8 -6.5 -14t-14.5 -6h-415q-6 0 -10.5 4.5t-4.5 10.5q0 12 13 14q20 3 31.5 8.5t18 17.5t8.5 32t2 51v496q0 30 -2 49.5t-8.5 31.5t-18.5 18t-31 8q-13 2 -13 14q0 6 4.5 10.5t10.5 4.5h390q10 0 17 -6.5t8 -16.5l22 -179q3 -17 -11 -17
q-11 0 -13 10q-13 91 -47.5 128t-99.5 37h-94q-17 0 -23 -7t-6 -35v-214q0 -17 12.5 -29.5t29.5 -12.5h84q26 0 42.5 3t26.5 13.5t15 29.5t9 50q2 9 10 9q10 0 10 -11v-257q0 -10 -10 -10q-8 0 -10 9q-4 34 -9 56.5t-15 35.5t-26.5 18.5t-42.5 5.5h-84q-17 0 -29.5 -12.5
t-12.5 -29.5v-240q0 -18 4.5 -29t14.5 -17t26 -7.5t39 -1.5h30q46 0 76 14t49 38.5t29 57.5t16 70q2 10 12 10z" />
    <glyph glyph-name="F" unicode="F" horiz-adv-x="505" 
d="M479 568q3 -17 -11 -17q-11 0 -13 10q-13 91 -47.5 128t-99.5 37h-94q-18 0 -23 -9.5t-5 -36.5v-210q0 -17 12.5 -29.5t29.5 -12.5h76q26 0 42.5 3t27 13t16 29t8.5 50q0 9 10 9t10 -10v-257q0 -10 -10 -10t-10 9q-3 33 -8 55.5t-15.5 36t-27.5 19t-43 5.5h-76
q-17 0 -29.5 -12.5t-12.5 -29.5v-202q0 -31 2.5 -50.5t9 -31.5t19 -17.5t32.5 -7.5q13 -2 13 -14q0 -6 -4.5 -10.5t-10.5 -4.5h-205q-6 0 -10.5 4.5t-4.5 10.5q0 12 13 14q20 3 31.5 8.5t18.5 18.5t9 35.5t2 57.5v486q0 30 -2 49t-8.5 30.5t-18 17.5t-31.5 9q-13 2 -13 14
q0 6 4.5 10.5t10.5 4.5h389q10 0 17 -6.5t8 -16.5z" />
    <glyph glyph-name="J" unicode="J" horiz-adv-x="316" 
d="M293 770q6 0 10.5 -4t4.5 -10v-1q0 -12 -13 -14q-22 -2 -35.5 -7.5t-21 -17t-10 -31t-2.5 -50.5v-431q0 -119 -36.5 -169.5t-103.5 -50.5q-38 0 -61 21t-23 63q0 23 14 41.5t37 18.5q17 0 24.5 -8t10.5 -20.5t3 -26.5t1 -26.5t4.5 -20.5t13.5 -8q11 0 17 9.5t9 25t4 35
t1 40.5v507q0 32 -2.5 52t-9.5 31t-20.5 16t-35.5 7q-13 2 -13 14v1q0 14 14 14h219z" />
    <glyph glyph-name="K" unicode="K" horiz-adv-x="625" 
d="M600 29q12 -2 12 -15q0 -14 -14 -14h-229q-14 0 -14 14q0 13 13 15q14 1 29 7t15 22q0 20 -32 69.5t-82 121.5l-77 110q-2 4 -6.5 4.5t-7.5 -3.5l-5 -5q-9 -10 -9 -24v-195q0 -30 3 -50t10.5 -32t21 -17.5t34.5 -7.5q13 -2 13 -15q0 -14 -14 -14h-220q-6 0 -10.5 5
t-3.5 12q2 10 14 12q22 2 35 7t20 17t9.5 32t2.5 51v499q0 32 -2.5 52t-9.5 31t-20.5 16t-35.5 7q-13 2 -13 14v1q0 14 14 14h220q14 0 14 -14v-1q0 -12 -13 -14q-22 -2 -35.5 -7.5t-21 -17t-10 -31t-2.5 -50.5v-208q0 -5 5 -7t9 2l135 173q30 40 47.5 67t17.5 49
q0 16 -15.5 22t-27.5 8t-12 14q0 6 4 10.5t10 4.5h187q6 0 10.5 -4.5t4.5 -10.5q0 -12 -13 -14q-19 -3 -33 -8.5t-27 -15.5t-26.5 -25t-30.5 -38l-140 -187q-8 -9 -8 -20.5t6 -21.5l182 -276q23 -35 40 -58t31.5 -36.5t26.5 -19t24 -6.5z" />
    <glyph glyph-name="M" unicode="M" horiz-adv-x="766" 
d="M505 15q0 12 12 14q21 3 33 9.5t19 20t9 35t2 55.5v484q0 5 -4 5.5t-6 -4.5l-201 -628q-1 -6 -8 -6q-6 0 -8 6l-198 603q-2 4 -6 3.5t-4 -5.5v-426q0 -45 2.5 -73t9.5 -45t20 -24t33 -10q12 -2 12 -14q0 -6 -4 -10.5t-10 -4.5h-166q-6 0 -10.5 4.5t-4.5 10.5q0 12 13 14
q22 3 35 10t20.5 23.5t10 44.5t2.5 74v452q0 31 -2.5 50.5t-9.5 31.5t-20 17.5t-35 8.5q-12 2 -12 14v1q0 14 14 14h125q11 0 20.5 -7t13.5 -18l180 -544q1 -4 4.5 -4t5.5 4l171 544q4 11 13.5 18t21.5 7h125q14 0 14 -14t-13 -14q-18 -2 -29.5 -8t-18 -18t-9 -32t-2.5 -50
v-498q0 -29 2.5 -48t9.5 -31t18.5 -18.5t30.5 -9.5q12 -2 12 -14q0 -6 -4 -10.5t-10 -4.5h-205q-6 0 -10 4.5t-4 10.5z" />
    <glyph glyph-name="A" unicode="A" horiz-adv-x="583" 
d="M569 29q12 -2 12 -14q0 -6 -4.5 -10.5t-10.5 -4.5h-184q-7 0 -11 5t-3 12q2 10 13 12q18 2 31 9.5t13 22.5q0 13 -3.5 34.5t-11.5 46.5l-33 104q-2 5 -8 5h-206q-6 0 -8 -6l-37 -126q-3 -11 -5 -24.5t-2 -24.5q0 -24 11 -32t34 -10q5 0 9.5 -4.5t3.5 -10.5q0 -5 -4.5 -9
t-9.5 -4h-137q-8 0 -12 5.5t-2 13.5t12 10q14 3 24 12t19.5 29t20.5 55.5t28 90.5l171 563q2 9 11 7q6 -2 8 -7l204 -650q8 -25 14 -43t13.5 -30t16.5 -18t23 -9zM353 299q4 0 6.5 3t0.5 7l-82 272q-1 8 -11 8q-8 0 -11 -8l-82 -272q-2 -4 0.5 -7t7.5 -3h171z" />
    <glyph glyph-name="O" unicode="O" 
d="M298 -16q-61 0 -111 29.5t-86 82.5t-56 127.5t-20 165.5q0 89 20 162t56 125t86 81t111 29q62 0 112 -30.5t86 -84t55.5 -127t19.5 -159.5q0 -90 -20 -163.5t-56 -126.5t-86.5 -82t-110.5 -29zM298 744q-38 0 -66 -19t-48 -50t-32 -70t-19 -79t-9.5 -77t-2.5 -63
q0 -27 2.5 -64.5t9 -77.5t18.5 -79t32 -70t48.5 -50t67.5 -19q40 0 69 19.5t48.5 51t31.5 71t18 80t8 78.5t2 66q0 26 -3 62.5t-10 75.5t-19.5 77.5t-32.5 68.5t-48 49t-65 19z" />
    <glyph glyph-name="Q" unicode="Q" 
d="M479 -202q33 0 58 25q6 6 11 1q4 -2 5 -6t-2 -7q-12 -18 -39.5 -33t-65.5 -15q-121 0 -148 111q-6 25 -10 44t-9 32.5t-13 23t-21 16.5q-49 12 -90 45.5t-69.5 85.5t-44.5 119.5t-16 148.5q0 89 20 162t56 125t86 81t111 29q62 0 112 -30.5t86 -84t55.5 -127t19.5 -159.5
q0 -80 -16 -147.5t-45 -119t-70 -84.5t-91 -45q-4 -1 -4.5 -4t2.5 -5q25 -13 35 -38t15 -44q9 -44 28 -72t54 -28zM121 386q0 -27 2.5 -64.5t9 -77.5t18.5 -79t32 -70t48.5 -50t67.5 -19q40 0 69 19.5t48.5 51t31.5 71t18 80t8 78.5t2 66q0 26 -3 62.5t-10 75.5t-19.5 77.5
t-32.5 68.5t-48 49t-65 19q-38 0 -66 -19t-48 -50t-32 -70t-19 -79t-9.5 -77t-2.5 -63z" />
    <glyph glyph-name="C" unicode="C" horiz-adv-x="555" 
d="M527 138q5 -7 1 -14q-37 -69 -94.5 -104.5t-129.5 -35.5q-57 0 -108.5 26.5t-88.5 76.5q-38 53 -59 128.5t-21 162.5q0 88 20 159.5t55 127.5q41 63 92.5 92t110.5 29t99 -9.5t75 -25.5q14 -6 22 -18.5t8 -27.5l12 -172q0 -11 -10 -11q-8 0 -10 9q-9 41 -22.5 78.5
t-34 66.5t-50 46.5t-70.5 17.5q-50 0 -87.5 -25.5t-62.5 -71t-37.5 -108.5t-12.5 -138q0 -97 15.5 -165t44.5 -113q28 -42 66.5 -63t82.5 -21q26 0 48.5 6t42.5 18.5t40 32.5t41 47q5 5 11.5 5t10.5 -6z" />
    <glyph glyph-name="G" unicode="G" horiz-adv-x="584" 
d="M568 412q14 0 14 -15q0 -12 -11 -14t-18.5 -7t-11.5 -15.5t-5.5 -27t-1.5 -42.5v-207q0 -20 -10.5 -37.5t-29.5 -26.5q-35 -17 -79 -26.5t-93 -9.5q-64 0 -123.5 32t-101.5 92q-71 102 -72 269q0 88 20 160t56 128q40 63 92 92t110 29q59 0 99 -9.5t75 -25.5
q28 -13 30 -46l13 -172q0 -11 -11 -11q-8 0 -10 9q-9 41 -22.5 78.5t-34 66.5t-49.5 46.5t-70 17.5q-50 0 -88 -28.5t-63 -77.5t-37.5 -115t-12.5 -142q0 -81 16 -145.5t45 -109t69.5 -68.5t89.5 -24q48 0 79.5 21t31.5 50v176q0 32 -5.5 51.5t-17 31t-29 16t-42.5 7.5
q-6 1 -10 5.5t-3 10.5q2 13 15 13h207z" />
    <glyph glyph-name="D" unicode="D" horiz-adv-x="610" 
d="M251 770q88 0 151 -29.5t103.5 -81t60 -121t19.5 -150.5q0 -78 -18.5 -148.5t-58 -124t-100.5 -84.5t-147 -31h-220q-6 0 -10.5 4.5t-4.5 10.5q0 12 13 14q20 3 32 8.5t18.5 17.5t8.5 32.5t2 52.5v494q0 32 -2 51.5t-9 31t-18.5 16.5t-31.5 8q-13 2 -13 14q0 6 4.5 10.5
t10.5 4.5h210zM185 98q0 -31 7.5 -43t32.5 -12q79 0 131 26t82.5 71.5t43 107.5t12.5 134q0 65 -13.5 127t-44.5 110.5t-81.5 78t-125.5 29.5q-24 0 -34 -10t-10 -39v-580z" />
    <glyph glyph-name="B" unicode="B" horiz-adv-x="530" 
d="M505 207q0 -97 -54.5 -152t-145.5 -55h-264q-6 0 -10.5 5t-3.5 12q2 10 14 12q20 1 33 6t20.5 16t10 30.5t2.5 49.5v503q0 32 -2.5 52t-10 31.5t-20.5 16.5t-34 7q-13 2 -13 14v1q0 14 14 14h217q109 0 163.5 -50.5t54.5 -143.5q0 -39 -11.5 -67.5t-28.5 -49t-36.5 -32.5
t-34.5 -17q-3 -1 -3 -5t4 -4q72 -18 105.5 -70t33.5 -124zM192 482q0 -29 16 -46t58 -17q65 0 95 41t30 106q0 75 -39 118t-114 43h-10q-13 0 -20.5 -5t-11 -12t-4 -14t-0.5 -12v-202zM377 95q32 40 32 118q0 31 -8.5 62t-25 55.5t-42 39.5t-59.5 15q-35 0 -58.5 -18.5
t-23.5 -59.5v-211q0 -29 8 -41t28 -12h12q48 0 79.5 10t57.5 42z" />
    <glyph glyph-name="V" unicode="V" horiz-adv-x="580" 
d="M574 755q0 -12 -12 -14q-19 -3 -34 -23t-31 -76l-185 -653q0 -5 -6 -5q-5 0 -7 5l-203 625q-12 38 -21 62t-18 38t-18 20t-21 7q-12 2 -12 15q0 14 14 14h192q6 0 10.5 -4.5t4.5 -10.5q0 -12 -12 -14q-7 -1 -15.5 -3.5t-16 -6.5t-12.5 -10t-5 -15q0 -7 1.5 -15.5t5 -22.5
t10 -34t15.5 -49l119 -373q2 -5 7.5 -5t7.5 5l116 405q8 26 12 47t4 36q0 23 -13.5 30.5t-33.5 10.5q-13 2 -13 14q0 15 14 15h142q14 0 14 -15z" />
    <glyph glyph-name="N" unicode="N" horiz-adv-x="630" 
d="M606 755q0 -12 -11 -15q-16 -4 -28.5 -11.5t-21.5 -23t-13.5 -42.5t-4.5 -71v-598q0 -10 -10 -10q-6 0 -8 5l-355 618q-2 4 -6 3t-4 -6v-424q0 -42 3 -69t10.5 -43.5t20.5 -24.5t34 -13q12 -2 12 -15q0 -6 -4.5 -10.5t-10.5 -4.5h-168q-6 0 -10.5 4.5t-4.5 10.5
q0 13 12 15q22 4 35.5 11.5t21 24t10 44t2.5 70.5v482q0 31 -18 54.5t-50 25.5q-5 0 -9 4.5t-4 9.5q0 14 14 14h107q21 0 31 -18l302 -525q2 -4 6 -3t4 6v376q0 37 -4 61t-12 39t-21.5 22.5t-32.5 11.5q-12 3 -12 15q0 6 4.5 10.5t11.5 4.5h167q7 0 11 -4.5t4 -10.5z" />
    <glyph glyph-name="P" unicode="P" horiz-adv-x="487" 
d="M241 770q104 0 163.5 -54t59.5 -158q0 -46 -12 -84.5t-35 -67.5q-18 -23 -36 -37t-38.5 -21.5t-46 -10t-58.5 -2.5q-13 0 -23 0.5t-21 1.5q-5 1 -9.5 -3t-4.5 -9v-189q0 -31 2.5 -50.5t9.5 -31.5t20 -17.5t34 -7.5q13 -2 13 -14q0 -6 -4.5 -10.5t-10.5 -4.5h-204
q-6 0 -10.5 4.5t-4.5 10.5q0 12 13 14q20 3 31.5 9t17 18.5t7 34.5t1.5 57v487q0 30 -2 49t-8 30.5t-17 17t-30 8.5q-13 3 -13 15q0 6 4.5 10.5t10.5 4.5h201zM180 427q0 -23 15 -34t36 -11q69 0 105.5 46t36.5 124q0 96 -39 135.5t-124 39.5q-19 0 -24.5 -9.5t-5.5 -32.5
v-258z" />
    <glyph glyph-name="R" unicode="R" horiz-adv-x="554" 
d="M533 50q12 -5 7 -16q-3 -7 -8.5 -15.5t-15 -16t-22.5 -13t-31 -5.5q-121 0 -121 181q0 38 -6.5 71.5t-19 58.5t-32 40t-45.5 15h-23t-22 2q-13 0 -13 -13v-203q0 -31 2.5 -50.5t9 -31.5t19.5 -17.5t34 -7.5q6 -1 10 -5.5t3 -10.5q0 -6 -4.5 -9.5t-10.5 -3.5h-204
q-6 0 -10 4.5t-4 10.5q0 12 12 14q20 3 31.5 9t17.5 20t7.5 39t1.5 65v488q0 24 -2 40.5t-8 26.5t-17.5 15t-30.5 8q-14 3 -12 17q2 13 15 13h201q103 0 164.5 -50.5t61.5 -153.5q0 -78 -29.5 -126t-85.5 -71q-5 -2 -5.5 -7.5t4.5 -7.5q38 -23 56.5 -68t18.5 -99
q0 -31 1.5 -60t7 -51t17 -35t32.5 -13q7 0 16 4t17 14q2 4 6.5 5t8.5 -1zM377 560q0 48 -10 80t-30.5 51.5t-52 27.5t-74.5 8q-18 0 -23.5 -9.5t-5.5 -32.5v-244q0 -18 13 -31t31 -14q79 0 115.5 44t36.5 120z" />
    <glyph glyph-name="S" unicode="S" horiz-adv-x="424" 
d="M370 539q-9 0 -11 8q-6 30 -16 63.5t-27.5 62t-44.5 47.5t-66 19q-38 0 -61 -31.5t-23 -79.5q0 -30 11 -54.5t31 -48t47.5 -46.5t60.5 -50q66 -54 97.5 -107.5t31.5 -120.5q0 -49 -14.5 -89t-39 -68.5t-57 -44t-68.5 -15.5q-53 0 -93.5 10.5t-80.5 45.5q-16 13 -18 36
l-3 145q0 11 10 11q8 0 10 -8q26 -105 69 -151.5t101 -46.5q45 0 72.5 36t27.5 94q0 39 -15 71t-38.5 59.5t-53 51.5t-58.5 45q-57 42 -79.5 94t-22.5 106q0 96 42.5 149.5t115.5 53.5q38 0 67 -8.5t59 -21.5q17 -8 27 -22.5t12 -33.5l9 -150q0 -11 -11 -11z" />
    <glyph glyph-name="T" unicode="T" horiz-adv-x="515" 
d="M454 770q10 0 17 -6.5t9 -16.5l22 -179q2 -17 -12 -17q-11 0 -13 10q-12 91 -46.5 128.5t-100.5 37.5h-10q-11 0 -19 -8t-8 -19v-565q0 -31 2.5 -50.5t10 -31t20.5 -17t34 -7.5q6 -1 10 -5.5t3 -10.5q0 -6 -4.5 -9.5t-10.5 -3.5h-214q-6 0 -10 4.5t-4 10.5q0 12 13 14
q21 3 34 8.5t20 18t9 35t2 58.5v551q0 11 -8 19t-19 8h-23q-32 0 -50.5 -9t-29 -29t-16 -52t-11.5 -77q0 -7 -8 -9q-13 -2 -13 11l-12 180q-1 11 7 19.5t19 8.5h410z" />
    <glyph glyph-name="U" unicode="U" horiz-adv-x="627" 
d="M605 755q0 -12 -13 -15q-22 -4 -35 -12.5t-20 -25t-9 -42.5t-2 -65v-291q0 -42 -1.5 -76t-6.5 -62t-14 -51.5t-23 -45.5q-53 -85 -169 -85q-67 0 -108.5 26.5t-63.5 70t-29.5 98.5t-7.5 111v355q0 27 -2 44.5t-8.5 28t-19 15.5t-32.5 8q-13 2 -13 14q0 6 4 10.5t11 4.5
h206q6 0 10.5 -4.5t4.5 -10.5q0 -12 -12 -14q-21 -3 -33.5 -9t-19.5 -18t-9 -31.5t-2 -49.5v-357q0 -34 1 -61.5t5 -50t11 -41.5t20 -36q18 -24 44.5 -38t62.5 -14q40 0 73.5 18.5t53.5 50.5q10 17 16 35.5t9 40t4 49t1 62.5v300q0 42 -2.5 69.5t-9 44.5t-19.5 25t-34 11
q-13 2 -13 14q0 6 4.5 10.5t10.5 4.5h164q6 0 10.5 -4.5t4.5 -10.5z" />
    <glyph glyph-name="W" unicode="W" horiz-adv-x="785" 
d="M780 755q0 -12 -13 -14t-21.5 -6.5t-14.5 -12.5t-10.5 -21.5t-10.5 -33.5q-22 -85 -38.5 -147.5t-30 -113t-24 -94t-22 -90.5t-25 -102.5t-30.5 -130.5q0 -5 -6 -5q-5 0 -7 5q-30 116 -62 234t-63 229q-2 5 -7.5 5t-7.5 -6l-121 -462q-2 -5 -7 -5q-6 0 -6 5
q-38 157 -81 315t-79 304q-9 38 -17.5 62.5t-17 39.5t-18 22t-22.5 9q-12 2 -12 15q0 14 14 14h175q14 0 14 -15q0 -12 -12 -14q-49 -9 -32 -84l113 -409q2 -6 7.5 -6t7.5 6l75 283q5 19 -1 36l-18 69q-9 35 -16.5 55.5t-15 31.5t-17 14.5t-23.5 4.5q-13 0 -13 14t14 14h193
q14 0 14 -14q0 -13 -13 -15q-51 -5 -51 -39q0 -10 4 -25.5t10 -36.5l112 -396q2 -6 7.5 -6t7.5 6l97 367q15 54 15 89q0 21 -10.5 30.5t-35.5 11.5q-13 0 -13 14q0 6 4.5 10t9.5 4h136q6 0 10.5 -4t4.5 -10v-1z" />
    <glyph glyph-name="X" unicode="X" horiz-adv-x="630" 
d="M358 15q0 12 13 14q7 1 15.5 2.5t16.5 5.5t13.5 9.5t5.5 14.5q0 14 -10.5 40t-32.5 71l-72 150q-2 5 -7.5 5t-7.5 -5l-91 -159q-23 -41 -34 -65.5t-11 -38.5q0 -12 11 -19.5t40 -10.5q13 -2 13 -14q0 -6 -4.5 -10.5t-10.5 -4.5h-164q-6 0 -10.5 4.5t-4.5 10.5q0 12 12 15
q13 2 23.5 7.5t22.5 19t26.5 37t36.5 61.5l118 205q13 21 1 44l-77 158q-28 57 -47 90.5t-34 52t-29 25.5t-31 10q-12 2 -12 15q0 6 4.5 10.5t10.5 4.5h222q14 0 14 -14t-13 -14q-7 0 -15.5 -1.5t-16 -5t-12.5 -9t-5 -13.5q0 -25 18 -63t51 -106l30 -60q2 -5 7 -5t8 5
l85 149q19 32 26.5 48t7.5 30q0 12 -10.5 20.5t-33.5 10.5q-13 0 -13 14t14 14h169q6 0 10.5 -4.5t4.5 -10.5q0 -12 -13 -14q-16 -2 -29.5 -7.5t-26 -17.5t-26.5 -32t-32 -51l-107 -184q-13 -22 -1 -45l149 -296q11 -22 20 -36t18 -22.5t19 -12.5t23 -7q12 -2 12 -15
q0 -6 -4 -10.5t-11 -4.5h-217q-6 0 -10.5 4.5t-4.5 10.5z" />
    <glyph glyph-name="Y" unicode="Y" horiz-adv-x="579" 
d="M574 755q0 -12 -13 -14q-16 -2 -28 -9t-23 -21t-23.5 -36.5t-28.5 -56.5l-115 -247q-8 -19 -8 -39v-197q0 -32 3 -52t11.5 -31t22.5 -16t36 -7q13 -2 13 -14q0 -6 -4.5 -10.5t-10.5 -4.5h-226q-6 0 -10.5 4.5t-4.5 10.5q0 12 13 14q24 3 38 8.5t21.5 18t10 35t2.5 58.5
v172q0 11 -2.5 20.5t-7.5 19.5l-100 204q-26 53 -43.5 86t-31 52.5t-25 27.5t-23.5 10t-12 14q0 6 4.5 10.5t10.5 4.5h204q14 0 14 -14t-13 -14q-14 -1 -30 -6t-16 -20q0 -5 2 -19t18 -46l109 -230q2 -5 7.5 -5t7.5 5l114 242q6 13 8.5 26t2.5 23q0 14 -9 20.5t-34 8.5
q-13 2 -13 15q0 14 14 14h153q6 0 10.5 -4.5t4.5 -10.5z" />
    <glyph glyph-name="Z" unicode="Z" horiz-adv-x="542" 
d="M470 0h-431q-14 0 -14 14q0 3 2 7l353 685q3 7 -0.5 13.5t-11.5 6.5h-157q-44 0 -71 -11t-42.5 -32t-21.5 -51.5t-9 -69.5q0 -11 -11 -11q-10 0 -12 11l-12 181q-1 11 7 19t19 8h427q14 0 14 -14q0 -5 -1 -7l-350 -685q-3 -7 0.5 -13.5t11.5 -6.5h189q35 0 58.5 8.5
t39.5 24.5q20 19 29 52t20 81q2 9 11 9q12 0 12 -13l-23 -183q-1 -10 -8 -16.5t-18 -6.5z" />
    <glyph glyph-name="dotaccent" unicode="&#x2d9;" horiz-adv-x="164" 
d="M128 743q0 -21 -13 -35.5t-33 -14.5t-33 14.5t-13 35.5t13 35.5t33 14.5t33 -14.5t13 -35.5z" />
    <glyph glyph-name="dieresis" unicode="&#xa8;" horiz-adv-x="289" 
d="M65 753q17 0 29 -13t12 -31t-12 -31t-29 -13t-28.5 13t-11.5 31t11.5 31t28.5 13zM225 753q17 0 28.5 -13t11.5 -31t-11.5 -31t-28.5 -13t-28.5 13t-11.5 31t11.5 31t28.5 13z" />
    <glyph glyph-name="period" unicode="." horiz-adv-x="213" 
d="M153 40q0 -20 -13.5 -35t-32.5 -15q-20 0 -33.5 15t-13.5 35q0 21 13.5 36t33.5 15q19 0 32.5 -15t13.5 -36z" />
    <glyph glyph-name="colon" unicode=":" horiz-adv-x="203" 
d="M148 415q0 -21 -13.5 -35.5t-32.5 -14.5q-20 0 -33.5 14.5t-13.5 35.5t13.5 35.5t33.5 14.5q19 0 32.5 -14.5t13.5 -35.5zM148 40q0 -20 -13.5 -35t-32.5 -15q-20 0 -33.5 15t-13.5 35q0 21 13.5 36t33.5 15q19 0 32.5 -15t13.5 -36z" />
    <glyph glyph-name="semicolon" unicode=";" horiz-adv-x="213" 
d="M148 415q0 -21 -13.5 -36t-32.5 -15q-20 0 -33.5 15t-13.5 36t13.5 35.5t33.5 14.5q19 0 32.5 -14.5t13.5 -35.5zM65 -160q-3 7 2 12q19 14 36 36t17 54q0 13 -10 20.5t-22.5 16.5t-22.5 22.5t-10 36.5q0 28 13 40.5t34 12.5q26 0 40.5 -24t14.5 -66q0 -47 -17 -89.5
t-62 -74.5q-8 -6 -13 3z" />
    <glyph glyph-name="acute" unicode="&#xb4;" horiz-adv-x="243" 
d="M45 649q-13 -9 -19 5q-6 12 8 25l120 130q5 8 14.5 13.5t19.5 5.5q15 0 24 -12q8 -13 8 -26q0 -15 -6 -27q-5 -11 -20 -20z" />
    <glyph glyph-name="grave" unicode="`" horiz-adv-x="244" 
d="M51 743q-16 11 -21 21q-5 12 -5 26q0 13 8 26q9 12 24 12q11 0 18 -4q4 -2 7.5 -5.5l8.5 -8.5l120 -131q14 -13 8 -25q-5 -12 -20 -5z" />
    <glyph glyph-name="hungarumlaut" unicode="&#x2dd;" horiz-adv-x="294" 
d="M175 653q-11 -11 -19 -5q-7 7 -1 27l44 111q7 21 17 32q10 10 22 10q15 0 22.5 -11t7.5 -25q0 -27 -23 -55zM49 653q-10 -11 -18 -5q-7 7 -1 27l44 111q7 21 17 32q10 10 22 10q14 0 22 -11t8 -25q0 -27 -23 -55z" />
    <glyph glyph-name="circumflex" unicode="&#x2c6;" horiz-adv-x="311" 
d="M280 675q9 -13 3 -23q-6 -11 -17 -1l-112 105l-111 -106q-9 -9 -16 2q-6 11 2 23l97 141q9 13 21 13h16q11 0 20 -13z" />
    <glyph glyph-name="caron" unicode="&#x2c7;" horiz-adv-x="312" 
d="M148 646q-12 0 -21 13l-97 142q-8 11 -3 22q7 10 17 2l111 -106l112 105q11 10 17 -1q6 -10 -3 -22l-97 -142q-9 -13 -20 -13h-16z" />
    <glyph glyph-name="periodcentered" unicode="&#xb7;" horiz-adv-x="193" 
d="M143 275q0 -21 -13.5 -36t-32.5 -15q-20 0 -33.5 15t-13.5 36q0 20 13.5 35t33.5 15q19 0 32.5 -15t13.5 -35z" />
    <glyph glyph-name="uni2219" unicode="&#x2219;" horiz-adv-x="216" 
d="M155 275q0 -21 -13.5 -36t-32.5 -15q-20 0 -33.5 15t-13.5 36q0 20 13.5 35t33.5 15q19 0 32.5 -15t13.5 -35z" />
    <glyph glyph-name="tilde" unicode="&#x2dc;" horiz-adv-x="313" 
d="M284 786q10 0 8 -10q-13 -61 -32.5 -87t-52.5 -26q-16 0 -29 5t-39 23l-19 12q-21 13 -34 13q-23 0 -33 -11.5t-17 -35.5q-1 -6 -7 -6q-10 0 -8 9q10 53 31 80.5t51 27.5q28 0 59 -21l20 -14q23 -17 44 -17q14 0 28.5 10t22.5 42q2 6 7 6z" />
    <glyph glyph-name="asciitilde" unicode="~" horiz-adv-x="494" 
d="M461 431q5 0 8 -3t2 -8q-1 -36 -9.5 -64t-22 -46.5t-30.5 -28t-36 -9.5q-14 0 -25 3t-22 9t-23.5 15.5t-30.5 22.5q-11 8 -33 18.5t-48 10.5q-10 0 -20.5 -3t-19 -11t-14.5 -23t-7 -38q-2 -10 -11 -10q-11 0 -11 11q1 30 6 56.5t15.5 47t27 32.5t39.5 12q10 0 18.5 -1.5
t19 -5.5t24.5 -12l35 -20q6 -4 15.5 -10.5t20.5 -13t22.5 -11.5t21.5 -5q33 0 54 18t23 57q2 10 11 10z" />
    <glyph glyph-name="breve" unicode="&#x2d8;" horiz-adv-x="291" 
d="M146 646q-29 0 -50 15t-35.5 38.5t-22.5 50.5t-11 51q-3 21 8 21q9 0 12 -14q8 -41 31 -68.5t68 -27.5t68 27.5t31 68.5q3 14 12 14q11 0 8 -21q-3 -24 -11 -51t-22 -50.5t-35.5 -38.5t-50.5 -15z" />
    <glyph glyph-name="ellipsis" unicode="&#x2026;" horiz-adv-x="769" 
d="M153 40q0 -20 -13.5 -35t-33.5 -15q-19 0 -32.5 15t-13.5 35q0 21 13.5 36t32.5 15q20 0 33.5 -15t13.5 -36zM431 40q0 -20 -13.5 -35t-33.5 -15q-19 0 -32.5 15t-13.5 35q0 21 13.5 36t32.5 15q20 0 33.5 -15t13.5 -36zM709 40q0 -20 -13.5 -35t-33.5 -15
q-19 0 -32.5 15t-13.5 35q0 21 13.5 36t32.5 15q20 0 33.5 -15t13.5 -36z" />
    <glyph glyph-name="ring" unicode="&#x2da;" horiz-adv-x="231" 
d="M118 570q-24 0 -41 12t-28 31t-16 41t-5 41q0 20 5.5 41.5t16.5 40.5t28 31t40 12t40 -12t28 -31t16 -40.5t5 -41.5q0 -19 -5 -41t-16 -41t-27.5 -31t-40.5 -12zM118 601q18 0 30 9.5t19.5 23.5t11 30.5t3.5 30.5t-3.5 30.5t-11 30.5t-20 23t-29.5 9q-18 0 -30 -9
t-20 -23t-11.5 -30.5t-3.5 -30.5t3.5 -30.5t11.5 -30.5t20 -23.5t30 -9.5z" />
    <glyph glyph-name="macron" unicode="&#xaf;" horiz-adv-x="290" 
d="M41 703v35q0 14 14 14h180q14 0 14 -14v-35q0 -5 -4 -9.5t-10 -4.5h-180q-6 0 -10 4.5t-4 9.5z" />
    <glyph glyph-name="asciicircum" unicode="^" horiz-adv-x="364" 
d="M353 376q2 -5 -1.5 -9.5t-9.5 -4.5q-5 0 -9 7l-141 272q-3 7 -10 7t-10 -7l-141 -273q-3 -8 -13 -6q-11 4 -7 15l140 392q5 17 24 17h14q17 0 24 -17z" />
    <glyph glyph-name="cedilla" unicode="&#xb8;" horiz-adv-x="226" 
d="M112 -52q-1 -4 1.5 -7t6.5 -2q3 1 11 1q34 0 52.5 -21t18.5 -59q0 -46 -28 -72t-76 -26q-32 0 -52.5 15.5t-20.5 41.5q0 6 0.5 13t3 13t8 10.5t15.5 4.5q15 0 19.5 -11t7 -24.5t5.5 -24.5t14 -11q21 0 31.5 20.5t10.5 44.5q0 23 -10.5 33.5t-28.5 10.5q-6 0 -11.5 -2
t-10.5 -4q-5 -4 -9 2q-4 4 -2 7l33 111h29z" />
    <glyph glyph-name="ogonek" unicode="&#x2db;" horiz-adv-x="213" 
d="M174 -137q5 -1 8 -4.5t1 -8.5q-4 -21 -14 -38.5t-22 -29.5t-26 -19t-27 -7q-27 0 -48 17t-21 59t36.5 85t115.5 94h19q-12 -10 -32.5 -27t-41 -38t-35.5 -45t-15 -49q0 -14 9.5 -22.5t25.5 -8.5q12 0 29 7.5t29 29.5q2 5 9 5z" />
    <glyph glyph-name="comma" unicode="," horiz-adv-x="189" 
d="M54 -160q-5 7 2 12q18 14 35 36t17 54q0 13 -10 20.5l-22 16.5t-22 22.5t-10 36.5q0 28 13 40t34 12q26 0 40.5 -23.5t14.5 -65.5q0 -48 -17 -90t-62 -74q-8 -6 -13 3z" />
    <glyph glyph-name="uniF6C3" unicode="&#xf6c3;" horiz-adv-x="162" 
d="M40 -315q-6 7 2 13q18 14 35 35.5t17 53.5q0 13 -10 21t-22 17t-22 22t-10 36q0 28 13 40.5t34 12.5q26 0 40.5 -24t14.5 -66q0 -47 -17 -89t-62 -74q-7 -6 -13 2z" />
    <glyph glyph-name="quoteright" unicode="&#x2019;" horiz-adv-x="171" 
d="M45 536q-5 7 2 12q18 14 35 36t17 54q0 13 -10 21t-22 17t-22 22t-10 36q0 28 13 40.5t34 12.5q26 0 40.5 -24t14.5 -66q0 -47 -17 -89.5t-62 -74.5q-8 -6 -13 3z" />
    <glyph glyph-name="quoteleft" unicode="&#x2018;" horiz-adv-x="168" 
d="M127 842q5 -7 -2 -12q-18 -14 -35 -36t-17 -54q0 -13 10 -20.5l22 -16.5t22 -22.5t10 -36.5q0 -28 -13 -40.5t-34 -12.5q-26 0 -40.5 24t-14.5 66q0 47 17 89t62 74q3 3 7 2t6 -4z" />
    <glyph glyph-name="quotesinglbase" unicode="&#x201a;" horiz-adv-x="196" 
d="M56 -145q-6 7 2 13q18 14 35 35.5t17 53.5q0 13 -10 21t-22 17t-22 22t-10 36q0 28 13 40.5t34 12.5q26 0 40.5 -23.5t14.5 -66.5q0 -47 -17 -89t-62 -74q-7 -6 -13 2z" />
    <glyph glyph-name="quotedblright" unicode="&#x201d;" horiz-adv-x="328" 
d="M202 535q-4 7 3 12q18 14 35 36t17 54q0 13 -10 21t-22.5 17t-22.5 22t-10 36q0 28 13.5 40.5t34.5 12.5q26 0 40.5 -24t14.5 -66q0 -47 -17 -89t-62 -74q-8 -6 -14 2zM44 535q-5 7 2 12q18 14 35 36t17 54q0 13 -10 21t-22 17t-22 22t-10 36q0 28 13 40.5t34 12.5
q26 0 40.5 -24t14.5 -66q0 -47 -17 -89t-62 -74q-3 -3 -7 -2t-6 4z" />
    <glyph glyph-name="quotedblleft" unicode="&#x201c;" horiz-adv-x="326" 
d="M125 842q5 -7 -2 -12q-18 -14 -35 -36t-17 -54q0 -13 10 -20.5l22 -16.5t22 -22.5t10 -36.5q0 -28 -13 -40.5t-34 -12.5q-26 0 -40.5 24t-14.5 66q0 47 17 89t62 74q7 6 13 -2zM284 842q5 -7 -2 -12q-18 -14 -35.5 -36t-17.5 -54q0 -13 10 -20.5t22.5 -16.5t22.5 -22.5
t10 -36.5q0 -28 -13 -40.5t-34 -12.5q-26 0 -40.5 24t-14.5 66q0 47 17 89t62 74q7 6 13 -2z" />
    <glyph glyph-name="quotedblbase" unicode="&#x201e;" horiz-adv-x="343" 
d="M213 -145q-6 7 2 13q18 14 35 35.5t17 53.5q0 13 -10 21t-22 17t-22 22t-10 36q0 28 13 40.5t34 12.5q26 0 40.5 -23.5t14.5 -66.5q0 -47 -17 -89t-62 -74q-7 -6 -13 2zM54 -145q-6 7 2 13q18 14 35 35.5t17 53.5q0 13 -10 21t-22 17t-22 22t-10 36q0 28 13 40.5t34 12.5
q26 0 40.5 -23.5t14.5 -66.5q0 -47 -17 -89t-62 -74q-7 -6 -13 2z" />
    <glyph glyph-name="quotesingle" unicode="'" horiz-adv-x="145" 
d="M72 501q-8 0 -10 9q-11 83 -18 143.5t-7 84.5q0 22 10 35t25 13q17 0 26 -13t9 -33q0 -26 -6.5 -85.5t-18.5 -144.5q-2 -9 -10 -9z" />
    <glyph glyph-name="quotedbl" unicode="&#x22;" horiz-adv-x="291" 
d="M75 502q-10 0 -10 9q-6 41 -10.5 79t-8 68t-5.5 51t-2 28q0 23 10 36.5t26 13.5q15 0 25 -13.5t10 -34.5q0 -26 -6.5 -87t-18.5 -142q-2 -8 -10 -8zM216 502q-10 0 -10 8q-6 42 -10.5 79.5t-8 68t-5.5 51.5t-2 28q0 22 10 36t26 14q15 0 25 -14t10 -34q0 -26 -8 -86
t-18 -142q0 -9 -9 -9z" />
    <glyph glyph-name="zero" unicode="0" horiz-adv-x="464" 
d="M234 -16q-53 0 -89 36.5t-58 95t-31.5 131t-9.5 144.5q0 77 11 148.5t34.5 126.5t59.5 87.5t87 32.5q41 0 75 -29.5t58.5 -82.5t38 -127t13.5 -163q0 -75 -10.5 -147t-33 -128t-58.5 -90.5t-87 -34.5zM233 756q-52 0 -79.5 -98t-27.5 -275q0 -178 27 -273.5t81 -95.5
q27 0 47 24.5t34 71t21 114.5t7 154q0 183 -27.5 280.5t-82.5 97.5z" />
    <glyph glyph-name="one" unicode="1" horiz-adv-x="299" 
d="M260 29q12 -2 12 -14q0 -6 -4 -10.5t-10 -4.5h-201q-6 0 -10.5 4.5t-4.5 10.5q0 12 12 15q32 5 49.5 24t17.5 63v546q0 17 -6.5 25.5t-16 12.5t-21 5.5t-21.5 3.5q-13 2 -13 15t14 15t45 11t73 34q2 1 6 1q12 0 12 -12v-662q0 -45 17.5 -61.5t49.5 -21.5z" />
    <glyph glyph-name="two" unicode="2" horiz-adv-x="404" 
d="M369 219q13 0 11 -13l-22 -183q-1 -10 -8.5 -16.5t-17.5 -6.5h-293q-11 0 -11 11q0 2 2 6l147 217q29 43 49.5 81.5t33.5 75.5t19 72.5t6 72.5q0 80 -31 122t-85 42q-22 0 -38.5 -7t-30.5 -23.5t-26.5 -43.5t-24.5 -67q-2 -11 -12 -7q-9 3 -7 11q7 50 21 91t35 70
t50 45.5t67 16.5q35 0 63.5 -15.5t48.5 -43t31 -65t11 -80.5q0 -69 -25.5 -138t-81.5 -151l-122 -182q-5 -8 -1 -15.5t12 -7.5h72q38 0 63 5t40.5 18.5t25.5 37.5t18 61q2 9 11 9z" />
    <glyph glyph-name="three" unicode="3" horiz-adv-x="399" 
d="M237 464q39 0 65 -19.5t42.5 -49t23.5 -64t7 -66.5q0 -39 -14.5 -87.5t-45 -91t-79.5 -72t-118 -29.5q-46 0 -69.5 17t-23.5 49q0 19 10 30.5t24 11.5q11 0 22.5 -6.5t28.5 -23.5q23 -23 38.5 -29.5t33.5 -6.5q23 0 45.5 14.5t40 39.5t28.5 59t11 72q0 41 -5.5 77.5
t-18.5 64.5t-34 44t-52 16q-17 0 -32.5 -8.5t-28.5 -17.5q-5 -5 -11.5 -1.5t-6.5 10.5q0 4 4 8q23 22 46.5 44t43 46t32 49.5t12.5 54.5q0 60 -24 89.5t-66 29.5q-38 0 -67 -28t-55 -89q-2 -8 -9 -4q-7 2 -5 9q9 40 23.5 73.5t35 57.5t46 37t57.5 13q58 0 94 -41t36 -109
q0 -45 -26.5 -87.5t-62.5 -73.5q-4 -3 -2.5 -7t6.5 -5z" />
    <glyph glyph-name="four" unicode="4" horiz-adv-x="456" 
d="M350 194q-12 0 -12 -12v-70q0 -22 5.5 -37t15.5 -24.5t23.5 -14.5t29.5 -7q12 -2 12 -14q0 -6 -4.5 -10.5t-10.5 -4.5h-224q-7 0 -11.5 5t-3.5 12q2 11 12 13q16 3 32 8t29 15t21.5 25.5t8.5 38.5v65q0 12 -12 12h-224q-10 0 -17 9q-9 10 -2 24l286 550q6 9 16 9
q7 0 12 -4q6 -6 6 -14v-488q0 -11 12 -11h62q5 0 8.5 -3.5t3.5 -8.5v-51q0 -5 -3.5 -8.5t-8.5 -3.5h-62zM74 282q-2 -5 0.5 -9t7.5 -4h179q12 0 12 11v331q0 6 -5.5 7.5t-7.5 -3.5z" />
    <glyph glyph-name="five" unicode="5" horiz-adv-x="395" 
d="M334 693q-2 -6 -7 -10.5t-16 -4.5h-148q-13 0 -18 -13l-23 -67q-2 -8 1.5 -15t11.5 -9q39 -11 67.5 -22.5t50 -27.5t38.5 -38.5t34 -55.5q16 -31 22.5 -66t6.5 -81q0 -84 -19.5 -141t-62.5 -101q-29 -30 -64 -43.5t-78 -13.5q-47 0 -76.5 19.5t-29.5 52.5q0 44 38 44
q14 0 27.5 -6.5t33.5 -29.5q18 -20 32.5 -28.5t27.5 -8.5q22 0 42 16.5t35.5 44t25 63t9.5 72.5q0 113 -56 175q-29 33 -73 57t-104 24q-10 0 -10 10v5l87 263q5 13 18 13h143q12 0 19 4t15 17q7 9 17 6q13 -5 9 -18z" />
    <glyph glyph-name="six" unicode="6" horiz-adv-x="445" 
d="M380 767q-92 -24 -154 -101.5t-82 -198.5q-1 -5 3 -7t8 1q21 20 45 28.5t47 8.5q73 0 115 -65t42 -178q0 -40 -8.5 -87.5t-28.5 -88t-53.5 -68t-84.5 -27.5q-39 0 -68 17t-49.5 45.5t-34 64.5t-21.5 74t-11 74.5t-3 65.5q0 86 25.5 165t70.5 141t106 103.5t132 51.5
q9 2 11 -8v-1q0 -8 -7 -10zM217 444q-18 0 -35.5 -6t-31 -21t-22 -41t-8.5 -66q0 -66 7.5 -120.5t22.5 -93t37 -59.5t51 -21q23 0 40 15t28 42t17 64t6 82q0 112 -27 168.5t-85 56.5z" />
    <glyph glyph-name="nine" unicode="9" horiz-adv-x="449" 
d="M70 3q91 24 153.5 102t82.5 199q1 5 -3.5 7t-7.5 -2q-22 -20 -46 -28.5t-46 -8.5q-74 0 -116 65t-42 178q0 40 8.5 87t29 88t54 68.5t83.5 27.5q39 0 68 -17t49.5 -45t34 -64.5t21.5 -74t11 -74t3 -65.5q0 -86 -25.5 -165t-70.5 -141.5t-105.5 -104t-131.5 -51.5
q-11 -2 -11 9h-1q0 8 8 10zM233 326q18 0 35 6t31 21.5t22.5 41.5t8.5 66q0 66 -7.5 120t-22.5 92.5t-37 59.5t-52 21q-22 0 -39.5 -15t-28.5 -42t-17 -64t-6 -82q0 -112 27 -168.5t86 -56.5z" />
    <glyph glyph-name="seven" unicode="7" horiz-adv-x="385" 
d="M344 770q10 0 13.5 -6.5t3.5 -14.5l-172 -735q-3 -14 -18 -14h-22q-9 0 -14.5 7.5t-3.5 15.5l165 632q2 9 -3.5 16t-14.5 7h-195q-13 0 -20 -4t-15 -16q-6 -11 -16 -6q-6 2 -8.5 7t-0.5 10l26 86q2 6 7 10.5t15 4.5h273z" />
    <glyph glyph-name="eight" unicode="8" horiz-adv-x="414" 
d="M206 -16q-35 0 -64.5 14t-50.5 39.5t-33 60.5t-12 76q0 29 4 53t15 47t30.5 48t49.5 55q4 4 4.5 9.5t-3.5 10.5q-30 34 -48.5 60.5t-29 50t-14 47t-3.5 50.5q0 42 12 75.5t34 57t51.5 36t64.5 12.5q31 0 57 -13t44.5 -35.5t28.5 -53t10 -64.5q0 -31 -5 -54.5t-17 -44
t-30.5 -39.5t-45.5 -40q-5 -4 -5.5 -10.5t4.5 -11.5q35 -33 57.5 -62t35.5 -57.5t18.5 -57.5t5.5 -62q0 -90 -44.5 -143.5t-120.5 -53.5zM205 754q-42 0 -67 -30.5t-25 -84.5q0 -52 22 -93.5t72 -84.5q10 -8 20 0q37 33 53 70.5t16 88.5q0 60 -24.5 97t-66.5 37zM188 352
q-5 5 -11.5 4.5t-10.5 -5.5q-31 -38 -44 -76t-13 -91q0 -81 29.5 -124t77.5 -43q41 0 66 35t25 92q0 27 -5 50t-14.5 43.5t-25 40t-36.5 39.5z" />
    <glyph glyph-name="equal" unicode="=" horiz-adv-x="573" 
d="M41 427v48q0 6 4 10.5t10 4.5h463q6 0 10.5 -4.5t4.5 -10.5v-48q0 -6 -4.5 -10t-10.5 -4h-463q-14 0 -14 14zM41 194v49q0 14 14 14h463q6 0 10.5 -4t4.5 -10v-49q0 -5 -4.5 -9.5t-10.5 -4.5h-463q-6 0 -10 4.5t-4 9.5z" />
    <glyph glyph-name="exclam" unicode="!" horiz-adv-x="233" 
d="M117 205q-9 0 -9 9q0 38 -3 84.5t-7 95.5t-8.5 97.5t-8.5 90t-6.5 74t-2.5 49.5q0 43 11.5 62t33.5 19q21 0 32.5 -19t11.5 -62q0 -17 -2.5 -49.5t-6 -74t-8 -90t-8.5 -97.5t-7 -95.5t-3 -84.5q0 -9 -9 -9zM163 40q0 -21 -13.5 -36t-32.5 -15q-20 0 -33.5 15t-13.5 36
t13.5 35.5t33.5 14.5q19 0 32.5 -14.5t13.5 -35.5z" />
    <glyph glyph-name="exclamdown" unicode="&#xa1;" horiz-adv-x="222" 
d="M113 686q-19 0 -32.5 14.5t-13.5 35.5t13.5 36t32.5 15q20 0 33.5 -15t13.5 -36t-13.5 -35.5t-33.5 -14.5zM113 572q9 0 9 -10q0 -38 3 -84.5t7 -95.5t8.5 -97t8.5 -90t6.5 -74.5t2.5 -49.5q0 -43 -11.5 -62t-33.5 -19q-21 0 -32.5 19t-11.5 62q0 17 2.5 49.5t6 74.5
t8 90t8.5 97t6.5 95.5t2.5 84.5q2 10 10 10z" />
    <glyph glyph-name="question" unicode="?" horiz-adv-x="330" 
d="M159 786q30 0 57.5 -9t48.5 -28.5t33.5 -49.5t12.5 -72q0 -33 -19 -72.5t-48 -74.5q-18 -21 -37.5 -45t-41.5 -57q-12 -18 -19 -32.5t-11.5 -33t-6 -45t-1.5 -67.5q0 -9 -10 -9q-9 0 -9 9q0 60 -1 110t9 79q10 27 30 58t39.5 63t34 64.5t14.5 63.5q0 60 -26.5 87
t-64.5 27q-22 0 -38 -13.5t-26.5 -37.5t-16.5 -57t-9 -71q-2 -8 -9 -8q-9 0 -9 9v142q0 22 13 35.5t32.5 21t41 10.5t37.5 3zM165 40q0 -21 -13.5 -35.5t-32.5 -14.5q-20 0 -33.5 14.5t-13.5 35.5t13.5 36t33.5 15q19 0 32.5 -15t13.5 -36z" />
    <glyph glyph-name="questiondown" unicode="&#xbf;" horiz-adv-x="333" 
d="M165 736q0 21 13.5 35.5t32.5 14.5q20 0 33.5 -14.5t13.5 -35.5t-13.5 -36t-33.5 -15q-19 0 -32.5 15t-13.5 36zM171 -10q-30 0 -57.5 9t-48.5 28.5t-33.5 49.5t-12.5 72q0 33 19 72.5t48 74.5q18 21 37.5 45t41.5 57q12 18 19 32.5t11.5 33t6 45t1.5 67.5q0 9 9 9
q10 0 10 -9q0 -60 1 -110t-10 -79q-10 -27 -29.5 -58t-39 -63t-34 -64.5t-14.5 -63.5q0 -60 26.5 -86.5t64.5 -26.5q23 0 38.5 13.5t26 37.5t16.5 56.5t9 70.5q0 8 9 8t9 -9v-142q0 -22 -13.5 -35.5t-32.5 -21t-40.5 -10.5t-37.5 -3z" />
    <glyph glyph-name="hyphen" unicode="-" horiz-adv-x="346" 
d="M50 262v49q0 5 4.5 9.5t9.5 4.5h218q5 0 9.5 -4.5t4.5 -9.5v-49q0 -6 -4.5 -10t-9.5 -4h-218q-5 0 -9.5 4t-4.5 10z" />
    <glyph glyph-name="endash" unicode="&#x2013;" horiz-adv-x="499" 
d="M41 268v49q0 14 14 14h389q14 0 14 -14v-49q0 -5 -4 -9.5t-10 -4.5h-389q-6 0 -10 4.5t-4 9.5z" />
    <glyph glyph-name="emdash" unicode="&#x2014;" horiz-adv-x="836" 
d="M0 268v49q0 6 4.5 10t9.5 4h807q14 0 14 -14v-49q0 -5 -4 -9.5t-10 -4.5h-807q-5 0 -9.5 4.5t-4.5 9.5z" />
    <glyph glyph-name="underscore" unicode="_" horiz-adv-x="499" 
d="M41 -129v49q0 5 4 9.5t10 4.5h389q6 0 10 -4.5t4 -9.5v-49q0 -14 -14 -14h-389q-14 0 -14 14z" />
    <glyph glyph-name="parenleft" unicode="(" horiz-adv-x="276" 
d="M235 867q2 -7 -2 -10q-28 -34 -48.5 -61.5t-34.5 -55.5t-23 -59.5t-14 -74t-6.5 -99.5t-1.5 -134q0 -78 1.5 -134.5t6.5 -99.5t14 -74.5t23 -59.5t34.5 -55.5t48.5 -61.5q4 -3 2 -10q-2 -5 -7 -6t-9 2q-95 83 -142.5 212.5t-48.5 286.5q1 156 48.5 285.5t142.5 212.5
q4 3 9 2t7 -6z" />
    <glyph glyph-name="parenright" unicode=")" horiz-adv-x="281" 
d="M49 867q2 5 7 6t9 -2q95 -84 143 -213t48 -285q0 -157 -48 -286.5t-143 -212.5q-4 -3 -9 -2t-7 6q-2 6 2 10q28 34 48.5 61.5t34.5 55.5t23 59.5t14 74.5t6.5 99.5t1.5 134.5t-1.5 134.5t-6.5 99t-14 74t-23 59.5t-34.5 55.5t-48.5 60.5q-4 4 -2 11z" />
    <glyph glyph-name="bracketleft" unicode="[" horiz-adv-x="276" 
d="M52 -109v954q0 10 7 17t17 7h138q6 0 10 -4.5t4 -10.5q0 -14 -14 -14h-55q-21 0 -32 -12t-11 -44v-824q0 -35 11 -49t32 -14h55q6 0 10 -4.5t4 -10.5q0 -14 -14 -14h-138q-10 0 -17 6.5t-7 16.5z" />
    <glyph glyph-name="bracketright" unicode="]" horiz-adv-x="276" 
d="M201 -133h-139q-14 0 -14 14q0 6 4 10.5t10 4.5h55q21 0 32.5 14t11.5 49v824q0 32 -11 44t-33 12h-55q-14 0 -14 14q0 6 4 10.5t10 4.5h139q10 0 16.5 -7t6.5 -17v-954q0 -10 -6.5 -16.5t-16.5 -6.5z" />
    <glyph glyph-name="braceleft" unicode="{" horiz-adv-x="244" 
d="M186 846q-18 -1 -31 -6.5t-22 -18t-13 -33t-4 -51.5q0 -22 4.5 -52.5t10.5 -62t10.5 -61t4.5 -50.5q0 -33 -4 -55t-12.5 -37t-22.5 -24.5t-34 -17.5q-3 -1 -3 -4t3 -5q20 -8 34 -17.5t22.5 -24t12.5 -36.5t4 -55q0 -21 -4.5 -50.5t-10.5 -61.5t-10.5 -62t-4.5 -53
q0 -31 4 -51.5t13 -33t22 -18t31 -6.5q12 0 12 -13q0 -14 -13 -14q-64 3 -94 34.5t-30 108.5q0 24 3 53.5t6 60t6 59.5t3 53q0 47 -9.5 75t-36.5 45q-6 3 -6 12q0 8 6 12q27 17 36.5 44.5t9.5 75.5q0 23 -3 52.5t-6 60t-6 59.5t-3 53q0 77 30 109t94 34q13 0 13 -13
q0 -12 -12 -14z" />
    <glyph glyph-name="braceright" unicode="}" horiz-adv-x="248" 
d="M65 843q-13 2 -13 14q0 5 4.5 9t9.5 4q64 -2 94 -34t30 -109q0 -24 -3 -53t-6.5 -59.5t-6.5 -60t-3 -52.5q0 -48 10 -75.5t36 -44.5q7 -4 7 -12q0 -9 -7 -12q-26 -17 -36 -45t-10 -75q0 -24 3 -53t6.5 -59.5t6.5 -60t3 -53.5q0 -77 -30 -108.5t-94 -34.5q-5 0 -9.5 4
t-4.5 10q0 13 13 13q18 1 31 6.5t22 18t13 33t4 51.5q0 23 -4.5 53t-10.5 62t-10.5 61.5t-4.5 50.5q0 33 4 55t12.5 36.5t22.5 24t34 17.5q4 2 2 5q1 2 -2 4q-20 8 -34 17.5t-22.5 24.5t-12.5 37t-4 55q0 21 4.5 50.5t10.5 61t10.5 62t4.5 52.5q0 31 -4 51.5t-13 33t-22 18
t-31 6.5z" />
    <glyph glyph-name="bar" unicode="|" horiz-adv-x="226" 
d="M86 -111v967q0 17 16 17h22q7 0 12 -4.5t5 -12.5v-967q0 -8 -5 -12.5t-12 -4.5h-22q-16 0 -16 17z" />
    <glyph glyph-name="brokenbar" unicode="&#xa6;" horiz-adv-x="196" 
d="M70 473v296q0 8 5 12.5t12 4.5h22q16 0 16 -17v-296q0 -7 -4.5 -12t-11.5 -5h-22q-7 0 -12 5t-5 12zM70 0v296q0 8 5 12.5t12 4.5h22q16 0 16 -17v-296q0 -7 -4.5 -12t-11.5 -5h-22q-7 0 -12 5t-5 12z" />
    <glyph glyph-name="logicalnot" unicode="&#xac;" horiz-adv-x="502" 
d="M406 79v135q0 17 -11 28.5t-28 11.5h-312q-14 0 -14 14v48q0 6 4 10.5t10 4.5h392q6 0 10 -4.5t4 -10.5v-237q0 -7 -4.5 -11.5t-10.5 -4.5h-24q-16 0 -16 16z" />
    <glyph glyph-name="uni00AD" unicode="&#xad;" horiz-adv-x="389" 
d="M40 265v49q0 14 14 14h281q14 0 14 -14v-49q0 -5 -4 -9.5t-10 -4.5h-281q-6 0 -10 4.5t-4 9.5z" />
    <glyph glyph-name="guilsinglleft" unicode="&#x2039;" horiz-adv-x="256" 
d="M110 347q-5 -8 0 -17q7 -12 21.5 -36.5t30.5 -53t32 -56t26 -45.5q4 -7 0 -13.5t-12 -6.5q-7 -1 -11 5q-11 13 -33.5 39.5t-48 56t-50 57.5t-38.5 45q-7 7 -7 16t7 17q14 17 38.5 45t50 58t48.5 56t33 39q5 6 12 5q8 -1 11 -7.5t-1 -13.5q-10 -18 -25.5 -45t-31.5 -55.5
t-30.5 -53t-21.5 -36.5z" />
    <glyph glyph-name="guilsinglright" unicode="&#x203a;" horiz-adv-x="258" 
d="M149 329q5 10 0 18q-7 12 -21 36.5t-30.5 53t-32 55.5t-25.5 45q-4 8 0 14.5t12 6.5q7 0 11 -6q11 -13 33.5 -39t48 -55.5t50 -57.5t38.5 -45q6 -8 6 -17t-6 -17q-14 -16 -38.5 -44.5t-50 -58.5t-48 -56t-33.5 -39q-5 -5 -12 -5q-8 1 -11.5 8t0.5 14q10 18 26 45t32 55
l30 52.5t21 36.5z" />
    <glyph glyph-name="guillemotleft" unicode="&#xab;" horiz-adv-x="416" 
d="M109 347q-4 -9 0 -18q7 -12 21.5 -36.5t30.5 -53t32 -55.5t26 -45q4 -8 0 -14.5t-12 -6.5q-7 0 -12 6q-10 13 -32.5 39t-48 55.5t-50 58t-38.5 44.5q-15 17 0 34q14 17 38.5 45t50 58t48.5 56t33 39q5 5 12 5q8 -1 11 -8t-1 -13q-10 -18 -25.5 -45.5t-31.5 -55.5
t-30.5 -52.5t-21.5 -36.5zM269 347q-4 -9 0 -18q7 -12 21.5 -36.5t30.5 -53t32 -55.5t26 -45q4 -8 0 -14.5t-12 -6.5q-6 0 -11 6q-11 13 -33.5 39t-48 55.5t-50 58t-38.5 44.5q-6 8 -6 17t6 17q14 17 38.5 45t50 58t48.5 56t33 39q5 5 12 5q8 -1 11 -8t-1 -13
q-10 -18 -25.5 -45.5t-31.5 -55.5t-30.5 -52.5t-21.5 -36.5z" />
    <glyph glyph-name="guillemotright" unicode="&#xbb;" horiz-adv-x="418" 
d="M309 329q5 9 0 18q-7 12 -21.5 36.5t-30.5 53t-32 55.5t-26 45q-4 7 0 14t12 7t11 -6q11 -13 33.5 -39t48 -55.5t50 -57.5t38.5 -45q15 -17 0 -34q-14 -16 -38.5 -44.5t-50 -58.5t-48 -56t-33.5 -39q-5 -5 -12 -5q-8 1 -11 8t1 13q10 18 25.5 45.5t31.5 55.5t30.5 52.5
t21.5 36.5zM148 329q5 9 0 18q-7 12 -21 36.5t-30.5 53t-32 55.5t-25.5 45q-4 7 0 14t12 7q7 0 11 -6q11 -13 33.5 -39t48 -55.5t50 -57.5t38.5 -45q6 -8 6 -17t-6 -17q-15 -16 -39.5 -44.5t-50 -58.5t-47.5 -56l-33 -39q-5 -5 -12 -5q-8 1 -11.5 8t0.5 13q10 18 26 45.5
t32 55.5l30 52.5t21 36.5z" />
    <glyph glyph-name="numbersign" unicode="#" horiz-adv-x="484" 
d="M359 453l-12 -120q-1 -8 3.5 -13t11.5 -5h50q7 0 11 -4.5t4 -10.5v-34q0 -6 -4 -10.5t-11 -4.5h-56q-8 0 -14 -5t-7 -13l-23 -224q0 -9 -9 -9h-28q-5 0 -8 3.5t-3 8.5l23 222q1 7 -3.5 12t-12.5 5h-76q-8 0 -13.5 -5t-6.5 -13l-24 -223q-2 -10 -12 -10h-28q-9 0 -9 10
l25 224q1 7 -4 12t-12 5h-56q-6 0 -10.5 4.5t-4.5 10.5v34q0 6 4.5 10.5t10.5 4.5h63q8 0 13.5 5t6.5 13l14 121q1 7 -4 12t-12 5h-58q-7 0 -11 4.5t-4 10.5v34q0 6 4 10.5t11 4.5h64q8 0 13.5 5t6.5 13l23 205q2 12 13 12h26q11 0 9 -10l-22 -207q-1 -8 3.5 -13t11.5 -5h75
q8 0 14 5t7 13l22 206q0 5 3.5 8t8.5 3h26q5 0 8 -3t2 -8l-22 -207q-1 -7 3.5 -12t12.5 -5h47q6 0 10.5 -4.5t4.5 -10.5v-34q0 -6 -4.5 -10.5t-10.5 -4.5h-53q-8 0 -13.5 -5t-7.5 -13zM200 453l-14 -120q-1 -8 4 -13t12 -5h76q8 0 13.5 5.5t6.5 13.5l13 120q1 7 -3.5 12
t-12.5 5h-75q-8 0 -13.5 -5t-6.5 -13z" />
    <glyph glyph-name="asterisk" unicode="*" horiz-adv-x="424" 
d="M365 477q32 -27 10 -57q-13 -16 -29 -16q-14 0 -29 12q-11 8 -17 18l-13.5 22.5t-19.5 28t-35 36.5q-4 4 -8 1.5t-4 -7.5q2 -33 7.5 -58t10.5 -43.5t9 -33.5t4 -29q0 -21 -10.5 -32t-28.5 -11t-28.5 11t-10.5 32q0 14 4 29t9.5 33.5t10.5 43.5t7 58q0 5 -4 7.5t-8 -1.5
q-23 -21 -35 -36.5t-19.5 -28l-13.5 -22.5t-17 -18q-15 -12 -28 -12q-16 0 -29 16q-24 30 9 57q11 8 21.5 11.5t23.5 7.5t30.5 11t41.5 23q9 6 9 17.5t-9 17.5q-24 16 -41.5 23t-30.5 11t-23.5 7.5t-21.5 11.5q-17 13 -18.5 28t9.5 29q13 16 28 16q14 0 29 -12
q11 -9 17 -18.5t13.5 -22t19.5 -28t35 -36.5q4 -4 8 -2t4 7q-2 33 -7 58t-10.5 44t-9.5 34t-4 28q0 22 10.5 32.5t28.5 10.5t28.5 -10.5t10.5 -32.5q0 -13 -4 -28t-9 -34t-10.5 -44t-7.5 -58q0 -5 4 -7t8 2q23 21 35 36.5t19.5 28t13.5 22t17 18.5q15 12 29 12q16 0 29 -16
q11 -14 9 -29t-19 -28q-10 -8 -20.5 -11.5t-24 -7.5t-31 -11t-41.5 -23q-9 -6 -9 -17.5t9 -17.5q24 -16 41.5 -23t31 -11t24 -7.5t20.5 -11.5z" />
    <glyph glyph-name="bullet" unicode="&#x2022;" horiz-adv-x="528" 
d="M488 369q0 -46 -17.5 -87t-48 -71.5t-71 -48t-87.5 -17.5q-46 0 -87 17.5t-71.5 48t-48 71.5t-17.5 87t17.5 86.5t48 71t71.5 48t87 17.5q47 0 87.5 -17.5t71 -48t48 -71t17.5 -86.5z" />
    <glyph glyph-name="section" unicode="&#xa7;" horiz-adv-x="349" 
d="M216 183q18 -21 32 -39.5t23.5 -38t14 -42.5t4.5 -52q0 -69 -33 -106t-84 -37q-12 0 -29.5 3.5t-33.5 11t-28 19t-13 26.5l-2 112q0 5 4 9t10 3q8 -2 10 -10q7 -37 14 -65t16 -46.5t22 -28t31 -9.5q27 0 44.5 19t17.5 61q0 40 -11 69t-31.5 56t-48.5 57t-63 72
q-31 37 -43.5 78.5t-12.5 86.5q0 52 26.5 92.5t73.5 49.5q6 2 8.5 8.5t-2.5 11.5q-18 21 -31.5 39.5t-23 38t-14 42.5t-4.5 52q0 69 32.5 106t84.5 37q12 0 29.5 -3.5t33.5 -11t28 -19t13 -26.5l2 -112q0 -5 -4 -9t-10 -3q-8 0 -10 10q-14 74 -30.5 111t-52.5 37
q-27 0 -45 -18.5t-18 -60.5q0 -40 11.5 -69t31.5 -56t49 -57t63 -72q30 -38 43 -79t13 -86q0 -52 -26.5 -92.5t-73.5 -50.5q-7 -2 -9.5 -8t2.5 -11zM146 512q-32 0 -47 -25.5t-15 -61.5q0 -28 4.5 -50.5t14 -42.5t23.5 -39.5t32 -41.5q10 -11 21 -18.5t23 -7.5q32 0 47.5 25
t15.5 61q0 28 -4.5 51t-14 43t-23.5 39.5t-32 41.5q-10 11 -21.5 18.5t-23.5 7.5z" />
    <glyph glyph-name="paragraph" unicode="&#xb6;" horiz-adv-x="447" 
d="M422 771q0 -13 -12 -15q-20 -3 -32 -9.5t-18.5 -19t-8.5 -32t-2 -49.5v-629q0 -29 2 -47.5t9 -30t19 -17.5t31 -9q12 -2 12 -14v-1q0 -14 -14 -14h-100q-14 0 -14 14v847q0 6 -4.5 10.5t-10.5 4.5h-19q-6 0 -10.5 -4.5t-4.5 -10.5v-847q0 -14 -14 -14h-100q-6 0 -10.5 4
t-4.5 10q0 13 13 15q20 3 32 9t18.5 18.5t8.5 34.5t2 56v282q0 20 -19 23q-35 6 -61.5 21t-44.5 41.5t-27.5 67t-9.5 97.5q0 115 41 169t134 54h204q7 0 11 -4.5t4 -10.5z" />
    <glyph glyph-name="fraction" unicode="&#x2044;" horiz-adv-x="412" 
d="M372 777q5 10 16 10h16q4 0 6 -3.5t0 -7.5l-365 -781q-5 -10 -17 -10h-17q-5 0 -7 3t0 7z" />
    <glyph glyph-name="uni2215" unicode="&#x2215;" horiz-adv-x="408" 
d="M369 780q5 11 16 11h16q4 0 6 -3.5t0 -7.5l-365 -782q-5 -10 -17 -10h-17q-5 0 -7 3.5t0 7.5z" />
    <glyph glyph-name="slash" unicode="/" horiz-adv-x="281" 
d="M61 -16h-29q-5 0 -9 4.5t-2 10.5l184 775q3 12 16 12h28q6 0 9.5 -4.5t2.5 -10.5l-184 -775q-3 -12 -16 -12z" />
    <glyph glyph-name="backslash" unicode="\" horiz-adv-x="281" 
d="M204 -4l-184 775q-1 6 2.5 10.5t9.5 4.5h28q13 0 16 -12l184 -775q2 -6 -2 -10.5t-9 -4.5h-29q-13 0 -16 12z" />
    <glyph glyph-name="Euro" unicode="&#x20ac;" horiz-adv-x="417" 
d="M387 151q5 -3 5 -8t-2 -9q-24 -66 -62.5 -100t-86.5 -34q-38 0 -72.5 25.5t-58.5 73.5q-20 40 -32.5 94t-17.5 117q-2 13 -14 13h-11q-11 0 -11 11v18q0 10 11 10h8q14 0 14 16v26q1 6 -3.5 10.5t-10.5 4.5h-8q-11 0 -11 10v19q0 10 11 10h13q12 0 14 13q3 24 8.5 55.5
t15 65t23 65.5t33 57t44.5 40.5t56 15.5q38 0 65 -9.5t50 -24.5q20 -13 20 -44l8 -168q0 -7 -7 -7q-6 0 -8 6q-6 38 -15 74t-22.5 64.5t-32.5 46t-45 17.5q-29 0 -51 -18t-37 -51t-24.5 -79.5t-12.5 -103.5q0 -6 4 -10.5t10 -4.5h161q10 0 10 -10v-19q0 -10 -10 -10h-163
q-14 0 -14 -14v-9v-20q0 -5 4 -9.5t10 -4.5h163q10 0 10 -10v-18q0 -11 -10 -11h-162q-6 0 -10 -4.5t-4 -10.5q3 -58 10.5 -102.5t21.5 -76.5q19 -39 44.5 -59.5t54.5 -20.5q35 0 60.5 23.5t54.5 75.5q2 3 4.5 5t7.5 -2z" />
    <glyph glyph-name="dollar" unicode="$" horiz-adv-x="415" 
d="M388 210q0 -44 -12 -80.5t-33 -63.5t-49 -43.5t-60 -20.5q-8 0 -8 -9v-86q0 -7 -7 -7h-14q-7 0 -7 7v85q0 8 -9 10q-41 2 -74.5 13t-66.5 40q-15 12 -17 34l-3 140q0 10 10 10q8 0 10 -8q22 -90 56.5 -134.5t82.5 -53.5q5 -1 8 2t3 7v277q0 17 -14 28q-9 7 -18 13.5
t-17 13.5q-55 40 -76.5 89.5t-21.5 102.5q0 88 36.5 138.5t101.5 55.5q9 2 9 9v60q0 7 7 7h14q7 0 7 -7v-61q0 -9 8 -9q25 -3 46 -10.5t44 -16.5q34 -16 37 -53l9 -144q0 -12 -11 -12q-8 0 -10 9q-5 24 -13 52t-20.5 53t-31.5 44.5t-46 28.5q-5 1 -8.5 -1.5t-3.5 -7.5v-235
q0 -17 13 -28q30 -22 57 -47.5t47.5 -54.5t32.5 -63t12 -73zM120 619q0 -37 17.5 -66.5t47.5 -58.5q4 -3 8.5 -1t4.5 7v215q0 11 -11 9q-32 -6 -49.5 -34.5t-17.5 -70.5zM226 54q0 -5 3.5 -8t8.5 -1q32 11 50.5 43t18.5 78q0 44 -19.5 79.5t-49.5 64.5q-3 3 -7.5 1.5
t-4.5 -6.5v-251z" />
    <glyph glyph-name="yen" unicode="&#xa5;" horiz-adv-x="522" 
d="M488 770q5 0 8.5 -4.5t3.5 -10.5q0 -12 -11 -14q-13 -2 -23 -9t-19 -21t-19 -36.5t-24 -56.5l-95 -247q-7 -17 -7 -39v-16q0 -13 12 -13h84q5 0 8.5 -3t3.5 -8v-17q0 -5 -3.5 -8.5t-8.5 -3.5h-84q-12 0 -12 -12v-31q0 -13 12 -13h84q5 0 8.5 -3t3.5 -8v-17q0 -5 -3.5 -8
t-8.5 -3h-84q-12 0 -12 -13v-20q0 -32 2.5 -52t9 -31t18.5 -16t30 -7q11 -2 11 -14q0 -6 -3.5 -10.5t-8.5 -4.5h-188q-5 0 -8.5 4.5t-3.5 10.5q0 12 11 14q20 3 31.5 8.5t17.5 18t8 35t2 58.5v6q0 13 -13 13h-88q-12 0 -12 11v17q0 11 12 11h88q13 0 13 13v31q0 12 -13 12
h-88q-5 0 -8.5 3.5t-3.5 8.5v17q0 11 12 11h88q13 0 13 13v5q0 19 -8 40l-83 204q-21 53 -36 86t-26 52.5t-20.5 27.5t-19.5 10t-10 14q0 6 3.5 10.5t8.5 4.5h170q11 0 11 -14t-11 -14q-11 -1 -24.5 -6t-13.5 -20q0 -5 2 -19t15 -46l90 -230q2 -5 6.5 -5t6.5 5l94 242
q5 13 7.5 26t2.5 23q0 14 -8 20.5t-28 8.5q-11 2 -11 15q0 14 12 14h127z" />
    <glyph glyph-name="sterling" unicode="&#xa3;" horiz-adv-x="484" 
d="M449 545q0 -10 -11 -10q-10 0 -10 10q-8 95 -33.5 150.5t-74.5 55.5q-19 0 -33.5 -8t-25 -26t-16 -48t-5.5 -74q0 -42 6.5 -79t13.5 -70q3 -12 15 -12h80q12 0 12 -12v-28q0 -12 -12 -12h-69q-7 0 -11.5 -5t-4.5 -11q2 -42 -1.5 -78t-10 -65.5t-14 -52t-13.5 -37.5
q-5 -10 2 -18q26 -35 51.5 -54t56.5 -19q38 0 59 16t21 42q0 27 -10 37.5t-22 17.5t-22 16.5t-10 34.5q0 15 8.5 29t25.5 14q19 0 29.5 -16t15.5 -37.5t6 -43.5t1 -34q0 -20 -5.5 -43.5t-18 -43.5t-34.5 -33.5t-55 -13.5q-73 0 -120 78q-2 3 -5.5 3t-5.5 -3q-8 -13 -18 -27
t-22 -25.5t-26.5 -18.5t-30.5 -7q-42 0 -62.5 28.5t-20.5 66.5q0 22 6.5 43t19 38t31 27.5t42.5 10.5t43 -11.5t36 -27.5q3 -3 6.5 -2t4.5 5q5 26 5 78.5t-12 128.5q-2 13 -15 13h-75q-5 0 -8.5 3.5t-3.5 8.5v28q0 5 3.5 8.5t8.5 3.5h58q8 0 12.5 5.5t2.5 12.5
q-6 31 -10.5 63.5t-4.5 59.5q0 109 48 160t129 51q13 0 30.5 -3t33 -10t26 -19t10.5 -29zM113 19q12 0 22.5 7t19.5 17t16.5 22.5t12.5 22.5t-1 19q-6 10 -13 20.5t-15 19.5t-18 14.5t-22 5.5q-15 0 -25.5 -7t-17 -18.5t-9.5 -25t-3 -26.5t2.5 -25.5t9 -22.5t16.5 -16.5
t25 -6.5z" />
    <glyph glyph-name="cent" unicode="&#xa2;" horiz-adv-x="379" 
d="M343 189q5 1 8.5 -2.5t1.5 -8.5q-18 -85 -49 -130.5t-81 -56.5q-12 -3 -12 -15v-90q0 -11 -11 -11h-10q-11 0 -11 11v87q0 13 -13 15q-31 5 -57 26t-44.5 55t-28.5 79t-10 97q0 38 7 81.5t24 83t44.5 71t68.5 45.5q9 4 9 12v96q0 11 11 11h10q11 0 11 -11v-89
q0 -12 12 -12q12 -1 30.5 -4t36 -10t30.5 -17.5t14 -27.5l1 -113q1 -5 -2.5 -8.5t-8.5 -3.5q-9 0 -11 9q-18 73 -39.5 102.5t-47.5 36.5q-5 2 -10 -2t-5 -11v-398q0 -6 5 -11t12 -3q78 9 107 110q2 7 8 7zM179 479q0 6 -5.5 9t-10.5 0q-34 -20 -53.5 -69.5t-19.5 -121.5
q0 -75 20.5 -130t55.5 -80q5 -2 9 0t4 7v385z" />
    <glyph glyph-name="currency" unicode="&#xa4;" horiz-adv-x="542" 
d="M497 155q11 -10 0 -21l-20 -20q-5 -5 -11 -5t-10 5l-43 42q-5 5 -12 5.5t-13 -4.5q-25 -21 -54.5 -32.5t-62.5 -11.5t-62.5 11.5t-54.5 32.5q-5 5 -12.5 4.5t-12.5 -5.5l-42 -42q-5 -5 -11 -5t-11 5l-20 20q-10 11 0 21l51 51q9 9 3 22q-25 52 -25 112t25 112q7 13 -3 21
l-51 51q-5 5 -5 11t5 11l20 20q11 11 22 0l42 -43q5 -5 12.5 -5.5t12.5 4.5q25 21 54.5 32.5t62.5 11.5t62.5 -11.5t54.5 -32.5q6 -5 13 -4.5t12 5.5l43 43q4 5 10 5t11 -5l20 -20q5 -5 5 -11t-5 -11l-51 -51q-4 -4 -5 -10t2 -11q12 -25 19 -53.5t7 -58.5q0 -31 -7 -59
t-19 -53q-6 -11 3 -22zM271 166q32 0 56.5 17t41.5 42.5t26 56.5t9 58t-9 57.5t-26 56t-41.5 42.5t-56.5 17t-56.5 -17t-41.5 -42.5t-26 -56t-9 -57.5t9 -58t26 -56.5t41.5 -42.5t56.5 -17z" />
    <glyph glyph-name="at" unicode="@" horiz-adv-x="670" 
d="M473 166q-34 0 -51 25t-17 66q1 4 -3 5t-6 -3q-17 -38 -41 -65t-52 -27q-27 0 -46.5 14t-30 39.5t-12.5 61.5t7 79q9 48 27.5 90t43 73t52.5 49t56 18q20 0 32.5 -9t20.5 -18q6 -7 15 -7q8 0 13 5l27 27q3 3 8 1q6 -2 4 -9l-57 -295q-3 -14 -3.5 -28.5t2 -26t9 -19
t17.5 -7.5q21 0 40 19t33.5 51t23.5 73.5t9 85.5q0 65 -19 122.5t-52 100.5t-76.5 68t-92.5 25q-44 0 -79 -18t-61 -48t-44 -69t-29.5 -81t-16.5 -83.5t-5 -76.5q0 -76 17 -139t48.5 -109t75.5 -71.5t98 -25.5q39 0 76.5 11t79.5 37q5 3 9.5 1t6.5 -7l3 -10q3 -12 -7 -17
q-27 -18 -49.5 -29.5t-42.5 -18t-39.5 -9.5t-40.5 -3q-65 0 -121 29.5t-97 82.5t-64.5 125.5t-23.5 158.5q0 68 18.5 139.5t56 131t95 97.5t135.5 38q58 0 108 -26.5t87 -72t58 -108t21 -134.5q0 -56 -12.5 -106.5t-33.5 -89t-49 -61t-59 -22.5zM331 217q12 0 26 15t27 40
t24.5 57.5t18.5 67.5l12 63q7 33 -7 58t-39 25q-35 0 -64 -42.5t-43 -113.5q-15 -78 -4 -124t49 -46z" />
    <glyph glyph-name="ampersand" unicode="&#x26;" horiz-adv-x="626" 
d="M605 120q4 -3 2 -9q-18 -62 -50 -94t-74 -32q-35 0 -66 21.5t-67 72.5q-9 10 -18 1q-44 -52 -83.5 -73.5t-87.5 -21.5q-68 0 -105.5 43t-37.5 131q0 72 33.5 137t97.5 117l21 17q11 8 7 22q-7 26 -12 47.5t-8 40t-4 36t-1 36.5q0 39 10 71t27 55t40 35.5t50 12.5
q49 0 81.5 -37.5t32.5 -106.5q0 -30 -6 -55t-19.5 -47.5t-35.5 -43t-54 -41.5q-14 -8 -9 -24q22 -64 44 -112t50 -95q4 -6 10.5 -5.5t9.5 5.5q36 68 51.5 111t15.5 81q0 24 -16.5 35t-50.5 15q-5 0 -9 4.5t-4 9.5q0 7 4.5 11t10.5 4h177q6 0 10.5 -4t4.5 -10q0 -13 -13 -15
q-25 -3 -38.5 -17.5t-27.5 -46.5q-13 -28 -24 -53.5t-21.5 -49.5t-21.5 -48.5t-25 -51.5q-6 -12 -6 -25.5t8 -24.5q26 -41 52 -61.5t60 -20.5q23 0 38 11.5t32 40.5q3 4 7.5 4.5t7.5 -3.5zM284 749q-30 0 -48 -26t-18 -71q0 -41 5.5 -74.5t22.5 -80.5q2 -5 7 -6.5t10 1.5
q48 32 67 69t19 86q0 43 -18 72.5t-47 29.5zM199 383q-2 5 -7.5 7t-10.5 -3q-47 -45 -66.5 -86.5t-19.5 -98.5q0 -74 29 -114.5t74 -40.5q25 0 50.5 13.5t57.5 45.5q14 14 4 33q-15 26 -29 51.5t-27.5 54t-26.5 62.5t-28 76z" />
    <glyph glyph-name="copyright" unicode="&#xa9;" horiz-adv-x="707" 
d="M354 786q65 0 122 -31.5t99.5 -86t67 -127.5t24.5 -156t-24.5 -156t-67 -127.5t-99.5 -86t-122 -31.5t-122 31.5t-99.5 86t-67 127.5t-24.5 156t24.5 156t67 127.5t99.5 86t122 31.5zM354 742q-54 0 -104 -26t-89 -75q-42 -51 -63.5 -117t-21.5 -139t21.5 -139t63.5 -117
q39 -49 89 -75t104 -26t103.5 26t88.5 75q42 51 64 117t22 139t-22 139t-64 117q-39 49 -88.5 75t-103.5 26zM494 252q3 -3 1 -8q-21 -39 -53.5 -59t-73.5 -20q-43 0 -73 21.5t-48.5 54t-26.5 72t-8 75.5q0 35 8.5 75.5t27 75t48.5 57t73 22.5q10 0 29 -1.5t38 -6.5
t33.5 -14t14.5 -24l7 -97q0 -6 -6 -6q-4 0 -6 5q-5 23 -12.5 44t-19 37.5t-28 26.5t-39.5 10q-28 0 -49.5 -14.5t-35.5 -40t-21 -61t-7 -78.5q0 -28 4 -63.5t16.5 -67t35.5 -52.5t61 -21q30 0 52 13.5t46 44.5q6 8 12 0z" />
    <glyph glyph-name="registered" unicode="&#xae;" horiz-adv-x="707" 
d="M353 786q65 0 122 -31.5t99.5 -86t67 -127.5t24.5 -156t-24.5 -156t-67 -127.5t-99.5 -86t-122 -31.5t-122 31.5t-99.5 86t-67 127.5t-24.5 156t24.5 156t67 127.5t99.5 86t122 31.5zM353 742q-54 0 -103.5 -26t-89.5 -75q-42 -51 -63.5 -117t-21.5 -139t21.5 -139
t63.5 -117q40 -49 89.5 -75t103.5 -26t104 26t89 75q42 51 63.5 117t21.5 139t-21.5 139t-63.5 117q-39 49 -89 75t-104 26zM521 203q6 -1 4 -9q-4 -8 -14 -18t-30 -10q-68 0 -68 102q0 43 -14.5 73.5t-43.5 30.5q-8 0 -13.5 0.5t-11.5 1.5q-8 0 -8 -7v-115q0 -35 7 -46.5
t30 -13.5q9 -2 7 -10q0 -7 -8 -7h-115q-8 0 -8 9q0 6 7 8q11 2 17.5 5t9.5 11t4 22t1 37v275q0 28 -5.5 38t-26.5 13q-9 2 -7 9q0 8 8 8h114q58 0 92.5 -28.5t34.5 -86.5q0 -86 -65 -112q-2 -1 -2.5 -3.5t2.5 -4.5q22 -13 32 -38.5t10 -55.5q0 -18 1 -34.5t4 -28.5
t9.5 -19.5t18.5 -7.5q4 0 9 2.5t9 7.5q4 6 9 2zM433 491q0 54 -23 74t-71 20q-11 0 -14 -4.5t-3 -18.5v-138q0 -11 7 -18t18 -7q45 0 65.5 24.5t20.5 67.5z" />
    <glyph glyph-name="ordfeminine" unicode="&#xaa;" horiz-adv-x="273" 
d="M254 551q0 -17 -1.5 -34t-8 -30t-18.5 -21t-32 -8q-15 0 -25 8t-14 30q-1 3 -4.5 4t-5.5 -2q-17 -22 -35 -31t-33 -9t-26 7t-18.5 17.5t-11 23.5t-3.5 25q0 26 7 44t22 33t37.5 28.5t52.5 29.5q8 3 8 13v28q0 26 -7 41.5t-27 15.5q-17 0 -26 -10t-9 -24q0 -9 1.5 -13.5
t1.5 -15.5q0 -10 -5 -19.5t-21 -9.5q-12 0 -19.5 9t-7.5 23q0 21 8.5 36t22 25.5t31 15.5t35.5 5q26 0 42.5 -8.5t25.5 -23.5t12 -34.5t3 -41.5v-134q0 -46 17 -46q11 0 15.5 16.5t4.5 35.5q0 5 5 5q2 1 4 -0.5t2 -3.5zM146 632q0 4 -3 6t-6 0q-17 -8 -31.5 -19t-21.5 -19
q-9 -10 -12.5 -21t-3.5 -25q0 -24 9.5 -35.5t23.5 -11.5q9 0 17.5 5.5t14.5 14t9.5 18.5t3.5 19v68z" />
    <glyph glyph-name="ordmasculine" unicode="&#xba;" horiz-adv-x="286" 
d="M138 458q-26 0 -48.5 12t-38.5 33.5t-25 51t-9 65.5q0 75 35 120.5t93 45.5q27 0 49 -11.5t38 -32t25 -49t9 -63.5q0 -37 -9.5 -68.5t-26.5 -54.5t-40.5 -36t-51.5 -13zM136 748q-26 0 -42 -24t-16 -62q0 -15 2 -43t9.5 -55.5t21 -47.5t35.5 -20q59 0 59 104
q0 66 -19 107t-50 41z" />
    <glyph glyph-name="degree" unicode="&#xb0;" horiz-adv-x="328" 
d="M164 459q-30 0 -56.5 12.5t-46 35t-30.5 52.5t-11 65t11.5 64.5t31 51.5t46.5 34.5t58 12.5q29 0 55 -13t45.5 -35.5t30.5 -52t11 -63.5t-11.5 -64t-31 -52.5t-46 -35t-56.5 -12.5zM163 748q-19 0 -36.5 -10t-30.5 -27t-20.5 -39.5t-7.5 -48.5t7.5 -48.5t21 -39.5t31 -27
t37.5 -10t37.5 10t31 27.5t21 40.5t7.5 48q0 26 -8 48.5t-21.5 39t-31.5 26.5t-38 10z" />
    <glyph glyph-name="uni00B5" unicode="&#xb5;" horiz-adv-x="459" 
d="M432 142q1 -28 -0.5 -55.5t-9 -49t-23.5 -35t-45 -13.5q-20 0 -37.5 18.5t-23.5 56.5q-1 5 -6 6t-8 -4q-26 -42 -52 -60t-59 -18q-43 0 -67 32q-3 3 -6.5 1.5t-3.5 -5.5q15 -96 30 -149.5t15 -70.5q0 -22 -10.5 -35.5t-25.5 -13.5q-17 0 -26 13t-9 33v718q0 5 3.5 8.5
t8.5 3.5h46q12 0 12 -12v-337q0 -123 62 -123q16 0 32.5 8.5t30 25.5t22.5 41.5t9 55.5v329q0 12 12 12h46q5 0 8.5 -3.5t3.5 -8.5v-387q0 -38 6 -53.5t20 -15.5q8 0 13.5 8t8.5 20.5t5 28t2 30.5q0 6 7 8q3 1 6 -1.5t3 -6.5z" />
    <glyph glyph-name="uni03BC" unicode="&#x3bc;" horiz-adv-x="434" 
d="M417 141q0 -28 -1.5 -55.5t-9 -49t-23 -35t-44.5 -13.5q-20 0 -37.5 18t-23.5 56q-1 5 -6 6.5t-8 -3.5q-26 -42 -52 -60t-59 -18q-42 0 -68 32q-2 3 -6 1.5t-3 -5.5q14 -96 29.5 -150t15.5 -70q0 -23 -10.5 -36t-25.5 -13q-17 0 -26 13t-9 33v718q0 12 12 12h46
q12 0 12 -12v-337q0 -123 62 -123q16 0 32.5 8.5t30 25.5t22 41.5t8.5 55.5v329q0 12 13 12h46q5 0 8.5 -3.5t3.5 -8.5v-387q0 -38 5.5 -53.5t19.5 -15.5q8 0 13.5 7.5t9 20t5.5 28t2 31.5q0 7 6 8q10 2 10 -8z" />
    <glyph glyph-name="thorn" unicode="&#xfe;" horiz-adv-x="445" 
d="M264 531q35 0 63.5 -18t49 -51t31.5 -79t11 -102q0 -62 -13.5 -116.5t-37.5 -94.5t-55.5 -63t-67.5 -23q-21 0 -37.5 7.5t-34.5 25.5q-5 5 -10.5 2.5t-5.5 -8.5v-148q0 -26 2.5 -42t9 -26t18 -14t30.5 -5q6 0 10 -4.5t4 -10.5q-2 -13 -15 -13h-175q-7 0 -11.5 5t-2.5 12
q0 5 3.5 8.5t8.5 4.5q29 5 37.5 20.5t8.5 56.5v795q0 19 -4 31t-10.5 19t-14 10.5t-14.5 4.5q-6 1 -10 6.5t-2 11.5q3 10 13 12q14 2 39 10.5t57 29.5q7 4 12 -1q4 -3 4 -8v-303q0 -5 5 -6.5t8 3.5q40 61 96 61zM243 17q24 0 43 15.5t32.5 44t21 68.5t7.5 89q0 54 -8 97.5
t-23 74t-36.5 47.5t-47.5 17q-16 0 -29.5 -7t-23.5 -18t-16 -25t-6 -29v-258q0 -23 7 -44t19 -37t27.5 -25.5t32.5 -9.5z" />
    <glyph glyph-name="Thorn" unicode="&#xde;" horiz-adv-x="489" 
d="M418 555q23 -29 35 -67.5t12 -85.5q0 -46 -12 -84.5t-35 -67.5q-18 -22 -36 -36t-38.5 -22t-46 -10.5t-58.5 -2.5q-13 0 -23 0.5t-21 1.5q-5 1 -9.5 -3t-4.5 -9v-33q0 -31 2.5 -50.5t9.5 -31.5t20 -17.5t34 -7.5q13 -2 13 -14q0 -6 -4.5 -10.5t-10.5 -4.5h-204
q-6 0 -10.5 4.5t-4.5 10.5q0 12 13 14q20 3 31.5 9t17 18.5t7 34.5t1.5 57v474q0 35 -1.5 57t-7 35t-17 18.5t-31.5 8.5q-13 2 -13 14q0 6 4.5 10.5t10.5 4.5h204q6 0 10.5 -4.5t4.5 -10.5q0 -12 -13 -14q-21 -2 -34 -7.5t-20 -17t-9.5 -31t-2.5 -49.5q0 -5 4.5 -9t9.5 -3
q11 1 21 1.5t23 0.5q33 0 58.5 -2.5t46 -10.5t38.5 -21.5t36 -36.5zM374 402q0 37 -8 69t-26 56t-46.5 38t-68.5 14q-18 0 -31 -13t-13 -32v-263q0 -19 13 -32t31 -13q40 0 68.5 13.5t46.5 37.5t26 56t8 69z" />
    <glyph glyph-name="eth" unicode="&#xf0;" horiz-adv-x="412" 
d="M256 694q-5 -3 -5.5 -9t4.5 -10q60 -66 95.5 -156.5t35.5 -193.5q0 -29 -3 -66t-11 -74.5t-21 -73.5t-34 -64.5t-50 -45.5t-68 -17q-50 0 -83.5 27.5t-54 68.5t-29 88t-8.5 87q0 113 42 178t116 65q22 0 46 -8.5t46 -28.5q3 -3 7.5 -1t3.5 7q-9 53 -26.5 98t-42.5 82
q-3 5 -8.5 5.5t-10.5 -2.5l-56 -43q-5 -4 -10.5 -3t-8.5 6l-10 12q-3 5 -2.5 10.5t5.5 8.5l52 40q5 4 5.5 10t-4.5 11q-52 47 -119 65q-9 2 -7 10q0 11 11 9q42 -6 79.5 -22.5t71.5 -42.5q7 -7 16 0l50 38q11 7 19 -3l10 -13q7 -11 -3 -19zM190 16q30 0 52 21t37 59.5
t22.5 92.5t7.5 120q0 40 -8.5 66t-22 41.5t-31 21.5t-35.5 6q-59 0 -86 -56.5t-27 -168.5q0 -45 6 -82t17 -64t28.5 -42t39.5 -15z" />
    <glyph glyph-name="florin" unicode="&#x192;" horiz-adv-x="421" 
d="M307 869q34 0 61 -18t27 -54q0 -23 -11 -41.5t-35 -18.5q-14 0 -25.5 11t-11.5 37q0 9 2 19t2.5 18t-2 13.5t-11.5 5.5q-14 0 -27 -8.5t-23 -29t-16 -54t-6 -84.5q0 -23 3 -65q0 -6 4.5 -10.5t10.5 -4.5h65q10 0 10 -9v-21q0 -9 -10 -9h-61q-7 0 -11.5 -4.5t-3.5 -11.5
q3 -47 5.5 -91.5t2.5 -70.5q0 -138 -8 -233.5t-24.5 -155t-41.5 -86t-60 -26.5q-34 0 -61 18t-27 54q0 23 11 41.5t35 18.5q14 0 25.5 -11.5t11.5 -37.5q0 -9 -2 -18.5t-3 -18t2 -13.5t12 -5q14 0 27 8.5t23 28.5t16 54t6 85q0 18 -2.5 57.5t-5 84.5t-5 87.5t-2.5 67.5
q0 90 3 162q1 7 -3.5 11.5t-11.5 4.5h-56q-10 0 -10 9v21q0 9 10 9h61q13 0 15 14q6 73 16.5 124t26 83.5t36.5 47.5t47 15z" />
    <glyph glyph-name="germandbls" unicode="&#xdf;" horiz-adv-x="430" 
d="M255 436q0 -10 11 -20t28 -23t36 -30t36 -40.5t28 -55t11 -73.5q0 -48 -11.5 -87t-31.5 -66t-47 -42t-59 -15q-36 0 -58.5 23.5t-22.5 61.5q0 23 10.5 39t26.5 16q14 0 24 -13t11 -33l2 -26q2 -19 7 -27t17 -8q23 0 34 21q8 16 14 53.5t6 77.5q0 51 -9 88.5t-22.5 65
t-30 46.5t-31.5 33q-14 14 -14 33t14 32q21 20 40 55t19 87q0 77 -20 115.5t-56 38.5q-33 0 -52 -33.5t-19 -90.5v-624q0 -6 -4.5 -10.5t-10.5 -4.5h-91q-7 0 -12 5t-3 12q1 9 12 13q24 5 31.5 20.5t7.5 57.5v360q0 5 -4.5 9.5t-9.5 4.5h-19q-8 0 -14 6t-4 15q2 16 19 16
q13 0 22 9t10 22q7 244 148 244q66 0 104 -43.5t38 -124.5q0 -44 -17.5 -73.5t-38 -50.5t-38 -36t-17.5 -30z" />
    <glyph glyph-name="uni2070" unicode="&#x2070;" horiz-adv-x="305" 
d="M152 341q-30 0 -52.5 20.5t-37.5 53t-23 72.5t-8 80q0 43 8.5 82.5t24.5 70t39 48.5t51 18q23 0 44.5 -16.5t38 -45.5t26.5 -70t10 -91q0 -42 -8.5 -81.5t-24 -71t-38 -50.5t-50.5 -19zM152 758q-32 0 -49 -51t-17 -144q0 -94 17 -143.5t50 -49.5q34 0 51 49.5t17 140.5
q0 96 -17 147t-52 51z" />
    <glyph glyph-name="onesuperior" unicode="&#xb9;" horiz-adv-x="220" 
d="M135 404q0 -16 8 -23t31 -8q11 -2 11 -12q0 -12 -12 -12h-122q-5 0 -8.5 3.5t-3.5 8.5t3 8.5t8 3.5q23 3 30.5 12.5t7.5 29.5v303q0 9 -3.5 14t-9 7t-12 3t-11.5 2q-7 0 -7 8q0 7 7 9q8 1 29 5.5t44 18.5q1 1 3 1q7 0 7 -6v-376z" />
    <glyph glyph-name="twosuperior" unicode="&#xb2;" horiz-adv-x="284" 
d="M185 412q16 0 27 7t23 29q4 8 11 4q6 -4 4 -9l-16 -81q-3 -13 -16 -13h-186q-7 0 -10 6v1q-4 7 1 12q22 26 50.5 60.5t54 71.5t43 74t17.5 68q0 36 -18 59t-47 23q-25 0 -44.5 -19.5t-35.5 -63.5q-3 -7 -10 -7v1q-5 0 -7.5 3t-0.5 8q16 75 49.5 107.5t69.5 32.5
q32 0 57 -24.5t33.5 -64t-5.5 -90.5t-61 -104l-67 -80q-3 -3 -1.5 -7t6.5 -4h79z" />
    <glyph glyph-name="threesuperior" unicode="&#xb3;" horiz-adv-x="277" 
d="M166 595q21 -1 36 -10.5t24.5 -24t14.5 -31.5t5 -35q0 -29 -11 -56.5t-31 -49t-48 -34.5t-63 -13q-30 0 -45.5 12t-15.5 32q0 17 8.5 24.5t17.5 7.5q11 0 16.5 -6t12 -13.5t17.5 -14t32 -6.5q15 0 27 8.5t20.5 21.5t13.5 29.5t5 32.5q0 14 -4.5 30.5t-13 30.5t-22 23.5
t-31.5 9.5q-6 0 -13 -2t-15 -5q-4 -2 -7.5 0.5t-3.5 7.5t3 6q14 10 28.5 21.5t26.5 24t20 27t8 29.5q0 24 -12.5 42.5t-42.5 18.5q-26 0 -41.5 -15.5t-29.5 -45.5q-4 -9 -13 -5q-8 4 -5 11q15 59 44.5 83.5t59.5 24.5q32 0 53 -27.5t21 -64.5q0 -26 -13 -49t-36 -43
q-2 -2 -1 -4.5t4 -2.5z" />
    <glyph glyph-name="uni2074" unicode="&#x2074;" horiz-adv-x="301" 
d="M269 459q0 -9 -9 -9h-35q-9 0 -9 -9v-37q0 -16 9 -23t32 -8q12 -2 12 -13q-2 -11 -13 -11h-138q-5 0 -9 4.5t-3 9.5q2 10 11 10q23 3 37.5 11t14.5 31v26q0 9 -9 9h-134q-9 0 -12 8q-4 6 0 14l185 310q1 4 7 4q3 0 6.5 -2t3.5 -7v-262q0 -9 9 -9h35q9 0 9 -9v-38z
M160 506q9 0 9 9v157q0 4 -3 5t-5 -2l-107 -160q-2 -3 -0.5 -6t4.5 -3h102z" />
    <glyph glyph-name="uni2075" unicode="&#x2075;" horiz-adv-x="256" 
d="M101 704q-10 0 -14 -9l-2 -5q-2 -3 -0.5 -6t4.5 -3q36 -4 62 -21t43.5 -41.5t26 -54.5t8.5 -60q0 -32 -9.5 -61.5t-27.5 -52t-44.5 -36t-61.5 -13.5q-31 0 -49.5 11.5t-18.5 32.5q0 16 6.5 25.5t18.5 9.5t20.5 -6t16 -13.5t14.5 -13.5t17 -6q38 0 58.5 28t20.5 66
q0 25 -9.5 50.5t-28 45t-46 31.5t-63.5 10q-8 -2 -8.5 7.5t2.5 14.5l48 126q3 10 14 10h91q13 0 19 9q6 8 15 2q6 -6 3 -12l-18 -51q-3 -7 -6.5 -10.5t-11.5 -3.5h-90z" />
    <glyph glyph-name="uni2076" unicode="&#x2076;" horiz-adv-x="296" 
d="M165 630q49 0 74.5 -37t25.5 -102q0 -66 -29.5 -108t-80.5 -42q-35 0 -59 14.5t-38.5 38t-21 54t-6.5 62.5q0 56 16 102.5t44.5 82t67 59t83.5 32.5q5 1 8.5 -2t3.5 -8q0 -7 -7 -9q-63 -22 -97.5 -59.5t-44.5 -88.5q-1 -4 2 -6t6 0q12 9 26 13t27 4zM157 365
q29 0 44 25.5t15 69.5q0 20 -3.5 42.5t-11.5 41t-21 31t-32 12.5q-34 0 -48.5 -23t-14.5 -64q0 -25 5 -49.5t14 -43.5t22.5 -30.5t30.5 -11.5z" />
    <glyph glyph-name="uni2077" unicode="&#x2077;" horiz-adv-x="234" 
d="M212 770q8 0 10 -5t0 -10l-108 -403q-2 -11 -14 -11h-17q-6 0 -9.5 4.5t-1.5 9.5l116 339q2 10 -7 10h-124q-12 0 -18 -9q-7 -8 -16 -1q-5 5 -2 12l18 50q2 7 5.5 10.5t11.5 3.5h156z" />
    <glyph glyph-name="uni2078" unicode="&#x2078;" horiz-adv-x="275" 
d="M180 581q39 -28 53 -61.5t14 -68.5q0 -43 -27.5 -75.5t-82.5 -34.5q-26 0 -46 8t-33 22t-19 32.5t-6 39.5q0 30 13.5 60.5t41.5 53.5q4 3 4 7.5t-3 6.5q-26 24 -38.5 52.5t-12.5 56.5q0 42 26.5 73t77.5 33q45 -1 67 -30.5t22 -66.5q0 -22 -12.5 -48t-38.5 -45
q-9 -7 0 -15zM79 698q0 -26 14.5 -45t46.5 -42q6 -4 10 -1q21 14 32 36.5t11 44.5q0 24 -13.5 42t-42.5 20q-26 0 -42 -14.5t-16 -40.5zM144 375q29 1 42.5 17t13.5 38q0 21 -9 39t-21.5 32.5t-25 24.5t-19.5 15q-6 4 -11 -1q-17 -16 -26.5 -39t-9.5 -46q0 -37 15.5 -59.5
t50.5 -20.5z" />
    <glyph glyph-name="uni2079" unicode="&#x2079;" horiz-adv-x="294" 
d="M129 497q-48 0 -73.5 37t-25.5 102q0 66 29.5 108t80.5 42q35 0 59 -14.5t38.5 -38t21 -53.5t6.5 -62q0 -56 -16 -103t-44.5 -82.5t-67.5 -59t-84 -32.5q-5 -1 -8 2t-3 8q0 8 6 9q64 22 98 60t45 89q1 3 -2 5t-6 0q-25 -17 -54 -17zM137 762q-29 0 -43.5 -25.5
t-14.5 -69.5q0 -20 3.5 -42.5t11.5 -41t20.5 -31t31.5 -12.5q35 0 49.5 23t14.5 64q0 25 -5 49.5t-14.5 43.5t-23 30.5t-30.5 11.5z" />
    <glyph glyph-name="uni2080" unicode="&#x2080;" horiz-adv-x="299" 
d="M150 -8q-30 0 -52.5 20.5t-37.5 53t-23 72.5t-8 80q0 43 8.5 82.5t24.5 70t39 48.5t51 18q23 0 44 -16.5t38 -45.5t27 -70t10 -91q0 -42 -8.5 -81.5t-24 -71t-38 -50.5t-50.5 -19zM150 409q-32 0 -49.5 -51t-17.5 -144q0 -94 17 -143.5t51 -49.5q33 0 50.5 49.5
t17.5 140.5q0 96 -17 147t-52 51z" />
    <glyph glyph-name="uni2081" unicode="&#x2081;" horiz-adv-x="196" 
d="M122 55q0 -16 8 -23t31 -8q11 -2 11 -12q0 -12 -12 -12h-122q-12 0 -12 12q0 5 3 8.5t8 3.5q23 3 30.5 12.5t7.5 29.5v303q0 9 -3.5 14t-9 7t-12 3t-11.5 2q-7 0 -7 8q0 7 7 9q8 1 29 5.5t44 18.5q1 1 3 1q7 0 7 -6v-376z" />
    <glyph glyph-name="uni2082" unicode="&#x2082;" horiz-adv-x="260" 
d="M180 63q16 0 27.5 7t22.5 29q4 8 11 4q7 -3 5 -9l-16 -81q-3 -13 -16 -13h-186q-7 0 -10 6l-1 1q-3 7 2 12q22 26 50.5 60.5t54 71.5t43 74t17.5 68q0 36 -18 59t-47 23q-26 0 -45 -19.5t-36 -63.5q-2 -7 -9 -7v1q-11 0 -9 11q17 75 50 107.5t70 32.5q32 0 57 -24.5
t33.5 -64t-5.5 -90.5t-61 -104l-67 -80q-3 -3 -1.5 -7t6.5 -4h78z" />
    <glyph glyph-name="uni2083" unicode="&#x2083;" horiz-adv-x="250" 
d="M156 246q21 -1 36 -10.5t24.5 -24t14.5 -31.5t5 -35q0 -29 -11 -56.5t-31 -49t-48.5 -34.5t-63.5 -13q-29 0 -44.5 12t-15.5 32q0 17 8 24.5t17 7.5q11 0 16.5 -6t12.5 -13.5t17.5 -14t31.5 -6.5q15 0 27.5 8.5t21 21.5t13 29.5t4.5 32.5q0 14 -4.5 30.5t-12.5 30.5
t-21.5 23.5t-31.5 9.5q-12 0 -28 -7q-5 -2 -8.5 0.5t-3.5 7.5q0 4 4 6q13 10 27.5 21.5t27 24t20.5 27t8 29.5q0 24 -13 42.5t-42 18.5q-26 0 -41.5 -15t-29.5 -46q-4 -9 -13 -5q-8 3 -6 11q15 59 44.5 83.5t60.5 24.5t52 -27.5t21 -64.5q0 -26 -12.5 -49t-35.5 -43
q-2 -2 -1 -4.5t4 -2.5z" />
    <glyph glyph-name="uni2084" unicode="&#x2084;" horiz-adv-x="281" 
d="M267 148v-38q0 -9 -9 -9h-35q-9 0 -9 -9v-37q0 -16 9 -23t32 -8q12 -2 12 -13q-2 -11 -13 -11h-138q-5 0 -9 4.5t-3 9.5q2 10 11 10q23 3 37.5 11t14.5 31v26q0 9 -8 9h-135q-9 0 -12 8q-4 6 0 14l185 310q1 4 8 4q2 0 5.5 -2t3.5 -7v-262q0 -9 9 -9h35q9 0 9 -9z
M159 157q8 0 8 9v157q0 4 -3 5t-5 -2l-107 -160q-2 -3 -0.5 -6t4.5 -3h103z" />
    <glyph glyph-name="uni2085" unicode="&#x2085;" horiz-adv-x="257" 
d="M103 355q-10 0 -14 -9l-3 -5q-1 -3 0.5 -6t4.5 -3q36 -4 62 -21t43 -41.5t25.5 -54.5t8.5 -60q0 -31 -9 -60.5t-27 -52.5t-44.5 -36.5t-61.5 -13.5q-31 0 -49.5 11.5t-18.5 32.5q0 16 6 25.5t19 9.5q12 0 20.5 -6t16 -13.5t14.5 -13.5t17 -6q38 0 58.5 28t20.5 66
q0 25 -9.5 50.5t-28 45t-46 31.5t-63.5 10q-4 -1 -6 1.5t-2.5 6.5t0 8t1.5 6l49 126q3 10 14 10h91q12 0 19 9q6 8 14 2q6 -4 4 -12l-19 -51q-2 -7 -5.5 -10.5t-11.5 -3.5h-90z" />
    <glyph glyph-name="uni2086" unicode="&#x2086;" horiz-adv-x="268" 
d="M151 281q48 0 73.5 -37t25.5 -102q0 -66 -29.5 -108t-80.5 -42q-35 0 -59 14.5t-38.5 38t-21 54t-6.5 62.5q0 56 16 102.5t44.5 82t67 59t83.5 32.5q12 2 12 -10q0 -7 -7 -9q-63 -22 -97.5 -59.5t-44.5 -88.5q-1 -4 2 -6t6 0q12 9 26 13t28 4zM142 16q29 0 44 25.5
t15 69.5q0 20 -3.5 42.5t-11.5 41t-21 31t-32 12.5q-34 0 -48.5 -23t-14.5 -64q0 -25 5 -49.5t14 -43.5t22.5 -30.5t30.5 -11.5z" />
    <glyph glyph-name="uni2087" unicode="&#x2087;" horiz-adv-x="227" 
d="M204 421q8 0 10 -5t0 -10l-108 -403q-2 -11 -14 -11h-17q-6 0 -9.5 4.5t-1.5 10.5l116 339q1 3 -1 6t-6 3h-124q-12 0 -18 -9q-7 -8 -16 -1q-5 5 -2 12l18 50q4 14 17 14h156z" />
    <glyph glyph-name="uni2088" unicode="&#x2088;" horiz-adv-x="258" 
d="M171 232q38 -28 52.5 -61.5t13.5 -68.5q0 -43 -27.5 -75.5t-81.5 -34.5q-27 0 -46.5 8t-32.5 22t-19.5 32.5t-6.5 39.5q0 30 14 60.5t42 53.5q8 8 0 14q-26 24 -38 52.5t-12 56.5q0 42 26 73t78 33q45 -1 67 -30.5t22 -66.5q0 -22 -12.5 -48t-38.5 -45q-9 -7 0 -15z
M70 349q0 -26 14.5 -45t45.5 -42q6 -4 11 0q21 13 32 35.5t11 44.5q-1 24 -14.5 42t-41.5 20q-26 0 -42 -14.5t-16 -40.5zM134 26q30 1 43.5 17t13.5 38q0 21 -9 39t-21.5 32.5t-25 24.5t-19.5 15q-7 3 -11 -1q-18 -16 -27.5 -39t-9.5 -46q0 -37 16 -59.5t50 -20.5z" />
    <glyph glyph-name="uni2089" unicode="&#x2089;" horiz-adv-x="267" 
d="M119 148q-48 0 -73.5 37t-25.5 102q0 66 29.5 108t80.5 42q35 0 59 -14.5t38.5 -38t21 -54t6.5 -62.5q0 -56 -16 -102.5t-44.5 -82t-67 -59t-83.5 -32.5q-12 -2 -12 10q0 8 7 9q63 22 97.5 59.5t44.5 88.5q1 4 -2 6t-6 0q-25 -17 -54 -17zM128 413q-29 0 -44 -25.5
t-15 -69.5q0 -20 3.5 -42.5t11.5 -41t21 -31t32 -12.5q34 0 48.5 23t14.5 64q0 25 -5 49.5t-14 43.5t-22.5 30.5t-30.5 11.5z" />
    <glyph glyph-name="percent" unicode="%" horiz-adv-x="587" 
d="M457 786h14q5 0 7.5 -4t0.5 -9l-348 -778q-5 -11 -18 -11h-10q-6 0 -9 4.5t-1 9.5l330 733q2 4 -1 6.5t-6 0.5q-28 -16 -67.5 -30t-88.5 -17q-6 0 -4 -5q1 -8 1.5 -17t0.5 -19q0 -52 -11.5 -101t-30.5 -86t-43.5 -59.5t-51.5 -22.5q-21 0 -39.5 12t-32 33.5t-21.5 51
t-8 63.5q0 38 9 74.5t24 67.5t35.5 54.5t43.5 36.5q6 3 9 9q7 11 18.5 17t24.5 6q23 0 42 -20.5t24 -63.5q2 -7 8 -7q35 3 64 10.5t52 17.5t40 20t27 18q8 5 16 5zM186 754q-12 0 -20 -4q-7 -2 -3 -9q5 -11 20 -18t39 -9q7 0 5 6q-16 34 -41 34zM126 412q22 0 42 20t35.5 54
t25 77.5t9.5 89.5v17t-2 16q0 5 -5 5q-29 1 -51.5 11.5t-33.5 26.5q-5 5 -10 0q-14 -16 -24.5 -40.5t-17.5 -54.5t-10.5 -64t-3.5 -69q0 -50 13 -69.5t33 -19.5zM490 389q38 0 59 -35.5t21 -100.5q0 -52 -11.5 -101t-30 -86.5t-43.5 -60t-52 -22.5q-21 0 -39.5 12.5t-32 34
t-21.5 51t-8 63.5q0 47 13.5 91t35.5 78t50.5 55t58.5 21zM439 15q21 0 41 20t35.5 54t25 77.5t9.5 89.5q0 45 -14 73t-38 28q-27 0 -46.5 -21.5t-33 -57t-20 -81t-6.5 -93.5q0 -50 13.5 -69.5t33.5 -19.5z" />
    <glyph glyph-name="perthousand" unicode="&#x2030;" horiz-adv-x="864" 
d="M457 786h14q5 0 7.5 -4t0.5 -9l-348 -778q-5 -11 -17 -11h-11q-6 0 -9 4.5t-1 9.5l330 733q2 4 -0.5 6.5t-6.5 0.5q-28 -16 -67.5 -30t-87.5 -17q-5 0 -5 -5q1 -8 1.5 -17t0.5 -18q0 -53 -11.5 -101.5t-30 -86t-43.5 -60t-52 -22.5q-21 0 -39.5 12.5t-32 34t-21.5 50.5
t-8 63q0 38 9 74.5t24.5 67.5t36 54.5t43.5 36.5q5 4 8 9q7 11 18.5 17t25.5 6q23 0 42 -20.5t23 -63.5q2 -8 8 -6q35 3 64 10.5t52 17t40 20t27 17.5q8 5 16 5zM186 754q-12 0 -20 -4q-7 -2 -3 -9q6 -10 20.5 -17.5t39.5 -9.5q6 0 4 6q-14 34 -41 34zM127 412
q21 0 41.5 20.5t36 54t25 77t9.5 89.5q0 18 -3 33q0 5 -5 5q-29 2 -51.5 12.5t-33.5 25.5q-4 6 -10 0q-14 -16 -24.5 -40.5t-17.5 -54.5t-10.5 -64t-3.5 -69q0 -50 13.5 -69.5t33.5 -19.5zM766 389q38 0 59 -35.5t21 -100.5q0 -52 -11.5 -101t-30 -86.5t-43.5 -60t-52 -22.5
q-21 0 -39.5 12.5t-32 34t-21.5 51t-8 63.5q0 40 10 78.5t27 70.5q2 2 0 4t-4 1q-17 -6 -33 -8.5t-32 -3.5q-7 0 -7 -8q1 -6 1 -12v-13q0 -52 -11.5 -101t-30 -86.5t-43.5 -60t-52 -22.5q-21 0 -39.5 12.5t-32 34t-21.5 51t-8 63.5q0 36 8 71t22 65t33 54t41 38q4 3 6 10
q0 16 11 26t27 10q18 0 32.5 -10.5t25 -26t17 -33.5t9.5 -33q2 -6 7 -6q27 0 55 8t54 28q2 2 4 3t4 3q3 4 6.5 7t7.5 7h1q32 24 63 24zM715 15q22 0 42 20t35.5 54t25 77.5t9.5 89.5q0 45 -14.5 73t-37.5 28q-27 0 -46.5 -21.5t-33 -57t-20 -81t-6.5 -93.5q0 -50 13 -69.5
t33 -19.5zM478 353q-5 -2 -1 -6q15 -17 32 -24.5t27 -9.5q7 -2 5 5q-7 18 -18 28.5t-25 10.5q-11 0 -20 -4zM439 15q21 0 41.5 20t36 54t25 77.5t9.5 89.5q0 7 -0.5 13t-1.5 12q0 6 -6 6q-8 2 -12 2q-49 11 -74 45q-1 2 -3 2t-3 -2q-29 -32 -44 -95t-15 -135
q0 -50 13.5 -69.5t33.5 -19.5z" />
    <glyph glyph-name="onehalf" unicode="&#xbd;" horiz-adv-x="650" 
d="M461 776q5 10 17 10h15q4 0 6.5 -3t0.5 -7l-366 -782q-5 -10 -17 -10h-17q-11 0 -7 10zM136 404q0 -16 8 -23t31 -9q11 0 11 -11q0 -12 -11 -12h-122q-13 0 -13 12q0 10 11 12q23 3 31 12.5t8 29.5v303q0 18 -13 21t-24 5q-7 0 -7 8t8 8q8 2 28.5 6.5t43.5 18.5q1 1 4 1
q6 0 6 -6v-376zM548 63q16 0 27.5 7t22.5 29q4 8 11 4q7 -3 5 -9l-16 -81q-3 -13 -16 -13h-186q-8 0 -11 6v1q-3 7 2 12q22 26 50 60.5t53.5 71.5t43 74t17.5 68q0 36 -17.5 59t-46.5 23q-26 0 -45.5 -19.5t-35.5 -63.5q-2 -7 -9 -7h-1q-10 2 -8 12q16 75 49.5 107.5
t70.5 32.5q32 0 57 -24.5t33 -64t-6 -90.5t-61 -104l-67 -80q-2 -3 -0.5 -7t6.5 -4h78z" />
    <glyph glyph-name="onequarter" unicode="&#xbc;" horiz-adv-x="637" 
d="M491 776q5 10 16 10h15q11 0 7 -10l-366 -782q-5 -10 -16 -10h-18q-4 0 -6.5 3t-0.5 7zM132 404q0 -16 8 -23t31 -8q11 -2 11 -12q0 -12 -11 -12h-123q-5 0 -8.5 3.5t-3.5 8.5q0 10 11 12q23 3 31 12.5t8 29.5v303q0 18 -13 21t-24 5q-7 0 -7 8q0 7 7 9q8 1 29 5.5
t44 18.5q1 1 4 1q6 0 6 -6v-376zM602 148v-38q0 -9 -8 -9h-35q-9 0 -9 -9v-37q0 -16 9 -23t32 -8q13 -2 11 -13q0 -5 -3.5 -8t-8.5 -3h-138q-5 0 -9 4.5t-3 9.5q2 10 11 10q23 3 37.5 11t14.5 31v26q0 9 -9 9h-134q-8 0 -13 8q-4 8 1 14l184 310q3 4 8 4q3 0 6.5 -2t3.5 -7
v-262q0 -9 9 -9h35q8 0 8 -9zM392 157h102q9 0 9 9v158q0 3 -3 4t-5 -2l-108 -160q-2 -3 0 -6t5 -3z" />
    <glyph glyph-name="threequarters" unicode="&#xbe;" horiz-adv-x="646" 
d="M501 776q5 10 16 10h16q4 0 6 -3t0 -7l-365 -782q-5 -10 -17 -10h-17q-11 0 -7 10zM175 595q21 -1 36.5 -10.5t25 -24t14.5 -31.5t5 -35q0 -29 -11 -56.5t-31 -49t-48.5 -34.5t-63.5 -13q-29 0 -44.5 12t-15.5 32q0 17 8 24.5t17 7.5q11 0 16.5 -6.5t12 -14t17.5 -14
t32 -6.5q15 0 27.5 8.5t21 21.5t13 30t4.5 33q0 14 -4.5 30t-12.5 30.5t-21.5 24t-31.5 9.5q-12 0 -28 -7q-5 -2 -8.5 0.5t-3.5 6.5t4 7q13 10 27.5 21.5t27 24t20.5 26.5t8 29q0 24 -13 43t-42 19q-26 0 -41.5 -15.5t-29.5 -45.5q-4 -9 -13 -5q-8 3 -6 11q15 59 44.5 83.5
t60.5 24.5t52 -27.5t21 -64.5q0 -26 -12.5 -49t-35.5 -43q-2 -2 -1 -4.5t3 -2.5zM612 148v-38q0 -9 -9 -9h-35q-9 0 -9 -9v-37q0 -16 9.5 -23t32.5 -8q11 -2 11 -13q-2 -11 -13 -11h-137q-6 0 -10 4.5t-2 9.5q0 10 10 10q23 3 37.5 11t14.5 31v26q0 9 -8 9h-135q-9 0 -12 8
q-4 6 0 14l185 310q3 4 8 4q2 0 5.5 -2t3.5 -7v-262q0 -9 9 -9h35q9 0 9 -9zM401 157h103q8 0 8 9v157q0 4 -3 5t-5 -2l-107 -160q-2 -3 -0.5 -6t4.5 -3z" />
    <glyph glyph-name="plus" unicode="+" horiz-adv-x="494" 
d="M439 376q14 0 14 -14v-48q0 -14 -14 -14h-137q-7 0 -12 -5t-5 -12v-193q0 -5 -4 -9.5t-10 -4.5h-48q-6 0 -10 4.5t-4 9.5v193q0 7 -5 12t-12 5h-137q-14 0 -14 14v48q0 14 14 14h137q7 0 12 5t5 12v193q0 5 4 9.5t10 4.5h48q6 0 10 -4.5t4 -9.5v-193q0 -7 5 -12t12 -5
h137z" />
    <glyph glyph-name="minus" unicode="&#x2212;" horiz-adv-x="506" 
d="M41 314v48q0 14 14 14h396q14 0 14 -14v-48q0 -14 -14 -14h-396q-14 0 -14 14z" />
    <glyph glyph-name="plusminus" unicode="&#xb1;" horiz-adv-x="505" 
d="M444 460q14 0 14 -14v-49q0 -5 -4 -9.5t-10 -4.5h-136q-17 0 -17 -17v-192q0 -6 -4.5 -10t-9.5 -4h-49q-14 0 -14 14v192q0 8 -5 12.5t-12 4.5h-137q-5 0 -9.5 4.5t-4.5 9.5v49q0 6 4.5 10t9.5 4h137q7 0 12 5t5 12v192q0 14 14 14h49q5 0 9.5 -4t4.5 -10v-192
q0 -7 4.5 -12t12.5 -5h136zM40 14v49q0 5 4 9.5t10 4.5h396q6 0 10.5 -4.5t4.5 -9.5v-49q0 -6 -4.5 -10t-10.5 -4h-396q-14 0 -14 14z" />
    <glyph glyph-name="multiply" unicode="&#xd7;" horiz-adv-x="424" 
d="M278 350q-10 -12 0 -24l101 -101q11 -9 0 -20l-34 -34q-10 -10 -20 0l-101 101q-12 10 -24 0l-101 -101q-4 -5 -9.5 -5t-10.5 5l-34 34q-11 11 0 20l101 101q10 12 0 24l-101 101q-10 10 0 20l34 34q11 11 20 0l101 -101q12 -10 24 0l101 101q10 10 20 0l34 -34
q10 -10 0 -20z" />
    <glyph glyph-name="divide" unicode="&#xf7;" horiz-adv-x="505" 
d="M252 514q-26 0 -45 19t-19 46t19 45.5t45 18.5q27 0 46 -18.5t19 -45.5t-19 -46t-46 -19zM40 313v49q0 14 14 14h396q6 0 10.5 -4t4.5 -10v-49q0 -5 -4.5 -9.5t-10.5 -4.5h-396q-6 0 -10 4.5t-4 9.5zM252 161q27 0 46 -19t19 -46q0 -26 -19 -45t-46 -19q-26 0 -45 19
t-19 45q0 27 19 46t45 19z" />
    <glyph glyph-name="less" unicode="&#x3c;" horiz-adv-x="542" 
d="M20 335q0 6 5 9l446 303q7 5 14 1t7 -12v-37q0 -13 -12 -22l-320 -222q-11 -8 -11 -20t11 -20l320 -222q12 -9 12 -23v-34q0 -8 -7 -11.5t-14 0.5l-446 301q-5 3 -5 9z" />
    <glyph glyph-name="greater" unicode="&#x3e;" horiz-adv-x="543" 
d="M518 326l-447 -301q-6 -4 -13 -0.5t-7 11.5v34q0 16 12 23l319 222q11 8 11 20t-11 20l-319 222q-12 8 -12 22v37q0 8 7 12t13 -1l447 -303q4 -3 4 -9t-4 -9z" />
    <glyph glyph-name="trademark" unicode="&#x2122;" horiz-adv-x="789" 
d="M313 645q2 -10 -7 -10q-6 0 -8 7q-8 55 -27 77.5t-58 22.5h-7q-16 0 -16 -16v-337q0 -19 0.5 -30.5t3.5 -18.5t9.5 -10t18.5 -5q10 -2 10 -12q0 -13 -13 -13h-117q-13 0 -13 13q0 10 11 12q12 2 18 5t9 10t3.5 18.5t0.5 30.5v337q0 16 -16 16h-14q-20 0 -30.5 -5.5
t-16.5 -17.5t-8.5 -31.5t-6.5 -46.5q0 -4 -4 -6q-4 -1 -6.5 1.5t-1.5 5.5l-8 111q-1 7 4 12t12 5h249q14 0 16 -14zM771 758q0 -10 -10 -13q-21 -4 -29 -17.5t-8 -44.5v-296q0 -19 0.5 -30t3.5 -17.5t9.5 -9.5t18.5 -5q10 -2 10 -12q0 -13 -12 -13h-117q-13 0 -13 13
q0 10 11 12q12 3 16 4.5t8 4.5q4 4 5 14t1 38v248q0 4 -3.5 4.5t-5.5 -3.5l-118 -333q-2 -4 -6 -4t-6 4l-116 331q-1 4 -5 3t-4 -5v-232q0 -38 7 -53.5t28 -20.5q10 -2 10 -12q0 -13 -13 -13h-84q-13 0 -13 13q0 10 10 12q20 5 27 20.5t7 53.5v312q0 14 -10 23.5t-37 11.5
q-11 2 -11 12q0 12 12 12h73q15 0 22 -15l118 -331q2 -3 5 -3.5t5 3.5l123 331q5 15 21 15h58q5 0 8.5 -3.5t3.5 -8.5z" />
    <glyph glyph-name="dagger" unicode="&#x2020;" horiz-adv-x="371" 
d="M177 52q0 35 -2 74.5t-6 78.5t-9.5 76t-11.5 67q-5 26 5 51q12 27 17.5 70t5.5 109q1 5 -3.5 9t-10.5 3q-15 -2 -28 -7t-33 -17q-15 -8 -23 -11t-16 -3q-37 0 -37 50q0 23 9.5 37.5t23.5 14.5q8 0 18 -4t23 -11q23 -13 35.5 -18t28.5 -7q5 -1 9.5 3t3.5 9q0 21 -1 37
t-3 31t-5.5 31t-9.5 37q-11 36 -11 54q0 20 12.5 36.5t27.5 16.5t27 -16.5t12 -36.5q0 -18 -11 -54q-6 -21 -9.5 -37t-5.5 -31.5t-3 -31.5t-1 -36q0 -5 4 -9t10 -3q16 2 28 7t35 18q12 7 22.5 11t18.5 4q14 0 23 -14.5t9 -37.5q0 -22 -8.5 -36t-22.5 -14q-16 0 -44 14
q-21 12 -33.5 17t-27.5 7q-5 1 -9.5 -3t-4.5 -9q1 -65 6.5 -108t16.5 -71q10 -26 4 -50q-14 -58 -20.5 -130.5t-6.5 -166.5v-175q0 -9 -9 -9t-9 9v175z" />
    <glyph glyph-name="daggerdbl" unicode="&#x2021;" horiz-adv-x="371" 
d="M315 552q-17 0 -45 14q-21 11 -33.5 16.5t-27.5 7.5q-5 1 -9.5 -3t-4.5 -10q0 -63 4.5 -107.5t15.5 -75.5q9 -27 0 -55q-11 -29 -15.5 -73t-4.5 -107q0 -6 4.5 -10t9.5 -3q14 2 26.5 7.5t34.5 16.5q25 14 43 14q14 0 23 -14.5t9 -37.5q0 -20 -9.5 -35t-23.5 -15t-41 16
q-22 12 -34.5 17t-27.5 7q-6 1 -10.5 -3t-3.5 -10q0 -20 0.5 -36t3 -31t6 -31t9.5 -37q5 -17 7.5 -31t2.5 -23q0 -20 -12 -36.5t-28 -16.5q-14 0 -26 16.5t-12 36.5q0 9 2.5 23t7.5 31q6 21 10 37t6 31t3 31t1 36q0 6 -4 10t-10 3q-16 -2 -28.5 -7t-34.5 -17
q-27 -16 -41 -16q-15 0 -24 15t-9 38q0 21 9 35t23 14q17 0 43 -14q22 -11 34.5 -16.5t26.5 -7.5q6 -1 10.5 3t4.5 10q-1 63 -5 108.5t-15 73.5q-10 28 -1 53q11 33 15.5 79t5.5 104q0 6 -4.5 10t-10.5 3q-15 -3 -27.5 -8t-32.5 -16q-15 -8 -22.5 -11t-15.5 -3q-37 0 -37 50
q0 22 9 36.5t23 14.5q17 0 41 -15q22 -12 35 -17t28 -7q6 -1 10 3t4 10q0 20 -1 36t-3 31t-5.5 31t-9.5 37q-5 17 -7.5 31t-2.5 23q0 20 12 36.5t26 16.5q15 0 27.5 -16.5t12.5 -36.5q0 -9 -2.5 -23t-7.5 -31q-6 -21 -10 -37t-6 -31t-3 -31t-1 -36q-1 -6 3.5 -10t10.5 -3
q16 2 28.5 7t34.5 17q26 15 42 15q13 0 22.5 -14.5t9.5 -37.5q0 -21 -9 -35t-22 -14z" />
    <glyph glyph-name="uni00A0" unicode="&#xa0;" horiz-adv-x="287" 
 />
    <glyph glyph-name="m" unicode="m" horiz-adv-x="675" 
d="M651 30q9 -3 11 -13q1 -7 -3.5 -12t-11.5 -5h-152q-6 0 -10.5 4.5t-4.5 10.5v1q0 11 12 14q14 3 22 8t12.5 14.5t6 24.5t1.5 38v229q0 69 -14 100t-50 31q-15 0 -30.5 -9.5t-28.5 -26t-21.5 -38.5t-8.5 -46v-234q0 -52 9.5 -70.5t37.5 -21.5q13 -2 13 -14v-1
q0 -6 -4.5 -10t-10.5 -4h-158q-6 0 -10.5 5t-3.5 12q1 10 13 12q14 2 22.5 6t13 13t6.5 23.5t2 38.5v235q0 61 -14 95.5t-41 34.5q-14 0 -31.5 -8.5t-32.5 -24t-25 -37.5t-10 -50v-263q0 -34 9 -47t35 -16q13 -2 13 -16q-2 -13 -16 -13h-159q-6 0 -10.5 5t-3.5 12
q2 10 13 12q27 3 36 20.5t9 63.5v286q0 19 -4 31t-10 19t-13.5 10t-14.5 4q-13 2 -13 15q0 12 13 16q14 2 39.5 10.5t57.5 29.5q5 2 7 1q9 -2 9 -10v-59q0 -7 6 -9t11 3q35 45 60.5 60t51.5 15q59 0 83 -77q2 -6 8 -7t10 4q30 42 60.5 61t63.5 19q51 0 73.5 -50.5
t22.5 -158.5v-226q0 -18 5 -30.5t12 -20.5t15.5 -12.5t14.5 -6.5z" />
    <glyph glyph-name="i" unicode="i" horiz-adv-x="246" 
d="M119 676q-18 0 -30 16.5t-12 42.5q0 25 12.5 42t29.5 17q19 0 31 -17t12 -42q0 -26 -12 -42.5t-31 -16.5zM210 29q13 -2 13 -14q0 -6 -4.5 -10.5t-10.5 -4.5h-168q-6 0 -10.5 4.5t-4.5 10.5q0 12 13 14q17 2 27.5 7t16 16t7.5 30t2 49v268q0 19 -4 31t-10 19t-13.5 10
t-14.5 4q-13 2 -13 15t13 16q14 2 39.5 10.5t57.5 29.5q4 2 7 1q8 -2 8 -10v-392q0 -30 1.5 -49t7 -30t15 -16.5t25.5 -8.5z" />
    <glyph glyph-name="dotlessi" unicode="&#x131;" horiz-adv-x="246" 
d="M210 29q13 -2 13 -14q0 -6 -4.5 -10.5t-10.5 -4.5h-168q-6 0 -10.5 4.5t-4.5 10.5q0 12 13 14q17 2 27.5 7t16 16t7.5 30t2 49v268q0 19 -4 31t-10 19t-13.5 10t-14.5 4q-13 2 -13 15t13 16q14 2 39.5 10.5t57.5 29.5q4 2 7 1q8 -2 8 -10v-392q0 -30 1.5 -49t7 -30
t15 -16.5t25.5 -8.5z" />
    <glyph glyph-name="uni03A9" unicode="&#x3a9;" horiz-adv-x="663" 
d="M628 199q7 0 11.5 -4.5t3.5 -11.5l-23 -165q-2 -8 -7.5 -13t-13.5 -5h-199q-9 0 -15.5 6.5t-5.5 15.5l6 145q0 18 16 28q24 15 43 44t31.5 66t19.5 78t7 81q0 53 -10.5 105t-32 93t-53.5 67t-75 26q-42 0 -74 -26t-53.5 -67t-32.5 -93t-11 -105q0 -40 7 -81t20 -78
t32 -66t43 -44q14 -10 16 -28l5 -145q1 -9 -5.5 -15.5t-15.5 -6.5h-199q-8 0 -13.5 5t-7.5 13l-23 165q-1 6 3.5 11t10.5 5q12 0 14 -11q7 -28 16 -43.5t20 -23t23.5 -9t25.5 -1.5h94q17 0 17 17l-1 15q0 11 -10 14q-82 35 -124.5 108.5t-42.5 196.5q0 59 18 117t52 104
t83.5 74.5t112.5 28.5t112.5 -28.5t83.5 -74.5t52 -104t18 -117q0 -123 -42 -196.5t-125 -108.5q-10 -3 -10 -14l-1 -15q0 -8 5 -12.5t12 -4.5h94q13 0 25.5 1.5t23.5 9t20 23t16 43.5q2 11 13 11z" />
    <glyph glyph-name="uni0394" unicode="&#x394;" horiz-adv-x="540" 
d="M23 43l233 735q3 8 11 8t11 -8l240 -735q5 -16 -4.5 -29.5t-26.5 -13.5h-433q-17 0 -26.5 13.5t-4.5 29.5zM242 572l-165 -444q-2 -8 2.5 -14.5t12.5 -6.5h293q8 0 12.5 6t2.5 14l-140 444q-2 7 -9 7t-9 -6z" />
    <glyph glyph-name="pi" unicode="&#x3c0;" horiz-adv-x="451" 
d="M432 445q0 -9 -6 -15.5t-15 -6.5h-59q-13 0 -13 -13v-279q0 -41 6 -59t20 -18q8 0 13.5 7.5t9 20t5.5 28t2 31.5q0 7 6 8q8 2 10 -8q0 -28 -1.5 -55.5t-9 -49.5t-23.5 -35t-44 -13q-23 0 -40.5 19t-20.5 66v337q0 13 -13 13h-46q-13 0 -13 -13q0 -26 0.5 -68t-0.5 -88.5
t-6 -94t-15.5 -85.5t-29.5 -62t-48 -24q-27 0 -43.5 11t-16.5 35q0 23 12.5 37t33.5 14q19 0 31.5 10t21 44t13 98.5t8.5 172.5q1 5 -3.5 9t-10.5 4q-15 -1 -30 -3.5t-27 -9.5t-20.5 -18t-11.5 -28q-1 -3 -4 -5.5t-7 -1.5q-7 2 -7 10q3 78 46 116t107 38h218q9 0 15 -6
t6 -15v-55z" />
    <glyph glyph-name="lessequal" unicode="&#x2264;" horiz-adv-x="547" 
d="M27 503q0 6 5 9l446 302q7 5 14 1t7 -12v-36q0 -14 -12 -23l-313 -217q-14 -9 -14 -24.5t14 -24.5l313 -217q12 -9 12 -23v-34q0 -8 -7 -12t-14 1l-446 300q-5 3 -5 10zM27 14v49q0 5 4 9.5t10 4.5h444q5 0 9.5 -4.5t4.5 -9.5v-49q0 -6 -4.5 -10t-9.5 -4h-444
q-14 0 -14 14z" />
    <glyph glyph-name="greaterequal" unicode="&#x2265;" horiz-adv-x="542" 
d="M515 493l-447 -300q-6 -5 -13 -1t-7 12v34q0 16 12 23l313 217q13 9 13 24.5t-13 24.5l-313 217q-12 8 -12 23v36q0 8 7 12t13 -1l447 -302q5 -3 5 -9q0 -7 -5 -10zM506 0h-444q-14 0 -14 14v49q0 5 4 9.5t10 4.5h444q5 0 9.5 -4.5t4.5 -9.5v-49q0 -6 -4.5 -10t-9.5 -4z
" />
    <glyph glyph-name="approxequal" unicode="&#x2248;" horiz-adv-x="452" 
d="M400 490q5 0 8 -3t2 -8q-1 -36 -9.5 -64t-22 -47t-30.5 -28.5t-36 -9.5q-14 0 -25 3t-22 9t-23.5 15.5t-30.5 22.5q-11 8 -33 18.5t-48 10.5q-10 0 -20.5 -3t-19 -11t-14.5 -22.5t-7 -37.5q-2 -11 -11 -11q-11 0 -11 11q1 30 6 57t15.5 47.5t27 32.5t39.5 12
q10 0 18.5 -1.5t19 -6t24.5 -12t35 -20.5q6 -3 15.5 -9.5t20.5 -13t22.5 -11.5t21.5 -5q33 0 54 17.5t23 57.5q2 10 11 10zM400 306q5 0 8 -3t2 -8q-1 -36 -9.5 -64t-22 -47t-30.5 -28.5t-36 -9.5q-14 0 -25 3t-22 9t-23.5 15.5t-30.5 22.5q-11 8 -33 19t-48 11
q-10 0 -20.5 -3t-19 -11t-14.5 -23t-7 -38q-2 -10 -11 -10q-11 0 -11 11q1 30 6 56.5t15.5 47t27 32.5t39.5 12q10 0 18.5 -1.5t19 -6t24.5 -12t35 -20.5q6 -3 15.5 -9.5t20.5 -13t22.5 -11.5t21.5 -5q33 0 54 17.5t23 57.5q2 10 11 10z" />
    <glyph glyph-name="lozenge" unicode="&#x25ca;" horiz-adv-x="686" 
d="M654 362q13 -22 0 -44l-303 -474q-3 -5 -9 -5t-9 5l-301 474q-13 22 1 44l302 474q3 5 9 5t9 -5zM319 -7q9 -13 23 -13q16 0 23 13l214 327q15 21 0 44l-211 323q-7 13 -23 13q-15 0 -24 -13l-213 -327q-15 -21 0 -44z" />
    <glyph glyph-name="infinity" unicode="&#x221e;" horiz-adv-x="768" 
d="M551 103q-49 0 -86.5 36t-73.5 102q-4 7 -11.5 6.5t-10.5 -7.5q-29 -66 -71 -101.5t-99 -35.5q-28 0 -55 13t-48.5 40.5t-34.5 69t-13 98.5q0 77 18.5 126t44.5 77.5t54 39.5t47 11q22 0 42 -5t40 -20t42.5 -43t50.5 -74q4 -6 11.5 -5.5t10.5 6.5q14 30 28.5 56t33 45
t41.5 29.5t53 10.5q29 0 57.5 -15t50.5 -44t35.5 -72t13.5 -99q0 -40 -11.5 -83.5t-33 -79.5t-53.5 -59t-73 -23zM345 284q8 10 8.5 22t-4.5 23q-44 89 -83 136.5t-81 47.5q-18 0 -33.5 -10.5t-27.5 -28.5t-18.5 -42t-6.5 -50q0 -35 8 -68.5t23.5 -59.5t38 -42t50.5 -16
q20 0 39 9.5t35.5 23t29.5 28.5t22 27zM429 392q-13 -21 -3 -42q43 -89 79.5 -135.5t78.5 -46.5q18 0 33.5 10.5t27.5 28.5t18.5 42t6.5 51q0 38 -8 71.5t-23.5 59t-37.5 40.5t-50 15q-21 0 -40 -10t-34.5 -24.5t-27.5 -31t-20 -28.5z" />
    <glyph glyph-name="integral" unicode="&#x222b;" horiz-adv-x="425" 
d="M309 868q34 0 61 -18t27 -54q0 -23 -11 -41.5t-35 -18.5q-14 0 -25.5 11.5t-11.5 37.5q0 9 2 18.5t3 18t-2 13.5t-12 5q-14 0 -27 -8.5t-23 -28.5t-16 -54t-6 -85q0 -18 2.5 -57.5t5 -84.5t5 -87.5t2.5 -67.5q0 -137 -8 -232.5t-24.5 -155t-41.5 -86t-60 -26.5
q-34 0 -61 17.5t-27 53.5q0 24 11 42t35 18q14 0 25.5 -11t11.5 -37q0 -9 -2 -19t-3 -18t2 -13.5t12 -5.5q14 0 27 8.5t23 29t16 54t6 84.5q0 19 -2.5 58.5t-5 84t-5 87t-2.5 67.5q0 138 8 233.5t24.5 155t41.5 86t60 26.5z" />
    <glyph glyph-name="product" unicode="&#x220f;" horiz-adv-x="798" 
d="M467 -119q0 5 4.5 9t10.5 4h12q22 0 36 11.5t22.5 32.5t11.5 49.5t3 62.5v714q0 11 -7.5 19t-18.5 8h-281q-11 0 -18.5 -8t-7.5 -19v-714q0 -82 15.5 -119t57.5 -37h12q5 0 9.5 -4t4.5 -9q1 -7 -3.5 -11t-10.5 -4h-279q-11 0 -14 11q-1 7 3 12t11 5h2q83 0 83 127v670
q0 43 -10 70.5t-24 44t-29 23.5t-25 9q-11 2 -11 14v1q0 14 14 14h719q13 0 15 -13q1 -6 -3 -10t-10 -5q-48 -4 -66.5 -39t-18.5 -105v-654q0 -147 83 -147q6 0 10.5 -4t4.5 -9q0 -15 -14 -15h-279q-6 0 -10.5 4t-3.5 11z" />
    <glyph glyph-name="summation" unicode="&#x2211;" horiz-adv-x="692" 
d="M658 215q5 0 9 -4.5t3 -10.5l-39 -308q-2 -11 -9.5 -18t-18.5 -7h-547q-17 0 -25.5 14.5t-0.5 28.5l240 435q12 25 1 49l-223 433q-8 14 0.5 27.5t24.5 13.5h549q12 0 20 -8.5t8 -19.5v-251q0 -13 -13 -13q-11 0 -13 12q-7 56 -17.5 94.5t-28.5 62.5t-45 35t-68 11h-201
q-11 0 -20 -5.5t-14 -14t-5.5 -18.5t4.5 -20l147 -276q13 -25 -1 -49l-183 -329q-5 -10 -4.5 -20.5t5.5 -19.5t14 -14.5t20 -5.5h278q34 0 57.5 13.5t39.5 37.5t26 58t17 76q2 11 13 11z" />
    <glyph glyph-name="radical" unicode="&#x221a;" horiz-adv-x="547" 
d="M494 845q5 16 20 16h22q8 0 12 -6t2 -13l-282 -970q-2 -7 -7.5 -10.5t-13.5 -1.5q-10 2 -13 13l-108 393q-11 39 -21.5 50t-26.5 11q-17 0 -39 -20q-4 -4 -10 -4q-10 0 -15 10q-3 9 3 17l119 131q4 4 7 4q12 4 16 -9l114 -418q2 -8 9.5 -7.5t9.5 7.5z" />
    <glyph glyph-name="uni2116" unicode="&#x2116;" horiz-adv-x="1087" 
d="M670 890q34 0 56 -22t22 -50q0 -20 -9.5 -34t-24.5 -14t-23 12t-16 30q-10 23 -18.5 30.5t-18.5 7.5q-8 0 -16 -6t-12 -15q-3 -9 -5.5 -19.5t-4 -26t-2 -38.5t-0.5 -56v-691q0 -10 -9 -10q-6 0 -9 5l-354 618q-2 4 -6.5 3t-4.5 -5v-477q0 -62 -4 -108t-15.5 -76
t-32.5 -45t-56 -15q-34 0 -56 22t-22 51q0 19 9 33t25 14q15 0 23 -12t16 -30q10 -23 18.5 -30.5t17.5 -7.5t17 6t12 15q3 9 5.5 19.5t3.5 26.5t1.5 39t0.5 56v576q0 30 -18 53.5t-49 26.5q-6 0 -10 4.5t-4 9.5q0 6 4.5 10t10.5 4h107q20 0 31 -18l301 -525q2 -4 6.5 -3
t4.5 6v413q0 62 4 107.5t15.5 75.5t32.5 45t56 15zM874 244q-38 0 -71 20.5t-57 57.5t-38 87.5t-14 111.5q0 60 13.5 110t38 85t59.5 54.5t77 19.5q38 0 71 -19t57 -53.5t38 -84t14 -109.5q0 -61 -13.5 -112t-38 -88.5t-59.5 -58.5t-77 -21zM866 758q-44 0 -70.5 -48.5
t-26.5 -136.5q0 -17 1.5 -46t6 -62t13 -66.5t22 -61t32.5 -44.5t45 -17q46 0 72 57.5t26 159.5q0 18 -2 44t-7 55.5t-13.5 59t-22 53t-32 38.5t-44.5 15zM774 132v27q0 5 4 9.5t10 4.5h180q6 0 10 -4.5t4 -9.5v-27q0 -14 -14 -14h-180q-14 0 -14 14z" />
    <glyph glyph-name="partialdiff" unicode="&#x2202;" horiz-adv-x="446" 
d="M155 782q4 9 13 9q69 -11 121.5 -52.5t85 -103.5t42.5 -141t-7 -165q-6 -30 -16.5 -67.5t-26.5 -75.5t-36.5 -73.5t-47 -63t-58.5 -44.5t-70 -17q-42 0 -71 22.5t-45 62.5q-28 73 -5 186t77.5 178t128.5 65q22 0 44.5 -8.5t39.5 -28.5q3 -3 7.5 -1t5.5 7q4 121 -42.5 199
t-134.5 101q-7 2 -5 11zM102 223q-9 -45 -10.5 -82t4.5 -63.5t20 -41.5t37 -15q29 0 55.5 21t49 59t40.5 92.5t31 120.5q8 40 5 66t-13.5 41.5t-27 21.5t-34.5 6q-113 0 -157 -226z" />
    <glyph glyph-name="estimated" unicode="&#x212e;" horiz-adv-x="693" 
d="M348 791q63 0 119.5 -28.5t99.5 -78t70 -116.5t32 -144q1 -14 -8.5 -24.5t-23.5 -10.5h-488q-14 0 -23.5 -9t-9.5 -23v-148q0 -31 18 -57q39 -57 94 -91t120 -34q74 0 137 45.5t101 120.5q3 5 9 7t11 -2l9 -6q11 -7 5 -18q-21 -42 -50.5 -76.5t-64.5 -58.5t-74.5 -37.5
t-82.5 -13.5q-67 0 -126 31.5t-102.5 86t-69 127.5t-25.5 156t25.5 156.5t69.5 128t102.5 86t125.5 31.5zM116 460q0 -14 9.5 -23t23.5 -9h397q14 0 23.5 9t9.5 23v110q0 32 -18 57q-39 57 -94 91t-119 34q-65 0 -120 -34t-94 -91q-18 -25 -18 -57v-110z" />
    <glyph glyph-name="uni2113" unicode="&#x2113;" horiz-adv-x="404" 
d="M386 138q4 -3 5.5 -7.5t-0.5 -9.5q-29 -69 -70 -101t-94 -32q-31 0 -55.5 13.5t-41.5 37.5t-27 57t-12 73q0 5 -4 6.5t-8 -1.5q-5 -4 -8.5 -8t-8.5 -8q-5 -5 -11 -5q-11 0 -14 11l-10 26q-3 10 4 16l21 21t20 21q17 19 17 45v285q0 69 10 118.5t28 81t42 46t52 14.5
q50 0 79.5 -50t29.5 -134q0 -104 -40 -198.5t-116 -192.5q-16 -17 -14 -41q3 -100 26.5 -151t58.5 -51q22 0 40.5 11t33.5 27.5t27 36t20 37.5q2 5 8 7t12 -1zM160 367q0 -6 5 -7.5t8 3.5q53 78 82.5 158.5t29.5 164.5q0 68 -16.5 97t-42.5 29t-46 -44t-20 -141v-260z" />
    <glyph glyph-name="notequal" unicode="&#x2260;" horiz-adv-x="607" 
d="M579 584q7 -7 0 -16l-85 -84q-4 -4 -1.5 -9t7.5 -5h34q6 0 10.5 -4t4.5 -10v-48q0 -6 -4.5 -10.5t-10.5 -4.5h-115q-16 0 -26 -10l-131 -132q-4 -4 -2 -8.5t8 -4.5h266q6 0 10.5 -4.5t4.5 -10.5v-48q0 -6 -4.5 -10t-10.5 -4h-348q-15 0 -26 -11l-110 -111q-7 -7 -16 0
l-7 8q-9 7 0 16l84 84q4 4 2 9t-8 5h-34q-14 0 -14 14v48q0 6 4 10.5t10 4.5h116q16 0 26 10l131 131q4 5 1.5 9.5t-7.5 4.5h-267q-6 0 -10 4.5t-4 10.5v48q0 14 14 14h348q15 0 26 11l111 110q8 9 15 0z" />
    <glyph glyph-name="Agrave" unicode="&#xc0;" horiz-adv-x="583" 
d="M569 29q12 -2 12 -14q0 -6 -4.5 -10.5t-10.5 -4.5h-184q-7 0 -11 5t-3 12q2 10 13 12q18 2 31 9.5t13 22.5q0 13 -3.5 34.5t-11.5 46.5l-33 104q-2 5 -8 5h-206q-6 0 -8 -6l-37 -126q-3 -11 -5 -24.5t-2 -24.5q0 -24 11 -32t34 -10q5 0 9.5 -4.5t3.5 -10.5q0 -5 -4.5 -9
t-9.5 -4h-137q-8 0 -12 5.5t-2 13.5t12 10q14 3 24 12t19.5 29t20.5 55.5t28 90.5l171 563q2 9 11 7q6 -2 8 -7l204 -650q8 -25 14 -43t13.5 -30t16.5 -18t23 -9zM353 299q4 0 6.5 3t0.5 7l-82 272q-1 8 -11 8q-8 0 -11 -8l-82 -272q-2 -4 0.5 -7t7.5 -3h171zM220 990
q-16 11 -21 21q-5 12 -5 26q0 13 8 26q9 12 24 12q11 0 18 -4q4 -2 7.5 -5.5l8.5 -8.5l120 -131q14 -13 8 -25q-5 -12 -20 -5z" />
    <glyph glyph-name="Aacute" unicode="&#xc1;" horiz-adv-x="583" 
d="M569 29q12 -2 12 -14q0 -6 -4.5 -10.5t-10.5 -4.5h-184q-7 0 -11 5t-3 12q2 10 13 12q18 2 31 9.5t13 22.5q0 13 -3.5 34.5t-11.5 46.5l-33 104q-2 5 -8 5h-206q-6 0 -8 -6l-37 -126q-3 -11 -5 -24.5t-2 -24.5q0 -24 11 -32t34 -10q5 0 9.5 -4.5t3.5 -10.5q0 -5 -4.5 -9
t-9.5 -4h-137q-8 0 -12 5.5t-2 13.5t12 10q14 3 24 12t19.5 29t20.5 55.5t28 90.5l171 563q2 9 11 7q6 -2 8 -7l204 -650q8 -25 14 -43t13.5 -30t16.5 -18t23 -9zM353 299q4 0 6.5 3t0.5 7l-82 272q-1 8 -11 8q-8 0 -11 -8l-82 -272q-2 -4 0.5 -7t7.5 -3h171zM214 896
q-13 -9 -19 5q-6 12 8 25l120 130q5 8 14.5 13.5t19.5 5.5q15 0 24 -12q8 -13 8 -26q0 -15 -6 -27q-5 -11 -20 -20z" />
    <glyph glyph-name="Acircumflex" unicode="&#xc2;" horiz-adv-x="583" 
d="M569 29q12 -2 12 -14q0 -6 -4.5 -10.5t-10.5 -4.5h-184q-7 0 -11 5t-3 12q2 10 13 12q18 2 31 9.5t13 22.5q0 13 -3.5 34.5t-11.5 46.5l-33 104q-2 5 -8 5h-206q-6 0 -8 -6l-37 -126q-3 -11 -5 -24.5t-2 -24.5q0 -24 11 -32t34 -10q5 0 9.5 -4.5t3.5 -10.5q0 -5 -4.5 -9
t-9.5 -4h-137q-8 0 -12 5.5t-2 13.5t12 10q14 3 24 12t19.5 29t20.5 55.5t28 90.5l171 563q2 9 11 7q6 -2 8 -7l204 -650q8 -25 14 -43t13.5 -30t16.5 -18t23 -9zM353 299q4 0 6.5 3t0.5 7l-82 272q-1 8 -11 8q-8 0 -11 -8l-82 -272q-2 -4 0.5 -7t7.5 -3h171zM417 922
q9 -13 3 -23q-6 -11 -17 -1l-112 105l-111 -106q-9 -9 -16 2q-6 11 2 23l97 141q9 13 21 13h16q11 0 20 -13z" />
    <glyph glyph-name="Atilde" unicode="&#xc3;" horiz-adv-x="583" 
d="M569 29q12 -2 12 -14q0 -6 -4.5 -10.5t-10.5 -4.5h-184q-7 0 -11 5t-3 12q2 10 13 12q18 2 31 9.5t13 22.5q0 13 -3.5 34.5t-11.5 46.5l-33 104q-2 5 -8 5h-206q-6 0 -8 -6l-37 -126q-3 -11 -5 -24.5t-2 -24.5q0 -24 11 -32t34 -10q5 0 9.5 -4.5t3.5 -10.5q0 -5 -4.5 -9
t-9.5 -4h-137q-8 0 -12 5.5t-2 13.5t12 10q14 3 24 12t19.5 29t20.5 55.5t28 90.5l171 563q2 9 11 7q6 -2 8 -7l204 -650q8 -25 14 -43t13.5 -30t16.5 -18t23 -9zM353 299q4 0 6.5 3t0.5 7l-82 272q-1 8 -11 8q-8 0 -11 -8l-82 -272q-2 -4 0.5 -7t7.5 -3h171zM419 1033
q10 0 8 -10q-13 -61 -32.5 -87t-52.5 -26q-16 0 -29 5t-39 23l-19 12q-21 13 -34 13q-23 0 -33 -11.5t-17 -35.5q-1 -6 -7 -6q-10 0 -8 9q10 53 31 80.5t51 27.5q28 0 59 -21l20 -14q23 -17 44 -17q14 0 28.5 10t22.5 42q2 6 7 6z" />
    <glyph glyph-name="Adieresis" unicode="&#xc4;" horiz-adv-x="583" 
d="M569 29q12 -2 12 -14q0 -6 -4.5 -10.5t-10.5 -4.5h-184q-7 0 -11 5t-3 12q2 10 13 12q18 2 31 9.5t13 22.5q0 13 -3.5 34.5t-11.5 46.5l-33 104q-2 5 -8 5h-206q-6 0 -8 -6l-37 -126q-3 -11 -5 -24.5t-2 -24.5q0 -24 11 -32t34 -10q5 0 9.5 -4.5t3.5 -10.5q0 -5 -4.5 -9
t-9.5 -4h-137q-8 0 -12 5.5t-2 13.5t12 10q14 3 24 12t19.5 29t20.5 55.5t28 90.5l171 563q2 9 11 7q6 -2 8 -7l204 -650q8 -25 14 -43t13.5 -30t16.5 -18t23 -9zM353 299q4 0 6.5 3t0.5 7l-82 272q-1 8 -11 8q-8 0 -11 -8l-82 -272q-2 -4 0.5 -7t7.5 -3h171zM211 1000
q17 0 29 -13t12 -31t-12 -31t-29 -13t-28.5 13t-11.5 31t11.5 31t28.5 13zM371 1000q17 0 28.5 -13t11.5 -31t-11.5 -31t-28.5 -13t-28.5 13t-11.5 31t11.5 31t28.5 13z" />
    <glyph glyph-name="Aring" unicode="&#xc5;" horiz-adv-x="583" 
d="M569 29q12 -2 12 -14q0 -6 -4.5 -10.5t-10.5 -4.5h-184q-7 0 -11 5t-3 12q2 10 13 12q18 2 31 9.5t13 22.5q0 13 -3.5 34.5t-11.5 46.5l-33 104q-2 5 -8 5h-206q-6 0 -8 -6l-37 -126q-3 -11 -5 -24.5t-2 -24.5q0 -24 11 -32t34 -10q5 0 9.5 -4.5t3.5 -10.5q0 -5 -4.5 -9
t-9.5 -4h-137q-8 0 -12 5.5t-2 13.5t12 10q14 3 24 12t19.5 29t20.5 55.5t28 90.5l171 563q2 9 11 7q6 -2 8 -7l204 -650q8 -25 14 -43t13.5 -30t16.5 -18t23 -9zM353 299q4 0 6.5 3t0.5 7l-82 272q-1 8 -11 8q-8 0 -11 -8l-82 -272q-2 -4 0.5 -7t7.5 -3h171zM292 817
q-24 0 -41 12t-28 31t-16 41t-5 41q0 20 5.5 41.5t16.5 40.5t28 31t40 12t40 -12t28 -31t16 -40.5t5 -41.5q0 -19 -5 -41t-16 -41t-27.5 -31t-40.5 -12zM292 848q18 0 30 9.5t19.5 23.5t11 30.5t3.5 30.5t-3.5 30.5t-11 30.5t-20 23t-29.5 9q-18 0 -30 -9t-20 -23
t-11.5 -30.5t-3.5 -30.5t3.5 -30.5t11.5 -30.5t20 -23.5t30 -9.5z" />
    <glyph glyph-name="AE" unicode="&#xc6;" horiz-adv-x="884" 
d="M847 233q6 1 10 -3t3 -10l-14 -200q-1 -8 -7 -14t-14 -6h-416q-6 0 -10.5 5t-3.5 12q1 10 13 12q20 3 31.5 8.5t17.5 17.5t8 32t2 51v203q0 17 -11 28t-28 11h-110q-16 0 -24 -14l-132 -247q-6 -11 -13 -26t-7 -27t4.5 -19t12.5 -11t18 -5.5t22 -2.5q6 0 10 -4.5t3 -10.5
q0 -5 -4.5 -9t-9.5 -4h-180q-7 0 -11.5 5t-3.5 11q2 11 13 13q16 4 26.5 8.5t19 12t16 18t16.5 25.5l308 558q11 20 12.5 36t-3.5 27.5t-14.5 18.5t-20.5 8q-6 1 -10 5.5t-3 10.5q2 13 15 13h421q11 0 18 -6.5t8 -16.5l22 -179q2 -8 -2 -12.5t-10 -4.5q-11 0 -13 10
q-12 91 -46.5 128t-99.5 37h-94q-18 0 -23.5 -7t-5.5 -35v-214q0 -17 12 -29.5t30 -12.5h84q26 0 42.5 3t26.5 13.5t15 29.5t9 50q0 9 10 9t10 -11v-257q0 -10 -11 -10q-9 2 -9 10q-4 34 -9 56t-15 35t-26.5 18.5t-42.5 5.5h-84q-18 0 -30 -12.5t-12 -29.5v-240
q0 -18 4.5 -29t14.5 -17t26 -7.5t39 -1.5h30q46 0 76 14t48.5 38.5t28.5 57t16 69.5q2 11 11 11zM428 428q17 0 28 11.5t11 28.5v192q0 5 -5.5 6.5t-7.5 -3.5l-118 -219q-3 -5 0.5 -10.5t9.5 -5.5h82z" />
    <glyph glyph-name="Ccedilla" unicode="&#xc7;" horiz-adv-x="555" 
d="M524 141q8 -7 3 -17q-35 -69 -92.5 -104.5t-135.5 -35.5q-13 0 -16 -12l-7 -25q-1 -4 1.5 -7t6.5 -2q3 1 11 1q34 0 52.5 -21t18.5 -59q0 -46 -28 -72t-76 -26q-32 0 -52.5 16t-20.5 42q0 6 0.5 13t3 13t8 10t15.5 4q15 0 19.5 -11t7 -24.5t5.5 -24.5t14 -11
q21 0 31.5 21t10.5 44t-10.5 34t-28.5 11q-11 0 -22 -7q-6 -2 -9 2q-3 3 -2 8l22 74q2 5 -1 10t-9 7q-62 17 -104 58t-67.5 95t-36 115t-10.5 118q0 88 20 159.5t55 127.5q41 63 93 92t110 29q59 0 99 -9.5t75 -25.5q14 -6 22 -18.5t8 -27.5l12 -172q0 -12 -12 -10
q-6 0 -8 8q-9 41 -22.5 78.5t-34 66.5t-50 46.5t-70.5 17.5q-50 0 -87.5 -25.5t-62.5 -71t-37.5 -108.5t-12.5 -138q0 -97 15.5 -165t44.5 -113q28 -42 66.5 -63t82.5 -21q26 0 48.5 6t42.5 18.5t40 32t41 46.5q4 5 9.5 6t10.5 -3z" />
    <glyph glyph-name="Egrave" unicode="&#xc8;" horiz-adv-x="516" 
d="M481 233q12 0 12 -13l-15 -200q0 -8 -6.5 -14t-14.5 -6h-415q-6 0 -10.5 4.5t-4.5 10.5q0 12 13 14q20 3 31.5 8.5t18 17.5t8.5 32t2 51v496q0 30 -2 49.5t-8.5 31.5t-18.5 18t-31 8q-13 2 -13 14q0 6 4.5 10.5t10.5 4.5h390q10 0 17 -6.5t8 -16.5l22 -179q3 -17 -11 -17
q-11 0 -13 10q-13 91 -47.5 128t-99.5 37h-94q-17 0 -23 -7t-6 -35v-214q0 -17 12.5 -29.5t29.5 -12.5h84q26 0 42.5 3t26.5 13.5t15 29.5t9 50q2 9 10 9q10 0 10 -11v-257q0 -10 -10 -10q-8 0 -10 9q-4 34 -9 56.5t-15 35.5t-26.5 18.5t-42.5 5.5h-84q-17 0 -29.5 -12.5
t-12.5 -29.5v-240q0 -18 4.5 -29t14.5 -17t26 -7.5t39 -1.5h30q46 0 76 14t49 38.5t29 57.5t16 70q2 10 12 10zM198 990q-16 11 -21 21q-5 12 -5 26q0 13 8 26q9 12 24 12q11 0 18 -4q4 -2 7.5 -5.5l8.5 -8.5l120 -131q14 -13 8 -25q-5 -12 -20 -5z" />
    <glyph glyph-name="Eacute" unicode="&#xc9;" horiz-adv-x="516" 
d="M481 233q12 0 12 -13l-15 -200q0 -8 -6.5 -14t-14.5 -6h-415q-6 0 -10.5 4.5t-4.5 10.5q0 12 13 14q20 3 31.5 8.5t18 17.5t8.5 32t2 51v496q0 30 -2 49.5t-8.5 31.5t-18.5 18t-31 8q-13 2 -13 14q0 6 4.5 10.5t10.5 4.5h390q10 0 17 -6.5t8 -16.5l22 -179q3 -17 -11 -17
q-11 0 -13 10q-13 91 -47.5 128t-99.5 37h-94q-17 0 -23 -7t-6 -35v-214q0 -17 12.5 -29.5t29.5 -12.5h84q26 0 42.5 3t26.5 13.5t15 29.5t9 50q2 9 10 9q10 0 10 -11v-257q0 -10 -10 -10q-8 0 -10 9q-4 34 -9 56.5t-15 35.5t-26.5 18.5t-42.5 5.5h-84q-17 0 -29.5 -12.5
t-12.5 -29.5v-240q0 -18 4.5 -29t14.5 -17t26 -7.5t39 -1.5h30q46 0 76 14t49 38.5t29 57.5t16 70q2 10 12 10zM192 896q-13 -9 -19 5q-6 12 8 25l120 130q5 8 14.5 13.5t19.5 5.5q15 0 24 -12q8 -13 8 -26q0 -15 -6 -27q-5 -11 -20 -20z" />
    <glyph glyph-name="Ecircumflex" unicode="&#xca;" horiz-adv-x="516" 
d="M481 233q12 0 12 -13l-15 -200q0 -8 -6.5 -14t-14.5 -6h-415q-6 0 -10.5 4.5t-4.5 10.5q0 12 13 14q20 3 31.5 8.5t18 17.5t8.5 32t2 51v496q0 30 -2 49.5t-8.5 31.5t-18.5 18t-31 8q-13 2 -13 14q0 6 4.5 10.5t10.5 4.5h390q10 0 17 -6.5t8 -16.5l22 -179q3 -17 -11 -17
q-11 0 -13 10q-13 91 -47.5 128t-99.5 37h-94q-17 0 -23 -7t-6 -35v-214q0 -17 12.5 -29.5t29.5 -12.5h84q26 0 42.5 3t26.5 13.5t15 29.5t9 50q2 9 10 9q10 0 10 -11v-257q0 -10 -10 -10q-8 0 -10 9q-4 34 -9 56.5t-15 35.5t-26.5 18.5t-42.5 5.5h-84q-17 0 -29.5 -12.5
t-12.5 -29.5v-240q0 -18 4.5 -29t14.5 -17t26 -7.5t39 -1.5h30q46 0 76 14t49 38.5t29 57.5t16 70q2 10 12 10zM395 922q9 -13 3 -23q-6 -11 -17 -1l-112 105l-111 -106q-9 -9 -16 2q-6 11 2 23l97 141q9 13 21 13h16q11 0 20 -13z" />
    <glyph glyph-name="Edieresis" unicode="&#xcb;" horiz-adv-x="516" 
d="M481 233q12 0 12 -13l-15 -200q0 -8 -6.5 -14t-14.5 -6h-415q-6 0 -10.5 4.5t-4.5 10.5q0 12 13 14q20 3 31.5 8.5t18 17.5t8.5 32t2 51v496q0 30 -2 49.5t-8.5 31.5t-18.5 18t-31 8q-13 2 -13 14q0 6 4.5 10.5t10.5 4.5h390q10 0 17 -6.5t8 -16.5l22 -179q3 -17 -11 -17
q-11 0 -13 10q-13 91 -47.5 128t-99.5 37h-94q-17 0 -23 -7t-6 -35v-214q0 -17 12.5 -29.5t29.5 -12.5h84q26 0 42.5 3t26.5 13.5t15 29.5t9 50q2 9 10 9q10 0 10 -11v-257q0 -10 -10 -10q-8 0 -10 9q-4 34 -9 56.5t-15 35.5t-26.5 18.5t-42.5 5.5h-84q-17 0 -29.5 -12.5
t-12.5 -29.5v-240q0 -18 4.5 -29t14.5 -17t26 -7.5t39 -1.5h30q46 0 76 14t49 38.5t29 57.5t16 70q2 10 12 10zM189 1000q17 0 29 -13t12 -31t-12 -31t-29 -13t-28.5 13t-11.5 31t11.5 31t28.5 13zM349 1000q17 0 28.5 -13t11.5 -31t-11.5 -31t-28.5 -13t-28.5 13t-11.5 31
t11.5 31t28.5 13z" />
    <glyph glyph-name="Igrave" unicode="&#xcc;" horiz-adv-x="338" 
d="M45 14q0 13 13 15q22 2 35.5 7t20.5 16.5t9.5 31.5t2.5 52v499q0 32 -2.5 52t-9.5 31t-20.5 16t-35.5 7q-13 2 -13 14v1q0 14 14 14h220q14 0 14 -14v-1q0 -12 -13 -14q-22 -2 -35.5 -7.5t-21 -17t-10 -31t-2.5 -50.5v-499q0 -30 3 -50t10.5 -32t21 -17.5t34.5 -7.5
q13 -2 13 -15q0 -14 -14 -14h-220q-14 0 -14 14zM97 990q-16 11 -21 21q-5 12 -5 26q0 13 8 26q9 12 24 12q11 0 18 -4q4 -2 7.5 -5.5l8.5 -8.5l120 -131q14 -13 8 -25q-5 -12 -20 -5z" />
    <glyph glyph-name="Iacute" unicode="&#xcd;" horiz-adv-x="338" 
d="M45 14q0 13 13 15q22 2 35.5 7t20.5 16.5t9.5 31.5t2.5 52v499q0 32 -2.5 52t-9.5 31t-20.5 16t-35.5 7q-13 2 -13 14v1q0 14 14 14h220q14 0 14 -14v-1q0 -12 -13 -14q-22 -2 -35.5 -7.5t-21 -17t-10 -31t-2.5 -50.5v-499q0 -30 3 -50t10.5 -32t21 -17.5t34.5 -7.5
q13 -2 13 -15q0 -14 -14 -14h-220q-14 0 -14 14zM92 896q-13 -9 -19 5q-6 12 8 25l120 130q5 8 14.5 13.5t19.5 5.5q15 0 24 -12q8 -13 8 -26q0 -15 -6 -27q-5 -11 -20 -20z" />
    <glyph glyph-name="Icircumflex" unicode="&#xce;" horiz-adv-x="338" 
d="M45 14q0 13 13 15q22 2 35.5 7t20.5 16.5t9.5 31.5t2.5 52v499q0 32 -2.5 52t-9.5 31t-20.5 16t-35.5 7q-13 2 -13 14v1q0 14 14 14h220q14 0 14 -14v-1q0 -12 -13 -14q-22 -2 -35.5 -7.5t-21 -17t-10 -31t-2.5 -50.5v-499q0 -30 3 -50t10.5 -32t21 -17.5t34.5 -7.5
q13 -2 13 -15q0 -14 -14 -14h-220q-14 0 -14 14zM294 922q9 -13 3 -23q-6 -11 -17 -1l-112 105l-111 -106q-9 -9 -16 2q-6 11 2 23l97 141q9 13 21 13h16q11 0 20 -13z" />
    <glyph glyph-name="Idieresis" unicode="&#xcf;" horiz-adv-x="338" 
d="M45 14q0 13 13 15q22 2 35.5 7t20.5 16.5t9.5 31.5t2.5 52v499q0 32 -2.5 52t-9.5 31t-20.5 16t-35.5 7q-13 2 -13 14v1q0 14 14 14h220q14 0 14 -14v-1q0 -12 -13 -14q-22 -2 -35.5 -7.5t-21 -17t-10 -31t-2.5 -50.5v-499q0 -30 3 -50t10.5 -32t21 -17.5t34.5 -7.5
q13 -2 13 -15q0 -14 -14 -14h-220q-14 0 -14 14zM89 1000q17 0 29 -13t12 -31t-12 -31t-29 -13t-28.5 13t-11.5 31t11.5 31t28.5 13zM249 1000q17 0 28.5 -13t11.5 -31t-11.5 -31t-28.5 -13t-28.5 13t-11.5 31t11.5 31t28.5 13z" />
    <glyph glyph-name="Eth" unicode="&#xd0;" horiz-adv-x="610" 
d="M251 770q88 0 151 -29.5t103.5 -81t60 -121t19.5 -150.5q0 -78 -18.5 -148.5t-58 -124t-100.5 -84.5t-147 -31h-220q-7 0 -11.5 5t-3.5 12q1 5 4.5 8t8.5 4q20 3 32 8.5t18.5 17.5t8.5 32.5t2 52.5v198q0 7 -5 11.5t-11 4.5h-32q-6 0 -10.5 4t-4.5 10v34q0 6 4.5 10
t10.5 4h32q6 0 11 4.5t5 11.5v202q0 32 -2 51.5t-9 31t-18.5 16.5t-31.5 8q-6 1 -10 5.5t-3 10.5q2 13 15 13h210zM225 43q79 0 131 26t82.5 71.5t43 107.5t12.5 134q0 65 -13.5 127t-44.5 110.5t-81.5 78t-125.5 29.5q-24 0 -34 -10t-10 -39v-246q0 -7 4.5 -11.5t10.5 -4.5
h32q5 0 9.5 -4t4.5 -10v-34q0 -6 -4.5 -10t-9.5 -4h-32q-6 0 -10.5 -4.5t-4.5 -11.5v-240q0 -31 7.5 -43t32.5 -12z" />
    <glyph glyph-name="Ntilde" unicode="&#xd1;" horiz-adv-x="630" 
d="M606 755q0 -12 -11 -15q-16 -4 -28.5 -11.5t-21.5 -23t-13.5 -42.5t-4.5 -71v-598q0 -10 -10 -10q-6 0 -8 5l-355 618q-2 4 -6 3t-4 -6v-424q0 -42 3 -69t10.5 -43.5t20.5 -24.5t34 -13q12 -2 12 -15q0 -6 -4.5 -10.5t-10.5 -4.5h-168q-6 0 -10.5 4.5t-4.5 10.5
q0 13 12 15q22 4 35.5 11.5t21 24t10 44t2.5 70.5v482q0 31 -18 54.5t-50 25.5q-5 0 -9 4.5t-4 9.5q0 14 14 14h107q21 0 31 -18l302 -525q2 -4 6 -3t4 6v376q0 37 -4 61t-12 39t-21.5 22.5t-32.5 11.5q-12 3 -12 15q0 6 4.5 10.5t11.5 4.5h167q7 0 11 -4.5t4 -10.5z
M443 1033q10 0 8 -10q-13 -61 -32.5 -87t-52.5 -26q-16 0 -29 5t-39 23l-19 12q-21 13 -34 13q-23 0 -33 -11.5t-17 -35.5q-1 -6 -7 -6q-10 0 -8 9q10 53 31 80.5t51 27.5q28 0 59 -21l20 -14q23 -17 44 -17q14 0 28.5 10t22.5 42q2 6 7 6z" />
    <glyph glyph-name="Ograve" unicode="&#xd2;" 
d="M298 -16q-61 0 -111 29.5t-86 82.5t-56 127.5t-20 165.5q0 89 20 162t56 125t86 81t111 29q62 0 112 -30.5t86 -84t55.5 -127t19.5 -159.5q0 -90 -20 -163.5t-56 -126.5t-86.5 -82t-110.5 -29zM298 744q-38 0 -66 -19t-48 -50t-32 -70t-19 -79t-9.5 -77t-2.5 -63
q0 -27 2.5 -64.5t9 -77.5t18.5 -79t32 -70t48.5 -50t67.5 -19q40 0 69 19.5t48.5 51t31.5 71t18 80t8 78.5t2 66q0 26 -3 62.5t-10 75.5t-19.5 77.5t-32.5 68.5t-48 49t-65 19zM227 990q-16 11 -21 21q-5 12 -5 26q0 13 8 26q9 12 24 12q11 0 18 -4q4 -2 7.5 -5.5l8.5 -8.5
l120 -131q14 -13 8 -25q-5 -12 -20 -5z" />
    <glyph glyph-name="Oacute" unicode="&#xd3;" 
d="M298 -16q-61 0 -111 29.5t-86 82.5t-56 127.5t-20 165.5q0 89 20 162t56 125t86 81t111 29q62 0 112 -30.5t86 -84t55.5 -127t19.5 -159.5q0 -90 -20 -163.5t-56 -126.5t-86.5 -82t-110.5 -29zM298 744q-38 0 -66 -19t-48 -50t-32 -70t-19 -79t-9.5 -77t-2.5 -63
q0 -27 2.5 -64.5t9 -77.5t18.5 -79t32 -70t48.5 -50t67.5 -19q40 0 69 19.5t48.5 51t31.5 71t18 80t8 78.5t2 66q0 26 -3 62.5t-10 75.5t-19.5 77.5t-32.5 68.5t-48 49t-65 19zM221 896q-13 -9 -19 5q-6 12 8 25l120 130q5 8 14.5 13.5t19.5 5.5q15 0 24 -12q8 -13 8 -26
q0 -15 -6 -27q-5 -11 -20 -20z" />
    <glyph glyph-name="Ocircumflex" unicode="&#xd4;" 
d="M298 -16q-61 0 -111 29.5t-86 82.5t-56 127.5t-20 165.5q0 89 20 162t56 125t86 81t111 29q62 0 112 -30.5t86 -84t55.5 -127t19.5 -159.5q0 -90 -20 -163.5t-56 -126.5t-86.5 -82t-110.5 -29zM298 744q-38 0 -66 -19t-48 -50t-32 -70t-19 -79t-9.5 -77t-2.5 -63
q0 -27 2.5 -64.5t9 -77.5t18.5 -79t32 -70t48.5 -50t67.5 -19q40 0 69 19.5t48.5 51t31.5 71t18 80t8 78.5t2 66q0 26 -3 62.5t-10 75.5t-19.5 77.5t-32.5 68.5t-48 49t-65 19zM424 922q9 -13 3 -23q-6 -11 -17 -1l-112 105l-111 -106q-9 -9 -16 2q-6 11 2 23l97 141
q9 13 21 13h16q11 0 20 -13z" />
    <glyph glyph-name="Otilde" unicode="&#xd5;" 
d="M298 -16q-61 0 -111 29.5t-86 82.5t-56 127.5t-20 165.5q0 89 20 162t56 125t86 81t111 29q62 0 112 -30.5t86 -84t55.5 -127t19.5 -159.5q0 -90 -20 -163.5t-56 -126.5t-86.5 -82t-110.5 -29zM298 744q-38 0 -66 -19t-48 -50t-32 -70t-19 -79t-9.5 -77t-2.5 -63
q0 -27 2.5 -64.5t9 -77.5t18.5 -79t32 -70t48.5 -50t67.5 -19q40 0 69 19.5t48.5 51t31.5 71t18 80t8 78.5t2 66q0 26 -3 62.5t-10 75.5t-19.5 77.5t-32.5 68.5t-48 49t-65 19zM426 1033q10 0 8 -10q-13 -61 -32.5 -87t-52.5 -26q-16 0 -29 5t-39 23l-19 12q-21 13 -34 13
q-23 0 -33 -11.5t-17 -35.5q-1 -6 -7 -6q-10 0 -8 9q10 53 31 80.5t51 27.5q28 0 59 -21l20 -14q23 -17 44 -17q14 0 28.5 10t22.5 42q2 6 7 6z" />
    <glyph glyph-name="Odieresis" unicode="&#xd6;" 
d="M298 -16q-61 0 -111 29.5t-86 82.5t-56 127.5t-20 165.5q0 89 20 162t56 125t86 81t111 29q62 0 112 -30.5t86 -84t55.5 -127t19.5 -159.5q0 -90 -20 -163.5t-56 -126.5t-86.5 -82t-110.5 -29zM298 744q-38 0 -66 -19t-48 -50t-32 -70t-19 -79t-9.5 -77t-2.5 -63
q0 -27 2.5 -64.5t9 -77.5t18.5 -79t32 -70t48.5 -50t67.5 -19q40 0 69 19.5t48.5 51t31.5 71t18 80t8 78.5t2 66q0 26 -3 62.5t-10 75.5t-19.5 77.5t-32.5 68.5t-48 49t-65 19zM218 1000q17 0 29 -13t12 -31t-12 -31t-29 -13t-28.5 13t-11.5 31t11.5 31t28.5 13zM378 1000
q17 0 28.5 -13t11.5 -31t-11.5 -31t-28.5 -13t-28.5 13t-11.5 31t11.5 31t28.5 13z" />
    <glyph glyph-name="Oslash" unicode="&#xd8;" 
d="M510 765l-25 -48q-8 -17 3 -33q40 -54 61.5 -130.5t21.5 -168.5q0 -90 -20 -163.5t-56 -126.5t-86.5 -82t-110.5 -29q-81 0 -144 52q-5 5 -12 3.5t-10 -7.5l-20 -40q-2 -3 -5.5 -4t-6.5 1l-10 5q-8 4 -3 12l24 47q8 17 -2 32q-40 54 -62 131t-22 173q0 89 20 162t56 125
t86 81t111 29q82 0 144 -53q5 -5 12 -3.5t10 8.5l21 40q2 4 5.5 5t6.5 -1l10 -5q8 -4 3 -12zM121 386q0 -19 1 -44t4 -52.5t8 -56.5t13 -56q3 -11 14 -11q8 0 13 8l228 443q11 21 8 44.5t-19 40.5q-18 20 -41 31t-52 11q-38 0 -66 -19t-48 -50t-32 -70t-19 -79t-9.5 -77
t-2.5 -63zM299 26q40 0 69 19.5t48.5 51t31.5 71t18 80t8 78.5t2 66q0 37 -5.5 91.5t-22.5 108.5q-3 10 -13 10q-8 0 -13 -8l-228 -442q-11 -22 -7.5 -46.5t21.5 -41.5q36 -38 91 -38z" />
    <glyph glyph-name="Ugrave" unicode="&#xd9;" horiz-adv-x="627" 
d="M605 755q0 -12 -13 -15q-22 -4 -35 -12.5t-20 -25t-9 -42.5t-2 -65v-291q0 -42 -1.5 -76t-6.5 -62t-14 -51.5t-23 -45.5q-53 -85 -169 -85q-67 0 -108.5 26.5t-63.5 70t-29.5 98.5t-7.5 111v355q0 27 -2 44.5t-8.5 28t-19 15.5t-32.5 8q-13 2 -13 14q0 6 4 10.5t11 4.5
h206q6 0 10.5 -4.5t4.5 -10.5q0 -12 -12 -14q-21 -3 -33.5 -9t-19.5 -18t-9 -31.5t-2 -49.5v-357q0 -34 1 -61.5t5 -50t11 -41.5t20 -36q18 -24 44.5 -38t62.5 -14q40 0 73.5 18.5t53.5 50.5q10 17 16 35.5t9 40t4 49t1 62.5v300q0 42 -2.5 69.5t-9 44.5t-19.5 25t-34 11
q-13 2 -13 14q0 6 4.5 10.5t10.5 4.5h164q6 0 10.5 -4.5t4.5 -10.5zM242 990q-16 11 -21 21q-5 12 -5 26q0 13 8 26q9 12 24 12q11 0 18 -4q4 -2 7.5 -5.5l8.5 -8.5l120 -131q14 -13 8 -25q-5 -12 -20 -5z" />
    <glyph glyph-name="Uacute" unicode="&#xda;" horiz-adv-x="627" 
d="M605 755q0 -12 -13 -15q-22 -4 -35 -12.5t-20 -25t-9 -42.5t-2 -65v-291q0 -42 -1.5 -76t-6.5 -62t-14 -51.5t-23 -45.5q-53 -85 -169 -85q-67 0 -108.5 26.5t-63.5 70t-29.5 98.5t-7.5 111v355q0 27 -2 44.5t-8.5 28t-19 15.5t-32.5 8q-13 2 -13 14q0 6 4 10.5t11 4.5
h206q6 0 10.5 -4.5t4.5 -10.5q0 -12 -12 -14q-21 -3 -33.5 -9t-19.5 -18t-9 -31.5t-2 -49.5v-357q0 -34 1 -61.5t5 -50t11 -41.5t20 -36q18 -24 44.5 -38t62.5 -14q40 0 73.5 18.5t53.5 50.5q10 17 16 35.5t9 40t4 49t1 62.5v300q0 42 -2.5 69.5t-9 44.5t-19.5 25t-34 11
q-13 2 -13 14q0 6 4.5 10.5t10.5 4.5h164q6 0 10.5 -4.5t4.5 -10.5zM236 896q-13 -9 -19 5q-6 12 8 25l120 130q5 8 14.5 13.5t19.5 5.5q15 0 24 -12q8 -13 8 -26q0 -15 -6 -27q-5 -11 -20 -20z" />
    <glyph glyph-name="Ucircumflex" unicode="&#xdb;" horiz-adv-x="627" 
d="M605 755q0 -12 -13 -15q-22 -4 -35 -12.5t-20 -25t-9 -42.5t-2 -65v-291q0 -42 -1.5 -76t-6.5 -62t-14 -51.5t-23 -45.5q-53 -85 -169 -85q-67 0 -108.5 26.5t-63.5 70t-29.5 98.5t-7.5 111v355q0 27 -2 44.5t-8.5 28t-19 15.5t-32.5 8q-13 2 -13 14q0 6 4 10.5t11 4.5
h206q6 0 10.5 -4.5t4.5 -10.5q0 -12 -12 -14q-21 -3 -33.5 -9t-19.5 -18t-9 -31.5t-2 -49.5v-357q0 -34 1 -61.5t5 -50t11 -41.5t20 -36q18 -24 44.5 -38t62.5 -14q40 0 73.5 18.5t53.5 50.5q10 17 16 35.5t9 40t4 49t1 62.5v300q0 42 -2.5 69.5t-9 44.5t-19.5 25t-34 11
q-13 2 -13 14q0 6 4.5 10.5t10.5 4.5h164q6 0 10.5 -4.5t4.5 -10.5zM439 922q9 -13 3 -23q-6 -11 -17 -1l-112 105l-111 -106q-9 -9 -16 2q-6 11 2 23l97 141q9 13 21 13h16q11 0 20 -13z" />
    <glyph glyph-name="Udieresis" unicode="&#xdc;" horiz-adv-x="627" 
d="M605 755q0 -12 -13 -15q-22 -4 -35 -12.5t-20 -25t-9 -42.5t-2 -65v-291q0 -42 -1.5 -76t-6.5 -62t-14 -51.5t-23 -45.5q-53 -85 -169 -85q-67 0 -108.5 26.5t-63.5 70t-29.5 98.5t-7.5 111v355q0 27 -2 44.5t-8.5 28t-19 15.5t-32.5 8q-13 2 -13 14q0 6 4 10.5t11 4.5
h206q6 0 10.5 -4.5t4.5 -10.5q0 -12 -12 -14q-21 -3 -33.5 -9t-19.5 -18t-9 -31.5t-2 -49.5v-357q0 -34 1 -61.5t5 -50t11 -41.5t20 -36q18 -24 44.5 -38t62.5 -14q40 0 73.5 18.5t53.5 50.5q10 17 16 35.5t9 40t4 49t1 62.5v300q0 42 -2.5 69.5t-9 44.5t-19.5 25t-34 11
q-13 2 -13 14q0 6 4.5 10.5t10.5 4.5h164q6 0 10.5 -4.5t4.5 -10.5zM233 1000q17 0 29 -13t12 -31t-12 -31t-29 -13t-28.5 13t-11.5 31t11.5 31t28.5 13zM393 1000q17 0 28.5 -13t11.5 -31t-11.5 -31t-28.5 -13t-28.5 13t-11.5 31t11.5 31t28.5 13z" />
    <glyph glyph-name="Yacute" unicode="&#xdd;" horiz-adv-x="579" 
d="M574 755q0 -12 -13 -14q-16 -2 -28 -9t-23 -21t-23.5 -36.5t-28.5 -56.5l-115 -247q-8 -19 -8 -39v-197q0 -32 3 -52t11.5 -31t22.5 -16t36 -7q13 -2 13 -14q0 -6 -4.5 -10.5t-10.5 -4.5h-226q-6 0 -10.5 4.5t-4.5 10.5q0 12 13 14q24 3 38 8.5t21.5 18t10 35t2.5 58.5
v172q0 11 -2.5 20.5t-7.5 19.5l-100 204q-26 53 -43.5 86t-31 52.5t-25 27.5t-23.5 10t-12 14q0 6 4.5 10.5t10.5 4.5h204q14 0 14 -14t-13 -14q-14 -1 -30 -6t-16 -20q0 -5 2 -19t18 -46l109 -230q2 -5 7.5 -5t7.5 5l114 242q6 13 8.5 26t2.5 23q0 14 -9 20.5t-34 8.5
q-13 2 -13 15q0 14 14 14h153q6 0 10.5 -4.5t4.5 -10.5zM212 896q-13 -9 -19 5q-6 12 8 25l120 130q5 8 14.5 13.5t19.5 5.5q15 0 24 -12q8 -13 8 -26q0 -15 -6 -27q-5 -11 -20 -20z" />
    <glyph glyph-name="Amacron" unicode="&#x100;" horiz-adv-x="583" 
d="M569 29q12 -2 12 -14q0 -6 -4.5 -10.5t-10.5 -4.5h-184q-7 0 -11 5t-3 12q2 10 13 12q18 2 31 9.5t13 22.5q0 13 -3.5 34.5t-11.5 46.5l-33 104q-2 5 -8 5h-206q-6 0 -8 -6l-37 -126q-3 -11 -5 -24.5t-2 -24.5q0 -24 11 -32t34 -10q5 0 9.5 -4.5t3.5 -10.5q0 -5 -4.5 -9
t-9.5 -4h-137q-8 0 -12 5.5t-2 13.5t12 10q14 3 24 12t19.5 29t20.5 55.5t28 90.5l171 563q2 9 11 7q6 -2 8 -7l204 -650q8 -25 14 -43t13.5 -30t16.5 -18t23 -9zM353 299q4 0 6.5 3t0.5 7l-82 272q-1 8 -11 8q-8 0 -11 -8l-82 -272q-2 -4 0.5 -7t7.5 -3h171zM188 950v35
q0 14 14 14h180q14 0 14 -14v-35q0 -5 -4 -9.5t-10 -4.5h-180q-6 0 -10 4.5t-4 9.5z" />
    <glyph glyph-name="Abreve" unicode="&#x102;" horiz-adv-x="583" 
d="M569 29q12 -2 12 -14q0 -6 -4.5 -10.5t-10.5 -4.5h-184q-7 0 -11 5t-3 12q2 10 13 12q18 2 31 9.5t13 22.5q0 13 -3.5 34.5t-11.5 46.5l-33 104q-2 5 -8 5h-206q-6 0 -8 -6l-37 -126q-3 -11 -5 -24.5t-2 -24.5q0 -24 11 -32t34 -10q5 0 9.5 -4.5t3.5 -10.5q0 -5 -4.5 -9
t-9.5 -4h-137q-8 0 -12 5.5t-2 13.5t12 10q14 3 24 12t19.5 29t20.5 55.5t28 90.5l171 563q2 9 11 7q6 -2 8 -7l204 -650q8 -25 14 -43t13.5 -30t16.5 -18t23 -9zM353 299q4 0 6.5 3t0.5 7l-82 272q-1 8 -11 8q-8 0 -11 -8l-82 -272q-2 -4 0.5 -7t7.5 -3h171zM292 893
q-29 0 -50 15t-35.5 38.5t-22.5 50.5t-11 51q-3 21 8 21q9 0 12 -14q8 -41 31 -68.5t68 -27.5t68 27.5t31 68.5q3 14 12 14q11 0 8 -21q-3 -24 -11 -51t-22 -50.5t-35.5 -38.5t-50.5 -15z" />
    <glyph glyph-name="Aogonek" unicode="&#x104;" horiz-adv-x="583" 
d="M568 30q13 -4 13 -15q0 -6 -4.5 -10.5t-10.5 -4.5h-5q-11 0 -20 -7q-15 -12 -32 -27.5t-31.5 -33t-24 -37t-9.5 -38.5q0 -14 10 -22.5t26 -8.5q12 0 29 7.5t29 29.5q4 7 12 4q8 -2 6 -12q-9 -42 -36 -68t-54 -26q-26 0 -47 17t-21 59q0 36 27 73.5t87 80.5q3 2 2 5.5
t-5 3.5h-127q-7 0 -11 5t-3 12q2 10 13 12q18 2 31 9.5t13 22.5q0 13 -3.5 34.5t-11.5 46.5l-33 104q-2 5 -8 5h-206q-6 0 -8 -6l-37 -126q-3 -11 -5 -24.5t-2 -24.5q0 -24 11 -32t34 -10q6 0 10 -4.5t3 -10.5q0 -5 -4.5 -9t-10.5 -4h-136q-7 0 -11.5 5t-3.5 12q2 10 13 12
q14 3 24 12t19.5 29.5t21 55.5t27.5 90l171 563q2 9 11 7q6 -2 8 -7l204 -650q8 -25 14 -43t13 -29.5t16.5 -18t22.5 -8.5zM353 299q4 0 6.5 3t0.5 7l-92 305h-3l-91 -305q-2 -4 0.5 -7t7.5 -3h171z" />
    <glyph glyph-name="Cacute" unicode="&#x106;" horiz-adv-x="555" 
d="M527 138q5 -7 1 -14q-37 -69 -94.5 -104.5t-129.5 -35.5q-57 0 -108.5 26.5t-88.5 76.5q-38 53 -59 128.5t-21 162.5q0 88 20 159.5t55 127.5q41 63 92.5 92t110.5 29t99 -9.5t75 -25.5q14 -6 22 -18.5t8 -27.5l12 -172q0 -11 -10 -11q-8 0 -10 9q-9 41 -22.5 78.5
t-34 66.5t-50 46.5t-70.5 17.5q-50 0 -87.5 -25.5t-62.5 -71t-37.5 -108.5t-12.5 -138q0 -97 15.5 -165t44.5 -113q28 -42 66.5 -63t82.5 -21q26 0 48.5 6t42.5 18.5t40 32.5t41 47q5 5 11.5 5t10.5 -6zM200 896q-13 -9 -19 5q-6 12 8 25l120 130q5 8 14.5 13.5t19.5 5.5
q15 0 24 -12q8 -13 8 -26q0 -15 -6 -27q-5 -11 -20 -20z" />
    <glyph glyph-name="Ccircumflex" unicode="&#x108;" horiz-adv-x="555" 
d="M527 138q5 -7 1 -14q-37 -69 -94.5 -104.5t-129.5 -35.5q-57 0 -108.5 26.5t-88.5 76.5q-38 53 -59 128.5t-21 162.5q0 88 20 159.5t55 127.5q41 63 92.5 92t110.5 29t99 -9.5t75 -25.5q14 -6 22 -18.5t8 -27.5l12 -172q0 -11 -10 -11q-8 0 -10 9q-9 41 -22.5 78.5
t-34 66.5t-50 46.5t-70.5 17.5q-50 0 -87.5 -25.5t-62.5 -71t-37.5 -108.5t-12.5 -138q0 -97 15.5 -165t44.5 -113q28 -42 66.5 -63t82.5 -21q26 0 48.5 6t42.5 18.5t40 32.5t41 47q5 5 11.5 5t10.5 -6zM403 922q9 -13 3 -23q-6 -11 -17 -1l-112 105l-111 -106q-9 -9 -16 2
q-6 11 2 23l97 141q9 13 21 13h16q11 0 20 -13z" />
    <glyph glyph-name="Cdotaccent" unicode="&#x10a;" horiz-adv-x="555" 
d="M527 138q5 -7 1 -14q-37 -69 -94.5 -104.5t-129.5 -35.5q-57 0 -108.5 26.5t-88.5 76.5q-38 53 -59 128.5t-21 162.5q0 88 20 159.5t55 127.5q41 63 92.5 92t110.5 29t99 -9.5t75 -25.5q14 -6 22 -18.5t8 -27.5l12 -172q0 -11 -10 -11q-8 0 -10 9q-9 41 -22.5 78.5
t-34 66.5t-50 46.5t-70.5 17.5q-50 0 -87.5 -25.5t-62.5 -71t-37.5 -108.5t-12.5 -138q0 -97 15.5 -165t44.5 -113q28 -42 66.5 -63t82.5 -21q26 0 48.5 6t42.5 18.5t40 32.5t41 47q5 5 11.5 5t10.5 -6zM324 990q0 -21 -13 -35.5t-33 -14.5t-33 14.5t-13 35.5t13 35.5
t33 14.5t33 -14.5t13 -35.5z" />
    <glyph glyph-name="Ccaron" unicode="&#x10c;" horiz-adv-x="555" 
d="M527 138q5 -7 1 -14q-37 -69 -94.5 -104.5t-129.5 -35.5q-57 0 -108.5 26.5t-88.5 76.5q-38 53 -59 128.5t-21 162.5q0 88 20 159.5t55 127.5q41 63 92.5 92t110.5 29t99 -9.5t75 -25.5q14 -6 22 -18.5t8 -27.5l12 -172q0 -11 -10 -11q-8 0 -10 9q-9 41 -22.5 78.5
t-34 66.5t-50 46.5t-70.5 17.5q-50 0 -87.5 -25.5t-62.5 -71t-37.5 -108.5t-12.5 -138q0 -97 15.5 -165t44.5 -113q28 -42 66.5 -63t82.5 -21q26 0 48.5 6t42.5 18.5t40 32.5t41 47q5 5 11.5 5t10.5 -6zM270 893q-12 0 -21 13l-97 142q-8 11 -3 22q7 10 17 2l111 -106
l112 105q11 10 17 -1q6 -10 -3 -22l-97 -142q-9 -13 -20 -13h-16z" />
    <glyph glyph-name="Dcaron" unicode="&#x10e;" horiz-adv-x="610" 
d="M251 770q88 0 151 -29.5t103.5 -81t60 -121t19.5 -150.5q0 -78 -18.5 -148.5t-58 -124t-100.5 -84.5t-147 -31h-220q-6 0 -10.5 4.5t-4.5 10.5q0 12 13 14q20 3 32 8.5t18.5 17.5t8.5 32.5t2 52.5v494q0 32 -2 51.5t-9 31t-18.5 16.5t-31.5 8q-13 2 -13 14q0 6 4.5 10.5
t10.5 4.5h210zM185 98q0 -31 7.5 -43t32.5 -12q79 0 131 26t82.5 71.5t43 107.5t12.5 134q0 65 -13.5 127t-44.5 110.5t-81.5 78t-125.5 29.5q-24 0 -34 -10t-10 -39v-580zM297 893q-12 0 -21 13l-97 142q-8 11 -3 22q7 10 17 2l111 -106l112 105q11 10 17 -1q6 -10 -3 -22
l-97 -142q-9 -13 -20 -13h-16z" />
    <glyph glyph-name="Dcroat" unicode="&#x110;" horiz-adv-x="610" 
d="M251 770q88 0 151 -29.5t103.5 -81t60 -121t19.5 -150.5q0 -78 -18.5 -148.5t-58 -124t-100.5 -84.5t-147 -31h-220q-7 0 -11.5 5t-3.5 12q1 5 4.5 8t8.5 4q20 3 32 8.5t18.5 17.5t8.5 32.5t2 52.5v198q0 7 -5 11.5t-11 4.5h-32q-6 0 -10.5 4t-4.5 10v34q0 6 4.5 10
t10.5 4h32q6 0 11 4.5t5 11.5v202q0 32 -2 51.5t-9 31t-18.5 16.5t-31.5 8q-6 1 -10 5.5t-3 10.5q2 13 15 13h210zM225 43q79 0 131 26t82.5 71.5t43 107.5t12.5 134q0 65 -13.5 127t-44.5 110.5t-81.5 78t-125.5 29.5q-24 0 -34 -10t-10 -39v-246q0 -7 4.5 -11.5t10.5 -4.5
h32q5 0 9.5 -4t4.5 -10v-34q0 -6 -4.5 -10t-9.5 -4h-32q-6 0 -10.5 -4.5t-4.5 -11.5v-240q0 -31 7.5 -43t32.5 -12z" />
    <glyph glyph-name="Emacron" unicode="&#x112;" horiz-adv-x="516" 
d="M481 233q12 0 12 -13l-15 -200q0 -8 -6.5 -14t-14.5 -6h-415q-6 0 -10.5 4.5t-4.5 10.5q0 12 13 14q20 3 31.5 8.5t18 17.5t8.5 32t2 51v496q0 30 -2 49.5t-8.5 31.5t-18.5 18t-31 8q-13 2 -13 14q0 6 4.5 10.5t10.5 4.5h390q10 0 17 -6.5t8 -16.5l22 -179q3 -17 -11 -17
q-11 0 -13 10q-13 91 -47.5 128t-99.5 37h-94q-17 0 -23 -7t-6 -35v-214q0 -17 12.5 -29.5t29.5 -12.5h84q26 0 42.5 3t26.5 13.5t15 29.5t9 50q2 9 10 9q10 0 10 -11v-257q0 -10 -10 -10q-8 0 -10 9q-4 34 -9 56.5t-15 35.5t-26.5 18.5t-42.5 5.5h-84q-17 0 -29.5 -12.5
t-12.5 -29.5v-240q0 -18 4.5 -29t14.5 -17t26 -7.5t39 -1.5h30q46 0 76 14t49 38.5t29 57.5t16 70q2 10 12 10zM166 950v35q0 14 14 14h180q14 0 14 -14v-35q0 -5 -4 -9.5t-10 -4.5h-180q-6 0 -10 4.5t-4 9.5z" />
    <glyph glyph-name="Ebreve" unicode="&#x114;" horiz-adv-x="516" 
d="M481 233q12 0 12 -13l-15 -200q0 -8 -6.5 -14t-14.5 -6h-415q-6 0 -10.5 4.5t-4.5 10.5q0 12 13 14q20 3 31.5 8.5t18 17.5t8.5 32t2 51v496q0 30 -2 49.5t-8.5 31.5t-18.5 18t-31 8q-13 2 -13 14q0 6 4.5 10.5t10.5 4.5h390q10 0 17 -6.5t8 -16.5l22 -179q3 -17 -11 -17
q-11 0 -13 10q-13 91 -47.5 128t-99.5 37h-94q-17 0 -23 -7t-6 -35v-214q0 -17 12.5 -29.5t29.5 -12.5h84q26 0 42.5 3t26.5 13.5t15 29.5t9 50q2 9 10 9q10 0 10 -11v-257q0 -10 -10 -10q-8 0 -10 9q-4 34 -9 56.5t-15 35.5t-26.5 18.5t-42.5 5.5h-84q-17 0 -29.5 -12.5
t-12.5 -29.5v-240q0 -18 4.5 -29t14.5 -17t26 -7.5t39 -1.5h30q46 0 76 14t49 38.5t29 57.5t16 70q2 10 12 10zM270 893q-29 0 -50 15t-35.5 38.5t-22.5 50.5t-11 51q-3 21 8 21q9 0 12 -14q8 -41 31 -68.5t68 -27.5t68 27.5t31 68.5q3 14 12 14q11 0 8 -21q-3 -24 -11 -51
t-22 -50.5t-35.5 -38.5t-50.5 -15z" />
    <glyph glyph-name="Edotaccent" unicode="&#x116;" horiz-adv-x="516" 
d="M481 233q12 0 12 -13l-15 -200q0 -8 -6.5 -14t-14.5 -6h-415q-6 0 -10.5 4.5t-4.5 10.5q0 12 13 14q20 3 31.5 8.5t18 17.5t8.5 32t2 51v496q0 30 -2 49.5t-8.5 31.5t-18.5 18t-31 8q-13 2 -13 14q0 6 4.5 10.5t10.5 4.5h390q10 0 17 -6.5t8 -16.5l22 -179q3 -17 -11 -17
q-11 0 -13 10q-13 91 -47.5 128t-99.5 37h-94q-17 0 -23 -7t-6 -35v-214q0 -17 12.5 -29.5t29.5 -12.5h84q26 0 42.5 3t26.5 13.5t15 29.5t9 50q2 9 10 9q10 0 10 -11v-257q0 -10 -10 -10q-8 0 -10 9q-4 34 -9 56.5t-15 35.5t-26.5 18.5t-42.5 5.5h-84q-17 0 -29.5 -12.5
t-12.5 -29.5v-240q0 -18 4.5 -29t14.5 -17t26 -7.5t39 -1.5h30q46 0 76 14t49 38.5t29 57.5t16 70q2 10 12 10zM316 990q0 -21 -13 -35.5t-33 -14.5t-33 14.5t-13 35.5t13 35.5t33 14.5t33 -14.5t13 -35.5z" />
    <glyph glyph-name="Eogonek" unicode="&#x118;" horiz-adv-x="516" 
d="M479 233q6 1 10 -3t4 -10l-15 -200q0 -8 -6.5 -14t-14.5 -6h-9q-15 0 -26 -9q-15 -12 -31.5 -27.5t-30.5 -33t-23 -36t-9 -37.5q0 -14 9.5 -22.5t25.5 -8.5q13 0 29.5 7.5t28.5 29.5q5 7 12 4q9 -2 7 -12q-10 -42 -36.5 -68t-53.5 -26t-47.5 17t-20.5 59q0 36 26.5 72.5
t83.5 78.5q4 3 3 7.5t-6 4.5h-347q-6 0 -10.5 4.5t-4.5 10.5q0 12 13 14q20 3 31.5 8.5t18 17.5t8.5 32t2 51v496q0 30 -2 49.5t-8.5 31.5t-18.5 18t-31 8q-6 1 -10 5.5t-3 10.5q2 13 15 13h390q10 0 17 -6.5t8 -16.5l22 -179q3 -17 -11 -17q-11 0 -13 10q-13 91 -47.5 128
t-99.5 37h-94q-17 0 -23 -7t-6 -35v-214q0 -17 12.5 -29.5t29.5 -12.5h84q26 0 42.5 3t26.5 13.5t15 29.5t9 50q2 9 10 9q10 0 10 -11v-257q0 -10 -10 -10q-8 2 -10 10q-4 34 -9 56t-15 35t-26.5 18.5t-42.5 5.5h-84q-17 0 -29.5 -12.5t-12.5 -29.5v-240q0 -18 4.5 -29
t14.5 -17t26 -7.5t39 -1.5h30q46 0 76 14t49 38.5t29 57t16 69.5q2 11 10 11z" />
    <glyph glyph-name="Ecaron" unicode="&#x11a;" horiz-adv-x="516" 
d="M481 233q12 0 12 -13l-15 -200q0 -8 -6.5 -14t-14.5 -6h-415q-6 0 -10.5 4.5t-4.5 10.5q0 12 13 14q20 3 31.5 8.5t18 17.5t8.5 32t2 51v496q0 30 -2 49.5t-8.5 31.5t-18.5 18t-31 8q-13 2 -13 14q0 6 4.5 10.5t10.5 4.5h390q10 0 17 -6.5t8 -16.5l22 -179q3 -17 -11 -17
q-11 0 -13 10q-13 91 -47.5 128t-99.5 37h-94q-17 0 -23 -7t-6 -35v-214q0 -17 12.5 -29.5t29.5 -12.5h84q26 0 42.5 3t26.5 13.5t15 29.5t9 50q2 9 10 9q10 0 10 -11v-257q0 -10 -10 -10q-8 0 -10 9q-4 34 -9 56.5t-15 35.5t-26.5 18.5t-42.5 5.5h-84q-17 0 -29.5 -12.5
t-12.5 -29.5v-240q0 -18 4.5 -29t14.5 -17t26 -7.5t39 -1.5h30q46 0 76 14t49 38.5t29 57.5t16 70q2 10 12 10zM262 893q-12 0 -21 13l-97 142q-8 11 -3 22q7 10 17 2l111 -106l112 105q11 10 17 -1q6 -10 -3 -22l-97 -142q-9 -13 -20 -13h-16z" />
    <glyph glyph-name="Gcircumflex" unicode="&#x11c;" horiz-adv-x="584" 
d="M568 412q14 0 14 -15q0 -12 -11 -14t-18.5 -7t-11.5 -15.5t-5.5 -27t-1.5 -42.5v-207q0 -20 -10.5 -37.5t-29.5 -26.5q-35 -17 -79 -26.5t-93 -9.5q-64 0 -123.5 32t-101.5 92q-71 102 -72 269q0 88 20 160t56 128q40 63 92 92t110 29q59 0 99 -9.5t75 -25.5
q28 -13 30 -46l13 -172q0 -11 -11 -11q-8 0 -10 9q-9 41 -22.5 78.5t-34 66.5t-49.5 46.5t-70 17.5q-50 0 -88 -28.5t-63 -77.5t-37.5 -115t-12.5 -142q0 -81 16 -145.5t45 -109t69.5 -68.5t89.5 -24q48 0 79.5 21t31.5 50v176q0 32 -5.5 51.5t-17 31t-29 16t-42.5 7.5
q-6 1 -10 5.5t-3 10.5q2 13 15 13h207zM429 922q9 -13 3 -23q-6 -11 -17 -1l-112 105l-111 -106q-9 -9 -16 2q-6 11 2 23l97 141q9 13 21 13h16q11 0 20 -13z" />
    <glyph glyph-name="Gbreve" unicode="&#x11e;" horiz-adv-x="584" 
d="M568 412q14 0 14 -15q0 -12 -11 -14t-18.5 -7t-11.5 -15.5t-5.5 -27t-1.5 -42.5v-207q0 -20 -10.5 -37.5t-29.5 -26.5q-35 -17 -79 -26.5t-93 -9.5q-64 0 -123.5 32t-101.5 92q-71 102 -72 269q0 88 20 160t56 128q40 63 92 92t110 29q59 0 99 -9.5t75 -25.5
q28 -13 30 -46l13 -172q0 -11 -11 -11q-8 0 -10 9q-9 41 -22.5 78.5t-34 66.5t-49.5 46.5t-70 17.5q-50 0 -88 -28.5t-63 -77.5t-37.5 -115t-12.5 -142q0 -81 16 -145.5t45 -109t69.5 -68.5t89.5 -24q48 0 79.5 21t31.5 50v176q0 32 -5.5 51.5t-17 31t-29 16t-42.5 7.5
q-6 1 -10 5.5t-3 10.5q2 13 15 13h207zM304 893q-29 0 -50 15t-35.5 38.5t-22.5 50.5t-11 51q-3 21 8 21q9 0 12 -14q8 -41 31 -68.5t68 -27.5t68 27.5t31 68.5q3 14 12 14q11 0 8 -21q-3 -24 -11 -51t-22 -50.5t-35.5 -38.5t-50.5 -15z" />
    <glyph glyph-name="Gdotaccent" unicode="&#x120;" horiz-adv-x="584" 
d="M568 412q14 0 14 -15q0 -12 -11 -14t-18.5 -7t-11.5 -15.5t-5.5 -27t-1.5 -42.5v-207q0 -20 -10.5 -37.5t-29.5 -26.5q-35 -17 -79 -26.5t-93 -9.5q-64 0 -123.5 32t-101.5 92q-71 102 -72 269q0 88 20 160t56 128q40 63 92 92t110 29q59 0 99 -9.5t75 -25.5
q28 -13 30 -46l13 -172q0 -11 -11 -11q-8 0 -10 9q-9 41 -22.5 78.5t-34 66.5t-49.5 46.5t-70 17.5q-50 0 -88 -28.5t-63 -77.5t-37.5 -115t-12.5 -142q0 -81 16 -145.5t45 -109t69.5 -68.5t89.5 -24q48 0 79.5 21t31.5 50v176q0 32 -5.5 51.5t-17 31t-29 16t-42.5 7.5
q-6 1 -10 5.5t-3 10.5q2 13 15 13h207zM350 990q0 -21 -13 -35.5t-33 -14.5t-33 14.5t-13 35.5t13 35.5t33 14.5t33 -14.5t13 -35.5z" />
    <glyph glyph-name="Hcircumflex" unicode="&#x124;" horiz-adv-x="642" 
d="M601 741q-22 -2 -35.5 -7.5t-21 -17t-10 -31t-2.5 -50.5v-499q0 -30 3 -50t10.5 -32t21 -17.5t34.5 -7.5q13 -2 13 -15q0 -14 -14 -14h-219q-7 0 -11.5 5t-3.5 12q4 11 14 12q22 2 35 7t20 17t9.5 32t2.5 51v218q0 12 -12 12h-229q-13 0 -13 -12v-218q0 -30 3 -50
t10.5 -32t21 -17.5t34.5 -7.5q13 -2 13 -15q0 -14 -14 -14h-220q-6 0 -10.5 5t-3.5 12q2 10 14 12q22 2 35 7t20 17t9.5 32t2.5 51v499q0 32 -2.5 52t-9.5 31t-20.5 16t-35.5 7q-13 2 -13 14v1q0 14 14 14h220q14 0 14 -14v-1q0 -12 -13 -14q-22 -2 -35.5 -7.5t-21 -17
t-10 -31t-2.5 -50.5v-205q0 -12 13 -12h229q12 0 12 12v205q0 32 -2.5 52t-9.5 31t-20.5 16t-35.5 7q-13 2 -13 14v1q0 6 4.5 10t10.5 4h219q14 0 14 -14v-1q0 -12 -13 -14zM446 922q9 -13 3 -23q-6 -11 -17 -1l-112 105l-111 -106q-9 -9 -16 2q-6 11 2 23l97 141
q9 13 21 13h16q11 0 20 -13z" />
    <glyph glyph-name="Hbar" unicode="&#x126;" horiz-adv-x="642" 
d="M601 741q-19 -2 -31.5 -6t-20.5 -12.5t-11.5 -22.5t-4.5 -36q0 -16 16 -16h28q6 0 10 -4.5t4 -9.5v-35q0 -14 -14 -14h-29q-16 0 -16 -16v-433q0 -30 3 -50t10.5 -32t21 -17.5t34.5 -7.5q13 -2 13 -15q0 -14 -14 -14h-219q-7 0 -11.5 5t-3.5 12q4 11 14 12q22 2 35 7
t20 17t9.5 32t2.5 51v218q0 12 -12 12h-229q-13 0 -13 -12v-218q0 -30 3 -50t10.5 -32t21 -17.5t34.5 -7.5q13 -2 13 -15q0 -14 -14 -14h-220q-6 0 -10.5 5t-3.5 12q2 10 14 12q22 2 35 7t20 17t9.5 32t2.5 51v433q0 16 -16 16h-28q-14 0 -14 14v35q0 5 4 9.5t10 4.5h28
q16 0 16 16q-1 23 -4.5 37t-11 22t-20 12t-32.5 6q-13 2 -13 14v1q0 14 14 14h220q14 0 14 -14v-1q0 -12 -13 -14q-19 -2 -31.5 -6t-20.5 -12.5t-11.5 -22.5t-4.5 -36q-1 -7 3.5 -11.5t11.5 -4.5h222q16 0 16 16q-1 23 -4.5 37t-11 22t-20 12t-32.5 6q-13 2 -13 14v1
q0 6 4.5 10t10.5 4h219q14 0 14 -14v-1q0 -12 -13 -14zM447 569q0 7 -4.5 11.5t-10.5 4.5h-223q-16 0 -16 -16v-139q0 -12 13 -12h229q12 0 12 12v139z" />
    <glyph glyph-name="Itilde" unicode="&#x128;" horiz-adv-x="338" 
d="M45 14q0 13 13 15q22 2 35.5 7t20.5 16.5t9.5 31.5t2.5 52v499q0 32 -2.5 52t-9.5 31t-20.5 16t-35.5 7q-13 2 -13 14v1q0 14 14 14h220q14 0 14 -14v-1q0 -12 -13 -14q-22 -2 -35.5 -7.5t-21 -17t-10 -31t-2.5 -50.5v-499q0 -30 3 -50t10.5 -32t21 -17.5t34.5 -7.5
q13 -2 13 -15q0 -14 -14 -14h-220q-14 0 -14 14zM297 1033q10 0 8 -10q-13 -61 -32.5 -87t-52.5 -26q-16 0 -29 5t-39 23l-19 12q-21 13 -34 13q-23 0 -33 -11.5t-17 -35.5q-1 -6 -7 -6q-10 0 -8 9q10 53 31 80.5t51 27.5q28 0 59 -21l20 -14q23 -17 44 -17q14 0 28.5 10
t22.5 42q2 6 7 6z" />
    <glyph glyph-name="Imacron" unicode="&#x12a;" horiz-adv-x="338" 
d="M45 14q0 13 13 15q22 2 35.5 7t20.5 16.5t9.5 31.5t2.5 52v499q0 32 -2.5 52t-9.5 31t-20.5 16t-35.5 7q-13 2 -13 14v1q0 14 14 14h220q14 0 14 -14v-1q0 -12 -13 -14q-22 -2 -35.5 -7.5t-21 -17t-10 -31t-2.5 -50.5v-499q0 -30 3 -50t10.5 -32t21 -17.5t34.5 -7.5
q13 -2 13 -15q0 -14 -14 -14h-220q-14 0 -14 14zM65 950v35q0 14 14 14h180q14 0 14 -14v-35q0 -5 -4 -9.5t-10 -4.5h-180q-6 0 -10 4.5t-4 9.5z" />
    <glyph glyph-name="Ibreve" unicode="&#x12c;" horiz-adv-x="338" 
d="M45 14q0 13 13 15q22 2 35.5 7t20.5 16.5t9.5 31.5t2.5 52v499q0 32 -2.5 52t-9.5 31t-20.5 16t-35.5 7q-13 2 -13 14v1q0 14 14 14h220q14 0 14 -14v-1q0 -12 -13 -14q-22 -2 -35.5 -7.5t-21 -17t-10 -31t-2.5 -50.5v-499q0 -30 3 -50t10.5 -32t21 -17.5t34.5 -7.5
q13 -2 13 -15q0 -14 -14 -14h-220q-14 0 -14 14zM169 893q-29 0 -50 15t-35.5 38.5t-22.5 50.5t-11 51q-3 21 8 21q9 0 12 -14q8 -41 31 -68.5t68 -27.5t68 27.5t31 68.5q3 14 12 14q11 0 8 -21q-3 -24 -11 -51t-22 -50.5t-35.5 -38.5t-50.5 -15z" />
    <glyph glyph-name="uni0122" unicode="&#x122;" horiz-adv-x="584" 
d="M568 412q14 0 14 -15q0 -12 -11 -14t-18.5 -7t-11.5 -15.5t-5.5 -27t-1.5 -42.5v-207q0 -20 -10.5 -37.5t-29.5 -26.5q-35 -17 -79 -26.5t-93 -9.5q-64 0 -123.5 32t-101.5 92q-71 102 -72 269q0 88 20 160t56 128q40 63 92 92t110 29q59 0 99 -9.5t75 -25.5
q28 -13 30 -46l13 -172q0 -11 -11 -11q-8 0 -10 9q-9 41 -22.5 78.5t-34 66.5t-49.5 46.5t-70 17.5q-50 0 -88 -28.5t-63 -77.5t-37.5 -115t-12.5 -142q0 -81 16 -145.5t45 -109t69.5 -68.5t89.5 -24q48 0 79.5 21t31.5 50v176q0 32 -5.5 51.5t-17 31t-29 16t-42.5 7.5
q-6 1 -10 5.5t-3 10.5q2 13 15 13h207zM263 -315q-6 7 2 13q18 14 35 35.5t17 53.5q0 13 -10 21t-22 17t-22 22t-10 36q0 28 13 40.5t34 12.5q26 0 40.5 -24t14.5 -66q0 -47 -17 -89t-62 -74q-7 -6 -13 2z" />
    <glyph glyph-name="Iogonek" unicode="&#x12e;" horiz-adv-x="338" 
d="M280 741q-22 -2 -35.5 -7.5t-21 -17t-10 -31t-2.5 -50.5v-499q0 -30 3 -50t10.5 -32t21 -17.5t34.5 -7.5q13 -2 13 -15q0 -14 -14 -14h-16q-23 0 -42 -16q-15 -12 -30 -27t-27.5 -31t-20.5 -33.5t-8 -35.5q0 -14 9.5 -22.5t25.5 -8.5q12 0 29 7.5t29 28.5q3 6 9 6
q5 -1 8 -4.5t1 -8.5q-9 -42 -35.5 -68t-53.5 -26t-47.5 17t-20.5 59q0 35 25.5 71.5t82.5 78.5q5 3 3 8t-7 5h-133q-13 0 -15 13q-1 6 3 10.5t10 5.5q22 2 35.5 7t20.5 16.5t9.5 31.5t2.5 52v499q0 32 -2.5 52t-9.5 31t-20.5 16t-35.5 7q-13 2 -13 14v1q0 14 14 14h220
q14 0 14 -14v-1q0 -12 -13 -14z" />
    <glyph glyph-name="Idotaccent" unicode="&#x130;" horiz-adv-x="338" 
d="M45 14q0 13 13 15q22 2 35.5 7t20.5 16.5t9.5 31.5t2.5 52v499q0 32 -2.5 52t-9.5 31t-20.5 16t-35.5 7q-13 2 -13 14v1q0 14 14 14h220q14 0 14 -14v-1q0 -12 -13 -14q-22 -2 -35.5 -7.5t-21 -17t-10 -31t-2.5 -50.5v-499q0 -30 3 -50t10.5 -32t21 -17.5t34.5 -7.5
q13 -2 13 -15q0 -14 -14 -14h-220q-14 0 -14 14zM215 990q0 -21 -13 -35.5t-33 -14.5t-33 14.5t-13 35.5t13 35.5t33 14.5t33 -14.5t13 -35.5z" />
    <glyph glyph-name="IJ" unicode="&#x132;" horiz-adv-x="654" 
d="M45 14q0 13 13 15q22 2 35.5 7t20.5 16.5t9.5 31.5t2.5 52v499q0 32 -2.5 52t-9.5 31t-20.5 16t-35.5 7q-13 2 -13 14v1q0 14 14 14h220q14 0 14 -14v-1q0 -12 -13 -14q-22 -2 -35.5 -7.5t-21 -17t-10 -31t-2.5 -50.5v-499q0 -30 3 -50t10.5 -32t21 -17.5t34.5 -7.5
q13 -2 13 -15q0 -14 -14 -14h-220q-14 0 -14 14zM631 770q6 0 10.5 -4t4.5 -10v-1q0 -12 -13 -14q-22 -2 -35.5 -7.5t-21 -17t-10 -31t-2.5 -50.5v-431q0 -119 -36.5 -169.5t-103.5 -50.5q-38 0 -61 21t-23 63q0 23 14 41.5t37 18.5q17 0 24.5 -8t10.5 -20.5t3 -26.5
t1 -26.5t4.5 -20.5t13.5 -8q11 0 17 9.5t9 25t4 35t1 40.5v507q0 32 -2.5 52t-9.5 31t-20.5 16t-35.5 7q-13 2 -13 14v1q0 14 14 14h219z" />
    <glyph glyph-name="Jcircumflex" unicode="&#x134;" horiz-adv-x="316" 
d="M293 770q6 0 10.5 -4t4.5 -10v-1q0 -12 -13 -14q-22 -2 -35.5 -7.5t-21 -17t-10 -31t-2.5 -50.5v-431q0 -119 -36.5 -169.5t-103.5 -50.5q-38 0 -61 21t-23 63q0 23 14 41.5t37 18.5q17 0 24.5 -8t10.5 -20.5t3 -26.5t1 -26.5t4.5 -20.5t13.5 -8q11 0 17 9.5t9 25t4 35
t1 40.5v507q0 32 -2.5 52t-9.5 31t-20.5 16t-35.5 7q-13 2 -13 14v1q0 14 14 14h219zM305 922q9 -13 3 -23q-6 -11 -17 -1l-112 105l-111 -106q-9 -9 -16 2q-6 11 2 23l97 141q9 13 21 13h16q11 0 20 -13z" />
    <glyph glyph-name="uni0136" unicode="&#x136;" horiz-adv-x="625" 
d="M600 29q12 -2 12 -15q0 -14 -14 -14h-229q-14 0 -14 14q0 13 13 15q14 1 29 7t15 22q0 20 -32 69.5t-82 121.5l-77 110q-2 4 -6.5 4.5t-7.5 -3.5l-5 -5q-9 -10 -9 -24v-195q0 -30 3 -50t10.5 -32t21 -17.5t34.5 -7.5q13 -2 13 -15q0 -14 -14 -14h-220q-6 0 -10.5 5
t-3.5 12q2 10 14 12q22 2 35 7t20 17t9.5 32t2.5 51v499q0 32 -2.5 52t-9.5 31t-20.5 16t-35.5 7q-13 2 -13 14v1q0 14 14 14h220q14 0 14 -14v-1q0 -12 -13 -14q-22 -2 -35.5 -7.5t-21 -17t-10 -31t-2.5 -50.5v-208q0 -5 5 -7t9 2l135 173q30 40 47.5 67t17.5 49
q0 16 -15.5 22t-27.5 8t-12 14q0 6 4 10.5t10 4.5h187q6 0 10.5 -4.5t4.5 -10.5q0 -12 -13 -14q-19 -3 -33 -8.5t-27 -15.5t-26.5 -25t-30.5 -38l-140 -187q-8 -9 -8 -20.5t6 -21.5l182 -276q23 -35 40 -58t31.5 -36.5t26.5 -19t24 -6.5zM272 -315q-6 7 2 13q18 14 35 35.5
t17 53.5q0 13 -10 21t-22 17t-22 22t-10 36q0 28 13 40.5t34 12.5q26 0 40.5 -24t14.5 -66q0 -47 -17 -89t-62 -74q-7 -6 -13 2z" />
    <glyph glyph-name="Lacute" unicode="&#x139;" horiz-adv-x="514" 
d="M477 233q6 1 10 -3t4 -10l-15 -200q0 -8 -6.5 -14t-14.5 -6h-415q-6 0 -10.5 4.5t-4.5 10.5q0 12 13 14q20 3 31.5 8.5t18 17.5t8.5 32t2 51v491q0 32 -2 52t-8 32.5t-18 18.5t-32 9q-13 2 -13 14q0 6 4.5 10.5t10.5 4.5h207q6 0 10 -4.5t4 -10.5q0 -12 -13 -14
q-21 -3 -34 -8.5t-19.5 -17.5t-9 -32t-2.5 -51v-534q0 -18 4.5 -29t14.5 -17t26 -7.5t39 -1.5h30q46 0 76 14t49 38.5t29 57t16 69.5q2 11 10 11zM140 896q-13 -9 -19 5q-6 12 8 25l120 130q5 8 14.5 13.5t19.5 5.5q15 0 24 -12q8 -13 8 -26q0 -15 -6 -27q-5 -11 -20 -20z
" />
    <glyph glyph-name="Lcaron" unicode="&#x13d;" horiz-adv-x="514" 
d="M323 535q-4 8 2 12q19 14 36 36t17 54q0 13 -10 21t-22.5 17t-22.5 22t-10 36q0 28 13.5 40.5t34.5 12.5q26 0 40.5 -24t14.5 -66q0 -47 -17 -89t-62 -74q-9 -5 -14 2zM477 233q5 1 9 -3t4 -10l-14 -200q-1 -8 -7 -14t-15 -6h-415q-6 0 -10.5 4.5t-4.5 10.5q0 12 13 14
q20 3 32 8.5t18 17.5t8 32t2 51v491q0 32 -2 52t-8 32.5t-18 18.5t-32 9q-13 2 -13 14q0 6 4.5 10.5t10.5 4.5h207q6 0 10 -4.5t4 -10.5q0 -12 -12 -14q-21 -3 -34 -8.5t-20 -17.5t-9.5 -32t-2.5 -51v-534q0 -37 19 -46t65 -9h30q46 0 76 14t49 38.5t29 57t16 69.5
q2 11 11 11z" />
    <glyph glyph-name="uni013B" unicode="&#x13b;" horiz-adv-x="514" 
d="M477 233q6 1 10 -3t4 -10l-15 -200q0 -8 -6.5 -14t-14.5 -6h-415q-6 0 -10.5 4.5t-4.5 10.5q0 12 13 14q20 3 31.5 8.5t18 17.5t8.5 32t2 51v491q0 32 -2 52t-8 32.5t-18 18.5t-32 9q-13 2 -13 14q0 6 4.5 10.5t10.5 4.5h207q6 0 10 -4.5t4 -10.5q0 -12 -13 -14
q-21 -3 -34 -8.5t-19.5 -17.5t-9 -32t-2.5 -51v-534q0 -18 4.5 -29t14.5 -17t26 -7.5t39 -1.5h30q46 0 76 14t49 38.5t29 57t16 69.5q2 11 10 11zM216 -315q-6 7 2 13q18 14 35 35.5t17 53.5q0 13 -10 21t-22 17t-22 22t-10 36q0 28 13 40.5t34 12.5q26 0 40.5 -24t14.5 -66
q0 -47 -17 -89t-62 -74q-7 -6 -13 2z" />
    <glyph glyph-name="Ldot" unicode="&#x13f;" horiz-adv-x="514" 
d="M477 233q6 1 10 -3t4 -10l-15 -200q0 -8 -6.5 -14t-14.5 -6h-415q-6 0 -10.5 4.5t-4.5 10.5q0 12 13 14q20 3 31.5 8.5t18 17.5t8.5 32t2 51v491q0 32 -2 52t-8 32.5t-18 18.5t-32 9q-13 2 -13 14q0 6 4.5 10.5t10.5 4.5h207q6 0 10 -4.5t4 -10.5q0 -12 -13 -14
q-21 -3 -34 -8.5t-19.5 -17.5t-9 -32t-2.5 -51v-534q0 -18 4.5 -29t14.5 -17t26 -7.5t39 -1.5h30q46 0 76 14t49 38.5t29 57t16 69.5q2 11 10 11zM367 385q0 -21 -13 -35.5t-33 -14.5t-33 14.5t-13 35.5t13 35.5t33 14.5t33 -14.5t13 -35.5z" />
    <glyph glyph-name="Lslash" unicode="&#x141;" horiz-adv-x="514" 
d="M477 233q6 1 10 -3t4 -10l-15 -200q0 -8 -6.5 -14t-14.5 -6h-415q-6 0 -10.5 4.5t-4.5 10.5q0 12 13 14q20 3 31.5 8.5t18 17.5t8.5 32t2 51v186q0 5 -3.5 7t-7.5 1l-18 -7q-13 -4 -18 9l-11 32q-5 14 8 18l40 14q10 5 10 15v216q0 32 -2 52t-8 32.5t-18 18.5t-32 9
q-13 2 -13 14q0 6 4.5 10.5t10.5 4.5h207q7 0 11.5 -5t2.5 -12q-1 -10 -13 -12q-21 -3 -34 -8.5t-19.5 -17.5t-9 -32t-2.5 -51v-189q0 -4 3 -6.5t7 -0.5l25 9q13 4 18 -9l11 -32q5 -14 -8 -18l-46 -17q-10 -3 -10 -14v-257q0 -18 4.5 -29t14.5 -17t26 -7.5t39 -1.5h30
q46 0 76 14t49 38.5t29 57t16 69.5q2 11 10 11z" />
    <glyph glyph-name="Nacute" unicode="&#x143;" horiz-adv-x="630" 
d="M606 755q0 -12 -11 -15q-16 -4 -28.5 -11.5t-21.5 -23t-13.5 -42.5t-4.5 -71v-598q0 -10 -10 -10q-6 0 -8 5l-355 618q-2 4 -6 3t-4 -6v-424q0 -42 3 -69t10.5 -43.5t20.5 -24.5t34 -13q12 -2 12 -15q0 -6 -4.5 -10.5t-10.5 -4.5h-168q-6 0 -10.5 4.5t-4.5 10.5
q0 13 12 15q22 4 35.5 11.5t21 24t10 44t2.5 70.5v482q0 31 -18 54.5t-50 25.5q-5 0 -9 4.5t-4 9.5q0 14 14 14h107q21 0 31 -18l302 -525q2 -4 6 -3t4 6v376q0 37 -4 61t-12 39t-21.5 22.5t-32.5 11.5q-12 3 -12 15q0 6 4.5 10.5t11.5 4.5h167q7 0 11 -4.5t4 -10.5z
M238 896q-13 -9 -19 5q-6 12 8 25l120 130q5 8 14.5 13.5t19.5 5.5q15 0 24 -12q8 -13 8 -26q0 -15 -6 -27q-5 -11 -20 -20z" />
    <glyph glyph-name="Ncaron" unicode="&#x147;" horiz-adv-x="630" 
d="M606 755q0 -12 -11 -15q-16 -4 -28.5 -11.5t-21.5 -23t-13.5 -42.5t-4.5 -71v-598q0 -10 -10 -10q-6 0 -8 5l-355 618q-2 4 -6 3t-4 -6v-424q0 -42 3 -69t10.5 -43.5t20.5 -24.5t34 -13q12 -2 12 -15q0 -6 -4.5 -10.5t-10.5 -4.5h-168q-6 0 -10.5 4.5t-4.5 10.5
q0 13 12 15q22 4 35.5 11.5t21 24t10 44t2.5 70.5v482q0 31 -18 54.5t-50 25.5q-5 0 -9 4.5t-4 9.5q0 14 14 14h107q21 0 31 -18l302 -525q2 -4 6 -3t4 6v376q0 37 -4 61t-12 39t-21.5 22.5t-32.5 11.5q-12 3 -12 15q0 6 4.5 10.5t11.5 4.5h167q7 0 11 -4.5t4 -10.5z
M307 893q-12 0 -21 13l-97 142q-8 11 -3 22q7 10 17 2l111 -106l112 105q11 10 17 -1q6 -10 -3 -22l-97 -142q-9 -13 -20 -13h-16z" />
    <glyph glyph-name="Eng" unicode="&#x14a;" horiz-adv-x="630" 
d="M591 770q7 0 11 -4.5t4 -10.5q0 -12 -11 -15q-16 -4 -28.5 -11.5t-21.5 -23t-13.5 -42.5t-4.5 -71v-598q0 -125 -36.5 -186t-105.5 -61q-34 0 -56 21.5t-22 50.5q0 19 9.5 33t25.5 14q14 0 22 -12t16 -30q10 -23 18.5 -30.5t18.5 -7.5q9 0 16.5 6t11.5 15q3 9 5.5 19.5
t4 26.5t2 39t0.5 56v107q0 24 -12 45l-291 507q-2 4 -6 3t-4 -6v-424q0 -42 3 -69t10.5 -43.5t20.5 -24.5t34 -13q6 -1 9.5 -6t2.5 -11q-2 -13 -16 -13h-167q-7 0 -11.5 5t-3.5 12q2 11 13 13q21 4 34.5 11.5t21 24t10 44t2.5 70.5v482q0 31 -18 54.5t-50 25.5q-7 0 -11.5 7
t0.5 14q4 7 13 7h106q21 0 31 -18l302 -525q2 -4 6 -3t4 6v376q0 37 -4 61t-12 39t-21.5 22.5t-32.5 11.5q-5 2 -9 6.5t-2 11.5q2 12 15 12h167z" />
    <glyph glyph-name="Omacron" unicode="&#x14c;" 
d="M298 -16q-61 0 -111 29.5t-86 82.5t-56 127.5t-20 165.5q0 89 20 162t56 125t86 81t111 29q62 0 112 -30.5t86 -84t55.5 -127t19.5 -159.5q0 -90 -20 -163.5t-56 -126.5t-86.5 -82t-110.5 -29zM298 744q-38 0 -66 -19t-48 -50t-32 -70t-19 -79t-9.5 -77t-2.5 -63
q0 -27 2.5 -64.5t9 -77.5t18.5 -79t32 -70t48.5 -50t67.5 -19q40 0 69 19.5t48.5 51t31.5 71t18 80t8 78.5t2 66q0 26 -3 62.5t-10 75.5t-19.5 77.5t-32.5 68.5t-48 49t-65 19zM195 950v35q0 14 14 14h180q14 0 14 -14v-35q0 -5 -4 -9.5t-10 -4.5h-180q-6 0 -10 4.5t-4 9.5z
" />
    <glyph glyph-name="uni0145" unicode="&#x145;" horiz-adv-x="630" 
d="M606 755q0 -12 -11 -15q-16 -4 -28.5 -11.5t-21.5 -23t-13.5 -42.5t-4.5 -71v-598q0 -10 -10 -10q-6 0 -8 5l-355 618q-2 4 -6 3t-4 -6v-424q0 -42 3 -69t10.5 -43.5t20.5 -24.5t34 -13q12 -2 12 -15q0 -6 -4.5 -10.5t-10.5 -4.5h-168q-6 0 -10.5 4.5t-4.5 10.5
q0 13 12 15q22 4 35.5 11.5t21 24t10 44t2.5 70.5v482q0 31 -18 54.5t-50 25.5q-5 0 -9 4.5t-4 9.5q0 14 14 14h107q21 0 31 -18l302 -525q2 -4 6 -3t4 6v376q0 37 -4 61t-12 39t-21.5 22.5t-32.5 11.5q-12 3 -12 15q0 6 4.5 10.5t11.5 4.5h167q7 0 11 -4.5t4 -10.5z
M274 -315q-6 7 2 13q18 14 35 35.5t17 53.5q0 13 -10 21t-22 17t-22 22t-10 36q0 28 13 40.5t34 12.5q26 0 40.5 -24t14.5 -66q0 -47 -17 -89t-62 -74q-7 -6 -13 2z" />
    <glyph glyph-name="Obreve" unicode="&#x14e;" 
d="M298 -16q-61 0 -111 29.5t-86 82.5t-56 127.5t-20 165.5q0 89 20 162t56 125t86 81t111 29q62 0 112 -30.5t86 -84t55.5 -127t19.5 -159.5q0 -90 -20 -163.5t-56 -126.5t-86.5 -82t-110.5 -29zM298 744q-38 0 -66 -19t-48 -50t-32 -70t-19 -79t-9.5 -77t-2.5 -63
q0 -27 2.5 -64.5t9 -77.5t18.5 -79t32 -70t48.5 -50t67.5 -19q40 0 69 19.5t48.5 51t31.5 71t18 80t8 78.5t2 66q0 26 -3 62.5t-10 75.5t-19.5 77.5t-32.5 68.5t-48 49t-65 19zM299 893q-29 0 -50 15t-35.5 38.5t-22.5 50.5t-11 51q-3 21 8 21q9 0 12 -14q8 -41 31 -68.5
t68 -27.5t68 27.5t31 68.5q3 14 12 14q11 0 8 -21q-3 -24 -11 -51t-22 -50.5t-35.5 -38.5t-50.5 -15z" />
    <glyph glyph-name="Ohungarumlaut" unicode="&#x150;" 
d="M298 -16q-61 0 -111 29.5t-86 82.5t-56 127.5t-20 165.5q0 89 20 162t56 125t86 81t111 29q62 0 112 -30.5t86 -84t55.5 -127t19.5 -159.5q0 -90 -20 -163.5t-56 -126.5t-86.5 -82t-110.5 -29zM298 744q-38 0 -66 -19t-48 -50t-32 -70t-19 -79t-9.5 -77t-2.5 -63
q0 -27 2.5 -64.5t9 -77.5t18.5 -79t32 -70t48.5 -50t67.5 -19q40 0 69 19.5t48.5 51t31.5 71t18 80t8 78.5t2 66q0 26 -3 62.5t-10 75.5t-19.5 77.5t-32.5 68.5t-48 49t-65 19zM326 900q-11 -11 -19 -5q-7 7 -1 27l44 111q7 21 17 32q10 10 22 10q15 0 22.5 -11t7.5 -25
q0 -27 -23 -55zM200 900q-10 -11 -18 -5q-7 7 -1 27l44 111q7 21 17 32q10 10 22 10q14 0 22 -11t8 -25q0 -27 -23 -55z" />
    <glyph glyph-name="OE" unicode="&#x152;" horiz-adv-x="815" 
d="M760 233q6 1 10 -3t4 -10l-15 -200q-1 -8 -7 -14t-14 -6h-334q-19 0 -37 -6q-31 -10 -69 -10q-61 0 -111 29t-86 82.5t-56 128t-20 164.5q0 89 20 162t56 125.5t86 81.5t111 29q38 0 68 -10q18 -6 37 -6h310q10 0 17 -6.5t8 -16.5l22 -179q2 -8 -2 -12.5t-9 -4.5
q-13 0 -13 10q-13 91 -47.5 128t-99.5 37h-94q-17 0 -23 -7t-6 -35v-214q0 -17 12.5 -29.5t29.5 -12.5h84q26 0 42.5 3t26.5 13.5t15 29.5t9 50q2 9 10 9q10 0 10 -11v-257q0 -10 -11 -10q-7 1 -9 10q-4 34 -9 56t-15 35t-26.5 18.5t-42.5 5.5h-84q-17 0 -29.5 -12.5
t-12.5 -29.5v-240q0 -18 4.5 -29t14.5 -17t26 -7.5t39 -1.5h30q46 0 76 14t49 38.5t29 57t16 69.5q0 11 10 11zM121 386q0 -27 2.5 -64.5t9 -77.5t18.5 -79t32 -70t48.5 -50t67.5 -19q13 0 18 1q28 4 46 24.5t18 48.5v570q0 26 -17 46.5t-43 25.5q-6 2 -11.5 2h-11.5
q-38 0 -66 -19t-48 -50t-32 -70t-19 -79t-9.5 -77t-2.5 -63z" />
    <glyph glyph-name="Racute" unicode="&#x154;" horiz-adv-x="554" 
d="M533 50q12 -5 7 -16q-3 -7 -8.5 -15.5t-15 -16t-22.5 -13t-31 -5.5q-121 0 -121 181q0 38 -6.5 71.5t-19 58.5t-32 40t-45.5 15h-23t-22 2q-13 0 -13 -13v-203q0 -31 2.5 -50.5t9 -31.5t19.5 -17.5t34 -7.5q6 -1 10 -5.5t3 -10.5q0 -6 -4.5 -9.5t-10.5 -3.5h-204
q-6 0 -10 4.5t-4 10.5q0 12 12 14q20 3 31.5 9t17.5 20t7.5 39t1.5 65v488q0 24 -2 40.5t-8 26.5t-17.5 15t-30.5 8q-14 3 -12 17q2 13 15 13h201q103 0 164.5 -50.5t61.5 -153.5q0 -78 -29.5 -126t-85.5 -71q-5 -2 -5.5 -7.5t4.5 -7.5q38 -23 56.5 -68t18.5 -99
q0 -31 1.5 -60t7 -51t17 -35t32.5 -13q7 0 16 4t17 14q2 4 6.5 5t8.5 -1zM377 560q0 48 -10 80t-30.5 51.5t-52 27.5t-74.5 8q-18 0 -23.5 -9.5t-5.5 -32.5v-244q0 -18 13 -31t31 -14q79 0 115.5 44t36.5 120zM200 896q-13 -9 -19 5q-6 12 8 25l120 130q5 8 14.5 13.5
t19.5 5.5q15 0 24 -12q8 -13 8 -26q0 -15 -6 -27q-5 -11 -20 -20z" />
    <glyph glyph-name="Rcaron" unicode="&#x158;" horiz-adv-x="554" 
d="M533 50q12 -5 7 -16q-3 -7 -8.5 -15.5t-15 -16t-22.5 -13t-31 -5.5q-121 0 -121 181q0 38 -6.5 71.5t-19 58.5t-32 40t-45.5 15h-23t-22 2q-13 0 -13 -13v-203q0 -31 2.5 -50.5t9 -31.5t19.5 -17.5t34 -7.5q6 -1 10 -5.5t3 -10.5q0 -6 -4.5 -9.5t-10.5 -3.5h-204
q-6 0 -10 4.5t-4 10.5q0 12 12 14q20 3 31.5 9t17.5 20t7.5 39t1.5 65v488q0 24 -2 40.5t-8 26.5t-17.5 15t-30.5 8q-14 3 -12 17q2 13 15 13h201q103 0 164.5 -50.5t61.5 -153.5q0 -78 -29.5 -126t-85.5 -71q-5 -2 -5.5 -7.5t4.5 -7.5q38 -23 56.5 -68t18.5 -99
q0 -31 1.5 -60t7 -51t17 -35t32.5 -13q7 0 16 4t17 14q2 4 6.5 5t8.5 -1zM377 560q0 48 -10 80t-30.5 51.5t-52 27.5t-74.5 8q-18 0 -23.5 -9.5t-5.5 -32.5v-244q0 -18 13 -31t31 -14q79 0 115.5 44t36.5 120zM269 893q-12 0 -21 13l-97 142q-8 11 -3 22q7 10 17 2l111 -106
l112 105q11 10 17 -1q6 -10 -3 -22l-97 -142q-9 -13 -20 -13h-16z" />
    <glyph glyph-name="Sacute" unicode="&#x15a;" horiz-adv-x="424" 
d="M370 539q-9 0 -11 8q-6 30 -16 63.5t-27.5 62t-44.5 47.5t-66 19q-38 0 -61 -31.5t-23 -79.5q0 -30 11 -54.5t31 -48t47.5 -46.5t60.5 -50q66 -54 97.5 -107.5t31.5 -120.5q0 -49 -14.5 -89t-39 -68.5t-57 -44t-68.5 -15.5q-53 0 -93.5 10.5t-80.5 45.5q-16 13 -18 36
l-3 145q0 11 10 11q8 0 10 -8q26 -105 69 -151.5t101 -46.5q45 0 72.5 36t27.5 94q0 39 -15 71t-38.5 59.5t-53 51.5t-58.5 45q-57 42 -79.5 94t-22.5 106q0 96 42.5 149.5t115.5 53.5q38 0 67 -8.5t59 -21.5q17 -8 27 -22.5t12 -33.5l9 -150q0 -11 -11 -11zM135 896
q-13 -9 -19 5q-6 12 8 25l120 130q5 8 14.5 13.5t19.5 5.5q15 0 24 -12q8 -13 8 -26q0 -15 -6 -27q-5 -11 -20 -20z" />
    <glyph glyph-name="Scircumflex" unicode="&#x15c;" horiz-adv-x="424" 
d="M370 539q-9 0 -11 8q-6 30 -16 63.5t-27.5 62t-44.5 47.5t-66 19q-38 0 -61 -31.5t-23 -79.5q0 -30 11 -54.5t31 -48t47.5 -46.5t60.5 -50q66 -54 97.5 -107.5t31.5 -120.5q0 -49 -14.5 -89t-39 -68.5t-57 -44t-68.5 -15.5q-53 0 -93.5 10.5t-80.5 45.5q-16 13 -18 36
l-3 145q0 11 10 11q8 0 10 -8q26 -105 69 -151.5t101 -46.5q45 0 72.5 36t27.5 94q0 39 -15 71t-38.5 59.5t-53 51.5t-58.5 45q-57 42 -79.5 94t-22.5 106q0 96 42.5 149.5t115.5 53.5q38 0 67 -8.5t59 -21.5q17 -8 27 -22.5t12 -33.5l9 -150q0 -11 -11 -11zM337 922
q9 -13 3 -23q-6 -11 -17 -1l-112 105l-111 -106q-9 -9 -16 2q-6 11 2 23l97 141q9 13 21 13h16q11 0 20 -13z" />
    <glyph glyph-name="uni0156" unicode="&#x156;" horiz-adv-x="554" 
d="M533 50q12 -5 7 -16q-3 -7 -8.5 -15.5t-15 -16t-22.5 -13t-31 -5.5q-121 0 -121 181q0 38 -6.5 71.5t-19 58.5t-32 40t-45.5 15h-23t-22 2q-13 0 -13 -13v-203q0 -31 2.5 -50.5t9 -31.5t19.5 -17.5t34 -7.5q6 -1 10 -5.5t3 -10.5q0 -6 -4.5 -9.5t-10.5 -3.5h-204
q-6 0 -10 4.5t-4 10.5q0 12 12 14q20 3 31.5 9t17.5 20t7.5 39t1.5 65v488q0 24 -2 40.5t-8 26.5t-17.5 15t-30.5 8q-14 3 -12 17q2 13 15 13h201q103 0 164.5 -50.5t61.5 -153.5q0 -78 -29.5 -126t-85.5 -71q-5 -2 -5.5 -7.5t4.5 -7.5q38 -23 56.5 -68t18.5 -99
q0 -31 1.5 -60t7 -51t17 -35t32.5 -13q7 0 16 4t17 14q2 4 6.5 5t8.5 -1zM377 560q0 48 -10 80t-30.5 51.5t-52 27.5t-74.5 8q-18 0 -23.5 -9.5t-5.5 -32.5v-244q0 -18 13 -31t31 -14q79 0 115.5 44t36.5 120zM236 -315q-6 7 2 13q18 14 35 35.5t17 53.5q0 13 -10 21t-22 17
t-22 22t-10 36q0 28 13 40.5t34 12.5q26 0 40.5 -24t14.5 -66q0 -47 -17 -89t-62 -74q-7 -6 -13 2z" />
    <glyph glyph-name="Scedilla" unicode="&#x15e;" horiz-adv-x="424" 
d="M212 -53q-2 -4 0.5 -7t6.5 -2t11 1q34 0 53 -21t19 -59q0 -46 -28 -72t-77 -26q-32 0 -52.5 16t-20.5 42q0 11 4 25.5t23 14.5q15 0 19.5 -11t7 -24.5t5.5 -24.5t14 -11q22 0 32 21t10 44t-10.5 34t-28.5 11q-6 0 -11.5 -2.5t-10.5 -4.5q-6 -2 -9 2q-4 4 -2 7l21 71
q2 5 -1.5 9.5t-8.5 4.5q-37 4 -68.5 16t-62.5 39q-16 13 -18 36l-3 145q0 5 3.5 8t8.5 2q7 0 9 -8q25 -105 68 -151t101 -46q45 0 72.5 36t27.5 94q0 39 -15 71t-38.5 59.5t-53 51.5t-58.5 45q-57 42 -79.5 94t-22.5 106q0 96 42.5 149.5t115.5 53.5q38 0 66.5 -8.5
t59.5 -21.5q17 -8 27 -22.5t12 -33.5l9 -150q0 -5 -3.5 -8.5t-8.5 -2.5q-8 0 -10 9q-6 29 -16 62.5t-27.5 62t-44.5 47.5t-66 19q-38 0 -61 -31.5t-23 -79.5q0 -30 11 -54.5t31 -48t47.5 -46.5t60.5 -50q66 -54 97.5 -107.5t31.5 -120.5q0 -46 -13 -85t-35.5 -67t-53 -45
t-64.5 -20q-13 0 -16 -12z" />
    <glyph glyph-name="Scaron" unicode="&#x160;" horiz-adv-x="424" 
d="M370 539q-9 0 -11 8q-6 30 -16 63.5t-27.5 62t-44.5 47.5t-66 19q-38 0 -61 -31.5t-23 -79.5q0 -30 11 -54.5t31 -48t47.5 -46.5t60.5 -50q66 -54 97.5 -107.5t31.5 -120.5q0 -49 -14.5 -89t-39 -68.5t-57 -44t-68.5 -15.5q-53 0 -93.5 10.5t-80.5 45.5q-16 13 -18 36
l-3 145q0 11 10 11q8 0 10 -8q26 -105 69 -151.5t101 -46.5q45 0 72.5 36t27.5 94q0 39 -15 71t-38.5 59.5t-53 51.5t-58.5 45q-57 42 -79.5 94t-22.5 106q0 96 42.5 149.5t115.5 53.5q38 0 67 -8.5t59 -21.5q17 -8 27 -22.5t12 -33.5l9 -150q0 -11 -11 -11zM204 893
q-12 0 -21 13l-97 142q-8 11 -3 22q7 10 17 2l111 -106l112 105q11 10 17 -1q6 -10 -3 -22l-97 -142q-9 -13 -20 -13h-16z" />
    <glyph glyph-name="uni0162" unicode="&#x162;" horiz-adv-x="515" 
d="M502 568q2 -17 -12 -17q-11 0 -13 10q-12 91 -46.5 128.5t-100.5 37.5h-10q-11 0 -19 -8t-8 -19v-565q0 -31 2.5 -50.5t10 -31t20.5 -17t34 -7.5q6 -1 10 -5.5t3 -10.5q0 -6 -4.5 -9.5t-10.5 -3.5h-82q-12 0 -15 -12l-11 -41q-2 -4 1 -7t7 -2q3 1 10 1q34 0 53 -21
t19 -59q0 -46 -28 -72t-76 -26q-32 0 -53 15.5t-21 41.5q0 6 0.5 13t3.5 13t8.5 10.5t14.5 4.5q15 0 20 -11t7 -24.5t5 -24.5t14 -11q22 0 32 20.5t10 44.5q0 44 -39 44q-5 0 -11 -2t-11 -4q-4 -3 -9 2q-4 4 -2 7l26 87q2 5 -1 9t-8 4h-78q-6 0 -10 4.5t-4 10.5q0 12 13 14
q21 3 34 8.5t20 18t9 35t2 58.5v551q0 11 -8 19t-19 8h-23q-32 0 -50.5 -9t-29 -29t-16 -52t-11.5 -77q0 -7 -8 -9q-13 -2 -13 11l-12 180q-1 11 7 19.5t19 8.5h410q10 0 17 -6.5t9 -16.5z" />
    <glyph glyph-name="Tcaron" unicode="&#x164;" horiz-adv-x="515" 
d="M454 770q10 0 17 -6.5t9 -16.5l22 -179q2 -17 -12 -17q-11 0 -13 10q-12 91 -46.5 128.5t-100.5 37.5h-10q-11 0 -19 -8t-8 -19v-565q0 -31 2.5 -50.5t10 -31t20.5 -17t34 -7.5q6 -1 10 -5.5t3 -10.5q0 -6 -4.5 -9.5t-10.5 -3.5h-214q-6 0 -10 4.5t-4 10.5q0 12 13 14
q21 3 34 8.5t20 18t9 35t2 58.5v551q0 11 -8 19t-19 8h-23q-32 0 -50.5 -9t-29 -29t-16 -52t-11.5 -77q0 -7 -8 -9q-13 -2 -13 11l-12 180q-1 11 7 19.5t19 8.5h410zM250 893q-12 0 -21 13l-97 142q-8 11 -3 22q7 10 17 2l111 -106l112 105q11 10 17 -1q6 -10 -3 -22
l-97 -142q-9 -13 -20 -13h-16z" />
    <glyph glyph-name="Tbar" unicode="&#x166;" horiz-adv-x="515" 
d="M502 568q2 -17 -12 -17q-11 0 -13 10q-12 91 -46.5 128.5t-100.5 37.5h-10q-11 0 -19 -8t-8 -19v-268q0 -16 16 -16h32q14 0 14 -14v-34q0 -14 -14 -14h-32q-16 0 -16 -16v-203q0 -31 2.5 -50.5t10 -31t20.5 -17t34 -7.5q6 -1 10 -5.5t3 -10.5q0 -6 -4.5 -9.5t-10.5 -3.5
h-214q-6 0 -10 4.5t-4 10.5q0 12 13 14q21 3 34 8.5t20 18t9 35t2 58.5v189q0 7 -4.5 11.5t-10.5 4.5h-32q-14 0 -14 14v34q0 14 14 14h32q6 0 10.5 4.5t4.5 11.5v268q0 11 -8 19t-19 8h-23q-32 0 -50.5 -9t-29 -29t-16 -52t-11.5 -77q0 -7 -8 -9q-13 -2 -13 11l-12 180
q-1 11 7 19.5t19 8.5h410q10 0 17 -6.5t9 -16.5z" />
    <glyph glyph-name="Utilde" unicode="&#x168;" horiz-adv-x="627" 
d="M605 755q0 -12 -13 -15q-22 -4 -35 -12.5t-20 -25t-9 -42.5t-2 -65v-291q0 -42 -1.5 -76t-6.5 -62t-14 -51.5t-23 -45.5q-53 -85 -169 -85q-67 0 -108.5 26.5t-63.5 70t-29.5 98.5t-7.5 111v355q0 27 -2 44.5t-8.5 28t-19 15.5t-32.5 8q-13 2 -13 14q0 6 4 10.5t11 4.5
h206q6 0 10.5 -4.5t4.5 -10.5q0 -12 -12 -14q-21 -3 -33.5 -9t-19.5 -18t-9 -31.5t-2 -49.5v-357q0 -34 1 -61.5t5 -50t11 -41.5t20 -36q18 -24 44.5 -38t62.5 -14q40 0 73.5 18.5t53.5 50.5q10 17 16 35.5t9 40t4 49t1 62.5v300q0 42 -2.5 69.5t-9 44.5t-19.5 25t-34 11
q-13 2 -13 14q0 6 4.5 10.5t10.5 4.5h164q6 0 10.5 -4.5t4.5 -10.5zM441 1033q10 0 8 -10q-13 -61 -32.5 -87t-52.5 -26q-16 0 -29 5t-39 23l-19 12q-21 13 -34 13q-23 0 -33 -11.5t-17 -35.5q-1 -6 -7 -6q-10 0 -8 9q10 53 31 80.5t51 27.5q28 0 59 -21l20 -14
q23 -17 44 -17q14 0 28.5 10t22.5 42q2 6 7 6z" />
    <glyph glyph-name="Umacron" unicode="&#x16a;" horiz-adv-x="627" 
d="M605 755q0 -12 -13 -15q-22 -4 -35 -12.5t-20 -25t-9 -42.5t-2 -65v-291q0 -42 -1.5 -76t-6.5 -62t-14 -51.5t-23 -45.5q-53 -85 -169 -85q-67 0 -108.5 26.5t-63.5 70t-29.5 98.5t-7.5 111v355q0 27 -2 44.5t-8.5 28t-19 15.5t-32.5 8q-13 2 -13 14q0 6 4 10.5t11 4.5
h206q6 0 10.5 -4.5t4.5 -10.5q0 -12 -12 -14q-21 -3 -33.5 -9t-19.5 -18t-9 -31.5t-2 -49.5v-357q0 -34 1 -61.5t5 -50t11 -41.5t20 -36q18 -24 44.5 -38t62.5 -14q40 0 73.5 18.5t53.5 50.5q10 17 16 35.5t9 40t4 49t1 62.5v300q0 42 -2.5 69.5t-9 44.5t-19.5 25t-34 11
q-13 2 -13 14q0 6 4.5 10.5t10.5 4.5h164q6 0 10.5 -4.5t4.5 -10.5zM210 950v35q0 14 14 14h180q14 0 14 -14v-35q0 -5 -4 -9.5t-10 -4.5h-180q-6 0 -10 4.5t-4 9.5z" />
    <glyph glyph-name="Ubreve" unicode="&#x16c;" horiz-adv-x="627" 
d="M605 755q0 -12 -13 -15q-22 -4 -35 -12.5t-20 -25t-9 -42.5t-2 -65v-291q0 -42 -1.5 -76t-6.5 -62t-14 -51.5t-23 -45.5q-53 -85 -169 -85q-67 0 -108.5 26.5t-63.5 70t-29.5 98.5t-7.5 111v355q0 27 -2 44.5t-8.5 28t-19 15.5t-32.5 8q-13 2 -13 14q0 6 4 10.5t11 4.5
h206q6 0 10.5 -4.5t4.5 -10.5q0 -12 -12 -14q-21 -3 -33.5 -9t-19.5 -18t-9 -31.5t-2 -49.5v-357q0 -34 1 -61.5t5 -50t11 -41.5t20 -36q18 -24 44.5 -38t62.5 -14q40 0 73.5 18.5t53.5 50.5q10 17 16 35.5t9 40t4 49t1 62.5v300q0 42 -2.5 69.5t-9 44.5t-19.5 25t-34 11
q-13 2 -13 14q0 6 4.5 10.5t10.5 4.5h164q6 0 10.5 -4.5t4.5 -10.5zM314 893q-29 0 -50 15t-35.5 38.5t-22.5 50.5t-11 51q-3 21 8 21q9 0 12 -14q8 -41 31 -68.5t68 -27.5t68 27.5t31 68.5q3 14 12 14q11 0 8 -21q-3 -24 -11 -51t-22 -50.5t-35.5 -38.5t-50.5 -15z" />
    <glyph glyph-name="Uring" unicode="&#x16e;" horiz-adv-x="627" 
d="M605 755q0 -12 -13 -15q-22 -4 -35 -12.5t-20 -25t-9 -42.5t-2 -65v-291q0 -42 -1.5 -76t-6.5 -62t-14 -51.5t-23 -45.5q-53 -85 -169 -85q-67 0 -108.5 26.5t-63.5 70t-29.5 98.5t-7.5 111v355q0 27 -2 44.5t-8.5 28t-19 15.5t-32.5 8q-13 2 -13 14q0 6 4 10.5t11 4.5
h206q6 0 10.5 -4.5t4.5 -10.5q0 -12 -12 -14q-21 -3 -33.5 -9t-19.5 -18t-9 -31.5t-2 -49.5v-357q0 -34 1 -61.5t5 -50t11 -41.5t20 -36q18 -24 44.5 -38t62.5 -14q40 0 73.5 18.5t53.5 50.5q10 17 16 35.5t9 40t4 49t1 62.5v300q0 42 -2.5 69.5t-9 44.5t-19.5 25t-34 11
q-13 2 -13 14q0 6 4.5 10.5t10.5 4.5h164q6 0 10.5 -4.5t4.5 -10.5zM314 817q-24 0 -41 12t-28 31t-16 41t-5 41q0 20 5.5 41.5t16.5 40.5t28 31t40 12t40 -12t28 -31t16 -40.5t5 -41.5q0 -19 -5 -41t-16 -41t-27.5 -31t-40.5 -12zM314 848q18 0 30 9.5t19.5 23.5t11 30.5
t3.5 30.5t-3.5 30.5t-11 30.5t-20 23t-29.5 9q-18 0 -30 -9t-20 -23t-11.5 -30.5t-3.5 -30.5t3.5 -30.5t11.5 -30.5t20 -23.5t30 -9.5z" />
    <glyph glyph-name="Uhungarumlaut" unicode="&#x170;" horiz-adv-x="627" 
d="M605 755q0 -12 -13 -15q-22 -4 -35 -12.5t-20 -25t-9 -42.5t-2 -65v-291q0 -42 -1.5 -76t-6.5 -62t-14 -51.5t-23 -45.5q-53 -85 -169 -85q-67 0 -108.5 26.5t-63.5 70t-29.5 98.5t-7.5 111v355q0 27 -2 44.5t-8.5 28t-19 15.5t-32.5 8q-13 2 -13 14q0 6 4 10.5t11 4.5
h206q6 0 10.5 -4.5t4.5 -10.5q0 -12 -12 -14q-21 -3 -33.5 -9t-19.5 -18t-9 -31.5t-2 -49.5v-357q0 -34 1 -61.5t5 -50t11 -41.5t20 -36q18 -24 44.5 -38t62.5 -14q40 0 73.5 18.5t53.5 50.5q10 17 16 35.5t9 40t4 49t1 62.5v300q0 42 -2.5 69.5t-9 44.5t-19.5 25t-34 11
q-13 2 -13 14q0 6 4.5 10.5t10.5 4.5h164q6 0 10.5 -4.5t4.5 -10.5zM341 900q-11 -11 -19 -5q-7 7 -1 27l44 111q7 21 17 32q10 10 22 10q15 0 22.5 -11t7.5 -25q0 -27 -23 -55zM215 900q-10 -11 -18 -5q-7 7 -1 27l44 111q7 21 17 32q10 10 22 10q14 0 22 -11t8 -25
q0 -27 -23 -55z" />
    <glyph glyph-name="Uogonek" unicode="&#x172;" horiz-adv-x="627" 
d="M590 770q7 0 11.5 -5t3.5 -12q-2 -11 -13 -13q-22 -4 -35 -12.5t-20 -25t-9 -42.5t-2 -65v-291q0 -36 -2 -76.5t-11 -79.5t-27.5 -72.5t-51.5 -56.5q-3 -3 -9 -7q-13 -11 -33.5 -28t-39.5 -37t-32.5 -43t-13.5 -47q0 -14 9.5 -22.5t25.5 -8.5q13 0 29.5 7.5t28.5 29.5
q5 7 12 4q9 -2 7 -12q-10 -42 -36.5 -68t-53.5 -26t-47.5 17.5t-20.5 58.5q0 33 22.5 67t70.5 72q4 2 2.5 6.5t-6.5 3.5q-9 -1 -18 -1.5t-19 -0.5q-67 0 -108.5 26.5t-63.5 70t-29.5 98.5t-7.5 111v355q0 27 -2 44.5t-8.5 28t-19 15.5t-32.5 8q-13 2 -13 14q0 6 4 10.5
t11 4.5h206q6 0 10.5 -4.5t4.5 -10.5q0 -12 -12 -14q-21 -3 -33.5 -9t-19.5 -18t-9 -31.5t-2 -49.5v-357q0 -34 1 -61.5t5 -50t11 -41.5t20 -36q18 -24 44.5 -38t62.5 -14q40 0 73.5 18.5t53.5 50.5q10 17 16 35.5t9 40t4 49t1 62.5v300q0 42 -2.5 69.5t-9 44.5t-19.5 25
t-34 11q-6 1 -10 5.5t-3 10.5q2 13 15 13h164z" />
    <glyph glyph-name="Wcircumflex" unicode="&#x174;" horiz-adv-x="785" 
d="M780 755q0 -12 -13 -14t-21.5 -6.5t-14.5 -12.5t-10.5 -21.5t-10.5 -33.5q-22 -85 -38.5 -147.5t-30 -113t-24 -94t-22 -90.5t-25 -102.5t-30.5 -130.5q0 -5 -6 -5q-5 0 -7 5q-30 116 -62 234t-63 229q-2 5 -7.5 5t-7.5 -6l-121 -462q-2 -5 -7 -5q-6 0 -6 5
q-38 157 -81 315t-79 304q-9 38 -17.5 62.5t-17 39.5t-18 22t-22.5 9q-12 2 -12 15q0 14 14 14h175q14 0 14 -15q0 -12 -12 -14q-49 -9 -32 -84l113 -409q2 -6 7.5 -6t7.5 6l75 283q5 19 -1 36l-18 69q-9 35 -16.5 55.5t-15 31.5t-17 14.5t-23.5 4.5q-13 0 -13 14t14 14h193
q14 0 14 -14q0 -13 -13 -15q-51 -5 -51 -39q0 -10 4 -25.5t10 -36.5l112 -396q2 -6 7.5 -6t7.5 6l97 367q15 54 15 89q0 21 -10.5 30.5t-35.5 11.5q-13 0 -13 14q0 6 4.5 10t9.5 4h136q6 0 10.5 -4t4.5 -10v-1zM518 922q9 -13 3 -23q-6 -11 -17 -1l-112 105l-111 -106
q-9 -9 -16 2q-6 11 2 23l97 141q9 13 21 13h16q11 0 20 -13z" />
    <glyph glyph-name="Ycircumflex" unicode="&#x176;" horiz-adv-x="579" 
d="M574 755q0 -12 -13 -14q-16 -2 -28 -9t-23 -21t-23.5 -36.5t-28.5 -56.5l-115 -247q-8 -19 -8 -39v-197q0 -32 3 -52t11.5 -31t22.5 -16t36 -7q13 -2 13 -14q0 -6 -4.5 -10.5t-10.5 -4.5h-226q-6 0 -10.5 4.5t-4.5 10.5q0 12 13 14q24 3 38 8.5t21.5 18t10 35t2.5 58.5
v172q0 11 -2.5 20.5t-7.5 19.5l-100 204q-26 53 -43.5 86t-31 52.5t-25 27.5t-23.5 10t-12 14q0 6 4.5 10.5t10.5 4.5h204q14 0 14 -14t-13 -14q-14 -1 -30 -6t-16 -20q0 -5 2 -19t18 -46l109 -230q2 -5 7.5 -5t7.5 5l114 242q6 13 8.5 26t2.5 23q0 14 -9 20.5t-34 8.5
q-13 2 -13 15q0 14 14 14h153q6 0 10.5 -4.5t4.5 -10.5zM415 922q9 -13 3 -23q-6 -11 -17 -1l-112 105l-111 -106q-9 -9 -16 2q-6 11 2 23l97 141q9 13 21 13h16q11 0 20 -13z" />
    <glyph glyph-name="Ydieresis" unicode="&#x178;" horiz-adv-x="579" 
d="M574 755q0 -12 -13 -14q-16 -2 -28 -9t-23 -21t-23.5 -36.5t-28.5 -56.5l-115 -247q-8 -19 -8 -39v-197q0 -32 3 -52t11.5 -31t22.5 -16t36 -7q13 -2 13 -14q0 -6 -4.5 -10.5t-10.5 -4.5h-226q-6 0 -10.5 4.5t-4.5 10.5q0 12 13 14q24 3 38 8.5t21.5 18t10 35t2.5 58.5
v172q0 11 -2.5 20.5t-7.5 19.5l-100 204q-26 53 -43.5 86t-31 52.5t-25 27.5t-23.5 10t-12 14q0 6 4.5 10.5t10.5 4.5h204q14 0 14 -14t-13 -14q-14 -1 -30 -6t-16 -20q0 -5 2 -19t18 -46l109 -230q2 -5 7.5 -5t7.5 5l114 242q6 13 8.5 26t2.5 23q0 14 -9 20.5t-34 8.5
q-13 2 -13 15q0 14 14 14h153q6 0 10.5 -4.5t4.5 -10.5zM209 1000q17 0 29 -13t12 -31t-12 -31t-29 -13t-28.5 13t-11.5 31t11.5 31t28.5 13zM369 1000q17 0 28.5 -13t11.5 -31t-11.5 -31t-28.5 -13t-28.5 13t-11.5 31t11.5 31t28.5 13z" />
    <glyph glyph-name="Zacute" unicode="&#x179;" horiz-adv-x="542" 
d="M470 0h-431q-14 0 -14 14q0 3 2 7l353 685q3 7 -0.5 13.5t-11.5 6.5h-157q-44 0 -71 -11t-42.5 -32t-21.5 -51.5t-9 -69.5q0 -11 -11 -11q-10 0 -12 11l-12 181q-1 11 7 19t19 8h427q14 0 14 -14q0 -5 -1 -7l-350 -685q-3 -7 0.5 -13.5t11.5 -6.5h189q35 0 58.5 8.5
t39.5 24.5q20 19 29 52t20 81q2 9 11 9q12 0 12 -13l-23 -183q-1 -10 -8 -16.5t-18 -6.5zM194 896q-13 -9 -19 5q-6 12 8 25l120 130q5 8 14.5 13.5t19.5 5.5q15 0 24 -12q8 -13 8 -26q0 -15 -6 -27q-5 -11 -20 -20z" />
    <glyph glyph-name="Zdotaccent" unicode="&#x17b;" horiz-adv-x="542" 
d="M470 0h-431q-14 0 -14 14q0 3 2 7l353 685q3 7 -0.5 13.5t-11.5 6.5h-157q-44 0 -71 -11t-42.5 -32t-21.5 -51.5t-9 -69.5q0 -11 -11 -11q-10 0 -12 11l-12 181q-1 11 7 19t19 8h427q14 0 14 -14q0 -5 -1 -7l-350 -685q-3 -7 0.5 -13.5t11.5 -6.5h189q35 0 58.5 8.5
t39.5 24.5q20 19 29 52t20 81q2 9 11 9q12 0 12 -13l-23 -183q-1 -10 -8 -16.5t-18 -6.5zM317 990q0 -21 -13 -35.5t-33 -14.5t-33 14.5t-13 35.5t13 35.5t33 14.5t33 -14.5t13 -35.5z" />
    <glyph glyph-name="Zcaron" unicode="&#x17d;" horiz-adv-x="542" 
d="M470 0h-431q-14 0 -14 14q0 3 2 7l353 685q3 7 -0.5 13.5t-11.5 6.5h-157q-44 0 -71 -11t-42.5 -32t-21.5 -51.5t-9 -69.5q0 -11 -11 -11q-10 0 -12 11l-12 181q-1 11 7 19t19 8h427q14 0 14 -14q0 -5 -1 -7l-350 -685q-3 -7 0.5 -13.5t11.5 -6.5h189q35 0 58.5 8.5
t39.5 24.5q20 19 29 52t20 81q2 9 11 9q12 0 12 -13l-23 -183q-1 -10 -8 -16.5t-18 -6.5zM263 893q-12 0 -21 13l-97 142q-8 11 -3 22q7 10 17 2l111 -106l112 105q11 10 17 -1q6 -10 -3 -22l-97 -142q-9 -13 -20 -13h-16z" />
    <glyph glyph-name="Aringacute" unicode="&#x1fa;" horiz-adv-x="583" 
d="M414 1049q8 -13 8 -26q0 -14 -5 -27q-6 -11 -21 -20l-3 -2q-9 -7 -10.5 -14t-1.5 -18q0 -19 -5 -41t-16 -41t-27.5 -31t-40.5 -12q-20 0 -36 9t-27 24q-2 4 -6.5 4.5t-8.5 -1.5l-18 -12q-13 -9 -19 5q-5 11 6 23l17 18q4 3 5.5 8t0.5 10q-2 10 -3 19.5t-1 17.5
q0 20 5.5 41.5t16.5 40.5t28 31t40 12q17 0 30 -7t24 -18q5 -3 10 0q7 8 15.5 13.5t19.5 5.5q14 0 23 -12zM292 848q18 0 30 9.5t19.5 23.5t11 30.5t3.5 30.5t-3.5 30.5t-11 30.5t-20 23t-29.5 9t-29.5 -9t-20.5 -23t-11.5 -30.5t-3.5 -30.5t3.5 -30.5t11.5 -30.5t20 -23.5
t30 -9.5zM569 29q12 -2 12 -14q0 -6 -4.5 -10.5t-10.5 -4.5h-184q-7 0 -11 5t-3 12q2 10 13 12q18 2 31 9.5t13 22.5q0 13 -3.5 34.5t-11.5 46.5l-33 104q-2 5 -8 5h-206q-6 0 -8 -6l-37 -126q-3 -11 -5 -24.5t-2 -24.5q0 -24 11 -32t34 -10q5 0 9.5 -4.5t3.5 -10.5
q0 -5 -4.5 -9t-9.5 -4h-137q-8 0 -12 5.5t-2 13.5t12 10q14 3 24 12t19.5 29t20.5 55.5t28 90.5l171 563q2 9 11 7q6 -2 8 -7l204 -650q8 -25 14 -43t13.5 -30t16.5 -18t23 -9zM353 299q4 0 6.5 3t0.5 7l-82 272q-1 8 -11 8q-8 0 -11 -8l-82 -272q-2 -4 0.5 -7t7.5 -3h171z
" />
    <glyph glyph-name="AEacute" unicode="&#x1fc;" horiz-adv-x="884" 
d="M847 233q6 1 10 -3t3 -10l-14 -200q-1 -8 -7 -14t-14 -6h-416q-6 0 -10.5 5t-3.5 12q1 10 13 12q20 3 31.5 8.5t17.5 17.5t8 32t2 51v203q0 17 -11 28t-28 11h-110q-16 0 -24 -14l-132 -247q-6 -11 -13 -26t-7 -27t4.5 -19t12.5 -11t18 -5.5t22 -2.5q6 0 10 -4.5t3 -10.5
q0 -5 -4.5 -9t-9.5 -4h-180q-7 0 -11.5 5t-3.5 11q2 11 13 13q16 4 26.5 8.5t19 12t16 18t16.5 25.5l308 558q11 20 12.5 36t-3.5 27.5t-14.5 18.5t-20.5 8q-6 1 -10 5.5t-3 10.5q2 13 15 13h421q11 0 18 -6.5t8 -16.5l22 -179q2 -8 -2 -12.5t-10 -4.5q-11 0 -13 10
q-12 91 -46.5 128t-99.5 37h-94q-18 0 -23.5 -7t-5.5 -35v-214q0 -17 12 -29.5t30 -12.5h84q26 0 42.5 3t26.5 13.5t15 29.5t9 50q0 9 10 9t10 -11v-257q0 -10 -11 -10q-9 2 -9 10q-4 34 -9 56t-15 35t-26.5 18.5t-42.5 5.5h-84q-18 0 -30 -12.5t-12 -29.5v-240
q0 -18 4.5 -29t14.5 -17t26 -7.5t39 -1.5h30q46 0 76 14t48.5 38.5t28.5 57t16 69.5q2 11 11 11zM428 428q17 0 28 11.5t11 28.5v192q0 5 -5.5 6.5t-7.5 -3.5l-118 -219q-3 -5 0.5 -10.5t9.5 -5.5h82zM512 896q-13 -9 -19 5q-6 12 8 25l120 130q5 8 14.5 13.5t19.5 5.5
q15 0 24 -12q8 -13 8 -26q0 -15 -6 -27q-5 -11 -20 -20z" />
    <glyph glyph-name="Oslashacute" unicode="&#x1fe;" 
d="M222 896q-14 -9 -19 5q-6 13 7 25l120 130q7 8 15.5 13.5t19.5 5.5q14 0 23 -12q8 -13 8 -26q0 -14 -5 -27q-6 -11 -21 -20zM510 765l-25 -48q-8 -17 3 -33q40 -54 61.5 -130.5t21.5 -168.5q0 -90 -20 -163.5t-56 -126.5t-86.5 -82t-110.5 -29q-81 0 -144 52
q-5 5 -12 3.5t-10 -7.5l-20 -40q-2 -3 -5.5 -4t-6.5 1l-10 5q-8 4 -3 12l24 47q8 17 -2 32q-40 54 -62 131t-22 173q0 89 20 162t56 125t86 81t111 29q82 0 144 -53q5 -5 12 -3.5t10 8.5l21 40q2 4 5.5 5t6.5 -1l10 -5q8 -4 3 -12zM121 386q0 -19 1 -44t4 -52.5t8 -56.5
t13 -56q3 -11 14 -11q8 0 13 8l228 443q11 21 8 44.5t-19 40.5q-18 20 -41 31t-52 11q-38 0 -66 -19t-48 -50t-32 -70t-19 -79t-9.5 -77t-2.5 -63zM299 26q40 0 69 19.5t48.5 51t31.5 71t18 80t8 78.5t2 66q0 37 -5.5 91.5t-22.5 108.5q-3 10 -13 10q-8 0 -13 -8l-228 -442
q-11 -22 -7.5 -46.5t21.5 -41.5q36 -38 91 -38z" />
    <glyph glyph-name="uni0218" unicode="&#x218;" horiz-adv-x="424" 
d="M370 539q-9 0 -11 8q-6 30 -16 63.5t-27.5 62t-44.5 47.5t-66 19q-38 0 -61 -31.5t-23 -79.5q0 -30 11 -54.5t31 -48t47.5 -46.5t60.5 -50q66 -54 97.5 -107.5t31.5 -120.5q0 -49 -14.5 -89t-39 -68.5t-57 -44t-68.5 -15.5q-53 0 -93.5 10.5t-80.5 45.5q-16 13 -18 36
l-3 145q0 11 10 11q8 0 10 -8q26 -105 69 -151.5t101 -46.5q45 0 72.5 36t27.5 94q0 39 -15 71t-38.5 59.5t-53 51.5t-58.5 45q-57 42 -79.5 94t-22.5 106q0 96 42.5 149.5t115.5 53.5q38 0 67 -8.5t59 -21.5q17 -8 27 -22.5t12 -33.5l9 -150q0 -11 -11 -11zM171 -315
q-6 7 2 13q18 14 35 35.5t17 53.5q0 13 -10 21t-22 17t-22 22t-10 36q0 28 13 40.5t34 12.5q26 0 40.5 -24t14.5 -66q0 -47 -17 -89t-62 -74q-7 -6 -13 2z" />
    <glyph glyph-name="uni021A" unicode="&#x21a;" horiz-adv-x="515" 
d="M454 770q10 0 17 -6.5t9 -16.5l22 -179q2 -17 -12 -17q-11 0 -13 10q-12 91 -46.5 128.5t-100.5 37.5h-10q-11 0 -19 -8t-8 -19v-565q0 -31 2.5 -50.5t10 -31t20.5 -17t34 -7.5q6 -1 10 -5.5t3 -10.5q0 -6 -4.5 -9.5t-10.5 -3.5h-214q-6 0 -10 4.5t-4 10.5q0 12 13 14
q21 3 34 8.5t20 18t9 35t2 58.5v551q0 11 -8 19t-19 8h-23q-32 0 -50.5 -9t-29 -29t-16 -52t-11.5 -77q0 -7 -8 -9q-13 -2 -13 11l-12 180q-1 11 7 19.5t19 8.5h410zM217 -315q-6 7 2 13q18 14 35 35.5t17 53.5q0 13 -10 21t-22 17t-22 22t-10 36q0 28 13 40.5t34 12.5
q26 0 40.5 -24t14.5 -66q0 -47 -17 -89t-62 -74q-7 -6 -13 2z" />
    <glyph glyph-name="Wgrave" unicode="&#x1e80;" horiz-adv-x="785" 
d="M780 755q0 -12 -13 -14t-21.5 -6.5t-14.5 -12.5t-10.5 -21.5t-10.5 -33.5q-22 -85 -38.5 -147.5t-30 -113t-24 -94t-22 -90.5t-25 -102.5t-30.5 -130.5q0 -5 -6 -5q-5 0 -7 5q-30 116 -62 234t-63 229q-2 5 -7.5 5t-7.5 -6l-121 -462q-2 -5 -7 -5q-6 0 -6 5
q-38 157 -81 315t-79 304q-9 38 -17.5 62.5t-17 39.5t-18 22t-22.5 9q-12 2 -12 15q0 14 14 14h175q14 0 14 -15q0 -12 -12 -14q-49 -9 -32 -84l113 -409q2 -6 7.5 -6t7.5 6l75 283q5 19 -1 36l-18 69q-9 35 -16.5 55.5t-15 31.5t-17 14.5t-23.5 4.5q-13 0 -13 14t14 14h193
q14 0 14 -14q0 -13 -13 -15q-51 -5 -51 -39q0 -10 4 -25.5t10 -36.5l112 -396q2 -6 7.5 -6t7.5 6l97 367q15 54 15 89q0 21 -10.5 30.5t-35.5 11.5q-13 0 -13 14q0 6 4.5 10t9.5 4h136q6 0 10.5 -4t4.5 -10v-1zM321 990q-16 11 -21 21q-5 12 -5 26q0 13 8 26q9 12 24 12
q11 0 18 -4q4 -2 7.5 -5.5l8.5 -8.5l120 -131q14 -13 8 -25q-5 -12 -20 -5z" />
    <glyph glyph-name="Wacute" unicode="&#x1e82;" horiz-adv-x="785" 
d="M780 755q0 -12 -13 -14t-21.5 -6.5t-14.5 -12.5t-10.5 -21.5t-10.5 -33.5q-22 -85 -38.5 -147.5t-30 -113t-24 -94t-22 -90.5t-25 -102.5t-30.5 -130.5q0 -5 -6 -5q-5 0 -7 5q-30 116 -62 234t-63 229q-2 5 -7.5 5t-7.5 -6l-121 -462q-2 -5 -7 -5q-6 0 -6 5
q-38 157 -81 315t-79 304q-9 38 -17.5 62.5t-17 39.5t-18 22t-22.5 9q-12 2 -12 15q0 14 14 14h175q14 0 14 -15q0 -12 -12 -14q-49 -9 -32 -84l113 -409q2 -6 7.5 -6t7.5 6l75 283q5 19 -1 36l-18 69q-9 35 -16.5 55.5t-15 31.5t-17 14.5t-23.5 4.5q-13 0 -13 14t14 14h193
q14 0 14 -14q0 -13 -13 -15q-51 -5 -51 -39q0 -10 4 -25.5t10 -36.5l112 -396q2 -6 7.5 -6t7.5 6l97 367q15 54 15 89q0 21 -10.5 30.5t-35.5 11.5q-13 0 -13 14q0 6 4.5 10t9.5 4h136q6 0 10.5 -4t4.5 -10v-1zM315 896q-13 -9 -19 5q-6 12 8 25l120 130q5 8 14.5 13.5
t19.5 5.5q15 0 24 -12q8 -13 8 -26q0 -15 -6 -27q-5 -11 -20 -20z" />
    <glyph glyph-name="Wdieresis" unicode="&#x1e84;" horiz-adv-x="785" 
d="M780 755q0 -12 -13 -14t-21.5 -6.5t-14.5 -12.5t-10.5 -21.5t-10.5 -33.5q-22 -85 -38.5 -147.5t-30 -113t-24 -94t-22 -90.5t-25 -102.5t-30.5 -130.5q0 -5 -6 -5q-5 0 -7 5q-30 116 -62 234t-63 229q-2 5 -7.5 5t-7.5 -6l-121 -462q-2 -5 -7 -5q-6 0 -6 5
q-38 157 -81 315t-79 304q-9 38 -17.5 62.5t-17 39.5t-18 22t-22.5 9q-12 2 -12 15q0 14 14 14h175q14 0 14 -15q0 -12 -12 -14q-49 -9 -32 -84l113 -409q2 -6 7.5 -6t7.5 6l75 283q5 19 -1 36l-18 69q-9 35 -16.5 55.5t-15 31.5t-17 14.5t-23.5 4.5q-13 0 -13 14t14 14h193
q14 0 14 -14q0 -13 -13 -15q-51 -5 -51 -39q0 -10 4 -25.5t10 -36.5l112 -396q2 -6 7.5 -6t7.5 6l97 367q15 54 15 89q0 21 -10.5 30.5t-35.5 11.5q-13 0 -13 14q0 6 4.5 10t9.5 4h136q6 0 10.5 -4t4.5 -10v-1zM312 1000q17 0 29 -13t12 -31t-12 -31t-29 -13t-28.5 13
t-11.5 31t11.5 31t28.5 13zM472 1000q17 0 28.5 -13t11.5 -31t-11.5 -31t-28.5 -13t-28.5 13t-11.5 31t11.5 31t28.5 13z" />
    <glyph glyph-name="Ygrave" unicode="&#x1ef2;" horiz-adv-x="579" 
d="M574 755q0 -12 -13 -14q-16 -2 -28 -9t-23 -21t-23.5 -36.5t-28.5 -56.5l-115 -247q-8 -19 -8 -39v-197q0 -32 3 -52t11.5 -31t22.5 -16t36 -7q13 -2 13 -14q0 -6 -4.5 -10.5t-10.5 -4.5h-226q-6 0 -10.5 4.5t-4.5 10.5q0 12 13 14q24 3 38 8.5t21.5 18t10 35t2.5 58.5
v172q0 11 -2.5 20.5t-7.5 19.5l-100 204q-26 53 -43.5 86t-31 52.5t-25 27.5t-23.5 10t-12 14q0 6 4.5 10.5t10.5 4.5h204q14 0 14 -14t-13 -14q-14 -1 -30 -6t-16 -20q0 -5 2 -19t18 -46l109 -230q2 -5 7.5 -5t7.5 5l114 242q6 13 8.5 26t2.5 23q0 14 -9 20.5t-34 8.5
q-13 2 -13 15q0 14 14 14h153q6 0 10.5 -4.5t4.5 -10.5zM218 990q-16 11 -21 21q-5 12 -5 26q0 13 8 26q9 12 24 12q11 0 18 -4q4 -2 7.5 -5.5l8.5 -8.5l120 -131q14 -13 8 -25q-5 -12 -20 -5z" />
    <glyph glyph-name="uni01F4" unicode="&#x1f4;" horiz-adv-x="584" 
d="M568 412q14 0 14 -15q0 -12 -11 -14t-18.5 -7t-11.5 -15.5t-5.5 -27t-1.5 -42.5v-207q0 -20 -10.5 -37.5t-29.5 -26.5q-35 -17 -79 -26.5t-93 -9.5q-64 0 -123.5 32t-101.5 92q-71 102 -72 269q0 88 20 160t56 128q40 63 92 92t110 29q59 0 99 -9.5t75 -25.5
q28 -13 30 -46l13 -172q0 -11 -11 -11q-8 0 -10 9q-9 41 -22.5 78.5t-34 66.5t-49.5 46.5t-70 17.5q-50 0 -88 -28.5t-63 -77.5t-37.5 -115t-12.5 -142q0 -81 16 -145.5t45 -109t69.5 -68.5t89.5 -24q48 0 79.5 21t31.5 50v176q0 32 -5.5 51.5t-17 31t-29 16t-42.5 7.5
q-6 1 -10 5.5t-3 10.5q2 13 15 13h207zM226 896q-13 -9 -19 5q-6 12 8 25l120 130q5 8 14.5 13.5t19.5 5.5q15 0 24 -12q8 -13 8 -26q0 -15 -6 -27q-5 -11 -20 -20z" />
    <glyph glyph-name="uni01F5" unicode="&#x1f5;" horiz-adv-x="395" 
d="M309 535q38 0 62.5 -20t24.5 -52q0 -20 -10 -34t-25 -14q-21 0 -29 14.5t-12 32.5t-7.5 32.5t-15.5 14.5h-1q-15 -1 -22.5 -14.5t0.5 -26.5q16 -26 23.5 -56t7.5 -59q0 -28 -7.5 -59.5t-23.5 -58.5t-41 -44.5t-59 -17.5q-16 0 -28 3q-19 3 -33 -12q-14 -16 -25 -33
t-11 -25q0 -17 15 -23.5t50 -8.5q19 -1 37.5 -2t34.5 -2q18 -2 35 -3q47 -2 74 -36t27 -88q0 -42 -19 -78t-49.5 -62.5t-69.5 -41.5t-79 -15q-30 0 -56 9t-45.5 24.5t-31 36t-11.5 43.5q0 29 17 60t62 60q6 5 5.5 12t-7.5 10q-23 11 -31 26.5t-8 35.5q0 15 7 30.5t18 30.5
t24.5 28.5t26.5 24.5q4 3 3.5 7.5t-4.5 7.5q-46 29 -62.5 65t-16.5 88q0 40 11 74.5t30 60t44.5 40.5t54.5 15q21 0 39 -6t33 -17q8 -6 17 1q13 11 26.5 16.5t30.5 5.5zM178 202q29 0 45.5 28.5t16.5 76.5q0 18 -3.5 51t-12.5 65t-26 55.5t-44 23.5q-29 0 -45.5 -30.5
t-16.5 -82.5q0 -42 6.5 -76t17.5 -59t27 -38.5t35 -13.5zM142 -14q-32 3 -58 -15t-34 -49q-3 -12 -3 -25q0 -38 33 -61.5t88 -23.5q72 0 115.5 31t43.5 82q0 32 -23 44.5t-80 12.5q-17 0 -39 1t-43 3zM115 649q-13 -9 -19 5q-6 12 8 25l120 130q5 8 14.5 13.5t19.5 5.5
q15 0 24 -12q8 -13 8 -26q0 -15 -6 -27q-5 -11 -20 -20z" />
    <glyph glyph-name="lira" unicode="&#x20a4;" horiz-adv-x="484" 
d="M320 751q-19 0 -36 -8t-29.5 -26t-20 -48t-7.5 -74q0 -40 4.5 -71.5t10.5 -59.5q3 -11 14 -11h97q11 0 11 -10v-20q0 -10 -11 -10h-84q-6 0 -10.5 -5t-2.5 -11l3 -27q2 -13 14 -13h80q11 0 11 -10v-19q0 -10 -11 -10h-78q-13 0 -13 -14q-2 -33 -9 -75t-22 -96
q-4 -11 2 -18q26 -35 51.5 -54t56.5 -19q38 0 59 16t21 42q0 27 -10 37.5t-22 17.5t-22 16.5t-10 34.5q0 15 8.5 29t25.5 14q19 0 29.5 -16t15.5 -37.5t6 -43.5t1 -34q0 -20 -5.5 -43.5t-18 -43.5t-34.5 -33.5t-55 -13.5q-73 0 -120 78q-2 3 -5.5 3t-5.5 -3q-8 -13 -18 -27
t-22 -25.5t-26.5 -18.5t-30.5 -7q-42 0 -62.5 28.5t-20.5 66.5q0 22 6.5 43t19 38t31 27.5t42.5 10.5t43 -11.5t36 -27.5q3 -3 6.5 -2t4.5 5q7 41 5 76.5t-8 67.5q-2 12 -13 12h-64q-10 0 -10 10v19q0 10 10 10h48q7 0 11.5 5.5t2.5 12.5t-4 13.5t-4 14.5q-2 10 -13 10h-41
q-10 0 -10 10v20q0 10 10 10h25q7 0 11.5 5t2.5 11q-5 25 -7.5 51t-2.5 55q0 54 14.5 94t40 66t60 38.5t74.5 12.5q13 0 30.5 -3t33 -10.5t26 -19t10.5 -28.5l3 -180q0 -10 -11 -10q-8 0 -10 10q-8 95 -33.5 150.5t-74.5 55.5zM184 88q5 10 -1 19q-6 10 -13 20.5t-15 19.5
t-18 14.5t-22 5.5q-15 0 -25.5 -7t-17 -18.5t-9.5 -25t-3 -26.5t2.5 -25.5t9 -22.5t16.5 -16.5t25 -6.5q12 0 22.5 7t19.5 17t16.5 22.5t12.5 22.5z" />
    <glyph glyph-name="peseta" unicode="&#x20a7;" horiz-adv-x="1001" 
d="M241 770q104 0 163.5 -54t59.5 -158q0 -46 -12 -84.5t-35 -67.5q-18 -23 -36 -37t-38.5 -21.5t-46 -10t-58.5 -2.5q-13 0 -23 0.5t-21 1.5q-5 1 -9.5 -3t-4.5 -9v-189q0 -31 2.5 -50.5t9.5 -31.5t20 -17.5t34 -7.5q13 -2 13 -14q0 -6 -4.5 -10.5t-10.5 -4.5h-204
q-6 0 -10.5 4.5t-4.5 10.5q0 12 13 14q20 3 31.5 9t17 18.5t7 34.5t1.5 57v487q0 30 -2 49t-8 30.5t-17 17t-30 8.5q-13 3 -13 15q0 6 4.5 10.5t10.5 4.5h201zM180 427q0 -23 15 -34t36 -11q69 0 105.5 46t36.5 124q0 96 -39 135.5t-124 39.5q-19 0 -24.5 -9.5t-5.5 -32.5
v-258zM697 149q5 1 8.5 -2.5t2.5 -8.5q-8 -72 -38.5 -111t-75.5 -39q-44 0 -58.5 37.5t-14.5 104.5v345q0 11 -11 11h-14q-9 0 -15.5 6.5t-6.5 15.5q0 14 12 20q13 7 27.5 20t27 28.5t22 32.5t13.5 33q2 6 7 6q8 0 8 -8v-106q0 -11 11 -11h55q8 0 13 -5.5t5 -13.5t-5 -13
t-13 -5h-55q-11 0 -11 -11v-331q0 -52 5.5 -74t30.5 -22q20 0 36 27.5t24 64.5q2 9 10 9zM904 277q20 -17 34 -32t22.5 -31.5t12.5 -35.5t4 -44q0 -29 -9.5 -55.5t-25 -46.5t-37 -32t-45.5 -12q-15 0 -37.5 1.5t-42.5 7.5t-34.5 18.5t-14.5 34.5l-2 117q0 11 12 11
q9 0 11 -9q13 -80 33 -117.5t65 -37.5q32 0 50.5 25t18.5 61q0 27 -12 49t-32 38l-46 35q-52 41 -76 82.5t-24 86.5q0 69 32 106.5t83 37.5q25 0 48 -9.5t37 -18.5q9 -5 14 -13.5t5 -18.5l2 -113q0 -5 -3.5 -8.5t-8.5 -3.5q-9 0 -11 10q-14 75 -30.5 112t-52.5 37
q-27 0 -45 -19t-18 -60q0 -20 9.5 -42.5t26.5 -37.5z" />
    <glyph glyph-name="franc" unicode="&#x20a3;" horiz-adv-x="505" 
d="M479 568q2 -17 -12 -17q-11 0 -13 10q-12 91 -47 128t-100 37h-94q-18 0 -23 -9.5t-5 -36.5v-210q0 -17 12.5 -29.5t29.5 -12.5h76q26 0 42.5 3t27 13t16 29t8.5 50q0 9 10 9t10 -10v-256q0 -9 -9 -11q-9 0 -11 9q-3 33 -8 55.5t-15.5 36t-27.5 19t-43 5.5h-76
q-17 0 -29.5 -12.5t-12.5 -29.5v-86q0 -16 17 -16h56q5 0 9.5 -4.5t4.5 -10.5v-23q0 -6 -4.5 -10t-9.5 -4h-56q-8 0 -12.5 -5t-4.5 -12v-31q0 -31 2.5 -50.5t9 -31.5t19 -17.5t32.5 -7.5q13 -2 13 -14q0 -6 -4.5 -10.5t-10.5 -4.5h-205q-6 0 -10.5 4.5t-4.5 10.5q0 12 13 14
q20 3 31.5 8.5t18.5 18.5t9 35.5t2 57.5v18q0 7 -5 12t-12 5h-43q-5 0 -9.5 4t-4.5 10v23q0 6 4.5 10.5t9.5 4.5h43q7 0 12 4.5t5 11.5v383q0 30 -2 49t-8 30.5t-18 17.5t-32 9q-6 1 -10 5.5t-3 10.5q2 13 15 13h389q10 0 17 -6.5t9 -16.5z" />
    <glyph glyph-name="agrave" unicode="&#xe0;" horiz-adv-x="388" 
d="M374 142q0 -28 -1.5 -56t-9 -49.5t-23.5 -35t-44 -13.5q-20 0 -35.5 14t-22.5 46q-2 7 -8 8t-10 -4q-29 -39 -55.5 -51.5t-50.5 -12.5q-39 0 -63.5 32t-24.5 89q0 46 17 79.5t41 56.5q9 9 20 17.5t26.5 18.5t38 23t53.5 29q13 7 13 20v49q0 54 -18.5 79.5t-46.5 25.5
q-26 0 -42.5 -17t-16.5 -40q0 -16 2.5 -24t2.5 -25t-7.5 -32t-30.5 -15q-17 0 -29.5 15t-12.5 38q0 34 15.5 58.5t38 40t47.5 22.5t43 7q35 0 59.5 -13.5t39.5 -38.5q8 -13 12.5 -25t6.5 -26t3 -33t1 -45v-223q0 -40 6 -58t20 -18q8 0 13.5 7.5t9 20t5 28t1.5 30.5q2 8 7 9
q8 0 10 -8zM235 293q0 7 -5.5 10t-11.5 0q-26 -13 -47.5 -28t-37.5 -33.5t-24.5 -42t-8.5 -54.5q0 -46 16.5 -67.5t40.5 -21.5q16 0 30.5 10.5t25 26.5t16.5 35t6 37v128zM122 743q-16 11 -21 21q-5 12 -5 26q0 13 8 26q9 12 24 12q11 0 18 -4q4 -2 7.5 -5.5l8.5 -8.5
l120 -131q14 -13 8 -25q-5 -12 -20 -5z" />
    <glyph glyph-name="aacute" unicode="&#xe1;" horiz-adv-x="388" 
d="M374 142q0 -28 -1.5 -56t-9 -49.5t-23.5 -35t-44 -13.5q-20 0 -35.5 14t-22.5 46q-2 7 -8 8t-10 -4q-29 -39 -55.5 -51.5t-50.5 -12.5q-39 0 -63.5 32t-24.5 89q0 46 17 79.5t41 56.5q9 9 20 17.5t26.5 18.5t38 23t53.5 29q13 7 13 20v49q0 54 -18.5 79.5t-46.5 25.5
q-26 0 -42.5 -17t-16.5 -40q0 -16 2.5 -24t2.5 -25t-7.5 -32t-30.5 -15q-17 0 -29.5 15t-12.5 38q0 34 15.5 58.5t38 40t47.5 22.5t43 7q35 0 59.5 -13.5t39.5 -38.5q8 -13 12.5 -25t6.5 -26t3 -33t1 -45v-223q0 -40 6 -58t20 -18q8 0 13.5 7.5t9 20t5 28t1.5 30.5q2 8 7 9
q8 0 10 -8zM235 293q0 7 -5.5 10t-11.5 0q-26 -13 -47.5 -28t-37.5 -33.5t-24.5 -42t-8.5 -54.5q0 -46 16.5 -67.5t40.5 -21.5q16 0 30.5 10.5t25 26.5t16.5 35t6 37v128zM117 649q-13 -9 -19 5q-6 12 8 25l120 130q5 8 14.5 13.5t19.5 5.5q15 0 24 -12q8 -13 8 -26
q0 -15 -6 -27q-5 -11 -20 -20z" />
    <glyph glyph-name="acircumflex" unicode="&#xe2;" horiz-adv-x="388" 
d="M374 142q0 -28 -1.5 -56t-9 -49.5t-23.5 -35t-44 -13.5q-20 0 -35.5 14t-22.5 46q-2 7 -8 8t-10 -4q-29 -39 -55.5 -51.5t-50.5 -12.5q-39 0 -63.5 32t-24.5 89q0 46 17 79.5t41 56.5q9 9 20 17.5t26.5 18.5t38 23t53.5 29q13 7 13 20v49q0 54 -18.5 79.5t-46.5 25.5
q-26 0 -42.5 -17t-16.5 -40q0 -16 2.5 -24t2.5 -25t-7.5 -32t-30.5 -15q-17 0 -29.5 15t-12.5 38q0 34 15.5 58.5t38 40t47.5 22.5t43 7q35 0 59.5 -13.5t39.5 -38.5q8 -13 12.5 -25t6.5 -26t3 -33t1 -45v-223q0 -40 6 -58t20 -18q8 0 13.5 7.5t9 20t5 28t1.5 30.5q2 8 7 9
q8 0 10 -8zM235 293q0 7 -5.5 10t-11.5 0q-26 -13 -47.5 -28t-37.5 -33.5t-24.5 -42t-8.5 -54.5q0 -46 16.5 -67.5t40.5 -21.5q16 0 30.5 10.5t25 26.5t16.5 35t6 37v128zM319 675q9 -13 3 -23q-6 -11 -17 -1l-112 105l-111 -106q-9 -9 -16 2q-6 11 2 23l97 141q9 13 21 13
h16q11 0 20 -13z" />
    <glyph glyph-name="atilde" unicode="&#xe3;" horiz-adv-x="388" 
d="M374 142q0 -28 -1.5 -56t-9 -49.5t-23.5 -35t-44 -13.5q-20 0 -35.5 14t-22.5 46q-2 7 -8 8t-10 -4q-29 -39 -55.5 -51.5t-50.5 -12.5q-39 0 -63.5 32t-24.5 89q0 46 17 79.5t41 56.5q9 9 20 17.5t26.5 18.5t38 23t53.5 29q13 7 13 20v49q0 54 -18.5 79.5t-46.5 25.5
q-26 0 -42.5 -17t-16.5 -40q0 -16 2.5 -24t2.5 -25t-7.5 -32t-30.5 -15q-17 0 -29.5 15t-12.5 38q0 34 15.5 58.5t38 40t47.5 22.5t43 7q35 0 59.5 -13.5t39.5 -38.5q8 -13 12.5 -25t6.5 -26t3 -33t1 -45v-223q0 -40 6 -58t20 -18q8 0 13.5 7.5t9 20t5 28t1.5 30.5q2 8 7 9
q8 0 10 -8zM235 293q0 7 -5.5 10t-11.5 0q-26 -13 -47.5 -28t-37.5 -33.5t-24.5 -42t-8.5 -54.5q0 -46 16.5 -67.5t40.5 -21.5q16 0 30.5 10.5t25 26.5t16.5 35t6 37v128zM322 786q10 0 8 -10q-13 -61 -32.5 -87t-52.5 -26q-16 0 -29 5t-39 23l-19 12q-21 13 -34 13
q-23 0 -33 -11.5t-17 -35.5q-1 -6 -7 -6q-10 0 -8 9q10 53 31 80.5t51 27.5q28 0 59 -21l20 -14q23 -17 44 -17q14 0 28.5 10t22.5 42q2 6 7 6z" />
    <glyph glyph-name="adieresis" unicode="&#xe4;" horiz-adv-x="388" 
d="M374 142q0 -28 -1.5 -56t-9 -49.5t-23.5 -35t-44 -13.5q-20 0 -35.5 14t-22.5 46q-2 7 -8 8t-10 -4q-29 -39 -55.5 -51.5t-50.5 -12.5q-39 0 -63.5 32t-24.5 89q0 46 17 79.5t41 56.5q9 9 20 17.5t26.5 18.5t38 23t53.5 29q13 7 13 20v49q0 54 -18.5 79.5t-46.5 25.5
q-26 0 -42.5 -17t-16.5 -40q0 -16 2.5 -24t2.5 -25t-7.5 -32t-30.5 -15q-17 0 -29.5 15t-12.5 38q0 34 15.5 58.5t38 40t47.5 22.5t43 7q35 0 59.5 -13.5t39.5 -38.5q8 -13 12.5 -25t6.5 -26t3 -33t1 -45v-223q0 -40 6 -58t20 -18q8 0 13.5 7.5t9 20t5 28t1.5 30.5q2 8 7 9
q8 0 10 -8zM235 293q0 7 -5.5 10t-11.5 0q-26 -13 -47.5 -28t-37.5 -33.5t-24.5 -42t-8.5 -54.5q0 -46 16.5 -67.5t40.5 -21.5q16 0 30.5 10.5t25 26.5t16.5 35t6 37v128zM114 753q17 0 29 -13t12 -31t-12 -31t-29 -13t-28.5 13t-11.5 31t11.5 31t28.5 13zM274 753
q17 0 28.5 -13t11.5 -31t-11.5 -31t-28.5 -13t-28.5 13t-11.5 31t11.5 31t28.5 13z" />
    <glyph glyph-name="aring" unicode="&#xe5;" horiz-adv-x="388" 
d="M374 142q0 -28 -1.5 -56t-9 -49.5t-23.5 -35t-44 -13.5q-20 0 -35.5 14t-22.5 46q-2 7 -8 8t-10 -4q-29 -39 -55.5 -51.5t-50.5 -12.5q-39 0 -63.5 32t-24.5 89q0 46 17 79.5t41 56.5q9 9 20 17.5t26.5 18.5t38 23t53.5 29q13 7 13 20v49q0 54 -18.5 79.5t-46.5 25.5
q-26 0 -42.5 -17t-16.5 -40q0 -16 2.5 -24t2.5 -25t-7.5 -32t-30.5 -15q-17 0 -29.5 15t-12.5 38q0 34 15.5 58.5t38 40t47.5 22.5t43 7q35 0 59.5 -13.5t39.5 -38.5q8 -13 12.5 -25t6.5 -26t3 -33t1 -45v-223q0 -40 6 -58t20 -18q8 0 13.5 7.5t9 20t5 28t1.5 30.5q2 8 7 9
q8 0 10 -8zM235 293q0 7 -5.5 10t-11.5 0q-26 -13 -47.5 -28t-37.5 -33.5t-24.5 -42t-8.5 -54.5q0 -46 16.5 -67.5t40.5 -21.5q16 0 30.5 10.5t25 26.5t16.5 35t6 37v128zM195 570q-24 0 -41 12t-28 31t-16 41t-5 41q0 20 5.5 41.5t16.5 40.5t28 31t40 12t40 -12t28 -31
t16 -40.5t5 -41.5q0 -19 -5 -41t-16 -41t-27.5 -31t-40.5 -12zM195 601q18 0 30 9.5t19.5 23.5t11 30.5t3.5 30.5t-3.5 30.5t-11 30.5t-20 23t-29.5 9q-18 0 -30 -9t-20 -23t-11.5 -30.5t-3.5 -30.5t3.5 -30.5t11.5 -30.5t20 -23.5t30 -9.5z" />
    <glyph glyph-name="ae" unicode="&#xe6;" 
d="M560 191q5 1 9 -3t3 -9q-10 -42 -23.5 -77t-34 -60.5t-48 -39.5t-65.5 -14q-51 0 -87 34.5t-54 97.5q-2 5 -6 4.5t-6 -5.5q-16 -71 -54 -101t-80 -30q-39 0 -63.5 32t-24.5 89q0 46 17 79.5t41 56.5q9 9 20 17.5t26.5 18.5t38 23t53.5 29q13 7 13 20v49q0 54 -18.5 79.5
t-46.5 25.5q-26 0 -42.5 -17t-16.5 -40q0 -16 2.5 -24t2.5 -25t-7.5 -32t-30.5 -15q-17 0 -29.5 15t-12.5 38q0 34 15.5 58.5t38 40t47.5 22.5t43 7q35 0 59.5 -13.5t39.5 -38.5q2 -3 3 -5.5t3 -5.5q2 -5 7 -5t8 4q22 30 51 47t64 17q37 0 63 -19.5t43.5 -48t26 -60
t9.5 -55.5q1 -13 -4.5 -21.5t-15.5 -8.5h-219q-7 0 -11 -4.5t-4 -10.5q2 -30 4 -53.5t6 -43.5t11 -38.5t17 -38.5q34 -64 93 -64q41 0 71 31t46 84q2 7 9 7zM306 376q-1 -7 3.5 -12t10.5 -5h122q19 0 24.5 12.5t2.5 28.5q-8 49 -24.5 71t-51.5 22q-33 0 -55.5 -30t-31.5 -87
zM157 56q16 0 30.5 10.5t25 26.5t16.5 35t6 37v128q0 7 -5.5 10t-11.5 0q-26 -13 -47.5 -28t-37.5 -33.5t-24.5 -42t-8.5 -54.5q0 -46 16.5 -67.5t40.5 -21.5z" />
    <glyph glyph-name="ccedilla" unicode="&#xe7;" horiz-adv-x="377" 
d="M342 191q5 1 8.5 -2.5t2.5 -8.5q-20 -89 -53 -134.5t-87 -55.5q-14 -2 -18 -16l-8 -27q-1 -4 1.5 -7t6.5 -2q3 0 5.5 0.5t5.5 0.5q34 0 53 -21.5t19 -59.5q0 -45 -28 -71t-77 -26q-32 0 -52.5 15.5t-20.5 41.5q0 11 4 25.5t23 14.5q15 0 19.5 -11t7 -24t5.5 -24t14 -11
q22 0 32 20.5t10 44.5q0 23 -10.5 33.5t-28.5 10.5q-6 0 -11.5 -2t-10.5 -4q-5 -3 -9 1q-3 3 -2 8l21 72q5 16 -11 20q-28 8 -52 30t-40.5 55t-26 76t-9.5 93q0 73 18 131.5t52 97.5q52 60 113 60q12 0 33 -2.5t41.5 -9.5t35.5 -18.5t15 -28.5l2 -114q0 -13 -13 -11
q-8 0 -10 9q-11 44 -23 71.5t-25.5 43t-28.5 21t-32 5.5q-25 0 -46 -14.5t-36 -41t-23.5 -64t-8.5 -82.5q0 -50 9.5 -92t26.5 -72t41 -46.5t53 -16.5q39 0 68.5 27.5t46.5 84.5q2 7 8 7z" />
    <glyph glyph-name="egrave" unicode="&#xe8;" horiz-adv-x="379" 
d="M345 191q5 0 8.5 -4t1.5 -9q-10 -42 -23.5 -76.5t-33.5 -60t-47.5 -39.5t-65.5 -14q-37 0 -66.5 19t-50 53.5t-31.5 83t-11 108.5q0 62 12.5 113.5t35 89.5t54.5 59t71 21q36 0 62.5 -19.5t43.5 -48t26 -60t10 -55.5q1 -13 -5 -21.5t-15 -8.5h-220q-6 0 -10.5 -4.5
t-3.5 -10.5q2 -30 4 -53.5t6 -44t10.5 -39t17.5 -38.5q34 -64 92 -64q42 0 72 31.5t46 84.5q2 7 10 7zM226 359q18 0 23.5 12.5t3.5 28.5q-8 49 -25 71t-52 22q-32 0 -55 -30t-31 -87q-1 -7 3 -12t11 -5h122zM118 743q-16 11 -21 21q-5 12 -5 26q0 13 8 26q9 12 24 12
q11 0 18 -4q4 -2 7.5 -5.5l8.5 -8.5l120 -131q14 -13 8 -25q-5 -12 -20 -5z" />
    <glyph glyph-name="eacute" unicode="&#xe9;" horiz-adv-x="379" 
d="M345 191q5 0 8.5 -4t1.5 -9q-10 -42 -23.5 -76.5t-33.5 -60t-47.5 -39.5t-65.5 -14q-37 0 -66.5 19t-50 53.5t-31.5 83t-11 108.5q0 62 12.5 113.5t35 89.5t54.5 59t71 21q36 0 62.5 -19.5t43.5 -48t26 -60t10 -55.5q1 -13 -5 -21.5t-15 -8.5h-220q-6 0 -10.5 -4.5
t-3.5 -10.5q2 -30 4 -53.5t6 -44t10.5 -39t17.5 -38.5q34 -64 92 -64q42 0 72 31.5t46 84.5q2 7 10 7zM226 359q18 0 23.5 12.5t3.5 28.5q-8 49 -25 71t-52 22q-32 0 -55 -30t-31 -87q-1 -7 3 -12t11 -5h122zM112 649q-13 -9 -19 5q-6 12 8 25l120 130q5 8 14.5 13.5
t19.5 5.5q15 0 24 -12q8 -13 8 -26q0 -15 -6 -27q-5 -11 -20 -20z" />
    <glyph glyph-name="ecircumflex" unicode="&#xea;" horiz-adv-x="379" 
d="M345 191q5 0 8.5 -4t1.5 -9q-10 -42 -23.5 -76.5t-33.5 -60t-47.5 -39.5t-65.5 -14q-37 0 -66.5 19t-50 53.5t-31.5 83t-11 108.5q0 62 12.5 113.5t35 89.5t54.5 59t71 21q36 0 62.5 -19.5t43.5 -48t26 -60t10 -55.5q1 -13 -5 -21.5t-15 -8.5h-220q-6 0 -10.5 -4.5
t-3.5 -10.5q2 -30 4 -53.5t6 -44t10.5 -39t17.5 -38.5q34 -64 92 -64q42 0 72 31.5t46 84.5q2 7 10 7zM226 359q18 0 23.5 12.5t3.5 28.5q-8 49 -25 71t-52 22q-32 0 -55 -30t-31 -87q-1 -7 3 -12t11 -5h122zM315 675q9 -13 3 -23q-6 -11 -17 -1l-112 105l-111 -106
q-9 -9 -16 2q-6 11 2 23l97 141q9 13 21 13h16q11 0 20 -13z" />
    <glyph glyph-name="edieresis" unicode="&#xeb;" horiz-adv-x="379" 
d="M345 191q5 0 8.5 -4t1.5 -9q-10 -42 -23.5 -76.5t-33.5 -60t-47.5 -39.5t-65.5 -14q-37 0 -66.5 19t-50 53.5t-31.5 83t-11 108.5q0 62 12.5 113.5t35 89.5t54.5 59t71 21q36 0 62.5 -19.5t43.5 -48t26 -60t10 -55.5q1 -13 -5 -21.5t-15 -8.5h-220q-6 0 -10.5 -4.5
t-3.5 -10.5q2 -30 4 -53.5t6 -44t10.5 -39t17.5 -38.5q34 -64 92 -64q42 0 72 31.5t46 84.5q2 7 10 7zM226 359q18 0 23.5 12.5t3.5 28.5q-8 49 -25 71t-52 22q-32 0 -55 -30t-31 -87q-1 -7 3 -12t11 -5h122zM109 753q17 0 29 -13t12 -31t-12 -31t-29 -13t-28.5 13t-11.5 31
t11.5 31t28.5 13zM269 753q17 0 28.5 -13t11.5 -31t-11.5 -31t-28.5 -13t-28.5 13t-11.5 31t11.5 31t28.5 13z" />
    <glyph glyph-name="igrave" unicode="&#xec;" horiz-adv-x="246" 
d="M210 29q13 -2 13 -14q0 -6 -4.5 -10.5t-10.5 -4.5h-168q-6 0 -10.5 4.5t-4.5 10.5q0 12 13 14q17 2 27.5 7t16 16t7.5 30t2 49v268q0 19 -4 31t-10 19t-13.5 10t-14.5 4q-13 2 -13 15t13 16q14 2 39.5 10.5t57.5 29.5q4 2 7 1q8 -2 8 -10v-392q0 -30 1.5 -49t7 -30
t15 -16.5t25.5 -8.5zM51 743q-16 11 -21 21q-5 12 -5 26q0 13 8 26q9 12 24 12q11 0 18 -4q4 -2 7.5 -5.5l8.5 -8.5l120 -131q14 -13 8 -25q-5 -12 -20 -5z" />
    <glyph glyph-name="iacute" unicode="&#xed;" horiz-adv-x="246" 
d="M210 29q13 -2 13 -14q0 -6 -4.5 -10.5t-10.5 -4.5h-168q-6 0 -10.5 4.5t-4.5 10.5q0 12 13 14q17 2 27.5 7t16 16t7.5 30t2 49v268q0 19 -4 31t-10 19t-13.5 10t-14.5 4q-13 2 -13 15t13 16q14 2 39.5 10.5t57.5 29.5q4 2 7 1q8 -2 8 -10v-392q0 -30 1.5 -49t7 -30
t15 -16.5t25.5 -8.5zM46 649q-13 -9 -19 5q-6 12 8 25l120 130q5 8 14.5 13.5t19.5 5.5q15 0 24 -12q8 -13 8 -26q0 -15 -6 -27q-5 -11 -20 -20z" />
    <glyph glyph-name="icircumflex" unicode="&#xee;" horiz-adv-x="246" 
d="M210 29q13 -2 13 -14q0 -6 -4.5 -10.5t-10.5 -4.5h-168q-6 0 -10.5 4.5t-4.5 10.5q0 12 13 14q17 2 27.5 7t16 16t7.5 30t2 49v268q0 19 -4 31t-10 19t-13.5 10t-14.5 4q-13 2 -13 15t13 16q14 2 39.5 10.5t57.5 29.5q4 2 7 1q8 -2 8 -10v-392q0 -30 1.5 -49t7 -30
t15 -16.5t25.5 -8.5zM248 675q9 -13 3 -23q-6 -11 -17 -1l-112 105l-111 -106q-9 -9 -16 2q-6 11 2 23l97 141q9 13 21 13h16q11 0 20 -13z" />
    <glyph glyph-name="idieresis" unicode="&#xef;" horiz-adv-x="246" 
d="M210 29q13 -2 13 -14q0 -6 -4.5 -10.5t-10.5 -4.5h-168q-6 0 -10.5 4.5t-4.5 10.5q0 12 13 14q17 2 27.5 7t16 16t7.5 30t2 49v268q0 19 -4 31t-10 19t-13.5 10t-14.5 4q-13 2 -13 15t13 16q14 2 39.5 10.5t57.5 29.5q4 2 7 1q8 -2 8 -10v-392q0 -30 1.5 -49t7 -30
t15 -16.5t25.5 -8.5zM43 753q17 0 29 -13t12 -31t-12 -31t-29 -13t-28.5 13t-11.5 31t11.5 31t28.5 13zM203 753q17 0 28.5 -13t11.5 -31t-11.5 -31t-28.5 -13t-28.5 13t-11.5 31t11.5 31t28.5 13z" />
    <glyph glyph-name="ntilde" unicode="&#xf1;" horiz-adv-x="439" 
d="M414 31q12 -3 12 -15q0 -16 -16 -16h-146q-6 0 -10.5 4.5t-4.5 10.5q0 12 12 15q14 3 23 8.5t14 16.5t6.5 29t1.5 45v220q0 123 -62 123q-16 0 -32.5 -9t-30 -24.5t-22.5 -37t-9 -46.5v-226q0 -27 1.5 -45t6.5 -29t14 -16.5t23 -8.5q12 -3 12 -15q0 -6 -4.5 -10.5
t-10.5 -4.5h-150q-6 0 -10.5 4.5t-4.5 10.5q0 13 12 15q14 4 22 9.5t12.5 16t5.5 28t1 45.5v270q0 19 -4 31t-10 19t-13.5 10t-14.5 4q-16 4 -13 19q3 9 13 11q14 3 39.5 11.5t57.5 28.5q5 5 12 0q3 -4 3 -9v-60q0 -5 5.5 -7t8.5 3q25 40 50.5 57.5t58.5 17.5
q103 0 103 -185v-221q0 -27 1 -44.5t5 -28t11.5 -16t20.5 -9.5zM347 786q10 0 8 -10q-13 -61 -32.5 -87t-52.5 -26q-16 0 -29 5t-39 23l-19 12q-21 13 -34 13q-23 0 -33 -11.5t-17 -35.5q-1 -6 -7 -6q-10 0 -8 9q10 53 31 80.5t51 27.5q28 0 59 -21l20 -14q23 -17 44 -17
q14 0 28.5 10t22.5 42q2 6 7 6z" />
    <glyph glyph-name="ograve" unicode="&#xf2;" horiz-adv-x="420" 
d="M206 -12q-38 0 -71 20.5t-57 57.5t-38 87.5t-14 111.5q0 60 13.5 110t38 85t59.5 54.5t77 19.5q38 0 71 -19t57 -53.5t38 -84t14 -109.5q0 -61 -13.5 -112t-38 -88.5t-59.5 -58.5t-77 -21zM198 502q-44 0 -70.5 -48.5t-26.5 -136.5q0 -17 1.5 -46t6 -62t13 -66.5t22 -61
t32.5 -44.5t45 -17q46 0 72 57.5t26 159.5q0 18 -2 44t-7 55.5t-13.5 59t-22 53t-32.5 38.5t-44 15zM138 743q-16 11 -21 21q-5 12 -5 26q0 13 8 26q9 12 24 12q11 0 18 -4q4 -2 7.5 -5.5l8.5 -8.5l120 -131q14 -13 8 -25q-5 -12 -20 -5z" />
    <glyph glyph-name="oacute" unicode="&#xf3;" horiz-adv-x="420" 
d="M206 -12q-38 0 -71 20.5t-57 57.5t-38 87.5t-14 111.5q0 60 13.5 110t38 85t59.5 54.5t77 19.5q38 0 71 -19t57 -53.5t38 -84t14 -109.5q0 -61 -13.5 -112t-38 -88.5t-59.5 -58.5t-77 -21zM198 502q-44 0 -70.5 -48.5t-26.5 -136.5q0 -17 1.5 -46t6 -62t13 -66.5t22 -61
t32.5 -44.5t45 -17q46 0 72 57.5t26 159.5q0 18 -2 44t-7 55.5t-13.5 59t-22 53t-32.5 38.5t-44 15zM133 649q-13 -9 -19 5q-6 12 8 25l120 130q5 8 14.5 13.5t19.5 5.5q15 0 24 -12q8 -13 8 -26q0 -15 -6 -27q-5 -11 -20 -20z" />
    <glyph glyph-name="ocircumflex" unicode="&#xf4;" horiz-adv-x="420" 
d="M206 -12q-38 0 -71 20.5t-57 57.5t-38 87.5t-14 111.5q0 60 13.5 110t38 85t59.5 54.5t77 19.5q38 0 71 -19t57 -53.5t38 -84t14 -109.5q0 -61 -13.5 -112t-38 -88.5t-59.5 -58.5t-77 -21zM198 502q-44 0 -70.5 -48.5t-26.5 -136.5q0 -17 1.5 -46t6 -62t13 -66.5t22 -61
t32.5 -44.5t45 -17q46 0 72 57.5t26 159.5q0 18 -2 44t-7 55.5t-13.5 59t-22 53t-32.5 38.5t-44 15zM335 675q9 -13 3 -23q-6 -11 -17 -1l-112 105l-111 -106q-9 -9 -16 2q-6 11 2 23l97 141q9 13 21 13h16q11 0 20 -13z" />
    <glyph glyph-name="otilde" unicode="&#xf5;" horiz-adv-x="420" 
d="M206 -12q-38 0 -71 20.5t-57 57.5t-38 87.5t-14 111.5q0 60 13.5 110t38 85t59.5 54.5t77 19.5q38 0 71 -19t57 -53.5t38 -84t14 -109.5q0 -61 -13.5 -112t-38 -88.5t-59.5 -58.5t-77 -21zM198 502q-44 0 -70.5 -48.5t-26.5 -136.5q0 -17 1.5 -46t6 -62t13 -66.5t22 -61
t32.5 -44.5t45 -17q46 0 72 57.5t26 159.5q0 18 -2 44t-7 55.5t-13.5 59t-22 53t-32.5 38.5t-44 15zM338 786q10 0 8 -10q-13 -61 -32.5 -87t-52.5 -26q-16 0 -29 5t-39 23l-19 12q-21 13 -34 13q-23 0 -33 -11.5t-17 -35.5q-1 -6 -7 -6q-10 0 -8 9q10 53 31 80.5t51 27.5
q28 0 59 -21l20 -14q23 -17 44 -17q14 0 28.5 10t22.5 42q2 6 7 6z" />
    <glyph glyph-name="odieresis" unicode="&#xf6;" horiz-adv-x="420" 
d="M206 -12q-38 0 -71 20.5t-57 57.5t-38 87.5t-14 111.5q0 60 13.5 110t38 85t59.5 54.5t77 19.5q38 0 71 -19t57 -53.5t38 -84t14 -109.5q0 -61 -13.5 -112t-38 -88.5t-59.5 -58.5t-77 -21zM198 502q-44 0 -70.5 -48.5t-26.5 -136.5q0 -17 1.5 -46t6 -62t13 -66.5t22 -61
t32.5 -44.5t45 -17q46 0 72 57.5t26 159.5q0 18 -2 44t-7 55.5t-13.5 59t-22 53t-32.5 38.5t-44 15zM130 753q17 0 29 -13t12 -31t-12 -31t-29 -13t-28.5 13t-11.5 31t11.5 31t28.5 13zM290 753q17 0 28.5 -13t11.5 -31t-11.5 -31t-28.5 -13t-28.5 13t-11.5 31t11.5 31
t28.5 13z" />
    <glyph glyph-name="oslash" unicode="&#xf8;" horiz-adv-x="420" 
d="M389 502l-27 -41q-10 -15 -2 -29q16 -33 25 -74t9 -90q0 -61 -13.5 -112t-38 -88.5t-59.5 -58.5t-77 -21q-61 0 -106 50q-4 5 -9.5 4.5t-8.5 -5.5l-23 -35q-6 -8 -14 -3l-11 8q-8 6 -2 13l29 44q9 14 1 30q-17 35 -26.5 77.5t-9.5 93.5q0 60 13.5 110t38 85t59.5 54.5
t77 19.5q62 0 108 -48q4 -4 9.5 -3.5t8.5 5.5l21 32q6 9 14 3l11 -7q8 -6 3 -14zM101 317q0 -74 12 -139q2 -7 9 -8.5t11 4.5l142 216q18 26 2 54q-15 26 -33.5 42t-45.5 16q-44 0 -70.5 -48.5t-26.5 -136.5zM221 20q46 0 72 57.5t26 159.5q0 29 -2.5 56.5t-7.5 53.5
q-2 8 -8.5 9.5t-11.5 -5.5l-142 -215q-17 -25 -4 -53q2 -2 2 -4q30 -59 76 -59z" />
    <glyph glyph-name="ugrave" unicode="&#xf9;" horiz-adv-x="431" 
d="M405 60q6 -1 10 -6.5t2 -12.5q-2 -9 -13 -11q-14 -3 -39 -11.5t-57 -28.5q-7 -5 -12 0q-4 3 -4 9v60q0 5 -5 7t-8 -3q-26 -40 -51.5 -57.5t-58.5 -17.5q-102 0 -102 185v248q0 39 -8.5 53.5t-31.5 19.5q-6 1 -9.5 6t-2.5 11q2 12 16 12h94q12 0 12 -12v-337
q0 -123 62 -123q16 0 32.5 9t30 25t22 37t8.5 46v252q0 21 -2 34.5t-7.5 21.5t-15 12t-24.5 6q-14 2 -12 16q0 5 4.5 9t10.5 4h104q12 0 12 -12v-387q0 -19 4 -31t10.5 -19t14 -10t14.5 -4zM144 743q-16 11 -21 21q-5 12 -5 26q0 13 8 26q9 12 24 12q11 0 18 -4
q4 -2 7.5 -5.5l8.5 -8.5l120 -131q14 -13 8 -25q-5 -12 -20 -5z" />
    </font>
</defs>
</svg>
