<svg width="36" height="37" viewBox="0 0 36 37" fill="none" xmlns="http://www.w3.org/2000/svg">
<path d="M2.73612 17.2612H0.344421V19.7099H2.73612V17.2612Z" fill="#666719"/>
<path d="M5.12785 17.2612H2.73615V19.7099H5.12785V17.2612Z" fill="#E8E99B"/>
<path d="M7.51951 17.2612H5.12781V19.7099H7.51951V17.2612Z" fill="#B9BF9C"/>
<path d="M9.91123 17.2612H7.51953V19.7099H9.91123V17.2612Z" fill="#FFFFC6"/>
<path d="M12.303 17.2612H9.91125V19.7099H12.303V17.2612Z" fill="#E2ED70"/>
<path d="M14.6946 17.2612H12.3029V19.7099H14.6946V17.2612Z" fill="#FFFF95"/>
<path d="M2.73612 14.8125H0.344421V17.2612H2.73612V14.8125Z" fill="#815F0B"/>
<path d="M5.12785 14.8125H2.73615V17.2612H5.12785V14.8125Z" fill="#FFE090"/>
<path d="M7.51951 14.8125H5.12781V17.2612H7.51951V14.8125Z" fill="#D2D0C3"/>
<path d="M9.91123 14.8125H7.51953V17.2612H9.91123V14.8125Z" fill="#F2EEA7"/>
<path d="M12.303 14.8125H9.91125V17.2612H12.303V14.8125Z" fill="#FFFF8E"/>
<path d="M14.6946 14.8125H12.3029V17.2612H14.6946V14.8125Z" fill="#EEF77A"/>
<path d="M2.73612 12.364H0.344421V14.8127H2.73612V12.364Z" fill="#744F00"/>
<path d="M5.12785 12.364H2.73615V14.8127H5.12785V12.364Z" fill="#FFFEAD"/>
<path d="M7.51951 12.364H5.12781V14.8127H7.51951V12.364Z" fill="#C2B9AC"/>
<path d="M9.91123 12.364H7.51953V14.8127H9.91123V12.364Z" fill="#FFFFBB"/>
<path d="M12.303 12.364H9.91125V14.8127H12.303V12.364Z" fill="#EBF576"/>
<path d="M14.6946 12.364H12.3029V14.8127H14.6946V12.364Z" fill="#FFFF93"/>
<path d="M5.12785 9.91528H2.73615V12.364H5.12785V9.91528Z" fill="#4B6532"/>
<path d="M7.51951 9.91528H5.12781V12.364H7.51951V9.91528Z" fill="#5F6014"/>
<path d="M9.91123 9.91528H7.51953V12.364H9.91123V9.91528Z" fill="#ECECA2"/>
<path d="M12.303 9.91528H9.91125V12.364H12.303V9.91528Z" fill="#FFFF95"/>
<path d="M14.6946 9.91528H12.3029V12.364H14.6946V9.91528Z" fill="#D7E366"/>
<path d="M9.91123 7.46655H7.51953V9.91523H9.91123V7.46655Z" fill="#5E5E13"/>
<path d="M12.303 7.46655H9.91125V9.91523H12.303V7.46655Z" fill="#F8FF86"/>
<path d="M14.6946 7.46655H12.3029V9.91523H14.6946V7.46655Z" fill="#FFFF95"/>
<path d="M12.303 5.01782H9.91125V7.4665H12.303V5.01782Z" fill="#515A05"/>
<path d="M14.6946 5.01782H12.3029V7.4665H14.6946V5.01782Z" fill="#E1EA96"/>
<path d="M14.6946 2.56201H12.3029V5.01069H14.6946V2.56201Z" fill="#545B06"/>
<path d="M2.73612 19.71H0.344421V22.1586H2.73612V19.71Z" fill="#080800"/>
<path d="M5.12785 19.71H2.73615V22.1586H5.12785V19.71Z" fill="#616213"/>
<path d="M7.51951 19.71H5.12781V22.1586H7.51951V19.71Z" fill="#A3AA7F"/>
<path d="M9.91123 19.71H7.51953V22.1586H9.91123V19.71Z" fill="#E6E6A5"/>
<path d="M12.303 19.71H9.91125V22.1586H12.303V19.71Z" fill="#FFFF95"/>
<path d="M14.6946 19.71H12.3029V22.1586H14.6946V19.71Z" fill="#E2ED70"/>
<path d="M5.12785 22.1587H2.73615V24.6074H5.12785V22.1587Z" fill="#121300"/>
<path d="M7.51951 22.1587H5.12781V24.6074H7.51951V22.1587Z" fill="#060500"/>
<path d="M9.91123 22.1587H7.51953V24.6074H9.91123V22.1587Z" fill="#626032"/>
<path d="M12.303 22.1587H9.91125V24.6074H12.303V22.1587Z" fill="#E2EB84"/>
<path d="M14.6946 22.1587H12.3029V24.6074H14.6946V22.1587Z" fill="#FFFFA7"/>
<path d="M9.91123 24.6074H7.51953V27.0561H9.91123V24.6074Z" fill="#0F0E00"/>
<path d="M12.303 24.6074H9.91125V27.0561H12.303V24.6074Z" fill="#666D06"/>
<path d="M14.6946 24.6074H12.3029V27.0561H14.6946V24.6074Z" fill="#E8F18A"/>
<path d="M12.303 27.0559H9.91125V29.5046H12.303V27.0559Z" fill="#0C1000"/>
<path d="M14.6946 27.0559H12.3029V29.5046H14.6946V27.0559Z" fill="#575B18"/>
<path d="M14.6946 29.512H12.3029V31.9606H14.6946V29.512Z" fill="#131600"/>
<path d="M17.0863 2.56201H14.6946V5.01069H17.0863V2.56201Z" fill="#E5E9C4"/>
<path d="M19.4851 2.56201H17.0934V5.01069H19.4851V2.56201Z" fill="#070B01"/>
<path d="M17.0863 0.113281H14.6946V2.56196H17.0863V0.113281Z" fill="#545B06"/>
<path d="M19.4851 0.113281H17.0934V2.56196H19.4851V0.113281Z" fill="#686A5A"/>
<path d="M17.0863 5.01782H14.6946V7.4665H17.0863V5.01782Z" fill="#646844"/>
<path d="M19.4851 5.01782H17.0934V7.4665H19.4851V5.01782Z" fill="#050603"/>
<path d="M17.0793 7.46655H14.6876V9.91523H17.0793V7.46655Z" fill="#030500"/>
<path d="M19.471 7.46655H17.0793V9.91523H19.471V7.46655Z" fill="#CFD0AC"/>
<path d="M17.0793 9.91528H14.6876V12.364H17.0793V9.91528Z" fill="#030500"/>
<path d="M19.471 9.91528H17.0793V12.364H19.471V9.91528Z" fill="#CFD0AC"/>
<path d="M17.0793 12.364H14.6876V14.8127H17.0793V12.364Z" fill="#0B0A01"/>
<path d="M19.471 12.364H17.0793V14.8127H19.471V12.364Z" fill="#0B0A01"/>
<path d="M17.0793 14.8125H14.6876V17.2612H17.0793V14.8125Z" fill="#030500"/>
<path d="M19.471 14.8125H17.0793V17.2612H19.471V14.8125Z" fill="#C3BFF1"/>
<path d="M17.0863 17.2107H14.6946V19.6594H17.0863V17.2107Z" fill="#030500"/>
<path d="M19.4851 17.2107H17.0934V19.6594H19.4851V17.2107Z" fill="#6D7943"/>
<path d="M17.0863 19.6594H14.6946V22.1659H17.0863V19.6594Z" fill="#0B0A01"/>
<path d="M19.4851 19.6594H17.0934V22.1659H19.4851V19.6594Z" fill="#0B0A01"/>
<path d="M17.0863 22.1296H14.6946V24.6361H17.0863V22.1296Z" fill="#0B0A01"/>
<path d="M19.4851 22.1296H17.0934V24.6361H19.4851V22.1296Z" fill="#C7C1BA"/>
<path d="M17.0863 24.5857H14.6946V27.0922H17.0863V24.5857Z" fill="#0B0A01"/>
<path d="M19.4851 24.5857H17.0934V27.0922H19.4851V24.5857Z" fill="#C7C1BA"/>
<path d="M17.0863 27.0559H14.6946V29.5046H17.0863V27.0559Z" fill="#8A9435"/>
<path d="M19.4851 27.0559H17.0934V29.5046H19.4851V27.0559Z" fill="#0B0A01"/>
<path d="M17.0863 29.512H14.6946V31.9606H17.0863V29.512Z" fill="#878860"/>
<path d="M19.4851 29.512H17.0934V31.9606H19.4851V29.512Z" fill="#040000"/>
<path d="M17.0863 31.9607H14.6946V34.4094H17.0863V31.9607Z" fill="#040000"/>
<path d="M19.4851 31.9607H17.0934V34.4094H19.4851V31.9607Z" fill="#79870C"/>
<path d="M19.4851 34.3804H17.0934V36.8868H19.4851V34.3804Z" fill="#0B0A01"/>
<path d="M21.8768 34.3804H19.4851V36.8868H21.8768V34.3804Z" fill="#0B0A01"/>
<path d="M24.2685 34.3804H21.8768V36.8868H24.2685V34.3804Z" fill="#040000"/>
<path d="M21.8768 31.9607H19.4851V34.4094H21.8768V31.9607Z" fill="#06030D"/>
<path d="M24.2685 31.9607H21.8768V34.4094H24.2685V31.9607Z" fill="#5D5963"/>
<path d="M21.8768 29.512H19.4851V31.9606H21.8768V29.512Z" fill="#DDD7E3"/>
<path d="M24.2685 29.512H21.8768V31.9606H24.2685V29.512Z" fill="#C1C2C1"/>
<path d="M21.8768 27.0559H19.4851V29.5046H21.8768V27.0559Z" fill="#FBF5FF"/>
<path d="M24.2685 27.0559H21.8768V29.5046H24.2685V27.0559Z" fill="#FBF5FF"/>
<path d="M21.8768 24.5857H19.4851V27.0922H21.8768V24.5857Z" fill="#FEFCFF"/>
<path d="M24.2685 24.5857H21.8768V27.0922H24.2685V24.5857Z" fill="#FEFCFF"/>
<path d="M21.8768 22.0576H19.4851V24.5858H21.8768V22.0576Z" fill="#F8F1FF"/>
<path d="M24.2685 22.0576H21.8768V24.5858H24.2685V22.0576Z" fill="#FEFCFF"/>
<path d="M21.8768 19.6594H19.4851V22.1081H21.8768V19.6594Z" fill="#FEFCFF"/>
<path d="M24.2685 19.6594H21.8768V22.1081H24.2685V19.6594Z" fill="#FEFCFF"/>
<path d="M21.8627 17.2107H19.471V19.6594H21.8627V17.2107Z" fill="#04000A"/>
<path d="M24.2544 17.2107H21.8627V19.6594H24.2544V17.2107Z" fill="#FFF6FF"/>
<path d="M21.8627 14.8125H19.471V17.2612H21.8627V14.8125Z" fill="#0F0B1D"/>
<path d="M24.2544 14.8125H21.8627V17.2612H24.2544V14.8125Z" fill="#F7F5FF"/>
<path d="M21.8627 12.364H19.471V14.8127H21.8627V12.364Z" fill="#FFFDFF"/>
<path d="M24.2544 12.364H21.8627V14.8127H24.2544V12.364Z" fill="#FFFDFF"/>
<path d="M21.8627 9.91528H19.471V12.364H21.8627V9.91528Z" fill="#F7F6FD"/>
<path d="M24.2544 9.91528H21.8627V12.364H24.2544V9.91528Z" fill="#F7F6FD"/>
<path d="M21.8627 7.46655H19.471V9.91523H21.8627V7.46655Z" fill="#F9F8FF"/>
<path d="M24.2544 7.46655H21.8627V9.91523H24.2544V7.46655Z" fill="white"/>
<path d="M21.8627 5.01782H19.471V7.4665H21.8627V5.01782Z" fill="#D9DAD9"/>
<path d="M24.2544 5.01782H21.8627V7.4665H24.2544V5.01782Z" fill="#C1C2C1"/>
<path d="M21.8627 2.56201H19.471V5.01069H21.8627V2.56201Z" fill="#666765"/>
<path d="M24.2544 2.56201H21.8627V5.01069H24.2544V2.56201Z" fill="#666765"/>
<path d="M21.8627 0.113281H19.471V2.56196H21.8627V0.113281Z" fill="#050603"/>
<path d="M24.2544 0.113281H21.8627V2.56196H24.2544V0.113281Z" fill="#050603"/>
<path d="M26.6602 31.9607H24.2685V34.4094H26.6602V31.9607Z" fill="#0B0A01"/>
<path d="M26.6602 29.512H24.2685V31.9606H26.6602V29.512Z" fill="#0B0A01"/>
<path d="M26.6602 27.0559H24.2685V29.5046H26.6602V27.0559Z" fill="#0B0A01"/>
<path d="M26.6602 24.5857H24.2685V27.0922H26.6602V24.5857Z" fill="#0B0A01"/>
<path d="M26.6602 22.0576H24.2685V24.5858H26.6602V22.0576Z" fill="#0B0A01"/>
<path d="M26.6602 19.6594H24.2685V22.1081H26.6602V19.6594Z" fill="#0B0A01"/>
<path d="M26.6461 17.2107H24.2544V19.6594H26.6461V17.2107Z" fill="#0B0A01"/>
<path d="M26.6461 14.8125H24.2544V17.2612H26.6461V14.8125Z" fill="#0B0A01"/>
<path d="M26.6461 12.364H24.2544V14.8127H26.6461V12.364Z" fill="#0B0A01"/>
<path d="M26.6461 9.91528H24.2544V12.364H26.6461V9.91528Z" fill="#0B0A01"/>
<path d="M26.6461 7.46655H24.2544V9.91523H26.6461V7.46655Z" fill="#0B0A01"/>
<path d="M26.6461 5.01782H24.2544V7.4665H26.6461V5.01782Z" fill="#0B0A01"/>
<path d="M26.6461 2.56201H24.2544V5.01069H26.6461V2.56201Z" fill="#0B0A01"/>
<path d="M36.0083 16.1777H29.0449V17.9547H36.0083V16.1777Z" fill="#848484"/>
<path d="M30.8298 12.5156H29.1083V14.2781H30.8298V12.5156Z" fill="#848484"/>
<path d="M32.5513 10.7458H30.8298V12.5083H32.5513V10.7458Z" fill="#848484"/>
<path d="M34.2798 8.9834H32.5583V10.7459H34.2798V8.9834Z" fill="#848484"/>
<path d="M36.0012 7.21362H34.2798V8.9761H36.0012V7.21362Z" fill="#848484"/>
<path d="M34.2846 26.8425L36.006 26.8425L36.006 25.0801L34.2846 25.0801L34.2846 26.8425Z" fill="#848484"/>
<path d="M32.557 25.0862L34.2785 25.0862L34.2785 23.3237L32.557 23.3237L32.557 25.0862Z" fill="#848484"/>
<path d="M30.8366 23.3225L32.558 23.3225L32.558 21.56L30.8366 21.56L30.8366 23.3225Z" fill="#848484"/>
<path d="M29.109 21.561L30.8305 21.561L30.8305 19.7986L29.109 19.7986L29.109 21.561Z" fill="#848484"/>
</svg>
