<svg width="100" height="36" viewBox="0 0 100 36" fill="none" xmlns="http://www.w3.org/2000/svg">
<g filter="url(#filter0_ddd_1263_15353)">
<path d="M11.5 20V15H14V20H11.5ZM9 15V10H11.5V15H9ZM14 15V10H16.5V15H14ZM4 25V5H9V10H6.5V25H4ZM19 25V10H16.5V5H21.5V25H19ZM24 22.5V10H26.5V22.5H24ZM26.5 25V22.5H34V10H36.5V25H26.5ZM40.9 25V12.5H38.4V10H43.4V25H40.9ZM40.9 5V2.5H43.4V5H40.9ZM57.8 15V12.5H60.3V15H57.8ZM47.8 25V10H50.3V12.5H52.8V15H50.3V25H47.8ZM52.8 12.5V10H57.8V12.5H52.8ZM59.7 22.5V17.5H62.2V22.5H59.7ZM62.2 25V22.5H69.7V17.5H62.2V15H69.7V12.5H72.2V25H62.2ZM62.2 12.5V10H69.7V12.5H62.2ZM71.6 30V27.5H79.1V30H71.6ZM79.1 27.5V12.5H76.6V10H81.6V27.5H79.1ZM79.1 5V2.5H81.6V5H79.1ZM86 25V22.5H93.5V25H86ZM93.5 22.5V20H96V22.5H93.5ZM83.5 22.5V12.5H86V15H93.5V12.5H96V17.5H86V22.5H83.5ZM86 12.5V10H93.5V12.5H86Z" fill="white"/>
</g>
<defs>
<filter id="filter0_ddd_1263_15353" x="0" y="0.5" width="100" height="35.5" filterUnits="userSpaceOnUse" color-interpolation-filters="sRGB">
<feFlood flood-opacity="0" result="BackgroundImageFix"/>
<feColorMatrix in="SourceAlpha" type="matrix" values="0 0 0 0 0 0 0 0 0 0 0 0 0 0 0 0 0 0 127 0" result="hardAlpha"/>
<feOffset dx="2"/>
<feComposite in2="hardAlpha" operator="out"/>
<feColorMatrix type="matrix" values="0 0 0 0 0 0 0 0 0 0 0 0 0 0 0 0 0 0 1 0"/>
<feBlend mode="normal" in2="BackgroundImageFix" result="effect1_dropShadow_1263_15353"/>
<feColorMatrix in="SourceAlpha" type="matrix" values="0 0 0 0 0 0 0 0 0 0 0 0 0 0 0 0 0 0 127 0" result="hardAlpha"/>
<feOffset dy="2"/>
<feComposite in2="hardAlpha" operator="out"/>
<feColorMatrix type="matrix" values="0 0 0 0 0 0 0 0 0 0 0 0 0 0 0 0 0 0 1 0"/>
<feBlend mode="normal" in2="effect1_dropShadow_1263_15353" result="effect2_dropShadow_1263_15353"/>
<feColorMatrix in="SourceAlpha" type="matrix" values="0 0 0 0 0 0 0 0 0 0 0 0 0 0 0 0 0 0 127 0" result="hardAlpha"/>
<feOffset dy="2"/>
<feGaussianBlur stdDeviation="2"/>
<feComposite in2="hardAlpha" operator="out"/>
<feColorMatrix type="matrix" values="0 0 0 0 0 0 0 0 0 0 0 0 0 0 0 0 0 0 1 0"/>
<feBlend mode="normal" in2="effect2_dropShadow_1263_15353" result="effect3_dropShadow_1263_15353"/>
<feBlend mode="normal" in="SourceGraphic" in2="effect3_dropShadow_1263_15353" result="shape"/>
</filter>
</defs>
</svg>
