<svg width="121" height="49" viewBox="0 0 121 49" fill="none" xmlns="http://www.w3.org/2000/svg">
<rect width="121" height="49" fill="#B5B5B5"/>
<rect x="118" width="3" height="49" fill="#404040"/>
<rect y="49" width="3" height="118" transform="rotate(-90 0 49)" fill="#404040"/>
<rect y="3" width="3" height="118" transform="rotate(-90 0 3)" fill="white"/>
<rect x="116" y="3" width="2" height="43" fill="#808080"/>
<rect y="3" width="3" height="43" fill="white"/>
<rect x="3" y="46" width="3" height="114" transform="rotate(-90 3 46)" fill="#808080"/>
<path d="M48.7 32V14H62.2V32H59.95V16.25H50.95V32H48.7ZM73.45 29.75V20.75H75.7V29.75H73.45ZM64.45 38.75V18.5H73.45V20.75H66.7V29.75H73.45V32H66.7V38.75H64.45ZM84.7 27.5V23H86.95V27.5H84.7ZM80.2 32V18.5H82.45V27.5H84.7V29.75H82.45V32H80.2ZM89.2 32V23H86.95V20.75H89.2V18.5H91.45V32H89.2ZM103.87 29.75V25.25H106.12V29.75H103.87ZM103.87 23V20.75H106.12V23H103.87ZM94.87 32V18.5H103.87V20.75H97.12V23H103.87V25.25H97.12V29.75H103.87V32H94.87ZM109 32V29.75H111.25V32H109ZM109 27.5V14H111.25V27.5H109Z" fill="black"/>
<path d="M15.9773 36.9905H15.0308V37.9339H15.9773V36.9905Z" fill="white"/>
<path d="M16.9238 36.9905H15.9773V37.9339H16.9238V36.9905Z" fill="#D8D8D8"/>
<path d="M17.8762 36.9905H16.9297V37.9339H17.8762V36.9905Z" fill="#C0C0C0"/>
<path d="M18.8227 36.9905H17.8762V37.9339H18.8227V36.9905Z" fill="#CDCDCD"/>
<path d="M19.7754 36.9905H18.8289V37.9339H19.7754V36.9905Z" fill="#CDCFCC"/>
<path d="M20.7219 36.9905H19.7754V37.9339H20.7219V36.9905Z" fill="#CACCC9"/>
<path d="M21.6684 36.9905H20.7219V37.9339H21.6684V36.9905Z" fill="#CED0CD"/>
<path d="M22.6211 36.9905H21.6746V37.9339H22.6211V36.9905Z" fill="#C7CBC7"/>
<path d="M23.5676 36.9905H22.6211V37.9339H23.5676V36.9905Z" fill="#6F736F"/>
<path d="M24.5203 36.9905H23.5737V37.9339H24.5203V36.9905Z" fill="#878B87"/>
<path d="M25.4668 36.9905H24.5203V37.9339H25.4668V36.9905Z" fill="#000200"/>
<path d="M26.4133 36.9905H25.4668V37.9339H26.4133V36.9905Z" fill="#020302"/>
<path d="M27.3657 36.9905H26.4192V37.9339H27.3657V36.9905Z" fill="#000200"/>
<path d="M28.3122 36.9905H27.3657V37.9339H28.3122V36.9905Z" fill="#5B5D59"/>
<path d="M29.2649 36.9905H28.3184V37.9339H29.2649V36.9905Z" fill="#D1D3CF"/>
<path d="M30.2114 36.9905H29.2649V37.9339H30.2114V36.9905Z" fill="#6B6F6C"/>
<path d="M15.9712 36.0471H15.0247V36.9905H15.9712V36.0471Z" fill="white"/>
<path d="M16.9238 36.0471H15.9773V36.9905H16.9238V36.0471Z" fill="#C1C6BF"/>
<path d="M17.8704 36.0471H16.9238V36.9905H17.8704V36.0471Z" fill="#CBD1CE"/>
<path d="M18.8227 36.0471H17.8762V36.9905H18.8227V36.0471Z" fill="#CAD0CD"/>
<path d="M19.7693 36.0471H18.8228V36.9905H19.7693V36.0471Z" fill="#C5D3B5"/>
<path d="M20.7219 36.0471H19.7754V36.9905H20.7219V36.0471Z" fill="#C5D3B5"/>
<path d="M21.6684 36.0471H20.7219V36.9905H21.6684V36.0471Z" fill="#C8CFDB"/>
<path d="M22.615 36.0471H21.6685V36.9905H22.615V36.0471Z" fill="#C8CFDB"/>
<path d="M23.5676 36.0471H22.6211V36.9905H23.5676V36.0471Z" fill="#58693D"/>
<path d="M24.5141 36.0471H23.5676V36.9905H24.5141V36.0471Z" fill="#66774C"/>
<path d="M25.4668 36.0471H24.5203V36.9905H25.4668V36.0471Z" fill="#66705C"/>
<path d="M26.4133 36.0471H25.4668V36.9905H26.4133V36.0471Z" fill="#5F6955"/>
<path d="M27.3657 36.0471H26.4192V36.9905H27.3657V36.0471Z" fill="#666C67"/>
<path d="M28.3122 36.0471H27.3657V36.9905H28.3122V36.0471Z" fill="#535852"/>
<path d="M29.2649 36.0471H28.3184V36.9905H29.2649V36.0471Z" fill="#C4BBF8"/>
<path d="M30.2114 36.0471H29.2649V36.9905H30.2114V36.0471Z" fill="#7068A4"/>
<path d="M31.1641 36.0413H30.2175V36.9847H31.1641V36.0413Z" fill="#5F5E5C"/>
<path d="M15.9712 35.0977H15.0247V36.041H15.9712V35.0977Z" fill="#EDF2EC"/>
<path d="M16.9238 35.0977H15.9773V36.041H16.9238V35.0977Z" fill="#CCD1CA"/>
<path d="M17.8704 35.0977H16.9238V36.041H17.8704V35.0977Z" fill="#CDD3D0"/>
<path d="M18.8227 35.0977H17.8762V36.041H18.8227V35.0977Z" fill="#C4CAC7"/>
<path d="M19.7693 35.0977H18.8228V36.041H19.7693V35.0977Z" fill="#C5D4B5"/>
<path d="M20.7219 35.0977H19.7754V36.041H20.7219V35.0977Z" fill="#CBD9BB"/>
<path d="M21.6684 35.0977H20.7219V36.041H21.6684V35.0977Z" fill="#C5CCD9"/>
<path d="M22.615 35.0977H21.6685V36.041H22.615V35.0977Z" fill="#C1C8D4"/>
<path d="M23.5676 35.0977H22.6211V36.041H23.5676V35.0977Z" fill="#67764D"/>
<path d="M24.5141 35.0977H23.5676V36.041H24.5141V35.0977Z" fill="#87986C"/>
<path d="M25.4668 35.0977H24.5203V36.041H25.4668V35.0977Z" fill="#000200"/>
<path d="M26.4133 35.0977H25.4668V36.041H26.4133V35.0977Z" fill="#020302"/>
<path d="M27.3657 35.0977H26.4192V36.041H27.3657V35.0977Z" fill="#000200"/>
<path d="M28.3122 35.0977H27.3657V36.041H28.3122V35.0977Z" fill="#696E69"/>
<path d="M29.2649 35.0977H28.3184V36.041H29.2649V35.0977Z" fill="#DED5FF"/>
<path d="M30.2114 35.0977H29.2649V36.041H30.2114V35.0977Z" fill="#544C89"/>
<path d="M31.1641 35.0977H30.2175V36.041H31.1641V35.0977Z" fill="#706F6C"/>
<path d="M15.9712 34.1543H15.0247V35.0977H15.9712V34.1543Z" fill="#FDFBFF"/>
<path d="M16.9238 34.1543H15.9773V35.0977H16.9238V34.1543Z" fill="#FDF9FF"/>
<path d="M17.8704 34.1543H16.9238V35.0977H17.8704V34.1543Z" fill="#F6FFD9"/>
<path d="M18.8227 34.1543H17.8762V35.0977H18.8227V34.1543Z" fill="#FEFFDF"/>
<path d="M19.7693 34.1543H18.8228V35.0977H19.7693V34.1543Z" fill="#FDFFFC"/>
<path d="M20.7219 34.1543H19.7754V35.0977H20.7219V34.1543Z" fill="#F2F7F3"/>
<path d="M21.6684 34.1543H20.7219V35.0977H21.6684V34.1543Z" fill="#FDFCFF"/>
<path d="M22.615 34.1543H21.6685V35.0977H22.615V34.1543Z" fill="#F6F4FF"/>
<path d="M23.5676 34.1543H22.6211V35.0977H23.5676V34.1543Z" fill="#FDFFFF"/>
<path d="M24.5141 34.1543H23.5676V35.0977H24.5141V34.1543Z" fill="#FDFFFF"/>
<path d="M25.4668 34.1543H24.5203V35.0977H25.4668V34.1543Z" fill="#E9EBEE"/>
<path d="M26.4133 34.1543H25.4668V35.0977H26.4133V34.1543Z" fill="#FEFFFF"/>
<path d="M27.3657 34.1543H26.4192V35.0977H27.3657V34.1543Z" fill="#EFEEFF"/>
<path d="M28.3122 34.1543H27.3657V35.0977H28.3122V34.1543Z" fill="#F7F6FF"/>
<path d="M29.2649 34.1543H28.3184V35.0977H29.2649V34.1543Z" fill="#FFFFE3"/>
<path d="M30.2114 34.1543H29.2649V35.0977H30.2114V34.1543Z" fill="#6C724F"/>
<path d="M31.1641 34.1543H30.2175V35.0977H31.1641V34.1543Z" fill="#656373"/>
<path d="M15.9712 33.2048H15.0247V34.1482H15.9712V33.2048Z" fill="#F9F5FF"/>
<path d="M16.9238 33.2048H15.9773V34.1482H16.9238V33.2048Z" fill="#C6C2E6"/>
<path d="M17.8704 33.2048H16.9238V34.1482H17.8704V33.2048Z" fill="#626B43"/>
<path d="M18.8227 33.2048H17.8762V34.1482H18.8227V33.2048Z" fill="#6C754D"/>
<path d="M19.7693 33.2048H18.8228V34.1482H19.7693V33.2048Z" fill="#626663"/>
<path d="M20.7219 33.2048H19.7754V34.1482H20.7219V33.2048Z" fill="#6C706D"/>
<path d="M21.6684 33.2048H20.7219V34.1482H21.6684V33.2048Z" fill="#6C6A8A"/>
<path d="M22.615 33.2048H21.6685V34.1482H22.615V33.2048Z" fill="#5F5E7F"/>
<path d="M23.5615 33.2048H22.615V34.1482H23.5615V33.2048Z" fill="#5C5F68"/>
<path d="M24.5141 33.2048H23.5676V34.1482H24.5141V33.2048Z" fill="#565860"/>
<path d="M25.4607 33.2048H24.5142V34.1482H25.4607V33.2048Z" fill="#686C6F"/>
<path d="M26.4133 33.2048H25.4668V34.1482H26.4133V33.2048Z" fill="#5C5F62"/>
<path d="M27.3596 33.2048H26.4131V34.1482H27.3596V33.2048Z" fill="#727084"/>
<path d="M28.3122 33.2048H27.3657V34.1482H28.3122V33.2048Z" fill="#67667A"/>
<path d="M29.2588 33.2048H28.3123V34.1482H29.2588V33.2048Z" fill="#595F3D"/>
<path d="M30.2114 33.2048H29.2649V34.1482H30.2114V33.2048Z" fill="#FFFFE3"/>
<path d="M31.1641 33.2048H30.2175V34.1482H31.1641V33.2048Z" fill="#605E6E"/>
<path d="M29.2588 32.2615H28.3123V33.2049H29.2588V32.2615Z" fill="#707069"/>
<path d="M30.2114 32.2615H29.2649V33.2049H30.2114V32.2615Z" fill="#66665F"/>
<path d="M31.1641 32.2615H30.2175V33.2049H31.1641V32.2615Z" fill="#FFFFEC"/>
<path d="M15.9712 32.2615H15.0247V33.2049H15.9712V32.2615Z" fill="black"/>
<path d="M16.9238 32.2615H15.9773V33.2049H16.9238V32.2615Z" fill="#63635A"/>
<path d="M17.8704 32.2615H16.9238V33.2049H17.8704V32.2615Z" fill="black"/>
<path d="M18.8227 32.2615H17.8762V33.2049H18.8227V32.2615Z" fill="black"/>
<path d="M19.7693 32.2615H18.8228V33.2049H19.7693V32.2615Z" fill="black"/>
<path d="M20.7219 32.2615H19.7754V33.2049H20.7219V32.2615Z" fill="black"/>
<path d="M21.6623 32.2615H20.7158V33.2049H21.6623V32.2615Z" fill="black"/>
<path d="M22.615 32.2615H21.6685V33.2049H22.615V32.2615Z" fill="black"/>
<path d="M23.5615 32.2615H22.615V33.2049H23.5615V32.2615Z" fill="black"/>
<path d="M24.5141 32.2615H23.5676V33.2049H24.5141V32.2615Z" fill="black"/>
<path d="M25.4607 32.2615H24.5142V33.2049H25.4607V32.2615Z" fill="black"/>
<path d="M26.4133 32.2615H25.4668V33.2049H26.4133V32.2615Z" fill="black"/>
<path d="M27.3596 32.2615H26.4131V33.2049H27.3596V32.2615Z" fill="black"/>
<path d="M28.3122 32.2615H27.3657V33.2049H28.3122V32.2615Z" fill="black"/>
<path d="M30.2114 31.312H29.2649V32.2554H30.2114V31.312Z" fill="#020002"/>
<path d="M31.1579 31.312H30.2114V32.2554H31.1579V31.312Z" fill="#020002"/>
<path d="M32.1106 31.312H31.1641V32.2554H32.1106V31.312Z" fill="#FFFFEC"/>
<path d="M16.9238 31.312H15.9773V32.2554H16.9238V31.312Z" fill="black"/>
<path d="M17.8704 31.312H16.9238V32.2554H17.8704V31.312Z" fill="#CAC8C9"/>
<path d="M18.8227 31.312H17.8762V32.2554H18.8227V31.312Z" fill="#CDCBCC"/>
<path d="M19.7693 31.312H18.8228V32.2554H19.7693V31.312Z" fill="#69656A"/>
<path d="M20.7219 31.312H19.7754V32.2554H20.7219V31.312Z" fill="#69656A"/>
<path d="M21.6684 31.312H20.7219V32.2554H21.6684V31.312Z" fill="#696B47"/>
<path d="M22.615 31.312H21.6685V32.2554H22.615V31.312Z" fill="#696B47"/>
<path d="M23.5615 31.312H22.615V32.2554H23.5615V31.312Z" fill="#6C6673"/>
<path d="M24.5141 31.312H23.5676V32.2554H24.5141V31.312Z" fill="#5C5662"/>
<path d="M25.4607 31.312H24.5142V32.2554H25.4607V31.312Z" fill="#61672E"/>
<path d="M26.4133 31.312H25.4668V32.2554H26.4133V31.312Z" fill="#FDEDFF"/>
<path d="M27.3596 31.312H26.4131V32.2554H27.3596V31.312Z" fill="#BCBABC"/>
<path d="M28.3122 31.312H27.3657V32.2554H28.3122V31.312Z" fill="#6B6561"/>
<path d="M29.2588 31.312H28.3123V32.2554H29.2588V31.312Z" fill="black"/>
<path d="M30.2114 30.3687H29.2649V31.312H30.2114V30.3687Z" fill="#020002"/>
<path d="M16.9238 30.3687H15.9773V31.312H16.9238V30.3687Z" fill="black"/>
<path d="M17.8704 30.3687H16.9238V31.312H17.8704V30.3687Z" fill="#D2C8CE"/>
<path d="M18.8227 30.3687H17.8762V31.312H18.8227V30.3687Z" fill="#0F060B"/>
<path d="M19.7693 30.3687H18.8228V31.312H19.7693V30.3687Z" fill="#FFF2FF"/>
<path d="M20.7219 30.3687H19.7754V31.312H20.7219V30.3687Z" fill="#FFF6FF"/>
<path d="M21.6684 30.3687H20.7219V31.312H21.6684V30.3687Z" fill="#FEF5F0"/>
<path d="M22.615 30.3687H21.6685V31.312H22.615V30.3687Z" fill="#FFFEF8"/>
<path d="M23.5615 30.3687H22.615V31.312H23.5615V30.3687Z" fill="#F8EBFE"/>
<path d="M24.5141 30.3687H23.5676V31.312H24.5141V30.3687Z" fill="#FFFAFF"/>
<path d="M25.4607 30.3687H24.5142V31.312H25.4607V30.3687Z" fill="#FFF8FF"/>
<path d="M26.4133 30.3687H25.4668V31.312H26.4133V30.3687Z" fill="#FDEDFF"/>
<path d="M27.3596 30.3687H26.4131V31.312H27.3596V30.3687Z" fill="#D9D2CD"/>
<path d="M28.3122 30.3687H27.3657V31.312H28.3122V30.3687Z" fill="#6B6561"/>
<path d="M29.2588 30.3687H28.3123V31.312H29.2588V30.3687Z" fill="#625E61"/>
<path d="M14.072 17.0645H13.1255V18.0078H14.072V17.0645Z" fill="#000209"/>
<path d="M15.0246 17.0645H14.0781V18.0078H15.0246V17.0645Z" fill="#D3DAE2"/>
<path d="M15.9712 17.0645H15.0247V18.0078H15.9712V17.0645Z" fill="#61CB99"/>
<path d="M16.9238 17.0645H15.9773V18.0078H16.9238V17.0645Z" fill="#85EDBB"/>
<path d="M17.8704 17.0645H16.9238V18.0078H17.8704V17.0645Z" fill="#025310"/>
<path d="M18.8227 17.0645H17.8762V18.0078H18.8227V17.0645Z" fill="#398A47"/>
<path d="M19.7693 17.0645H18.8228V18.0078H19.7693V17.0645Z" fill="#0A5B22"/>
<path d="M20.7158 17.0645H19.7693V18.0078H20.7158V17.0645Z" fill="#2D7B44"/>
<path d="M21.6684 17.0645H20.7219V18.0078H21.6684V17.0645Z" fill="#226433"/>
<path d="M22.615 17.0645H21.6685V18.0078H22.615V17.0645Z" fill="#39794A"/>
<path d="M23.5615 17.0645H22.615V18.0078H23.5615V17.0645Z" fill="#1F4D1C"/>
<path d="M24.5141 17.0645H23.5676V18.0078H24.5141V17.0645Z" fill="#507F4D"/>
<path d="M25.4607 17.0645H24.5142V18.0078H25.4607V17.0645Z" fill="#2C411E"/>
<path d="M26.4133 17.0645H25.4668V18.0078H26.4133V17.0645Z" fill="#5B7350"/>
<path d="M27.3596 17.0645H26.4131V18.0078H27.3596V17.0645Z" fill="#050602"/>
<path d="M28.3122 17.0645H27.3657V18.0078H28.3122V17.0645Z" fill="#F8FAF3"/>
<path d="M29.2648 17.0645H28.3123V18.0078H29.2648V17.0645Z" fill="#FFFBF9"/>
<path d="M30.2114 17.0645H29.2649V18.0078H30.2114V17.0645Z" fill="#FAF6F4"/>
<path d="M31.1579 17.0645H30.2114V18.0078H31.1579V17.0645Z" fill="#04000D"/>
<path d="M32.1106 17.0645H31.1641V18.0078H32.1106V17.0645Z" fill="#655F5E"/>
<path d="M33.0571 17.0645H32.1106V18.0078H33.0571V17.0645Z" fill="#726A7C"/>
<path d="M34.0037 17.0645H33.0571V18.0078H34.0037V17.0645Z" fill="#D2C9DD"/>
<path d="M34.9563 17.0645H34.0098V18.0078H34.9563V17.0645Z" fill="#CACACA"/>
<path d="M35.9026 17.0645H34.9561V18.0078H35.9026V17.0645Z" fill="#D1D1D1"/>
<path d="M36.8552 17.0645H35.9087V18.0078H36.8552V17.0645Z" fill="#BEBEBE"/>
<path d="M37.8017 17.0645H36.8552V18.0078H37.8017V17.0645Z" fill="#6C6C6C"/>
<path d="M38.7544 17.0645H37.8079V18.0078H38.7544V17.0645Z" fill="#737373"/>
<path d="M39.7009 17.0645H38.7544V18.0078H39.7009V17.0645Z" fill="#6B6B6B"/>
<path d="M40.6536 17.0645H39.707V18.0078H40.6536V17.0645Z" fill="#6C6C6C"/>
<path d="M41.6001 17.0645H40.6536V18.0078H41.6001V17.0645Z" fill="#595959"/>
<path d="M42.5527 17.0645H41.6062V18.0078H42.5527V17.0645Z" fill="black"/>
<path d="M14.072 15.1716H13.1255V16.115H14.072V15.1716Z" fill="#000209"/>
<path d="M15.0246 15.1716H14.0781V16.115H15.0246V15.1716Z" fill="#CDCBE4"/>
<path d="M15.9712 15.1716H15.0247V16.115H15.9712V15.1716Z" fill="#5CD7C6"/>
<path d="M16.9238 15.1716H15.9773V16.115H16.9238V15.1716Z" fill="#76F1E0"/>
<path d="M17.8704 15.1716H16.9238V16.115H17.8704V15.1716Z" fill="#62BAB0"/>
<path d="M18.8227 15.1716H17.8762V16.115H18.8227V15.1716Z" fill="#9BF2E8"/>
<path d="M19.7693 15.1716H18.8228V16.115H19.7693V15.1716Z" fill="#0F583F"/>
<path d="M20.7158 15.1716H19.7693V16.115H20.7158V15.1716Z" fill="#3A8268"/>
<path d="M21.6684 15.1716H20.7219V16.115H21.6684V15.1716Z" fill="#12580F"/>
<path d="M22.615 15.1716H21.6685V16.115H22.615V15.1716Z" fill="#3B8037"/>
<path d="M23.5615 15.1716H22.615V16.115H23.5615V15.1716Z" fill="#1D5208"/>
<path d="M24.5141 15.1716H23.5676V16.115H24.5141V15.1716Z" fill="#467B31"/>
<path d="M25.4607 15.1716H24.5142V16.115H25.4607V15.1716Z" fill="#48663A"/>
<path d="M26.4133 15.1716H25.4668V16.115H26.4133V15.1716Z" fill="#3E5D31"/>
<path d="M27.3596 15.1716H26.4131V16.115H27.3596V15.1716Z" fill="#050602"/>
<path d="M28.3122 15.1716H27.3657V16.115H28.3122V15.1716Z" fill="#FAFFED"/>
<path d="M29.2648 15.1716H28.3123V16.115H29.2648V15.1716Z" fill="#FFFBF9"/>
<path d="M30.2114 15.1716H29.2649V16.115H30.2114V15.1716Z" fill="white"/>
<path d="M31.1579 15.1716H30.2114V16.115H31.1579V15.1716Z" fill="#04000D"/>
<path d="M32.1106 15.1716H31.1641V16.115H32.1106V15.1716Z" fill="#D8D2E4"/>
<path d="M33.0571 15.1716H32.1106V16.115H33.0571V15.1716Z" fill="#D3D1C1"/>
<path d="M34.0037 15.1716H33.0571V16.115H34.0037V15.1716Z" fill="#FFFFF0"/>
<path d="M34.9563 15.1716H34.0098V16.115H34.9563V15.1716Z" fill="#FCFCFC"/>
<path d="M35.9026 15.1716H34.9561V16.115H35.9026V15.1716Z" fill="#CCCCCC"/>
<path d="M36.8552 15.1716H35.9087V16.115H36.8552V15.1716Z" fill="#D1D1D1"/>
<path d="M37.8017 15.1716H36.8552V16.115H37.8017V15.1716Z" fill="#BFBFBF"/>
<path d="M38.7544 15.1716H37.8079V16.115H38.7544V15.1716Z" fill="#D9D9D9"/>
<path d="M39.7009 15.1716H38.7544V16.115H39.7009V15.1716Z" fill="#D8D8D8"/>
<path d="M40.6536 15.1716H39.707V16.115H40.6536V15.1716Z" fill="#595959"/>
<path d="M41.6001 15.1716H40.6536V16.115H41.6001V15.1716Z" fill="#6C6C6C"/>
<path d="M42.5527 15.1716H41.6062V16.115H42.5527V15.1716Z" fill="black"/>
<path d="M14.072 16.1211H13.1255V17.0645H14.072V16.1211Z" fill="#000209"/>
<path d="M15.0246 16.1211H14.0781V17.0645H15.0246V16.1211Z" fill="#CBD2DA"/>
<path d="M15.9712 16.1211H15.0247V17.0645H15.9712V16.1211Z" fill="#8DF6C4"/>
<path d="M16.9238 16.1211H15.9773V17.0645H16.9238V16.1211Z" fill="#73DAAA"/>
<path d="M17.8704 16.1211H16.9238V17.0645H17.8704V16.1211Z" fill="#AAFBB8"/>
<path d="M18.8227 16.1211H17.8762V17.0645H18.8227V16.1211Z" fill="#075816"/>
<path d="M19.7693 16.1211H18.8228V17.0645H19.7693V16.1211Z" fill="#35844C"/>
<path d="M20.7158 16.1211H19.7693V17.0645H20.7158V16.1211Z" fill="#0C5A21"/>
<path d="M21.6684 16.1211H20.7219V17.0645H21.6684V16.1211Z" fill="#347745"/>
<path d="M22.615 16.1211H21.6685V17.0645H22.615V16.1211Z" fill="#175827"/>
<path d="M23.5615 16.1211H22.615V17.0645H23.5615V16.1211Z" fill="#4D7A48"/>
<path d="M24.5141 16.1211H23.5676V17.0645H24.5141V16.1211Z" fill="#22501E"/>
<path d="M25.4607 16.1211H24.5142V17.0645H25.4607V16.1211Z" fill="#586E49"/>
<path d="M26.4133 16.1211H25.4668V17.0645H26.4133V16.1211Z" fill="#364D29"/>
<path d="M27.3596 16.1211H26.4131V17.0645H27.3596V16.1211Z" fill="#050602"/>
<path d="M28.3122 16.1211H27.3657V17.0645H28.3122V16.1211Z" fill="#555752"/>
<path d="M29.2648 16.1211H28.3123V17.0645H29.2648V16.1211Z" fill="#FFFBF9"/>
<path d="M30.2114 16.1211H29.2649V17.0645H30.2114V16.1211Z" fill="#676361"/>
<path d="M31.1579 16.1211H30.2114V17.0645H31.1579V16.1211Z" fill="#04000D"/>
<path d="M32.1106 16.1211H31.1641V17.0645H32.1106V16.1211Z" fill="#CEC9C7"/>
<path d="M33.0571 16.1211H32.1106V17.0645H33.0571V16.1211Z" fill="#CAC3D5"/>
<path d="M34.0037 16.1211H33.0571V17.0645H34.0037V16.1211Z" fill="#CDC4D8"/>
<path d="M34.9563 16.1211H34.0098V17.0645H34.9563V16.1211Z" fill="#CFCFCF"/>
<path d="M35.9026 16.1211H34.9561V17.0645H35.9026V16.1211Z" fill="#FDFDFD"/>
<path d="M36.8552 16.1211H35.9087V17.0645H36.8552V16.1211Z" fill="#FDFDFD"/>
<path d="M37.8017 16.1211H36.8552V17.0645H37.8017V16.1211Z" fill="#D6D6D6"/>
<path d="M38.7544 16.1211H37.8079V17.0645H38.7544V16.1211Z" fill="#585858"/>
<path d="M39.7009 16.1211H38.7544V17.0645H39.7009V16.1211Z" fill="#606060"/>
<path d="M40.6536 16.1211H39.707V17.0645H40.6536V16.1211Z" fill="#6C6C6C"/>
<path d="M41.6001 16.1211H40.6536V17.0645H41.6001V16.1211Z" fill="#5E5E5E"/>
<path d="M42.5527 16.1211H41.6062V17.0645H42.5527V16.1211Z" fill="black"/>
<path d="M15.0246 14.2283H14.0781V15.1717H15.0246V14.2283Z" fill="#06051D"/>
<path d="M15.9712 14.2283H15.0247V15.1717H15.9712V14.2283Z" fill="#6FE9D7"/>
<path d="M16.9238 14.2283H15.9773V15.1717H16.9238V14.2283Z" fill="#65E0CE"/>
<path d="M17.8704 14.2283H16.9238V15.1717H17.8704V14.2283Z" fill="#9CF3E9"/>
<path d="M18.8227 14.2283H17.8762V15.1717H18.8227V14.2283Z" fill="#004E44"/>
<path d="M19.7693 14.2283H18.8228V15.1717H19.7693V14.2283Z" fill="#99E2CA"/>
<path d="M20.7158 14.2283H19.7693V15.1717H20.7158V14.2283Z" fill="#80C8B0"/>
<path d="M21.6684 14.2283H20.7219V15.1717H21.6684V14.2283Z" fill="#438A40"/>
<path d="M22.615 14.2283H21.6685V15.1717H22.615V14.2283Z" fill="#10570E"/>
<path d="M23.5615 14.2283H22.615V15.1717H23.5615V14.2283Z" fill="#497F34"/>
<path d="M24.5141 14.2283H23.5676V15.1717H24.5141V14.2283Z" fill="#1C5307"/>
<path d="M25.4607 14.2283H24.5142V15.1717H25.4607V14.2283Z" fill="#4B693D"/>
<path d="M26.4133 14.2283H25.4668V15.1717H26.4133V14.2283Z" fill="#001700"/>
<path d="M27.3596 14.2283H26.4131V15.1717H27.3596V14.2283Z" fill="#5B694F"/>
<path d="M28.3122 14.2283H27.3657V15.1717H28.3122V14.2283Z" fill="#5E6A50"/>
<path d="M29.2648 14.2283H28.3123V15.1717H29.2648V14.2283Z" fill="#FFFBF9"/>
<path d="M30.2114 14.2283H29.2649V15.1717H30.2114V14.2283Z" fill="#6B6A71"/>
<path d="M31.1579 14.2283H30.2114V15.1717H31.1579V14.2283Z" fill="#04000D"/>
<path d="M32.1106 14.2283H31.1641V15.1717H32.1106V14.2283Z" fill="#FBF5FF"/>
<path d="M33.0571 14.2283H32.1106V15.1717H33.0571V14.2283Z" fill="#FEFCED"/>
<path d="M34.0037 14.2283H33.0571V15.1717H34.0037V14.2283Z" fill="#D5D3C3"/>
<path d="M34.9563 14.2283H34.0098V15.1717H34.9563V14.2283Z" fill="#CCCCCC"/>
<path d="M35.9026 14.2283H34.9561V15.1717H35.9026V14.2283Z" fill="#D2D2D2"/>
<path d="M36.8552 14.2283H35.9087V15.1717H36.8552V14.2283Z" fill="#C5C5C5"/>
<path d="M37.8017 14.2283H36.8552V15.1717H37.8017V14.2283Z" fill="#D4D4D4"/>
<path d="M38.7544 14.2283H37.8079V15.1717H38.7544V14.2283Z" fill="#C8C8C8"/>
<path d="M39.7009 14.2283H38.7544V15.1717H39.7009V14.2283Z" fill="#C9C9C9"/>
<path d="M40.6536 14.2283H39.707V15.1717H40.6536V14.2283Z" fill="#CDCDCD"/>
<path d="M41.6001 14.2283H40.6536V15.1717H41.6001V14.2283Z" fill="#CDCDCD"/>
<path d="M42.5527 14.2283H41.6062V15.1717H42.5527V14.2283Z" fill="black"/>
<path d="M15.9712 13.2788H15.0247V14.2222H15.9712V13.2788Z" fill="#06051D"/>
<path d="M16.9238 13.2788H15.9773V14.2222H16.9238V13.2788Z" fill="#5CD7C6"/>
<path d="M17.8704 13.2788H16.9238V14.2222H17.8704V13.2788Z" fill="#76F1E0"/>
<path d="M18.8227 13.2788H17.8762V14.2222H18.8227V13.2788Z" fill="#62BAB0"/>
<path d="M19.7693 13.2788H18.8228V14.2222H19.7693V13.2788Z" fill="#9BF2E8"/>
<path d="M20.7158 13.2788H19.7693V14.2222H20.7158V13.2788Z" fill="#0F583F"/>
<path d="M21.6684 13.2788H20.7219V14.2222H21.6684V13.2788Z" fill="#3A8268"/>
<path d="M22.615 13.2788H21.6685V14.2222H22.615V13.2788Z" fill="#12580F"/>
<path d="M23.5615 13.2788H22.615V14.2222H23.5615V13.2788Z" fill="#3B8037"/>
<path d="M24.5141 13.2788H23.5676V14.2222H24.5141V13.2788Z" fill="#1D5208"/>
<path d="M25.4607 13.2788H24.5142V14.2222H25.4607V13.2788Z" fill="#467B31"/>
<path d="M26.4133 13.2788H25.4668V14.2222H26.4133V13.2788Z" fill="#000D14"/>
<path d="M27.3596 13.2788H26.4131V14.2222H27.3596V13.2788Z" fill="#FAF9FF"/>
<path d="M28.3122 13.2788H27.3657V14.2222H28.3122V13.2788Z" fill="#FAF9FF"/>
<path d="M29.2588 13.2788H28.3123V14.2222H29.2588V13.2788Z" fill="#FAFFED"/>
<path d="M30.2175 13.2788H29.2649V14.2222H30.2175V13.2788Z" fill="#FFFBF9"/>
<path d="M31.1641 13.2788H30.2175V14.2222H31.1641V13.2788Z" fill="white"/>
<path d="M32.1106 13.2788H31.1641V14.2222H32.1106V13.2788Z" fill="#04000D"/>
<path d="M33.0571 13.2788H32.1106V14.2222H33.0571V13.2788Z" fill="#D8D2E4"/>
<path d="M34.0037 13.2788H33.0571V14.2222H34.0037V13.2788Z" fill="#D3D1C1"/>
<path d="M34.9563 13.2788H34.0098V14.2222H34.9563V13.2788Z" fill="#FFFFF0"/>
<path d="M35.9026 13.2788H34.9561V14.2222H35.9026V13.2788Z" fill="#FCFCFC"/>
<path d="M36.8552 13.2788H35.9087V14.2222H36.8552V13.2788Z" fill="#CCCCCC"/>
<path d="M37.8017 13.2788H36.8552V14.2222H37.8017V13.2788Z" fill="#D1D1D1"/>
<path d="M38.7544 13.2788H37.8079V14.2222H38.7544V13.2788Z" fill="#BFBFBF"/>
<path d="M39.7009 13.2788H38.7544V14.2222H39.7009V13.2788Z" fill="#D9D9D9"/>
<path d="M40.6536 13.2788H39.707V14.2222H40.6536V13.2788Z" fill="#D8D8D8"/>
<path d="M41.6001 13.2788H40.6536V14.2222H41.6001V13.2788Z" fill="#CBCBCB"/>
<path d="M42.5527 13.2788H41.6062V14.2222H42.5527V13.2788Z" fill="black"/>
<path d="M15.9712 12.3354H15.0247V13.2788H15.9712V12.3354Z" fill="#000C0A"/>
<path d="M16.9238 12.3354H15.9773V13.2788H16.9238V12.3354Z" fill="#58E0CC"/>
<path d="M17.8704 12.3354H16.9238V13.2788H17.8704V12.3354Z" fill="#87EFEB"/>
<path d="M18.8227 12.3354H17.8762V13.2788H18.8227V12.3354Z" fill="#65CDC9"/>
<path d="M19.7693 12.3354H18.8228V13.2788H19.7693V12.3354Z" fill="#BCE6DF"/>
<path d="M20.7158 12.3354H19.7693V13.2788H20.7158V12.3354Z" fill="#143E37"/>
<path d="M21.6684 12.3354H20.7219V13.2788H21.6684V12.3354Z" fill="#4D7747"/>
<path d="M22.615 12.3354H21.6685V13.2788H22.615V12.3354Z" fill="#1B4718"/>
<path d="M23.5615 12.3354H22.615V13.2788H23.5615V12.3354Z" fill="#5F8244"/>
<path d="M24.5141 12.3354H23.5676V13.2788H24.5141V12.3354Z" fill="#113500"/>
<path d="M25.4607 12.3354H24.5142V13.2788H25.4607V12.3354Z" fill="#0F1D23"/>
<path d="M26.4133 12.3354H25.4668V13.2788H26.4133V12.3354Z" fill="#E9F8FD"/>
<path d="M27.3596 12.3354H26.4131V13.2788H27.3596V12.3354Z" fill="#55548F"/>
<path d="M28.3122 12.3354H27.3657V13.2788H28.3122V12.3354Z" fill="#6A68A3"/>
<path d="M29.2588 12.3354H28.3123V13.2788H29.2588V12.3354Z" fill="#FCFEFF"/>
<path d="M30.2175 12.3354H29.2649V13.2788H30.2175V12.3354Z" fill="#61636B"/>
<path d="M31.1641 12.3354H30.2175V13.2788H31.1641V12.3354Z" fill="#6C7257"/>
<path d="M32.1106 12.3354H31.1641V13.2788H32.1106V12.3354Z" fill="#04000D"/>
<path d="M33.0571 12.3354H32.1106V13.2788H33.0571V12.3354Z" fill="#000015"/>
<path d="M34.0037 12.3354H33.0571V13.2788H34.0037V12.3354Z" fill="#C6C4DA"/>
<path d="M34.9563 12.3354H34.0098V13.2788H34.9563V12.3354Z" fill="#C5C5C5"/>
<path d="M35.9026 12.3354H34.9561V13.2788H35.9026V12.3354Z" fill="#D7D7D7"/>
<path d="M36.8552 12.3354H35.9087V13.2788H36.8552V12.3354Z" fill="#C6C6C6"/>
<path d="M37.8017 12.3354H36.8552V13.2788H37.8017V12.3354Z" fill="#CFCFCF"/>
<path d="M38.7544 12.3354H37.8079V13.2788H38.7544V12.3354Z" fill="#CDCDCD"/>
<path d="M39.7009 12.3354H38.7544V13.2788H39.7009V12.3354Z" fill="#CFCFCF"/>
<path d="M40.6536 12.3354H39.707V13.2788H40.6536V12.3354Z" fill="black"/>
<path d="M41.6001 12.3354H40.6536V13.2788H41.6001V12.3354Z" fill="black"/>
<path d="M16.9238 11.386H15.9773V12.3294H16.9238V11.386Z" fill="#02000F"/>
<path d="M17.8704 11.386H16.9238V12.3294H17.8704V11.386Z" fill="#02000F"/>
<path d="M18.8227 11.386H17.8762V12.3294H18.8227V11.386Z" fill="#D8D4E6"/>
<path d="M19.7693 11.386H18.8228V12.3294H19.7693V11.386Z" fill="#BFCEBE"/>
<path d="M20.7158 11.386H19.7693V12.3294H20.7158V11.386Z" fill="#BAC9BA"/>
<path d="M21.6684 11.386H20.7219V12.3294H21.6684V11.386Z" fill="#C6D5B8"/>
<path d="M22.615 11.386H21.6685V12.3294H22.615V11.386Z" fill="#C5D4B7"/>
<path d="M23.5615 11.386H22.615V12.3294H23.5615V11.386Z" fill="#000800"/>
<path d="M24.5141 11.386H23.5676V12.3294H24.5141V11.386Z" fill="#000800"/>
<path d="M25.4607 11.386H24.5142V12.3294H25.4607V11.386Z" fill="#FBFFFF"/>
<path d="M26.4133 11.386H25.4668V12.3294H26.4133V11.386Z" fill="#F8FDFF"/>
<path d="M27.3596 11.386H26.4131V12.3294H27.3596V11.386Z" fill="#FDFFFA"/>
<path d="M28.3122 11.386H27.3657V12.3294H28.3122V11.386Z" fill="#FDFFFA"/>
<path d="M29.2588 11.386H28.3123V12.3294H29.2588V11.386Z" fill="#FDFFF0"/>
<path d="M30.2175 11.386H29.2649V12.3294H30.2175V11.386Z" fill="#F3FCE8"/>
<path d="M31.1641 11.386H30.2175V12.3294H31.1641V11.386Z" fill="#FDFFFF"/>
<path d="M32.1106 11.386H31.1641V12.3294H32.1106V11.386Z" fill="#FDFFFF"/>
<path d="M33.0571 11.386H32.1106V12.3294H33.0571V11.386Z" fill="#000015"/>
<path d="M34.0037 11.386H33.0571V12.3294H34.0037V11.386Z" fill="#000018"/>
<path d="M34.9563 11.386H34.0098V12.3294H34.9563V11.386Z" fill="#000018"/>
<path d="M35.9026 11.386H34.9561V12.3294H35.9026V11.386Z" fill="#CCCCCC"/>
<path d="M36.8552 11.386H35.9087V12.3294H36.8552V11.386Z" fill="#CBCBCB"/>
<path d="M37.8017 11.386H36.8552V12.3294H37.8017V11.386Z" fill="#D2D2D2"/>
<path d="M38.7544 11.386H37.8079V12.3294H38.7544V11.386Z" fill="black"/>
<path d="M39.7009 11.386H38.7544V12.3294H39.7009V11.386Z" fill="black"/>
<path d="M35.9026 10.4426H34.9561V11.386H35.9026V10.4426Z" fill="#000018"/>
<path d="M36.8552 10.4426H35.9087V11.386H36.8552V10.4426Z" fill="#000018"/>
<path d="M37.8017 10.4426H36.8552V11.386H37.8017V10.4426Z" fill="#000018"/>
<path d="M18.8169 10.4426H17.8704V11.386H18.8169V10.4426Z" fill="#03050C"/>
<path d="M19.7693 10.4426H18.8228V11.386H19.7693V10.4426Z" fill="#03050C"/>
<path d="M20.7158 10.4426H19.7693V11.386H20.7158V10.4426Z" fill="#03050C"/>
<path d="M21.6623 10.4426H20.7158V11.386H21.6623V10.4426Z" fill="#03050C"/>
<path d="M22.615 10.4426H21.6685V11.386H22.615V10.4426Z" fill="#03050C"/>
<path d="M23.5676 10.4426H22.6211V11.386H23.5676V10.4426Z" fill="#F3FDF5"/>
<path d="M24.5141 10.4426H23.5676V11.386H24.5141V10.4426Z" fill="#606B62"/>
<path d="M25.4668 10.4426H24.5203V11.386H25.4668V10.4426Z" fill="#636875"/>
<path d="M26.4133 10.4426H25.4668V11.386H26.4133V10.4426Z" fill="#F9FFFF"/>
<path d="M27.3657 10.4426H26.4192V11.386H27.3657V10.4426Z" fill="#616A61"/>
<path d="M28.3122 10.4426H27.3657V11.386H28.3122V10.4426Z" fill="#666D65"/>
<path d="M29.2649 10.4426H28.3184V11.386H29.2649V10.4426Z" fill="#F0F9E4"/>
<path d="M30.2175 10.4426H29.2649V11.386H30.2175V10.4426Z" fill="#5E6753"/>
<path d="M31.1641 10.4426H30.2175V11.386H31.1641V10.4426Z" fill="#5D6268"/>
<path d="M32.1106 10.4426H31.1641V11.386H32.1106V10.4426Z" fill="#EFF4F8"/>
<path d="M33.0571 10.4426H32.1106V11.386H33.0571V10.4426Z" fill="#000015"/>
<path d="M22.615 9.49316H21.6685V10.4366H22.615V9.49316Z" fill="#03050C"/>
<path d="M23.5676 9.49316H22.6211V10.4366H23.5676V9.49316Z" fill="#221782"/>
<path d="M24.5141 9.49316H23.5676V10.4366H24.5141V9.49316Z" fill="#170976"/>
<path d="M25.4668 9.49316H24.5203V10.4366H25.4668V9.49316Z" fill="#0C0094"/>
<path d="M26.4133 9.49316H25.4668V10.4366H26.4133V9.49316Z" fill="#2814B0"/>
<path d="M27.3657 9.49316H26.4192V10.4366H27.3657V9.49316Z" fill="#170983"/>
<path d="M28.3122 9.49316H27.3657V10.4366H28.3122V9.49316Z" fill="#190C84"/>
<path d="M29.2649 9.49316H28.3184V10.4366H29.2649V9.49316Z" fill="#19079E"/>
<path d="M30.2175 9.49316H29.2649V10.4366H30.2175V9.49316Z" fill="#190D7A"/>
<path d="M31.1641 9.49316H30.2175V10.4366H31.1641V9.49316Z" fill="#190D7A"/>
<path d="M32.1106 9.49316H31.1641V10.4366H32.1106V9.49316Z" fill="#190D7A"/>
<path d="M33.0571 9.49316H32.1106V10.4366H33.0571V9.49316Z" fill="#000015"/>
<path d="M22.615 8.5498H21.6685V9.49319H22.615V8.5498Z" fill="#03050C"/>
<path d="M23.5676 8.5498H22.6211V9.49319H23.5676V8.5498Z" fill="#00005C"/>
<path d="M24.5141 8.5498H23.5676V9.49319H24.5141V8.5498Z" fill="#040065"/>
<path d="M25.4668 8.5498H24.5203V9.49319H25.4668V8.5498Z" fill="#000085"/>
<path d="M26.4133 8.5498H25.4668V9.49319H26.4133V8.5498Z" fill="#000085"/>
<path d="M27.3657 8.5498H26.4192V9.49319H27.3657V8.5498Z" fill="#000067"/>
<path d="M28.3122 8.5498H27.3657V9.49319H28.3122V8.5498Z" fill="#000067"/>
<path d="M29.2649 8.5498H28.3184V9.49319H29.2649V8.5498Z" fill="#07008A"/>
<path d="M30.2175 8.5498H29.2649V9.49319H30.2175V8.5498Z" fill="#00007F"/>
<path d="M31.1641 8.5498H30.2175V9.49319H31.1641V8.5498Z" fill="#00005C"/>
<path d="M32.1106 8.5498H31.1641V9.49319H32.1106V8.5498Z" fill="#060066"/>
<path d="M33.0571 8.5498H32.1106V9.49319H33.0571V8.5498Z" fill="#000015"/>
<path d="M14.072 18.0139H13.1255V18.9573H14.072V18.0139Z" fill="#000209"/>
<path d="M15.0246 18.0139H14.0781V18.9573H15.0246V18.0139Z" fill="#CBD2DA"/>
<path d="M15.9712 18.0139H15.0247V18.9573H15.9712V18.0139Z" fill="#8DF6C4"/>
<path d="M16.9238 18.0139H15.9773V18.9573H16.9238V18.0139Z" fill="#73DAAA"/>
<path d="M17.8704 18.0139H16.9238V18.9573H17.8704V18.0139Z" fill="#AAFBB8"/>
<path d="M18.8227 18.0139H17.8762V18.9573H18.8227V18.0139Z" fill="#075816"/>
<path d="M19.7693 18.0139H18.8228V18.9573H19.7693V18.0139Z" fill="#35844C"/>
<path d="M20.7158 18.0139H19.7693V18.9573H20.7158V18.0139Z" fill="#0C5A21"/>
<path d="M21.6684 18.0139H20.7219V18.9573H21.6684V18.0139Z" fill="#347745"/>
<path d="M22.615 18.0139H21.6685V18.9573H22.615V18.0139Z" fill="#175827"/>
<path d="M23.5615 18.0139H22.615V18.9573H23.5615V18.0139Z" fill="#4D7A48"/>
<path d="M24.5141 18.0139H23.5676V18.9573H24.5141V18.0139Z" fill="#22501E"/>
<path d="M25.4607 18.0139H24.5142V18.9573H25.4607V18.0139Z" fill="#586E49"/>
<path d="M26.4133 18.0139H25.4668V18.9573H26.4133V18.0139Z" fill="#364D29"/>
<path d="M27.3596 18.0139H26.4131V18.9573H27.3596V18.0139Z" fill="#050602"/>
<path d="M28.3122 18.0139H27.3657V18.9573H28.3122V18.0139Z" fill="#10080F"/>
<path d="M29.2648 18.0139H28.3123V18.9573H29.2648V18.0139Z" fill="#10080F"/>
<path d="M30.2114 18.0139H29.2649V18.9573H30.2114V18.0139Z" fill="#10080F"/>
<path d="M31.1579 18.0139H30.2114V18.9573H31.1579V18.0139Z" fill="#04000D"/>
<path d="M32.1106 18.0139H31.1641V18.9573H32.1106V18.0139Z" fill="#FDFFDD"/>
<path d="M33.0571 18.0139H32.1106V18.9573H33.0571V18.0139Z" fill="#F6F7FF"/>
<path d="M34.0037 18.0139H33.0571V18.9573H34.0037V18.0139Z" fill="#656677"/>
<path d="M34.9563 18.0139H34.0098V18.9573H34.9563V18.0139Z" fill="#6E6E6E"/>
<path d="M35.9026 18.0139H34.9561V18.9573H35.9026V18.0139Z" fill="#C5C5C5"/>
<path d="M36.8552 18.0139H35.9087V18.9573H36.8552V18.0139Z" fill="#D0D0D0"/>
<path d="M37.8017 18.0139H36.8552V18.9573H37.8017V18.0139Z" fill="#616161"/>
<path d="M38.7544 18.0139H37.8079V18.9573H38.7544V18.0139Z" fill="#737373"/>
<path d="M39.7009 18.0139H38.7544V18.9573H39.7009V18.0139Z" fill="black"/>
<path d="M40.6536 18.0139H39.707V18.9573H40.6536V18.0139Z" fill="#C5C5C5"/>
<path d="M41.6001 18.0139H40.6536V18.9573H41.6001V18.0139Z" fill="#D9D9D9"/>
<path d="M42.5527 18.0139H41.6062V18.9573H42.5527V18.0139Z" fill="black"/>
<path d="M14.072 18.9573H13.1255V19.9007H14.072V18.9573Z" fill="#000209"/>
<path d="M15.0246 18.9573H14.0781V19.9007H15.0246V18.9573Z" fill="#D3DAE2"/>
<path d="M15.9712 18.9573H15.0247V19.9007H15.9712V18.9573Z" fill="#61CB99"/>
<path d="M16.9238 18.9573H15.9773V19.9007H16.9238V18.9573Z" fill="#85EDBB"/>
<path d="M17.8704 18.9573H16.9238V19.9007H17.8704V18.9573Z" fill="#025310"/>
<path d="M18.8227 18.9573H17.8762V19.9007H18.8227V18.9573Z" fill="#398A47"/>
<path d="M19.7693 18.9573H18.8228V19.9007H19.7693V18.9573Z" fill="#0A5B22"/>
<path d="M20.7158 18.9573H19.7693V19.9007H20.7158V18.9573Z" fill="#2D7B44"/>
<path d="M21.6684 18.9573H20.7219V19.9007H21.6684V18.9573Z" fill="#226433"/>
<path d="M22.615 18.9573H21.6685V19.9007H22.615V18.9573Z" fill="#39794A"/>
<path d="M23.5615 18.9573H22.615V19.9007H23.5615V18.9573Z" fill="#1F4D1C"/>
<path d="M24.5141 18.9573H23.5676V19.9007H24.5141V18.9573Z" fill="#507F4D"/>
<path d="M25.4607 18.9573H24.5142V19.9007H25.4607V18.9573Z" fill="#2C411E"/>
<path d="M26.4133 18.9573H25.4668V19.9007H26.4133V18.9573Z" fill="#5B7350"/>
<path d="M27.3596 18.9573H26.4131V19.9007H27.3596V18.9573Z" fill="#050602"/>
<path d="M28.3122 18.9573H27.3657V19.9007H28.3122V18.9573Z" fill="#675D5C"/>
<path d="M29.2648 18.9573H28.3123V19.9007H29.2648V18.9573Z" fill="#675E66"/>
<path d="M30.2114 18.9573H29.2649V19.9007H30.2114V18.9573Z" fill="#6D656B"/>
<path d="M31.1579 18.9573H30.2114V19.9007H31.1579V18.9573Z" fill="#04000D"/>
<path d="M32.1106 18.9573H31.1641V19.9007H32.1106V18.9573Z" fill="#CDD2AD"/>
<path d="M33.0571 18.9573H32.1106V19.9007H33.0571V18.9573Z" fill="#D7D8EA"/>
<path d="M34.0037 18.9573H33.0571V19.9007H34.0037V18.9573Z" fill="#F7F8FF"/>
<path d="M34.9563 18.9573H34.0098V19.9007H34.9563V18.9573Z" fill="#F8F8F8"/>
<path d="M35.9026 18.9573H34.9561V19.9007H35.9026V18.9573Z" fill="#666666"/>
<path d="M36.8552 18.9573H35.9087V19.9007H36.8552V18.9573Z" fill="#707070"/>
<path d="M37.8017 18.9573H36.8552V19.9007H37.8017V18.9573Z" fill="#707070"/>
<path d="M38.7544 18.9573H37.8079V19.9007H38.7544V18.9573Z" fill="#CACACA"/>
<path d="M39.7009 18.9573H38.7544V19.9007H39.7009V18.9573Z" fill="#BFBFBF"/>
<path d="M40.6536 18.9573H39.707V19.9007H40.6536V18.9573Z" fill="#777777"/>
<path d="M41.6001 18.9573H40.6536V19.9007H41.6001V18.9573Z" fill="#535353"/>
<path d="M42.5527 18.9573H41.6062V19.9007H42.5527V18.9573Z" fill="black"/>
<path d="M14.0781 19.9067H13.1316V20.8501H14.0781V19.9067Z" fill="#000209"/>
<path d="M15.0246 19.9067H14.0781V20.8501H15.0246V19.9067Z" fill="#CBD2DA"/>
<path d="M15.9773 19.9067H15.0308V20.8501H15.9773V19.9067Z" fill="#8DF6C4"/>
<path d="M16.9238 19.9067H15.9773V20.8501H16.9238V19.9067Z" fill="#73DAAA"/>
<path d="M17.8762 19.9067H16.9297V20.8501H17.8762V19.9067Z" fill="#AAFBB8"/>
<path d="M18.8227 19.9067H17.8762V20.8501H18.8227V19.9067Z" fill="#075816"/>
<path d="M19.7693 19.9067H18.8228V20.8501H19.7693V19.9067Z" fill="#35844C"/>
<path d="M20.7158 19.9067H19.7693V20.8501H20.7158V19.9067Z" fill="#0C5A21"/>
<path d="M21.6684 19.9067H20.7219V20.8501H21.6684V19.9067Z" fill="#347745"/>
<path d="M22.615 19.9067H21.6685V20.8501H22.615V19.9067Z" fill="#175827"/>
<path d="M23.5676 19.9067H22.6211V20.8501H23.5676V19.9067Z" fill="#4D7A48"/>
<path d="M24.5141 19.9067H23.5676V20.8501H24.5141V19.9067Z" fill="#22501E"/>
<path d="M25.4668 19.9067H24.5203V20.8501H25.4668V19.9067Z" fill="#586E49"/>
<path d="M26.4133 19.9067H25.4668V20.8501H26.4133V19.9067Z" fill="#364D29"/>
<path d="M27.3657 19.9067H26.4192V20.8501H27.3657V19.9067Z" fill="#050602"/>
<path d="M28.3122 19.9067H27.3657V20.8501H28.3122V19.9067Z" fill="#FEFCF0"/>
<path d="M29.2709 19.9067H28.3184V20.8501H29.2709V19.9067Z" fill="#FFF9EE"/>
<path d="M30.2114 19.9067H29.2649V20.8501H30.2114V19.9067Z" fill="#FEFCF0"/>
<path d="M31.1579 19.9067H30.2114V20.8501H31.1579V19.9067Z" fill="#04000D"/>
<path d="M32.1106 19.9067H31.1641V20.8501H32.1106V19.9067Z" fill="#CECFDC"/>
<path d="M33.0571 19.9067H32.1106V20.8501H33.0571V19.9067Z" fill="#BAC8C5"/>
<path d="M34.0098 19.9067H33.0632V20.8501H34.0098V19.9067Z" fill="#C8D6D3"/>
<path d="M34.9563 19.9067H34.0098V20.8501H34.9563V19.9067Z" fill="#D1D1D1"/>
<path d="M35.9087 19.9067H34.9622V20.8501H35.9087V19.9067Z" fill="#F5F5F5"/>
<path d="M36.8552 19.9067H35.9087V20.8501H36.8552V19.9067Z" fill="#FCFCFC"/>
<path d="M37.8079 19.9067H36.8613V20.8501H37.8079V19.9067Z" fill="#D0D0D0"/>
<path d="M38.7544 19.9067H37.8079V20.8501H38.7544V19.9067Z" fill="#676767"/>
<path d="M39.707 19.9067H38.7605V20.8501H39.707V19.9067Z" fill="#6B6B6B"/>
<path d="M40.6536 19.9067H39.707V20.8501H40.6536V19.9067Z" fill="#686868"/>
<path d="M41.6062 19.9067H40.6597V20.8501H41.6062V19.9067Z" fill="#6B6B6B"/>
<path d="M42.5527 19.9067H41.6062V20.8501H42.5527V19.9067Z" fill="black"/>
<path d="M14.072 20.8501H13.1255V21.7935H14.072V20.8501Z" fill="#000209"/>
<path d="M15.0246 20.8501H14.0781V21.7935H15.0246V20.8501Z" fill="#D3DAE2"/>
<path d="M15.9712 20.8501H15.0247V21.7935H15.9712V20.8501Z" fill="#61CB99"/>
<path d="M16.9238 20.8501H15.9773V21.7935H16.9238V20.8501Z" fill="#85EDBB"/>
<path d="M17.8704 20.8501H16.9238V21.7935H17.8704V20.8501Z" fill="#025310"/>
<path d="M18.8227 20.8501H17.8762V21.7935H18.8227V20.8501Z" fill="#398A47"/>
<path d="M19.7693 20.8501H18.8228V21.7935H19.7693V20.8501Z" fill="#0A5B22"/>
<path d="M20.7158 20.8501H19.7693V21.7935H20.7158V20.8501Z" fill="#2D7B44"/>
<path d="M21.6684 20.8501H20.7219V21.7935H21.6684V20.8501Z" fill="#226433"/>
<path d="M22.615 20.8501H21.6685V21.7935H22.615V20.8501Z" fill="#39794A"/>
<path d="M23.5615 20.8501H22.615V21.7935H23.5615V20.8501Z" fill="#1F4D1C"/>
<path d="M24.5141 20.8501H23.5676V21.7935H24.5141V20.8501Z" fill="#507F4D"/>
<path d="M25.4607 20.8501H24.5142V21.7935H25.4607V20.8501Z" fill="#2C411E"/>
<path d="M26.4133 20.8501H25.4668V21.7935H26.4133V20.8501Z" fill="#5B7350"/>
<path d="M27.3596 20.8501H26.4131V21.7935H27.3596V20.8501Z" fill="#050602"/>
<path d="M28.3122 20.8501H27.3657V21.7935H28.3122V20.8501Z" fill="#FAF1F2"/>
<path d="M29.2648 20.8501H28.3123V21.7935H29.2648V20.8501Z" fill="#FFF9EE"/>
<path d="M30.2114 20.8501H29.2649V21.7935H30.2114V20.8501Z" fill="#FFFFF3"/>
<path d="M31.1579 20.8501H30.2114V21.7935H31.1579V20.8501Z" fill="#04000D"/>
<path d="M32.1106 20.8501H31.1641V21.7935H32.1106V20.8501Z" fill="#C5C6D3"/>
<path d="M33.0571 20.8501H32.1106V21.7935H33.0571V20.8501Z" fill="#CCDAD7"/>
<path d="M34.0037 20.8501H33.0571V21.7935H34.0037V20.8501Z" fill="#BCCAC7"/>
<path d="M34.9563 20.8501H34.0098V21.7935H34.9563V20.8501Z" fill="#C8C8C8"/>
<path d="M35.9026 20.8501H34.9561V21.7935H35.9026V20.8501Z" fill="#D2D2D2"/>
<path d="M36.8552 20.8501H35.9087V21.7935H36.8552V20.8501Z" fill="#C5C5C5"/>
<path d="M37.8017 20.8501H36.8552V21.7935H37.8017V20.8501Z" fill="#686868"/>
<path d="M38.7544 20.8501H37.8079V21.7935H38.7544V20.8501Z" fill="#646464"/>
<path d="M39.7009 20.8501H38.7544V21.7935H39.7009V20.8501Z" fill="#5D5D5D"/>
<path d="M40.6536 20.8501H39.707V21.7935H40.6536V20.8501Z" fill="#686868"/>
<path d="M41.6001 20.8501H40.6536V21.7935H41.6001V20.8501Z" fill="#676767"/>
<path d="M42.5527 20.8501H41.6062V21.7935H42.5527V20.8501Z" fill="black"/>
<path d="M15.9712 21.7935H15.0247V22.7368H15.9712V21.7935Z" fill="#050602"/>
<path d="M16.9177 21.7935H15.9712V22.7368H16.9177V21.7935Z" fill="#050602"/>
<path d="M17.8704 21.7935H16.9238V22.7368H17.8704V21.7935Z" fill="#050602"/>
<path d="M18.8169 21.7935H17.8704V22.7368H18.8169V21.7935Z" fill="#050602"/>
<path d="M19.7632 21.7935H18.8167V22.7368H19.7632V21.7935Z" fill="#050602"/>
<path d="M20.7158 21.7935H19.7693V22.7368H20.7158V21.7935Z" fill="#050602"/>
<path d="M21.6623 21.7935H20.7158V22.7368H21.6623V21.7935Z" fill="#050602"/>
<path d="M22.6089 21.7935H21.6624V22.7368H22.6089V21.7935Z" fill="#050602"/>
<path d="M23.5615 21.7935H22.615V22.7368H23.5615V21.7935Z" fill="#050602"/>
<path d="M24.508 21.7935H23.5615V22.7368H24.508V21.7935Z" fill="#050602"/>
<path d="M25.4607 21.7935H24.5142V22.7368H25.4607V21.7935Z" fill="#050602"/>
<path d="M26.4072 21.7935H25.4607V22.7368H26.4072V21.7935Z" fill="#050602"/>
<path d="M27.3596 21.7935H26.4131V22.7368H27.3596V21.7935Z" fill="#050602"/>
<path d="M28.3061 21.7935H27.3596V22.7368H28.3061V21.7935Z" fill="#050602"/>
<path d="M29.2648 21.7935H28.3123V22.7368H29.2648V21.7935Z" fill="#050602"/>
<path d="M30.2114 21.7935H29.2649V22.7368H30.2114V21.7935Z" fill="#FAF1F2"/>
<path d="M31.1579 21.7935H30.2114V22.7368H31.1579V21.7935Z" fill="#04000D"/>
<path d="M32.1106 21.7935H31.1641V22.7368H32.1106V21.7935Z" fill="#CECDCF"/>
<path d="M33.0571 21.7935H32.1106V22.7368H33.0571V21.7935Z" fill="#C9D2B6"/>
<path d="M34.0098 21.7935H33.0632V22.7368H34.0098V21.7935Z" fill="#CED7BB"/>
<path d="M34.9563 21.7935H34.0098V22.7368H34.9563V21.7935Z" fill="#E1C5CE"/>
<path d="M35.9087 21.7935H34.9622V22.7368H35.9087V21.7935Z" fill="#DABEC7"/>
<path d="M36.8552 21.7935H35.9087V22.7368H36.8552V21.7935Z" fill="#DDC9D1"/>
<path d="M37.8079 21.7935H36.8613V22.7368H37.8079V21.7935Z" fill="#735E65"/>
<path d="M38.7544 21.7935H37.8079V22.7368H38.7544V21.7935Z" fill="#73686C"/>
<path d="M39.707 21.7935H38.7605V22.7368H39.707V21.7935Z" fill="#6A5F63"/>
<path d="M40.6536 21.7935H39.707V22.7368H40.6536V21.7935Z" fill="#656363"/>
<path d="M41.6062 21.7935H40.6597V22.7368H41.6062V21.7935Z" fill="#666465"/>
<path d="M42.5527 21.7935H41.6062V22.7368H42.5527V21.7935Z" fill="black"/>
<path d="M15.9712 22.7429H15.0247V23.6863H15.9712V22.7429Z" fill="#050602"/>
<path d="M16.9177 22.7429H15.9712V23.6863H16.9177V22.7429Z" fill="#050602"/>
<path d="M17.8704 22.7429H16.9238V23.6863H17.8704V22.7429Z" fill="#050602"/>
<path d="M18.8169 22.7429H17.8704V23.6863H18.8169V22.7429Z" fill="#050602"/>
<path d="M19.7632 22.7429H18.8167V23.6863H19.7632V22.7429Z" fill="#050602"/>
<path d="M20.7158 22.7429H19.7693V23.6863H20.7158V22.7429Z" fill="white"/>
<path d="M21.6623 22.7429H20.7158V23.6863H21.6623V22.7429Z" fill="#F5F3F3"/>
<path d="M22.6089 22.7429H21.6624V23.6863H22.6089V22.7429Z" fill="#FFFEFE"/>
<path d="M23.5615 22.7429H22.615V23.6863H23.5615V22.7429Z" fill="#FFF9FF"/>
<path d="M24.508 22.7429H23.5615V23.6863H24.508V22.7429Z" fill="#FEF1FF"/>
<path d="M25.4607 22.7429H24.5142V23.6863H25.4607V22.7429Z" fill="white"/>
<path d="M26.4072 22.7429H25.4607V23.6863H26.4072V22.7429Z" fill="#F5F3F3"/>
<path d="M27.3596 22.7429H26.4131V23.6863H27.3596V22.7429Z" fill="#FFFEFE"/>
<path d="M28.3061 22.7429H27.3596V23.6863H28.3061V22.7429Z" fill="#FEF1FF"/>
<path d="M29.2648 22.7429H28.3123V23.6863H29.2648V22.7429Z" fill="#6D6667"/>
<path d="M30.2114 22.7429H29.2649V23.6863H30.2114V22.7429Z" fill="#130D0D"/>
<path d="M31.1579 22.7429H30.2114V23.6863H31.1579V22.7429Z" fill="#FBFAFC"/>
<path d="M32.1106 22.7429H31.1641V23.6863H32.1106V22.7429Z" fill="#04000D"/>
<path d="M33.0571 22.7429H32.1106V23.6863H33.0571V22.7429Z" fill="#04000D"/>
<path d="M34.0098 22.7429H33.0632V23.6863H34.0098V22.7429Z" fill="#BEC7AB"/>
<path d="M34.9563 22.7429H34.0098V23.6863H34.9563V22.7429Z" fill="#E1C5CE"/>
<path d="M35.9087 22.7429H34.9622V23.6863H35.9087V22.7429Z" fill="#5B4049"/>
<path d="M36.8552 22.7429H35.9087V23.6863H36.8552V22.7429Z" fill="#D8C4CB"/>
<path d="M37.8079 22.7429H36.8613V23.6863H37.8079V22.7429Z" fill="#6B565D"/>
<path d="M38.7544 22.7429H37.8079V23.6863H38.7544V22.7429Z" fill="#695E61"/>
<path d="M39.707 22.7429H38.7605V23.6863H39.707V22.7429Z" fill="#706569"/>
<path d="M40.6536 22.7429H39.707V23.6863H40.6536V22.7429Z" fill="#04000D"/>
<path d="M41.6062 22.7429H40.6597V23.6863H41.6062V22.7429Z" fill="#04000D"/>
<path d="M42.5527 22.7429H41.6062V23.6863H42.5527V22.7429Z" fill="#707473"/>
<path d="M21.6623 23.6863H20.7158V24.6297H21.6623V23.6863Z" fill="#D0C6DA"/>
<path d="M22.6089 23.6863H21.6624V24.6297H22.6089V23.6863Z" fill="#D0C6DB"/>
<path d="M23.5615 23.6863H22.615V24.6297H23.5615V23.6863Z" fill="#CDC1C9"/>
<path d="M24.508 23.6863H23.5615V24.6297H24.508V23.6863Z" fill="#C6BAC1"/>
<path d="M17.8642 23.6863H16.9177V24.6297H17.8642V23.6863Z" fill="#D0C6DA"/>
<path d="M18.8169 23.6863H17.8704V24.6297H18.8169V23.6863Z" fill="#D0C6DB"/>
<path d="M19.7632 23.6863H18.8167V24.6297H19.7632V23.6863Z" fill="#CDC1C9"/>
<path d="M20.7158 23.6863H19.7693V24.6297H20.7158V23.6863Z" fill="#C6BAC1"/>
<path d="M15.0185 23.6863H14.072V24.6297H15.0185V23.6863Z" fill="white"/>
<path d="M15.9712 23.6863H15.0247V24.6297H15.9712V23.6863Z" fill="#F5F3F3"/>
<path d="M16.9177 23.6863H15.9712V24.6297H16.9177V23.6863Z" fill="#FFFEFE"/>
<path d="M26.4133 23.6863H25.4668V24.6297H26.4133V23.6863Z" fill="#D0C6DA"/>
<path d="M27.3657 23.6863H26.4192V24.6297H27.3657V23.6863Z" fill="#D0C6DB"/>
<path d="M28.3122 23.6863H27.3657V24.6297H28.3122V23.6863Z" fill="#CDC1C9"/>
<path d="M29.2649 23.6863H28.3184V24.6297H29.2649V23.6863Z" fill="#C6BAC1"/>
<path d="M25.4668 23.6863H24.5203V24.6297H25.4668V23.6863Z" fill="#6D6667"/>
<path d="M27.3596 24.6357H26.4131V25.5791H27.3596V24.6357Z" fill="#DACDD7"/>
<path d="M28.3061 24.6357H27.3596V25.5791H28.3061V24.6357Z" fill="#645460"/>
<path d="M29.2588 24.6357H28.3123V25.5791H29.2588V24.6357Z" fill="#77716B"/>
<path d="M15.0185 24.6357H14.072V25.5791H15.0185V24.6357Z" fill="#050602"/>
<path d="M15.9712 24.6357H15.0247V25.5791H15.9712V24.6357Z" fill="#050602"/>
<path d="M16.9177 24.6357H15.9712V25.5791H16.9177V24.6357Z" fill="#050602"/>
<path d="M17.8704 24.6357H16.9238V25.5791H17.8704V24.6357Z" fill="#050602"/>
<path d="M18.8169 24.6357H17.8704V25.5791H18.8169V24.6357Z" fill="#050602"/>
<path d="M19.7632 24.6357H18.8167V25.5791H19.7632V24.6357Z" fill="white"/>
<path d="M20.7158 24.6357H19.7693V25.5791H20.7158V24.6357Z" fill="#F5F3F3"/>
<path d="M21.6623 24.6357H20.7158V25.5791H21.6623V24.6357Z" fill="#FFFEFE"/>
<path d="M22.6089 24.6357H21.6624V25.5791H22.6089V24.6357Z" fill="#FFF9FF"/>
<path d="M23.5615 24.6357H22.615V25.5791H23.5615V24.6357Z" fill="#FEF1FF"/>
<path d="M24.508 24.6357H23.5615V25.5791H24.508V24.6357Z" fill="white"/>
<path d="M25.4607 24.6357H24.5142V25.5791H25.4607V24.6357Z" fill="#F5F3F3"/>
<path d="M26.4072 24.6357H25.4607V25.5791H26.4072V24.6357Z" fill="#FFFEFE"/>
<path d="M27.3596 24.6357H26.4131V25.5791H27.3596V24.6357Z" fill="#FEF1FF"/>
<path d="M28.3122 24.6357H27.3596V25.5791H28.3122V24.6357Z" fill="#6D6667"/>
<path d="M29.2649 24.6357H28.3184V25.5791H29.2649V24.6357Z" fill="#130D0D"/>
<path d="M30.2053 23.6863H29.2649V24.6297H30.2053V23.6863Z" fill="#060000"/>
<path d="M30.2053 24.6357H29.2588V25.5791H30.2053V24.6357Z" fill="#060000"/>
<path d="M30.2114 24.6357H29.2649V25.5791H30.2114V24.6357Z" fill="#060000"/>
<path d="M21.6623 25.5791H20.7158V26.5225H21.6623V25.5791Z" fill="#FFF8FF"/>
<path d="M22.6089 25.5791H21.6624V26.5225H22.6089V25.5791Z" fill="#CABDD7"/>
<path d="M23.5615 25.5791H22.615V26.5225H23.5615V25.5791Z" fill="#CDC1C9"/>
<path d="M24.508 25.5791H23.5615V26.5225H24.508V25.5791Z" fill="#C6BAC1"/>
<path d="M17.8642 25.5791H16.9177V26.5225H17.8642V25.5791Z" fill="#0E0D01"/>
<path d="M18.8169 25.5791H17.8704V26.5225H18.8169V25.5791Z" fill="#D0C6DB"/>
<path d="M19.7632 25.5791H18.8167V26.5225H19.7632V25.5791Z" fill="#CDC1C9"/>
<path d="M20.7158 25.5791H19.7693V26.5225H20.7158V25.5791Z" fill="#111701"/>
<path d="M16.9177 25.5791H15.9712V26.5225H16.9177V25.5791Z" fill="#0E0D01"/>
<path d="M26.4133 25.5791H25.4668V26.5225H26.4133V25.5791Z" fill="#FFFBFC"/>
<path d="M27.3657 25.5791H26.4192V26.5225H27.3657V25.5791Z" fill="#D0C6DB"/>
<path d="M28.3122 25.5791H27.3657V26.5225H28.3122V25.5791Z" fill="#CDC1C9"/>
<path d="M29.2649 25.5791H28.3184V26.5225H29.2649V25.5791Z" fill="#C6BAC1"/>
<path d="M25.4668 25.5791H24.5203V26.5225H25.4668V25.5791Z" fill="#FFFBFC"/>
<path d="M30.2053 25.5791H29.2649V26.5225H30.2053V25.5791Z" fill="#060000"/>
<path d="M30.2053 29.4253H29.2588V30.3687H30.2053V29.4253Z" fill="#020002"/>
<path d="M16.9238 29.4253H15.9773V30.3687H16.9238V29.4253Z" fill="black"/>
<path d="M17.8704 29.4253H16.9238V30.3687H17.8704V29.4253Z" fill="#CDC1C9"/>
<path d="M18.8227 29.4253H17.8762V30.3687H18.8227V29.4253Z" fill="#D0C6DB"/>
<path d="M19.7693 29.4253H18.8228V30.3687H19.7693V29.4253Z" fill="#D0C6DB"/>
<path d="M20.7219 29.4253H19.7754V30.3687H20.7219V29.4253Z" fill="#D0C6DB"/>
<path d="M21.6684 29.4253H20.7219V30.3687H21.6684V29.4253Z" fill="#D0C6DB"/>
<path d="M22.615 29.4253H21.6685V30.3687H22.615V29.4253Z" fill="#CDC1C9"/>
<path d="M23.5615 29.4253H22.615V30.3687H23.5615V29.4253Z" fill="#D0C6DA"/>
<path d="M24.5141 29.4253H23.5676V30.3687H24.5141V29.4253Z" fill="#CDC1C9"/>
<path d="M25.4607 29.4253H24.5142V30.3687H25.4607V29.4253Z" fill="#CDC1C9"/>
<path d="M26.4133 29.4253H25.4668V30.3687H26.4133V29.4253Z" fill="#D0C6DB"/>
<path d="M27.3596 29.4253H26.4131V30.3687H27.3596V29.4253Z" fill="#FDEDFF"/>
<path d="M28.3122 29.4253H27.3657V30.3687H28.3122V29.4253Z" fill="#BCBABC"/>
<path d="M29.2588 29.4253H28.3123V30.3687H29.2588V29.4253Z" fill="#706C6F"/>
<path d="M30.2114 28.488H29.2649V29.4314H30.2114V28.488Z" fill="#020002"/>
<path d="M16.9177 28.4758H15.9712V29.4192H16.9177V28.4758Z" fill="black"/>
<path d="M17.8704 28.4758H16.9238V29.4192H17.8704V28.4758Z" fill="#D2C8CE"/>
<path d="M18.8169 28.4758H17.8704V29.4192H18.8169V28.4758Z" fill="#FEF5F0"/>
<path d="M19.7693 28.4758H18.8228V29.4192H19.7693V28.4758Z" fill="#FFF2FF"/>
<path d="M20.7158 28.4758H19.7693V29.4192H20.7158V28.4758Z" fill="#FFF6FF"/>
<path d="M21.6684 28.4758H20.7219V29.4192H21.6684V28.4758Z" fill="#FEF5F0"/>
<path d="M22.6089 28.4758H21.6624V29.4192H22.6089V28.4758Z" fill="#FFFEF8"/>
<path d="M23.5615 28.4758H22.615V29.4192H23.5615V28.4758Z" fill="#F8EBFE"/>
<path d="M24.508 28.4758H23.5615V29.4192H24.508V28.4758Z" fill="#FFFAFF"/>
<path d="M25.4607 28.4758H24.5142V29.4192H25.4607V28.4758Z" fill="#FFF8FF"/>
<path d="M26.4072 28.4758H25.4607V29.4192H26.4072V28.4758Z" fill="#FDEDFF"/>
<path d="M27.3596 28.4758H26.4131V29.4192H27.3596V28.4758Z" fill="#D9D2CD"/>
<path d="M28.3061 28.4758H27.3596V29.4192H28.3061V28.4758Z" fill="#6B6561"/>
<path d="M29.2588 28.4758H28.3123V29.4192H29.2588V28.4758Z" fill="#625E61"/>
<path d="M16.9238 27.5325H15.9773V28.4759H16.9238V27.5325Z" fill="black"/>
<path d="M17.8704 27.5325H16.9238V28.4759H17.8704V27.5325Z" fill="#CDC1C9"/>
<path d="M18.8227 27.5325H17.8762V28.4759H18.8227V27.5325Z" fill="#FFFEFE"/>
<path d="M19.7693 27.5325H18.8228V28.4759H19.7693V27.5325Z" fill="#D0C6DB"/>
<path d="M20.7219 27.5325H19.7754V28.4759H20.7219V27.5325Z" fill="#D0C6DB"/>
<path d="M21.6684 27.5325H20.7219V28.4759H21.6684V27.5325Z" fill="#D0C6DB"/>
<path d="M22.615 27.5325H21.6685V28.4759H22.615V27.5325Z" fill="#CDC1C9"/>
<path d="M23.5615 27.5325H22.615V28.4759H23.5615V27.5325Z" fill="#D0C6DA"/>
<path d="M24.5141 27.5325H23.5676V28.4759H24.5141V27.5325Z" fill="#CDC1C9"/>
<path d="M25.4607 27.5325H24.5142V28.4759H25.4607V27.5325Z" fill="#CDC1C9"/>
<path d="M26.4133 27.5325H25.4668V28.4759H26.4133V27.5325Z" fill="#FDEDFF"/>
<path d="M27.3596 27.5325H26.4131V28.4759H27.3596V27.5325Z" fill="#FDEDFF"/>
<path d="M28.3122 27.5325H27.3657V28.4759H28.3122V27.5325Z" fill="#BCBABC"/>
<path d="M29.2588 27.5325H28.3123V28.4759H29.2588V27.5325Z" fill="#706C6F"/>
<path d="M30.2053 27.5386H29.2588V28.482H30.2053V27.5386Z" fill="#020002"/>
<path d="M27.3596 26.5286H26.4131V27.5324H27.3596V26.5286Z" fill="#DACDD7"/>
<path d="M28.3122 26.5286H27.3657V27.5324H28.3122V26.5286Z" fill="#645460"/>
<path d="M29.2588 26.5286H28.3123V27.5324H29.2588V26.5286Z" fill="#77716B"/>
<path d="M16.9238 26.5286H15.9773V27.5324H16.9238V26.5286Z" fill="#050602"/>
<path d="M17.8704 26.5286H16.9238V27.5324H17.8704V26.5286Z" fill="#FFF6FF"/>
<path d="M18.8169 26.5286H17.8704V27.5324H18.8169V26.5286Z" fill="#FFF2FF"/>
<path d="M19.7632 26.5286H18.8167V27.5324H19.7632V26.5286Z" fill="white"/>
<path d="M20.7158 26.5286H19.7693V27.5324H20.7158V26.5286Z" fill="#F5F3F3"/>
<path d="M21.6623 26.5286H20.7158V27.5324H21.6623V26.5286Z" fill="#FFFEFE"/>
<path d="M22.615 26.5286H21.6685V27.5324H22.615V26.5286Z" fill="#FFF9FF"/>
<path d="M23.5615 26.5286H22.615V27.5324H23.5615V26.5286Z" fill="#FEF1FF"/>
<path d="M24.5141 26.5286H23.5676V27.5324H24.5141V26.5286Z" fill="white"/>
<path d="M25.4607 26.5286H24.5142V27.5324H25.4607V26.5286Z" fill="#F5F3F3"/>
<path d="M26.4133 26.5286H25.4668V27.5324H26.4133V26.5286Z" fill="#FFFEFE"/>
<path d="M27.3596 26.5286H26.4131V27.5324H27.3596V26.5286Z" fill="#FEF1FF"/>
<path d="M28.3183 26.5286H27.3657V27.5324H28.3183V26.5286Z" fill="#6D6667"/>
<path d="M29.2649 26.5286H28.3184V27.5324H29.2649V26.5286Z" fill="#130D0D"/>
<path d="M30.2053 26.5286H29.2588V27.5324H30.2053V26.5286Z" fill="#060000"/>
<path d="M30.2114 26.5286H29.2649V27.5324H30.2114V26.5286Z" fill="#060000"/>
<path d="M34.0037 23.6863H33.0571V24.6297H34.0037V23.6863Z" fill="#0D0000"/>
<path d="M34.9563 23.6863H34.0098V24.6297H34.9563V23.6863Z" fill="#0D0000"/>
<path d="M35.9026 23.6863H34.9561V24.6297H35.9026V23.6863Z" fill="#E6D2D9"/>
<path d="M36.8552 23.6863H35.9087V24.6297H36.8552V23.6863Z" fill="#DBCBD1"/>
<path d="M37.8017 23.6863H36.8552V24.6297H37.8017V23.6863Z" fill="#6B5C62"/>
<path d="M38.7544 23.6863H37.8079V24.6297H38.7544V23.6863Z" fill="#0D0808"/>
<path d="M39.7009 23.6863H38.7544V24.6297H39.7009V23.6863Z" fill="#0D0808"/>
<path d="M35.9087 24.6357H34.9622V25.5791H35.9087V24.6357Z" fill="#0A0000"/>
<path d="M36.8552 24.6357H35.9087V25.5791H36.8552V24.6357Z" fill="#0A0000"/>
<path d="M37.8079 24.6357H36.8613V25.5791H37.8079V24.6357Z" fill="#0A0000"/>
<path d="M36.8552 25.4705H35.9087V26.5408H36.8552V25.4705Z" fill="#060002"/>
<path d="M36.8552 26.5408H35.9087V27.4842H36.8552V26.5408Z" fill="#060002"/>
<path d="M36.8552 27.4841H35.9087V28.4275H36.8552V27.4841Z" fill="#060002"/>
<path d="M36.8552 28.4336H35.9087V29.377H36.8552V28.4336Z" fill="#060002"/>
<path d="M36.8552 29.377H35.9087V30.3203H36.8552V29.377Z" fill="#060002"/>
<path d="M36.8552 30.3264H35.9087V31.2698H36.8552V30.3264Z" fill="#060002"/>
<path d="M35.9087 31.2698H34.9622V32.2132H35.9087V31.2698Z" fill="#060002"/>
<path d="M35.9087 32.2192H34.9622V33.1626H35.9087V32.2192Z" fill="#060002"/>
<path d="M32.1106 32.2615H31.1641V33.2049H32.1106V32.2615Z" fill="#060002"/>
<path d="M32.1106 33.2048H31.1641V34.1482H32.1106V33.2048Z" fill="#060002"/>
<path d="M32.1106 34.1543H31.1641V35.0977H32.1106V34.1543Z" fill="#060002"/>
<path d="M32.1106 35.0977H31.1641V36.041H32.1106V35.0977Z" fill="#060002"/>
<path d="M32.1106 36.0471H31.1641V36.9905H32.1106V36.0471Z" fill="#060002"/>
<path d="M31.1641 36.9905H30.2175V37.9339H31.1641V36.9905Z" fill="#060002"/>
<path d="M15.0246 36.9905H14.0781V37.9339H15.0246V36.9905Z" fill="black"/>
<path d="M15.0185 36.0471H14.072V36.9905H15.0185V36.0471Z" fill="black"/>
<path d="M15.0185 35.1038H14.072V36.0472H15.0185V35.1038Z" fill="black"/>
<path d="M15.0185 34.1543H14.072V35.0977H15.0185V34.1543Z" fill="black"/>
<path d="M15.0185 33.2109H14.072V34.1543H15.0185V33.2109Z" fill="black"/>
<path d="M15.9712 37.9341H15.0247V38.8775H15.9712V37.9341Z" fill="black"/>
<path d="M16.9238 37.9341H15.9773V38.8775H16.9238V37.9341Z" fill="black"/>
<path d="M17.8704 37.9341H16.9238V38.8775H17.8704V37.9341Z" fill="black"/>
<path d="M18.8227 37.9341H17.8762V38.8775H18.8227V37.9341Z" fill="black"/>
<path d="M19.7693 37.9341H18.8228V38.8775H19.7693V37.9341Z" fill="black"/>
<path d="M20.7219 37.9341H19.7754V38.8775H20.7219V37.9341Z" fill="black"/>
<path d="M21.6623 37.9341H20.7158V38.8775H21.6623V37.9341Z" fill="black"/>
<path d="M22.615 37.9341H21.6685V38.8775H22.615V37.9341Z" fill="black"/>
<path d="M23.5615 37.9341H22.615V38.8775H23.5615V37.9341Z" fill="black"/>
<path d="M24.5141 37.9341H23.5676V38.8775H24.5141V37.9341Z" fill="black"/>
<path d="M25.4607 37.9341H24.5142V38.8775H25.4607V37.9341Z" fill="black"/>
<path d="M26.4133 37.9341H25.4668V38.8775H26.4133V37.9341Z" fill="black"/>
<path d="M27.3596 37.9341H26.4131V38.8775H27.3596V37.9341Z" fill="black"/>
<path d="M28.3122 37.9341H27.3657V38.8775H28.3122V37.9341Z" fill="black"/>
<path d="M29.2588 37.9341H28.3123V38.8775H29.2588V37.9341Z" fill="black"/>
<path d="M30.2114 37.9341H29.2649V38.8775H30.2114V37.9341Z" fill="black"/>
<path d="M34.0098 33.1626H33.0632V34.106H34.0098V33.1626Z" fill="#060002"/>
<path d="M34.9563 33.1626H34.0098V34.106H34.9563V33.1626Z" fill="#060002"/>
<path d="M33.0571 34.1121H32.1106V35.0555H33.0571V34.1121Z" fill="#060002"/>
<path d="M6.47557 29.3528H5.52905V30.2962H6.47557V29.3528Z" fill="#120410"/>
<path d="M7.42821 29.3528H6.48169V30.2962H7.42821V29.3528Z" fill="#120410"/>
<path d="M8.37474 29.3528H7.42822V30.2962H8.37474V29.3528Z" fill="#120410"/>
<path d="M9.32128 29.3528H8.37476V30.2962H9.32128V29.3528Z" fill="#120410"/>
<path d="M10.2739 29.3528H9.32739V30.2962H10.2739V29.3528Z" fill="#120410"/>
<path d="M11.2202 29.3528H10.2737V30.2962H11.2202V29.3528Z" fill="#120410"/>
<path d="M12.1728 29.3528H11.2263V30.2962H12.1728V29.3528Z" fill="#120410"/>
<path d="M13.1194 29.3528H12.1729V30.2962H13.1194V29.3528Z" fill="#120410"/>
<path d="M14.072 29.3528H13.1255V30.2962H14.072V29.3528Z" fill="#120410"/>
<path d="M6.47557 28.4033H5.52905V29.3467H6.47557V28.4033Z" fill="#120410"/>
<path d="M7.42821 28.4033H6.48169V29.3467H7.42821V28.4033Z" fill="#5350EF"/>
<path d="M8.37474 28.4033H7.42822V29.3467H8.37474V28.4033Z" fill="#4E57F9"/>
<path d="M9.32128 28.4033H8.37476V29.3467H9.32128V28.4033Z" fill="#4E57F9"/>
<path d="M10.2739 28.4033H9.32739V29.3467H10.2739V28.4033Z" fill="#5350EF"/>
<path d="M11.2202 28.4033H10.2737V29.3467H11.2202V28.4033Z" fill="#5350EF"/>
<path d="M12.1728 28.4033H11.2263V29.3467H12.1728V28.4033Z" fill="#5350EF"/>
<path d="M13.1194 28.4033H12.1729V29.3467H13.1194V28.4033Z" fill="#4E57F9"/>
<path d="M14.072 28.4033H13.1255V29.3467H14.072V28.4033Z" fill="#120410"/>
<path d="M6.47557 27.46H5.52905V28.4034H6.47557V27.46Z" fill="#120410"/>
<path d="M7.42211 27.46H6.47559V28.4034H7.42211V27.46Z" fill="#120410"/>
<path d="M8.36864 27.46H7.42212V28.4034H8.36864V27.46Z" fill="#5350EF"/>
<path d="M9.32128 27.46H8.37476V28.4034H9.32128V27.46Z" fill="#5350EF"/>
<path d="M10.2678 27.46H9.32129V28.4034H10.2678V27.46Z" fill="#020266"/>
<path d="M11.2202 27.46H10.2737V28.4034H11.2202V27.46Z" fill="#020266"/>
<path d="M12.1667 27.46H11.2202V28.4034H12.1667V27.46Z" fill="#020266"/>
<path d="M13.1194 27.46H12.1729V28.4034H13.1194V27.46Z" fill="#4B53F7"/>
<path d="M14.0659 27.46H13.1194V28.4034H14.0659V27.46Z" fill="#5450FF"/>
<path d="M15.0185 27.46H14.072V28.4034H15.0185V27.46Z" fill="#070006"/>
<path d="M8.36864 26.5105H7.42212V27.4539H8.36864V26.5105Z" fill="#0A0000"/>
<path d="M9.32128 26.5105H8.37476V27.4539H9.32128V26.5105Z" fill="#4E57F9"/>
<path d="M10.2678 26.5105H9.32129V27.4539H10.2678V26.5105Z" fill="#0A0000"/>
<path d="M11.2202 26.5105H10.2737V27.4539H11.2202V26.5105Z" fill="#0A0000"/>
<path d="M12.1667 26.5105H11.2202V27.4539H12.1667V26.5105Z" fill="#0A0000"/>
<path d="M13.1194 26.5105H12.1729V27.4539H13.1194V26.5105Z" fill="#0A0000"/>
<path d="M14.0659 26.5105H13.1194V27.4539H14.0659V26.5105Z" fill="#5450FF"/>
<path d="M15.0185 26.5105H14.072V27.4539H15.0185V26.5105Z" fill="#070006"/>
<path d="M9.32128 25.5671H8.37476V26.5105H9.32128V25.5671Z" fill="#0A0000"/>
<path d="M10.2678 25.5671H9.32129V26.5105H10.2678V25.5671Z" fill="#5350EF"/>
<path d="M11.2202 25.5671H10.2737V26.5105H11.2202V25.5671Z" fill="#0A0000"/>
<path d="M14.0659 25.5671H13.1194V26.5105H14.0659V25.5671Z" fill="#0A0A01"/>
<path d="M15.0185 25.5671H14.072V26.5105H15.0185V25.5671Z" fill="#070006"/>
<path d="M10.2678 24.6177H9.32129V25.5611H10.2678V24.6177Z" fill="#0A0000"/>
<path d="M11.2202 24.6177H10.2737V25.5611H11.2202V24.6177Z" fill="#5350EF"/>
<path d="M12.1667 24.6177H11.2202V25.5611H12.1667V24.6177Z" fill="#0A0000"/>
<path d="M11.2202 23.6743H10.2737V24.6177H11.2202V23.6743Z" fill="#0A0000"/>
<path d="M12.1667 23.6743H11.2202V24.6177H12.1667V23.6743Z" fill="#7A95EA"/>
<path d="M13.1194 23.6743H12.1729V24.6177H13.1194V23.6743Z" fill="#0A0000"/>
<path d="M11.2202 22.7249H10.2737V23.6682H11.2202V22.7249Z" fill="#0A0000"/>
<path d="M12.1667 22.7249H11.2202V23.6682H12.1667V22.7249Z" fill="#7C88E8"/>
<path d="M13.1194 22.7249H12.1729V23.6682H13.1194V22.7249Z" fill="#020266"/>
<path d="M14.0659 22.7249H13.1194V23.6682H14.0659V22.7249Z" fill="#0A0000"/>
<path d="M11.2202 21.7815H10.2737V22.7249H11.2202V21.7815Z" fill="#0A0000"/>
<path d="M12.1667 21.7815H11.2202V22.7249H12.1667V21.7815Z" fill="#7673EF"/>
<path d="M13.1194 21.7815H12.1729V22.7249H13.1194V21.7815Z" fill="#5450FF"/>
<path d="M14.0659 21.7815H13.1194V22.7249H14.0659V21.7815Z" fill="#0A0000"/>
<path d="M11.2202 20.8381H10.2737V21.7815H11.2202V20.8381Z" fill="#0A0000"/>
<path d="M12.1667 20.8381H11.2202V21.7815H12.1667V20.8381Z" fill="#5350EF"/>
<path d="M13.1194 20.8381H12.1729V21.7815H13.1194V20.8381Z" fill="#5450FF"/>
<path d="M14.0659 20.8381H13.1194V21.7815H14.0659V20.8381Z" fill="#0A0000"/>
<path d="M11.2202 19.8887H10.2737V20.8321H11.2202V19.8887Z" fill="#5450FF"/>
<path d="M12.1667 19.8887H11.2202V20.8321H12.1667V19.8887Z" fill="#5D5DED"/>
<path d="M13.1194 19.8887H12.1729V20.8321H13.1194V19.8887Z" fill="#020B5E"/>
<path d="M14.0659 19.8887H13.1194V20.8321H14.0659V19.8887Z" fill="#0A0000"/>
<path d="M10.2678 19.8887H9.32129V20.8321H10.2678V19.8887Z" fill="#0A0000"/>
<path d="M9.32128 19.8887H8.37476V20.8321H9.32128V19.8887Z" fill="#0A0000"/>
<path d="M10.2678 18.9453H9.32129V19.8887H10.2678V18.9453Z" fill="#4B53F7"/>
<path d="M11.2202 18.9453H10.2737V19.8887H11.2202V18.9453Z" fill="#4B53F7"/>
<path d="M12.1667 18.9453H11.2202V19.8887H12.1667V18.9453Z" fill="#818DFC"/>
<path d="M13.1194 18.9453H12.1729V19.8887H13.1194V18.9453Z" fill="#0A0000"/>
<path d="M9.32128 18.9453H8.37476V19.8887H9.32128V18.9453Z" fill="#7888F9"/>
<path d="M8.36864 18.9453H7.42212V19.8887H8.36864V18.9453Z" fill="#0A0000"/>
<path d="M10.2678 17.9958H9.32129V18.9392H10.2678V17.9958Z" fill="#0A0000"/>
<path d="M11.2202 17.9958H10.2737V18.9392H11.2202V17.9958Z" fill="#0A0000"/>
<path d="M12.1667 17.9958H11.2202V18.9392H12.1667V17.9958Z" fill="#0A0000"/>
<path d="M9.32128 17.9958H8.37476V18.9392H9.32128V17.9958Z" fill="#0A0000"/>
<path d="M8.36864 19.8887H7.42212V20.8321H8.36864V19.8887Z" fill="#7888F9"/>
<path d="M7.42211 19.8887H6.47559V20.8321H7.42211V19.8887Z" fill="#0A0000"/>
<path d="M8.36864 20.8381H7.42212V21.7815H8.36864V20.8381Z" fill="#0A0000"/>
<path d="M7.42211 20.8381H6.47559V21.7815H7.42211V20.8381Z" fill="#0A0000"/>
<path d="M15.9712 29.3528H15.0247V30.2962H15.9712V29.3528Z" fill="#120410"/>
<path d="M16.9177 29.3528H15.9712V30.2962H16.9177V29.3528Z" fill="#120410"/>
<path d="M17.8642 29.3528H16.9177V30.2962H17.8642V29.3528Z" fill="#120410"/>
<path d="M18.8169 29.3528H17.8704V30.2962H18.8169V29.3528Z" fill="#120410"/>
<path d="M19.7632 29.3528H18.8167V30.2962H19.7632V29.3528Z" fill="#120410"/>
<path d="M20.7158 29.3528H19.7693V30.2962H20.7158V29.3528Z" fill="#120410"/>
<path d="M21.6623 29.3528H20.7158V30.2962H21.6623V29.3528Z" fill="#120410"/>
<path d="M22.615 29.3528H21.6685V30.2962H22.615V29.3528Z" fill="#120410"/>
<path d="M23.5615 29.3528H22.615V30.2962H23.5615V29.3528Z" fill="#120410"/>
<path d="M15.9712 28.4033H15.0247V29.3467H15.9712V28.4033Z" fill="#120410"/>
<path d="M16.9177 28.4033H15.9712V29.3467H16.9177V28.4033Z" fill="#5350EF"/>
<path d="M17.8642 28.4033H16.9177V29.3467H17.8642V28.4033Z" fill="#4E57F9"/>
<path d="M18.8169 28.4033H17.8704V29.3467H18.8169V28.4033Z" fill="#4E57F9"/>
<path d="M19.7632 28.4033H18.8167V29.3467H19.7632V28.4033Z" fill="#5350EF"/>
<path d="M20.7158 28.4033H19.7693V29.3467H20.7158V28.4033Z" fill="#5350EF"/>
<path d="M21.6623 28.4033H20.7158V29.3467H21.6623V28.4033Z" fill="#5350EF"/>
<path d="M22.615 28.4033H21.6685V29.3467H22.615V28.4033Z" fill="#4E57F9"/>
<path d="M23.5615 28.4033H22.615V29.3467H23.5615V28.4033Z" fill="#120410"/>
<path d="M15.9712 27.46H15.0247V28.4034H15.9712V27.46Z" fill="#120410"/>
<path d="M16.9177 27.46H15.9712V28.4034H16.9177V27.46Z" fill="#120410"/>
<path d="M17.8642 27.46H16.9177V28.4034H17.8642V27.46Z" fill="#5350EF"/>
<path d="M18.8108 27.46H17.8643V28.4034H18.8108V27.46Z" fill="#5350EF"/>
<path d="M19.7632 27.46H18.8167V28.4034H19.7632V27.46Z" fill="#020266"/>
<path d="M20.7097 27.46H19.7632V28.4034H20.7097V27.46Z" fill="#020266"/>
<path d="M21.6623 27.46H20.7158V28.4034H21.6623V27.46Z" fill="#020266"/>
<path d="M22.6089 27.46H21.6624V28.4034H22.6089V27.46Z" fill="#4B53F7"/>
<path d="M23.5615 27.46H22.615V28.4034H23.5615V27.46Z" fill="#5450FF"/>
<path d="M24.5141 27.46H23.5676V28.4034H24.5141V27.46Z" fill="#070006"/>
<path d="M17.8642 26.5105H16.9177V27.4539H17.8642V26.5105Z" fill="#0A0000"/>
<path d="M18.8108 26.5105H17.8643V27.4539H18.8108V26.5105Z" fill="#4E57F9"/>
<path d="M19.7632 26.5105H18.8167V27.4539H19.7632V26.5105Z" fill="#0A0000"/>
<path d="M20.7097 26.5105H19.7632V27.4539H20.7097V26.5105Z" fill="#0A0000"/>
<path d="M21.6623 26.5105H20.7158V27.4539H21.6623V26.5105Z" fill="#0A0000"/>
<path d="M22.6089 26.5105H21.6624V27.4539H22.6089V26.5105Z" fill="#0A0000"/>
<path d="M23.5615 26.5105H22.615V27.4539H23.5615V26.5105Z" fill="#5450FF"/>
<path d="M24.5141 26.5105H23.5676V27.4539H24.5141V26.5105Z" fill="#070006"/>
<path d="M18.8108 25.5671H17.8643V26.5105H18.8108V25.5671Z" fill="#0A0000"/>
<path d="M19.7632 25.5671H18.8167V26.5105H19.7632V25.5671Z" fill="#5350EF"/>
<path d="M20.7097 25.5671H19.7632V26.5105H20.7097V25.5671Z" fill="#0A0000"/>
<path d="M23.5615 25.5671H22.615V26.5105H23.5615V25.5671Z" fill="#0A0A01"/>
<path d="M24.5141 25.5671H23.5676V26.5105H24.5141V25.5671Z" fill="#070006"/>
<path d="M19.7632 24.6177H18.8167V25.5611H19.7632V24.6177Z" fill="#0A0000"/>
<path d="M20.7097 24.6177H19.7632V25.5611H20.7097V24.6177Z" fill="#5350EF"/>
<path d="M21.6623 24.6177H20.7158V25.5611H21.6623V24.6177Z" fill="#0A0000"/>
<path d="M20.7097 23.6743H19.7632V24.6177H20.7097V23.6743Z" fill="#0A0000"/>
<path d="M21.6623 23.6743H20.7158V24.6177H21.6623V23.6743Z" fill="#7A95EA"/>
<path d="M22.6089 23.6743H21.6624V24.6177H22.6089V23.6743Z" fill="#0A0000"/>
<path d="M20.7097 22.7249H19.7632V23.6682H20.7097V22.7249Z" fill="#0A0000"/>
<path d="M21.6623 22.7249H20.7158V23.6682H21.6623V22.7249Z" fill="#7C88E8"/>
<path d="M22.6089 22.7249H21.6624V23.6682H22.6089V22.7249Z" fill="#020266"/>
<path d="M23.5615 22.7249H22.615V23.6682H23.5615V22.7249Z" fill="#0A0000"/>
<path d="M20.7097 21.7815H19.7632V22.7249H20.7097V21.7815Z" fill="#0A0000"/>
<path d="M21.6623 21.7815H20.7158V22.7249H21.6623V21.7815Z" fill="#7673EF"/>
<path d="M22.6089 21.7815H21.6624V22.7249H22.6089V21.7815Z" fill="#5450FF"/>
<path d="M23.5615 21.7815H22.615V22.7249H23.5615V21.7815Z" fill="#0A0000"/>
<path d="M20.7097 20.8381H19.7632V21.7815H20.7097V20.8381Z" fill="#0A0000"/>
<path d="M21.6623 20.8381H20.7158V21.7815H21.6623V20.8381Z" fill="#5350EF"/>
<path d="M22.6089 20.8381H21.6624V21.7815H22.6089V20.8381Z" fill="#5450FF"/>
<path d="M23.5615 20.8381H22.615V21.7815H23.5615V20.8381Z" fill="#0A0000"/>
<path d="M20.7097 19.8887H19.7632V20.8321H20.7097V19.8887Z" fill="#5450FF"/>
<path d="M21.6623 19.8887H20.7158V20.8321H21.6623V19.8887Z" fill="#5D5DED"/>
<path d="M22.6089 19.8887H21.6624V20.8321H22.6089V19.8887Z" fill="#020B5E"/>
<path d="M23.5615 19.8887H22.615V20.8321H23.5615V19.8887Z" fill="#0A0000"/>
<path d="M19.7632 19.8887H18.8167V20.8321H19.7632V19.8887Z" fill="#0A0000"/>
<path d="M18.8108 19.8887H17.8643V20.8321H18.8108V19.8887Z" fill="#0A0000"/>
<path d="M19.7632 18.9453H18.8167V19.8887H19.7632V18.9453Z" fill="#4B53F7"/>
<path d="M20.7097 18.9453H19.7632V19.8887H20.7097V18.9453Z" fill="#4B53F7"/>
<path d="M21.6623 18.9453H20.7158V19.8887H21.6623V18.9453Z" fill="#818DFC"/>
<path d="M22.6089 18.9453H21.6624V19.8887H22.6089V18.9453Z" fill="#0A0000"/>
<path d="M18.8108 18.9453H17.8643V19.8887H18.8108V18.9453Z" fill="#7888F9"/>
<path d="M17.8642 18.9453H16.9177V19.8887H17.8642V18.9453Z" fill="#0A0000"/>
<path d="M19.7632 17.9958H18.8167V18.9392H19.7632V17.9958Z" fill="#0A0000"/>
<path d="M20.7097 17.9958H19.7632V18.9392H20.7097V17.9958Z" fill="#0A0000"/>
<path d="M21.6623 17.9958H20.7158V18.9392H21.6623V17.9958Z" fill="#0A0000"/>
<path d="M18.8108 17.9958H17.8643V18.9392H18.8108V17.9958Z" fill="#0A0000"/>
<path d="M17.8642 19.8887H16.9177V20.8321H17.8642V19.8887Z" fill="#7888F9"/>
<path d="M16.9116 19.8887H15.9651V20.8321H16.9116V19.8887Z" fill="#0A0000"/>
<path d="M17.8642 20.8381H16.9177V21.7815H17.8642V20.8381Z" fill="#0A0000"/>
<path d="M16.9116 20.8381H15.9651V21.7815H16.9116V20.8381Z" fill="#0A0000"/>
<path d="M29.1617 26.7283H28.3184V27.5689H29.1617V26.7283Z" fill="#120410"/>
<path d="M29.1617 25.8936H28.3184V26.7341H29.1617V25.8936Z" fill="#120410"/>
<path d="M29.1617 25.053H28.3184V25.8936H29.1617V25.053Z" fill="#120410"/>
<path d="M25.8004 24.2124H24.957V25.053H25.8004V24.2124Z" fill="#120410"/>
<path d="M25.8004 23.3779H24.957V24.2185H25.8004V23.3779Z" fill="#120410"/>
<path d="M29.1617 22.5374H28.3184V23.3779H29.1617V22.5374Z" fill="#120410"/>
<path d="M29.1617 21.6968H28.3184V22.5374H29.1617V21.6968Z" fill="#120410"/>
<path d="M29.1617 20.814H28.3184V21.6969H29.1617V20.814Z" fill="#120410"/>
<path d="M26.6378 22.5374H25.7944V23.3779H26.6378V22.5374Z" fill="#120410"/>
<path d="M27.4811 22.5374H26.6377V23.3779H27.4811V22.5374Z" fill="#120410"/>
<path d="M28.3243 22.5374H27.481V23.3779H28.3243V22.5374Z" fill="#120410"/>
<path d="M26.6378 25.053H25.7944V25.8936H26.6378V25.053Z" fill="#120410"/>
<path d="M27.4811 25.053H26.6377V25.8936H27.4811V25.053Z" fill="#120410"/>
<path d="M28.3243 25.053H27.481V25.8936H28.3243V25.053Z" fill="#120410"/>
<path d="M30.0052 19.187H29.1619V20.0276H30.0052V19.187Z" fill="#120410"/>
<path d="M30.8485 19.187H30.0051V20.0276H30.8485V19.187Z" fill="#120410"/>
<path d="M30.0052 28.4033H29.1619V29.2439H30.0052V28.4033Z" fill="#120410"/>
<path d="M30.8485 28.4033H30.0051V29.2439H30.8485V28.4033Z" fill="#120410"/>
<path d="M31.6859 26.7283H30.8425V27.5689H31.6859V26.7283Z" fill="#120410"/>
<path d="M31.6859 25.8936H30.8425V26.7341H31.6859V25.8936Z" fill="#120410"/>
<path d="M31.6859 25.053H30.8425V25.8936H31.6859V25.053Z" fill="#120410"/>
<path d="M31.6859 22.5374H30.8425V23.3779H31.6859V22.5374Z" fill="#120410"/>
<path d="M31.6859 21.7029H30.8425V22.5435H31.6859V21.7029Z" fill="#120410"/>
<path d="M31.6859 20.7957H30.8425V21.6967H31.6859V20.7957Z" fill="#120410"/>
<path d="M32.5292 22.5374H31.6858V23.3779H32.5292V22.5374Z" fill="#120410"/>
<path d="M33.3666 22.5374H32.5232V23.3779H33.3666V22.5374Z" fill="#120410"/>
<path d="M34.2098 22.5374H33.3665V23.3779H34.2098V22.5374Z" fill="#120410"/>
<path d="M32.5292 25.053H31.6858V25.8936H32.5292V25.053Z" fill="#120410"/>
<path d="M33.3666 25.053H32.5232V25.8936H33.3666V25.053Z" fill="#120410"/>
<path d="M34.2098 25.053H33.3665V25.8936H34.2098V25.053Z" fill="#120410"/>
<path d="M35.0533 24.2124H34.21V25.053H35.0533V24.2124Z" fill="#120410"/>
<path d="M35.0533 23.3779H34.21V24.2185H35.0533V23.3779Z" fill="#120410"/>
<path d="M29.1617 20.0217H28.3184V20.8623H29.1617V20.0217Z" fill="#120410"/>
<path d="M31.6859 20.0217H30.8425V20.8623H31.6859V20.0217Z" fill="#120410"/>
<path d="M29.1617 27.5627H28.3184V28.4033H29.1617V27.5627Z" fill="#120410"/>
<path d="M31.692 27.5688H30.8486V28.4094H31.692V27.5688Z" fill="#120410"/>
<path d="M30.0052 19.9854H29.1619V20.8259H30.0052V19.9854Z" fill="#4B57EF"/>
<path d="M30.8485 19.9854H30.0051V20.8259H30.8485V19.9854Z" fill="#7673EF"/>
<path d="M30.0052 27.5688H29.1619V28.4094H30.0052V27.5688Z" fill="#5D5DED"/>
<path d="M30.8485 27.5688H30.0051V28.4094H30.8485V27.5688Z" fill="#4B53F7"/>
<path d="M30.0052 21.6604H29.1619V22.501H30.0052V21.6604Z" fill="#5D5DED"/>
<path d="M30.8485 21.6604H30.0051V22.501H30.8485V21.6604Z" fill="#4E57F9"/>
<path d="M30.0052 20.8259H29.1619V21.6665H30.0052V20.8259Z" fill="#5450FF"/>
<path d="M30.8424 20.814H29.999V21.6606H30.8424V20.814Z" fill="#5450FF"/>
<path d="M30.0052 23.3779H29.1619V24.2185H30.0052V23.3779Z" fill="#5D5DED"/>
<path d="M30.8485 23.3779H30.0051V24.2004H30.8485V23.3779Z" fill="#4E57F9"/>
<path d="M30.0052 22.4951H29.1619V23.378H30.0052V22.4951Z" fill="#7888F9"/>
<path d="M30.8485 22.4951H30.0051V23.378H30.8485V22.4951Z" fill="#4E57F9"/>
<path d="M26.6378 24.2124H25.7944V25.053H26.6378V24.2124Z" fill="#5450FF"/>
<path d="M27.4811 24.2124H26.6377V25.053H27.4811V24.2124Z" fill="#5450FF"/>
<path d="M26.6378 23.3779H25.7944V24.2185H26.6378V23.3779Z" fill="#5D5DED"/>
<path d="M27.4811 23.3779H26.6377V24.2185H27.4811V23.3779Z" fill="#5450FF"/>
<path d="M30.8485 25.053H30.0051V25.8936H30.8485V25.053Z" fill="#4E57F9"/>
<path d="M30.8485 24.2004H30.0051V25.0531H30.8485V24.2004Z" fill="#5D5DED"/>
<path d="M31.6859 24.2004H30.8425V25.0531H31.6859V24.2004Z" fill="#7673EF"/>
<path d="M31.6858 23.3779H30.8303V24.2004H31.6858V23.3779Z" fill="#5450FF"/>
<path d="M30.0538 25.053H29.1619V25.8936H30.0538V25.053Z" fill="#7673EF"/>
<path d="M29.1678 24.2004H28.3245V25.0531H29.1678V24.2004Z" fill="#4B53F7"/>
<path d="M30.0052 24.2004H29.1619V25.0531H30.0052V24.2004Z" fill="#4B53F7"/>
<path d="M30.0538 25.8694H29.1619V26.71H30.0538V25.8694Z" fill="#5D5DED"/>
<path d="M30.8425 25.8694H30.0537V26.71H30.8425V25.8694Z" fill="#4E57F9"/>
<path d="M30.0052 26.698H29.1619V27.5809H30.0052V26.698Z" fill="#4B53F7"/>
<path d="M30.8485 26.698H30.0051V27.5809H30.8485V26.698Z" fill="#4E57F9"/>
<path d="M33.3666 23.3779H32.5232V24.2185H33.3666V23.3779Z" fill="#5450FF"/>
<path d="M32.5292 24.2004H31.6858V25.0531H32.5292V24.2004Z" fill="#7A95EA"/>
<path d="M33.3666 24.2004H32.5232V25.0531H33.3666V24.2004Z" fill="#7A95EA"/>
<path d="M32.5292 23.3779H31.6858V24.2004H32.5292V23.3779Z" fill="#5450FF"/>
<path d="M28.3183 24.2124H27.4507V25.053H28.3183V24.2124Z" fill="#5450FF"/>
<path d="M28.3183 23.3779H27.4507V24.2185H28.3183V23.3779Z" fill="#4B53F7"/>
<path d="M29.1678 23.3779H28.3245V24.2004H29.1678V23.3779Z" fill="#818DFC"/>
<path d="M34.2098 24.2004H33.3665V25.0531H34.2098V24.2004Z" fill="#7673EF"/>
<path d="M34.2098 23.3779H33.3665V24.2004H34.2098V23.3779Z" fill="#5D5DED"/>
<path d="M36.6489 28.875H35.7024V29.8184H36.6489V28.875Z" fill="#120410"/>
<path d="M37.6015 28.875H36.655V29.8184H37.6015V28.875Z" fill="#120410"/>
<path d="M38.542 28.875H37.5955V29.8184H38.542V28.875Z" fill="#120410"/>
<path d="M39.4946 28.875H38.5481V29.8184H39.4946V28.875Z" fill="#120410"/>
<path d="M40.4411 28.875H39.4946V29.8184H40.4411V28.875Z" fill="#120410"/>
<path d="M41.3938 28.875H40.4473V29.8184H41.3938V28.875Z" fill="#120410"/>
<path d="M42.3403 28.875H41.3938V29.8184H42.3403V28.875Z" fill="#120410"/>
<path d="M43.293 28.875H42.3464V29.8184H43.293V28.875Z" fill="#120410"/>
<path d="M44.2395 28.875H43.293V29.8184H44.2395V28.875Z" fill="#120410"/>
<path d="M36.6489 27.9316H35.7024V28.875H36.6489V27.9316Z" fill="#120410"/>
<path d="M37.6015 27.9316H36.655V28.875H37.6015V27.9316Z" fill="#5350EF"/>
<path d="M38.542 27.9316H37.5955V28.875H38.542V27.9316Z" fill="#4E57F9"/>
<path d="M39.4946 27.9316H38.5481V28.875H39.4946V27.9316Z" fill="#4E57F9"/>
<path d="M40.4411 27.9316H39.4946V28.875H40.4411V27.9316Z" fill="#5350EF"/>
<path d="M41.3938 27.9316H40.4473V28.875H41.3938V27.9316Z" fill="#5350EF"/>
<path d="M42.3403 27.9316H41.3938V28.875H42.3403V27.9316Z" fill="#5350EF"/>
<path d="M43.293 27.9316H42.3464V28.875H43.293V27.9316Z" fill="#4E57F9"/>
<path d="M44.2395 27.9316H43.293V28.875H44.2395V27.9316Z" fill="#120410"/>
<path d="M36.6489 26.9822H35.7024V27.9256H36.6489V26.9822Z" fill="#120410"/>
<path d="M37.5954 26.9822H36.6489V27.9256H37.5954V26.9822Z" fill="#120410"/>
<path d="M38.542 26.9822H37.5955V27.9256H38.542V26.9822Z" fill="#5350EF"/>
<path d="M39.4885 26.9822H38.542V27.9256H39.4885V26.9822Z" fill="#5350EF"/>
<path d="M40.4411 26.9822H39.4946V27.9256H40.4411V26.9822Z" fill="#020266"/>
<path d="M41.3877 26.9822H40.4412V27.9256H41.3877V26.9822Z" fill="#020266"/>
<path d="M42.3403 26.9822H41.3938V27.9256H42.3403V26.9822Z" fill="#020266"/>
<path d="M43.2869 26.9822H42.3403V27.9256H43.2869V26.9822Z" fill="#4B53F7"/>
<path d="M44.2395 26.9822H43.293V27.9256H44.2395V26.9822Z" fill="#5450FF"/>
<path d="M45.1919 26.9822H44.2454V27.9256H45.1919V26.9822Z" fill="#070006"/>
<path d="M38.542 26.0388H37.5955V26.9822H38.542V26.0388Z" fill="#0A0000"/>
<path d="M39.4885 26.0388H38.542V26.9822H39.4885V26.0388Z" fill="#4E57F9"/>
<path d="M40.4411 26.0388H39.4946V26.9822H40.4411V26.0388Z" fill="#0A0000"/>
<path d="M41.3877 26.0388H40.4412V26.9822H41.3877V26.0388Z" fill="#0A0000"/>
<path d="M42.3403 26.0388H41.3938V26.9822H42.3403V26.0388Z" fill="#0A0000"/>
<path d="M43.2869 26.0388H42.3403V26.9822H43.2869V26.0388Z" fill="#0A0000"/>
<path d="M44.2395 26.0388H43.293V26.9822H44.2395V26.0388Z" fill="#5450FF"/>
<path d="M45.1919 26.0388H44.2454V26.9822H45.1919V26.0388Z" fill="#070006"/>
<path d="M39.4946 25.0894H38.5481V26.0327H39.4946V25.0894Z" fill="#0A0000"/>
<path d="M40.4411 25.0894H39.4946V26.0327H40.4411V25.0894Z" fill="#5350EF"/>
<path d="M41.3938 25.0894H40.4473V26.0327H41.3938V25.0894Z" fill="#0A0000"/>
<path d="M44.2395 25.0894H43.293V26.0327H44.2395V25.0894Z" fill="#0A0A01"/>
<path d="M45.1919 25.0894H44.2454V26.0327H45.1919V25.0894Z" fill="#070006"/>
<path d="M40.4411 24.146H39.4946V25.0894H40.4411V24.146Z" fill="#0A0000"/>
<path d="M41.3938 24.146H40.4473V25.0894H41.3938V24.146Z" fill="#5350EF"/>
<path d="M42.3403 24.146H41.3938V25.0894H42.3403V24.146Z" fill="#0A0000"/>
<path d="M41.3938 23.1965H40.4473V24.1399H41.3938V23.1965Z" fill="#0A0000"/>
<path d="M42.3403 23.1965H41.3938V24.1399H42.3403V23.1965Z" fill="#7A95EA"/>
<path d="M43.293 23.1965H42.3464V24.1399H43.293V23.1965Z" fill="#0A0000"/>
<path d="M41.3938 22.2532H40.4473V23.1966H41.3938V22.2532Z" fill="#0A0000"/>
<path d="M42.3403 22.2532H41.3938V23.1966H42.3403V22.2532Z" fill="#7C88E8"/>
<path d="M43.293 22.2532H42.3464V23.1966H43.293V22.2532Z" fill="#020266"/>
<path d="M44.2395 22.2532H43.293V23.1966H44.2395V22.2532Z" fill="#0A0000"/>
<path d="M41.3938 21.3098H40.4473V22.2532H41.3938V21.3098Z" fill="#0A0000"/>
<path d="M42.3403 21.3098H41.3938V22.2532H42.3403V21.3098Z" fill="#7673EF"/>
<path d="M43.293 21.3098H42.3464V22.2532H43.293V21.3098Z" fill="#5450FF"/>
<path d="M44.2395 21.3098H43.293V22.2532H44.2395V21.3098Z" fill="#0A0000"/>
<path d="M41.3938 20.3604H40.4473V21.3037H41.3938V20.3604Z" fill="#0A0000"/>
<path d="M42.3403 20.3604H41.3938V21.3037H42.3403V20.3604Z" fill="#5350EF"/>
<path d="M43.293 20.3604H42.3464V21.3037H43.293V20.3604Z" fill="#5450FF"/>
<path d="M44.2395 20.3604H43.293V21.3037H44.2395V20.3604Z" fill="#0A0000"/>
<path d="M41.3938 19.417H40.4473V20.3604H41.3938V19.417Z" fill="#5450FF"/>
<path d="M42.3403 19.417H41.3938V20.3604H42.3403V19.417Z" fill="#5D5DED"/>
<path d="M43.293 19.417H42.3464V20.3604H43.293V19.417Z" fill="#020B5E"/>
<path d="M44.2395 19.417H43.293V20.3604H44.2395V19.417Z" fill="#0A0000"/>
<path d="M40.4411 19.417H39.4946V20.3604H40.4411V19.417Z" fill="#0A0000"/>
<path d="M39.4946 19.417H38.5481V20.3604H39.4946V19.417Z" fill="#0A0000"/>
<path d="M40.4411 18.4675H39.4946V19.4109H40.4411V18.4675Z" fill="#4B53F7"/>
<path d="M41.3938 18.4675H40.4473V19.4109H41.3938V18.4675Z" fill="#4B53F7"/>
<path d="M42.3403 18.4675H41.3938V19.4109H42.3403V18.4675Z" fill="#818DFC"/>
<path d="M43.293 18.4675H42.3464V19.4109H43.293V18.4675Z" fill="#0A0000"/>
<path d="M39.4946 18.4675H38.5481V19.4109H39.4946V18.4675Z" fill="#7888F9"/>
<path d="M38.542 18.4675H37.5955V19.4109H38.542V18.4675Z" fill="#0A0000"/>
<path d="M40.4411 17.5242H39.4946V18.4676H40.4411V17.5242Z" fill="#0A0000"/>
<path d="M41.3938 17.5242H40.4473V18.4676H41.3938V17.5242Z" fill="#0A0000"/>
<path d="M42.3403 17.5242H41.3938V18.4676H42.3403V17.5242Z" fill="#0A0000"/>
<path d="M39.4946 17.5242H38.5481V18.4676H39.4946V17.5242Z" fill="#0A0000"/>
<path d="M38.542 19.417H37.5955V20.3604H38.542V19.417Z" fill="#7888F9"/>
<path d="M37.5954 19.417H36.6489V20.3604H37.5954V19.417Z" fill="#0A0000"/>
<path d="M38.542 20.3604H37.5955V21.3037H38.542V20.3604Z" fill="#0A0000"/>
<path d="M37.5954 20.3604H36.6489V21.3037H37.5954V20.3604Z" fill="#0A0000"/>
</svg>
