<svg width="121" height="49" viewBox="0 0 121 49" fill="none" xmlns="http://www.w3.org/2000/svg">
<rect x="121" y="49" width="121" height="49" transform="rotate(-180 121 49)" fill="#E8E8E8"/>
<rect x="3" y="49" width="3" height="49" transform="rotate(-180 3 49)" fill="#404040"/>
<rect x="121" width="3" height="118" transform="rotate(90 121 0)" fill="#404040"/>
<rect x="121" y="46" width="3" height="118" transform="rotate(90 121 46)" fill="white"/>
<rect x="121" y="46" width="3" height="43" transform="rotate(-180 121 46)" fill="white"/>
<rect x="118" y="3" width="3" height="113" transform="rotate(90 118 3)" fill="#808080"/>
<rect x="5" y="46" width="2" height="43" transform="rotate(-180 5 46)" fill="#808080"/>
<path d="M49.7 33V15H63.2V33H60.95V17.25H51.95V33H49.7ZM74.45 30.75V21.75H76.7V30.75H74.45ZM65.45 39.75V19.5H74.45V21.75H67.7V30.75H74.45V33H67.7V39.75H65.45ZM85.7 28.5V24H87.95V28.5H85.7ZM81.2 33V19.5H83.45V28.5H85.7V30.75H83.45V33H81.2ZM90.2 33V24H87.95V21.75H90.2V19.5H92.45V33H90.2ZM104.87 30.75V26.25H107.12V30.75H104.87ZM104.87 24V21.75H107.12V24H104.87ZM95.87 33V19.5H104.87V21.75H98.12V24H104.87V26.25H98.12V30.75H104.87V33H95.87ZM110 33V30.75H112.25V33H110ZM110 28.5V15H112.25V28.5H110Z" fill="black"/>
<path d="M16.9773 37.9905H16.0308V38.9339H16.9773V37.9905Z" fill="white"/>
<path d="M17.9238 37.9905H16.9773V38.9339H17.9238V37.9905Z" fill="#D8D8D8"/>
<path d="M18.8762 37.9905H17.9297V38.9339H18.8762V37.9905Z" fill="#C0C0C0"/>
<path d="M19.8227 37.9905H18.8762V38.9339H19.8227V37.9905Z" fill="#CDCDCD"/>
<path d="M20.7754 37.9905H19.8289V38.9339H20.7754V37.9905Z" fill="#CDCFCC"/>
<path d="M21.7219 37.9905H20.7754V38.9339H21.7219V37.9905Z" fill="#CACCC9"/>
<path d="M22.6684 37.9905H21.7219V38.9339H22.6684V37.9905Z" fill="#CED0CD"/>
<path d="M23.6211 37.9905H22.6746V38.9339H23.6211V37.9905Z" fill="#C7CBC7"/>
<path d="M24.5676 37.9905H23.6211V38.9339H24.5676V37.9905Z" fill="#6F736F"/>
<path d="M25.5203 37.9905H24.5737V38.9339H25.5203V37.9905Z" fill="#878B87"/>
<path d="M26.4668 37.9905H25.5203V38.9339H26.4668V37.9905Z" fill="#000200"/>
<path d="M27.4133 37.9905H26.4668V38.9339H27.4133V37.9905Z" fill="#020302"/>
<path d="M28.3657 37.9905H27.4192V38.9339H28.3657V37.9905Z" fill="#000200"/>
<path d="M29.3122 37.9905H28.3657V38.9339H29.3122V37.9905Z" fill="#5B5D59"/>
<path d="M30.2649 37.9905H29.3184V38.9339H30.2649V37.9905Z" fill="#D1D3CF"/>
<path d="M31.2114 37.9905H30.2649V38.9339H31.2114V37.9905Z" fill="#6B6F6C"/>
<path d="M16.9712 37.0471H16.0247V37.9905H16.9712V37.0471Z" fill="white"/>
<path d="M17.9238 37.0471H16.9773V37.9905H17.9238V37.0471Z" fill="#C1C6BF"/>
<path d="M18.8704 37.0471H17.9238V37.9905H18.8704V37.0471Z" fill="#CBD1CE"/>
<path d="M19.8227 37.0471H18.8762V37.9905H19.8227V37.0471Z" fill="#CAD0CD"/>
<path d="M20.7693 37.0471H19.8228V37.9905H20.7693V37.0471Z" fill="#C5D3B5"/>
<path d="M21.7219 37.0471H20.7754V37.9905H21.7219V37.0471Z" fill="#C5D3B5"/>
<path d="M22.6684 37.0471H21.7219V37.9905H22.6684V37.0471Z" fill="#C8CFDB"/>
<path d="M23.615 37.0471H22.6685V37.9905H23.615V37.0471Z" fill="#C8CFDB"/>
<path d="M24.5676 37.0471H23.6211V37.9905H24.5676V37.0471Z" fill="#58693D"/>
<path d="M25.5141 37.0471H24.5676V37.9905H25.5141V37.0471Z" fill="#66774C"/>
<path d="M26.4668 37.0471H25.5203V37.9905H26.4668V37.0471Z" fill="#66705C"/>
<path d="M27.4133 37.0471H26.4668V37.9905H27.4133V37.0471Z" fill="#5F6955"/>
<path d="M28.3657 37.0471H27.4192V37.9905H28.3657V37.0471Z" fill="#666C67"/>
<path d="M29.3122 37.0471H28.3657V37.9905H29.3122V37.0471Z" fill="#535852"/>
<path d="M30.2649 37.0471H29.3184V37.9905H30.2649V37.0471Z" fill="#C4BBF8"/>
<path d="M31.2114 37.0471H30.2649V37.9905H31.2114V37.0471Z" fill="#7068A4"/>
<path d="M32.1641 37.0413H31.2175V37.9847H32.1641V37.0413Z" fill="#5F5E5C"/>
<path d="M16.9712 36.0977H16.0247V37.041H16.9712V36.0977Z" fill="#EDF2EC"/>
<path d="M17.9238 36.0977H16.9773V37.041H17.9238V36.0977Z" fill="#CCD1CA"/>
<path d="M18.8704 36.0977H17.9238V37.041H18.8704V36.0977Z" fill="#CDD3D0"/>
<path d="M19.8227 36.0977H18.8762V37.041H19.8227V36.0977Z" fill="#C4CAC7"/>
<path d="M20.7693 36.0977H19.8228V37.041H20.7693V36.0977Z" fill="#C5D4B5"/>
<path d="M21.7219 36.0977H20.7754V37.041H21.7219V36.0977Z" fill="#CBD9BB"/>
<path d="M22.6684 36.0977H21.7219V37.041H22.6684V36.0977Z" fill="#C5CCD9"/>
<path d="M23.615 36.0977H22.6685V37.041H23.615V36.0977Z" fill="#C1C8D4"/>
<path d="M24.5676 36.0977H23.6211V37.041H24.5676V36.0977Z" fill="#67764D"/>
<path d="M25.5141 36.0977H24.5676V37.041H25.5141V36.0977Z" fill="#87986C"/>
<path d="M26.4668 36.0977H25.5203V37.041H26.4668V36.0977Z" fill="#000200"/>
<path d="M27.4133 36.0977H26.4668V37.041H27.4133V36.0977Z" fill="#020302"/>
<path d="M28.3657 36.0977H27.4192V37.041H28.3657V36.0977Z" fill="#000200"/>
<path d="M29.3122 36.0977H28.3657V37.041H29.3122V36.0977Z" fill="#696E69"/>
<path d="M30.2649 36.0977H29.3184V37.041H30.2649V36.0977Z" fill="#DED5FF"/>
<path d="M31.2114 36.0977H30.2649V37.041H31.2114V36.0977Z" fill="#544C89"/>
<path d="M32.1641 36.0977H31.2175V37.041H32.1641V36.0977Z" fill="#706F6C"/>
<path d="M16.9712 35.1543H16.0247V36.0977H16.9712V35.1543Z" fill="#FDFBFF"/>
<path d="M17.9238 35.1543H16.9773V36.0977H17.9238V35.1543Z" fill="#FDF9FF"/>
<path d="M18.8704 35.1543H17.9238V36.0977H18.8704V35.1543Z" fill="#F6FFD9"/>
<path d="M19.8227 35.1543H18.8762V36.0977H19.8227V35.1543Z" fill="#FEFFDF"/>
<path d="M20.7693 35.1543H19.8228V36.0977H20.7693V35.1543Z" fill="#FDFFFC"/>
<path d="M21.7219 35.1543H20.7754V36.0977H21.7219V35.1543Z" fill="#F2F7F3"/>
<path d="M22.6684 35.1543H21.7219V36.0977H22.6684V35.1543Z" fill="#FDFCFF"/>
<path d="M23.615 35.1543H22.6685V36.0977H23.615V35.1543Z" fill="#F6F4FF"/>
<path d="M24.5676 35.1543H23.6211V36.0977H24.5676V35.1543Z" fill="#FDFFFF"/>
<path d="M25.5141 35.1543H24.5676V36.0977H25.5141V35.1543Z" fill="#FDFFFF"/>
<path d="M26.4668 35.1543H25.5203V36.0977H26.4668V35.1543Z" fill="#E9EBEE"/>
<path d="M27.4133 35.1543H26.4668V36.0977H27.4133V35.1543Z" fill="#FEFFFF"/>
<path d="M28.3657 35.1543H27.4192V36.0977H28.3657V35.1543Z" fill="#EFEEFF"/>
<path d="M29.3122 35.1543H28.3657V36.0977H29.3122V35.1543Z" fill="#F7F6FF"/>
<path d="M30.2649 35.1543H29.3184V36.0977H30.2649V35.1543Z" fill="#FFFFE3"/>
<path d="M31.2114 35.1543H30.2649V36.0977H31.2114V35.1543Z" fill="#6C724F"/>
<path d="M32.1641 35.1543H31.2175V36.0977H32.1641V35.1543Z" fill="#656373"/>
<path d="M16.9712 34.2048H16.0247V35.1482H16.9712V34.2048Z" fill="#F9F5FF"/>
<path d="M17.9238 34.2048H16.9773V35.1482H17.9238V34.2048Z" fill="#C6C2E6"/>
<path d="M18.8704 34.2048H17.9238V35.1482H18.8704V34.2048Z" fill="#626B43"/>
<path d="M19.8227 34.2048H18.8762V35.1482H19.8227V34.2048Z" fill="#6C754D"/>
<path d="M20.7693 34.2048H19.8228V35.1482H20.7693V34.2048Z" fill="#626663"/>
<path d="M21.7219 34.2048H20.7754V35.1482H21.7219V34.2048Z" fill="#6C706D"/>
<path d="M22.6684 34.2048H21.7219V35.1482H22.6684V34.2048Z" fill="#6C6A8A"/>
<path d="M23.615 34.2048H22.6685V35.1482H23.615V34.2048Z" fill="#5F5E7F"/>
<path d="M24.5615 34.2048H23.615V35.1482H24.5615V34.2048Z" fill="#5C5F68"/>
<path d="M25.5141 34.2048H24.5676V35.1482H25.5141V34.2048Z" fill="#565860"/>
<path d="M26.4607 34.2048H25.5142V35.1482H26.4607V34.2048Z" fill="#686C6F"/>
<path d="M27.4133 34.2048H26.4668V35.1482H27.4133V34.2048Z" fill="#5C5F62"/>
<path d="M28.3596 34.2048H27.4131V35.1482H28.3596V34.2048Z" fill="#727084"/>
<path d="M29.3122 34.2048H28.3657V35.1482H29.3122V34.2048Z" fill="#67667A"/>
<path d="M30.2588 34.2048H29.3123V35.1482H30.2588V34.2048Z" fill="#595F3D"/>
<path d="M31.2114 34.2048H30.2649V35.1482H31.2114V34.2048Z" fill="#FFFFE3"/>
<path d="M32.1641 34.2048H31.2175V35.1482H32.1641V34.2048Z" fill="#605E6E"/>
<path d="M30.2588 33.2615H29.3123V34.2049H30.2588V33.2615Z" fill="#707069"/>
<path d="M31.2114 33.2615H30.2649V34.2049H31.2114V33.2615Z" fill="#66665F"/>
<path d="M32.1641 33.2615H31.2175V34.2049H32.1641V33.2615Z" fill="#FFFFEC"/>
<path d="M16.9712 33.2615H16.0247V34.2049H16.9712V33.2615Z" fill="black"/>
<path d="M17.9238 33.2615H16.9773V34.2049H17.9238V33.2615Z" fill="#63635A"/>
<path d="M18.8704 33.2615H17.9238V34.2049H18.8704V33.2615Z" fill="black"/>
<path d="M19.8227 33.2615H18.8762V34.2049H19.8227V33.2615Z" fill="black"/>
<path d="M20.7693 33.2615H19.8228V34.2049H20.7693V33.2615Z" fill="black"/>
<path d="M21.7219 33.2615H20.7754V34.2049H21.7219V33.2615Z" fill="black"/>
<path d="M22.6623 33.2615H21.7158V34.2049H22.6623V33.2615Z" fill="black"/>
<path d="M23.615 33.2615H22.6685V34.2049H23.615V33.2615Z" fill="black"/>
<path d="M24.5615 33.2615H23.615V34.2049H24.5615V33.2615Z" fill="black"/>
<path d="M25.5141 33.2615H24.5676V34.2049H25.5141V33.2615Z" fill="black"/>
<path d="M26.4607 33.2615H25.5142V34.2049H26.4607V33.2615Z" fill="black"/>
<path d="M27.4133 33.2615H26.4668V34.2049H27.4133V33.2615Z" fill="black"/>
<path d="M28.3596 33.2615H27.4131V34.2049H28.3596V33.2615Z" fill="black"/>
<path d="M29.3122 33.2615H28.3657V34.2049H29.3122V33.2615Z" fill="black"/>
<path d="M31.2114 32.312H30.2649V33.2554H31.2114V32.312Z" fill="#020002"/>
<path d="M32.1579 32.312H31.2114V33.2554H32.1579V32.312Z" fill="#020002"/>
<path d="M33.1106 32.312H32.1641V33.2554H33.1106V32.312Z" fill="#FFFFEC"/>
<path d="M17.9238 32.312H16.9773V33.2554H17.9238V32.312Z" fill="black"/>
<path d="M18.8704 32.312H17.9238V33.2554H18.8704V32.312Z" fill="#CAC8C9"/>
<path d="M19.8227 32.312H18.8762V33.2554H19.8227V32.312Z" fill="#CDCBCC"/>
<path d="M20.7693 32.312H19.8228V33.2554H20.7693V32.312Z" fill="#69656A"/>
<path d="M21.7219 32.312H20.7754V33.2554H21.7219V32.312Z" fill="#69656A"/>
<path d="M22.6684 32.312H21.7219V33.2554H22.6684V32.312Z" fill="#696B47"/>
<path d="M23.615 32.312H22.6685V33.2554H23.615V32.312Z" fill="#696B47"/>
<path d="M24.5615 32.312H23.615V33.2554H24.5615V32.312Z" fill="#6C6673"/>
<path d="M25.5141 32.312H24.5676V33.2554H25.5141V32.312Z" fill="#5C5662"/>
<path d="M26.4607 32.312H25.5142V33.2554H26.4607V32.312Z" fill="#61672E"/>
<path d="M27.4133 32.312H26.4668V33.2554H27.4133V32.312Z" fill="#FDEDFF"/>
<path d="M28.3596 32.312H27.4131V33.2554H28.3596V32.312Z" fill="#BCBABC"/>
<path d="M29.3122 32.312H28.3657V33.2554H29.3122V32.312Z" fill="#6B6561"/>
<path d="M30.2588 32.312H29.3123V33.2554H30.2588V32.312Z" fill="black"/>
<path d="M31.2114 31.3687H30.2649V32.312H31.2114V31.3687Z" fill="#020002"/>
<path d="M17.9238 31.3687H16.9773V32.312H17.9238V31.3687Z" fill="black"/>
<path d="M18.8704 31.3687H17.9238V32.312H18.8704V31.3687Z" fill="#D2C8CE"/>
<path d="M19.8227 31.3687H18.8762V32.312H19.8227V31.3687Z" fill="#0F060B"/>
<path d="M20.7693 31.3687H19.8228V32.312H20.7693V31.3687Z" fill="#FFF2FF"/>
<path d="M21.7219 31.3687H20.7754V32.312H21.7219V31.3687Z" fill="#FFF6FF"/>
<path d="M22.6684 31.3687H21.7219V32.312H22.6684V31.3687Z" fill="#FEF5F0"/>
<path d="M23.615 31.3687H22.6685V32.312H23.615V31.3687Z" fill="#FFFEF8"/>
<path d="M24.5615 31.3687H23.615V32.312H24.5615V31.3687Z" fill="#F8EBFE"/>
<path d="M25.5141 31.3687H24.5676V32.312H25.5141V31.3687Z" fill="#FFFAFF"/>
<path d="M26.4607 31.3687H25.5142V32.312H26.4607V31.3687Z" fill="#FFF8FF"/>
<path d="M27.4133 31.3687H26.4668V32.312H27.4133V31.3687Z" fill="#FDEDFF"/>
<path d="M28.3596 31.3687H27.4131V32.312H28.3596V31.3687Z" fill="#D9D2CD"/>
<path d="M29.3122 31.3687H28.3657V32.312H29.3122V31.3687Z" fill="#6B6561"/>
<path d="M30.2588 31.3687H29.3123V32.312H30.2588V31.3687Z" fill="#625E61"/>
<path d="M15.072 18.0645H14.1255V19.0078H15.072V18.0645Z" fill="#000209"/>
<path d="M16.0246 18.0645H15.0781V19.0078H16.0246V18.0645Z" fill="#D3DAE2"/>
<path d="M16.9712 18.0645H16.0247V19.0078H16.9712V18.0645Z" fill="#61CB99"/>
<path d="M17.9238 18.0645H16.9773V19.0078H17.9238V18.0645Z" fill="#85EDBB"/>
<path d="M18.8704 18.0645H17.9238V19.0078H18.8704V18.0645Z" fill="#025310"/>
<path d="M19.8227 18.0645H18.8762V19.0078H19.8227V18.0645Z" fill="#398A47"/>
<path d="M20.7693 18.0645H19.8228V19.0078H20.7693V18.0645Z" fill="#0A5B22"/>
<path d="M21.7158 18.0645H20.7693V19.0078H21.7158V18.0645Z" fill="#2D7B44"/>
<path d="M22.6684 18.0645H21.7219V19.0078H22.6684V18.0645Z" fill="#226433"/>
<path d="M23.615 18.0645H22.6685V19.0078H23.615V18.0645Z" fill="#39794A"/>
<path d="M24.5615 18.0645H23.615V19.0078H24.5615V18.0645Z" fill="#1F4D1C"/>
<path d="M25.5141 18.0645H24.5676V19.0078H25.5141V18.0645Z" fill="#507F4D"/>
<path d="M26.4607 18.0645H25.5142V19.0078H26.4607V18.0645Z" fill="#2C411E"/>
<path d="M27.4133 18.0645H26.4668V19.0078H27.4133V18.0645Z" fill="#5B7350"/>
<path d="M28.3596 18.0645H27.4131V19.0078H28.3596V18.0645Z" fill="#050602"/>
<path d="M29.3122 18.0645H28.3657V19.0078H29.3122V18.0645Z" fill="#F8FAF3"/>
<path d="M30.2648 18.0645H29.3123V19.0078H30.2648V18.0645Z" fill="#FFFBF9"/>
<path d="M31.2114 18.0645H30.2649V19.0078H31.2114V18.0645Z" fill="#FAF6F4"/>
<path d="M32.1579 18.0645H31.2114V19.0078H32.1579V18.0645Z" fill="#04000D"/>
<path d="M33.1106 18.0645H32.1641V19.0078H33.1106V18.0645Z" fill="#655F5E"/>
<path d="M34.0571 18.0645H33.1106V19.0078H34.0571V18.0645Z" fill="#726A7C"/>
<path d="M35.0037 18.0645H34.0571V19.0078H35.0037V18.0645Z" fill="#D2C9DD"/>
<path d="M35.9563 18.0645H35.0098V19.0078H35.9563V18.0645Z" fill="#CACACA"/>
<path d="M36.9026 18.0645H35.9561V19.0078H36.9026V18.0645Z" fill="#D1D1D1"/>
<path d="M37.8552 18.0645H36.9087V19.0078H37.8552V18.0645Z" fill="#BEBEBE"/>
<path d="M38.8017 18.0645H37.8552V19.0078H38.8017V18.0645Z" fill="#6C6C6C"/>
<path d="M39.7544 18.0645H38.8079V19.0078H39.7544V18.0645Z" fill="#737373"/>
<path d="M40.7009 18.0645H39.7544V19.0078H40.7009V18.0645Z" fill="#6B6B6B"/>
<path d="M41.6536 18.0645H40.707V19.0078H41.6536V18.0645Z" fill="#6C6C6C"/>
<path d="M42.6001 18.0645H41.6536V19.0078H42.6001V18.0645Z" fill="#595959"/>
<path d="M43.5527 18.0645H42.6062V19.0078H43.5527V18.0645Z" fill="black"/>
<path d="M15.072 16.1716H14.1255V17.115H15.072V16.1716Z" fill="#000209"/>
<path d="M16.0246 16.1716H15.0781V17.115H16.0246V16.1716Z" fill="#CDCBE4"/>
<path d="M16.9712 16.1716H16.0247V17.115H16.9712V16.1716Z" fill="#5CD7C6"/>
<path d="M17.9238 16.1716H16.9773V17.115H17.9238V16.1716Z" fill="#76F1E0"/>
<path d="M18.8704 16.1716H17.9238V17.115H18.8704V16.1716Z" fill="#62BAB0"/>
<path d="M19.8227 16.1716H18.8762V17.115H19.8227V16.1716Z" fill="#9BF2E8"/>
<path d="M20.7693 16.1716H19.8228V17.115H20.7693V16.1716Z" fill="#0F583F"/>
<path d="M21.7158 16.1716H20.7693V17.115H21.7158V16.1716Z" fill="#3A8268"/>
<path d="M22.6684 16.1716H21.7219V17.115H22.6684V16.1716Z" fill="#12580F"/>
<path d="M23.615 16.1716H22.6685V17.115H23.615V16.1716Z" fill="#3B8037"/>
<path d="M24.5615 16.1716H23.615V17.115H24.5615V16.1716Z" fill="#1D5208"/>
<path d="M25.5141 16.1716H24.5676V17.115H25.5141V16.1716Z" fill="#467B31"/>
<path d="M26.4607 16.1716H25.5142V17.115H26.4607V16.1716Z" fill="#48663A"/>
<path d="M27.4133 16.1716H26.4668V17.115H27.4133V16.1716Z" fill="#3E5D31"/>
<path d="M28.3596 16.1716H27.4131V17.115H28.3596V16.1716Z" fill="#050602"/>
<path d="M29.3122 16.1716H28.3657V17.115H29.3122V16.1716Z" fill="#FAFFED"/>
<path d="M30.2648 16.1716H29.3123V17.115H30.2648V16.1716Z" fill="#FFFBF9"/>
<path d="M31.2114 16.1716H30.2649V17.115H31.2114V16.1716Z" fill="white"/>
<path d="M32.1579 16.1716H31.2114V17.115H32.1579V16.1716Z" fill="#04000D"/>
<path d="M33.1106 16.1716H32.1641V17.115H33.1106V16.1716Z" fill="#D8D2E4"/>
<path d="M34.0571 16.1716H33.1106V17.115H34.0571V16.1716Z" fill="#D3D1C1"/>
<path d="M35.0037 16.1716H34.0571V17.115H35.0037V16.1716Z" fill="#FFFFF0"/>
<path d="M35.9563 16.1716H35.0098V17.115H35.9563V16.1716Z" fill="#FCFCFC"/>
<path d="M36.9026 16.1716H35.9561V17.115H36.9026V16.1716Z" fill="#CCCCCC"/>
<path d="M37.8552 16.1716H36.9087V17.115H37.8552V16.1716Z" fill="#D1D1D1"/>
<path d="M38.8017 16.1716H37.8552V17.115H38.8017V16.1716Z" fill="#BFBFBF"/>
<path d="M39.7544 16.1716H38.8079V17.115H39.7544V16.1716Z" fill="#D9D9D9"/>
<path d="M40.7009 16.1716H39.7544V17.115H40.7009V16.1716Z" fill="#D8D8D8"/>
<path d="M41.6536 16.1716H40.707V17.115H41.6536V16.1716Z" fill="#595959"/>
<path d="M42.6001 16.1716H41.6536V17.115H42.6001V16.1716Z" fill="#6C6C6C"/>
<path d="M43.5527 16.1716H42.6062V17.115H43.5527V16.1716Z" fill="black"/>
<path d="M15.072 17.1211H14.1255V18.0645H15.072V17.1211Z" fill="#000209"/>
<path d="M16.0246 17.1211H15.0781V18.0645H16.0246V17.1211Z" fill="#CBD2DA"/>
<path d="M16.9712 17.1211H16.0247V18.0645H16.9712V17.1211Z" fill="#8DF6C4"/>
<path d="M17.9238 17.1211H16.9773V18.0645H17.9238V17.1211Z" fill="#73DAAA"/>
<path d="M18.8704 17.1211H17.9238V18.0645H18.8704V17.1211Z" fill="#AAFBB8"/>
<path d="M19.8227 17.1211H18.8762V18.0645H19.8227V17.1211Z" fill="#075816"/>
<path d="M20.7693 17.1211H19.8228V18.0645H20.7693V17.1211Z" fill="#35844C"/>
<path d="M21.7158 17.1211H20.7693V18.0645H21.7158V17.1211Z" fill="#0C5A21"/>
<path d="M22.6684 17.1211H21.7219V18.0645H22.6684V17.1211Z" fill="#347745"/>
<path d="M23.615 17.1211H22.6685V18.0645H23.615V17.1211Z" fill="#175827"/>
<path d="M24.5615 17.1211H23.615V18.0645H24.5615V17.1211Z" fill="#4D7A48"/>
<path d="M25.5141 17.1211H24.5676V18.0645H25.5141V17.1211Z" fill="#22501E"/>
<path d="M26.4607 17.1211H25.5142V18.0645H26.4607V17.1211Z" fill="#586E49"/>
<path d="M27.4133 17.1211H26.4668V18.0645H27.4133V17.1211Z" fill="#364D29"/>
<path d="M28.3596 17.1211H27.4131V18.0645H28.3596V17.1211Z" fill="#050602"/>
<path d="M29.3122 17.1211H28.3657V18.0645H29.3122V17.1211Z" fill="#555752"/>
<path d="M30.2648 17.1211H29.3123V18.0645H30.2648V17.1211Z" fill="#FFFBF9"/>
<path d="M31.2114 17.1211H30.2649V18.0645H31.2114V17.1211Z" fill="#676361"/>
<path d="M32.1579 17.1211H31.2114V18.0645H32.1579V17.1211Z" fill="#04000D"/>
<path d="M33.1106 17.1211H32.1641V18.0645H33.1106V17.1211Z" fill="#CEC9C7"/>
<path d="M34.0571 17.1211H33.1106V18.0645H34.0571V17.1211Z" fill="#CAC3D5"/>
<path d="M35.0037 17.1211H34.0571V18.0645H35.0037V17.1211Z" fill="#CDC4D8"/>
<path d="M35.9563 17.1211H35.0098V18.0645H35.9563V17.1211Z" fill="#CFCFCF"/>
<path d="M36.9026 17.1211H35.9561V18.0645H36.9026V17.1211Z" fill="#FDFDFD"/>
<path d="M37.8552 17.1211H36.9087V18.0645H37.8552V17.1211Z" fill="#FDFDFD"/>
<path d="M38.8017 17.1211H37.8552V18.0645H38.8017V17.1211Z" fill="#D6D6D6"/>
<path d="M39.7544 17.1211H38.8079V18.0645H39.7544V17.1211Z" fill="#585858"/>
<path d="M40.7009 17.1211H39.7544V18.0645H40.7009V17.1211Z" fill="#606060"/>
<path d="M41.6536 17.1211H40.707V18.0645H41.6536V17.1211Z" fill="#6C6C6C"/>
<path d="M42.6001 17.1211H41.6536V18.0645H42.6001V17.1211Z" fill="#5E5E5E"/>
<path d="M43.5527 17.1211H42.6062V18.0645H43.5527V17.1211Z" fill="black"/>
<path d="M16.0246 15.2283H15.0781V16.1717H16.0246V15.2283Z" fill="#06051D"/>
<path d="M16.9712 15.2283H16.0247V16.1717H16.9712V15.2283Z" fill="#6FE9D7"/>
<path d="M17.9238 15.2283H16.9773V16.1717H17.9238V15.2283Z" fill="#65E0CE"/>
<path d="M18.8704 15.2283H17.9238V16.1717H18.8704V15.2283Z" fill="#9CF3E9"/>
<path d="M19.8227 15.2283H18.8762V16.1717H19.8227V15.2283Z" fill="#004E44"/>
<path d="M20.7693 15.2283H19.8228V16.1717H20.7693V15.2283Z" fill="#99E2CA"/>
<path d="M21.7158 15.2283H20.7693V16.1717H21.7158V15.2283Z" fill="#80C8B0"/>
<path d="M22.6684 15.2283H21.7219V16.1717H22.6684V15.2283Z" fill="#438A40"/>
<path d="M23.615 15.2283H22.6685V16.1717H23.615V15.2283Z" fill="#10570E"/>
<path d="M24.5615 15.2283H23.615V16.1717H24.5615V15.2283Z" fill="#497F34"/>
<path d="M25.5141 15.2283H24.5676V16.1717H25.5141V15.2283Z" fill="#1C5307"/>
<path d="M26.4607 15.2283H25.5142V16.1717H26.4607V15.2283Z" fill="#4B693D"/>
<path d="M27.4133 15.2283H26.4668V16.1717H27.4133V15.2283Z" fill="#001700"/>
<path d="M28.3596 15.2283H27.4131V16.1717H28.3596V15.2283Z" fill="#5B694F"/>
<path d="M29.3122 15.2283H28.3657V16.1717H29.3122V15.2283Z" fill="#5E6A50"/>
<path d="M30.2648 15.2283H29.3123V16.1717H30.2648V15.2283Z" fill="#FFFBF9"/>
<path d="M31.2114 15.2283H30.2649V16.1717H31.2114V15.2283Z" fill="#6B6A71"/>
<path d="M32.1579 15.2283H31.2114V16.1717H32.1579V15.2283Z" fill="#04000D"/>
<path d="M33.1106 15.2283H32.1641V16.1717H33.1106V15.2283Z" fill="#FBF5FF"/>
<path d="M34.0571 15.2283H33.1106V16.1717H34.0571V15.2283Z" fill="#FEFCED"/>
<path d="M35.0037 15.2283H34.0571V16.1717H35.0037V15.2283Z" fill="#D5D3C3"/>
<path d="M35.9563 15.2283H35.0098V16.1717H35.9563V15.2283Z" fill="#CCCCCC"/>
<path d="M36.9026 15.2283H35.9561V16.1717H36.9026V15.2283Z" fill="#D2D2D2"/>
<path d="M37.8552 15.2283H36.9087V16.1717H37.8552V15.2283Z" fill="#C5C5C5"/>
<path d="M38.8017 15.2283H37.8552V16.1717H38.8017V15.2283Z" fill="#D4D4D4"/>
<path d="M39.7544 15.2283H38.8079V16.1717H39.7544V15.2283Z" fill="#C8C8C8"/>
<path d="M40.7009 15.2283H39.7544V16.1717H40.7009V15.2283Z" fill="#C9C9C9"/>
<path d="M41.6536 15.2283H40.707V16.1717H41.6536V15.2283Z" fill="#CDCDCD"/>
<path d="M42.6001 15.2283H41.6536V16.1717H42.6001V15.2283Z" fill="#CDCDCD"/>
<path d="M43.5527 15.2283H42.6062V16.1717H43.5527V15.2283Z" fill="black"/>
<path d="M16.9712 14.2788H16.0247V15.2222H16.9712V14.2788Z" fill="#06051D"/>
<path d="M17.9238 14.2788H16.9773V15.2222H17.9238V14.2788Z" fill="#5CD7C6"/>
<path d="M18.8704 14.2788H17.9238V15.2222H18.8704V14.2788Z" fill="#76F1E0"/>
<path d="M19.8227 14.2788H18.8762V15.2222H19.8227V14.2788Z" fill="#62BAB0"/>
<path d="M20.7693 14.2788H19.8228V15.2222H20.7693V14.2788Z" fill="#9BF2E8"/>
<path d="M21.7158 14.2788H20.7693V15.2222H21.7158V14.2788Z" fill="#0F583F"/>
<path d="M22.6684 14.2788H21.7219V15.2222H22.6684V14.2788Z" fill="#3A8268"/>
<path d="M23.615 14.2788H22.6685V15.2222H23.615V14.2788Z" fill="#12580F"/>
<path d="M24.5615 14.2788H23.615V15.2222H24.5615V14.2788Z" fill="#3B8037"/>
<path d="M25.5141 14.2788H24.5676V15.2222H25.5141V14.2788Z" fill="#1D5208"/>
<path d="M26.4607 14.2788H25.5142V15.2222H26.4607V14.2788Z" fill="#467B31"/>
<path d="M27.4133 14.2788H26.4668V15.2222H27.4133V14.2788Z" fill="#000D14"/>
<path d="M28.3596 14.2788H27.4131V15.2222H28.3596V14.2788Z" fill="#FAF9FF"/>
<path d="M29.3122 14.2788H28.3657V15.2222H29.3122V14.2788Z" fill="#FAF9FF"/>
<path d="M30.2588 14.2788H29.3123V15.2222H30.2588V14.2788Z" fill="#FAFFED"/>
<path d="M31.2175 14.2788H30.2649V15.2222H31.2175V14.2788Z" fill="#FFFBF9"/>
<path d="M32.1641 14.2788H31.2175V15.2222H32.1641V14.2788Z" fill="white"/>
<path d="M33.1106 14.2788H32.1641V15.2222H33.1106V14.2788Z" fill="#04000D"/>
<path d="M34.0571 14.2788H33.1106V15.2222H34.0571V14.2788Z" fill="#D8D2E4"/>
<path d="M35.0037 14.2788H34.0571V15.2222H35.0037V14.2788Z" fill="#D3D1C1"/>
<path d="M35.9563 14.2788H35.0098V15.2222H35.9563V14.2788Z" fill="#FFFFF0"/>
<path d="M36.9026 14.2788H35.9561V15.2222H36.9026V14.2788Z" fill="#FCFCFC"/>
<path d="M37.8552 14.2788H36.9087V15.2222H37.8552V14.2788Z" fill="#CCCCCC"/>
<path d="M38.8017 14.2788H37.8552V15.2222H38.8017V14.2788Z" fill="#D1D1D1"/>
<path d="M39.7544 14.2788H38.8079V15.2222H39.7544V14.2788Z" fill="#BFBFBF"/>
<path d="M40.7009 14.2788H39.7544V15.2222H40.7009V14.2788Z" fill="#D9D9D9"/>
<path d="M41.6536 14.2788H40.707V15.2222H41.6536V14.2788Z" fill="#D8D8D8"/>
<path d="M42.6001 14.2788H41.6536V15.2222H42.6001V14.2788Z" fill="#CBCBCB"/>
<path d="M43.5527 14.2788H42.6062V15.2222H43.5527V14.2788Z" fill="black"/>
<path d="M16.9712 13.3354H16.0247V14.2788H16.9712V13.3354Z" fill="#000C0A"/>
<path d="M17.9238 13.3354H16.9773V14.2788H17.9238V13.3354Z" fill="#58E0CC"/>
<path d="M18.8704 13.3354H17.9238V14.2788H18.8704V13.3354Z" fill="#87EFEB"/>
<path d="M19.8227 13.3354H18.8762V14.2788H19.8227V13.3354Z" fill="#65CDC9"/>
<path d="M20.7693 13.3354H19.8228V14.2788H20.7693V13.3354Z" fill="#BCE6DF"/>
<path d="M21.7158 13.3354H20.7693V14.2788H21.7158V13.3354Z" fill="#143E37"/>
<path d="M22.6684 13.3354H21.7219V14.2788H22.6684V13.3354Z" fill="#4D7747"/>
<path d="M23.615 13.3354H22.6685V14.2788H23.615V13.3354Z" fill="#1B4718"/>
<path d="M24.5615 13.3354H23.615V14.2788H24.5615V13.3354Z" fill="#5F8244"/>
<path d="M25.5141 13.3354H24.5676V14.2788H25.5141V13.3354Z" fill="#113500"/>
<path d="M26.4607 13.3354H25.5142V14.2788H26.4607V13.3354Z" fill="#0F1D23"/>
<path d="M27.4133 13.3354H26.4668V14.2788H27.4133V13.3354Z" fill="#E9F8FD"/>
<path d="M28.3596 13.3354H27.4131V14.2788H28.3596V13.3354Z" fill="#55548F"/>
<path d="M29.3122 13.3354H28.3657V14.2788H29.3122V13.3354Z" fill="#6A68A3"/>
<path d="M30.2588 13.3354H29.3123V14.2788H30.2588V13.3354Z" fill="#FCFEFF"/>
<path d="M31.2175 13.3354H30.2649V14.2788H31.2175V13.3354Z" fill="#61636B"/>
<path d="M32.1641 13.3354H31.2175V14.2788H32.1641V13.3354Z" fill="#6C7257"/>
<path d="M33.1106 13.3354H32.1641V14.2788H33.1106V13.3354Z" fill="#04000D"/>
<path d="M34.0571 13.3354H33.1106V14.2788H34.0571V13.3354Z" fill="#000015"/>
<path d="M35.0037 13.3354H34.0571V14.2788H35.0037V13.3354Z" fill="#C6C4DA"/>
<path d="M35.9563 13.3354H35.0098V14.2788H35.9563V13.3354Z" fill="#C5C5C5"/>
<path d="M36.9026 13.3354H35.9561V14.2788H36.9026V13.3354Z" fill="#D7D7D7"/>
<path d="M37.8552 13.3354H36.9087V14.2788H37.8552V13.3354Z" fill="#C6C6C6"/>
<path d="M38.8017 13.3354H37.8552V14.2788H38.8017V13.3354Z" fill="#CFCFCF"/>
<path d="M39.7544 13.3354H38.8079V14.2788H39.7544V13.3354Z" fill="#CDCDCD"/>
<path d="M40.7009 13.3354H39.7544V14.2788H40.7009V13.3354Z" fill="#CFCFCF"/>
<path d="M41.6536 13.3354H40.707V14.2788H41.6536V13.3354Z" fill="black"/>
<path d="M42.6001 13.3354H41.6536V14.2788H42.6001V13.3354Z" fill="black"/>
<path d="M17.9238 12.386H16.9773V13.3294H17.9238V12.386Z" fill="#02000F"/>
<path d="M18.8704 12.386H17.9238V13.3294H18.8704V12.386Z" fill="#02000F"/>
<path d="M19.8227 12.386H18.8762V13.3294H19.8227V12.386Z" fill="#D8D4E6"/>
<path d="M20.7693 12.386H19.8228V13.3294H20.7693V12.386Z" fill="#BFCEBE"/>
<path d="M21.7158 12.386H20.7693V13.3294H21.7158V12.386Z" fill="#BAC9BA"/>
<path d="M22.6684 12.386H21.7219V13.3294H22.6684V12.386Z" fill="#C6D5B8"/>
<path d="M23.615 12.386H22.6685V13.3294H23.615V12.386Z" fill="#C5D4B7"/>
<path d="M24.5615 12.386H23.615V13.3294H24.5615V12.386Z" fill="#000800"/>
<path d="M25.5141 12.386H24.5676V13.3294H25.5141V12.386Z" fill="#000800"/>
<path d="M26.4607 12.386H25.5142V13.3294H26.4607V12.386Z" fill="#FBFFFF"/>
<path d="M27.4133 12.386H26.4668V13.3294H27.4133V12.386Z" fill="#F8FDFF"/>
<path d="M28.3596 12.386H27.4131V13.3294H28.3596V12.386Z" fill="#FDFFFA"/>
<path d="M29.3122 12.386H28.3657V13.3294H29.3122V12.386Z" fill="#FDFFFA"/>
<path d="M30.2588 12.386H29.3123V13.3294H30.2588V12.386Z" fill="#FDFFF0"/>
<path d="M31.2175 12.386H30.2649V13.3294H31.2175V12.386Z" fill="#F3FCE8"/>
<path d="M32.1641 12.386H31.2175V13.3294H32.1641V12.386Z" fill="#FDFFFF"/>
<path d="M33.1106 12.386H32.1641V13.3294H33.1106V12.386Z" fill="#FDFFFF"/>
<path d="M34.0571 12.386H33.1106V13.3294H34.0571V12.386Z" fill="#000015"/>
<path d="M35.0037 12.386H34.0571V13.3294H35.0037V12.386Z" fill="#000018"/>
<path d="M35.9563 12.386H35.0098V13.3294H35.9563V12.386Z" fill="#000018"/>
<path d="M36.9026 12.386H35.9561V13.3294H36.9026V12.386Z" fill="#CCCCCC"/>
<path d="M37.8552 12.386H36.9087V13.3294H37.8552V12.386Z" fill="#CBCBCB"/>
<path d="M38.8017 12.386H37.8552V13.3294H38.8017V12.386Z" fill="#D2D2D2"/>
<path d="M39.7544 12.386H38.8079V13.3294H39.7544V12.386Z" fill="black"/>
<path d="M40.7009 12.386H39.7544V13.3294H40.7009V12.386Z" fill="black"/>
<path d="M36.9026 11.4426H35.9561V12.386H36.9026V11.4426Z" fill="#000018"/>
<path d="M37.8552 11.4426H36.9087V12.386H37.8552V11.4426Z" fill="#000018"/>
<path d="M38.8017 11.4426H37.8552V12.386H38.8017V11.4426Z" fill="#000018"/>
<path d="M19.8169 11.4426H18.8704V12.386H19.8169V11.4426Z" fill="#03050C"/>
<path d="M20.7693 11.4426H19.8228V12.386H20.7693V11.4426Z" fill="#03050C"/>
<path d="M21.7158 11.4426H20.7693V12.386H21.7158V11.4426Z" fill="#03050C"/>
<path d="M22.6623 11.4426H21.7158V12.386H22.6623V11.4426Z" fill="#03050C"/>
<path d="M23.615 11.4426H22.6685V12.386H23.615V11.4426Z" fill="#03050C"/>
<path d="M24.5676 11.4426H23.6211V12.386H24.5676V11.4426Z" fill="#F3FDF5"/>
<path d="M25.5141 11.4426H24.5676V12.386H25.5141V11.4426Z" fill="#606B62"/>
<path d="M26.4668 11.4426H25.5203V12.386H26.4668V11.4426Z" fill="#636875"/>
<path d="M27.4133 11.4426H26.4668V12.386H27.4133V11.4426Z" fill="#F9FFFF"/>
<path d="M28.3657 11.4426H27.4192V12.386H28.3657V11.4426Z" fill="#616A61"/>
<path d="M29.3122 11.4426H28.3657V12.386H29.3122V11.4426Z" fill="#666D65"/>
<path d="M30.2649 11.4426H29.3184V12.386H30.2649V11.4426Z" fill="#F0F9E4"/>
<path d="M31.2175 11.4426H30.2649V12.386H31.2175V11.4426Z" fill="#5E6753"/>
<path d="M32.1641 11.4426H31.2175V12.386H32.1641V11.4426Z" fill="#5D6268"/>
<path d="M33.1106 11.4426H32.1641V12.386H33.1106V11.4426Z" fill="#EFF4F8"/>
<path d="M34.0571 11.4426H33.1106V12.386H34.0571V11.4426Z" fill="#000015"/>
<path d="M23.615 10.4932H22.6685V11.4366H23.615V10.4932Z" fill="#03050C"/>
<path d="M24.5676 10.4932H23.6211V11.4366H24.5676V10.4932Z" fill="#221782"/>
<path d="M25.5141 10.4932H24.5676V11.4366H25.5141V10.4932Z" fill="#170976"/>
<path d="M26.4668 10.4932H25.5203V11.4366H26.4668V10.4932Z" fill="#0C0094"/>
<path d="M27.4133 10.4932H26.4668V11.4366H27.4133V10.4932Z" fill="#2814B0"/>
<path d="M28.3657 10.4932H27.4192V11.4366H28.3657V10.4932Z" fill="#170983"/>
<path d="M29.3122 10.4932H28.3657V11.4366H29.3122V10.4932Z" fill="#190C84"/>
<path d="M30.2649 10.4932H29.3184V11.4366H30.2649V10.4932Z" fill="#19079E"/>
<path d="M31.2175 10.4932H30.2649V11.4366H31.2175V10.4932Z" fill="#190D7A"/>
<path d="M32.1641 10.4932H31.2175V11.4366H32.1641V10.4932Z" fill="#190D7A"/>
<path d="M33.1106 10.4932H32.1641V11.4366H33.1106V10.4932Z" fill="#190D7A"/>
<path d="M34.0571 10.4932H33.1106V11.4366H34.0571V10.4932Z" fill="#000015"/>
<path d="M23.615 9.5498H22.6685V10.4932H23.615V9.5498Z" fill="#03050C"/>
<path d="M24.5676 9.5498H23.6211V10.4932H24.5676V9.5498Z" fill="#00005C"/>
<path d="M25.5141 9.5498H24.5676V10.4932H25.5141V9.5498Z" fill="#040065"/>
<path d="M26.4668 9.5498H25.5203V10.4932H26.4668V9.5498Z" fill="#000085"/>
<path d="M27.4133 9.5498H26.4668V10.4932H27.4133V9.5498Z" fill="#000085"/>
<path d="M28.3657 9.5498H27.4192V10.4932H28.3657V9.5498Z" fill="#000067"/>
<path d="M29.3122 9.5498H28.3657V10.4932H29.3122V9.5498Z" fill="#000067"/>
<path d="M30.2649 9.5498H29.3184V10.4932H30.2649V9.5498Z" fill="#07008A"/>
<path d="M31.2175 9.5498H30.2649V10.4932H31.2175V9.5498Z" fill="#00007F"/>
<path d="M32.1641 9.5498H31.2175V10.4932H32.1641V9.5498Z" fill="#00005C"/>
<path d="M33.1106 9.5498H32.1641V10.4932H33.1106V9.5498Z" fill="#060066"/>
<path d="M34.0571 9.5498H33.1106V10.4932H34.0571V9.5498Z" fill="#000015"/>
<path d="M15.072 19.0139H14.1255V19.9573H15.072V19.0139Z" fill="#000209"/>
<path d="M16.0246 19.0139H15.0781V19.9573H16.0246V19.0139Z" fill="#CBD2DA"/>
<path d="M16.9712 19.0139H16.0247V19.9573H16.9712V19.0139Z" fill="#8DF6C4"/>
<path d="M17.9238 19.0139H16.9773V19.9573H17.9238V19.0139Z" fill="#73DAAA"/>
<path d="M18.8704 19.0139H17.9238V19.9573H18.8704V19.0139Z" fill="#AAFBB8"/>
<path d="M19.8227 19.0139H18.8762V19.9573H19.8227V19.0139Z" fill="#075816"/>
<path d="M20.7693 19.0139H19.8228V19.9573H20.7693V19.0139Z" fill="#35844C"/>
<path d="M21.7158 19.0139H20.7693V19.9573H21.7158V19.0139Z" fill="#0C5A21"/>
<path d="M22.6684 19.0139H21.7219V19.9573H22.6684V19.0139Z" fill="#347745"/>
<path d="M23.615 19.0139H22.6685V19.9573H23.615V19.0139Z" fill="#175827"/>
<path d="M24.5615 19.0139H23.615V19.9573H24.5615V19.0139Z" fill="#4D7A48"/>
<path d="M25.5141 19.0139H24.5676V19.9573H25.5141V19.0139Z" fill="#22501E"/>
<path d="M26.4607 19.0139H25.5142V19.9573H26.4607V19.0139Z" fill="#586E49"/>
<path d="M27.4133 19.0139H26.4668V19.9573H27.4133V19.0139Z" fill="#364D29"/>
<path d="M28.3596 19.0139H27.4131V19.9573H28.3596V19.0139Z" fill="#050602"/>
<path d="M29.3122 19.0139H28.3657V19.9573H29.3122V19.0139Z" fill="#10080F"/>
<path d="M30.2648 19.0139H29.3123V19.9573H30.2648V19.0139Z" fill="#10080F"/>
<path d="M31.2114 19.0139H30.2649V19.9573H31.2114V19.0139Z" fill="#10080F"/>
<path d="M32.1579 19.0139H31.2114V19.9573H32.1579V19.0139Z" fill="#04000D"/>
<path d="M33.1106 19.0139H32.1641V19.9573H33.1106V19.0139Z" fill="#FDFFDD"/>
<path d="M34.0571 19.0139H33.1106V19.9573H34.0571V19.0139Z" fill="#F6F7FF"/>
<path d="M35.0037 19.0139H34.0571V19.9573H35.0037V19.0139Z" fill="#656677"/>
<path d="M35.9563 19.0139H35.0098V19.9573H35.9563V19.0139Z" fill="#6E6E6E"/>
<path d="M36.9026 19.0139H35.9561V19.9573H36.9026V19.0139Z" fill="#C5C5C5"/>
<path d="M37.8552 19.0139H36.9087V19.9573H37.8552V19.0139Z" fill="#D0D0D0"/>
<path d="M38.8017 19.0139H37.8552V19.9573H38.8017V19.0139Z" fill="#616161"/>
<path d="M39.7544 19.0139H38.8079V19.9573H39.7544V19.0139Z" fill="#737373"/>
<path d="M40.7009 19.0139H39.7544V19.9573H40.7009V19.0139Z" fill="black"/>
<path d="M41.6536 19.0139H40.707V19.9573H41.6536V19.0139Z" fill="#C5C5C5"/>
<path d="M42.6001 19.0139H41.6536V19.9573H42.6001V19.0139Z" fill="#D9D9D9"/>
<path d="M43.5527 19.0139H42.6062V19.9573H43.5527V19.0139Z" fill="black"/>
<path d="M15.072 19.9573H14.1255V20.9007H15.072V19.9573Z" fill="#000209"/>
<path d="M16.0246 19.9573H15.0781V20.9007H16.0246V19.9573Z" fill="#D3DAE2"/>
<path d="M16.9712 19.9573H16.0247V20.9007H16.9712V19.9573Z" fill="#61CB99"/>
<path d="M17.9238 19.9573H16.9773V20.9007H17.9238V19.9573Z" fill="#85EDBB"/>
<path d="M18.8704 19.9573H17.9238V20.9007H18.8704V19.9573Z" fill="#025310"/>
<path d="M19.8227 19.9573H18.8762V20.9007H19.8227V19.9573Z" fill="#398A47"/>
<path d="M20.7693 19.9573H19.8228V20.9007H20.7693V19.9573Z" fill="#0A5B22"/>
<path d="M21.7158 19.9573H20.7693V20.9007H21.7158V19.9573Z" fill="#2D7B44"/>
<path d="M22.6684 19.9573H21.7219V20.9007H22.6684V19.9573Z" fill="#226433"/>
<path d="M23.615 19.9573H22.6685V20.9007H23.615V19.9573Z" fill="#39794A"/>
<path d="M24.5615 19.9573H23.615V20.9007H24.5615V19.9573Z" fill="#1F4D1C"/>
<path d="M25.5141 19.9573H24.5676V20.9007H25.5141V19.9573Z" fill="#507F4D"/>
<path d="M26.4607 19.9573H25.5142V20.9007H26.4607V19.9573Z" fill="#2C411E"/>
<path d="M27.4133 19.9573H26.4668V20.9007H27.4133V19.9573Z" fill="#5B7350"/>
<path d="M28.3596 19.9573H27.4131V20.9007H28.3596V19.9573Z" fill="#050602"/>
<path d="M29.3122 19.9573H28.3657V20.9007H29.3122V19.9573Z" fill="#675D5C"/>
<path d="M30.2648 19.9573H29.3123V20.9007H30.2648V19.9573Z" fill="#675E66"/>
<path d="M31.2114 19.9573H30.2649V20.9007H31.2114V19.9573Z" fill="#6D656B"/>
<path d="M32.1579 19.9573H31.2114V20.9007H32.1579V19.9573Z" fill="#04000D"/>
<path d="M33.1106 19.9573H32.1641V20.9007H33.1106V19.9573Z" fill="#CDD2AD"/>
<path d="M34.0571 19.9573H33.1106V20.9007H34.0571V19.9573Z" fill="#D7D8EA"/>
<path d="M35.0037 19.9573H34.0571V20.9007H35.0037V19.9573Z" fill="#F7F8FF"/>
<path d="M35.9563 19.9573H35.0098V20.9007H35.9563V19.9573Z" fill="#F8F8F8"/>
<path d="M36.9026 19.9573H35.9561V20.9007H36.9026V19.9573Z" fill="#666666"/>
<path d="M37.8552 19.9573H36.9087V20.9007H37.8552V19.9573Z" fill="#707070"/>
<path d="M38.8017 19.9573H37.8552V20.9007H38.8017V19.9573Z" fill="#707070"/>
<path d="M39.7544 19.9573H38.8079V20.9007H39.7544V19.9573Z" fill="#CACACA"/>
<path d="M40.7009 19.9573H39.7544V20.9007H40.7009V19.9573Z" fill="#BFBFBF"/>
<path d="M41.6536 19.9573H40.707V20.9007H41.6536V19.9573Z" fill="#777777"/>
<path d="M42.6001 19.9573H41.6536V20.9007H42.6001V19.9573Z" fill="#535353"/>
<path d="M43.5527 19.9573H42.6062V20.9007H43.5527V19.9573Z" fill="black"/>
<path d="M15.0781 20.9067H14.1316V21.8501H15.0781V20.9067Z" fill="#000209"/>
<path d="M16.0246 20.9067H15.0781V21.8501H16.0246V20.9067Z" fill="#CBD2DA"/>
<path d="M16.9773 20.9067H16.0308V21.8501H16.9773V20.9067Z" fill="#8DF6C4"/>
<path d="M17.9238 20.9067H16.9773V21.8501H17.9238V20.9067Z" fill="#73DAAA"/>
<path d="M18.8762 20.9067H17.9297V21.8501H18.8762V20.9067Z" fill="#AAFBB8"/>
<path d="M19.8227 20.9067H18.8762V21.8501H19.8227V20.9067Z" fill="#075816"/>
<path d="M20.7693 20.9067H19.8228V21.8501H20.7693V20.9067Z" fill="#35844C"/>
<path d="M21.7158 20.9067H20.7693V21.8501H21.7158V20.9067Z" fill="#0C5A21"/>
<path d="M22.6684 20.9067H21.7219V21.8501H22.6684V20.9067Z" fill="#347745"/>
<path d="M23.615 20.9067H22.6685V21.8501H23.615V20.9067Z" fill="#175827"/>
<path d="M24.5676 20.9067H23.6211V21.8501H24.5676V20.9067Z" fill="#4D7A48"/>
<path d="M25.5141 20.9067H24.5676V21.8501H25.5141V20.9067Z" fill="#22501E"/>
<path d="M26.4668 20.9067H25.5203V21.8501H26.4668V20.9067Z" fill="#586E49"/>
<path d="M27.4133 20.9067H26.4668V21.8501H27.4133V20.9067Z" fill="#364D29"/>
<path d="M28.3657 20.9067H27.4192V21.8501H28.3657V20.9067Z" fill="#050602"/>
<path d="M29.3122 20.9067H28.3657V21.8501H29.3122V20.9067Z" fill="#FEFCF0"/>
<path d="M30.2709 20.9067H29.3184V21.8501H30.2709V20.9067Z" fill="#FFF9EE"/>
<path d="M31.2114 20.9067H30.2649V21.8501H31.2114V20.9067Z" fill="#FEFCF0"/>
<path d="M32.1579 20.9067H31.2114V21.8501H32.1579V20.9067Z" fill="#04000D"/>
<path d="M33.1106 20.9067H32.1641V21.8501H33.1106V20.9067Z" fill="#CECFDC"/>
<path d="M34.0571 20.9067H33.1106V21.8501H34.0571V20.9067Z" fill="#BAC8C5"/>
<path d="M35.0098 20.9067H34.0632V21.8501H35.0098V20.9067Z" fill="#C8D6D3"/>
<path d="M35.9563 20.9067H35.0098V21.8501H35.9563V20.9067Z" fill="#D1D1D1"/>
<path d="M36.9087 20.9067H35.9622V21.8501H36.9087V20.9067Z" fill="#F5F5F5"/>
<path d="M37.8552 20.9067H36.9087V21.8501H37.8552V20.9067Z" fill="#FCFCFC"/>
<path d="M38.8079 20.9067H37.8613V21.8501H38.8079V20.9067Z" fill="#D0D0D0"/>
<path d="M39.7544 20.9067H38.8079V21.8501H39.7544V20.9067Z" fill="#676767"/>
<path d="M40.707 20.9067H39.7605V21.8501H40.707V20.9067Z" fill="#6B6B6B"/>
<path d="M41.6536 20.9067H40.707V21.8501H41.6536V20.9067Z" fill="#686868"/>
<path d="M42.6062 20.9067H41.6597V21.8501H42.6062V20.9067Z" fill="#6B6B6B"/>
<path d="M43.5527 20.9067H42.6062V21.8501H43.5527V20.9067Z" fill="black"/>
<path d="M15.072 21.8501H14.1255V22.7935H15.072V21.8501Z" fill="#000209"/>
<path d="M16.0246 21.8501H15.0781V22.7935H16.0246V21.8501Z" fill="#D3DAE2"/>
<path d="M16.9712 21.8501H16.0247V22.7935H16.9712V21.8501Z" fill="#61CB99"/>
<path d="M17.9238 21.8501H16.9773V22.7935H17.9238V21.8501Z" fill="#85EDBB"/>
<path d="M18.8704 21.8501H17.9238V22.7935H18.8704V21.8501Z" fill="#025310"/>
<path d="M19.8227 21.8501H18.8762V22.7935H19.8227V21.8501Z" fill="#398A47"/>
<path d="M20.7693 21.8501H19.8228V22.7935H20.7693V21.8501Z" fill="#0A5B22"/>
<path d="M21.7158 21.8501H20.7693V22.7935H21.7158V21.8501Z" fill="#2D7B44"/>
<path d="M22.6684 21.8501H21.7219V22.7935H22.6684V21.8501Z" fill="#226433"/>
<path d="M23.615 21.8501H22.6685V22.7935H23.615V21.8501Z" fill="#39794A"/>
<path d="M24.5615 21.8501H23.615V22.7935H24.5615V21.8501Z" fill="#1F4D1C"/>
<path d="M25.5141 21.8501H24.5676V22.7935H25.5141V21.8501Z" fill="#507F4D"/>
<path d="M26.4607 21.8501H25.5142V22.7935H26.4607V21.8501Z" fill="#2C411E"/>
<path d="M27.4133 21.8501H26.4668V22.7935H27.4133V21.8501Z" fill="#5B7350"/>
<path d="M28.3596 21.8501H27.4131V22.7935H28.3596V21.8501Z" fill="#050602"/>
<path d="M29.3122 21.8501H28.3657V22.7935H29.3122V21.8501Z" fill="#FAF1F2"/>
<path d="M30.2648 21.8501H29.3123V22.7935H30.2648V21.8501Z" fill="#FFF9EE"/>
<path d="M31.2114 21.8501H30.2649V22.7935H31.2114V21.8501Z" fill="#FFFFF3"/>
<path d="M32.1579 21.8501H31.2114V22.7935H32.1579V21.8501Z" fill="#04000D"/>
<path d="M33.1106 21.8501H32.1641V22.7935H33.1106V21.8501Z" fill="#C5C6D3"/>
<path d="M34.0571 21.8501H33.1106V22.7935H34.0571V21.8501Z" fill="#CCDAD7"/>
<path d="M35.0037 21.8501H34.0571V22.7935H35.0037V21.8501Z" fill="#BCCAC7"/>
<path d="M35.9563 21.8501H35.0098V22.7935H35.9563V21.8501Z" fill="#C8C8C8"/>
<path d="M36.9026 21.8501H35.9561V22.7935H36.9026V21.8501Z" fill="#D2D2D2"/>
<path d="M37.8552 21.8501H36.9087V22.7935H37.8552V21.8501Z" fill="#C5C5C5"/>
<path d="M38.8017 21.8501H37.8552V22.7935H38.8017V21.8501Z" fill="#686868"/>
<path d="M39.7544 21.8501H38.8079V22.7935H39.7544V21.8501Z" fill="#646464"/>
<path d="M40.7009 21.8501H39.7544V22.7935H40.7009V21.8501Z" fill="#5D5D5D"/>
<path d="M41.6536 21.8501H40.707V22.7935H41.6536V21.8501Z" fill="#686868"/>
<path d="M42.6001 21.8501H41.6536V22.7935H42.6001V21.8501Z" fill="#676767"/>
<path d="M43.5527 21.8501H42.6062V22.7935H43.5527V21.8501Z" fill="black"/>
<path d="M16.9712 22.7935H16.0247V23.7368H16.9712V22.7935Z" fill="#050602"/>
<path d="M17.9177 22.7935H16.9712V23.7368H17.9177V22.7935Z" fill="#050602"/>
<path d="M18.8704 22.7935H17.9238V23.7368H18.8704V22.7935Z" fill="#050602"/>
<path d="M19.8169 22.7935H18.8704V23.7368H19.8169V22.7935Z" fill="#050602"/>
<path d="M20.7632 22.7935H19.8167V23.7368H20.7632V22.7935Z" fill="#050602"/>
<path d="M21.7158 22.7935H20.7693V23.7368H21.7158V22.7935Z" fill="#050602"/>
<path d="M22.6623 22.7935H21.7158V23.7368H22.6623V22.7935Z" fill="#050602"/>
<path d="M23.6089 22.7935H22.6624V23.7368H23.6089V22.7935Z" fill="#050602"/>
<path d="M24.5615 22.7935H23.615V23.7368H24.5615V22.7935Z" fill="#050602"/>
<path d="M25.508 22.7935H24.5615V23.7368H25.508V22.7935Z" fill="#050602"/>
<path d="M26.4607 22.7935H25.5142V23.7368H26.4607V22.7935Z" fill="#050602"/>
<path d="M27.4072 22.7935H26.4607V23.7368H27.4072V22.7935Z" fill="#050602"/>
<path d="M28.3596 22.7935H27.4131V23.7368H28.3596V22.7935Z" fill="#050602"/>
<path d="M29.3061 22.7935H28.3596V23.7368H29.3061V22.7935Z" fill="#050602"/>
<path d="M30.2648 22.7935H29.3123V23.7368H30.2648V22.7935Z" fill="#050602"/>
<path d="M31.2114 22.7935H30.2649V23.7368H31.2114V22.7935Z" fill="#FAF1F2"/>
<path d="M32.1579 22.7935H31.2114V23.7368H32.1579V22.7935Z" fill="#04000D"/>
<path d="M33.1106 22.7935H32.1641V23.7368H33.1106V22.7935Z" fill="#CECDCF"/>
<path d="M34.0571 22.7935H33.1106V23.7368H34.0571V22.7935Z" fill="#C9D2B6"/>
<path d="M35.0098 22.7935H34.0632V23.7368H35.0098V22.7935Z" fill="#CED7BB"/>
<path d="M35.9563 22.7935H35.0098V23.7368H35.9563V22.7935Z" fill="#E1C5CE"/>
<path d="M36.9087 22.7935H35.9622V23.7368H36.9087V22.7935Z" fill="#DABEC7"/>
<path d="M37.8552 22.7935H36.9087V23.7368H37.8552V22.7935Z" fill="#DDC9D1"/>
<path d="M38.8079 22.7935H37.8613V23.7368H38.8079V22.7935Z" fill="#735E65"/>
<path d="M39.7544 22.7935H38.8079V23.7368H39.7544V22.7935Z" fill="#73686C"/>
<path d="M40.707 22.7935H39.7605V23.7368H40.707V22.7935Z" fill="#6A5F63"/>
<path d="M41.6536 22.7935H40.707V23.7368H41.6536V22.7935Z" fill="#656363"/>
<path d="M42.6062 22.7935H41.6597V23.7368H42.6062V22.7935Z" fill="#666465"/>
<path d="M43.5527 22.7935H42.6062V23.7368H43.5527V22.7935Z" fill="black"/>
<path d="M16.9712 23.7429H16.0247V24.6863H16.9712V23.7429Z" fill="#050602"/>
<path d="M17.9177 23.7429H16.9712V24.6863H17.9177V23.7429Z" fill="#050602"/>
<path d="M18.8704 23.7429H17.9238V24.6863H18.8704V23.7429Z" fill="#050602"/>
<path d="M19.8169 23.7429H18.8704V24.6863H19.8169V23.7429Z" fill="#050602"/>
<path d="M20.7632 23.7429H19.8167V24.6863H20.7632V23.7429Z" fill="#050602"/>
<path d="M21.7158 23.7429H20.7693V24.6863H21.7158V23.7429Z" fill="white"/>
<path d="M22.6623 23.7429H21.7158V24.6863H22.6623V23.7429Z" fill="#F5F3F3"/>
<path d="M23.6089 23.7429H22.6624V24.6863H23.6089V23.7429Z" fill="#FFFEFE"/>
<path d="M24.5615 23.7429H23.615V24.6863H24.5615V23.7429Z" fill="#FFF9FF"/>
<path d="M25.508 23.7429H24.5615V24.6863H25.508V23.7429Z" fill="#FEF1FF"/>
<path d="M26.4607 23.7429H25.5142V24.6863H26.4607V23.7429Z" fill="white"/>
<path d="M27.4072 23.7429H26.4607V24.6863H27.4072V23.7429Z" fill="#F5F3F3"/>
<path d="M28.3596 23.7429H27.4131V24.6863H28.3596V23.7429Z" fill="#FFFEFE"/>
<path d="M29.3061 23.7429H28.3596V24.6863H29.3061V23.7429Z" fill="#FEF1FF"/>
<path d="M30.2648 23.7429H29.3123V24.6863H30.2648V23.7429Z" fill="#6D6667"/>
<path d="M31.2114 23.7429H30.2649V24.6863H31.2114V23.7429Z" fill="#130D0D"/>
<path d="M32.1579 23.7429H31.2114V24.6863H32.1579V23.7429Z" fill="#FBFAFC"/>
<path d="M33.1106 23.7429H32.1641V24.6863H33.1106V23.7429Z" fill="#04000D"/>
<path d="M34.0571 23.7429H33.1106V24.6863H34.0571V23.7429Z" fill="#04000D"/>
<path d="M35.0098 23.7429H34.0632V24.6863H35.0098V23.7429Z" fill="#BEC7AB"/>
<path d="M35.9563 23.7429H35.0098V24.6863H35.9563V23.7429Z" fill="#E1C5CE"/>
<path d="M36.9087 23.7429H35.9622V24.6863H36.9087V23.7429Z" fill="#5B4049"/>
<path d="M37.8552 23.7429H36.9087V24.6863H37.8552V23.7429Z" fill="#D8C4CB"/>
<path d="M38.8079 23.7429H37.8613V24.6863H38.8079V23.7429Z" fill="#6B565D"/>
<path d="M39.7544 23.7429H38.8079V24.6863H39.7544V23.7429Z" fill="#695E61"/>
<path d="M40.707 23.7429H39.7605V24.6863H40.707V23.7429Z" fill="#706569"/>
<path d="M41.6536 23.7429H40.707V24.6863H41.6536V23.7429Z" fill="#04000D"/>
<path d="M42.6062 23.7429H41.6597V24.6863H42.6062V23.7429Z" fill="#04000D"/>
<path d="M43.5527 23.7429H42.6062V24.6863H43.5527V23.7429Z" fill="#707473"/>
<path d="M22.6623 24.6863H21.7158V25.6297H22.6623V24.6863Z" fill="#D0C6DA"/>
<path d="M23.6089 24.6863H22.6624V25.6297H23.6089V24.6863Z" fill="#D0C6DB"/>
<path d="M24.5615 24.6863H23.615V25.6297H24.5615V24.6863Z" fill="#CDC1C9"/>
<path d="M25.508 24.6863H24.5615V25.6297H25.508V24.6863Z" fill="#C6BAC1"/>
<path d="M18.8642 24.6863H17.9177V25.6297H18.8642V24.6863Z" fill="#D0C6DA"/>
<path d="M19.8169 24.6863H18.8704V25.6297H19.8169V24.6863Z" fill="#D0C6DB"/>
<path d="M20.7632 24.6863H19.8167V25.6297H20.7632V24.6863Z" fill="#CDC1C9"/>
<path d="M21.7158 24.6863H20.7693V25.6297H21.7158V24.6863Z" fill="#C6BAC1"/>
<path d="M16.0185 24.6863H15.072V25.6297H16.0185V24.6863Z" fill="white"/>
<path d="M16.9712 24.6863H16.0247V25.6297H16.9712V24.6863Z" fill="#F5F3F3"/>
<path d="M17.9177 24.6863H16.9712V25.6297H17.9177V24.6863Z" fill="#FFFEFE"/>
<path d="M27.4133 24.6863H26.4668V25.6297H27.4133V24.6863Z" fill="#D0C6DA"/>
<path d="M28.3657 24.6863H27.4192V25.6297H28.3657V24.6863Z" fill="#D0C6DB"/>
<path d="M29.3122 24.6863H28.3657V25.6297H29.3122V24.6863Z" fill="#CDC1C9"/>
<path d="M30.2649 24.6863H29.3184V25.6297H30.2649V24.6863Z" fill="#C6BAC1"/>
<path d="M26.4668 24.6863H25.5203V25.6297H26.4668V24.6863Z" fill="#6D6667"/>
<path d="M28.3596 25.6357H27.4131V26.5791H28.3596V25.6357Z" fill="#DACDD7"/>
<path d="M29.3061 25.6357H28.3596V26.5791H29.3061V25.6357Z" fill="#645460"/>
<path d="M30.2588 25.6357H29.3123V26.5791H30.2588V25.6357Z" fill="#77716B"/>
<path d="M16.0185 25.6357H15.072V26.5791H16.0185V25.6357Z" fill="#050602"/>
<path d="M16.9712 25.6357H16.0247V26.5791H16.9712V25.6357Z" fill="#050602"/>
<path d="M17.9177 25.6357H16.9712V26.5791H17.9177V25.6357Z" fill="#050602"/>
<path d="M18.8704 25.6357H17.9238V26.5791H18.8704V25.6357Z" fill="#050602"/>
<path d="M19.8169 25.6357H18.8704V26.5791H19.8169V25.6357Z" fill="#050602"/>
<path d="M20.7632 25.6357H19.8167V26.5791H20.7632V25.6357Z" fill="white"/>
<path d="M21.7158 25.6357H20.7693V26.5791H21.7158V25.6357Z" fill="#F5F3F3"/>
<path d="M22.6623 25.6357H21.7158V26.5791H22.6623V25.6357Z" fill="#FFFEFE"/>
<path d="M23.6089 25.6357H22.6624V26.5791H23.6089V25.6357Z" fill="#FFF9FF"/>
<path d="M24.5615 25.6357H23.615V26.5791H24.5615V25.6357Z" fill="#FEF1FF"/>
<path d="M25.508 25.6357H24.5615V26.5791H25.508V25.6357Z" fill="white"/>
<path d="M26.4607 25.6357H25.5142V26.5791H26.4607V25.6357Z" fill="#F5F3F3"/>
<path d="M27.4072 25.6357H26.4607V26.5791H27.4072V25.6357Z" fill="#FFFEFE"/>
<path d="M28.3596 25.6357H27.4131V26.5791H28.3596V25.6357Z" fill="#FEF1FF"/>
<path d="M29.3122 25.6357H28.3596V26.5791H29.3122V25.6357Z" fill="#6D6667"/>
<path d="M30.2649 25.6357H29.3184V26.5791H30.2649V25.6357Z" fill="#130D0D"/>
<path d="M31.2053 24.6863H30.2649V25.6297H31.2053V24.6863Z" fill="#060000"/>
<path d="M31.2053 25.6357H30.2588V26.5791H31.2053V25.6357Z" fill="#060000"/>
<path d="M31.2114 25.6357H30.2649V26.5791H31.2114V25.6357Z" fill="#060000"/>
<path d="M22.6623 26.5791H21.7158V27.5225H22.6623V26.5791Z" fill="#FFF8FF"/>
<path d="M23.6089 26.5791H22.6624V27.5225H23.6089V26.5791Z" fill="#CABDD7"/>
<path d="M24.5615 26.5791H23.615V27.5225H24.5615V26.5791Z" fill="#CDC1C9"/>
<path d="M25.508 26.5791H24.5615V27.5225H25.508V26.5791Z" fill="#C6BAC1"/>
<path d="M18.8642 26.5791H17.9177V27.5225H18.8642V26.5791Z" fill="#0E0D01"/>
<path d="M19.8169 26.5791H18.8704V27.5225H19.8169V26.5791Z" fill="#D0C6DB"/>
<path d="M20.7632 26.5791H19.8167V27.5225H20.7632V26.5791Z" fill="#CDC1C9"/>
<path d="M21.7158 26.5791H20.7693V27.5225H21.7158V26.5791Z" fill="#111701"/>
<path d="M17.9177 26.5791H16.9712V27.5225H17.9177V26.5791Z" fill="#0E0D01"/>
<path d="M27.4133 26.5791H26.4668V27.5225H27.4133V26.5791Z" fill="#FFFBFC"/>
<path d="M28.3657 26.5791H27.4192V27.5225H28.3657V26.5791Z" fill="#D0C6DB"/>
<path d="M29.3122 26.5791H28.3657V27.5225H29.3122V26.5791Z" fill="#CDC1C9"/>
<path d="M30.2649 26.5791H29.3184V27.5225H30.2649V26.5791Z" fill="#C6BAC1"/>
<path d="M26.4668 26.5791H25.5203V27.5225H26.4668V26.5791Z" fill="#FFFBFC"/>
<path d="M31.2053 26.5791H30.2649V27.5225H31.2053V26.5791Z" fill="#060000"/>
<path d="M31.2053 30.4253H30.2588V31.3687H31.2053V30.4253Z" fill="#020002"/>
<path d="M17.9238 30.4253H16.9773V31.3687H17.9238V30.4253Z" fill="black"/>
<path d="M18.8704 30.4253H17.9238V31.3687H18.8704V30.4253Z" fill="#CDC1C9"/>
<path d="M19.8227 30.4253H18.8762V31.3687H19.8227V30.4253Z" fill="#D0C6DB"/>
<path d="M20.7693 30.4253H19.8228V31.3687H20.7693V30.4253Z" fill="#D0C6DB"/>
<path d="M21.7219 30.4253H20.7754V31.3687H21.7219V30.4253Z" fill="#D0C6DB"/>
<path d="M22.6684 30.4253H21.7219V31.3687H22.6684V30.4253Z" fill="#D0C6DB"/>
<path d="M23.615 30.4253H22.6685V31.3687H23.615V30.4253Z" fill="#CDC1C9"/>
<path d="M24.5615 30.4253H23.615V31.3687H24.5615V30.4253Z" fill="#D0C6DA"/>
<path d="M25.5141 30.4253H24.5676V31.3687H25.5141V30.4253Z" fill="#CDC1C9"/>
<path d="M26.4607 30.4253H25.5142V31.3687H26.4607V30.4253Z" fill="#CDC1C9"/>
<path d="M27.4133 30.4253H26.4668V31.3687H27.4133V30.4253Z" fill="#D0C6DB"/>
<path d="M28.3596 30.4253H27.4131V31.3687H28.3596V30.4253Z" fill="#FDEDFF"/>
<path d="M29.3122 30.4253H28.3657V31.3687H29.3122V30.4253Z" fill="#BCBABC"/>
<path d="M30.2588 30.4253H29.3123V31.3687H30.2588V30.4253Z" fill="#706C6F"/>
<path d="M31.2114 29.488H30.2649V30.4314H31.2114V29.488Z" fill="#020002"/>
<path d="M17.9177 29.4758H16.9712V30.4192H17.9177V29.4758Z" fill="black"/>
<path d="M18.8704 29.4758H17.9238V30.4192H18.8704V29.4758Z" fill="#D2C8CE"/>
<path d="M19.8169 29.4758H18.8704V30.4192H19.8169V29.4758Z" fill="#FEF5F0"/>
<path d="M20.7693 29.4758H19.8228V30.4192H20.7693V29.4758Z" fill="#FFF2FF"/>
<path d="M21.7158 29.4758H20.7693V30.4192H21.7158V29.4758Z" fill="#FFF6FF"/>
<path d="M22.6684 29.4758H21.7219V30.4192H22.6684V29.4758Z" fill="#FEF5F0"/>
<path d="M23.6089 29.4758H22.6624V30.4192H23.6089V29.4758Z" fill="#FFFEF8"/>
<path d="M24.5615 29.4758H23.615V30.4192H24.5615V29.4758Z" fill="#F8EBFE"/>
<path d="M25.508 29.4758H24.5615V30.4192H25.508V29.4758Z" fill="#FFFAFF"/>
<path d="M26.4607 29.4758H25.5142V30.4192H26.4607V29.4758Z" fill="#FFF8FF"/>
<path d="M27.4072 29.4758H26.4607V30.4192H27.4072V29.4758Z" fill="#FDEDFF"/>
<path d="M28.3596 29.4758H27.4131V30.4192H28.3596V29.4758Z" fill="#D9D2CD"/>
<path d="M29.3061 29.4758H28.3596V30.4192H29.3061V29.4758Z" fill="#6B6561"/>
<path d="M30.2588 29.4758H29.3123V30.4192H30.2588V29.4758Z" fill="#625E61"/>
<path d="M17.9238 28.5325H16.9773V29.4759H17.9238V28.5325Z" fill="black"/>
<path d="M18.8704 28.5325H17.9238V29.4759H18.8704V28.5325Z" fill="#CDC1C9"/>
<path d="M19.8227 28.5325H18.8762V29.4759H19.8227V28.5325Z" fill="#FFFEFE"/>
<path d="M20.7693 28.5325H19.8228V29.4759H20.7693V28.5325Z" fill="#D0C6DB"/>
<path d="M21.7219 28.5325H20.7754V29.4759H21.7219V28.5325Z" fill="#D0C6DB"/>
<path d="M22.6684 28.5325H21.7219V29.4759H22.6684V28.5325Z" fill="#D0C6DB"/>
<path d="M23.615 28.5325H22.6685V29.4759H23.615V28.5325Z" fill="#CDC1C9"/>
<path d="M24.5615 28.5325H23.615V29.4759H24.5615V28.5325Z" fill="#D0C6DA"/>
<path d="M25.5141 28.5325H24.5676V29.4759H25.5141V28.5325Z" fill="#CDC1C9"/>
<path d="M26.4607 28.5325H25.5142V29.4759H26.4607V28.5325Z" fill="#CDC1C9"/>
<path d="M27.4133 28.5325H26.4668V29.4759H27.4133V28.5325Z" fill="#FDEDFF"/>
<path d="M28.3596 28.5325H27.4131V29.4759H28.3596V28.5325Z" fill="#FDEDFF"/>
<path d="M29.3122 28.5325H28.3657V29.4759H29.3122V28.5325Z" fill="#BCBABC"/>
<path d="M30.2588 28.5325H29.3123V29.4759H30.2588V28.5325Z" fill="#706C6F"/>
<path d="M31.2053 28.5386H30.2588V29.482H31.2053V28.5386Z" fill="#020002"/>
<path d="M28.3596 27.5286H27.4131V28.5324H28.3596V27.5286Z" fill="#DACDD7"/>
<path d="M29.3122 27.5286H28.3657V28.5324H29.3122V27.5286Z" fill="#645460"/>
<path d="M30.2588 27.5286H29.3123V28.5324H30.2588V27.5286Z" fill="#77716B"/>
<path d="M17.9238 27.5286H16.9773V28.5324H17.9238V27.5286Z" fill="#050602"/>
<path d="M18.8704 27.5286H17.9238V28.5324H18.8704V27.5286Z" fill="#FFF6FF"/>
<path d="M19.8169 27.5286H18.8704V28.5324H19.8169V27.5286Z" fill="#FFF2FF"/>
<path d="M20.7632 27.5286H19.8167V28.5324H20.7632V27.5286Z" fill="white"/>
<path d="M21.7158 27.5286H20.7693V28.5324H21.7158V27.5286Z" fill="#F5F3F3"/>
<path d="M22.6623 27.5286H21.7158V28.5324H22.6623V27.5286Z" fill="#FFFEFE"/>
<path d="M23.615 27.5286H22.6685V28.5324H23.615V27.5286Z" fill="#FFF9FF"/>
<path d="M24.5615 27.5286H23.615V28.5324H24.5615V27.5286Z" fill="#FEF1FF"/>
<path d="M25.5141 27.5286H24.5676V28.5324H25.5141V27.5286Z" fill="white"/>
<path d="M26.4607 27.5286H25.5142V28.5324H26.4607V27.5286Z" fill="#F5F3F3"/>
<path d="M27.4133 27.5286H26.4668V28.5324H27.4133V27.5286Z" fill="#FFFEFE"/>
<path d="M28.3596 27.5286H27.4131V28.5324H28.3596V27.5286Z" fill="#FEF1FF"/>
<path d="M29.3183 27.5286H28.3657V28.5324H29.3183V27.5286Z" fill="#6D6667"/>
<path d="M30.2649 27.5286H29.3184V28.5324H30.2649V27.5286Z" fill="#130D0D"/>
<path d="M31.2053 27.5286H30.2588V28.5324H31.2053V27.5286Z" fill="#060000"/>
<path d="M31.2114 27.5286H30.2649V28.5324H31.2114V27.5286Z" fill="#060000"/>
<path d="M35.0037 24.6863H34.0571V25.6297H35.0037V24.6863Z" fill="#0D0000"/>
<path d="M35.9563 24.6863H35.0098V25.6297H35.9563V24.6863Z" fill="#0D0000"/>
<path d="M36.9026 24.6863H35.9561V25.6297H36.9026V24.6863Z" fill="#E6D2D9"/>
<path d="M37.8552 24.6863H36.9087V25.6297H37.8552V24.6863Z" fill="#DBCBD1"/>
<path d="M38.8017 24.6863H37.8552V25.6297H38.8017V24.6863Z" fill="#6B5C62"/>
<path d="M39.7544 24.6863H38.8079V25.6297H39.7544V24.6863Z" fill="#0D0808"/>
<path d="M40.7009 24.6863H39.7544V25.6297H40.7009V24.6863Z" fill="#0D0808"/>
<path d="M36.9087 25.6357H35.9622V26.5791H36.9087V25.6357Z" fill="#0A0000"/>
<path d="M37.8552 25.6357H36.9087V26.5791H37.8552V25.6357Z" fill="#0A0000"/>
<path d="M38.8079 25.6357H37.8613V26.5791H38.8079V25.6357Z" fill="#0A0000"/>
<path d="M37.8552 26.4705H36.9087V27.5408H37.8552V26.4705Z" fill="#060002"/>
<path d="M37.8552 27.5408H36.9087V28.4842H37.8552V27.5408Z" fill="#060002"/>
<path d="M37.8552 28.4841H36.9087V29.4275H37.8552V28.4841Z" fill="#060002"/>
<path d="M37.8552 29.4336H36.9087V30.377H37.8552V29.4336Z" fill="#060002"/>
<path d="M37.8552 30.377H36.9087V31.3203H37.8552V30.377Z" fill="#060002"/>
<path d="M37.8552 31.3264H36.9087V32.2698H37.8552V31.3264Z" fill="#060002"/>
<path d="M36.9087 32.2698H35.9622V33.2132H36.9087V32.2698Z" fill="#060002"/>
<path d="M36.9087 33.2192H35.9622V34.1626H36.9087V33.2192Z" fill="#060002"/>
<path d="M33.1106 33.2615H32.1641V34.2049H33.1106V33.2615Z" fill="#060002"/>
<path d="M33.1106 34.2048H32.1641V35.1482H33.1106V34.2048Z" fill="#060002"/>
<path d="M33.1106 35.1543H32.1641V36.0977H33.1106V35.1543Z" fill="#060002"/>
<path d="M33.1106 36.0977H32.1641V37.041H33.1106V36.0977Z" fill="#060002"/>
<path d="M33.1106 37.0471H32.1641V37.9905H33.1106V37.0471Z" fill="#060002"/>
<path d="M32.1641 37.9905H31.2175V38.9339H32.1641V37.9905Z" fill="#060002"/>
<path d="M16.0246 37.9905H15.0781V38.9339H16.0246V37.9905Z" fill="black"/>
<path d="M16.0185 37.0471H15.072V37.9905H16.0185V37.0471Z" fill="black"/>
<path d="M16.0185 36.1038H15.072V37.0472H16.0185V36.1038Z" fill="black"/>
<path d="M16.0185 35.1543H15.072V36.0977H16.0185V35.1543Z" fill="black"/>
<path d="M16.0185 34.2109H15.072V35.1543H16.0185V34.2109Z" fill="black"/>
<path d="M16.9712 38.9341H16.0247V39.8775H16.9712V38.9341Z" fill="black"/>
<path d="M17.9238 38.9341H16.9773V39.8775H17.9238V38.9341Z" fill="black"/>
<path d="M18.8704 38.9341H17.9238V39.8775H18.8704V38.9341Z" fill="black"/>
<path d="M19.8227 38.9341H18.8762V39.8775H19.8227V38.9341Z" fill="black"/>
<path d="M20.7693 38.9341H19.8228V39.8775H20.7693V38.9341Z" fill="black"/>
<path d="M21.7219 38.9341H20.7754V39.8775H21.7219V38.9341Z" fill="black"/>
<path d="M22.6623 38.9341H21.7158V39.8775H22.6623V38.9341Z" fill="black"/>
<path d="M23.615 38.9341H22.6685V39.8775H23.615V38.9341Z" fill="black"/>
<path d="M24.5615 38.9341H23.615V39.8775H24.5615V38.9341Z" fill="black"/>
<path d="M25.5141 38.9341H24.5676V39.8775H25.5141V38.9341Z" fill="black"/>
<path d="M26.4607 38.9341H25.5142V39.8775H26.4607V38.9341Z" fill="black"/>
<path d="M27.4133 38.9341H26.4668V39.8775H27.4133V38.9341Z" fill="black"/>
<path d="M28.3596 38.9341H27.4131V39.8775H28.3596V38.9341Z" fill="black"/>
<path d="M29.3122 38.9341H28.3657V39.8775H29.3122V38.9341Z" fill="black"/>
<path d="M30.2588 38.9341H29.3123V39.8775H30.2588V38.9341Z" fill="black"/>
<path d="M31.2114 38.9341H30.2649V39.8775H31.2114V38.9341Z" fill="black"/>
<path d="M35.0098 34.1626H34.0632V35.106H35.0098V34.1626Z" fill="#060002"/>
<path d="M35.9563 34.1626H35.0098V35.106H35.9563V34.1626Z" fill="#060002"/>
<path d="M34.0571 35.1121H33.1106V36.0555H34.0571V35.1121Z" fill="#060002"/>
<path d="M7.47557 30.3528H6.52905V31.2962H7.47557V30.3528Z" fill="#120410"/>
<path d="M8.42821 30.3528H7.48169V31.2962H8.42821V30.3528Z" fill="#120410"/>
<path d="M9.37474 30.3528H8.42822V31.2962H9.37474V30.3528Z" fill="#120410"/>
<path d="M10.3213 30.3528H9.37476V31.2962H10.3213V30.3528Z" fill="#120410"/>
<path d="M11.2739 30.3528H10.3274V31.2962H11.2739V30.3528Z" fill="#120410"/>
<path d="M12.2202 30.3528H11.2737V31.2962H12.2202V30.3528Z" fill="#120410"/>
<path d="M13.1728 30.3528H12.2263V31.2962H13.1728V30.3528Z" fill="#120410"/>
<path d="M14.1194 30.3528H13.1729V31.2962H14.1194V30.3528Z" fill="#120410"/>
<path d="M15.072 30.3528H14.1255V31.2962H15.072V30.3528Z" fill="#120410"/>
<path d="M7.47557 29.4033H6.52905V30.3467H7.47557V29.4033Z" fill="#120410"/>
<path d="M8.42821 29.4033H7.48169V30.3467H8.42821V29.4033Z" fill="#5350EF"/>
<path d="M9.37474 29.4033H8.42822V30.3467H9.37474V29.4033Z" fill="#4E57F9"/>
<path d="M10.3213 29.4033H9.37476V30.3467H10.3213V29.4033Z" fill="#4E57F9"/>
<path d="M11.2739 29.4033H10.3274V30.3467H11.2739V29.4033Z" fill="#5350EF"/>
<path d="M12.2202 29.4033H11.2737V30.3467H12.2202V29.4033Z" fill="#5350EF"/>
<path d="M13.1728 29.4033H12.2263V30.3467H13.1728V29.4033Z" fill="#5350EF"/>
<path d="M14.1194 29.4033H13.1729V30.3467H14.1194V29.4033Z" fill="#4E57F9"/>
<path d="M15.072 29.4033H14.1255V30.3467H15.072V29.4033Z" fill="#120410"/>
<path d="M7.47557 28.46H6.52905V29.4034H7.47557V28.46Z" fill="#120410"/>
<path d="M8.42211 28.46H7.47559V29.4034H8.42211V28.46Z" fill="#120410"/>
<path d="M9.36864 28.46H8.42212V29.4034H9.36864V28.46Z" fill="#5350EF"/>
<path d="M10.3213 28.46H9.37476V29.4034H10.3213V28.46Z" fill="#5350EF"/>
<path d="M11.2678 28.46H10.3213V29.4034H11.2678V28.46Z" fill="#020266"/>
<path d="M12.2202 28.46H11.2737V29.4034H12.2202V28.46Z" fill="#020266"/>
<path d="M13.1667 28.46H12.2202V29.4034H13.1667V28.46Z" fill="#020266"/>
<path d="M14.1194 28.46H13.1729V29.4034H14.1194V28.46Z" fill="#4B53F7"/>
<path d="M15.0659 28.46H14.1194V29.4034H15.0659V28.46Z" fill="#5450FF"/>
<path d="M16.0185 28.46H15.072V29.4034H16.0185V28.46Z" fill="#070006"/>
<path d="M9.36864 27.5105H8.42212V28.4539H9.36864V27.5105Z" fill="#0A0000"/>
<path d="M10.3213 27.5105H9.37476V28.4539H10.3213V27.5105Z" fill="#4E57F9"/>
<path d="M11.2678 27.5105H10.3213V28.4539H11.2678V27.5105Z" fill="#0A0000"/>
<path d="M12.2202 27.5105H11.2737V28.4539H12.2202V27.5105Z" fill="#0A0000"/>
<path d="M13.1667 27.5105H12.2202V28.4539H13.1667V27.5105Z" fill="#0A0000"/>
<path d="M14.1194 27.5105H13.1729V28.4539H14.1194V27.5105Z" fill="#0A0000"/>
<path d="M15.0659 27.5105H14.1194V28.4539H15.0659V27.5105Z" fill="#5450FF"/>
<path d="M16.0185 27.5105H15.072V28.4539H16.0185V27.5105Z" fill="#070006"/>
<path d="M10.3213 26.5671H9.37476V27.5105H10.3213V26.5671Z" fill="#0A0000"/>
<path d="M11.2678 26.5671H10.3213V27.5105H11.2678V26.5671Z" fill="#5350EF"/>
<path d="M12.2202 26.5671H11.2737V27.5105H12.2202V26.5671Z" fill="#0A0000"/>
<path d="M15.0659 26.5671H14.1194V27.5105H15.0659V26.5671Z" fill="#0A0A01"/>
<path d="M16.0185 26.5671H15.072V27.5105H16.0185V26.5671Z" fill="#070006"/>
<path d="M11.2678 25.6177H10.3213V26.5611H11.2678V25.6177Z" fill="#0A0000"/>
<path d="M12.2202 25.6177H11.2737V26.5611H12.2202V25.6177Z" fill="#5350EF"/>
<path d="M13.1667 25.6177H12.2202V26.5611H13.1667V25.6177Z" fill="#0A0000"/>
<path d="M12.2202 24.6743H11.2737V25.6177H12.2202V24.6743Z" fill="#0A0000"/>
<path d="M13.1667 24.6743H12.2202V25.6177H13.1667V24.6743Z" fill="#7A95EA"/>
<path d="M14.1194 24.6743H13.1729V25.6177H14.1194V24.6743Z" fill="#0A0000"/>
<path d="M12.2202 23.7249H11.2737V24.6682H12.2202V23.7249Z" fill="#0A0000"/>
<path d="M13.1667 23.7249H12.2202V24.6682H13.1667V23.7249Z" fill="#7C88E8"/>
<path d="M14.1194 23.7249H13.1729V24.6682H14.1194V23.7249Z" fill="#020266"/>
<path d="M15.0659 23.7249H14.1194V24.6682H15.0659V23.7249Z" fill="#0A0000"/>
<path d="M12.2202 22.7815H11.2737V23.7249H12.2202V22.7815Z" fill="#0A0000"/>
<path d="M13.1667 22.7815H12.2202V23.7249H13.1667V22.7815Z" fill="#7673EF"/>
<path d="M14.1194 22.7815H13.1729V23.7249H14.1194V22.7815Z" fill="#5450FF"/>
<path d="M15.0659 22.7815H14.1194V23.7249H15.0659V22.7815Z" fill="#0A0000"/>
<path d="M12.2202 21.8381H11.2737V22.7815H12.2202V21.8381Z" fill="#0A0000"/>
<path d="M13.1667 21.8381H12.2202V22.7815H13.1667V21.8381Z" fill="#5350EF"/>
<path d="M14.1194 21.8381H13.1729V22.7815H14.1194V21.8381Z" fill="#5450FF"/>
<path d="M15.0659 21.8381H14.1194V22.7815H15.0659V21.8381Z" fill="#0A0000"/>
<path d="M12.2202 20.8887H11.2737V21.8321H12.2202V20.8887Z" fill="#5450FF"/>
<path d="M13.1667 20.8887H12.2202V21.8321H13.1667V20.8887Z" fill="#5D5DED"/>
<path d="M14.1194 20.8887H13.1729V21.8321H14.1194V20.8887Z" fill="#020B5E"/>
<path d="M15.0659 20.8887H14.1194V21.8321H15.0659V20.8887Z" fill="#0A0000"/>
<path d="M11.2678 20.8887H10.3213V21.8321H11.2678V20.8887Z" fill="#0A0000"/>
<path d="M10.3213 20.8887H9.37476V21.8321H10.3213V20.8887Z" fill="#0A0000"/>
<path d="M11.2678 19.9453H10.3213V20.8887H11.2678V19.9453Z" fill="#4B53F7"/>
<path d="M12.2202 19.9453H11.2737V20.8887H12.2202V19.9453Z" fill="#4B53F7"/>
<path d="M13.1667 19.9453H12.2202V20.8887H13.1667V19.9453Z" fill="#818DFC"/>
<path d="M14.1194 19.9453H13.1729V20.8887H14.1194V19.9453Z" fill="#0A0000"/>
<path d="M10.3213 19.9453H9.37476V20.8887H10.3213V19.9453Z" fill="#7888F9"/>
<path d="M9.36864 19.9453H8.42212V20.8887H9.36864V19.9453Z" fill="#0A0000"/>
<path d="M11.2678 18.9958H10.3213V19.9392H11.2678V18.9958Z" fill="#0A0000"/>
<path d="M12.2202 18.9958H11.2737V19.9392H12.2202V18.9958Z" fill="#0A0000"/>
<path d="M13.1667 18.9958H12.2202V19.9392H13.1667V18.9958Z" fill="#0A0000"/>
<path d="M10.3213 18.9958H9.37476V19.9392H10.3213V18.9958Z" fill="#0A0000"/>
<path d="M9.36864 20.8887H8.42212V21.8321H9.36864V20.8887Z" fill="#7888F9"/>
<path d="M8.42211 20.8887H7.47559V21.8321H8.42211V20.8887Z" fill="#0A0000"/>
<path d="M9.36864 21.8381H8.42212V22.7815H9.36864V21.8381Z" fill="#0A0000"/>
<path d="M8.42211 21.8381H7.47559V22.7815H8.42211V21.8381Z" fill="#0A0000"/>
<path d="M16.9712 30.3528H16.0247V31.2962H16.9712V30.3528Z" fill="#120410"/>
<path d="M17.9177 30.3528H16.9712V31.2962H17.9177V30.3528Z" fill="#120410"/>
<path d="M18.8642 30.3528H17.9177V31.2962H18.8642V30.3528Z" fill="#120410"/>
<path d="M19.8169 30.3528H18.8704V31.2962H19.8169V30.3528Z" fill="#120410"/>
<path d="M20.7632 30.3528H19.8167V31.2962H20.7632V30.3528Z" fill="#120410"/>
<path d="M21.7158 30.3528H20.7693V31.2962H21.7158V30.3528Z" fill="#120410"/>
<path d="M22.6623 30.3528H21.7158V31.2962H22.6623V30.3528Z" fill="#120410"/>
<path d="M23.615 30.3528H22.6685V31.2962H23.615V30.3528Z" fill="#120410"/>
<path d="M24.5615 30.3528H23.615V31.2962H24.5615V30.3528Z" fill="#120410"/>
<path d="M16.9712 29.4033H16.0247V30.3467H16.9712V29.4033Z" fill="#120410"/>
<path d="M17.9177 29.4033H16.9712V30.3467H17.9177V29.4033Z" fill="#5350EF"/>
<path d="M18.8642 29.4033H17.9177V30.3467H18.8642V29.4033Z" fill="#4E57F9"/>
<path d="M19.8169 29.4033H18.8704V30.3467H19.8169V29.4033Z" fill="#4E57F9"/>
<path d="M20.7632 29.4033H19.8167V30.3467H20.7632V29.4033Z" fill="#5350EF"/>
<path d="M21.7158 29.4033H20.7693V30.3467H21.7158V29.4033Z" fill="#5350EF"/>
<path d="M22.6623 29.4033H21.7158V30.3467H22.6623V29.4033Z" fill="#5350EF"/>
<path d="M23.615 29.4033H22.6685V30.3467H23.615V29.4033Z" fill="#4E57F9"/>
<path d="M24.5615 29.4033H23.615V30.3467H24.5615V29.4033Z" fill="#120410"/>
<path d="M16.9712 28.46H16.0247V29.4034H16.9712V28.46Z" fill="#120410"/>
<path d="M17.9177 28.46H16.9712V29.4034H17.9177V28.46Z" fill="#120410"/>
<path d="M18.8642 28.46H17.9177V29.4034H18.8642V28.46Z" fill="#5350EF"/>
<path d="M19.8108 28.46H18.8643V29.4034H19.8108V28.46Z" fill="#5350EF"/>
<path d="M20.7632 28.46H19.8167V29.4034H20.7632V28.46Z" fill="#020266"/>
<path d="M21.7097 28.46H20.7632V29.4034H21.7097V28.46Z" fill="#020266"/>
<path d="M22.6623 28.46H21.7158V29.4034H22.6623V28.46Z" fill="#020266"/>
<path d="M23.6089 28.46H22.6624V29.4034H23.6089V28.46Z" fill="#4B53F7"/>
<path d="M24.5615 28.46H23.615V29.4034H24.5615V28.46Z" fill="#5450FF"/>
<path d="M25.5141 28.46H24.5676V29.4034H25.5141V28.46Z" fill="#070006"/>
<path d="M18.8642 27.5105H17.9177V28.4539H18.8642V27.5105Z" fill="#0A0000"/>
<path d="M19.8108 27.5105H18.8643V28.4539H19.8108V27.5105Z" fill="#4E57F9"/>
<path d="M20.7632 27.5105H19.8167V28.4539H20.7632V27.5105Z" fill="#0A0000"/>
<path d="M21.7097 27.5105H20.7632V28.4539H21.7097V27.5105Z" fill="#0A0000"/>
<path d="M22.6623 27.5105H21.7158V28.4539H22.6623V27.5105Z" fill="#0A0000"/>
<path d="M23.6089 27.5105H22.6624V28.4539H23.6089V27.5105Z" fill="#0A0000"/>
<path d="M24.5615 27.5105H23.615V28.4539H24.5615V27.5105Z" fill="#5450FF"/>
<path d="M25.5141 27.5105H24.5676V28.4539H25.5141V27.5105Z" fill="#070006"/>
<path d="M19.8108 26.5671H18.8643V27.5105H19.8108V26.5671Z" fill="#0A0000"/>
<path d="M20.7632 26.5671H19.8167V27.5105H20.7632V26.5671Z" fill="#5350EF"/>
<path d="M21.7097 26.5671H20.7632V27.5105H21.7097V26.5671Z" fill="#0A0000"/>
<path d="M24.5615 26.5671H23.615V27.5105H24.5615V26.5671Z" fill="#0A0A01"/>
<path d="M25.5141 26.5671H24.5676V27.5105H25.5141V26.5671Z" fill="#070006"/>
<path d="M20.7632 25.6177H19.8167V26.5611H20.7632V25.6177Z" fill="#0A0000"/>
<path d="M21.7097 25.6177H20.7632V26.5611H21.7097V25.6177Z" fill="#5350EF"/>
<path d="M22.6623 25.6177H21.7158V26.5611H22.6623V25.6177Z" fill="#0A0000"/>
<path d="M21.7097 24.6743H20.7632V25.6177H21.7097V24.6743Z" fill="#0A0000"/>
<path d="M22.6623 24.6743H21.7158V25.6177H22.6623V24.6743Z" fill="#7A95EA"/>
<path d="M23.6089 24.6743H22.6624V25.6177H23.6089V24.6743Z" fill="#0A0000"/>
<path d="M21.7097 23.7249H20.7632V24.6682H21.7097V23.7249Z" fill="#0A0000"/>
<path d="M22.6623 23.7249H21.7158V24.6682H22.6623V23.7249Z" fill="#7C88E8"/>
<path d="M23.6089 23.7249H22.6624V24.6682H23.6089V23.7249Z" fill="#020266"/>
<path d="M24.5615 23.7249H23.615V24.6682H24.5615V23.7249Z" fill="#0A0000"/>
<path d="M21.7097 22.7815H20.7632V23.7249H21.7097V22.7815Z" fill="#0A0000"/>
<path d="M22.6623 22.7815H21.7158V23.7249H22.6623V22.7815Z" fill="#7673EF"/>
<path d="M23.6089 22.7815H22.6624V23.7249H23.6089V22.7815Z" fill="#5450FF"/>
<path d="M24.5615 22.7815H23.615V23.7249H24.5615V22.7815Z" fill="#0A0000"/>
<path d="M21.7097 21.8381H20.7632V22.7815H21.7097V21.8381Z" fill="#0A0000"/>
<path d="M22.6623 21.8381H21.7158V22.7815H22.6623V21.8381Z" fill="#5350EF"/>
<path d="M23.6089 21.8381H22.6624V22.7815H23.6089V21.8381Z" fill="#5450FF"/>
<path d="M24.5615 21.8381H23.615V22.7815H24.5615V21.8381Z" fill="#0A0000"/>
<path d="M21.7097 20.8887H20.7632V21.8321H21.7097V20.8887Z" fill="#5450FF"/>
<path d="M22.6623 20.8887H21.7158V21.8321H22.6623V20.8887Z" fill="#5D5DED"/>
<path d="M23.6089 20.8887H22.6624V21.8321H23.6089V20.8887Z" fill="#020B5E"/>
<path d="M24.5615 20.8887H23.615V21.8321H24.5615V20.8887Z" fill="#0A0000"/>
<path d="M20.7632 20.8887H19.8167V21.8321H20.7632V20.8887Z" fill="#0A0000"/>
<path d="M19.8108 20.8887H18.8643V21.8321H19.8108V20.8887Z" fill="#0A0000"/>
<path d="M20.7632 19.9453H19.8167V20.8887H20.7632V19.9453Z" fill="#4B53F7"/>
<path d="M21.7097 19.9453H20.7632V20.8887H21.7097V19.9453Z" fill="#4B53F7"/>
<path d="M22.6623 19.9453H21.7158V20.8887H22.6623V19.9453Z" fill="#818DFC"/>
<path d="M23.6089 19.9453H22.6624V20.8887H23.6089V19.9453Z" fill="#0A0000"/>
<path d="M19.8108 19.9453H18.8643V20.8887H19.8108V19.9453Z" fill="#7888F9"/>
<path d="M18.8642 19.9453H17.9177V20.8887H18.8642V19.9453Z" fill="#0A0000"/>
<path d="M20.7632 18.9958H19.8167V19.9392H20.7632V18.9958Z" fill="#0A0000"/>
<path d="M21.7097 18.9958H20.7632V19.9392H21.7097V18.9958Z" fill="#0A0000"/>
<path d="M22.6623 18.9958H21.7158V19.9392H22.6623V18.9958Z" fill="#0A0000"/>
<path d="M19.8108 18.9958H18.8643V19.9392H19.8108V18.9958Z" fill="#0A0000"/>
<path d="M18.8642 20.8887H17.9177V21.8321H18.8642V20.8887Z" fill="#7888F9"/>
<path d="M17.9116 20.8887H16.9651V21.8321H17.9116V20.8887Z" fill="#0A0000"/>
<path d="M18.8642 21.8381H17.9177V22.7815H18.8642V21.8381Z" fill="#0A0000"/>
<path d="M17.9116 21.8381H16.9651V22.7815H17.9116V21.8381Z" fill="#0A0000"/>
<path d="M30.1617 27.7283H29.3184V28.5689H30.1617V27.7283Z" fill="#120410"/>
<path d="M30.1617 26.8936H29.3184V27.7341H30.1617V26.8936Z" fill="#120410"/>
<path d="M30.1617 26.053H29.3184V26.8936H30.1617V26.053Z" fill="#120410"/>
<path d="M26.8004 25.2124H25.957V26.053H26.8004V25.2124Z" fill="#120410"/>
<path d="M26.8004 24.3779H25.957V25.2185H26.8004V24.3779Z" fill="#120410"/>
<path d="M30.1617 23.5374H29.3184V24.3779H30.1617V23.5374Z" fill="#120410"/>
<path d="M30.1617 22.6968H29.3184V23.5374H30.1617V22.6968Z" fill="#120410"/>
<path d="M30.1617 21.814H29.3184V22.6969H30.1617V21.814Z" fill="#120410"/>
<path d="M27.6378 23.5374H26.7944V24.3779H27.6378V23.5374Z" fill="#120410"/>
<path d="M28.4811 23.5374H27.6377V24.3779H28.4811V23.5374Z" fill="#120410"/>
<path d="M29.3243 23.5374H28.481V24.3779H29.3243V23.5374Z" fill="#120410"/>
<path d="M27.6378 26.053H26.7944V26.8936H27.6378V26.053Z" fill="#120410"/>
<path d="M28.4811 26.053H27.6377V26.8936H28.4811V26.053Z" fill="#120410"/>
<path d="M29.3243 26.053H28.481V26.8936H29.3243V26.053Z" fill="#120410"/>
<path d="M31.0052 20.187H30.1619V21.0276H31.0052V20.187Z" fill="#120410"/>
<path d="M31.8485 20.187H31.0051V21.0276H31.8485V20.187Z" fill="#120410"/>
<path d="M31.0052 29.4033H30.1619V30.2439H31.0052V29.4033Z" fill="#120410"/>
<path d="M31.8485 29.4033H31.0051V30.2439H31.8485V29.4033Z" fill="#120410"/>
<path d="M32.6859 27.7283H31.8425V28.5689H32.6859V27.7283Z" fill="#120410"/>
<path d="M32.6859 26.8936H31.8425V27.7341H32.6859V26.8936Z" fill="#120410"/>
<path d="M32.6859 26.053H31.8425V26.8936H32.6859V26.053Z" fill="#120410"/>
<path d="M32.6859 23.5374H31.8425V24.3779H32.6859V23.5374Z" fill="#120410"/>
<path d="M32.6859 22.7029H31.8425V23.5435H32.6859V22.7029Z" fill="#120410"/>
<path d="M32.6859 21.7957H31.8425V22.6967H32.6859V21.7957Z" fill="#120410"/>
<path d="M33.5292 23.5374H32.6858V24.3779H33.5292V23.5374Z" fill="#120410"/>
<path d="M34.3666 23.5374H33.5232V24.3779H34.3666V23.5374Z" fill="#120410"/>
<path d="M35.2098 23.5374H34.3665V24.3779H35.2098V23.5374Z" fill="#120410"/>
<path d="M33.5292 26.053H32.6858V26.8936H33.5292V26.053Z" fill="#120410"/>
<path d="M34.3666 26.053H33.5232V26.8936H34.3666V26.053Z" fill="#120410"/>
<path d="M35.2098 26.053H34.3665V26.8936H35.2098V26.053Z" fill="#120410"/>
<path d="M36.0533 25.2124H35.21V26.053H36.0533V25.2124Z" fill="#120410"/>
<path d="M36.0533 24.3779H35.21V25.2185H36.0533V24.3779Z" fill="#120410"/>
<path d="M30.1617 21.0217H29.3184V21.8623H30.1617V21.0217Z" fill="#120410"/>
<path d="M32.6859 21.0217H31.8425V21.8623H32.6859V21.0217Z" fill="#120410"/>
<path d="M30.1617 28.5627H29.3184V29.4033H30.1617V28.5627Z" fill="#120410"/>
<path d="M32.692 28.5688H31.8486V29.4094H32.692V28.5688Z" fill="#120410"/>
<path d="M31.0052 20.9854H30.1619V21.8259H31.0052V20.9854Z" fill="#4B57EF"/>
<path d="M31.8485 20.9854H31.0051V21.8259H31.8485V20.9854Z" fill="#7673EF"/>
<path d="M31.0052 28.5688H30.1619V29.4094H31.0052V28.5688Z" fill="#5D5DED"/>
<path d="M31.8485 28.5688H31.0051V29.4094H31.8485V28.5688Z" fill="#4B53F7"/>
<path d="M31.0052 22.6604H30.1619V23.501H31.0052V22.6604Z" fill="#5D5DED"/>
<path d="M31.8485 22.6604H31.0051V23.501H31.8485V22.6604Z" fill="#4E57F9"/>
<path d="M31.0052 21.8259H30.1619V22.6665H31.0052V21.8259Z" fill="#5450FF"/>
<path d="M31.8424 21.814H30.999V22.6606H31.8424V21.814Z" fill="#5450FF"/>
<path d="M31.0052 24.3779H30.1619V25.2185H31.0052V24.3779Z" fill="#5D5DED"/>
<path d="M31.8485 24.3779H31.0051V25.2004H31.8485V24.3779Z" fill="#4E57F9"/>
<path d="M31.0052 23.4951H30.1619V24.378H31.0052V23.4951Z" fill="#7888F9"/>
<path d="M31.8485 23.4951H31.0051V24.378H31.8485V23.4951Z" fill="#4E57F9"/>
<path d="M27.6378 25.2124H26.7944V26.053H27.6378V25.2124Z" fill="#5450FF"/>
<path d="M28.4811 25.2124H27.6377V26.053H28.4811V25.2124Z" fill="#5450FF"/>
<path d="M27.6378 24.3779H26.7944V25.2185H27.6378V24.3779Z" fill="#5D5DED"/>
<path d="M28.4811 24.3779H27.6377V25.2185H28.4811V24.3779Z" fill="#5450FF"/>
<path d="M31.8485 26.053H31.0051V26.8936H31.8485V26.053Z" fill="#4E57F9"/>
<path d="M31.8485 25.2004H31.0051V26.0531H31.8485V25.2004Z" fill="#5D5DED"/>
<path d="M32.6859 25.2004H31.8425V26.0531H32.6859V25.2004Z" fill="#7673EF"/>
<path d="M32.6858 24.3779H31.8303V25.2004H32.6858V24.3779Z" fill="#5450FF"/>
<path d="M31.0538 26.053H30.1619V26.8936H31.0538V26.053Z" fill="#7673EF"/>
<path d="M30.1678 25.2004H29.3245V26.0531H30.1678V25.2004Z" fill="#4B53F7"/>
<path d="M31.0052 25.2004H30.1619V26.0531H31.0052V25.2004Z" fill="#4B53F7"/>
<path d="M31.0538 26.8694H30.1619V27.71H31.0538V26.8694Z" fill="#5D5DED"/>
<path d="M31.8425 26.8694H31.0537V27.71H31.8425V26.8694Z" fill="#4E57F9"/>
<path d="M31.0052 27.698H30.1619V28.5809H31.0052V27.698Z" fill="#4B53F7"/>
<path d="M31.8485 27.698H31.0051V28.5809H31.8485V27.698Z" fill="#4E57F9"/>
<path d="M34.3666 24.3779H33.5232V25.2185H34.3666V24.3779Z" fill="#5450FF"/>
<path d="M33.5292 25.2004H32.6858V26.0531H33.5292V25.2004Z" fill="#7A95EA"/>
<path d="M34.3666 25.2004H33.5232V26.0531H34.3666V25.2004Z" fill="#7A95EA"/>
<path d="M33.5292 24.3779H32.6858V25.2004H33.5292V24.3779Z" fill="#5450FF"/>
<path d="M29.3183 25.2124H28.4507V26.053H29.3183V25.2124Z" fill="#5450FF"/>
<path d="M29.3183 24.3779H28.4507V25.2185H29.3183V24.3779Z" fill="#4B53F7"/>
<path d="M30.1678 24.3779H29.3245V25.2004H30.1678V24.3779Z" fill="#818DFC"/>
<path d="M35.2098 25.2004H34.3665V26.0531H35.2098V25.2004Z" fill="#7673EF"/>
<path d="M35.2098 24.3779H34.3665V25.2004H35.2098V24.3779Z" fill="#5D5DED"/>
<path d="M37.6489 29.875H36.7024V30.8184H37.6489V29.875Z" fill="#120410"/>
<path d="M38.6015 29.875H37.655V30.8184H38.6015V29.875Z" fill="#120410"/>
<path d="M39.542 29.875H38.5955V30.8184H39.542V29.875Z" fill="#120410"/>
<path d="M40.4946 29.875H39.5481V30.8184H40.4946V29.875Z" fill="#120410"/>
<path d="M41.4411 29.875H40.4946V30.8184H41.4411V29.875Z" fill="#120410"/>
<path d="M42.3938 29.875H41.4473V30.8184H42.3938V29.875Z" fill="#120410"/>
<path d="M43.3403 29.875H42.3938V30.8184H43.3403V29.875Z" fill="#120410"/>
<path d="M44.293 29.875H43.3464V30.8184H44.293V29.875Z" fill="#120410"/>
<path d="M45.2395 29.875H44.293V30.8184H45.2395V29.875Z" fill="#120410"/>
<path d="M37.6489 28.9316H36.7024V29.875H37.6489V28.9316Z" fill="#120410"/>
<path d="M38.6015 28.9316H37.655V29.875H38.6015V28.9316Z" fill="#5350EF"/>
<path d="M39.542 28.9316H38.5955V29.875H39.542V28.9316Z" fill="#4E57F9"/>
<path d="M40.4946 28.9316H39.5481V29.875H40.4946V28.9316Z" fill="#4E57F9"/>
<path d="M41.4411 28.9316H40.4946V29.875H41.4411V28.9316Z" fill="#5350EF"/>
<path d="M42.3938 28.9316H41.4473V29.875H42.3938V28.9316Z" fill="#5350EF"/>
<path d="M43.3403 28.9316H42.3938V29.875H43.3403V28.9316Z" fill="#5350EF"/>
<path d="M44.293 28.9316H43.3464V29.875H44.293V28.9316Z" fill="#4E57F9"/>
<path d="M45.2395 28.9316H44.293V29.875H45.2395V28.9316Z" fill="#120410"/>
<path d="M37.6489 27.9822H36.7024V28.9256H37.6489V27.9822Z" fill="#120410"/>
<path d="M38.5954 27.9822H37.6489V28.9256H38.5954V27.9822Z" fill="#120410"/>
<path d="M39.542 27.9822H38.5955V28.9256H39.542V27.9822Z" fill="#5350EF"/>
<path d="M40.4885 27.9822H39.542V28.9256H40.4885V27.9822Z" fill="#5350EF"/>
<path d="M41.4411 27.9822H40.4946V28.9256H41.4411V27.9822Z" fill="#020266"/>
<path d="M42.3877 27.9822H41.4412V28.9256H42.3877V27.9822Z" fill="#020266"/>
<path d="M43.3403 27.9822H42.3938V28.9256H43.3403V27.9822Z" fill="#020266"/>
<path d="M44.2869 27.9822H43.3403V28.9256H44.2869V27.9822Z" fill="#4B53F7"/>
<path d="M45.2395 27.9822H44.293V28.9256H45.2395V27.9822Z" fill="#5450FF"/>
<path d="M46.1919 27.9822H45.2454V28.9256H46.1919V27.9822Z" fill="#070006"/>
<path d="M39.542 27.0388H38.5955V27.9822H39.542V27.0388Z" fill="#0A0000"/>
<path d="M40.4885 27.0388H39.542V27.9822H40.4885V27.0388Z" fill="#4E57F9"/>
<path d="M41.4411 27.0388H40.4946V27.9822H41.4411V27.0388Z" fill="#0A0000"/>
<path d="M42.3877 27.0388H41.4412V27.9822H42.3877V27.0388Z" fill="#0A0000"/>
<path d="M43.3403 27.0388H42.3938V27.9822H43.3403V27.0388Z" fill="#0A0000"/>
<path d="M44.2869 27.0388H43.3403V27.9822H44.2869V27.0388Z" fill="#0A0000"/>
<path d="M45.2395 27.0388H44.293V27.9822H45.2395V27.0388Z" fill="#5450FF"/>
<path d="M46.1919 27.0388H45.2454V27.9822H46.1919V27.0388Z" fill="#070006"/>
<path d="M40.4946 26.0894H39.5481V27.0327H40.4946V26.0894Z" fill="#0A0000"/>
<path d="M41.4411 26.0894H40.4946V27.0327H41.4411V26.0894Z" fill="#5350EF"/>
<path d="M42.3938 26.0894H41.4473V27.0327H42.3938V26.0894Z" fill="#0A0000"/>
<path d="M45.2395 26.0894H44.293V27.0327H45.2395V26.0894Z" fill="#0A0A01"/>
<path d="M46.1919 26.0894H45.2454V27.0327H46.1919V26.0894Z" fill="#070006"/>
<path d="M41.4411 25.146H40.4946V26.0894H41.4411V25.146Z" fill="#0A0000"/>
<path d="M42.3938 25.146H41.4473V26.0894H42.3938V25.146Z" fill="#5350EF"/>
<path d="M43.3403 25.146H42.3938V26.0894H43.3403V25.146Z" fill="#0A0000"/>
<path d="M42.3938 24.1965H41.4473V25.1399H42.3938V24.1965Z" fill="#0A0000"/>
<path d="M43.3403 24.1965H42.3938V25.1399H43.3403V24.1965Z" fill="#7A95EA"/>
<path d="M44.293 24.1965H43.3464V25.1399H44.293V24.1965Z" fill="#0A0000"/>
<path d="M42.3938 23.2532H41.4473V24.1966H42.3938V23.2532Z" fill="#0A0000"/>
<path d="M43.3403 23.2532H42.3938V24.1966H43.3403V23.2532Z" fill="#7C88E8"/>
<path d="M44.293 23.2532H43.3464V24.1966H44.293V23.2532Z" fill="#020266"/>
<path d="M45.2395 23.2532H44.293V24.1966H45.2395V23.2532Z" fill="#0A0000"/>
<path d="M42.3938 22.3098H41.4473V23.2532H42.3938V22.3098Z" fill="#0A0000"/>
<path d="M43.3403 22.3098H42.3938V23.2532H43.3403V22.3098Z" fill="#7673EF"/>
<path d="M44.293 22.3098H43.3464V23.2532H44.293V22.3098Z" fill="#5450FF"/>
<path d="M45.2395 22.3098H44.293V23.2532H45.2395V22.3098Z" fill="#0A0000"/>
<path d="M42.3938 21.3604H41.4473V22.3037H42.3938V21.3604Z" fill="#0A0000"/>
<path d="M43.3403 21.3604H42.3938V22.3037H43.3403V21.3604Z" fill="#5350EF"/>
<path d="M44.293 21.3604H43.3464V22.3037H44.293V21.3604Z" fill="#5450FF"/>
<path d="M45.2395 21.3604H44.293V22.3037H45.2395V21.3604Z" fill="#0A0000"/>
<path d="M42.3938 20.417H41.4473V21.3604H42.3938V20.417Z" fill="#5450FF"/>
<path d="M43.3403 20.417H42.3938V21.3604H43.3403V20.417Z" fill="#5D5DED"/>
<path d="M44.293 20.417H43.3464V21.3604H44.293V20.417Z" fill="#020B5E"/>
<path d="M45.2395 20.417H44.293V21.3604H45.2395V20.417Z" fill="#0A0000"/>
<path d="M41.4411 20.417H40.4946V21.3604H41.4411V20.417Z" fill="#0A0000"/>
<path d="M40.4946 20.417H39.5481V21.3604H40.4946V20.417Z" fill="#0A0000"/>
<path d="M41.4411 19.4675H40.4946V20.4109H41.4411V19.4675Z" fill="#4B53F7"/>
<path d="M42.3938 19.4675H41.4473V20.4109H42.3938V19.4675Z" fill="#4B53F7"/>
<path d="M43.3403 19.4675H42.3938V20.4109H43.3403V19.4675Z" fill="#818DFC"/>
<path d="M44.293 19.4675H43.3464V20.4109H44.293V19.4675Z" fill="#0A0000"/>
<path d="M40.4946 19.4675H39.5481V20.4109H40.4946V19.4675Z" fill="#7888F9"/>
<path d="M39.542 19.4675H38.5955V20.4109H39.542V19.4675Z" fill="#0A0000"/>
<path d="M41.4411 18.5242H40.4946V19.4676H41.4411V18.5242Z" fill="#0A0000"/>
<path d="M42.3938 18.5242H41.4473V19.4676H42.3938V18.5242Z" fill="#0A0000"/>
<path d="M43.3403 18.5242H42.3938V19.4676H43.3403V18.5242Z" fill="#0A0000"/>
<path d="M40.4946 18.5242H39.5481V19.4676H40.4946V18.5242Z" fill="#0A0000"/>
<path d="M39.542 20.417H38.5955V21.3604H39.542V20.417Z" fill="#7888F9"/>
<path d="M38.5954 20.417H37.6489V21.3604H38.5954V20.417Z" fill="#0A0000"/>
<path d="M39.542 21.3604H38.5955V22.3037H39.542V21.3604Z" fill="#0A0000"/>
<path d="M38.5954 21.3604H37.6489V22.3037H38.5954V21.3604Z" fill="#0A0000"/>
</svg>
