<svg width="74" height="18" viewBox="0 0 74 18" fill="none" xmlns="http://www.w3.org/2000/svg">
<rect x="73" width="1" height="18" fill="white"/>
<rect width="73" height="17" fill="#B5B5B5"/>
<rect width="1" height="18" fill="#808080"/>
<rect y="17" width="73" height="1" fill="white"/>
<rect width="73" height="1" fill="#808080"/>
<path d="M44.4136 12.0809V10.45H45.2291V11.2655H48.491V12.0809H44.4136ZM45.2291 10.45V9.6345H46.0446V10.45H45.2291ZM46.0446 9.6345V8.81902H46.86V9.6345H46.0446ZM46.86 8.81902V8.00355H47.6755V8.81902H46.86ZM44.4136 7.18807V6.37259H45.2291V7.18807H44.4136ZM47.6755 8.00355V6.37259H48.491V8.00355H47.6755ZM45.2291 6.37259V5.55712H47.6755V6.37259H45.2291ZM50.8396 12.0809V10.45H51.655V12.0809H50.8396ZM50.8396 8.81902V7.18807H51.655V8.81902H50.8396ZM54.0036 12.0809V10.45H54.8191V11.2655H58.081V12.0809H54.0036ZM54.8191 10.45V9.6345H55.6346V10.45H54.8191ZM55.6346 9.6345V8.81902H56.45V9.6345H55.6346ZM56.45 8.81902V8.00355H57.2655V8.81902H56.45ZM54.0036 7.18807V6.37259H54.8191V7.18807H54.0036ZM57.2655 8.00355V6.37259H58.081V8.00355H57.2655ZM54.8191 6.37259V5.55712H57.2655V6.37259H54.8191ZM59.6141 8.81902V8.00355H60.4296V8.81902H59.6141ZM60.4296 8.00355V7.18807H61.245V8.00355H60.4296ZM62.0605 12.0809V10.45H58.7986V8.81902H59.6141V9.6345H62.0605V7.18807H61.245V6.37259H62.0605V5.55712H62.876V9.6345H63.6915V10.45H62.876V12.0809H62.0605Z" fill="black"/>
<rect x="21.4335" y="2.17786" width="13.0293" height="13.066" fill="#000C78"/>
<path d="M26.8686 12.4441V11.6286H27.684V12.4441H26.8686ZM26.0531 11.6286V10.8131H26.8686V11.6286H26.0531ZM26.0531 9.18218V6.73575H26.8686V9.18218H26.0531ZM22.7912 12.4441V5.92028H26.0531V6.73575H23.6067V9.18218H26.0531V10.8131H25.2376V9.99766H23.6067V12.4441H22.7912ZM29.054 12.4441V11.6286H32.316V12.4441H29.054ZM28.2386 11.6286V5.92028H29.054V11.6286H28.2386ZM32.316 11.6286V5.92028H33.1314V11.6286H32.316Z" fill="white"/>
<path d="M6.40264 8.44348H5.53564V9.33362H6.40264V8.44348Z" fill="#666719"/>
<path d="M7.2697 8.44348H6.40271V9.33362H7.2697V8.44348Z" fill="#E8E99B"/>
<path d="M8.13677 8.44348H7.26978V9.33362H8.13677V8.44348Z" fill="#B9BF9C"/>
<path d="M9.00383 8.44348H8.13684V9.33362H9.00383V8.44348Z" fill="#FFFFC6"/>
<path d="M9.8709 8.44348H9.00391V9.33362H9.8709V8.44348Z" fill="#E2ED70"/>
<path d="M10.7382 8.44348H9.87122V9.33362H10.7382V8.44348Z" fill="#FFFF95"/>
<path d="M6.40264 7.55334H5.53564V8.44349H6.40264V7.55334Z" fill="#815F0B"/>
<path d="M7.2697 7.55334H6.40271V8.44349H7.2697V7.55334Z" fill="#FFE090"/>
<path d="M8.13677 7.55334H7.26978V8.44349H8.13677V7.55334Z" fill="#D2D0C3"/>
<path d="M9.00383 7.55334H8.13684V8.44349H9.00383V7.55334Z" fill="#F2EEA7"/>
<path d="M9.87065 7.55334H9.00366V8.44349H9.87065V7.55334Z" fill="#FFFF8E"/>
<path d="M10.7382 7.55334H9.87122V8.44349H10.7382V7.55334Z" fill="#EEF77A"/>
<path d="M6.40264 6.66309H5.53564V7.55323H6.40264V6.66309Z" fill="#744F00"/>
<path d="M7.2697 6.66309H6.40271V7.55323H7.2697V6.66309Z" fill="#FFFEAD"/>
<path d="M8.13677 6.66309H7.26978V7.55323H8.13677V6.66309Z" fill="#C2B9AC"/>
<path d="M9.00383 6.66309H8.13684V7.55323H9.00383V6.66309Z" fill="#FFFFBB"/>
<path d="M9.8709 6.66309H9.00391V7.55323H9.8709V6.66309Z" fill="#EBF576"/>
<path d="M10.7382 6.66309H9.87122V7.55323H10.7382V6.66309Z" fill="#FFFF93"/>
<path d="M7.2697 5.77307H6.40271V6.66321H7.2697V5.77307Z" fill="#4B6532"/>
<path d="M8.13677 5.77283H7.26978V6.66297H8.13677V5.77283Z" fill="#5F6014"/>
<path d="M9.00383 5.77307H8.13684V6.66321H9.00383V5.77307Z" fill="#ECECA2"/>
<path d="M9.87065 5.77307H9.00366V6.66321H9.87065V5.77307Z" fill="#FFFF95"/>
<path d="M10.7382 5.77283H9.87122V6.66297H10.7382V5.77283Z" fill="#D7E366"/>
<path d="M9.00383 4.88318H8.13684V5.77332H9.00383V4.88318Z" fill="#5E5E13"/>
<path d="M9.87065 4.88318H9.00366V5.77332H9.87065V4.88318Z" fill="#F8FF86"/>
<path d="M10.7382 4.88318H9.87122V5.77332H10.7382V4.88318Z" fill="#FFFF95"/>
<path d="M9.87065 3.99268H9.00366V4.88282H9.87065V3.99268Z" fill="#515A05"/>
<path d="M10.7382 3.99243H9.87122V4.88257H10.7382V3.99243Z" fill="#E1EA96"/>
<path d="M10.7382 3.09998H9.87122V3.99012H10.7382V3.09998Z" fill="#545B06"/>
<path d="M6.40264 9.33374H5.53564V10.2239H6.40264V9.33374Z" fill="#080800"/>
<path d="M7.2697 9.33374H6.40271V10.2239H7.2697V9.33374Z" fill="#616213"/>
<path d="M8.13677 9.33374H7.26978V10.2239H8.13677V9.33374Z" fill="#A3AA7F"/>
<path d="M9.00383 9.33374H8.13684V10.2239H9.00383V9.33374Z" fill="#E6E6A5"/>
<path d="M9.87065 9.33374H9.00366V10.2239H9.87065V9.33374Z" fill="#FFFF95"/>
<path d="M10.7382 9.33374H9.87122V10.2239H10.7382V9.33374Z" fill="#E2ED70"/>
<path d="M7.2697 10.2239H6.40271V11.114H7.2697V10.2239Z" fill="#121300"/>
<path d="M8.13677 10.2239H7.26978V11.114H8.13677V10.2239Z" fill="#060500"/>
<path d="M9.00383 10.2239H8.13684V11.114H9.00383V10.2239Z" fill="#626032"/>
<path d="M9.87065 10.2239H9.00366V11.114H9.87065V10.2239Z" fill="#E2EB84"/>
<path d="M10.7382 10.2239H9.87122V11.114H10.7382V10.2239Z" fill="#FFFFA7"/>
<path d="M9.00383 11.1139H8.13684V12.004H9.00383V11.1139Z" fill="#0F0E00"/>
<path d="M9.8709 11.1139H9.00391V12.004H9.8709V11.1139Z" fill="#666D06"/>
<path d="M10.7382 11.1139H9.87122V12.004H10.7382V11.1139Z" fill="#E8F18A"/>
<path d="M9.8709 12.0043H9.00391V12.8944H9.8709V12.0043Z" fill="#0C1000"/>
<path d="M10.7382 12.0043H9.87122V12.8944H10.7382V12.0043Z" fill="#575B18"/>
<path d="M10.7382 12.8964H9.87122V13.7865H10.7382V12.8964Z" fill="#131600"/>
<path d="M11.605 3.09998H10.738V3.99012H11.605V3.09998Z" fill="#E5E9C4"/>
<path d="M12.474 3.09998H11.6071V3.99012H12.474V3.09998Z" fill="#070B01"/>
<path d="M11.605 2.20972H10.738V3.09986H11.605V2.20972Z" fill="#545B06"/>
<path d="M12.474 2.20972H11.6071V3.09986H12.474V2.20972Z" fill="#686A5A"/>
<path d="M11.605 3.99243H10.738V4.88257H11.605V3.99243Z" fill="#646844"/>
<path d="M12.474 3.99268H11.6071V4.88282H12.474V3.99268Z" fill="#050603"/>
<path d="M11.6022 4.88318H10.7352V5.77332H11.6022V4.88318Z" fill="#030500"/>
<path d="M12.469 4.88318H11.6021V5.77332H12.469V4.88318Z" fill="#CFD0AC"/>
<path d="M11.6022 5.77283H10.7352V6.66297H11.6022V5.77283Z" fill="#030500"/>
<path d="M12.469 5.77307H11.6021V6.66321H12.469V5.77307Z" fill="#CFD0AC"/>
<path d="M11.6022 6.66309H10.7352V7.55323H11.6022V6.66309Z" fill="#0B0A01"/>
<path d="M12.469 6.66309H11.6021V7.55323H12.469V6.66309Z" fill="#0B0A01"/>
<path d="M11.6022 7.55334H10.7352V8.44349H11.6022V7.55334Z" fill="#030500"/>
<path d="M12.469 7.55334H11.6021V8.44349H12.469V7.55334Z" fill="#C3BFF1"/>
<path d="M11.605 8.42505H10.738V9.31519H11.605V8.42505Z" fill="#030500"/>
<path d="M12.474 8.42505H11.6071V9.31519H12.474V8.42505Z" fill="#6D7943"/>
<path d="M11.605 9.31531H10.738V10.2265H11.605V9.31531Z" fill="#0B0A01"/>
<path d="M12.474 9.31531H11.6071V10.2265H12.474V9.31531Z" fill="#0B0A01"/>
<path d="M11.605 10.2133H10.738V11.1244H11.605V10.2133Z" fill="#0B0A01"/>
<path d="M12.474 10.2133H11.6071V11.1244H12.474V10.2133Z" fill="#C7C1BA"/>
<path d="M11.605 11.1061H10.738V12.0172H11.605V11.1061Z" fill="#0B0A01"/>
<path d="M12.474 11.1063H11.6071V12.0175H12.474V11.1063Z" fill="#C7C1BA"/>
<path d="M11.605 12.0043H10.738V12.8944H11.605V12.0043Z" fill="#8A9435"/>
<path d="M12.474 12.0043H11.6071V12.8944H12.474V12.0043Z" fill="#0B0A01"/>
<path d="M11.605 12.8964H10.738V13.7865H11.605V12.8964Z" fill="#878860"/>
<path d="M12.474 12.8969H11.6071V13.787H12.474V12.8969Z" fill="#040000"/>
<path d="M11.605 13.7871H10.738V14.6773H11.605V13.7871Z" fill="#040000"/>
<path d="M12.474 13.7871H11.6071V14.6773H12.474V13.7871Z" fill="#79870C"/>
<path d="M12.474 14.6666H11.6071V15.5778H12.474V14.6666Z" fill="#0B0A01"/>
<path d="M13.3414 14.6666H12.4744V15.5778H13.3414V14.6666Z" fill="#0B0A01"/>
<path d="M14.2084 14.6666H13.3414V15.5778H14.2084V14.6666Z" fill="#040000"/>
<path d="M13.3414 13.7871H12.4744V14.6773H13.3414V13.7871Z" fill="#06030D"/>
<path d="M14.2084 13.7871H13.3414V14.6773H14.2084V13.7871Z" fill="#5D5963"/>
<path d="M13.3414 12.8964H12.4744V13.7865H13.3414V12.8964Z" fill="#DDD7E3"/>
<path d="M14.2084 12.8964H13.3414V13.7865H14.2084V12.8964Z" fill="#C1C2C1"/>
<path d="M13.3414 12.0043H12.4744V12.8944H13.3414V12.0043Z" fill="#FBF5FF"/>
<path d="M14.2084 12.0043H13.3414V12.8944H14.2084V12.0043Z" fill="#FBF5FF"/>
<path d="M13.3414 11.1061H12.4744V12.0172H13.3414V11.1061Z" fill="#FEFCFF"/>
<path d="M14.2084 11.1061H13.3414V12.0172H14.2084V11.1061Z" fill="#FEFCFF"/>
<path d="M13.3414 10.1871H12.4744V11.1062H13.3414V10.1871Z" fill="#F8F1FF"/>
<path d="M14.2084 10.1871H13.3414V11.1062H14.2084V10.1871Z" fill="#FEFCFF"/>
<path d="M13.3414 9.31531H12.4744V10.2054H13.3414V9.31531Z" fill="#FEFCFF"/>
<path d="M14.2084 9.31531H13.3414V10.2054H14.2084V9.31531Z" fill="#FEFCFF"/>
<path d="M13.3361 8.42505H12.4691V9.31519H13.3361V8.42505Z" fill="#04000A"/>
<path d="M14.2034 8.42505H13.3364V9.31519H14.2034V8.42505Z" fill="#FFF6FF"/>
<path d="M13.3361 7.55334H12.4691V8.44349H13.3361V7.55334Z" fill="#0F0B1D"/>
<path d="M14.2034 7.55334H13.3364V8.44349H14.2034V7.55334Z" fill="#F7F5FF"/>
<path d="M13.3361 6.66309H12.4691V7.55323H13.3361V6.66309Z" fill="#FFFDFF"/>
<path d="M14.2034 6.66309H13.3364V7.55323H14.2034V6.66309Z" fill="#FFFDFF"/>
<path d="M13.3361 5.77283H12.4691V6.66297H13.3361V5.77283Z" fill="#F7F6FD"/>
<path d="M14.2034 5.77283H13.3364V6.66297H14.2034V5.77283Z" fill="#F7F6FD"/>
<path d="M13.3361 4.88318H12.4691V5.77332H13.3361V4.88318Z" fill="#F9F8FF"/>
<path d="M14.2034 4.88318H13.3364V5.77332H14.2034V4.88318Z" fill="white"/>
<path d="M13.3361 3.99243H12.4691V4.88257H13.3361V3.99243Z" fill="#D9DAD9"/>
<path d="M14.2034 3.99243H13.3364V4.88257H14.2034V3.99243Z" fill="#C1C2C1"/>
<path d="M13.3361 3.09998H12.4691V3.99012H13.3361V3.09998Z" fill="#666765"/>
<path d="M14.2034 3.09998H13.3364V3.99012H14.2034V3.09998Z" fill="#666765"/>
<path d="M13.3361 2.20972H12.4691V3.09986H13.3361V2.20972Z" fill="#050603"/>
<path d="M14.2034 2.20972H13.3364V3.09986H14.2034V2.20972Z" fill="#050603"/>
<path d="M15.075 13.7871H14.208V14.6773H15.075V13.7871Z" fill="#0B0A01"/>
<path d="M15.075 12.8969H14.208V13.787H15.075V12.8969Z" fill="#0B0A01"/>
<path d="M15.075 12.0043H14.208V12.8944H15.075V12.0043Z" fill="#0B0A01"/>
<path d="M15.075 11.1061H14.208V12.0172H15.075V11.1061Z" fill="#0B0A01"/>
<path d="M15.075 10.1871H14.208V11.1062H15.075V10.1871Z" fill="#0B0A01"/>
<path d="M15.075 9.31531H14.208V10.2054H15.075V9.31531Z" fill="#0B0A01"/>
<path d="M15.0701 8.42505H14.2031V9.31519H15.0701V8.42505Z" fill="#0B0A01"/>
<path d="M15.0701 7.55334H14.2031V8.44349H15.0701V7.55334Z" fill="#0B0A01"/>
<path d="M15.0701 6.66309H14.2031V7.55323H15.0701V6.66309Z" fill="#0B0A01"/>
<path d="M15.0701 5.77307H14.2031V6.66321H15.0701V5.77307Z" fill="#0B0A01"/>
<path d="M15.0701 4.88318H14.2031V5.77332H15.0701V4.88318Z" fill="#0B0A01"/>
<path d="M15.0701 3.99268H14.2031V4.88282H15.0701V3.99268Z" fill="#0B0A01"/>
<path d="M15.0701 3.09998H14.2031V3.99012H15.0701V3.09998Z" fill="#0B0A01"/>
<path d="M18.4638 8.0498H15.9396V8.69575H18.4638V8.0498Z" fill="#848484"/>
<path d="M16.5867 6.71826H15.9629V7.3587H16.5867V6.71826Z" fill="#848484"/>
<path d="M17.2105 6.07495H16.5867V6.71539H17.2105V6.07495Z" fill="#848484"/>
<path d="M17.8373 5.4342H17.2135V6.07464H17.8373V5.4342Z" fill="#848484"/>
<path d="M18.4613 4.79089H17.8375V5.43133H18.4613V4.79089Z" fill="#848484"/>
<path d="M17.8393 11.9264L18.4631 11.9264L18.4631 11.286L17.8393 11.286L17.8393 11.9264Z" fill="#848484"/>
<path d="M17.2133 11.2881L17.837 11.2881L17.837 10.6476L17.2133 10.6476L17.2133 11.2881Z" fill="#848484"/>
<path d="M16.5897 10.6471L17.2135 10.6471L17.2135 10.0067L16.5897 10.0067L16.5897 10.6471Z" fill="#848484"/>
<path d="M15.9629 10.0066L16.5867 10.0066L16.5867 9.36615L15.9629 9.36615L15.9629 10.0066Z" fill="#848484"/>
</svg>
