<svg width="57" height="96" viewBox="0 0 57 96" fill="none" xmlns="http://www.w3.org/2000/svg">
<path d="M15.039 89.5701H12.0691V92.54H15.039V89.5701Z" fill="#C4C7CC"/>
<path d="M17.9914 89.5701H15.0215V92.54H17.9914V89.5701Z" fill="#B0B4B9"/>
<path d="M20.9614 89.5701H17.9915V92.54H20.9614V89.5701Z" fill="#B0B4B9"/>
<path d="M23.9314 89.5701H20.9614V92.54H23.9314V89.5701Z" fill="#B0B4B9"/>
<path d="M26.8837 89.5701H23.9138V92.54H26.8837V89.5701Z" fill="#B0B4B9"/>
<path d="M29.8537 89.5701H26.8838V92.54H29.8537V89.5701Z" fill="#B0B4B9"/>
<path d="M32.8237 89.5701H29.8538V92.54H32.8237V89.5701Z" fill="#B0B4B9"/>
<path d="M35.7761 89.5701H32.8062V92.54H35.7761V89.5701Z" fill="#B0B4B9"/>
<path d="M38.7461 89.5701H35.7761V92.54H38.7461V89.5701Z" fill="#B0B4B9"/>
<path d="M41.716 89.5701H38.7461V92.54H41.716V89.5701Z" fill="#B0B4B9"/>
<path d="M44.6684 89.5701H41.6985V92.54H44.6684V89.5701Z" fill="#48494B"/>
<path d="M6.12911 86.6177H3.15918V89.5876H6.12911V86.6177Z" fill="#626466"/>
<path d="M9.09908 86.6177H6.12915V89.5876H9.09908V86.6177Z" fill="#8A8C91"/>
<path d="M12.0691 86.6177H9.09912V89.5876H12.0691V86.6177Z" fill="#84888B"/>
<path d="M15.039 86.6177H12.0691V89.5876H15.039V86.6177Z" fill="#AEB2B5"/>
<path d="M17.9914 86.6177H15.0215V89.5876H17.9914V86.6177Z" fill="#C4C7CC"/>
<path d="M20.9614 86.6177H17.9915V89.5876H20.9614V86.6177Z" fill="#BBBFC3"/>
<path d="M23.9314 86.6177H20.9614V89.5876H23.9314V86.6177Z" fill="#909498"/>
<path d="M26.8837 86.6177H23.9138V89.5876H26.8837V86.6177Z" fill="#909498"/>
<path d="M29.8537 86.6177H26.8838V89.5876H29.8537V86.6177Z" fill="#909498"/>
<path d="M32.8237 86.6177H29.8538V89.5876H32.8237V86.6177Z" fill="#909498"/>
<path d="M35.7761 86.6177H32.8062V89.5876H35.7761V86.6177Z" fill="#909498"/>
<path d="M38.7461 86.6177H35.7761V89.5876H38.7461V86.6177Z" fill="#B6BABE"/>
<path d="M41.716 86.6177H38.7461V89.5876H41.716V86.6177Z" fill="#C4C7CC"/>
<path d="M44.6684 86.6177H41.6985V89.5876H44.6684V86.6177Z" fill="#B2B4B8"/>
<path d="M47.6384 86.6177H44.6685V89.5876H47.6384V86.6177Z" fill="#A2A6A9"/>
<path d="M50.6084 86.6177H47.6384V89.5876H50.6084V86.6177Z" fill="#5D6062"/>
<path d="M6.12911 83.6477H3.15918V86.6176H6.12911V83.6477Z" fill="#707374"/>
<path d="M9.09908 83.6477H6.12915V86.6176H9.09908V83.6477Z" fill="#A4A8AC"/>
<path d="M12.0691 83.6477H9.09912V86.6176H12.0691V83.6477Z" fill="#66686B"/>
<path d="M15.039 83.6477H12.0691V86.6176H15.039V83.6477Z" fill="#737475"/>
<path d="M17.9914 83.6477H15.0215V86.6176H17.9914V83.6477Z" fill="#EFF0F1"/>
<path d="M20.9614 83.6477H17.9915V86.6176H20.9614V83.6477Z" fill="#EDEEEF"/>
<path d="M23.9314 83.6477H20.9614V86.6176H23.9314V83.6477Z" fill="#DFE0E0"/>
<path d="M26.8837 83.6477H23.9138V86.6176H26.8837V83.6477Z" fill="#DFE0E0"/>
<path d="M29.8537 83.6477H26.8838V86.6176H29.8537V83.6477Z" fill="#232425"/>
<path d="M32.8237 83.6477H29.8538V86.6176H32.8237V83.6477Z" fill="#CDCDCF"/>
<path d="M35.7761 83.6477H32.8062V86.6176H35.7761V83.6477Z" fill="#DFE0E0"/>
<path d="M38.7461 83.6477H35.7761V86.6176H38.7461V83.6477Z" fill="#ABADB1"/>
<path d="M41.716 83.6477H38.7461V86.6176H41.716V83.6477Z" fill="#979B9F"/>
<path d="M44.6684 83.6477H41.6985V86.6176H44.6684V83.6477Z" fill="#5C5E61"/>
<path d="M47.6384 83.6477H44.6685V86.6176H47.6384V83.6477Z" fill="#7A7E80"/>
<path d="M50.6084 83.6477H47.6384V86.6176H50.6084V83.6477Z" fill="#AEB2B5"/>
<path d="M53.5608 83.6477H50.5908V86.6176H53.5608V83.6477Z" fill="#626365"/>
<path d="M6.12911 32.9668H3.15918V80.6779H6.12911V32.9668Z" fill="#707374"/>
<path d="M9.09908 32.9668H6.12915V80.6779H9.09908V32.9668Z" fill="#C4C7CC"/>
<path d="M12.0691 32.9668H9.09912V80.6779H12.0691V32.9668Z" fill="#DCDEE0"/>
<path d="M15.039 32.9668H12.0691V80.6779H15.039V32.9668Z" fill="#A9A9AA"/>
<path d="M17.9914 32.9668H15.0215V80.6779H17.9914V32.9668Z" fill="#3D3E3E"/>
<path d="M20.9614 32.9668H17.9915V80.6779H20.9614V32.9668Z" fill="white"/>
<path d="M23.9314 32.9668H20.9614V80.6779H23.9314V32.9668Z" fill="#FDFDFE"/>
<path d="M26.8837 32.9668H23.9138V80.6779H26.8837V32.9668Z" fill="#C4C7CC"/>
<path d="M29.8537 32.9668H26.8838V80.6779H29.8537V32.9668Z" fill="#868B8F"/>
<path d="M32.8237 32.9668H29.8538V80.6779H32.8237V32.9668Z" fill="#0D0D0E"/>
<path d="M35.7761 32.9668H32.8062V80.6779H35.7761V32.9668Z" fill="#D5D5D4"/>
<path d="M38.7461 32.9668H35.7761V80.6779H38.7461V32.9668Z" fill="#A7A9AB"/>
<path d="M41.716 32.9668H38.7461V80.6779H41.716V32.9668Z" fill="#B0B4B8"/>
<path d="M44.6684 32.9668H41.6985V80.6779H44.6684V32.9668Z" fill="#9FA3A7"/>
<path d="M47.6384 32.9668H44.6685V80.6779H47.6384V32.9668Z" fill="#444548"/>
<path d="M50.6084 32.9668H47.6384V80.6779H50.6084V32.9668Z" fill="#555658"/>
<path d="M53.5608 32.9668H50.5908V80.6779H53.5608V32.9668Z" fill="#838587"/>
<path d="M6.12911 80.678H3.15918V83.6479H6.12911V80.678Z" fill="#707374"/>
<path d="M9.09908 80.678H6.12915V83.6479H9.09908V80.678Z" fill="#B9BDC1"/>
<path d="M12.0691 80.678H9.09912V83.6479H12.0691V80.678Z" fill="#AEB0B3"/>
<path d="M15.039 80.678H12.0691V83.6479H15.039V80.678Z" fill="#8E8E8E"/>
<path d="M17.9914 80.678H15.0215V83.6479H17.9914V80.678Z" fill="#7D7D7E"/>
<path d="M20.9614 80.678H17.9915V83.6479H20.9614V80.678Z" fill="white"/>
<path d="M23.9314 80.678H20.9614V83.6479H23.9314V80.678Z" fill="#FDFDFE"/>
<path d="M26.8837 80.678H23.9138V83.6479H26.8837V80.678Z" fill="#D9DADC"/>
<path d="M29.8537 80.678H26.8838V83.6479H29.8537V80.678Z" fill="#5B5D60"/>
<path d="M32.8237 80.678H29.8538V83.6479H32.8237V80.678Z" fill="#575757"/>
<path d="M35.7761 80.678H32.8062V83.6479H35.7761V80.678Z" fill="#E3E3E2"/>
<path d="M38.7461 80.678H35.7761V83.6479H38.7461V80.678Z" fill="#A7A9AB"/>
<path d="M41.716 80.678H38.7461V83.6479H41.716V80.678Z" fill="#A2A5A9"/>
<path d="M44.6684 80.678H41.6985V83.6479H44.6684V80.678Z" fill="#7B7F82"/>
<path d="M47.6384 80.678H44.6685V83.6479H47.6384V80.678Z" fill="#4E5052"/>
<path d="M50.6084 80.678H47.6384V83.6479H50.6084V80.678Z" fill="#7A7B7E"/>
<path d="M53.5608 80.678H50.5908V83.6479H53.5608V80.678Z" fill="#838587"/>
<path d="M6.12911 30.0144H3.15918V32.9843H6.12911V30.0144Z" fill="#707374"/>
<path d="M9.09908 30.0144H6.12915V32.9843H9.09908V30.0144Z" fill="#B9BDC1"/>
<path d="M12.0691 30.0144H9.09912V32.9843H12.0691V30.0144Z" fill="#AEB0B3"/>
<path d="M15.039 30.0144H12.0691V32.9843H15.039V30.0144Z" fill="#8E8E8E"/>
<path d="M17.9914 30.0144H15.0215V32.9843H17.9914V30.0144Z" fill="#7D7D7E"/>
<path d="M20.9614 30.0144H17.9915V32.9843H20.9614V30.0144Z" fill="white"/>
<path d="M23.9314 30.0144H20.9614V32.9843H23.9314V30.0144Z" fill="#FDFDFE"/>
<path d="M26.8837 30.0144H23.9138V32.9843H26.8837V30.0144Z" fill="#D9DADC"/>
<path d="M29.8537 30.0144H26.8838V32.9843H29.8537V30.0144Z" fill="#5B5D60"/>
<path d="M32.8237 30.0144H29.8538V32.9843H32.8237V30.0144Z" fill="#575757"/>
<path d="M35.7761 30.0144H32.8062V32.9843H35.7761V30.0144Z" fill="#E3E3E2"/>
<path d="M38.7461 30.0144H35.7761V32.9843H38.7461V30.0144Z" fill="#A7A9AB"/>
<path d="M41.716 30.0144H38.7461V32.9843H41.716V30.0144Z" fill="#A2A5A9"/>
<path d="M44.6684 30.0144H41.6985V32.9843H44.6684V30.0144Z" fill="#7B7F82"/>
<path d="M47.6384 30.0144H44.6685V32.9843H47.6384V30.0144Z" fill="#4E5052"/>
<path d="M50.6084 30.0144H47.6384V32.9843H50.6084V30.0144Z" fill="#7A7B7E"/>
<path d="M53.5608 30.0144H50.5908V32.9843H53.5608V30.0144Z" fill="#838587"/>
<path d="M6.12911 27.0444H3.15918V30.0144H6.12911V27.0444Z" fill="#707374"/>
<path d="M9.09908 27.0444H6.12915V30.0144H9.09908V27.0444Z" fill="#A4A8AC"/>
<path d="M12.0691 27.0444H9.09912V30.0144H12.0691V27.0444Z" fill="#66686B"/>
<path d="M15.039 27.0444H12.0691V30.0144H15.039V27.0444Z" fill="#737475"/>
<path d="M17.9914 27.0444H15.0215V30.0144H17.9914V27.0444Z" fill="#EFF0F1"/>
<path d="M20.9614 27.0444H17.9915V30.0144H20.9614V27.0444Z" fill="#EDEEEF"/>
<path d="M23.9314 27.0444H20.9614V30.0144H23.9314V27.0444Z" fill="#DFE0E0"/>
<path d="M26.8837 27.0444H23.9138V30.0144H26.8837V27.0444Z" fill="#DFE0E0"/>
<path d="M29.8537 27.0444H26.8838V30.0144H29.8537V27.0444Z" fill="#444444"/>
<path d="M32.8237 27.0444H29.8538V30.0144H32.8237V27.0444Z" fill="#EEEDED"/>
<path d="M35.7761 27.0444H32.8062V30.0144H35.7761V27.0444Z" fill="white"/>
<path d="M38.7461 27.0444H35.7761V30.0144H38.7461V27.0444Z" fill="#ABADB1"/>
<path d="M41.716 27.0444H38.7461V30.0144H41.716V27.0444Z" fill="#979B9F"/>
<path d="M44.6684 27.0444H41.6985V30.0144H44.6684V27.0444Z" fill="#5C5E61"/>
<path d="M47.6384 27.0444H44.6685V30.0144H47.6384V27.0444Z" fill="#7A7E80"/>
<path d="M50.6084 27.0444H47.6384V30.0144H50.6084V27.0444Z" fill="#AEB2B5"/>
<path d="M53.5608 27.0444H50.5908V30.0144H53.5608V27.0444Z" fill="#626365"/>
<path d="M6.12911 24.0745H3.15918V27.0444H6.12911V24.0745Z" fill="#707374"/>
<path d="M9.09908 24.0745H6.12915V27.0444H9.09908V24.0745Z" fill="#ABAFB3"/>
<path d="M12.0691 24.0745H9.09912V27.0444H12.0691V24.0745Z" fill="#909498"/>
<path d="M15.039 24.0745H12.0691V27.0444H15.039V24.0745Z" fill="#AFB1B5"/>
<path d="M17.9914 24.0745H15.0215V27.0444H17.9914V24.0745Z" fill="#EBEBEC"/>
<path d="M20.9614 24.0745H17.9915V27.0444H20.9614V24.0745Z" fill="#EBEBEC"/>
<path d="M23.9314 24.0745H20.9614V27.0444H23.9314V24.0745Z" fill="#EBEBEC"/>
<path d="M26.8837 24.0745H23.9138V27.0444H26.8837V24.0745Z" fill="#EBEBEC"/>
<path d="M29.8537 24.0745H26.8838V27.0444H29.8537V24.0745Z" fill="#EBEBEC"/>
<path d="M32.8237 24.0745H29.8538V27.0444H32.8237V24.0745Z" fill="#EBEBEC"/>
<path d="M35.7761 24.0745H32.8062V27.0444H35.7761V24.0745Z" fill="#EBEBEC"/>
<path d="M38.7461 24.0745H35.7761V27.0444H38.7461V24.0745Z" fill="#A9ABAE"/>
<path d="M41.716 24.0745H38.7461V27.0444H41.716V24.0745Z" fill="#909498"/>
<path d="M44.6684 24.0745H41.6985V27.0444H44.6684V24.0745Z" fill="#909498"/>
<path d="M47.6384 24.0745H44.6685V27.0444H47.6384V24.0745Z" fill="#9A9EA2"/>
<path d="M50.6084 24.0745H47.6384V27.0444H50.6084V24.0745Z" fill="#A2A6A9"/>
<path d="M53.5608 24.0745H50.5908V27.0444H53.5608V24.0745Z" fill="#6C7072"/>
<path d="M6.12911 21.1221H3.15918V24.092H6.12911V21.1221Z" fill="#626466"/>
<path d="M9.09908 21.1221H6.12915V24.092H9.09908V21.1221Z" fill="#B0B4B9"/>
<path d="M12.0691 21.1221H9.09912V24.092H12.0691V21.1221Z" fill="#B0B4B9"/>
<path d="M15.039 21.1221H12.0691V24.092H15.039V21.1221Z" fill="#A4A8AC"/>
<path d="M17.9914 21.1221H15.0215V24.092H17.9914V21.1221Z" fill="#8C9094"/>
<path d="M20.9614 21.1221H17.9915V24.092H20.9614V21.1221Z" fill="#8C9094"/>
<path d="M23.9314 21.1221H20.9614V24.092H23.9314V21.1221Z" fill="#8C9094"/>
<path d="M26.8837 21.1221H23.9138V24.092H26.8837V21.1221Z" fill="#8C9094"/>
<path d="M29.8537 21.1221H26.8838V24.092H29.8537V21.1221Z" fill="#8C9094"/>
<path d="M32.8237 21.1221H29.8538V24.092H32.8237V21.1221Z" fill="#8C9094"/>
<path d="M35.7761 21.1221H32.8062V24.092H35.7761V21.1221Z" fill="#8C9094"/>
<path d="M38.7461 21.1221H35.7761V24.092H38.7461V21.1221Z" fill="#B6BABE"/>
<path d="M41.716 21.1221H38.7461V24.092H41.716V21.1221Z" fill="#B8BBBF"/>
<path d="M44.6684 21.1221H41.6985V24.092H44.6684V21.1221Z" fill="#B2B4B8"/>
<path d="M47.6384 21.1221H44.6685V24.092H47.6384V21.1221Z" fill="#595B5D"/>
<path d="M50.6084 21.1221H47.6384V24.092H50.6084V21.1221Z" fill="#020203"/>
<path d="M15.039 18.1521H12.0691V21.122H15.039V18.1521Z" fill="#434445"/>
<path d="M17.9914 18.1521H15.0215V21.122H17.9914V18.1521Z" fill="#C5C9CD"/>
<path d="M20.9614 18.1521H17.9915V21.122H20.9614V18.1521Z" fill="#C5C9CD"/>
<path d="M23.9314 18.1521H20.9614V21.122H23.9314V18.1521Z" fill="#C5C9CD"/>
<path d="M26.8837 18.1521H23.9138V21.122H26.8837V18.1521Z" fill="#C5C9CD"/>
<path d="M29.8537 18.1521H26.8838V21.122H29.8537V18.1521Z" fill="#C5C9CD"/>
<path d="M32.8237 18.1521H29.8538V21.122H32.8237V18.1521Z" fill="#C5C9CD"/>
<path d="M35.7761 18.1521H32.8062V21.122H35.7761V18.1521Z" fill="#C5C9CD"/>
<path d="M38.7461 18.1521H35.7761V21.122H38.7461V18.1521Z" fill="#C5C9CD"/>
<path d="M41.716 18.1521H38.7461V21.122H41.716V18.1521Z" fill="#434445"/>
<path d="M3.17672 15.1821H0.206787V18.1521H3.17672V15.1821Z" fill="#838587"/>
<path d="M6.12911 15.1821H3.15918V18.1521H6.12911V15.1821Z" fill="#A0A4A8"/>
<path d="M9.09908 15.1821H6.12915V18.1521H9.09908V15.1821Z" fill="#868B8F"/>
<path d="M12.0691 15.1821H9.09912V18.1521H12.0691V15.1821Z" fill="#B7B9BC"/>
<path d="M15.039 15.1821H12.0691V18.1521H15.039V15.1821Z" fill="white"/>
<path d="M17.9914 15.1821H15.0215V18.1521H17.9914V15.1821Z" fill="white"/>
<path d="M20.9614 15.1821H17.9915V18.1521H20.9614V15.1821Z" fill="white"/>
<path d="M23.9314 15.1821H20.9614V18.1521H23.9314V15.1821Z" fill="white"/>
<path d="M26.8837 15.1821H23.9138V18.1521H26.8837V15.1821Z" fill="white"/>
<path d="M29.8537 15.1821H26.8838V18.1521H29.8537V15.1821Z" fill="white"/>
<path d="M32.8237 15.1821H29.8538V18.1521H32.8237V15.1821Z" fill="white"/>
<path d="M35.7761 15.1821H32.8062V18.1521H35.7761V15.1821Z" fill="white"/>
<path d="M38.7461 15.1821H35.7761V18.1521H38.7461V15.1821Z" fill="#A7A9AB"/>
<path d="M41.716 15.1821H38.7461V18.1521H41.716V15.1821Z" fill="#868B8F"/>
<path d="M44.6684 15.1821H41.6985V18.1521H44.6684V15.1821Z" fill="#868B8F"/>
<path d="M47.6384 15.1821H44.6685V18.1521H47.6384V15.1821Z" fill="#A4A8AC"/>
<path d="M50.6084 15.1821H47.6384V18.1521H50.6084V15.1821Z" fill="#C4C7CC"/>
<path d="M53.5608 15.1821H50.5908V18.1521H53.5608V15.1821Z" fill="#838587"/>
<path d="M15.039 12.2297H12.0691V15.1997H15.039V12.2297Z" fill="#434445"/>
<path d="M17.9914 12.2297H15.0215V15.1997H17.9914V12.2297Z" fill="#C5C9CD"/>
<path d="M20.9614 12.2297H17.9915V15.1997H20.9614V12.2297Z" fill="#C5C9CD"/>
<path d="M23.9314 12.2297H20.9614V15.1997H23.9314V12.2297Z" fill="#C5C9CD"/>
<path d="M26.8837 12.2297H23.9138V15.1997H26.8837V12.2297Z" fill="#C5C9CD"/>
<path d="M29.8537 12.2297H26.8838V15.1997H29.8537V12.2297Z" fill="#C5C9CD"/>
<path d="M32.8237 12.2297H29.8538V15.1997H32.8237V12.2297Z" fill="#C5C9CD"/>
<path d="M35.7761 12.2297H32.8062V15.1997H35.7761V12.2297Z" fill="#C5C9CD"/>
<path d="M38.7461 12.2297H35.7761V15.1997H38.7461V12.2297Z" fill="#C5C9CD"/>
<path d="M41.716 12.2297H38.7461V15.1997H41.716V12.2297Z" fill="#434445"/>
<path d="M20.9614 9.25977H17.9915V12.2297H20.9614V9.25977Z" fill="#49494C"/>
<path d="M23.9314 9.25977H20.9614V12.2297H23.9314V9.25977Z" fill="#2C2D2E"/>
<path d="M26.8837 9.25977H23.9138V12.2297H26.8837V9.25977Z" fill="#F7F8F9"/>
<path d="M29.8537 9.25977H26.8838V12.2297H29.8537V9.25977Z" fill="#F7F8F9"/>
<path d="M32.8237 9.25977H29.8538V12.2297H32.8237V9.25977Z" fill="#9B9DA1"/>
<path d="M35.7761 9.25977H32.8062V12.2297H35.7761V9.25977Z" fill="#BABEC2"/>
<path d="M38.7461 9.25977H35.7761V12.2297H38.7461V9.25977Z" fill="#49494C"/>
<path d="M41.716 9.25977H38.7461V12.2297H41.716V9.25977Z" fill="#08090A"/>
<path d="M26.8837 6.28979H23.9138V9.25973H26.8837V6.28979Z" fill="#B7BABF"/>
<path d="M29.8537 6.28979H26.8838V9.25973H29.8537V6.28979Z" fill="#D2D4D7"/>
<path d="M32.8237 6.28979H29.8538V9.25973H32.8237V6.28979Z" fill="#B7BABF"/>
<path d="M35.7761 6.28979H32.8062V9.25973H35.7761V6.28979Z" fill="#464749"/>
<path d="M29.8537 3.3374H26.8838V6.30733H29.8537V3.3374Z" fill="#9B9DA1"/>
<path d="M32.8237 3.3374H29.8538V6.30733H32.8237V3.3374Z" fill="#616264"/>
<path d="M44.6684 12.2297H41.6985V15.1997H44.6684V12.2297Z" fill="#020203"/>
<path d="M41.716 9.25977H38.7461V12.2297H41.716V9.25977Z" fill="#020203"/>
<path d="M38.7461 6.28979H35.7761V9.25973H38.7461V6.28979Z" fill="#020203"/>
<path d="M35.7761 3.3374H32.8062V6.30733H35.7761V3.3374Z" fill="#020203"/>
<path d="M47.6384 12.2297H44.6685V15.1997H47.6384V12.2297Z" fill="#020203"/>
<path d="M50.6084 12.2297H47.6384V15.1997H50.6084V12.2297Z" fill="#020203"/>
<path d="M53.5608 12.2297H50.5908V15.1997H53.5608V12.2297Z" fill="#020203"/>
<path d="M44.6684 18.1521H41.6985V21.122H44.6684V18.1521Z" fill="#020203"/>
<path d="M47.6384 18.1521H44.6685V21.122H47.6384V18.1521Z" fill="#020203"/>
<path d="M50.6084 18.1521H47.6384V21.122H50.6084V18.1521Z" fill="#020203"/>
<path d="M53.5608 18.1521H50.5908V21.122H53.5608V18.1521Z" fill="#020203"/>
<path d="M56.5307 15.1821H53.5608V18.1521H56.5307V15.1821Z" fill="#020203"/>
<path d="M56.5307 83.6477H53.5608V86.6176H56.5307V83.6477Z" fill="#020203"/>
<path d="M56.5307 32.9668H53.5608V80.6779H56.5307V32.9668Z" fill="#020203"/>
<path d="M56.5307 80.678H53.5608V83.6479H56.5307V80.678Z" fill="#020203"/>
<path d="M56.5307 30.0144H53.5608V32.9843H56.5307V30.0144Z" fill="#020203"/>
<path d="M56.5307 27.0444H53.5608V30.0144H56.5307V27.0444Z" fill="#020203"/>
<path d="M56.5307 24.0745H53.5608V27.0444H56.5307V24.0745Z" fill="#020203"/>
<path d="M53.5608 21.1221H50.5908V24.092H53.5608V21.1221Z" fill="#020203"/>
<path d="M47.6384 89.5701H44.6685V92.54H47.6384V89.5701Z" fill="#020203"/>
<path d="M50.6084 89.5701H47.6384V92.54H50.6084V89.5701Z" fill="#020203"/>
<path d="M53.5608 86.6177H50.5908V89.5876H53.5608V86.6177Z" fill="#020203"/>
<path d="M17.9914 92.54H15.0215V95.51H17.9914V92.54Z" fill="#020203"/>
<path d="M20.9614 92.54H17.9915V95.51H20.9614V92.54Z" fill="#020203"/>
<path d="M23.9314 92.54H20.9614V95.51H23.9314V92.54Z" fill="#020203"/>
<path d="M26.8837 92.54H23.9138V95.51H26.8837V92.54Z" fill="#020203"/>
<path d="M29.8537 92.54H26.8838V95.51H29.8537V92.54Z" fill="#020203"/>
<path d="M32.8237 92.54H29.8538V95.51H32.8237V92.54Z" fill="#020203"/>
<path d="M35.7761 92.54H32.8062V95.51H35.7761V92.54Z" fill="#020203"/>
<path d="M38.7461 92.54H35.7761V95.51H38.7461V92.54Z" fill="#020203"/>
<path d="M41.716 92.54H38.7461V95.51H41.716V92.54Z" fill="#020203"/>
<path d="M44.6684 92.54H41.6985V95.51H44.6684V92.54Z" fill="#020203"/>
<path d="M6.12911 18.1521H3.15918V21.122H6.12911V18.1521Z" fill="#020203"/>
<path d="M9.09908 18.1521H6.12915V21.122H9.09908V18.1521Z" fill="#020203"/>
<path d="M12.0691 18.1521H9.09912V21.122H12.0691V18.1521Z" fill="#020203"/>
<path d="M3.17672 27.0444H0.206787V30.0144H3.17672V27.0444Z" fill="#020203"/>
<path d="M3.17672 24.0745H0.206787V27.0444H3.17672V24.0745Z" fill="#020203"/>
<path d="M3.17672 21.1221H0.206787V24.092H3.17672V21.1221Z" fill="#020203"/>
<path d="M32.8237 0.367432H29.8538V3.33736H32.8237V0.367432Z" fill="#020203"/>
<path d="M26.8837 3.3374H23.9138V6.30733H26.8837V3.3374Z" fill="#616264"/>
<path d="M29.8537 0.367432H26.8838V3.33736H29.8537V0.367432Z" fill="#020203"/>
<path d="M15.039 92.54H12.0691V95.51H15.039V92.54Z" fill="#020203"/>
<path d="M9.09908 89.5701H6.12915V92.54H9.09908V89.5701Z" fill="#020203"/>
<path d="M12.0691 89.5701H9.09912V92.54H12.0691V89.5701Z" fill="#020203"/>
<path d="M23.9314 6.28979H20.9614V9.25973H23.9314V6.28979Z" fill="#464749"/>
</svg>
