<svg width="92" height="96" viewBox="0 0 92 96" fill="none" xmlns="http://www.w3.org/2000/svg">
<path d="M13.9684 87.1245H11.1907V89.9023H13.9684V87.1245Z" fill="#BCBEC1"/>
<path d="M16.7463 87.1245H13.9685V89.9023H16.7463V87.1245Z" fill="#E8E7E7"/>
<path d="M19.5239 87.1245H16.7461V89.9023H19.5239V87.1245Z" fill="#E8E7E7"/>
<path d="M22.3193 87.1245H19.5415V89.9023H22.3193V87.1245Z" fill="#FAFBFB"/>
<path d="M25.0968 87.1245H22.3191V89.9023H25.0968V87.1245Z" fill="#FAFBFB"/>
<path d="M27.8923 87.1245H25.1145V89.9023H27.8923V87.1245Z" fill="#FAFBFB"/>
<path d="M30.6698 87.1245H27.8921V89.9023H30.6698V87.1245Z" fill="#FAFBFB"/>
<path d="M33.4653 87.1245H30.6875V89.9023H33.4653V87.1245Z" fill="#D3D7DA"/>
<path d="M36.2428 87.1245H33.4651V89.9023H36.2428V87.1245Z" fill="#C4C7CC"/>
<path d="M39.038 87.1245H36.2603V89.9023H39.038V87.1245Z" fill="#9CA0A5"/>
<path d="M41.8158 87.1245H39.0381V89.9023H41.8158V87.1245Z" fill="#424446"/>
<path d="M44.5937 87.1245H41.8159V89.9023H44.5937V87.1245Z" fill="#2F3132"/>
<path d="M47.3888 87.1245H44.6111V89.9023H47.3888V87.1245Z" fill="#7A7D80"/>
<path d="M50.1667 87.1245H47.3889V89.9023H50.1667V87.1245Z" fill="#616366"/>
<path d="M52.9618 87.1245H50.1841V89.9023H52.9618V87.1245Z" fill="#0E0F0F"/>
<path d="M55.7397 87.1245H52.9619V89.9023H55.7397V87.1245Z" fill="#7A7D82"/>
<path d="M58.5348 87.1245H55.7571V89.9023H58.5348V87.1245Z" fill="#868B8F"/>
<path d="M61.3127 87.1245H58.5349V89.9023H61.3127V87.1245Z" fill="#7A7D82"/>
<path d="M13.9684 81.5515H11.1907V84.3293H13.9684V81.5515Z" fill="white"/>
<path d="M16.7463 81.5515H13.9685V84.3293H16.7463V81.5515Z" fill="white"/>
<path d="M19.5239 81.5515H16.7461V84.3293H19.5239V81.5515Z" fill="white"/>
<path d="M22.3193 81.5515H19.5415V84.3293H22.3193V81.5515Z" fill="#A7A9AB"/>
<path d="M25.0968 81.5515H22.3191V84.3293H25.0968V81.5515Z" fill="#B3B7BB"/>
<path d="M27.8923 81.5515H25.1145V84.3293H27.8923V81.5515Z" fill="#CFD1D4"/>
<path d="M30.6698 81.5515H27.8921V84.3293H30.6698V81.5515Z" fill="#F5F6F7"/>
<path d="M33.4653 81.5515H30.6875V84.3293H33.4653V81.5515Z" fill="#D7D9DB"/>
<path d="M36.2428 81.5515H33.4651V84.3293H36.2428V81.5515Z" fill="#A7ABAF"/>
<path d="M39.038 81.5515H36.2603V84.3293H39.038V81.5515Z" fill="#484A4C"/>
<path d="M41.8158 81.5515H39.0381V84.3293H41.8158V81.5515Z" fill="#2E2F30"/>
<path d="M44.5937 81.5515H41.8159V84.3293H44.5937V81.5515Z" fill="#707578"/>
<path d="M47.3888 81.5515H44.6111V84.3293H47.3888V81.5515Z" fill="#606466"/>
<path d="M50.1667 81.5515H47.3889V84.3293H50.1667V81.5515Z" fill="#1E1F1F"/>
<path d="M52.9618 81.5515H50.1841V84.3293H52.9618V81.5515Z" fill="#898C90"/>
<path d="M55.7397 81.5515H52.9619V84.3293H55.7397V81.5515Z" fill="#979B9F"/>
<path d="M58.5348 81.5515H55.7571V84.3293H58.5348V81.5515Z" fill="#979B9F"/>
<path d="M61.3127 81.5515H58.5349V84.3293H61.3127V81.5515Z" fill="#2A2B2C"/>
<path d="M8.39544 81.5515H5.61768V84.3293H8.39544V81.5515Z" fill="#BFC3C7"/>
<path d="M11.1733 81.5515H8.39551V84.3293H11.1733V81.5515Z" fill="#DFE1E4"/>
<path d="M13.9684 84.3293H11.1907V87.1071H13.9684V84.3293Z" fill="#F8F7F8"/>
<path d="M16.7463 84.3293H13.9685V87.1071H16.7463V84.3293Z" fill="white"/>
<path d="M19.5239 84.3293H16.7461V87.1071H19.5239V84.3293Z" fill="white"/>
<path d="M22.3193 84.3293H19.5415V87.1071H22.3193V84.3293Z" fill="white"/>
<path d="M25.0968 84.3293H22.3191V87.1071H25.0968V84.3293Z" fill="#A0A2A5"/>
<path d="M27.8923 84.3293H25.1145V87.1071H27.8923V84.3293Z" fill="#F1F1F2"/>
<path d="M30.6698 84.3293H27.8921V87.1071H30.6698V84.3293Z" fill="white"/>
<path d="M33.4653 84.3293H30.6875V87.1071H33.4653V84.3293Z" fill="#D3D7DA"/>
<path d="M36.2428 84.3293H33.4651V87.1071H36.2428V84.3293Z" fill="#C4C7CC"/>
<path d="M39.038 84.3293H36.2603V87.1071H39.038V84.3293Z" fill="#6A6C6E"/>
<path d="M41.8158 84.3293H39.0381V87.1071H41.8158V84.3293Z" fill="#0C0D0D"/>
<path d="M44.5937 84.3293H41.8159V87.1071H44.5937V84.3293Z" fill="#333536"/>
<path d="M47.3888 84.3293H44.6111V87.1071H47.3888V84.3293Z" fill="#686A6D"/>
<path d="M50.1667 84.3293H47.3889V87.1071H50.1667V84.3293Z" fill="#2A2C2D"/>
<path d="M52.9618 84.3293H50.1841V87.1071H52.9618V84.3293Z" fill="#787C80"/>
<path d="M55.7397 84.3293H52.9619V87.1071H55.7397V84.3293Z" fill="#B9BDC1"/>
<path d="M58.5348 84.3293H55.7571V87.1071H58.5348V84.3293Z" fill="#B9BDC1"/>
<path d="M61.3127 84.3293H58.5349V87.1071H61.3127V84.3293Z" fill="#898C90"/>
<path d="M8.39544 84.3293H5.61768V87.1071H8.39544V84.3293Z" fill="#949698"/>
<path d="M11.1733 84.3293H8.39551V87.1071H11.1733V84.3293Z" fill="#DEDEDE"/>
<path d="M13.9684 78.7563H11.1907V81.5341H13.9684V78.7563Z" fill="#D9DADC"/>
<path d="M16.7463 78.7563H13.9685V81.5341H16.7463V78.7563Z" fill="#DCDEE0"/>
<path d="M19.5239 78.7563H16.7461V81.5341H19.5239V78.7563Z" fill="white"/>
<path d="M22.3193 78.7563H19.5415V81.5341H22.3193V78.7563Z" fill="#868B8F"/>
<path d="M25.0968 78.7563H22.3191V81.5341H25.0968V78.7563Z" fill="#C1C5C9"/>
<path d="M27.8923 78.7563H25.1145V81.5341H27.8923V78.7563Z" fill="#C1C5C9"/>
<path d="M30.6698 78.7563H27.8921V81.5341H30.6698V78.7563Z" fill="#F2F3F4"/>
<path d="M33.4653 78.7563H30.6875V81.5341H33.4653V78.7563Z" fill="#D7D9DB"/>
<path d="M36.2428 78.7563H33.4651V81.5341H36.2428V78.7563Z" fill="#67696C"/>
<path d="M39.038 78.7563H36.2603V81.5341H39.038V78.7563Z" fill="#454749"/>
<path d="M41.8158 78.7563H39.0381V81.5341H41.8158V78.7563Z" fill="#6D7275"/>
<path d="M44.5937 78.7563H41.8159V81.5341H44.5937V78.7563Z" fill="#868B8F"/>
<path d="M47.3888 78.7563H44.6111V81.5341H47.3888V78.7563Z" fill="#606466"/>
<path d="M50.1667 78.7563H47.3889V81.5341H50.1667V78.7563Z" fill="#252627"/>
<path d="M52.9618 78.7563H50.1841V81.5341H52.9618V78.7563Z" fill="#ABAFB3"/>
<path d="M55.7397 78.7563H52.9619V81.5341H55.7397V78.7563Z" fill="#868B8F"/>
<path d="M58.5348 78.7563H55.7571V81.5341H58.5348V78.7563Z" fill="#868B8F"/>
<path d="M61.3127 78.7563H58.5349V81.5341H61.3127V78.7563Z" fill="#060607"/>
<path d="M8.39544 78.7563H5.61768V81.5341H8.39544V78.7563Z" fill="#C4C7CC"/>
<path d="M11.1733 78.7563H8.39551V81.5341H11.1733V78.7563Z" fill="#CBCDD1"/>
<path d="M13.9684 47.939H11.1907V78.7738H13.9684V47.939Z" fill="#D9DADC"/>
<path d="M16.7463 47.939H13.9685V78.7738H16.7463V47.939Z" fill="#DCDEE0"/>
<path d="M19.5239 47.939H16.7461V78.7738H19.5239V47.939Z" fill="white"/>
<path d="M22.3193 47.939H19.5415V78.7738H22.3193V47.939Z" fill="#868B8F"/>
<path d="M25.0968 47.939H22.3191V78.7738H25.0968V47.939Z" fill="#C1C5C9"/>
<path d="M27.8923 47.939H25.1145V78.7738H27.8923V47.939Z" fill="#C1C5C9"/>
<path d="M30.6698 47.939H27.8921V78.7738H30.6698V47.939Z" fill="#F2F3F4"/>
<path d="M33.4653 47.939H30.6875V78.7738H33.4653V47.939Z" fill="#D7D9DB"/>
<path d="M36.2428 47.939H33.4651V78.7738H36.2428V47.939Z" fill="#4A4D4E"/>
<path d="M39.038 47.939H36.2603V78.7738H39.038V47.939Z" fill="#47484A"/>
<path d="M41.8158 75.9785H39.0381V78.7563H41.8158V75.9785Z" fill="#868B8F"/>
<path d="M44.5937 75.9785H41.8159V78.7563H44.5937V75.9785Z" fill="#696D70"/>
<path d="M47.3888 75.9785H44.6111V78.7563H47.3888V75.9785Z" fill="#404243"/>
<path d="M50.1667 75.9785H47.3889V78.7563H50.1667V75.9785Z" fill="#686A6C"/>
<path d="M52.9618 75.9785H50.1841V78.7563H52.9618V75.9785Z" fill="#BCC0C4"/>
<path d="M55.7397 75.9785H52.9619V78.7563H55.7397V75.9785Z" fill="#83868A"/>
<path d="M58.5348 75.9785H55.7571V78.7563H58.5348V75.9785Z" fill="#3A3B3D"/>
<path d="M61.3127 75.9785H58.5349V78.7563H61.3127V75.9785Z" fill="#060607"/>
<path d="M8.39544 47.939H5.61768V78.7738H8.39544V47.939Z" fill="#B7BABF"/>
<path d="M11.1733 47.939H8.39551V78.7738H11.1733V47.939Z" fill="#ABAFB3"/>
<path d="M13.9684 45.1438H11.1907V47.9216H13.9684V45.1438Z" fill="#CDCFD3"/>
<path d="M16.7463 45.1438H13.9685V47.9216H16.7463V45.1438Z" fill="#F2F3F4"/>
<path d="M19.5239 45.1438H16.7461V47.9216H19.5239V45.1438Z" fill="white"/>
<path d="M22.3193 45.1438H19.5415V47.9216H22.3193V45.1438Z" fill="#E2E3E3"/>
<path d="M25.0968 45.1438H22.3191V47.9216H25.0968V45.1438Z" fill="#989CA0"/>
<path d="M27.8923 45.1438H25.1145V47.9216H27.8923V45.1438Z" fill="#E4E4E6"/>
<path d="M30.6698 45.1438H27.8921V47.9216H30.6698V45.1438Z" fill="#D9DBDD"/>
<path d="M33.4653 45.1438H30.6875V47.9216H33.4653V45.1438Z" fill="#C8CBCF"/>
<path d="M36.2428 45.1438H33.4651V47.9216H36.2428V45.1438Z" fill="#8A8D90"/>
<path d="M39.038 45.1438H36.2603V47.9216H39.038V45.1438Z" fill="#424345"/>
<path d="M41.8158 45.1438H39.0381V47.9216H41.8158V45.1438Z" fill="#707374"/>
<path d="M44.5937 45.1438H41.8159V47.9216H44.5937V45.1438Z" fill="#CDCFD3"/>
<path d="M47.3888 45.1438H44.6111V47.9216H47.3888V45.1438Z" fill="#B3B7BB"/>
<path d="M50.1667 45.1438H47.3889V47.9216H50.1667V45.1438Z" fill="#A2A3A6"/>
<path d="M8.39544 45.1438H5.61768V47.9216H8.39544V45.1438Z" fill="#AEB2B6"/>
<path d="M11.1733 45.1438H8.39551V47.9216H11.1733V45.1438Z" fill="#989C9F"/>
<path d="M13.9684 42.366H11.1907V45.1437H13.9684V42.366Z" fill="#C0C4C8"/>
<path d="M16.7463 42.366H13.9685V45.1437H16.7463V42.366Z" fill="#AFB1B5"/>
<path d="M19.5239 42.366H16.7461V45.1437H19.5239V42.366Z" fill="#AFB1B5"/>
<path d="M22.3193 42.366H19.5415V45.1437H22.3193V42.366Z" fill="#AFB1B5"/>
<path d="M25.0968 42.366H22.3191V45.1437H25.0968V42.366Z" fill="#343436"/>
<path d="M27.8923 42.366H25.1145V45.1437H27.8923V42.366Z" fill="#505051"/>
<path d="M30.6698 42.366H27.8921V45.1437H30.6698V42.366Z" fill="#464748"/>
<path d="M33.4653 42.366H30.6875V45.1437H33.4653V42.366Z" fill="#414244"/>
<path d="M36.2428 42.366H33.4651V45.1437H36.2428V42.366Z" fill="#343637"/>
<path d="M39.038 42.366H36.2603V45.1437H39.038V42.366Z" fill="#171718"/>
<path d="M41.8158 42.366H39.0381V45.1437H41.8158V42.366Z" fill="#47494A"/>
<path d="M44.5937 42.366H41.8159V45.1437H44.5937V42.366Z" fill="#ABAFB3"/>
<path d="M47.3888 42.366H44.6111V45.1437H47.3888V42.366Z" fill="#BDC1C5"/>
<path d="M50.1667 42.366H47.3889V45.1437H50.1667V42.366Z" fill="#AFB3B7"/>
<path d="M8.39544 42.366H5.61768V45.1437H8.39544V42.366Z" fill="#BCC0C4"/>
<path d="M11.1733 42.366H8.39551V45.1437H11.1733V42.366Z" fill="#B4B8BC"/>
<path d="M13.9684 31.22H11.1907V33.9977H13.9684V31.22Z" fill="#D8D9DA"/>
<path d="M16.7463 31.22H13.9685V33.9977H16.7463V31.22Z" fill="#CDCED0"/>
<path d="M19.5414 31.22H16.7637V33.9977H19.5414V31.22Z" fill="#838587"/>
<path d="M22.3193 31.22H19.5415V33.9977H22.3193V31.22Z" fill="#838587"/>
<path d="M25.1144 31.22H22.3367V33.9977H25.1144V31.22Z" fill="#838587"/>
<path d="M27.8923 31.22H25.1145V33.9977H27.8923V31.22Z" fill="#838587"/>
<path d="M30.6874 31.22H27.9097V33.9977H30.6874V31.22Z" fill="#838587"/>
<path d="M33.4653 31.22H30.6875V33.9977H33.4653V31.22Z" fill="#838587"/>
<path d="M36.2428 31.22H33.4651V33.9977H36.2428V31.22Z" fill="#838587"/>
<path d="M39.038 31.22H36.2603V33.9977H39.038V31.22Z" fill="#838587"/>
<path d="M41.8158 31.22H39.0381V33.9977H41.8158V31.22Z" fill="#83878A"/>
<path d="M44.611 31.22H41.8333V33.9977H44.611V31.22Z" fill="#868B8F"/>
<path d="M47.3888 31.22H44.6111V33.9977H47.3888V31.22Z" fill="#868B8F"/>
<path d="M50.184 31.22H47.4062V33.9977H50.184V31.22Z" fill="#686D70"/>
<path d="M8.39544 31.22H5.61768V33.9977H8.39544V31.22Z" fill="#D8D9DA"/>
<path d="M11.1733 31.22H8.39551V33.9977H11.1733V31.22Z" fill="#D8D9DA"/>
<path d="M13.9684 39.5708H11.1907V42.3486H13.9684V39.5708Z" fill="#A2A5A9"/>
<path d="M16.7463 39.5708H13.9685V42.3486H16.7463V39.5708Z" fill="#ABAFB3"/>
<path d="M19.5239 39.5708H16.7461V42.3486H19.5239V39.5708Z" fill="#ABAFB3"/>
<path d="M22.3193 39.5708H19.5415V42.3486H22.3193V39.5708Z" fill="#ABAFB3"/>
<path d="M25.0968 39.5708H22.3191V42.3486H25.0968V39.5708Z" fill="#77797D"/>
<path d="M27.8923 39.5708H25.1145V42.3486H27.8923V39.5708Z" fill="#747679"/>
<path d="M30.6698 39.5708H27.8921V42.3486H30.6698V39.5708Z" fill="#747679"/>
<path d="M33.4653 39.5708H30.6875V42.3486H33.4653V39.5708Z" fill="#747679"/>
<path d="M36.2428 39.5708H33.4651V42.3486H36.2428V39.5708Z" fill="#5E6163"/>
<path d="M39.038 39.5708H36.2603V42.3486H39.038V39.5708Z" fill="#515356"/>
<path d="M41.8158 39.5708H39.0381V42.3486H41.8158V39.5708Z" fill="#454749"/>
<path d="M44.5937 39.5708H41.8159V42.3486H44.5937V39.5708Z" fill="#606264"/>
<path d="M47.3888 39.5708H44.6111V42.3486H47.3888V39.5708Z" fill="#ABAEB2"/>
<path d="M50.1667 39.5708H47.3889V42.3486H50.1667V39.5708Z" fill="#BFC3C7"/>
<path d="M8.39544 39.5708H5.61768V42.3486H8.39544V39.5708Z" fill="#9FA3A7"/>
<path d="M11.1733 39.5708H8.39551V42.3486H11.1733V39.5708Z" fill="#9FA3A7"/>
<path d="M13.9684 36.793H11.1907V39.5707H13.9684V36.793Z" fill="#ABAFB3"/>
<path d="M16.7463 36.793H13.9685V39.5707H16.7463V36.793Z" fill="#C4C7CC"/>
<path d="M19.5239 36.793H16.7461V39.5707H19.5239V36.793Z" fill="#C4C7CC"/>
<path d="M22.3193 36.793H19.5415V39.5707H22.3193V36.793Z" fill="#C4C7CC"/>
<path d="M25.0968 36.793H22.3191V39.5707H25.0968V36.793Z" fill="#C4C7CC"/>
<path d="M27.8923 36.793H25.1145V39.5707H27.8923V36.793Z" fill="#C4C7CC"/>
<path d="M30.6698 36.793H27.8921V39.5707H30.6698V36.793Z" fill="#C4C7CC"/>
<path d="M33.4653 36.793H30.6875V39.5707H33.4653V36.793Z" fill="#C4C7CC"/>
<path d="M36.2428 36.793H33.4651V39.5707H36.2428V36.793Z" fill="#9DA1A5"/>
<path d="M39.038 36.793H36.2603V39.5707H39.038V36.793Z" fill="#868B8F"/>
<path d="M41.8158 36.793H39.0381V39.5707H41.8158V36.793Z" fill="#686C6F"/>
<path d="M44.5937 36.793H41.8159V39.5707H44.5937V36.793Z" fill="#444548"/>
<path d="M47.3888 36.793H44.6111V39.5707H47.3888V36.793Z" fill="#4D4F51"/>
<path d="M50.1667 36.793H47.3889V39.5707H50.1667V36.793Z" fill="#626466"/>
<path d="M8.39544 36.793H5.61768V39.5707H8.39544V36.793Z" fill="#686A6C"/>
<path d="M11.1733 36.793H8.39551V39.5707H11.1733V36.793Z" fill="#A4A8AC"/>
<path d="M13.9684 34.0151H11.1907V36.7929H13.9684V34.0151Z" fill="#DDDFE0"/>
<path d="M16.7463 34.0151H13.9685V36.7929H16.7463V34.0151Z" fill="#DADDDF"/>
<path d="M19.5239 34.0151H16.7461V36.7929H19.5239V34.0151Z" fill="#C4C7CC"/>
<path d="M22.3193 34.0151H19.5415V36.7929H22.3193V34.0151Z" fill="#C4C7CC"/>
<path d="M25.0968 34.0151H22.3191V36.7929H25.0968V34.0151Z" fill="#C4C7CC"/>
<path d="M27.8923 34.0151H25.1145V36.7929H27.8923V34.0151Z" fill="#C4C7CC"/>
<path d="M30.6698 34.0151H27.8921V36.7929H30.6698V34.0151Z" fill="#C4C7CC"/>
<path d="M33.4653 34.0151H30.6875V36.7929H33.4653V34.0151Z" fill="#C4C7CC"/>
<path d="M36.2428 34.0151H33.4651V36.7929H36.2428V34.0151Z" fill="#AEB2B6"/>
<path d="M39.038 34.0151H36.2603V36.7929H39.038V34.0151Z" fill="#A0A4A8"/>
<path d="M41.8158 34.0151H39.0381V36.7929H41.8158V34.0151Z" fill="#95999D"/>
<path d="M44.5937 34.0151H41.8159V36.7929H44.5937V34.0151Z" fill="#696D70"/>
<path d="M47.3888 34.0151H44.6111V36.7929H47.3888V34.0151Z" fill="#3A3B3D"/>
<path d="M50.1667 34.0151H47.3889V36.7929H50.1667V34.0151Z" fill="#2E2F31"/>
<path d="M8.39544 34.0151H5.61768V36.7929H8.39544V34.0151Z" fill="#7A7E80"/>
<path d="M11.1733 34.0151H8.39551V36.7929H11.1733V34.0151Z" fill="#CBCED1"/>
<path d="M2.82244 31.22H0.0446777V33.9977H2.82244V31.22Z" fill="#47484A"/>
<path d="M5.60027 31.22H2.82251V33.9977H5.60027V31.22Z" fill="#ADAFB2"/>
<path d="M13.9684 28.4421H11.1907V31.2199H13.9684V28.4421Z" fill="#63676A"/>
<path d="M16.7463 28.4421H13.9685V31.2199H16.7463V28.4421Z" fill="#5E6164"/>
<path d="M19.5414 28.4421H16.7637V31.2199H19.5414V28.4421Z" fill="#333435"/>
<path d="M22.3193 28.4421H19.5415V31.2199H22.3193V28.4421Z" fill="#020203"/>
<path d="M25.1144 28.4421H22.3367V31.2199H25.1144V28.4421Z" fill="#404040"/>
<path d="M27.8923 28.4421H25.1145V31.2199H27.8923V28.4421Z" fill="#353637"/>
<path d="M30.6874 28.4421H27.9097V31.2199H30.6874V28.4421Z" fill="#333436"/>
<path d="M33.4653 28.4421H30.6875V31.2199H33.4653V28.4421Z" fill="#101010"/>
<path d="M36.2428 28.4421H33.4651V31.2199H36.2428V28.4421Z" fill="#202021"/>
<path d="M39.038 28.4421H36.2603V31.2199H39.038V28.4421Z" fill="#2C2D2E"/>
<path d="M41.8158 28.4421H39.0381V31.2199H41.8158V28.4421Z" fill="#404244"/>
<path d="M44.611 28.4421H41.8333V31.2199H44.611V28.4421Z" fill="#63676A"/>
<path d="M47.3888 28.4421H44.6111V31.2199H47.3888V28.4421Z" fill="#63676A"/>
<path d="M50.184 28.4421H47.4062V31.2199H50.184V28.4421Z" fill="#55595B"/>
<path d="M8.39544 28.4421H5.61768V31.2199H8.39544V28.4421Z" fill="#D3D3D4"/>
<path d="M11.1733 28.4421H8.39551V31.2199H11.1733V28.4421Z" fill="#A4A4A4"/>
<path d="M2.82244 28.4421H0.0446777V31.2199H2.82244V28.4421Z" fill="#58595B"/>
<path d="M5.60027 28.4421H2.82251V31.2199H5.60027V28.4421Z" fill="#C1C3C5"/>
<path d="M52.9618 28.4421H50.1841V31.2199H52.9618V28.4421Z" fill="#232425"/>
<path d="M55.757 28.4421H52.9792V31.2199H55.757V28.4421Z" fill="#212223"/>
<path d="M13.9684 25.647H11.1907V28.4247H13.9684V25.647Z" fill="#060607"/>
<path d="M16.7636 25.647H13.9858V28.4247H16.7636V25.647Z" fill="#343536"/>
<path d="M19.5414 25.647H16.7637V28.4247H19.5414V25.647Z" fill="#C0C4C8"/>
<path d="M22.3193 25.647H19.5415V28.4247H22.3193V25.647Z" fill="#202122"/>
<path d="M25.1144 25.647H22.3367V28.4247H25.1144V25.647Z" fill="#CDCCCC"/>
<path d="M27.8923 25.647H25.1145V28.4247H27.8923V25.647Z" fill="#CFD1D4"/>
<path d="M30.6874 25.647H27.9097V28.4247H30.6874V25.647Z" fill="#CED0D4"/>
<path d="M33.4653 25.647H30.6875V28.4247H33.4653V25.647Z" fill="#57585A"/>
<path d="M36.2604 25.647H33.4827V28.4247H36.2604V25.647Z" fill="#717477"/>
<path d="M39.038 25.647H36.2603V28.4247H39.038V25.647Z" fill="#9A9EA0"/>
<path d="M41.8334 25.647H39.0557V28.4247H41.8334V25.647Z" fill="#5E6164"/>
<path d="M44.611 25.647H41.8333V28.4247H44.611V25.647Z" fill="#202122"/>
<path d="M47.3888 25.647H44.6111V28.4247H47.3888V25.647Z" fill="#171818"/>
<path d="M50.184 25.647H47.4062V28.4247H50.184V25.647Z" fill="#18191A"/>
<path d="M8.39544 25.647H5.61768V28.4247H8.39544V25.647Z" fill="#545759"/>
<path d="M11.1906 25.647H8.41284V28.4247H11.1906V25.647Z" fill="#171818"/>
<path d="M2.82244 25.647H0.0446777V28.4247H2.82244V25.647Z" fill="#7B7C7D"/>
<path d="M5.60027 25.647H2.82251V28.4247H5.60027V25.647Z" fill="#B3B6B8"/>
<path d="M52.9618 25.647H50.1841V28.4247H52.9618V25.647Z" fill="#737679"/>
<path d="M55.757 25.647H52.9792V28.4247H55.757V25.647Z" fill="#808387"/>
<path d="M13.9684 20.074H11.1907V22.8517H13.9684V20.074Z" fill="#323232"/>
<path d="M16.7636 20.074H13.9858V22.8517H16.7636V20.074Z" fill="#F9F9FA"/>
<path d="M19.5414 20.074H16.7637V22.8517H19.5414V20.074Z" fill="#C4C7CC"/>
<path d="M22.3366 20.074H19.5588V22.8517H22.3366V20.074Z" fill="#C4C7CC"/>
<path d="M25.1144 20.074H22.3367V22.8517H25.1144V20.074Z" fill="#C4C7CC"/>
<path d="M27.9096 20.074H25.1318V22.8517H27.9096V20.074Z" fill="#202021"/>
<path d="M30.6874 20.074H27.9097V22.8517H30.6874V20.074Z" fill="#C6C6C6"/>
<path d="M33.4653 20.074H30.6875V22.8517H33.4653V20.074Z" fill="#FEFEFE"/>
<path d="M36.2604 20.074H33.4827V22.8517H36.2604V20.074Z" fill="#FEFEFE"/>
<path d="M39.038 20.074H36.2603V22.8517H39.038V20.074Z" fill="#C1C3C5"/>
<path d="M41.8334 20.074H39.0557V22.8517H41.8334V20.074Z" fill="#A2A6AA"/>
<path d="M44.611 20.074H41.8333V22.8517H44.611V20.074Z" fill="#C4C7CC"/>
<path d="M47.4064 20.074H44.6287V22.8517H47.4064V20.074Z" fill="#8C8E91"/>
<path d="M50.184 20.074H47.4062V22.8517H50.184V20.074Z" fill="#020203"/>
<path d="M8.39544 20.074H5.61768V22.8517H8.39544V20.074Z" fill="#C4C7CC"/>
<path d="M11.1906 20.074H8.41284V22.8517H11.1906V20.074Z" fill="#8C8E91"/>
<path d="M2.82244 20.074H0.0446777V22.8517H2.82244V20.074Z" fill="#020203"/>
<path d="M5.6176 20.074H2.83984V22.8517H5.6176V20.074Z" fill="#595B5D"/>
<path d="M52.9794 20.074H50.2017V22.8517H52.9794V20.074Z" fill="#020203"/>
<path d="M55.757 20.074H52.9792V22.8517H55.757V20.074Z" fill="#020203"/>
<path d="M13.9684 22.8691H11.1907V25.6469H13.9684V22.8691Z" fill="#262728"/>
<path d="M16.7636 22.8691H13.9858V25.6469H16.7636V22.8691Z" fill="#C8CCCF"/>
<path d="M19.5414 22.8691H16.7637V25.6469H19.5414V22.8691Z" fill="#C4C7CC"/>
<path d="M22.3366 22.8691H19.5588V25.6469H22.3366V22.8691Z" fill="#C4C7CC"/>
<path d="M25.1144 22.8691H22.3367V25.6469H25.1144V22.8691Z" fill="#1C1D1D"/>
<path d="M27.9096 22.8691H25.1318V25.6469H27.9096V22.8691Z" fill="#C9C9C9"/>
<path d="M30.6874 22.8691H27.9097V25.6469H30.6874V22.8691Z" fill="#FBFBFB"/>
<path d="M33.4653 22.8691H30.6875V25.6469H33.4653V22.8691Z" fill="#DADCDE"/>
<path d="M36.2604 22.8691H33.4827V25.6469H36.2604V22.8691Z" fill="#5C5E5F"/>
<path d="M39.038 22.8691H36.2603V25.6469H39.038V22.8691Z" fill="#707273"/>
<path d="M41.8334 22.8691H39.0557V25.6469H41.8334V22.8691Z" fill="#C1C5C9"/>
<path d="M44.611 22.8691H41.8333V25.6469H44.611V22.8691Z" fill="#C4C7CC"/>
<path d="M47.4064 22.8691H44.6287V25.6469H47.4064V22.8691Z" fill="#8C8E91"/>
<path d="M50.184 22.8691H47.4062V25.6469H50.184V22.8691Z" fill="#020203"/>
<path d="M8.39544 22.8691H5.61768V25.6469H8.39544V22.8691Z" fill="#535456"/>
<path d="M11.1906 22.8691H8.41284V25.6469H11.1906V22.8691Z" fill="#8C8E91"/>
<path d="M2.82244 22.8691H0.0446777V25.6469H2.82244V22.8691Z" fill="#404243"/>
<path d="M5.6176 22.8691H2.83984V25.6469H5.6176V22.8691Z" fill="#4B4E50"/>
<path d="M52.9794 22.8691H50.2017V25.6469H52.9794V22.8691Z" fill="#020203"/>
<path d="M55.757 22.8691H52.9792V25.6469H55.757V22.8691Z" fill="#74787A"/>
<path d="M13.9684 17.2961H11.1907V20.0739H13.9684V17.2961Z" fill="#323232"/>
<path d="M16.7636 17.2961H13.9858V20.0739H16.7636V17.2961Z" fill="#F9F9FA"/>
<path d="M19.5414 17.2961H16.7637V20.0739H19.5414V17.2961Z" fill="white"/>
<path d="M22.3366 17.2961H19.5588V20.0739H22.3366V17.2961Z" fill="#C4C7CC"/>
<path d="M25.1144 17.2961H22.3367V20.0739H25.1144V17.2961Z" fill="#C4C7CC"/>
<path d="M27.9096 17.2961H25.1318V20.0739H27.9096V17.2961Z" fill="#C4C7CC"/>
<path d="M30.6874 17.2961H27.9097V20.0739H30.6874V17.2961Z" fill="#2B2C2C"/>
<path d="M33.4653 17.2961H30.6875V20.0739H33.4653V17.2961Z" fill="#B0B0B0"/>
<path d="M36.2604 17.2961H33.4827V20.0739H36.2604V17.2961Z" fill="#FEFEFE"/>
<path d="M39.038 17.2961H36.2603V20.0739H39.038V17.2961Z" fill="#C1C3C5"/>
<path d="M41.8334 17.2961H39.0557V20.0739H41.8334V17.2961Z" fill="#A2A6AA"/>
<path d="M44.611 17.2961H41.8333V20.0739H44.611V17.2961Z" fill="#7A7B7E"/>
<path d="M47.4064 17.2961H44.6287V20.0739H47.4064V17.2961Z" fill="#38393A"/>
<path d="M50.184 17.2961H47.4062V20.0739H50.184V17.2961Z" fill="#C4C7CC"/>
<path d="M8.39544 17.2961H5.61768V20.0739H8.39544V17.2961Z" fill="#C4C7CC"/>
<path d="M11.1906 17.2961H8.41284V20.0739H11.1906V17.2961Z" fill="#8C8E91"/>
<path d="M2.82244 17.2961H0.0446777V20.0739H2.82244V17.2961Z" fill="#020203"/>
<path d="M5.6176 17.2961H2.83984V20.0739H5.6176V17.2961Z" fill="#595B5D"/>
<path d="M52.9794 17.2961H50.2017V20.0739H52.9794V17.2961Z" fill="#AEB0B4"/>
<path d="M55.757 17.2961H52.9792V20.0739H55.757V17.2961Z" fill="#020203"/>
<path d="M13.9684 14.5186H11.1907V17.2963H13.9684V14.5186Z" fill="#323232"/>
<path d="M16.7636 14.5186H13.9858V17.2963H16.7636V14.5186Z" fill="white"/>
<path d="M19.5414 14.5186H16.7637V17.2963H19.5414V14.5186Z" fill="white"/>
<path d="M22.3366 14.5186H19.5588V17.2963H22.3366V14.5186Z" fill="#C4C7CC"/>
<path d="M25.1144 14.5186H22.3367V17.2963H25.1144V14.5186Z" fill="#C4C7CC"/>
<path d="M27.9096 14.5186H25.1318V17.2963H27.9096V14.5186Z" fill="#C4C7CC"/>
<path d="M30.6874 14.5186H27.9097V17.2963H30.6874V14.5186Z" fill="#B8BCC0"/>
<path d="M33.4653 14.5186H30.6875V17.2963H33.4653V14.5186Z" fill="#464748"/>
<path d="M36.2604 14.5186H33.4827V17.2963H36.2604V14.5186Z" fill="#A5A4A4"/>
<path d="M39.038 14.5186H36.2603V17.2963H39.038V14.5186Z" fill="#FBFCFC"/>
<path d="M41.8334 14.5186H39.0557V17.2963H41.8334V14.5186Z" fill="#8D8D8E"/>
<path d="M44.611 14.5186H41.8333V17.2963H44.611V14.5186Z" fill="#646464"/>
<path d="M47.4064 14.5186H44.6287V17.2963H47.4064V14.5186Z" fill="#E1E2E2"/>
<path d="M50.184 14.5186H47.4062V17.2963H50.184V14.5186Z" fill="#C4C7CC"/>
<path d="M8.39544 14.5186H5.61768V17.2963H8.39544V14.5186Z" fill="#505153"/>
<path d="M11.1906 14.5186H8.41284V17.2963H11.1906V14.5186Z" fill="#8C8E91"/>
<path d="M5.6176 14.5186H2.83984V17.2963H5.6176V14.5186Z" fill="#060607"/>
<path d="M52.9794 14.5186H50.2017V17.2963H52.9794V14.5186Z" fill="#AEB0B4"/>
<path d="M55.757 14.5186H52.9792V17.2963H55.757V14.5186Z" fill="#020203"/>
<path d="M13.9684 11.636H11.1907V14.5186H13.9684V11.636Z" fill="#060607"/>
<path d="M16.7636 11.636H13.9858V14.5186H16.7636V11.636Z" fill="#242424"/>
<path d="M19.5414 11.636H16.7637V14.5186H19.5414V11.636Z" fill="#242424"/>
<path d="M22.3366 11.636H19.5588V14.5186H22.3366V11.636Z" fill="#1D1D1E"/>
<path d="M25.1144 11.636H22.3367V14.5186H25.1144V11.636Z" fill="#1D1D1E"/>
<path d="M27.9096 11.636H25.1318V14.5186H27.9096V11.636Z" fill="#1D1D1E"/>
<path d="M30.6874 11.636H27.9097V14.5186H30.6874V11.636Z" fill="#1D1D1E"/>
<path d="M33.4653 11.636H30.6875V14.5186H33.4653V11.636Z" fill="#080809"/>
<path d="M36.2604 11.636H33.4827V14.5186H36.2604V11.636Z" fill="#171717"/>
<path d="M39.038 11.636H36.2603V14.5186H39.038V11.636Z" fill="#989898"/>
<path d="M41.8334 11.636H39.0557V14.5186H41.8334V11.636Z" fill="#EFEEEE"/>
<path d="M44.611 11.636H41.8333V14.5186H44.611V11.636Z" fill="#E9E8E8"/>
<path d="M47.4064 11.636H44.6287V14.5186H47.4064V11.636Z" fill="#FEFEFE"/>
<path d="M50.184 11.636H47.4062V14.5186H50.184V11.636Z" fill="#C9C8CA"/>
<path d="M11.1906 11.636H8.41284V14.5186H11.1906V11.636Z" fill="#141415"/>
<path d="M16.7636 8.75342H13.9858V11.636H16.7636V8.75342Z" fill="#97989B"/>
<path d="M19.5414 8.75342H16.7637V11.636H19.5414V8.75342Z" fill="#97989B"/>
<path d="M22.3366 8.75342H19.5588V11.636H22.3366V8.75342Z" fill="#97989B"/>
<path d="M25.1144 8.75342H22.3367V11.636H25.1144V8.75342Z" fill="#C4C7CC"/>
<path d="M27.9096 8.75342H25.1318V11.636H27.9096V8.75342Z" fill="#C4C7CC"/>
<path d="M30.6874 8.75342H27.9097V11.636H30.6874V8.75342Z" fill="#C4C7CC"/>
<path d="M33.4653 8.75342H30.6875V11.636H33.4653V8.75342Z" fill="#080809"/>
<path d="M36.2604 8.75342H33.4827V11.636H36.2604V8.75342Z" fill="#171717"/>
<path d="M39.038 8.75342H36.2603V11.636H39.038V8.75342Z" fill="#353535"/>
<path d="M41.8334 8.75342H39.0557V11.636H41.8334V8.75342Z" fill="#A8A8A8"/>
<path d="M44.611 8.75342H41.8333V11.636H44.611V8.75342Z" fill="white"/>
<path d="M47.4064 8.75342H44.6287V11.636H47.4064V8.75342Z" fill="#C8C7C7"/>
<path d="M16.7636 5.97559H13.9858V8.75335H16.7636V5.97559Z" fill="#4D4F51"/>
<path d="M19.5414 5.97559H16.7637V8.75335H19.5414V5.97559Z" fill="#C1C5C9"/>
<path d="M22.3366 5.97559H19.5588V8.75335H22.3366V5.97559Z" fill="#3C3F40"/>
<path d="M25.1144 5.97559H22.3367V8.75335H25.1144V5.97559Z" fill="#030405"/>
<path d="M27.9096 5.97559H25.1318V8.75335H27.9096V5.97559Z" fill="#4F5355"/>
<path d="M30.6874 5.97559H27.9097V8.75335H30.6874V5.97559Z" fill="#7F8084"/>
<path d="M33.4653 5.97559H30.6875V8.75335H33.4653V5.97559Z" fill="#2B2C2C"/>
<path d="M36.2604 5.97559H33.4827V8.75335H36.2604V5.97559Z" fill="#020203"/>
<path d="M39.038 5.97559H36.2603V8.75335H39.038V5.97559Z" fill="#1F1F1F"/>
<path d="M41.8334 5.97559H39.0557V8.75335H41.8334V5.97559Z" fill="#8F8F8F"/>
<path d="M44.611 5.97559H41.8333V8.75335H44.611V5.97559Z" fill="#BCBCBB"/>
<path d="M47.4064 5.97559H44.6287V8.75335H47.4064V5.97559Z" fill="#454545"/>
<path d="M41.8334 3.18042H39.0557V5.95818H41.8334V3.18042Z" fill="#4E4D4D"/>
<path d="M44.611 3.18042H41.8333V5.95818H44.611V3.18042Z" fill="#4E4D4D"/>
<path d="M30.6874 3.18042H27.9097V5.95818H30.6874V3.18042Z" fill="#4B4C4D"/>
<path d="M27.9096 3.18042H25.1318V5.95818H27.9096V3.18042Z" fill="#333536"/>
<path d="M19.5414 3.18042H16.7637V5.95818H19.5414V3.18042Z" fill="#4F5152"/>
<path d="M5.6176 81.5515H2.83984V84.3293H5.6176V81.5515Z" fill="#515456"/>
<path d="M5.6176 84.3293H2.83984V87.1071H5.6176V84.3293Z" fill="#393A3B"/>
<path d="M5.6176 78.7563H2.83984V81.5341H5.6176V78.7563Z" fill="#595B5D"/>
<path d="M5.6176 47.939H2.83984V78.7738H5.6176V47.939Z" fill="#595B5D"/>
<path d="M5.6176 45.1438H2.83984V47.9216H5.6176V45.1438Z" fill="#595B5D"/>
<path d="M5.6176 42.366H2.83984V45.1437H5.6176V42.366Z" fill="#595B5D"/>
<path d="M5.6176 39.5708H2.83984V42.3486H5.6176V39.5708Z" fill="#595B5D"/>
<path d="M41.8158 73.1833H39.0381V75.9611H41.8158V73.1833Z" fill="#868B8F"/>
<path d="M44.5937 73.1833H41.8159V75.9611H44.5937V73.1833Z" fill="#696D70"/>
<path d="M47.3888 73.1833H44.6111V75.9611H47.3888V73.1833Z" fill="#606265"/>
<path d="M50.1667 73.1833H47.3889V75.9611H50.1667V73.1833Z" fill="#ACB0B4"/>
<path d="M52.9618 73.1833H50.1841V75.9611H52.9618V73.1833Z" fill="#BCC0C4"/>
<path d="M55.7397 73.1833H52.9619V75.9611H55.7397V73.1833Z" fill="#83868A"/>
<path d="M58.5348 73.1833H55.7571V75.9611H58.5348V73.1833Z" fill="#020203"/>
<path d="M61.3127 73.1833H58.5349V75.9611H61.3127V73.1833Z" fill="#060607"/>
<path d="M64.1078 73.1833H61.3301V75.9611H64.1078V73.1833Z" fill="#3B3D3F"/>
<path d="M66.8857 73.1833H64.1079V75.9611H66.8857V73.1833Z" fill="#444548"/>
<path d="M69.6633 73.1833H66.8855V75.9611H69.6633V73.1833Z" fill="#131415"/>
<path d="M41.8158 70.4055H39.0381V73.1833H41.8158V70.4055Z" fill="#868B8F"/>
<path d="M44.5937 70.4055H41.8159V73.1833H44.5937V70.4055Z" fill="#868B8F"/>
<path d="M47.3888 70.4055H44.6111V73.1833H47.3888V70.4055Z" fill="#989C9F"/>
<path d="M50.1667 70.4055H47.3889V73.1833H50.1667V70.4055Z" fill="#C4C7CC"/>
<path d="M52.9618 70.4055H50.1841V73.1833H52.9618V70.4055Z" fill="#BCC0C4"/>
<path d="M55.7397 70.4055H52.9619V73.1833H55.7397V70.4055Z" fill="#808387"/>
<path d="M58.5348 70.4055H55.7571V73.1833H58.5348V70.4055Z" fill="#020203"/>
<path d="M61.3127 70.4055H58.5349V73.1833H61.3127V70.4055Z" fill="#343537"/>
<path d="M64.1078 70.4055H61.3301V73.1833H64.1078V70.4055Z" fill="#7D8185"/>
<path d="M66.8857 70.4055H64.1079V73.1833H66.8857V70.4055Z" fill="#5D5F62"/>
<path d="M69.6633 70.4055H66.8855V73.1833H69.6633V70.4055Z" fill="#505254"/>
<path d="M72.4587 70.4055H69.6809V73.1833H72.4587V70.4055Z" fill="#1E2020"/>
<path d="M41.8158 67.6104H39.0381V70.3881H41.8158V67.6104Z" fill="#8F9397"/>
<path d="M44.5937 67.6104H41.8159V70.3881H44.5937V67.6104Z" fill="#95989C"/>
<path d="M47.3888 67.6104H44.6111V70.3881H47.3888V67.6104Z" fill="#989C9F"/>
<path d="M50.1667 67.6104H47.3889V70.3881H50.1667V67.6104Z" fill="#C4C7CC"/>
<path d="M52.9618 67.6104H50.1841V70.3881H52.9618V67.6104Z" fill="#BCC0C4"/>
<path d="M55.7397 67.6104H52.9619V70.3881H55.7397V67.6104Z" fill="#808387"/>
<path d="M58.5348 67.6104H55.7571V70.3881H58.5348V67.6104Z" fill="#020203"/>
<path d="M61.3127 67.6104H58.5349V70.3881H61.3127V67.6104Z" fill="#55595B"/>
<path d="M64.1078 67.6104H61.3301V70.3881H64.1078V67.6104Z" fill="#5B5D60"/>
<path d="M66.8857 67.6104H64.1079V70.3881H66.8857V67.6104Z" fill="#131415"/>
<path d="M69.6633 67.6104H66.8855V70.3881H69.6633V67.6104Z" fill="#9B9C9D"/>
<path d="M72.4587 67.6104H69.6809V70.3881H72.4587V67.6104Z" fill="#535455"/>
<path d="M41.8158 53.6865H39.0381V67.6103H41.8158V53.6865Z" fill="#A2A6AA"/>
<path d="M44.5937 53.6865H41.8159V67.6103H44.5937V53.6865Z" fill="#ADB1B5"/>
<path d="M47.3888 59.2595H44.6111V67.6103H47.3888V59.2595Z" fill="#989C9F"/>
<path d="M50.1667 64.8325H47.3889V67.6103H50.1667V64.8325Z" fill="#C4C7CC"/>
<path d="M52.9618 64.8325H50.1841V67.6103H52.9618V64.8325Z" fill="#BFC3C7"/>
<path d="M55.7397 64.8325H52.9619V67.6103H55.7397V64.8325Z" fill="#93979B"/>
<path d="M58.5348 64.8325H55.7571V67.6103H58.5348V64.8325Z" fill="#444444"/>
<path d="M61.3127 64.8325H58.5349V67.6103H61.3127V64.8325Z" fill="#343536"/>
<path d="M64.1078 64.8325H61.3301V67.6103H64.1078V64.8325Z" fill="#333436"/>
<path d="M66.8857 64.8325H64.1079V67.6103H66.8857V64.8325Z" fill="#0B0C0C"/>
<path d="M69.6633 64.8325H66.8855V67.6103H69.6633V64.8325Z" fill="#868686"/>
<path d="M72.4587 64.8325H69.6809V67.6103H72.4587V64.8325Z" fill="#69696A"/>
<path d="M75.2363 64.8325H72.4585V67.6103H75.2363V64.8325Z" fill="#171818"/>
<path d="M50.1667 62.0549H47.3889V64.8327H50.1667V62.0549Z" fill="#C4C7CC"/>
<path d="M52.9618 62.0549H50.1841V64.8327H52.9618V62.0549Z" fill="#C5C9CD"/>
<path d="M55.7397 62.0549H52.9619V64.8327H55.7397V62.0549Z" fill="#CFD2D5"/>
<path d="M58.5348 62.0549H55.7571V64.8327H58.5348V62.0549Z" fill="white"/>
<path d="M61.3127 62.0549H58.5349V64.8327H61.3127V62.0549Z" fill="#C7CBCD"/>
<path d="M64.1078 62.0549H61.3301V64.8327H64.1078V62.0549Z" fill="#A6AAAD"/>
<path d="M66.8857 62.0549H64.1079V64.8327H66.8857V62.0549Z" fill="#232424"/>
<path d="M69.6633 62.0549H66.8855V64.8327H69.6633V62.0549Z" fill="#020203"/>
<path d="M72.4587 62.0549H69.6809V64.8327H72.4587V62.0549Z" fill="#747577"/>
<path d="M75.2363 62.0549H72.4585V64.8327H75.2363V62.0549Z" fill="#555658"/>
<path d="M50.1667 59.2595H47.3889V62.0373H50.1667V59.2595Z" fill="#CBCDD1"/>
<path d="M52.9618 59.2595H50.1841V62.0373H52.9618V59.2595Z" fill="#D0D2D5"/>
<path d="M55.7397 59.2595H52.9619V62.0373H55.7397V59.2595Z" fill="white"/>
<path d="M58.5348 59.2595H55.7571V62.0373H58.5348V59.2595Z" fill="white"/>
<path d="M61.3127 59.2595H58.5349V62.0373H61.3127V59.2595Z" fill="#C7CBCD"/>
<path d="M64.1078 59.2595H61.3301V62.0373H64.1078V59.2595Z" fill="#171818"/>
<path d="M66.8857 59.2595H64.1079V62.0373H66.8857V59.2595Z" fill="#0F0F0F"/>
<path d="M69.6633 59.2595H66.8855V62.0373H69.6633V59.2595Z" fill="#020203"/>
<path d="M72.4587 59.2595H69.6809V62.0373H72.4587V59.2595Z" fill="#4B4E50"/>
<path d="M75.2363 59.2595H72.4585V62.0373H75.2363V59.2595Z" fill="#3C3D3F"/>
<path d="M50.1667 50.7168H47.3889V59.2597H50.1667V50.7168Z" fill="white"/>
<path d="M52.9618 45.1438H50.1841V59.2597H52.9618V45.1438Z" fill="white"/>
<path d="M55.7397 42.366H52.9619V59.2596H55.7397V42.366Z" fill="white"/>
<path d="M58.5348 42.366H55.7571V59.2596H58.5348V42.366Z" fill="white"/>
<path d="M61.3127 56.4819H58.5349V59.2597H61.3127V56.4819Z" fill="#C7CBCD"/>
<path d="M64.1078 56.4819H61.3301V59.2597H64.1078V56.4819Z" fill="#171818"/>
<path d="M66.8857 56.4819H64.1079V59.2597H66.8857V56.4819Z" fill="#9A9D9F"/>
<path d="M69.6633 56.4819H66.8855V59.2597H69.6633V56.4819Z" fill="#38393A"/>
<path d="M72.4587 56.4819H69.6809V59.2597H72.4587V56.4819Z" fill="#020203"/>
<path d="M75.2363 56.4819H72.4585V59.2597H75.2363V56.4819Z" fill="#202020"/>
<path d="M47.3888 50.7168H44.6111V59.2597H47.3888V50.7168Z" fill="#A9ABAE"/>
<path d="M61.3127 42.366H58.5349V53.6342H61.3127V42.366Z" fill="white"/>
<path d="M64.1078 53.6865H61.3301V56.4643H64.1078V53.6865Z" fill="#1F1F1F"/>
<path d="M66.8857 53.6865H64.1079V56.4643H66.8857V53.6865Z" fill="#020203"/>
<path d="M69.6633 53.6865H66.8855V56.4643H69.6633V53.6865Z" fill="#020203"/>
<path d="M72.4587 53.6865H69.6809V56.4643H72.4587V53.6865Z" fill="#020203"/>
<path d="M75.2363 53.6865H72.4585V56.4643H75.2363V53.6865Z" fill="#202020"/>
<path d="M41.8158 50.7168H39.0381V53.6867H41.8158V50.7168Z" fill="#CBCDD1"/>
<path d="M44.5937 50.7168H41.8159V53.6867H44.5937V50.7168Z" fill="#D0D2D5"/>
<path d="M64.1078 50.9089H61.3301V53.6867H64.1078V50.9089Z" fill="#EFEFEF"/>
<path d="M66.8857 50.9089H64.1079V53.6867H66.8857V50.9089Z" fill="#C3C4C8"/>
<path d="M69.6633 50.9089H66.8855V53.6867H69.6633V50.9089Z" fill="#343536"/>
<path d="M72.4587 50.9089H69.6809V53.6867H72.4587V50.9089Z" fill="#202121"/>
<path d="M64.1078 48.1138H61.3301V50.8915H64.1078V48.1138Z" fill="#D5D7DA"/>
<path d="M66.8857 48.1138H64.1079V50.8915H66.8857V48.1138Z" fill="#9DA1A5"/>
<path d="M69.6633 48.1138H66.8855V50.8915H69.6633V48.1138Z" fill="#2A2B2C"/>
<path d="M72.4587 48.1138H69.6809V50.8915H72.4587V48.1138Z" fill="#232323"/>
<path d="M64.1078 45.3359H61.3301V48.1137H64.1078V45.3359Z" fill="#CBCED1"/>
<path d="M66.8857 45.3359H64.1079V48.1137H66.8857V45.3359Z" fill="#444547"/>
<path d="M69.6633 45.3359H66.8855V48.1137H69.6633V45.3359Z" fill="#727678"/>
<path d="M72.4587 45.3359H69.6809V48.1137H72.4587V45.3359Z" fill="#5B5C5D"/>
<path d="M64.1254 42.366H61.3477V45.3359H64.1254V42.366Z" fill="#545557"/>
<path d="M66.903 42.366H64.1252V45.3359H66.903V42.366Z" fill="#2E2E2E"/>
<path d="M69.6808 42.366H66.9031V45.3359H69.6808V42.366Z" fill="#535354"/>
<path d="M52.9618 39.5708H50.1841V42.3486H52.9618V39.5708Z" fill="#ADB1B4"/>
<path d="M55.7397 39.5708H52.9619V42.3486H55.7397V39.5708Z" fill="#B9BBBE"/>
<path d="M58.5348 39.5708H55.7571V42.3486H58.5348V39.5708Z" fill="#DCDEE0"/>
<path d="M61.3127 39.5708H58.5349V42.3486H61.3127V39.5708Z" fill="#A4A5A8"/>
<path d="M64.1078 39.5708H61.3301V42.3486H64.1078V39.5708Z" fill="#131315"/>
<path d="M52.9618 42.366H50.1841V45.1437H52.9618V42.366Z" fill="#B8BABD"/>
<path d="M52.9618 36.793H50.1841V39.5707H52.9618V36.793Z" fill="#5E6163"/>
<path d="M55.7397 36.793H52.9619V39.5707H55.7397V36.793Z" fill="#454749"/>
<path d="M58.5348 36.793H55.7571V39.5707H58.5348V36.793Z" fill="#626466"/>
<path d="M61.3127 36.793H58.5349V39.5707H61.3127V36.793Z" fill="#454749"/>
<path d="M64.1078 36.793H61.3301V39.5707H64.1078V36.793Z" fill="#222222"/>
<path d="M75.2363 87.1245H72.4585V89.9023H75.2363V87.1245Z" fill="#020203"/>
<path d="M78.0317 87.1245H75.2539V89.9023H78.0317V87.1245Z" fill="#020203"/>
<path d="M80.8093 87.1245H78.0315V89.9023H80.8093V87.1245Z" fill="#020203"/>
<path d="M75.2363 84.3293H72.4585V87.1071H75.2363V84.3293Z" fill="#020203"/>
<path d="M78.0317 84.3293H75.2539V87.1071H78.0317V84.3293Z" fill="#020203"/>
<path d="M80.8093 84.3293H78.0315V87.1071H80.8093V84.3293Z" fill="#020203"/>
<path d="M83.6047 84.3293H80.8269V87.1071H83.6047V84.3293Z" fill="#020203"/>
<path d="M75.2363 81.5515H72.4585V84.3293H75.2363V81.5515Z" fill="#020203"/>
<path d="M78.0317 81.5515H75.2539V84.3293H78.0317V81.5515Z" fill="#020203"/>
<path d="M80.8093 81.5515H78.0315V84.3293H80.8093V81.5515Z" fill="#020203"/>
<path d="M83.6047 81.5515H80.8269V84.3293H83.6047V81.5515Z" fill="#020203"/>
<path d="M75.2363 78.7563H72.4585V81.5341H75.2363V78.7563Z" fill="#020203"/>
<path d="M78.0317 78.7563H75.2539V81.5341H78.0317V78.7563Z" fill="#020203"/>
<path d="M80.8093 78.7563H78.0315V81.5341H80.8093V78.7563Z" fill="#020203"/>
<path d="M83.6047 78.7563H80.8269V81.5341H83.6047V78.7563Z" fill="#020203"/>
<path d="M86.3822 78.7563H83.6045V81.5341H86.3822V78.7563Z" fill="#020203"/>
<path d="M75.2363 75.9785H72.4585V78.7563H75.2363V75.9785Z" fill="#020203"/>
<path d="M78.0317 75.9785H75.2539V78.7563H78.0317V75.9785Z" fill="#020203"/>
<path d="M80.8093 75.9785H78.0315V78.7563H80.8093V75.9785Z" fill="#020203"/>
<path d="M83.6047 75.9785H80.8269V78.7563H83.6047V75.9785Z" fill="#020203"/>
<path d="M86.3822 75.9785H83.6045V78.7563H86.3822V75.9785Z" fill="#020203"/>
<path d="M75.2363 73.1833H72.4585V75.9611H75.2363V73.1833Z" fill="#020203"/>
<path d="M78.0317 73.1833H75.2539V75.9611H78.0317V73.1833Z" fill="#020203"/>
<path d="M80.8093 73.1833H78.0315V75.9611H80.8093V73.1833Z" fill="#020203"/>
<path d="M83.6047 73.1833H80.8269V75.9611H83.6047V73.1833Z" fill="#020203"/>
<path d="M86.3822 73.1833H83.6045V75.9611H86.3822V73.1833Z" fill="#020203"/>
<path d="M75.2363 70.4055H72.4585V73.1833H75.2363V70.4055Z" fill="#020203"/>
<path d="M78.0317 70.4055H75.2539V73.1833H78.0317V70.4055Z" fill="#020203"/>
<path d="M80.8093 70.4055H78.0315V73.1833H80.8093V70.4055Z" fill="#020203"/>
<path d="M83.6047 70.4055H80.8269V73.1833H83.6047V70.4055Z" fill="#020203"/>
<path d="M86.3822 70.4055H83.6045V73.1833H86.3822V70.4055Z" fill="#020203"/>
<path d="M86.3822 81.5515H83.6045V84.3293H86.3822V81.5515Z" fill="#020203"/>
<path d="M89.1777 78.7563H86.3999V81.5341H89.1777V78.7563Z" fill="#020203"/>
<path d="M89.1777 75.9785H86.3999V78.7563H89.1777V75.9785Z" fill="#020203"/>
<path d="M89.1777 73.1833H86.3999V75.9611H89.1777V73.1833Z" fill="#020203"/>
<path d="M89.1777 70.4055H86.3999V73.1833H89.1777V70.4055Z" fill="#020203"/>
<path d="M91.9553 75.9785H89.1775V78.7563H91.9553V75.9785Z" fill="#020203"/>
<path d="M91.9553 73.1833H89.1775V75.9611H91.9553V73.1833Z" fill="#020203"/>
<path d="M75.2363 67.6104H72.4585V70.3881H75.2363V67.6104Z" fill="#020203"/>
<path d="M78.0317 67.6104H75.2539V70.3881H78.0317V67.6104Z" fill="#020203"/>
<path d="M80.8093 67.6104H78.0315V70.3881H80.8093V67.6104Z" fill="#020203"/>
<path d="M83.6047 67.6104H80.8269V70.3881H83.6047V67.6104Z" fill="#020203"/>
<path d="M86.3822 67.6104H83.6045V70.3881H86.3822V67.6104Z" fill="#020203"/>
<path d="M78.0317 64.8325H75.2539V67.6103H78.0317V64.8325Z" fill="#020203"/>
<path d="M80.8093 64.8325H78.0315V67.6103H80.8093V64.8325Z" fill="#020203"/>
<path d="M83.6047 64.8325H80.8269V67.6103H83.6047V64.8325Z" fill="#020203"/>
<path d="M78.0317 62.0549H75.2539V64.8327H78.0317V62.0549Z" fill="#020203"/>
<path d="M80.8093 62.0549H78.0315V64.8327H80.8093V62.0549Z" fill="#020203"/>
<path d="M72.4587 89.9023H69.6809V92.6801H72.4587V89.9023Z" fill="#020203"/>
<path d="M72.4587 87.1245H69.6809V89.9023H72.4587V87.1245Z" fill="#020203"/>
<path d="M72.4587 84.3293H69.6809V87.1071H72.4587V84.3293Z" fill="#020203"/>
<path d="M72.4587 81.5515H69.6809V84.3293H72.4587V81.5515Z" fill="#020203"/>
<path d="M72.4587 78.7563H69.6809V81.5341H72.4587V78.7563Z" fill="#020203"/>
<path d="M72.4587 75.9785H69.6809V78.7563H72.4587V75.9785Z" fill="#020203"/>
<path d="M72.4587 73.1833H69.6809V75.9611H72.4587V73.1833Z" fill="#020203"/>
<path d="M69.6633 89.9023H66.8855V92.6801H69.6633V89.9023Z" fill="#020203"/>
<path d="M69.6633 87.1245H66.8855V89.9023H69.6633V87.1245Z" fill="#020203"/>
<path d="M69.6633 84.3293H66.8855V87.1071H69.6633V84.3293Z" fill="#020203"/>
<path d="M69.6633 81.5515H66.8855V84.3293H69.6633V81.5515Z" fill="#020203"/>
<path d="M69.6633 78.7563H66.8855V81.5341H69.6633V78.7563Z" fill="#020203"/>
<path d="M69.6633 75.9785H66.8855V78.7563H69.6633V75.9785Z" fill="#020203"/>
<path d="M66.8857 89.9023H64.1079V92.6801H66.8857V89.9023Z" fill="#020203"/>
<path d="M66.8857 87.1245H64.1079V89.9023H66.8857V87.1245Z" fill="#020203"/>
<path d="M66.8857 84.3293H64.1079V87.1071H66.8857V84.3293Z" fill="#020203"/>
<path d="M66.8857 81.5515H64.1079V84.3293H66.8857V81.5515Z" fill="#020203"/>
<path d="M66.8857 78.7563H64.1079V81.5341H66.8857V78.7563Z" fill="#020203"/>
<path d="M66.8857 75.9785H64.1079V78.7563H66.8857V75.9785Z" fill="#020203"/>
<path d="M66.8857 92.6802H64.1079V95.4579H66.8857V92.6802Z" fill="#020203"/>
<path d="M64.1078 89.9023H61.3301V92.6801H64.1078V89.9023Z" fill="#020203"/>
<path d="M64.1078 87.1245H61.3301V89.9023H64.1078V87.1245Z" fill="#020203"/>
<path d="M64.1078 84.3293H61.3301V87.1071H64.1078V84.3293Z" fill="#020203"/>
<path d="M64.1078 81.5515H61.3301V84.3293H64.1078V81.5515Z" fill="#020203"/>
<path d="M64.1078 78.7563H61.3301V81.5341H64.1078V78.7563Z" fill="#020203"/>
<path d="M64.1078 75.9785H61.3301V78.7563H64.1078V75.9785Z" fill="#020203"/>
<path d="M64.1078 92.6802H61.3301V95.4579H64.1078V92.6802Z" fill="#020203"/>
<path d="M41.8158 47.939H39.0381V50.7167H41.8158V47.939Z" fill="#BDBFC1"/>
<path d="M44.5937 47.939H41.8159V50.7167H44.5937V47.939Z" fill="#E5E6E7"/>
<path d="M47.3888 47.939H44.6111V50.7167H47.3888V47.939Z" fill="#B0B4B9"/>
<path d="M50.1667 47.939H47.3889V50.7167H50.1667V47.939Z" fill="#A2A3A6"/>
<path d="M61.3127 53.0054H58.5349V56.4819H61.3127V53.0054Z" fill="white"/>
<path d="M22.3193 89.9023H19.5415V92.6801H22.3193V89.9023Z" fill="#C4C7CC"/>
<path d="M25.0968 89.9023H22.3191V92.6801H25.0968V89.9023Z" fill="#C4C7CC"/>
<path d="M27.8923 89.9023H25.1145V92.6801H27.8923V89.9023Z" fill="#C4C7CC"/>
<path d="M30.6698 89.9023H27.8921V92.6801H30.6698V89.9023Z" fill="#C4C7CC"/>
<path d="M33.4653 89.9023H30.6875V92.6801H33.4653V89.9023Z" fill="#C4C7CC"/>
<path d="M36.2428 89.9023H33.4651V92.6801H36.2428V89.9023Z" fill="#C4C7CC"/>
<path d="M39.038 89.9023H36.2603V92.6801H39.038V89.9023Z" fill="#5D6062"/>
<path d="M41.8158 89.9023H39.0381V92.6801H41.8158V89.9023Z" fill="#0C0D0D"/>
<path d="M44.5937 89.9023H41.8159V92.6801H44.5937V89.9023Z" fill="#333536"/>
<path d="M47.3888 89.9023H44.6111V92.6801H47.3888V89.9023Z" fill="#686A6D"/>
<path d="M50.1667 89.9023H47.3889V92.6801H50.1667V89.9023Z" fill="#2A2C2D"/>
<path d="M52.9618 89.9023H50.1841V92.6801H52.9618V89.9023Z" fill="#787C80"/>
<path d="M55.7397 89.9023H52.9619V92.6801H55.7397V89.9023Z" fill="#B9BDC1"/>
<path d="M58.5348 89.9023H55.7571V92.6801H58.5348V89.9023Z" fill="#B9BDC1"/>
<path d="M61.3127 89.9023H58.5349V92.6801H61.3127V89.9023Z" fill="#898C90"/>
<path d="M22.3193 92.6802H19.5415V95.4579H22.3193V92.6802Z" fill="#020203"/>
<path d="M25.0968 92.6802H22.3191V95.4579H25.0968V92.6802Z" fill="#020203"/>
<path d="M27.8923 92.6802H25.1145V95.4579H27.8923V92.6802Z" fill="#020203"/>
<path d="M30.6698 92.6802H27.8921V95.4579H30.6698V92.6802Z" fill="#020203"/>
<path d="M33.4653 92.6802H30.6875V95.4579H33.4653V92.6802Z" fill="#020203"/>
<path d="M36.2428 92.6802H33.4651V95.4579H36.2428V92.6802Z" fill="#020203"/>
<path d="M39.038 92.6802H36.2603V95.4579H39.038V92.6802Z" fill="#020203"/>
<path d="M41.8158 92.6802H39.0381V95.4579H41.8158V92.6802Z" fill="#020203"/>
<path d="M44.5937 92.6802H41.8159V95.4579H44.5937V92.6802Z" fill="#020203"/>
<path d="M47.3888 92.6802H44.6111V95.4579H47.3888V92.6802Z" fill="#020203"/>
<path d="M50.1667 92.6802H47.3889V95.4579H50.1667V92.6802Z" fill="#020203"/>
<path d="M52.9618 92.6802H50.1841V95.4579H52.9618V92.6802Z" fill="#020203"/>
<path d="M55.7397 92.6802H52.9619V95.4579H55.7397V92.6802Z" fill="#020203"/>
<path d="M58.5348 92.6802H55.7571V95.4579H58.5348V92.6802Z" fill="#020203"/>
<path d="M61.3127 92.6802H58.5349V95.4579H61.3127V92.6802Z" fill="#020203"/>
<path d="M13.9684 89.9023H11.1907V92.6801H13.9684V89.9023Z" fill="#020203"/>
<path d="M16.7463 89.9023H13.9685V92.6801H16.7463V89.9023Z" fill="#020203"/>
<path d="M19.5239 89.9023H16.7461V92.6801H19.5239V89.9023Z" fill="#020203"/>
<path d="M11.1733 87.1245H8.39551V89.9023H11.1733V87.1245Z" fill="#020203"/>
<path d="M52.9618 34.0151H50.1841V36.7929H52.9618V34.0151Z" fill="#020203"/>
<path d="M55.7397 34.0151H52.9619V36.7929H55.7397V34.0151Z" fill="#020203"/>
<path d="M58.5348 34.0151H55.7571V36.7929H58.5348V34.0151Z" fill="#020203"/>
<path d="M61.3127 34.0151H58.5349V36.7929H61.3127V34.0151Z" fill="#020203"/>
<path d="M64.1078 34.0151H61.3301V36.7929H64.1078V34.0151Z" fill="#020203"/>
<path d="M66.8857 39.5708H64.1079V42.3486H66.8857V39.5708Z" fill="#020203"/>
<path d="M66.8857 36.793H64.1079V39.5707H66.8857V36.793Z" fill="#020203"/>
<path d="M72.4411 42.366H69.6633V45.3359H72.4411V42.366Z" fill="#020203"/>
<path d="M69.6633 39.396H66.8855V42.3659H69.6633V39.396Z" fill="#020203"/>
<path d="M78.0317 59.2595H75.2539V62.0373H78.0317V59.2595Z" fill="#020203"/>
<path d="M78.0317 56.4819H75.2539V59.2597H78.0317V56.4819Z" fill="#020203"/>
<path d="M78.0317 53.6865H75.2539V56.4643H78.0317V53.6865Z" fill="#020203"/>
<path d="M75.2363 50.9089H72.4585V53.6867H75.2363V50.9089Z" fill="#020203"/>
<path d="M75.2363 48.1138H72.4585V50.8915H75.2363V48.1138Z" fill="#020203"/>
<path d="M75.2363 45.3359H72.4585V48.1137H75.2363V45.3359Z" fill="#020203"/>
<path d="M52.9794 31.22H50.2017V33.9977H52.9794V31.22Z" fill="#020203"/>
<path d="M55.757 31.22H52.9792V33.9977H55.757V31.22Z" fill="#020203"/>
<path d="M58.5173 28.4421H55.7395V31.2199H58.5173V28.4421Z" fill="#020203"/>
<path d="M58.5348 25.647H55.7571V28.4247H58.5348V25.647Z" fill="#020203"/>
<path d="M58.5348 22.8691H55.7571V25.6469H58.5348V22.8691Z" fill="#020203"/>
<path d="M52.9794 11.636H50.2017V14.5186H52.9794V11.636Z" fill="#020203"/>
<path d="M50.184 8.75342H47.4062V11.636H50.184V8.75342Z" fill="#020203"/>
<path d="M50.184 5.97559H47.4062V8.75335H50.184V5.97559Z" fill="#020203"/>
<path d="M47.4064 3.18042H44.6287V5.95818H47.4064V3.18042Z" fill="#020203"/>
<path d="M33.4653 3.18042H30.6875V5.95818H33.4653V3.18042Z" fill="#020203"/>
<path d="M36.2604 3.18042H33.4827V5.95818H36.2604V3.18042Z" fill="#020203"/>
<path d="M39.038 3.18042H36.2603V5.95818H39.038V3.18042Z" fill="#020203"/>
<path d="M41.8334 0.402588H39.0557V3.18035H41.8334V0.402588Z" fill="#020203"/>
<path d="M44.611 0.402588H41.8333V3.18035H44.611V0.402588Z" fill="#020203"/>
<path d="M22.3366 3.18042H19.5588V5.95818H22.3366V3.18042Z" fill="#020203"/>
<path d="M30.6874 0.402588H27.9097V3.18035H30.6874V0.402588Z" fill="#020203"/>
<path d="M27.9096 0.402588H25.1318V3.18035H27.9096V0.402588Z" fill="#020203"/>
<path d="M19.5414 0.402588H16.7637V3.18035H19.5414V0.402588Z" fill="#020203"/>
<path d="M25.1144 3.18042H22.3367V5.95818H25.1144V3.18042Z" fill="#020203"/>
<path d="M16.7636 3.18042H13.9858V5.95818H16.7636V3.18042Z" fill="#020203"/>
<path d="M13.9684 8.75342H11.1907V11.636H13.9684V8.75342Z" fill="#020203"/>
<path d="M13.9684 5.97559H11.1907V8.75335H13.9684V5.97559Z" fill="#020203"/>
</svg>
