<svg width="1774" height="144" viewBox="0 0 1774 144" fill="none" xmlns="http://www.w3.org/2000/svg">
<g filter="url(#filter0_i_770_36480)">
<path d="M19.6303 65.4789H58.8908V16.4032H78.5211V124.37H58.8908V75.294H19.6303V124.37H0V16.4032H19.6303V65.4789ZM108.163 36.0335H88.5326V16.4032H108.163V36.0335ZM108.163 45.8486V124.37H88.5326V45.8486H108.163ZM137.805 94.9243H118.174V16.4032H137.805V94.9243ZM137.805 104.739V124.37H118.174V104.739H137.805ZM213.577 26.2183H203.762V16.4032H243.023V26.2183H233.208V114.555H243.023V124.37H203.762V114.555H213.577V26.2183ZM262.653 16.4032H282.283V45.8486H301.914V55.6637H282.283V114.555H301.914V124.37H272.468V114.555H262.653V55.6637H252.838V45.8486H262.653V16.4032ZM344.494 2.6871C343.288 7.37742 341.747 12.4698 339.871 17.9642C337.995 23.4585 335.918 28.9529 333.639 34.4473C331.495 39.8077 329.351 44.9001 327.207 49.7244H314.141C315.079 45.9721 316.017 41.9518 316.955 37.6635C318.027 33.3752 318.965 29.0869 319.769 24.7986C320.708 20.3763 321.512 16.088 322.182 11.9337C322.986 7.77945 323.656 3.96018 324.192 0.475935H343.087L344.494 2.6871ZM356.682 45.8486H405.758V55.6637H415.573V65.4789H395.943V55.6637H366.497V75.294H386.128V85.1092H405.758V94.9243H415.573V114.555H405.758V124.37H356.682V114.555H346.867V104.739H366.497V114.555H395.943V94.9243H376.312V85.1092H356.682V75.294H346.867V55.6637H356.682V45.8486ZM501.161 45.8486H510.976V55.6637H530.607V45.8486H540.422V16.4032H560.052V45.8486H550.237V55.6637H540.422V65.4789H530.607V124.37H510.976V65.4789H501.161V55.6637H491.346V45.8486H481.531V16.4032H501.161V45.8486ZM579.878 45.8486H628.954V55.6637H638.769V114.555H628.954V124.37H579.878V114.555H570.063V55.6637H579.878V45.8486ZM589.694 55.6637V114.555H619.139V55.6637H589.694ZM668.411 45.8486V114.555H697.857V124.37H658.596V114.555H648.781V45.8486H668.411ZM697.857 45.8486H717.487V124.37H707.672V114.555H697.857V45.8486ZM747.129 45.8486V55.6637H756.944V45.8486H776.574V55.6637H766.759V65.4789H756.944V75.294H747.129V124.37H727.498V45.8486H747.129ZM852.151 45.8486H901.226V55.6637H911.041V65.4789H891.411V55.6637H861.966V75.294H881.596V85.1092H901.226V94.9243H911.041V114.555H901.226V124.37H852.151V114.555H842.335V104.739H861.966V114.555H891.411V94.9243H871.781V85.1092H852.151V75.294H842.335V55.6637H852.151V45.8486ZM940.683 45.8486H979.944V55.6637H989.759V124.37H970.128V55.6637H940.683V124.37H921.053V16.4032H940.683V45.8486ZM1009.59 45.8486H1058.66V55.6637H1068.48V114.555H1058.66V124.37H1009.59V114.555H999.77V55.6637H1009.59V45.8486ZM1019.4 55.6637V114.555H1048.85V55.6637H1019.4ZM1137.38 45.8486V55.6637H1147.19V104.739H1137.38V114.555H1098.12V144H1078.49V45.8486H1137.38ZM1098.12 55.6637V104.739H1127.56V55.6637H1098.12ZM1216.1 45.8486V55.6637H1225.91V104.739H1216.1V114.555H1176.84V144H1157.21V45.8486H1216.1ZM1176.84 55.6637V104.739H1206.28V55.6637H1176.84ZM1255.55 36.0335H1235.92V16.4032H1255.55V36.0335ZM1255.55 45.8486V124.37H1235.92V45.8486H1255.55ZM1324.46 45.8486V55.6637H1334.27V124.37H1314.64V55.6637H1285.19V124.37H1265.56V45.8486H1324.46ZM1354.1 45.8486H1412.99V134.185H1403.17V144H1354.1V134.185H1393.36V114.555H1354.1V104.739H1344.28V55.6637H1354.1V45.8486ZM1363.91 55.6637V104.739H1393.36V55.6637H1363.91ZM1488.76 45.8486H1537.84V55.6637H1547.65V65.4789H1528.02V55.6637H1498.58V114.555H1528.02V104.739H1547.65V114.555H1537.84V124.37H1488.76V114.555H1478.95V55.6637H1488.76V45.8486ZM1567.48 45.8486H1616.55V55.6637H1626.37V124.37H1567.48V114.555H1557.66V85.1092H1567.48V75.294H1606.74V55.6637H1567.48V45.8486ZM1577.29 85.1092V114.555H1606.74V85.1092H1577.29ZM1656.01 45.8486V55.6637H1665.83V45.8486H1685.46V55.6637H1675.64V65.4789H1665.83V75.294H1656.01V124.37H1636.38V45.8486H1656.01ZM1705.09 16.4032H1724.72V45.8486H1744.35V55.6637H1724.72V114.555H1744.35V124.37H1714.9V114.555H1705.09V55.6637H1695.27V45.8486H1705.09V16.4032ZM1773.79 104.739V124.37H1754.16V104.739H1773.79Z" fill="#B5B5B5"/>
</g>
<defs>
<filter id="filter0_i_770_36480" x="0" y="0.475586" width="1773.79" height="147.545" filterUnits="userSpaceOnUse" color-interpolation-filters="sRGB">
<feFlood flood-opacity="0" result="BackgroundImageFix"/>
<feBlend mode="normal" in="SourceGraphic" in2="BackgroundImageFix" result="shape"/>
<feColorMatrix in="SourceAlpha" type="matrix" values="0 0 0 0 0 0 0 0 0 0 0 0 0 0 0 0 0 0 127 0" result="hardAlpha"/>
<feOffset dy="4.02028"/>
<feGaussianBlur stdDeviation="2.01014"/>
<feComposite in2="hardAlpha" operator="arithmetic" k2="-1" k3="1"/>
<feColorMatrix type="matrix" values="0 0 0 0 0 0 0 0 0 0 0 0 0 0 0 0 0 0 0.25 0"/>
<feBlend mode="normal" in2="shape" result="effect1_innerShadow_770_36480"/>
</filter>
</defs>
</svg>
