<svg width="63" height="22" viewBox="0 0 63 22" fill="none" xmlns="http://www.w3.org/2000/svg">
<g filter="url(#filter0_i_870_15362)">
<path d="M0.6136 6.48714V5.29062H7.0564V6.48714H0.6136ZM14.1865 1.01172H11.9394V0.262695H17.9316V1.01172H15.6846V8.50195H14.1865V1.01172ZM20.1937 2.50977H23.1898V3.25879H23.9388V8.50195H22.4407V3.25879H20.1937V8.50195H18.6956V0.262695H20.1937V2.50977ZM25.4518 2.50977H29.1969V3.25879H29.946V8.50195H25.4518V7.75293H24.7028V5.50586H25.4518V4.75684H28.4479V3.25879H25.4518V2.50977ZM26.2008 5.50586V7.75293H28.4479V5.50586H26.2008ZM31.459 0.262695H32.957V2.50977H34.4551V3.25879H32.957V7.75293H34.4551V8.50195H32.208V7.75293H31.459V3.25879H30.71V2.50977H31.459V0.262695ZM36.7021 2.50977H35.9531V3.25879H35.2041V0.262695H36.7021V2.50977ZM38.2152 2.50977H41.9603V3.25879H42.7093V4.00781H41.2113V3.25879H38.9642V4.75684H40.4622V5.50586H41.9603V6.25488H42.7093V7.75293H41.9603V8.50195H38.2152V7.75293H37.4662V7.00391H38.9642V7.75293H41.2113V6.25488H39.7132V5.50586H38.2152V4.75684H37.4662V3.25879H38.2152V2.50977ZM48.4918 2.50977H52.2369V3.25879H52.9859V8.50195H48.4918V7.75293H47.7428V5.50586H48.4918V4.75684H51.4879V3.25879H48.4918V2.50977ZM49.2408 5.50586V7.75293H51.4879V5.50586H49.2408ZM0.749023 14.5098H5.24316V21.251H4.49414V22H0.749023V21.251H3.74512V19.7529H0.749023V19.0039H0V15.2588H0.749023V14.5098ZM1.49805 15.2588V19.0039H3.74512V15.2588H1.49805ZM6.75619 14.5098H10.5013V15.2588H11.2503V19.7529H10.5013V20.502H6.75619V19.7529H6.00717V15.2588H6.75619V14.5098ZM7.50521 15.2588V19.7529H9.75229V15.2588H7.50521ZM12.7634 14.5098H16.5085V15.2588H17.2575V19.7529H16.5085V20.502H12.7634V19.7529H12.0143V15.2588H12.7634V14.5098ZM13.5124 15.2588V19.7529H15.7595V15.2588H13.5124ZM21.7666 12.2627H23.2647V20.502H18.7705V19.7529H18.0215V15.2588H18.7705V14.5098H21.7666V12.2627ZM19.5196 15.2588V19.7529H21.7666V15.2588H19.5196ZM29.0471 14.5098H32.7922V15.2588H33.5413V16.0078H32.0432V15.2588H29.7962V19.7529H32.0432V19.0039H33.5413V19.7529H32.7922V20.502H29.0471V19.7529H28.2981V15.2588H29.0471V14.5098ZM35.8033 14.5098H38.7994V15.2588H39.5484V20.502H38.0504V15.2588H35.8033V20.502H34.3053V12.2627H35.8033V14.5098ZM41.0615 14.5098H44.8066V15.2588H45.5556V19.7529H44.8066V20.502H41.0615V19.7529H40.3124V15.2588H41.0615V14.5098ZM41.8105 15.2588V19.7529H44.0576V15.2588H41.8105ZM47.8177 13.7607H46.3196V12.2627H47.8177V13.7607ZM47.8177 14.5098V20.502H46.3196V14.5098H47.8177ZM49.3307 14.5098H53.0758V15.2588H53.8248V16.0078H52.3268V15.2588H50.0797V19.7529H52.3268V19.0039H53.8248V19.7529H53.0758V20.502H49.3307V19.7529H48.5817V15.2588H49.3307V14.5098ZM55.3378 14.5098H59.083V15.2588H59.832V17.5059H56.0869V19.7529H58.3339V19.0039H59.832V19.7529H59.083V20.502H55.3378V19.7529H54.5888V15.2588H55.3378V14.5098ZM56.0869 15.2588V16.7568H58.3339V15.2588H56.0869ZM62.094 18.2549H60.596V12.2627H62.094V18.2549ZM62.094 19.0039V20.502H60.596V19.0039H62.094Z" fill="#B5B5B5"/>
</g>
<defs>
<filter id="filter0_i_870_15362" x="0" y="0.262695" width="62.094" height="21.7373" filterUnits="userSpaceOnUse" color-interpolation-filters="sRGB">
<feFlood flood-opacity="0" result="BackgroundImageFix"/>
<feBlend mode="normal" in="SourceGraphic" in2="BackgroundImageFix" result="shape"/>
<feColorMatrix in="SourceAlpha" type="matrix" values="0 0 0 0 0 0 0 0 0 0 0 0 0 0 0 0 0 0 127 0" result="hardAlpha"/>
<feOffset dy="1.11311"/>
<feComposite in2="hardAlpha" operator="arithmetic" k2="-1" k3="1"/>
<feColorMatrix type="matrix" values="0 0 0 0 0 0 0 0 0 0 0 0 0 0 0 0 0 0 0.25 0"/>
<feBlend mode="normal" in2="shape" result="effect1_innerShadow_870_15362"/>
</filter>
</defs>
</svg>
